P1
20 20
00000000000000000000
00000000000000000000
00000000000000000000
00000000000000000000
00000000001111100000
00000000111111110000
00000001110001110000
00000011100001110000
00000011100001110000
00000111000001110000
00000111000001110000
00000111000011110000
00000011111111100000
00000001111111100000
00000000000111100000
00000000000111000000
00000111001110000000
00000111111100000000
00000011110000000000
00000000000000000000
