P1
200 72
00000000000000000000000000000000000000000000000000000000000000000000000000000000000000000000000000000000000000000000000000000000000000000000000000000000000000000000000000000000000000000000000000000000
00000000000000000000000000000000000000000000000000000000000000000000000000000000000000000000000000000000000000000000000000000000000000000000000000000000000000000000000000000000000000000000000000000000
00000000000000000000000000000000000000000000000000000000000000000000000000000000000000000000000000000000000000000000000000000000000000000000000000000000000000000000000000000000000000000000000000000000
00000000000000000000000000000000000000000000000000000000000000000000000000000000000000000000000000000000000000000000000000000000000000000000000000000000000000000000000000000000000000000000000000000000
00000000000000000000000000000000000000000000000000000000000000000000000000000000000000000000000000000000000000000000000000000000000000000000000000000000000000000000000000000000000000000000000000000000
00000000000000000000000000000000000000000000000000000000000000000000000000000000000000000000000000000000000000000000000000000000000000000000000000000000000000000000000000000000000000000000000000000000
00000000000000000000000000000000000000000000000000000000000000000000000000000000000000000000000000000000000000000000000000000000000000000000000000000000000000000000000000000000000000000000000000000000
00000000000000000000000000000000000000000000000000000000000000000000000000000000000000000000000000000000000000000000000000000000000000000000000000000000000000000000000000000000000000000000000000000000
00000000000000000000000000000000000000000000000000000000000000000000000000000000000000000000000000000000000000000000000000000000000000000000000000000000000000000000000000000000000000000000000000000000
00000000000000000000000000000000000000000000000000000000000000000000000000000000000000000000000000000000000000000000000000000000000000000000000000000000000000000000000000000000000000000000000000000000
00000000000000000000000000000000000000000000000000000000000000000000000000000000000000000000000000000000000000000000000000000000000000000000000000000000000000000000000000000000000000000000000000000000
00000000000000000000000000000000000000000000000000000000000000000000000000000000000000000000000000000000000000000000000000000000000000000000000000000000000000000000000000000000000000000000000000000000
00000000000000000000000000000000000000000000000000000000000000000000000000000000000000000000000000000000000000000000000000000000000000000000000000000000000000000000000000000000000000000000000000000000
00000000000000000000000000000000000000000000000000000000000000000000000000000000000000000000000000000000000000000000000000000000000000000000000000000000000000000000000000000000000000000000000000000000
00000000000000000000000000000000000000000000000000000000000000000000000000000000000000000000000000000000000000000000000000000000000000000000000000000000000000000000000000000000000000000000000000000000
00000000000000000000000000000000000000000000000000000000000000000000011011111111100000000000000000000000000000000000000000000000000100000000000000000000000000000000000000000000000000000000000000000000
00000000000000000000000000000000000000000000000000000000000000000000111111111111110000000000000000000000000000000000000000000000001100000000000000000000000000000000000000000000000000000000000000000000
00000000000000000000000000000000000000000000000000000000000000000000111111111111111100000000000000000000000000000000000000000001111100000000000000000000000000000001100000000000000000000000000000000000
00000000000000000000000000000000000000000000000000000000000000000001111111111111111110000000000000000000000000000000000000000111111100000000000000000000000000000001111100000000000000000000000000000000
00000000000000000000000000000000100111111110000000000000000000000001111111111111111111000000000000000000000000000000000000011111111100000000000000000000000000000011111110000000000000000000000000000000
00000000000000000000000000000011111111111111100000000000000000000011111111111111111111100000000000000000000000000000001111111111111100000000000000000000000000000011111111110000000000000000000000000000
00000000000000000000000000011111111111111111110000000000000000000011111111111111111111110000000000000000000000000000001111111111111000000000000000000000000000000011111111111000000000000000000000000000
00000000000000000000000000111111111111111111111000000000000000000011111111110001111111110000000000000000000000000000001111111111111000000000000000000000000000000011111111111110000000000000000000000000
00000000000000000000000011111111111111111111111100000000000000000011111111100000111111111000000000000000000000000000001111111100000000000000000000000000000000000011111111111111000000000000000000000000
00000000000000000000000111111111111111111111111100000000000000000011111111100000011111111100000000000000000000000000011111100000000000000000000000000000000000000111111111111111100000000000000000000000
00000000000000000000001111111111111111111111111100000000000000000011111111000000001111111110000000000000000000000000011110000000000000000000000000000000000000000011111111111111110000000000000000000000
00000000000000000000001111111111111111111111111100000000000000000011111111000000001111111110000000000000000000000000011100000000000000000000000000000000000000000011011111111111111000000000000000000000
00000000000000000000011111111111100011111111111110000000000000000001111111100000001111111110000000000000000000000000111100000000000000000000000000000000000000000000000111111111111100000000000000000000
00000000000000000000111111111110000001111111111100000000000000000001111111100000000111111111000000000000000000000000111100000000000000000000000000000000000000000000000000111111111110000000000000000000
00000000000000000000111111111100000000111111111100000000000000000001111111100000000111111111000000000000000000000000111100000000000000000000000000000000000000000000000000001111111110000000000000000000
00000000000000000000111111111000000000111111111100000000000000000001111111100000111011111111100000000000000000000001111111111100000000000000000000000000000000000000000000000111111111000000000000000000
00000000000000000001111111111000000001111111111100000000000000000001111111110001111111111111100000000000000000000001111111111111110000000000000000000000000000000000000000000011111111000000000000000000
00000000000000000001111111111000000001111111111100000000000000000000111111110011111101111111110000000000000000000011111111111111111100000000000000000000000000000000000000000001111111100000000000000000
00000000000000000001111111111000000001111111111100000000000000000000111111110011111110111111110000000000000000000011111111111111111110000000000000000000000000000000000000000001111111100000000000000000
00000000000000000001111111110000000001111111111100000000000000000000111111111011111111111111110000000000000000000011111111111111111111000000000000000000000000000000000000000001111111110000000000000000
00000000000000000001111111110000000001111111111100000000000000000000011111111011111110111111110000000000000000000001111111111111111111100000000000000000000000000000001000000000111111110000000000000000
00000000000000000001111111110000000001111111111000000000000000000000011111111001111100111111111000000000000000000000000000111111111111100000000000000000000000000000011100000001111111100000000000000000
00000000000000000001111111100000000000111111111000000000000000000000011111111000110000011111111000000000000000000000000000000001111111110000000000000000000000000000011111100111111111100000000000000000
00000000000000000001111111100000000001111111110000000000000000000000001111111100000000011111111000000000000000000000000000000000111111110000000000000000000000000000011111111111111111100000000000000000
00000000000000000001111111110000000001111111110000000000000000000000000111111110000000011111111000000000000000000000000000000000011111110000000000000000000000000000111111111111111111100000000000000000
00000000000000000001111111110000000011111111110000000000000000000000000111111110000000011111111000000000000000000000000000000000001111111000000000000000000000000000111111111111111111100000000000000000
00000000000000000001111111110000000011111111110000000000000000000000000111111111000000001111111000000000000000000000000000000000000111111000000000000000000000000000111111111111111111000000000000000000
00000000000000000001111111110000000011111111100000000000000000000000000111111111000000001111111000000000000000000000000000000000000111111000000000000000000000000000111111111111111110000000000000000000
00000000000000000001111111110000000011111111100000000000000000000000000011111111100000011111111000000000000000000000000000000000000011111000000000000000000000000000001111111111111000000000000000000000
00000000000000000001111111100000000011111111100000000000000000000000000011111111100000011111111000000000000000000000000000000000000011111000000000000000000000000000000111111111000000000000000000000000
00000000000000000001111111110000000011111111000000000000000000000000000001111111110000111111111000000000000000000000000000000000000011111000000000000000000000000000000001111111000000000000000000000000
00000000000000000001111111110000000111111111000000000000000000000000000000111111111011111111110000000000000000000000000000000000000011111000000000000000000000000000000000111111100000000000000000000000
00000000000000000001111111110000001111111111000000000000000000000000000000111111111111111111110000000000000000000000000000000000000011111000000000000000000000000000000000011111110000000000000000000000
00000000000000000000111111110000001111111110000000000000000000000000000000011111111111111111100000000000000000000000000000000000000011111000000000000000000000000000000000011111110000000000000000000000
00000000000000000000111111110000001111111110000000000000000000000000000000011111111111111111000000000000000000000000000000000000000011111000000000000000000011000000000000011111111000000000000000000000
00000000000000000000111111110000001111111100000000000000000000000000000000001111111111111111000000000000000000000000000000000000000011111000000000000000000111100000000000011111111000000000000000000000
00000000000000000000011111111000011111111100000000000000000000000000000000000111111111111110000000000000000000000000000000000000000111110000000000000000000111111000000000011111111000000000000000000000
00000000000000000000011111111000011111111000000000000000000000000000000000000011111111111000000000000000000000000000000000000000000111110000000000000000000111111100000000011111111000000000000000000000
00000000000000000000011111111111111111111000000000000000000000000000000000000001111111110000000000000000000000000000000000000000000111100000000000000000000111111110000000011111111000000000000000000000
00000000000000000000001111111111111111110000000000000000000000000000000000000000011111100000000000000000000000000111111111000000001111100000000000000000000111111111101000111111111000000000000000000000
00000000000000000000000111111111111111100000000000000000000000000000000000000000000000000000000000000000000000000111111111110001111111000000000000000000000111111111111111111111110000000000000000000000
00000000000000000000000111111111111111100000000000000000000000000000000000000000000000000000000000000000000000000111111111111111111110000000000000000000000111111111111111111111110000000000000000000000
00000000000000000000000011111111111111000000000000000000000000000000000000000000000000000000000000000000000000000011111111111111111100000000000000000000000111111111111111111111110000000000000000000000
00000000000000000000000001111111111110000000000000000000000000000000000000000000000000000000000000000000000000000001111111111111000000000000000000000000000001111111111111111111110000000000000000000000
00000000000000000000000000011111111000000000000000000000000000000000000000000000000000000000000000000000000000000000111111111000000000000000000000000000000000111111111111111111100000000000000000000000
00000000000000000000000000000001110000000000000000000000000000000000000000000000000000000000000000000000000000000000000000000000000000000000000000000000000000000111111111111111000000000000000000000000
00000000000000000000000000000000000000000000000000000000000000000000000000000000000000000000000000000000000000000000000000000000000000000000000000000000000000000001111111111110000000000000000000000000
00000000000000000000000000000000000000000000000000000000000000000000000000000000000000000000000000000000000000000000000000000000000000000000000000000000000000000000111111111000000000000000000000000000
00000000000000000000000000000000000000000000000000000000000000000000000000000000000000000000000000000000000000000000000000000000000000000000000000000000000000000000000000000000000000000000000000000000
00000000000000000000000000000000000000000000000000000000000000000000000000000000000000000000000000000000000000000000000000000000000000000000000000000000000000000000000000000000000000000000000000000000
00000000000000000000000000000000000000000000000000000000000000000000000000000000000000000000000000000000000000000000000000000000000000000000000000000000000000000000000000000000000000000000000000000000
00000000000000000000000000000000000000000000000000000000000000000000000000000000000000000000000000000000000000000000000000000000000000000000000000000000000000000000000000000000000000000000000000000000
00000000000000000000000000000000000000000000000000000000000000000000000000000000000000000000000000000000000000000000000000000000000000000000000000000000000000000000000000000000000000000000000000000000
00000000000000000000000000000000000000000000000000000000000000000000000000000000000000000000000000000000000000000000000000000000000000000000000000000000000000000000000000000000000000000000000000000000
00000000000000000000000000000000000000000000000000000000000000000000000000000000000000000000000000000000000000000000000000000000000000000000000000000000000000000000000000000000000000000000000000000000
00000000000000000000000000000000000000000000000000000000000000000000000000000000000000000000000000000000000000000000000000000000000000000000000000000000000000000000000000000000000000000000000000000000
00000000000000000000000000000000000000000000000000000000000000000000000000000000000000000000000000000000000000000000000000000000000000000000000000000000000000000000000000000000000000000000000000000000
