P1
200 72
00000000000000000000000000000000000000000000000000000000000000000000000000000000000000000000000000000000000000000000000000000000000000000000000000000000000000000000000000000000000000000000000000000000
00000000000000000000000000000000000000000000000000000000000000000000000000000000000000000000000000000000000000000000000000000000000000000000000000000000000000000000000000000000000000000000000000000000
00000000000000000000000000000000000000000000000000000000000000000000000000000000000000000000000000000000000000000000000000000000000000000000000000000000000000000000000000000000000000000000000000000000
00000000000000000000000000000000000000000000000000000000000000000000000000000000000000000000000000000000000000000000000000000000000000000000000000000000000000000000000000000000000000000000000000000000
00000000000000000000000000000000000000000000000000000000000000000000000000000000000000000000000000000000000000000000000000000000000000000000000000000000000000000000000000000000000000000000000000000000
00000000000000000000000000000000000000000000000000000000000000000000000000000000000000000000000000000000000000000000000000000000000000000000000000000000000000000000000000000000000000000000000000000000
00000000000000000000000000000000000000000000000000000000000000000000000000000000000000000000000000000000000000000000000000000000000000000000000000000000000000000000000000000000000000000000000000000000
00000000000000000000000000000000000000000000000000000000000000000000000000000000000000000000000000000000000000000000000000000000000000000000000000000000000000000000000000000000000000000000000000000000
00000000000000000000000000000000000000000000000000000000000000000001100000000000000000000000000000000000000000000000000000000000000000000000000011000000000000000000000000000000000000000000000000000000
00000000000000000000000000000000000000000000000000000000000000111111111110000000000000000000000000000000000000000000000000000000000000000001111111000000000000000000000000000000000000000000000000000000
00000000000000000000000000000000000000000000000000000000000111111111111111100000000000000000000000000000000000000000000000000000000000000011111111000000000000000000000000000000000000000000000000000000
00000000000000000000000000000000000000000000000000000000111111111111111111110000000000000000000000000000000000000000000000000000000000011111111111000000000000000000000000000000000000000000000000000000
00000000000000000000000000000000000000000000000000000001111111111111111111111100000000000000000000000000000000000000000000000000000000111111111111000000000000000000000000000000000000000000000000000000
00000000000000000000000000000000000000000000000000001111111111111111111111111100000000000000000000000000000000000000000000000000000000111111111111000000000000000000000000000000000000000000000000000000
00000000000000000000000000000000000000000000000000011111111111111111111111111110000000000000000000000000000000000000000000000000000001111111111111000000000000000000000000000000000000000000000000000000
00000000000000000000000000000000000000000000000000001111111111111111111111111111000000000000000000000000000000000000000000000000000001111111111111000000000000000000000000000000000000000000000000000000
00000000000000000000000000000000000000000000000000001111111111110000000111111111100000000000000000000000000000000000000000000000000011111111111111000000000000000000000000000000000000000000000000000000
00000000000000000000000000000000000000000000000000001111111111000000000001111111100000000000000000000000000000000000000000000000000011111111111111000000000000000000000000000000000000000001100000000000
00000000000111100000000000000000000000000000000000000111111000000000000000111111100000000000000000000000000000000000000000000000000111111111111111000000000000000000000000000000000000000111110000000000
00000000111111111111000000000000000000000000000000000111000000000000000000111111110000000000000000000000000000000000000000000000001111111111111111000000000000000000000000000000000000011111110000000000
00000011111111111111110000000000000000000000000000000000000000000000000000011111110000000000000000000000000000000000000000000000001111111111111111000000000000000000000000000000000001111111110000000000
00000111111111111111111000000000000000000000000000000000000000000000000000011111111000000000000000000000000000000000000000000000011111111111111111000000000000000000000000000000000111111111110000000000
00001111111111111111111100000000000000000000000000000000000000000000000000001111111000000000000000000000000000000000000000000000011111111111111111000000000000000000000000000000011111111111110000000000
00011111111111111111111110000000000000000000000000000000000000000000000000001111111000000000000000000000000000000000000000000000011111111111111111000000000000000000000000000000111111111111100000000000
00011111111111111111111111000000000000000000000000000000000000000000000000001111111000000000000000000000000000000000000000000000111111111111111111000000000000000000000000000111111111111100000000000000
00111111111111111111111111000000000000000000000000000000000000000000000000001111110000000000000000000000000000000000000000000001111111111111111111000000000000000000000000001111111111111000000000000000
00111111111111111111111111100000000000000000000000000000000000000000000000011111110000000000000000000000000000000000000000000001111101111111111111000000000000000000000000011111111111000000000000000000
01111111111100001111111111100000000000000000000000000000000000000000000000011111100000000000000000000000000000000000000000000001111001111111111111000000000000000000000000011111111110000000000000000000
01111111111000000011111111110000000000000000000000000000000000000000000000111111100000000000000000000000000000000000000000000011111001111111111110000000000000000000000000011111110000000000000000000000
01111111110000000011111111110000000000000000000000000000000000000000000001111111100000000000000000000000000000000000000000000011110001111111111110000000000000000000000000011111100000000000000000000000
11111111110000000011111111110000000000000000000000000000000000000000000111111111000000000000000000000000000000000000000000000111110001111111111110000000000000000000000000001111100000000000000000000000
11111111110000000011111111110000000000000000000000000000000000000000011111111110000000000000000000000000000000000000000000001111100001111111111110000000000000000000000000001111110000000000000000000000
11111111100000000011111111110000000000000000000000000000000000000111111111111110000000000000000000000000000000000000000000001111100001111111111110000000000000000000000000001111110000000000000000000000
11111111100000000011111111110000000000000000000000000000000000001111111111111111100000000000000000000000000000000000000000011111000001111111111110000000000000000000000000001111110000000000000000000000
11111111100000000001111111111000000000000000000000000000000000001111111111111111111000000000000000000000000000000000000000011111000001111111111100000110000000000000000000000111110000000000000000000000
11111111000000000001111111111000000000000000000000000000000000001111111111111111111100000000000000000000000000000000000000111110000001111111111110011111000000000000000000000111111000000001111100000000
11111111000011110001111111111000000000000000000000000000000000001111111111111111111110000000000000000000000000000000000000111110000001111111111111111111000000000000000000000111111000001111111111100000
11111111000111111011111111111000000000000000000000000000000000001111111111111111111111000000000000000000000000000000000001111100000001111111111111111111000000000000000000000111111000011111111111110000
11111111001111111111111111110000000000000000000000000000000000000111100000001111111111000000000000000000000000000000000001111100000001111111111111111110000000000000000000000111111001111111111111111000
11111111001111111111111111110000000000000000000000000000000000000000000000000001111111100000000000000000000000000000000011111000000001111111111111111100000000000000000000000011111111111111111111111100
11111111001111111111111111110000000000000000000000000000000000000000000000000000111111100000000000000000000000000000000111111000000011111111111111000000000000000000000000000011111111111111111111111100
11111111001111111111111111110000000000000000000000000000000000000000000000000000011111100000000000000000000000000000000111110000000011111111111110000000000000000000000000000011111111111100000111111110
11111111001111111111111111110000000000000000000000000000000000000000000000000000011111110000000000000000000000000000001111110000000111111111111110000000000000000000000000000011111111110000000011111111
11111111000111111011111111110000000000000000000000000000000000000000000000000000011111111000000000000000000000000000001111100000111111111111111100000000000000000000000000000001111111100000000001111111
11111111000111110011111111110000000000000000000000000000000000000000000000000000011111111000000000000000000000000000011111100001111111111111111100000000000000000000000000000001111111000000000000111111
11111111000000000011111111110000000000000000000000000000000000000000000000000000001111111000000000000000000000000000111111001111111111111111111100000000000000000000000000000001111110000000000000011111
11111111000000000011111111110000000000000000000000000000000000000000000000000000001111111000000000000000000000000000111111111111111111111111111100001100000000000000000000000001111110000000000000011111
11111111000000000011111111110000000000000000000000000000000000000000000000000000001111111000000000000000000000000001111111111111111111111111111100111100000000000000000000000000111100000000000000001111
11111111000000000011111111110000000000000000000000000000000000000000000000000000001111111000000000000000000000000001111111111111110011111111111111111100000000000000000000000000111000000000000000001111
11111111000000000011111111100000000000000000000000000000000000000000000000000000001111111000000000000000000000000001111111111110000011111111111111111100000000000000000000000000000000000000000000001111
11111111000000000111111111100000000000000000000000000000000000000000000000000000001111111000000000000000000000000011111111111100000011111111111111111100000000000000000000000000000000000000000000001111
11111111000000000111111111000000000000000000000000000000000000000000000000000000011111111000000000000000000000000011111111000000000011111111111111110000000000000000000000000000000000000000000000001111
11111111000000001111111111000000000000000000000000000000000000000000000000000000011111111000000000000000000000000011111110000000000011111111111111000000000000000000000000000000000000000000000000000111
11111111000000011111111111000000000000000000000000000000000000000000000000000000111111110000000000000000000000000011110000000000000111111111111000000000000000000000000000000000000000000000000000000111
11111111100000111111111110000000000000000000000000000000000000000000000000000001111111110000000000000000000000000001100000000000000111111111110000000000000000000000000000000000000000000000000000001111
11111111111001111111111100000000000000000000000000000000000000000000000000000111111111110000000000000000000000000000000000000000011111111110000000000000000000000000000000000000000000000000000000001111
11111111111111111111111100000000000000000000000000000000000000000000000000011111111111100000000000000000000000000000000000000001111111111100000000000000000000000000000000000000000001000000000000001111
11111111111111111111111000000000000000000000000000000000000000011100111111111111111111100000000000000000000000000000000000000111111111100000000000000000000000000000000000000000000111100000000000111111
11111111111111111111110000000000000000000000000000000000000000011111111111111111111111000000000000000000000000000000000000000111111110000000000000000000000000000000000000000000001111110000000001111111
11111111111111111111100000000000000000000000000000000000000000011111111111111111111110000000000000000000000000000000000000000111111000000000000000000000000000000000000000000000001111111111100111111111
11111111111111111111000000000000000000000000000000000000000000011111111111111111111100000000000000000000000000000000000000000111100000000000000000000000000000000000000000000000001111111111111111111110
11111111111111111110000000000000000000000000000000000000000000011111111111111111110000000000000000000000000000000000000000000110000000000000000000000000000000000000000000000000000111111111111111111100
11111111111111111000000000000000000000000000000000000000000000001111111111111111000000000000000000000000000000000000000000000000000000000000000000000000000000000000000000000000000011111111111111111000
01111111111111110000000000000000000000000000000000000000000000001111111111111000000000000000000000000000000000000000000000000000000000000000000000000000000000000000000000000000000000111111111111000000
00111111111111000000000000000000000000000000000000000000000000000111000100000000000000000000000000000000000000000000000000000000000000000000000000000000000000000000000000000000000000011111111110000000
00011111111000000000000000000000000000000000000000000000000000000000000000000000000000000000000000000000000000000000000000000000000000000000000000000000000000000000000000000000000000000000100000000000
00000100000000000000000000000000000000000000000000000000000000000000000000000000000000000000000000000000000000000000000000000000000000000000000000000000000000000000000000000000000000000000000000000000
00000000000000000000000000000000000000000000000000000000000000000000000000000000000000000000000000000000000000000000000000000000000000000000000000000000000000000000000000000000000000000000000000000000
00000000000000000000000000000000000000000000000000000000000000000000000000000000000000000000000000000000000000000000000000000000000000000000000000000000000000000000000000000000000000000000000000000000
00000000000000000000000000000000000000000000000000000000000000000000000000000000000000000000000000000000000000000000000000000000000000000000000000000000000000000000000000000000000000000000000000000000
00000000000000000000000000000000000000000000000000000000000000000000000000000000000000000000000000000000000000000000000000000000000000000000000000000000000000000000000000000000000000000000000000000000
00000000000000000000000000000000000000000000000000000000000000000000000000000000000000000000000000000000000000000000000000000000000000000000000000000000000000000000000000000000000000000000000000000000
