P1
200 72
00000000000000000000000000000000000000000000000000000000000000000000000000000000000000000000000000000000000000000000000000000000000000000000000000000000000000000000000000000000000000000000000000000000
00000000000000000000000000000000000000000000000000000000000000000000000000000000000000000000000000000000000000000000000000000000000000000000000000000000000000000000000000000000000000000000000000000000
00000000000000000000000000000000000000000000000000000000000000000000000000000000000000000000000000000000000000000000000000000000000000000000000000000000000000000000000000000000000000000000000000000000
00000000000000000000000000000000000000000000000000000000000000000000000000000000000000000000000000000000000000000000000000000000000000000000000000000000000000000000000000000000000000000000000000000000
00000000000000000000000000000000000000000000000000000000000000000000000000000000000000000000000000000000000000000000000000000000000000000000000000000000000000000000000000000000000000000000000000000000
00000000000000000000000000000000000000000000000000000000000000000000000000000000000000000000000000000000000000000000000000000000000000000000000000000000000000000000000000000000000000000000000000000000
00000000000000000000000000000000000000000000000000000000000000000000000000000000000000000000000000000000000000000000000000000000000000000000000000000000000000000000000000000000000000000000000000000000
00000000000000000000000000000000000000000000000000000000000000000000000000001111000000000000000000000000000000000000000000000000000000000000000000000000000000000000000000000000000000000000000000000000
00000000000000000000000000000000000000000000000000000000000000000000000011111111111000000000000000000000000000000000000000000000000000000000000000000000000000000000000000000000000000000000000000000000
00000000000000000000000000000000000000000000000000000000000000000000111111111111111110000000000000000000000000000000000000000000000000000000000000000000000000000000000000000000000000000000000000000000
00000000000000000000000000000000000000000000000000000000000000001111111111111111111111100000000000000000000000000000000000000000000000000000000000000000000000000000000000000000000000000000000000000000
00000000000000000000011000000000000000000000000000000000000011111111111111111111111111100000000000000000000000000000000000000000000000000000000000000000000000000000000000000000000000000000000000000000
00000000000000000111111110000000000000000000000000000000000111111111111111111111111111110000000000000000000000000000000000000000000000000000000000000000000000000000000000000000000000000000000000000000
00000000000000011111111111000000000000000000000000000000000111111111000000111111111111110000000000000000000000000000000000000000000000000000000000000000000000000000000000000000000000000000000000000000
00000000000000111110111111110000000000000000000000000000000111111110000000011111111111110000000000000000000000000000000000000000000000000000000000000000000000000000000000000000000000000000000000000000
00000000000001111100000111110000000000000000000000000000000111111100000000001111111111111000000000000000000000000000000000000000000000000000000000000000000000000000011011111111000000000000000000000000
00000000000011111000000011111000000000000000000000000000000111111000000000000111111111111000000000000000000000000000000000110100000000000000000000000000000000000000111111111111111110000000000000000000
00000000000111110000000001111100000000000000000000000000000111111000000000000111111111111000000000000000000000000000000011111111000000000000000000000000000000000000111111111111111111100000000000000000
00000000000111100000000001111110000000000000000000000000000111111000000000000111111111111000000000000000000000000000001111111111111000000000000000000000000000000000111111111111111111111000000000000000
00000000001111100000000000111110000000000000000000000000000011111000000000000011111111111000000000000000000000000000001111111111111100000000000000000000000000000000111111111111111111111100000000000000
00000000011111100000000000111111000000000000000000000000000011111000000000000111111111110000000000000000000000000000011111111000111111000000000000000000000000000001111111111111111111111110000000000000
00000000011111100000000000011111100000000000000000000000000011111000000000000111111111110000000000000000000000000000011111000000000111110000000000000000000000000001111111111111111111111111000000000000
00000000011111000000000000011111100000000000000000000000000011110000000000000111111111110000000000000000000000000000111110000000000001111000000000000000000000000001111111111111111111111111000000000000
00000000111111000000000000011111110000000000000000000000000001100000000000000011111111110000000000000000000000000000111100000000000000111110000000000000000000000001111111110011111111111111100000000000
00000000111111000000000000011111110000000000000000000000000000000000000000000111111111100000000000000000000000000001111100000000000000011110000000000000000000000001110000000000011111111111100000000000
00000000111111000000000000001111110000000000000000000000000000000000000000001111111111000000000000000000000000000001111100000000000000001111000000000000000000000000000000000000001111111111100000000000
00000000111111000000000000001111111000000000000000000000000000000000000000001111111110000000000000000000000000000001111100000000000000000111000000000000000000000000000000000000000111111111100000000000
00000000111111000000000000001111111000000000000000000000000000000000000000011111111111010000000000000000000000000001111100000000000000000000000000000000000000000000000000000000000111111111100000000000
00000000111111000000000000001111111000000000000000000000000000000000000001111111111111111100000000000000000000000001111100000000000000000000000000000000000000000000000000000000000111111111110000000000
00000001111111100000000000001111111000000000000000000000000000000000000111111111111111111110000000000000000000000001111100000000000000000000000000000000000000000000000000000000000111111111100000000000
00000001111111100000000000000111111000000000000000000000000000000000001111111111111111111111000000000000000000000001111100111000000000000000000000000000000000000000000000000000001111111111100000000000
00000000111111100000000000000111111000000000000000000000000000000000001111111111111111111111100000000000000000000001111111111111000000000000000000000000000000000000000000000000011111111111100000000000
00000000111111100000000000000111111000000000000000000000000000000000001111111111111111111111100000000000000000000001111111111111110000000000000000000000000000000000000000000111111111111111000000000000
00000000111111100000000000000111111100000000000000000000000000000000001111001111111111111111110000000000000000000001111111111111111100000000000000000000000000000000000111111111111111111110000000000000
00000000111111100000000000000111111100000000000000000000000000000000001110000001111111111111110000000000000000000000111111100001111110000000000000000000000000000000000111111111111111111100000000000000
00000000111111100000000000000111111100000000000000000000000000000000000000000000111111111111111000000000000000000000111111000000011111000000000000000000000000000000000111111111111111111000000000000000
00000000011111100000000000000111111100000000000000000000000000000000000000000000011111111111111000000000000000000000111110000000000111100000000000000000000000000000000111111111111111111100000000000000
00000000011111100000000000000111111100000000000000000000000000000000000000000000011111111111110000000000000000000000111100000000000001111000000000000000000000000000000111111111111111111110000000000000
00000000011111110000000000000111111000000000000000000000000000000000000000000000001111111111111000000000000000000000111100000000000000111100000000000000000000000000001111111111111111111111000000000000
00000000011111110000000000000011111100000000000000000000000000000000000000000000000111111111111000000000000000000000111100000000000000011110000000000000000000000000001111111111111111111111100000000000
00000000011111110000000000000011111100000000000000000000000000000000000000000000000111111111111000000000000000000000111100000000000000011110000000000000000000000000001111111111111111111111110000000000
00000000001111110000000000000111111100000000000000000000000000000000000000000000000111111111110000000000000000000000111100000000000000001111000000000000000000000000001110001111111111111111110000000000
00000000000111111000000000000111111100000000000000000000000000000000000000000000000111111111110000000000000000000000011100000000000000001111100000000000000000000000000000000000001111111111110000000000
00000000000111111000000000000111111000000000000000000000000000000000000000000000000111111111110000000000000000000000011100000000000000000111100000000000000000000000000000000000000111111111110000000000
00000000000111111000000000000111111000000000000000000000000000000000000000000000000111111111110000000000000000000000011110000000000000000111110000000000000000000000000000000000000111111111111000000000
00000000000111111000000000000111111000000000000000000000000000000000000000000000000111111111100000000000000000000000001110000000000000000011110000000000000000000000000000000000000111111111111000000000
00000000000011111100000000000111111000000000000000000000000000000000000000000000001111111111100000000000000000000000001110000000000000000011111000000000000000000000000000000000000111111111111000000000
00000000000001111110000000001111110000000000000000000000000000000000000000000000001111111111000000000000000000000000000111000000000000000001111000000000000000000000000000000000000111111111111000000000
00000000000000111110000000001111110000000000000000000000000000000000000000000000001111111110000000000000000000000000000111000000000000000001111000000000000000000000000000000000000111111111110000000000
00000000000000111111000000001111110000000000000000000000000000000011000000000000011111111100000000000000000000000000000011100000000000000000111100000000000000000000000000000000001111111111111000000000
00000000000000001111100000001111100000000000000000000000000000001111000000000000011111111000000000000000000000000000000001110000000000000000111100000000000000000000000000000000011111111111110000000000
00000000000000000111111000111111000000000000000000000000000000011111100000000000111111110000000000000000000000000000000001111000000000000001111110000000000000000000000000000001111111111111100000000000
00000000000000000011111111111110000000000000000000000000000000011111100000000011111111100000000000000000000000000000000000111100000000000001111110000000000001000000000000001111111111111111000000000000
00000000000000000001111111111110000000000000000000000000000000011111100000000011111111000000000000000000000000000000000000011110000000000001111100000000000011111110001000111111111111111111000000000000
00000000000000000000011111110000000000000000000000000000000000011111110000001111111110000000000000000000000000000000000000001111000000000000111100000000000011111111111111111111111111111100000000000000
00000000000000000000000000000000000000000000000000000000000000011111111101111111111100000000000000000000000000000000000000000111110000000001111100000000000011111111111111111111111111111100000000000000
00000000000000000000000000000000000000000000000000000000000000011111111111111111110000000000000000000000000000000000000000000001111110001111111100000000000011111111111111111111111111110000000000000000
00000000000000000000000000000000000000000000000000000000000000011111111111111111100000000000000000000000000000000000000000000000011111111111111100000000000011111111111111111111111111000000000000000000
00000000000000000000000000000000000000000000000000000000000000001111111111111100000000000000000000000000000000000000000000000000001111111111111000000000000111111111111111111111111100000000000000000000
00000000000000000000000000000000000000000000000000000000000000001111111111111000000000000000000000000000000000000000000000000000000011111111110000000000001111111111111111111111111000000000000000000000
00000000000000000000000000000000000000000000000000000000000000001111111111100000000000000000000000000000000000000000000000000000000000011111000000000000001111111111111111111111000000000000000000000000
00000000000000000000000000000000000000000000000000000000000000000111111110000000000000000000000000000000000000000000000000000000000000000000000000000000001111111111111111100000000000000000000000000000
00000000000000000000000000000000000000000000000000000000000000000111111000000000000000000000000000000000000000000000000000000000000000000000000000000000001111111111111000000000000000000000000000000000
00000000000000000000000000000000000000000000000000000000000000000010000000000000000000000000000000000000000000000000000000000000000000000000000000000000001111111110000000000000000000000000000000000000
00000000000000000000000000000000000000000000000000000000000000000000000000000000000000000000000000000000000000000000000000000000000000000000000000000000000000000000000000000000000000000000000000000000
00000000000000000000000000000000000000000000000000000000000000000000000000000000000000000000000000000000000000000000000000000000000000000000000000000000000000000000000000000000000000000000000000000000
00000000000000000000000000000000000000000000000000000000000000000000000000000000000000000000000000000000000000000000000000000000000000000000000000000000000000000000000000000000000000000000000000000000
00000000000000000000000000000000000000000000000000000000000000000000000000000000000000000000000000000000000000000000000000000000000000000000000000000000000000000000000000000000000000000000000000000000
00000000000000000000000000000000000000000000000000000000000000000000000000000000000000000000000000000000000000000000000000000000000000000000000000000000000000000000000000000000000000000000000000000000
00000000000000000000000000000000000000000000000000000000000000000000000000000000000000000000000000000000000000000000000000000000000000000000000000000000000000000000000000000000000000000000000000000000
00000000000000000000000000000000000000000000000000000000000000000000000000000000000000000000000000000000000000000000000000000000000000000000000000000000000000000000000000000000000000000000000000000000
00000000000000000000000000000000000000000000000000000000000000000000000000000000000000000000000000000000000000000000000000000000000000000000000000000000000000000000000000000000000000000000000000000000
