P1
200 72
00000000000000000000000000000000000000000000000000000000000000000000000000000000000000000000000000000000000000000000000000000000000000000000000000000000000000000000000000000000000000000000000000000000
00000000000000000000000000000000000000000000000000000000000000000000000000000000000000000000000000000000000000000000000000000000000000000000000000000000000000000000000000000000000000000000000000000000
00000000000000000000000000000000000000000000000000000000000000000000000000000000000000000000000000000000000000000000000000000000000000000000000000000000000000000000000000000000000000000000000000000000
00000000000000000000000000000000000000000000000000000000000000000000000000000000000000000000000000000000000000000000000000000000000000000000000000000000000000000000000000000000000000000000000000000000
00000000000000000000000000000000000000000000000000000000000000000000000000000000000000000000000000000000000000000000000000000000000000000000000000000000000000000000000000000000000000000000000000000000
00000000000000000000000000000000000000000000000000000000000000000000000000000000000000000000000000000000000000000000000000000000000000000000000000000000000000000000000000000000000000000000000000000000
00000000000000000000000000000000000000000000000000000000000000000000000000000000000000000000000000000000000000000000000000000000000000000000000000000000000000000000000000000000000000000000000000000000
00000000000000000000000000000000000000000000000000000000000000000000000000000000000000000000000000000000000000000000000000000000000000000000000000000000000000000000000000000000000000000000000000000000
00000000000000000000000000000000000000000000000000000000000000000000000000000000000000000000000000000000000000000000000000000000000000000000000000000000000000000000000000000000001110000000000000000000
00000000000000000000000000000000000000000000000000000000000000000000000000000000000000000000000000000000000000000000000000000000000000000000000000000000000000000000000000000001111111000000000000000000
00000000000000000000000000000000000000000000000000000000000000000000000000000000000000000000000000000000000000000000000000000000000000000000000000000000000000000000000000000011111111000000000000000000
00000000000000000000000000000000000000000000000000000000000000000000000000000000000000000000000000000000000000000000000000000000000000000000000000000000000000000000000000000111111111000000000000000000
00000000000000000000000000000000000000000000000000000000000000000000000000000000000000000000000000000000000000000000000000000000000000000000000000000000000000000000000000011111110100000000000000000000
00000000000000000000000000000000000000000000000000000000000000000000000000000000000000000000000000000000000000000000000000000000000000000000000000000000000000000000000000111111000000000000000000000000
00000000000000000000000000000000000000000000000000000000000000000000000000000000000000000000000001100000000000000000000000000000000001111111000000000000000000000000000011111100000000000000000000000000
00000000000000000000000000000000000000000000000000000000000000000000000000000000000000000000000011100000000000000000000000000000000111111111100000000000000000000000000111110000000000000000000000000000
00000000000000000000000000000000000000000000000000000000000000000000000000000000000000000000001111000000000000000000000000000000011111111111110000000000000000000000001111100000000000000000000000000000
00000000000000000000000000000000111111111110110000000000000000000000000000000000000000000000111111000000000000000000000000000000011111111111111000000000000000000000011111000000000000000000000000000000
00000000000000000000000000011111111111111111111110000000000000000000000000000000000000000000111111000000000000000000000000000000111100000001111100000000000000000000111110000000000000000000000000000000
00000000000000000000000001111111111111111111111111100000000000000000000000000000000000000001111111000000000000000000000000000001111000000000111100000000000000000001111100000000000000000000000000000000
00000000000000000000001111111111111111111111111111110000000000000000000000000000000000000001111111000000000000000000000000000001110000000000011110000000000000000011111000000000000000000000000000000000
00000000000000000000111111111111111111111111111111111000000000000000000000000000000000000001111110000000000000000000000000000000000000000000011110000000000000000011110000000000000000000000000000000000
00000000000000000011111111111111111111111111111111111000000000000000000000000000000000000011111110000000000000000000000000000000000000000000001110000000000000000011110000000000000000000000000000000000
00000000000000001111111111111111111111111111111111111000000000000000000000000000000000000111111110000000000000000000000000000000000000000000011110000000000000000111100000000000000000000000000000000000
00000000000000011111111111111111111111111111111111111100000000000000000000000000000000001111111110000000000000000000000000000000000000000000011100000000000000000111100000000000000000000000000000000000
00000000000000111111111111111111000000111111111111111100000000000000000000000000000000001111111100000000000000000000000000000000000000000000011100000000000000001111000000000000000000000000000000000000
00000000000001111111111111111100000000011111111111111100000000000000000000000000000000011111111100000000000000000000000000000000000000000000111100000000000000001111000000000000000000000000000000000000
00000000000001111111111111110000000000011111111111111000000000000000000000000000000000011111111110000000000000000000000000000000000000000000111000000000000000001111000000000000000000000000000000000000
00000000000011111111111111100000000000011111111111111000000000000000000000000000000000111111111100000000000000000000000000000000000000000001111000000000000000011111000000000000001111111000000000000000
00000000000111111111111111000000000000011111111111111000000000000000000000000000000001111111111100000000000000000000000000000000000000000111110000000000000000011110000000000001111111111110000000000000
00000000001111111111111110000000000000111111111111111000000000000000000000000000000001111111111100000000000000000000000000000000000000011111100000000000000000001111000000000111111111111110000000000000
00000000001111111111111100000000000000111111111111110000000000000000000000000000000011111111111100000000000000000000000000000000000111111111000000000000000000011111000000001111111111111111100000000000
00000000011111111111111000000000000001111111111111100000000000000000000000000000000011111111111100000000000000000000000000000000000111111110000000000000000000011111000000011111110100111111110000000000
00000000011111111111111000000000000001111111111111100000000000000000000000000000000111110111111000000000000000000000000000000000000111111110000000000000000000011110000000111111000000001111110000000000
00000000011111111111110000000000000011111111111111100000000000000000000000000000001111100011111000000000000000000000000000000000000011111111000000000000000000001111000001111100000000000111110000000000
00000000111111111111110000000000000011111111111111000000000000000000000000000000001111100011111000000000000000000000000000000000000000011111100000000000000000001111000011111000000000000011111000000000
00000000111111111111100000000000000111111111111111000000000000000000000000000000011111000111111000000000000000000000000000000000000000000111110000000000000000001111100011110000000000000001111000000000
00000000111111111111100000000000001111111111111110000000000000000000000000000000011111000111111000000000000000000000000000000000000000000011110000000000000000001111100111100000000000000001111100000000
00000000111111111111000000000000011111111111111100000000000000000000000000000000111110000111111000000000000000000000000000000000000000000001110000000000000000001111100111100000000000000000111100000000
00000001111111111111000000000000011111111111111100000000000000000000000000000001111100000111110000000000000000000000000000000000000000000001111000000000000000001111101111000000000000000000111100000000
00000001111111111110000000000000111111111111111000000000000000000000000000000001111100000111111000000000000000000000000000000000000000000001111000000000000000000111111110000000000000000000111100000000
00000001111111111110000000000000111111111111111000000000000000000000000000000001111100000111111000000000000000000000000000000000000000000001111000000000000000000111111110000000000000000000111100000000
00000001111111111100000000000001111111111111110000000000000000000000000000000011111000000111111000000000000000000000000000000000000000000001111000000000000000000011111110000000000000000000011100000000
00000001111111111100000000000001111111111111100000000000000000000000000000000111111000000111110000000000000000000000000000000000000000000001111000000000000000000011111110000000000000000000011100000000
00000000111111111100000000000011111111111111100000000000000000000000000000000111110000000111110000000000000000000000000000000000000000000001111000000000000000000011111110000000000000000000011100000000
00000000111111111100000000001111111111111111000000000000000000000000000000001111110000000111110000000000000000000000000000000000000000000011111000000000000000000001111110000000000000000000011100000000
00000000111111111100000000001111111111111110000000000000000000000000000000001111100000000111111111100000000000000000000000000000000000000011110000000000000000000001111110000000000000000000011110000000
00000000011111111110000000011111111111111100000000000000000000000000000000011111100000001111111111100000000000000000000000000000000000000011100000000000000000000001111111000000000000000000111110000000
00000000011111111111100000111111111111111000000000000000000000000000000000111111000001111111111111100000000000000000000000000000000000000111100000000000000000000000111111000000000000000000111110000000
00000000001111111111111111111111111111110000000000000000000000000000000000111111111111111111111111100000000000000000000000000000000000001111000000000000000000000000011111000000000000000000111100000000
00000000000111111111111111111111111111100000000000000000000000000000000000111111111111111111111111000000000000000000110000000000000000111111000000000000000000000000001111000000000000000000111100000000
00000000000011111111111111111111111111000000000000000000000000000000000000111111111111111111111111000000000000000001111110000000000011111110000000000000000000000000001111100000000000000000111000000000
00000000000001111111111111111111111110000000000000000000000000000000000000111111111111111111110000000000000000000011111111000000011111111100000000000000000000000000000111100000000000000001111000000000
00000000000000111111111111111111111100000000000000000000000000000000000001111111111111111111100000000000000000000001111111111111111111110000000000000000000000000000000111110000000000000011110000000000
00000000000000000111111111111111110000000000000000000000000000000000000000111111111110011111110000000000000000000000111111111111111111100000000000000000000000000000000011110000000000000111110000000000
00000000000000000011111111111111000000000000000000000000000000000000000000111111000000001111110000000000000000000000000111111111111100000000000000000000000000000000000001111100000000001111100000000000
00000000000000000000011111111000000000000000000000000000000000000000000000110000000000001111100000000000000000000000000001111110000000000000000000000000000000000000000000111111000000111111000000000000
00000000000000000000000000000000000000000000000000000000000000000000000000000000000000011111100000000000000000000000000000000000000000000000000000000000000000000000000000011111111111111110000000000000
00000000000000000000000000000000000000000000000000000000000000000000000000000000000000001111100000000000000000000000000000000000000000000000000000000000000000000000000000001111111111111110000000000000
00000000000000000000000000000000000000000000000000000000000000000000000000000000000000001111100000000000000000000000000000000000000000000000000000000000000000000000000000000011111111110000000000000000
00000000000000000000000000000000000000000000000000000000000000000000000000000000000000011111100000000000000000000000000000000000000000000000000000000000000000000000000000000000011100000000000000000000
00000000000000000000000000000000000000000000000000000000000000000000000000000000000000011111100000000000000000000000000000000000000000000000000000000000000000000000000000000000000000000000000000000000
00000000000000000000000000000000000000000000000000000000000000000000000000000000000000001111000000000000000000000000000000000000000000000000000000000000000000000000000000000000000000000000000000000000
00000000000000000000000000000000000000000000000000000000000000000000000000000000000000001100000000000000000000000000000000000000000000000000000000000000000000000000000000000000000000000000000000000000
00000000000000000000000000000000000000000000000000000000000000000000000000000000000000000000000000000000000000000000000000000000000000000000000000000000000000000000000000000000000000000000000000000000
00000000000000000000000000000000000000000000000000000000000000000000000000000000000000000000000000000000000000000000000000000000000000000000000000000000000000000000000000000000000000000000000000000000
00000000000000000000000000000000000000000000000000000000000000000000000000000000000000000000000000000000000000000000000000000000000000000000000000000000000000000000000000000000000000000000000000000000
00000000000000000000000000000000000000000000000000000000000000000000000000000000000000000000000000000000000000000000000000000000000000000000000000000000000000000000000000000000000000000000000000000000
00000000000000000000000000000000000000000000000000000000000000000000000000000000000000000000000000000000000000000000000000000000000000000000000000000000000000000000000000000000000000000000000000000000
00000000000000000000000000000000000000000000000000000000000000000000000000000000000000000000000000000000000000000000000000000000000000000000000000000000000000000000000000000000000000000000000000000000
00000000000000000000000000000000000000000000000000000000000000000000000000000000000000000000000000000000000000000000000000000000000000000000000000000000000000000000000000000000000000000000000000000000
00000000000000000000000000000000000000000000000000000000000000000000000000000000000000000000000000000000000000000000000000000000000000000000000000000000000000000000000000000000000000000000000000000000
