P1
200 72
00000000000000000000000000000000000000000000000000000000000000000000000000000000000000000000000000000000000000000000000000000000000000000000000000000000000000000000000000000000000000000000000000000000
00000000000000000000000000000000000000000000000000000000000000000000000000000000000000000000000000000000000000000000000000000000000000000000000000000000000000000000000000000000000000000000000000000000
00000000000000000000000000000000000000000000000000000000000000000000000000000000000000000000000000000000000000000000000000000000000000000000000000000000000000000000000000000000000000000000000000000000
00000000000000000000000000000000000000000000000000000000000000000000000000000000000000000000000000000000000000000000000000000000000000000000000000000000000000000000000000000000000000000000000000000000
00000000000000000000000000000000000000000000000000000000000000000000000000000000000000000000000000000000000000000000000000000000000000000000000000000000000000000000000000000000000000000000000000000000
00000000000000000000000000000000000000000000000000000000000000000000000000000000000000000000000000000000000000000000000000000000000000000000000000000000000000000000000000000000000000000000000000000000
00000000000000000000000000000000000000000000000000000000000000000000000000000000000000000000000000000000000000000000000000000000000000000000000000000000000000000000000000000000000000000000000000000000
00000000000000000000000000000000000000000000000000000000000000000000000000000000000000000000000000000000000000000000000000000000000000000000000000000000000000000000000000000000000000000000000000000000
00000000000000000000000000000000000000000000000000000000000000000000000000000000000000000000000000000000000000000000000000000000000000000000000000000000000000000000000000000000000000000000000000000000
00000000000000000000000000000000000000000000000000000000000000000000000000000000000000000000000000000000000000000000000000000000000000000000000000000000000000000000000000000000000000000000000000000000
00000000000000000000000000000000000000000000000000000000000000000000000000000000000000000000000000000000000000000000000000000000000000000000000000000000000000000000000000000000000000000000000000000000
00000000000000000000000000000000000000000000000000000000000000000000000000000000000000000000000000000000000000000000000000000000000000000000000000000000000000000000000000000000000000000000000000000000
00000000000000000000000000000000000000000000000000000000000000000000000000000000000000000000000000000000000000000000000000000000000000000000000000000000000000000000000000000000000000000000000000000000
00000000000000000000000000000000000000000000000000000000000000000000000000000000000000000000000000000000000000000000000000000000000000000000000000000000000000000000000000000000000000000000000000000000
00000000000000000000000000000000000000000000000000000000000000000000000000000000000000000000000000000000000000000000000000000000000000000000000000000000000000000000000000000000000000000000000000000000
00000000000000000000000000000000000000000000000000000000000000000000000000000000000000000000000000000000000000000000000000000000000000000000000000000000000000000000000000000000000000000000000000000000
00000000000000000000000000000000000000000000000000000000000000000000000000000000000000000000000000000000000000000000000000000000000000000000000000000000000000000000000000000000000000000000000000000000
00000000000000000000000000000000000000000000000000000000000000000000000000000000000000000000000000000000000000000000000000000000000000000000000000000000000000000000000000000000000000000000000000000000
00000000000000000000000000000000011111100000000000000000000000000000000000000000000000000000000000000000000000011100000000000000000000000000000000000000000000000000000000000000000000000000000000000000
00000000000000000000000000000111111111110000000000000000000000000000000000000000111000000000000000000000000001111110000000000000000000000000000000000000000000000000000000000011111111000000000000000000
00000000000000000000000000111111111111111000000000000000000000000000000000000011111000000000000000000000000001111110000000000000000000000000000000000000000000000000000000011111111111110000000000000000
00000000000000000000000001111111111111111100000000000000000000000000000000000011111000000000000000000000000001111111000000000000000000000000000000000000000000000000000001111111111111111000000000000000
00000000000000000000000011111111111111111110000000000000000000000000000000000111111000000000000000000000000001111111100000000000000000000000000000000000000000000000000111111111111111111110000000000000
00000000000000000000000111111111111111111110000000000000000000000000000000001111111000000000000000000000000001111111100000000000000000000000000000000000000000000000011111111111111111111110000000000000
00000000000000000000001111111111001111111110000000000000000000000000000000001111111000000000000000000000000011111111100000000000000000000000000000000000000000000000111111111111111111111111000000000000
00000000000000000000011111111000000011111111000000000000000000000000000000011111111000000000000000000000000001111111110000000000000000000000000000000000000000000001111111000001111111111111100000000000
00000000000000000000111111110000000001111111000000000000000000000000000000111101111000000000000000000000000001111111110000000000000000000000000000000000000000000001111111000000111111111111100000000000
00000000000000000001111111100000000001111111000000000000000000000000000000111001111000000000000000000000000001111111111000000000000000000000000000000000000000000011111110000000011111111111110000000000
00000000000000000001111111000000000001111111000000000000000000000000000001111001111000000000000000000000000011111111111000000000000000000000000000000000000000000111111110000000011111111111110000000000
00000000000000000011111110000000000001111111000000000000000000000000000001110000111000000000000000000000000011111111111100000000000000000000000000000000000000000111111110000000001111111111111000000000
00000000000000000111111100000000000001111111000000000000000000000000000011100001111000000000000000000000000011110011111100000000000000000000000000000000000000001111111110000000001111111111111000000000
00000000000000000111111100000000000001111111000000000000000000000000000111100001111000000000000000000000000011110011111100000000000000000000000000000000000000001111111110000000000111111111111000000000
00000000000000001111111100000000000001111111000000000000000000000000000111000001111000000000000000000000000011110011111110000000000000000000000000000000000000011111111111000000000111111111111100000000
00000000000000011111111000000000000001111111000000000000000000000000001111000001111000000000000000000000000011111001111110000000000000000000000000000000000000011111111111000000000111111111111100000000
00000000000000011111110000000000000001111111000000000000000000000000011110000001111000000000000000000000000011110001111111000000000000000000000000000000000000011111111111000000000011111111111110000000
00000000000000011111110000000000000001111110000000000000000000000000111100000001111000000000000000000000000011110000111111000000000000000000000000000000000000011111111111100000000001111111111110000000
00000000000000111111110000000000000001111110000000000000000000000001111100000001110000000000000000000000000011110000111111100000000000000000000000000000000000011111111111100000000001111111111110000000
00000000000000111111100000010000000011111111000000000000000000000011111000000001110000000000000000000000000011110000111111100000000000000000000000000000000000011111111111100000000001111111111110000000
00000000000001111111100001111100000011111111000000000000000000000011110000000001110000000000000000000000000011110000011111110000000000000000000000000000000000011111111111100000000000111111111111000000
00000000000001111111000011111110000001111110000000000000000000000011100000000001111000000000000000000000000111110000001111110000000000000000000000000000000000001111111111110000000000111111111111000000
00000000000001111111000111111111000011111110000000000000000000000111000000000001111000000000000000000000000111100000001111111000000000000000000000000000000000001111111111110000000000111111111111000000
00000000000001111110000111111111000011111110000000000000000000001111000000000001111000000000000000000000000111100000001111111000000000000000000000000000000000001111111111111000000000111111111111000000
00000000000011111110000111111111000111111100000000000000000000011110000000000011111000000000000000000000000111100000000111111100000000000000000000000000000000000111111111111000000000011111111111000000
00000000000111111110000111111111000111111110000000000000000001111100000000011111111111000000000000000000000111100000000111111100000000000000000000000000000000000111111111111000000000011111111111000000
00000000000111111110000111111110000111111100000000000000000001111111111111111111111111100000000000000000000111100000000011111100000000000000000000000000000000000111111111111000000000011111111111100000
00000000000111111110000011111100000111111100000000000000000011111111111111111111111111000000000000000000000111100000000011111110000111000000000000000000000000000011111111111100000000001111111111100000
00000000000111111100000001111000001111111000000000000000000001111111111111000111111000000000000000000000000111100000000011111111111111100000000000000000000000000001111111111100000000001111111111100000
00000000000111111100000000000000001111111000000000000000000000000000000000000011110000000000000000000000001111100000000001111111111111100000000000000000000000000001111111111110000000001111111111100000
00000000000111111100000000000000001111111000000000000000000000000000000000000011110000000000000000000000001111100000000011111111111111100000000000000000000000000001111111111110000000001111111111100000
00000000000111111100000000000000011111111000000000000000000000000000000000000011110000000000000000000000001111100000111111111111111111100000000000000000000000000000111111111111000000000111111111100000
00000000000111111100000000000000011111110000000000000000000000000000000000000011110000000000000000000000001111111111111111111111111100000000000000000000000000000000011111111111000000000111111111100000
00000000001111111000000000000000011111110000000000000000000000000000000000000011110000000000000000000000001111111111111111111111110000000000000000000000000000000000011111111111000000000111111111100000
00000000001111111000000000000000111111110000000000000000000000000000000110001111110000000000000000000000001111111111111111111111110000000000000000000000000000000000001111111111100000000111111111100000
00000000001111111000000000000000111111100000000000000000000000000000000111111111111000000000000000000000001111111111100000001111111000000000000000000000000000000000001111111111110000000111111111100000
00000000001111111000000000000001111111100000000000000000000000000000000111111111111111000000000000000000000111111000000000000111111000000000000000000000000000000000000111111111110000000011111111100000
00000000001111111000000000000001111111100000000000000000000000000000000011011111111111000000000000000000000000000000000000000111111100000000000000000000000000000000000011111111111000000111111111000000
00000000001111111000000000000011111111000000000000000000000000000000000000000000111111000000000000000000000000000000000000000111111100000000000000000000000000000000000001111111111000000111111111000000
00000000001111111100000000000111111111000000000000000000000000000000000000000000000000000000000000000000000000000000000000000011111110000000000000000000000000000000000000111111111110000111111110000000
00000000000111111110000000001111111110000000000000000000000000000000000000000000000000000000000000000000000000000000000000000011111110001110000000000000000000000000000000011111111111111111111110000000
00000000000111111111100000011111111100000000000000000000000000000000000000000000000000000000000000000000000000000000000000000001111111111111000000000000000000000000000000001111111111111111111100000000
00000000000011111111110011111111111100000000000000000000000000000000000000000000000000000000000000000000000000000000000000111111111111111111100000000000000000000000000000000001111111111111111100000000
00000000000011111111111111111111111000000000000000000000000000000000000000000000000000000000000000000000000000000000000001111111111111111111100000000000000000000000000000000000011111111111111000000000
00000000000001111111111111111111110000000000000000000000000000000000000000000000000000000000000000000000000000000000000001111111111111111100000000000000000000000000000000000000000000111110000000000000
00000000000000011111111111111111100000000000000000000000000000000000000000000000000000000000000000000000000000000000000000111111110010000000000000000000000000000000000000000000000000000000000000000000
00000000000000001111111111111111000000000000000000000000000000000000000000000000000000000000000000000000000000000000000000011000000000000000000000000000000000000000000000000000000000000000000000000000
00000000000000000001111111111100000000000000000000000000000000000000000000000000000000000000000000000000000000000000000000000000000000000000000000000000000000000000000000000000000000000000000000000000
00000000000000000000000011110000000000000000000000000000000000000000000000000000000000000000000000000000000000000000000000000000000000000000000000000000000000000000000000000000000000000000000000000000
00000000000000000000000000000000000000000000000000000000000000000000000000000000000000000000000000000000000000000000000000000000000000000000000000000000000000000000000000000000000000000000000000000000
00000000000000000000000000000000000000000000000000000000000000000000000000000000000000000000000000000000000000000000000000000000000000000000000000000000000000000000000000000000000000000000000000000000
00000000000000000000000000000000000000000000000000000000000000000000000000000000000000000000000000000000000000000000000000000000000000000000000000000000000000000000000000000000000000000000000000000000
00000000000000000000000000000000000000000000000000000000000000000000000000000000000000000000000000000000000000000000000000000000000000000000000000000000000000000000000000000000000000000000000000000000
00000000000000000000000000000000000000000000000000000000000000000000000000000000000000000000000000000000000000000000000000000000000000000000000000000000000000000000000000000000000000000000000000000000
