P1
200 72
00000000000000000000000000000000000000000000000000000000000000000000000000000000000000000000000000000000000000000000000000000000000000000000000000000000000000000000000000000000000000000000000000000000
00000000000000000000000000000000000000000000000000000000000000000000000000000000000000000000000000000000000000000000000000000000000000000000000000000000000000000000000000000000000000000000000000000000
00000000000000000000000000000000000000000000000000000000000000000000000000000000000000000000000000000000000000000000000000000000000000000000000000000000000000000000000000000000000000000000000000000000
00000000000000000000000000000000000000000000000000000000000000000000000000000000000000000000000000000000000000000000000000000000000000000000000000000000000000000000000000000000000000000000000000000000
00000000000000000000000000000000000000000000000000000000000000000000000000000000000000000000000000000000000000000000000000000000000000000000000000000000000000000000000000000000000000000000000000000000
00000000000000000000000000000000000000000000000000000000000000000000000000000000000000000000000000000000000000000000000000000000000000000000000000000000000000000000000000000000000000000000000000000000
00000000000000000000000000000000000000000000000000000000000000000000000000000000000000000000000000000000000000000000000000000000000000000000000000000000000000000000000000000000000000000000000000000000
00000000000000000000000000000000000000000000000000000000000000000000000000000000000000000000000000000000000000000000000000000000000000000000000000000000000000000000000000000000000000000000000000000000
00000000000000000000000000000000000000000000000000000000000000000000000000000000000000000000000000000000000000000000000000000000000000000000000000000000000000000000000000000000000000000000000000000000
00000000000000000000000000000000000000000000000000000000000000000000000000000000000000000000000000000000000000000000000000000000000000000000000000000000000000000000000000000000000000000000000000000000
00000000000000000000000000000000000000000000000000000000000000000000000000000000000000000000000000000000000000000000000000000000000001110000000000000000000000000000000000000000000000000000000000000000
00000000000000000000000000000000000000000000000000000000000000000000000000000000000000000000000000000000000000000000000000000000011111111000000000000000000000000000000000000000000000000000000000000000
00000000000000000000000000000000000000000000000000000000000000000000000000000000000111111000000000000000000000000000000000000000111111111000000000000000000000000000000001111111111100000000000000000000
00000000000000000000000000000000000000000000000000000000000000000000000000000011111111111000000000000000000000000000000000000000111111111000000000000000000000000000000111111111111111000000000000000000
00000000000000000000001111111100000000000000000000000000000000000000000001111111111111111000000000000000000000000000000000000000111111111000000000000000000000000000001111111000111111111000000000000000
00000000000000000000011111111110000000000000000000000000000000000000000011111111111111111000000000000000000000000000000000000000111111111000000000000000000000000000001111110000000011111100000000000000
00000000000000000000111111111111000000000000000000000000000000000000000011111111111111110000000000000000000000000000000000000001111111111000000000000000000000000000011111100000000000111110000000000000
00000000000000000001111111111111000000000000000000000000000000000000000111111111111111110000000000000000000000000000000000000011111111111000000000000000000000000000011111100000000000111111000000000000
00000000000000000011111111111111100000000000000000000000000000000000001111111111111111110000000000000000000000000000000000000011111111111000000000000000000000000000111111100000000000011111100000000000
00000000000000000011111100001111110000000000000000000000000000000000011111111111111111100000000000000000000000000000000000000011111111111000000000000000000000000000111111100000000000011111100000000000
00000000000000000111111000000111110000000000000000000000000000000000011111111111111111100000000000000000000000000000000000000111111111111000000000000000000000000000111111100000000000001111100000000000
00000000000000000111110000000011110000000000000000000000000000000001111111111111111111100000000000000000000000000000000000000111111111111000000000000000000000000000111111100000000000001111100000000000
00000000000000001111100000000011111000000000000000000000000000000001111111111111111111000000000000000000000000000000000000000111111111111000000000000000000000000000011111100000000000011111100000000000
00000000000000001111100000000011111000000000000000000000000000000011111111111111111111000000000000000000000000000000000000001111111111111000000000000000000000000000011111110000000000011111000000000000
00000000000000001111100000000001111000000000000000000000000000000011111111111111111111000000000000000000000000000000000000001111111111111000000000000000000000000000011111110000000000111111000000000000
00000000000000011111100000000001111100000000000000000000000000000111111111111111111111000000000000000000000000000000000000011111111111111000000000000000000000000000011111111000000001111111000000000000
00000000000000011111100000000001111100000000000000000000000000001111111111111111111111000000000000000000000000000000000000011111111111111000000000000000000000000000011111111100000011111100000000000000
00000000000000011111000000000001111100000000000000000000000000001111111111111111111110000000000000000000000000000000000000111110011111111000000000000000000000000000001111111111001111110000000000000000
00000000000000011111000000000001111100000000000000000000000000011111111111111111111110000000000000000000000000000000000000111110011111111000000000000000000000000000000111111111111111100000000000000000
00000000000000011111000000000001111110000000000000000000000000011111111100111111111110000000000000000000000000000000000001111100111111111000000000000000000000000000000011111111111100000000000000000000
00000000000000011111000000000001111110000000000000000000000000111111111000111111111110000000000000000000000000000000000001111100111111111000000000000000000000000000000011111111111000000000000000000000
00000000000000111110000000000000111110000000000000000000000000111111111001111111111100000000000000000000000000000000000011111000111111111000000000000000000000000000000011111111111100000000000000000000
00000000000000111110000000000000111110000000000000000000000001111111110001111111111100000000000000000000000000000000000011111000111111111000000000000000000000000000000111111111111110000000000000000000
00000000000000111110000000000000111110000000000000000000000011111111110001111111111100000000000000000000000000000000000111110000111111111000000000000000000000000000001111111111111111000000000000000000
00000000000000111110000000000000111110000000000000000000000011111111100001111111111100000000000000000000000000000000000111110000111111111000000000000000000000000000011111100011111111000000000000000000
00000000000000111110000000000000111110000000000000000000000111111111000001111111111100000000000000000000000000000000001111100000111111111100000000000000000000000000111110000011111111100000000000000000
00000000000000111110000000000000111110000000000000000000001111111111000011111111111100000000000000000000000000000000001111100000111111111100000000000000000000000001111100000001111111110000000000000000
00000000000000111110000000000000111110000000000000000000001111111110000011111111111000000000000000000000000000000000001111000000111111111100000000000000000000000011111000000000111111110000000000000000
00000000000001111100000000000000111110000000000000000000011111111110000011111111111000000000000000000000000000000000011111000000111111111000000000000000000000000111110000000000011111111000000000000000
00000000000001111100000000000000111110000000000000000000011111111100000011111111111000000000000000000000000000000000111110000000011111111101110000000000000000001111110000000000001111111000000000000000
00000000000001111100000000000000111110000000000000000000111111111000000001111111111000000000000000000000000000000000111110000000011111111111110000000000000000001111100000000000001111111000000000000000
00000000000001111100000000000000111110000000000000000000111111110000000011111111111000000000000000000000000000000000111100000000011111111111110000000000000000011111100000000000000111111000000000000000
00000000000001111110000000000000111110000000000000000001111111110000000011111111111000000000000000000000000000000001111100000001111111111111110000000000000000011111000000000000000111111000000000000000
00000000000001111110000000000000111110000000000000000011111111110000000011111111111111110000000000000000000000000001111100011111111111111111110000000000000000111111000000000000000111111000000000000000
00000000000000111110000000000001111111000000000000000011111111110000111111111111111111110000000000000000000000000011111111111111111111111111110000000000000000111111000000000000000111111000000000000000
00000000000000111110000000000001111111000000000000000011111111111111111111111111111111110000000000000000000000000011111111111111111111111111110000000000000000011111000000000000000111110000000000000000
00000000000000111111000000000001111111000000000000000011111111111111111111111111111111110000000000000000000000000111111111111111111111111111100000000000000000011111000000000000001111110000000000000000
00000000000000111111100000000001111110000000000000000011111111111111111111111111111111100000000000000000000000000111111111111111111111111110000000000000000000011111000000000000001111100000000000000000
00000000000000011111100000000001111110000000000000000011111111111111111111111111111111100000000000000000000000000111111111111111111111111100000000000000000000011111000000000000011111000000000000000000
00000000000000011111110000000011111110000000000000000011111111111111111111111111111111100000000000000000000000000111111111111111111111111100000000000000000000011111000000000000011110000000000000000000
00000000000000001111111100000111111111000000000000000011111111111111111111111111111111100000000000000000000000000111111111111111111111111000000000000000000000011111100000000001111100000000000000000000
00000000000000000111111111001111111110000000000000000001111111111111111111111111111111100000000000000000000000000111111111110000111111111100000000000000000000011111110000000011111000000000000000000000
00000000000000000011111111111111111110000000000000000001111111111111111111111111111100000000000000000000000000000111111100000000011111111100000000000000000000001111111110111111100000000000000000000000
00000000000000000001111111111111111100000000000000000001111111111111001111111111110000000000000000000000000000000011000000000000011111111100000000000000000000000111111111111111000000000000000000000000
00000000000000000000011111111111111100000000000000000001100000000000000111111111110000000000000000000000000000000000000000000000011111111000000000000000000000000011111111111000000000000000000000000000
00000000000000000000000011111111111000000000000000000000000000000000000011111111110000000000000000000000000000000000000000000000011111111000000000000000000000000000111110000000000000000000000000000000
00000000000000000000000001111111110000000000000000000000000000000000000011111111110000000000000000000000000000000000000000000000011111111000000000000000000000000000000000000000000000000000000000000000
00000000000000000000000000011111000000000000000000000000000000000000000011111111110000000000000000000000000000000000000000000000111111100000000000000000000000000000000000000000000000000000000000000000
00000000000000000000000000000000000000000000000000000000000000000000000011111111100000000000000000000000000000000000000000000000111000000000000000000000000000000000000000000000000000000000000000000000
00000000000000000000000000000000000000000000000000000000000000000000000011111111100000000000000000000000000000000000000000000000000000000000000000000000000000000000000000000000000000000000000000000000
00000000000000000000000000000000000000000000000000000000000000000000000011111111100000000000000000000000000000000000000000000000000000000000000000000000000000000000000000000000000000000000000000000000
00000000000000000000000000000000000000000000000000000000000000000000000011111111000000000000000000000000000000000000000000000000000000000000000000000000000000000000000000000000000000000000000000000000
00000000000000000000000000000000000000000000000000000000000000000000000011000010000000000000000000000000000000000000000000000000000000000000000000000000000000000000000000000000000000000000000000000000
00000000000000000000000000000000000000000000000000000000000000000000000000000000000000000000000000000000000000000000000000000000000000000000000000000000000000000000000000000000000000000000000000000000
00000000000000000000000000000000000000000000000000000000000000000000000000000000000000000000000000000000000000000000000000000000000000000000000000000000000000000000000000000000000000000000000000000000
00000000000000000000000000000000000000000000000000000000000000000000000000000000000000000000000000000000000000000000000000000000000000000000000000000000000000000000000000000000000000000000000000000000
00000000000000000000000000000000000000000000000000000000000000000000000000000000000000000000000000000000000000000000000000000000000000000000000000000000000000000000000000000000000000000000000000000000
00000000000000000000000000000000000000000000000000000000000000000000000000000000000000000000000000000000000000000000000000000000000000000000000000000000000000000000000000000000000000000000000000000000
00000000000000000000000000000000000000000000000000000000000000000000000000000000000000000000000000000000000000000000000000000000000000000000000000000000000000000000000000000000000000000000000000000000
00000000000000000000000000000000000000000000000000000000000000000000000000000000000000000000000000000000000000000000000000000000000000000000000000000000000000000000000000000000000000000000000000000000
00000000000000000000000000000000000000000000000000000000000000000000000000000000000000000000000000000000000000000000000000000000000000000000000000000000000000000000000000000000000000000000000000000000
00000000000000000000000000000000000000000000000000000000000000000000000000000000000000000000000000000000000000000000000000000000000000000000000000000000000000000000000000000000000000000000000000000000
