P1
200 72
00000000000000000000000000000000000000000000000000000000000000000000000000000000000000000000000000000000000000000000000000000000000000000000000000000000000000000000000000000000000000000000000000000000
00000000000000000000000000000000000000000000000000000000000000000000000000000000000000000000000000000000000000000000000000000000000000000000000000000000000000000000000000000000000000000000000000000000
00000000000000000000000000000000000000000000000000000000000000000000000000000000000000000000000000000000000000000000000000000000000000000000000000000000000000000000000000000000000000000000000000000000
00000000000000000000000000000000000000000000000000000000000000000000000000000000000000000000000000000000000000000000000000000000000000000000000000000000000000000000000000000000000000000000000000000000
00000000000000000000000000000000000000000000000000000000000000000000000000000000000000000000000000000000000000000000000000000000000000000000000000000000000000000000000000000000000000000000000000000000
00000000000000000000000000000000000000000000000000000000000000000000000000000000000000000000000000000000000000000000000000000000000000000000000000000000000000000000000000000000000000000000000000000000
00000000000000000000000000000000000000000000000000000000000000000000000000000000000000000000000000000000000000000000000000000000000000000000000000000000000000000000000000000000000000000000000000000000
00000000000000000000000000000000000000000000000000000000000000000000000000000000000000000000000000000000000000000000000000000000000000000000000000000000000000000000000000000000000000000000000000000000
00000000000000000000000000000000000000000000000000000000000000000000000000000000000000000000000000000000000000000000000000000000000000000000000000000000000000000000000000000000000000000000000000000000
00000000000000000000000000000000000000000000000000000000000000000000000000000000000000000000000000000000000000000000000000000000000000000000000000000000000000000000000000000000000000000000000000000000
00000000000000000000000000000000000000000000000000000000000000000000000000000000000000000000000000000000000000000000000000000000000000000000000000000000000000000000000000000000000000000000000000000000
00000000000000000000000000000000000000000000000000000000000000000000000000000000000000000000000000000000000000000000000000000000000000000000000000000000000001111111110000000000000000000000000000000000
00000000000000000000000000000000000000000000000000000000000000000000000000000000000000000000000000000000000000000000000000000000000000000000000000000000000011111111111100000000000000000000000000000000
00000000000000000000000000000000000000000000000000000000000000000000000000000000000000000000000000000000000000000000000000000000000000000000000000000000000111111111111110000000000000000000000000000000
00000000000000000000000000000000000000000000000000000000000000000000000000000000000000000000000000000000000000000000000000000000000000000000000000000000001111111111111111000000000000000000000000000000
00000000000000000000000000000000000000000000000000000000000000000000000000000000000000000000000000000000000000000000000000000000000000000000000000000000011111111111111111100000000000000000000000000000
00000000000000000000000000000000000000000000000000000000000000000000000000000111011001110000000000000000000000000000000000000000000000000000000000000000111111111111111111100000000000000000000000000000
00000000000000000000000000000000000000000000000000000000000000000000000000011111111111111100000000000000000000000000000000000000000000000000000000000000111111111111111111110000000000000000000000000000
00000000000000000000000000000000000000000000000000000000000000000000000000111111111111111111000000000000000000000101111110100000000000000000000000000001111111111111111111111000000000000000000000000000
00000000000000000000000000000000000111111100000000000000000000000000000011111111111111111111000000000000000000000111111111111100000000000000000000000001111111111111111111111000000000000000000000000000
00000000000000000000000000000000011111111110000000000000000000000000000011111111111111111111000000000000000000000111111111111100000000000000000000000011111111110000111111111100000000000000000000000000
00000000000000000000000000000000111111111111000000000000000000000000000111111111111111111111000000000000000000001111111111111100000000000000000000000011111111100000111111111100000000000000000000000000
00000000000000000000000000000011111111111111110000000000000000000000001111111111111111111111000000000000000000001111111111111100000000000000000000000111111111100000011111111100000000000000000000000000
00000000000000000000000000000011111111111111110000000000000000000000011111111111111111111111000000000000000000001111111111111100000000000000000000000111111111100000011111111110000000000000000000000000
00000000000000000000000000000011111111111111111000000000000000000000011111111111111111111111000000000000000000000100000011111110000000000000000000000111111111000000001111111110000000000000000000000000
00000000000000000000000000000111111110011111111000000000000000000000111111111111000000111111000000000000000000000000000001111110000000000000000000000111111111000000001111111110000000000000000000000000
00000000000000000000000000001111111000000111111000000000000000000000111111111110000000000001000000000000000000000000000001111110000000000000000000000111111111000000001111111110000000000000000000000000
00000000000000000000000000011111111000000011111100000000000000000000111111111100000000000000000000000000000000000000000001111110000000000000000000001111111111000000001111111111000000000000000000000000
00000000000000000000000000011111110000000011111100000000000000000000111111111000000000000000000000000000000000000000000001111110000000000000000000001111111111000000000111111111000000000000000000000000
00000000000000000000000000111111100000000011111100000000000000000001111111111000000000000000000000000000000000000000000001111110000000000000000000001111111111000000000111111111000000000000000000000000
00000000000000000000000000111111100000000001111110000000000000000001111111111000000000000000000000000000000000000000000000111110000000000000000000001111111111000000000111111111000000000000000000000000
00000000000000000000000000111111000000000001111110000000000000000001111111110000000000000000000000000000000000000000000000111111000000000000000000001111111110000111100111111111000000000000000000000000
00000000000000000000000001111111000000000001111111000000000000000001111111110000011111100000000000000000000000000000000000111111000000000000000000001111111110011111111111111111000000000000000000000000
00000000000000000000000001111111000000000001111111000000000000000001111111111111111111110000000000000000000000000000000000111111000000000000000000001111111110011111111111111111000000000000000000000000
00000000000000000000000001111110000000000001111110000000000000000001111111111111111111111000000000000000000000000000000001111111000000000000000000000111111110011111111111111111000000000000000000000000
00000000000000000000000011111110000000000001111110000000000000000001111111111111111111111100000000000000000000000000000001111111000000000000000000000111111110011111111111111111100000000000000000000000
00000000000000000000000011111110000000000011111110000000000000000001111111111111111111111110000000000000000000000000000001111111000000000000000000000111111110011111111111111111100000000000000000000000
00000000000000000000000111111110000000000011111110000000000000000001111111111111111111111111000000000000000000000000000000111111000000000000000000001111111110001111111111111111100000000000000000000000
00000000000000000000000111111100000000000011111110000000000000000001111111111111111111111111100000000000000000000000000000111111000000000000000000001111111111000111110011111111100000000000000000000000
00000000000000000000000111111100000000000011111100000000000000000001111111111111111111111111100000000000000000000000000000111111000000000000000000001111111111000000100011111111100000000000000000000000
00000000000000000000000111111100000000000011111100000000000000000001111111111111011111111111110000000000000000000000000000111111000000000000000000001111111111000000000011111111100000000000000000000000
00000000000000000000000111111100000000000111111100000000000000000001111111111110000111111111110000000000000000000000000000111111000000000000000000001111111111000000000011111111100000000000000000000000
00000000000000000000001111111100000000000111111100000000000000000001111111111100000011111111110000000000000000000000000000111111000000000000000000001111111111000000000011111111100000000000000000000000
00000000000000000000001111111000000000001111111100000000000000000001111111111100000001111111110000000000000000000000000000111111000000000000000000000111111111000000000011111111110000000000000000000000
00000000000000000000001111111000000000001111111000000000000000000000111111111100000001111111111000000000000000000000000000011111100000000000000000000111111111000000000011111111110000000000000000000000
00000000000000000000001111111100000000001111111000000000000000000000111111111100000001111111111000000000000000000000000000011111100000000000000000000111111111000000000011111111110000000000000000000000
00000000000000000000000111111110000000111111111000000000000000000000111111111100000000111111111000000000000000000000000000011111100000000000000000000111111111000000000011111111110000000000000000000000
00000000000000000000000111111111111111111111110000000000000000000000111111111100000000111111111000000000000000000000000000011111100000000000000000000111111111100000000111111111110000000000000000000000
00000000000000000000000011111111111111111111110000000000000000000000111111111100000000111111111000000000000000000000000000111111100000000000000000000111111111110000000111111111110000000000000000000000
00000000000000000000000011111111111111111111100000000000000000000000011111111100000001111111111000000000000000000000000000111111100000000000000000000011111111111000001111111111110000000000000000000000
00000000000000000000000001111111111111111111100000000000000000000000011111111100000001111111111000000000000000000000000000011111100000000000000000000011111111111110011111111111100000000000000000000000
00000000000000000000000000111111111111111111000000000000000000000000011111111100000001111111111000000000000000000000000000011111110000000000000000000001111111111111111111111111100000000000000000000000
00000000000000000000000000000111111111111100000000000000000000000000001111111100000001111111110000000000000000000011101000111111110000000000000000000001111111111111111111111111110000000000000000000000
00000000000000000000000000000011111111110000000000000000000000000000001111111110000011111111110000000000000000000111111111111111110000000000000000000000111111111111111111111111100000000000000000000000
00000000000000000000000000000000000000000000000000000000000000000000001111111111100111111111110000000000000000000111111111111111111011000000000000000000011111111111111111111111100000000000000000000000
00000000000000000000000000000000000000000000000000000000000000000000000111111111111111111111110000000000000000000111111111111111111111111111000000000000001111111111111111111111000000000000000000000000
00000000000000000000000000000000000000000000000000000000000000000000000111111111111111111111110000000000000000000111111111111111111111111111100000000000000111111111111111111111000000000000000000000000
00000000000000000000000000000000000000000000000000000000000000000000000011111111111111111111100000000000000000000011111111111111111111111111100000000000000001111111111111111100000000000000000000000000
00000000000000000000000000000000000000000000000000000000000000000000000001111111111111111111000000000000000000000000000001111111111111111111100000000000000000011111111111111000000000000000000000000000
00000000000000000000000000000000000000000000000000000000000000000000000001111111111111111111000000000000000000000000000000000000111111111111100000000000000000000001111111111000000000000000000000000000
00000000000000000000000000000000000000000000000000000000000000000000000000011111111111111110000000000000000000000000000000000000000000011101110000000000000000000000000110000000000000000000000000000000
00000000000000000000000000000000000000000000000000000000000000000000000000001111111111111000000000000000000000000000000000000000000000000000000000000000000000000000000000000000000000000000000000000000
00000000000000000000000000000000000000000000000000000000000000000000000000000011111111110000000000000000000000000000000000000000000000000000000000000000000000000000000000000000000000000000000000000000
00000000000000000000000000000000000000000000000000000000000000000000000000000000111111100000000000000000000000000000000000000000000000000000000000000000000000000000000000000000000000000000000000000000
00000000000000000000000000000000000000000000000000000000000000000000000000000000000000000000000000000000000000000000000000000000000000000000000000000000000000000000000000000000000000000000000000000000
00000000000000000000000000000000000000000000000000000000000000000000000000000000000000000000000000000000000000000000000000000000000000000000000000000000000000000000000000000000000000000000000000000000
00000000000000000000000000000000000000000000000000000000000000000000000000000000000000000000000000000000000000000000000000000000000000000000000000000000000000000000000000000000000000000000000000000000
00000000000000000000000000000000000000000000000000000000000000000000000000000000000000000000000000000000000000000000000000000000000000000000000000000000000000000000000000000000000000000000000000000000
00000000000000000000000000000000000000000000000000000000000000000000000000000000000000000000000000000000000000000000000000000000000000000000000000000000000000000000000000000000000000000000000000000000
00000000000000000000000000000000000000000000000000000000000000000000000000000000000000000000000000000000000000000000000000000000000000000000000000000000000000000000000000000000000000000000000000000000
00000000000000000000000000000000000000000000000000000000000000000000000000000000000000000000000000000000000000000000000000000000000000000000000000000000000000000000000000000000000000000000000000000000
00000000000000000000000000000000000000000000000000000000000000000000000000000000000000000000000000000000000000000000000000000000000000000000000000000000000000000000000000000000000000000000000000000000
