P1
200 72
00000000000000000000000000000000000000000000000000000000000000000000000000000000000000000000000000000000000000000000000000000000000000000000000000000000000000000000000000000000000000000000000000000000
00000000000000000000000000000000000000000000000000000000000000000000000000000000000000000000000000000000000000000000000000000000000000000000000000000000000000000000000000000000000000000000000000000000
00000000000000000000000000000000000000000000000000000000000000000000000000000000000000000000000000000000000000000000000000000000000000000000000000000000000000000000000000000000000000000000000000000000
00000000000000000000000000000000000000000000000000000000000000000000000000000000000000000000000000000000000000000000000000000000000000000000000000000000000000000000000000000000000000000000000000000000
00000000000000000000000000000000000000000000000000000000000000000000000000000000000000000000000000000000000000000000000000000000000000000000000000000000000000000000000000000000000000000000000000000000
00000000000000000000000000000000000000000000000000000000000000000000000000000000000000000000000000000000000000000000000000000000000000000000000000000000000000000000000000000000000000000000000000000000
00000000000000000000000000000000000000000000000000000000000000000000000000000000000000000000000000000000000000000000000000000000000000000000000000000000000000000000000000000000000000000000000000000000
00000000000000000000000000000000000000000000000000000000000000000000000000000000000000000000000000000000000000000000000000000000000000000000000000000000000000000000000000000000000000000000000000000000
00000000000000000000000000000000000000000000000000000000000000000000000000000000000000000000000000000000000000000000000000000000000000000000000000000000000000000000000000000000000000000000000000000000
00000000000000000000000000000000000000000000000000000000000000000000000000000000000000000000000000000000000000000000000000000000000000000000000000000000000000000000000000000000000000000000000000000000
00000000000000000000000000000000000000000000000000000000000000000000000000000000000000000000000000000000000000000000000000000000000000000000000000000000000000000000000000000000000000000000000000000000
00000000000000000000000000000000000000000000000000000000000000000000000000000000000000000000000000000000000000000000000000000000000000000000000000000000000000000000000000000000000000000000000000000000
00000000000000000000000000000000000000000000000000000000000000000000000000000000000000000000000000000000000000000100000000000000000000000000000000000000000000000000000000000000000000000000000000000000
00000000000000000000000000000000000000000000000000000000000000000000000000000000000000000000000000000000000111111111111100000000000000000000000000000000000000000000000000000000000000000000000000000000
00000000000001111111111110001111000000000000000000000000000000000000000000000000000000000000000000000000000111111111111111111000000000000000000000000000000000000000000000000000000000000000000000000000
00000000001111111111111111111111000000000000000000000000000000000000000000000000000000000000000000000000001111111111111111111100000000000000000000000000000000000000000000000000000000000000000000000000
00000000001111111111111111111111000000000000000000000000000000000000000000000000000000000000000000000000001111111111111111111111111000000000000000000000000000000000000000000000000000000000000000000000
00000000001111111111111111111111000000000000000000000000000000000000000000000000000000000000000000000000001111111111111111111111111110000000000000000000000000000000000000000000000000000000000000000000
00000000000111111111111111111111000000000000000000000000000000000000000000000000000000000000000000000000001111111111111111111111111110000000000000000000000000000000000000000000000000000000000000000000
00000000000011111111111111111111000000000000000000000000000000000000000000000000000000000000000000000000001111111111111111111111111100000000000000000000000000000000000011000000000000000000000000000000
00000000000011111111111111111111100000000000000000000000000000111100000000000000000000000000000000000000001111111111111111111111111100000000000000000000000000000000000111111110000000000000000000000000
00000000000011111111111111111111110000000000000000000000000011111111000000000000000000000000000000000000001111111111111111111111111000000000000000000000000000000000001111111110000000000000000000000000
00000000000000111001111111111111110000000000000000000000000111111111111000000000000000000000000000000000000000111001111111111111111000000000000000000000000000000000001111111110000000000000000000000000
00000000000000000000000111111111110000000000000000000000001111111111111100000000000000000000000000000000000000000000111111111111110000000000000000000000000000000000011111111110000000000000000000000000
00000000000000000000000111111111110000000000000000000000001111111111111110000000000000000000000000000000000000000000111111111111110000000000000000000000000000000000111111111110000000000000000000000000
00000000000000000000000111111111110000000000000000000000011111111111111111000000000000000000000000000000000000000000111111111111110000000000000000000000000000000000111111111110000000000000000000000000
00000000000000000000000111111111110000000000000000000000111111110001111111100000000000000000000000000000000000000000111111111111100000000000000000000000000000000001111111111110000000000000000000000000
00000000000000000000000111111111110000000000000000000000111111100000011111100000000000000000000000000000000000000001111111111111100000000000000000000000000000000011111111111100000000000000000000000000
00000000000000000000000111111111110000000000000000000000111111000000000111110000000000000000000000000000000000000001111111111111000000000000000000000000000000000011111111111110000000000000000000000000
00000000000000000000000011111111110000000000000000000001111110000000000111111000000000000000000000000000000000000011111111111111000000000000000000000000000000000111111111111100000000000000000000000000
00000000000000000000000011111111110000000000000000000001111110000000000011111000000000000000000000000000000000000011111111111111000000000000000000000000000000001111111111111100000000000000000000000000
00000000000000000000000011111111110000000000000000000001111110000000000011111100000000000000000000000000000000000011111111111110000000000000000000000000000000011111111111111100000000000000000000000000
00000000000000000000000011111111110000000000000000000001111100000000000001111100000000000000000000000000000000000011111111111110000000000000000000000000000000011111111111111100000000000000000000000000
00000000000000000000000011111111110000000000000000000011111100000000000001111110000000000000000000000000000000000111111111111100000000000000000000000000000000111110011111111100000000000000000000000000
00000000000000000000000011111111110000000000000000000011111100000000000000111110000000000000000000000000000000000111111111111100000000000000000000000000000001111100111111111000000000000000000000000000
00000000000000000000000001111111110000000000000000000011111100001100000000111110000000000000000000000000000000001111111111111000000000000000000000000000000011111100111111111000000000000000000000000000
00000000000000000000000001111111110000000000000000000011111000001111000000111110000000000000000000000000000000001111111111111000000000000000000000000000000111111000111111111100000000000000000000000000
00000000000000000000000001111111110000000000000000000111111000011111110000111110000000000000000000000000000000001111111111111000000000000000000000000000001111110000111111111000000000000000000000000000
00000000000000000000000000111111111000000000000000000111111000011111110000111110000000000000000000000000000000001111111111110000000000000000000000000000001111100000111111111000000000000000000000000000
00000000000000000000000000111111111000000000000000001111111000011111110000111110000000000000000000000000000000011111111111110000000000000000000000000000011111000001111111111000000000000000000000000000
00000000000000000000000000111111111100000000000000001111111000011111110000111111000000000000000000000000000000011111111111100000000000000000000000000000111110000001111111111000000000000000000000000000
00000000000000000000000000111111111100000000000000001111111000011111100000111111000000000000000000000000000000011111111111100000000000000000000000000001111110000011111111111000000000000000000000000000
00000000000000000000000000111111111100000000000000000111111000000011100000111111000000000000000000000000000000011111111111100000000000000000000000000011111100000011111111110000000000000000000000000000
00000000000000000011111001111111111100000000000000000111111000000001000000111111000000000000000000000000000000111111111111000000000000000000000000000111111000000011111111110000000000000000000000000000
00000000000000000011111111111111111100000000000000000111111000000000000000111111000000000000000000000000000000111111111110000000000000000000000000001111110000000011111111111000000000000000000000000000
00000000000000000011111111111111111100000000000000001111111000000000000001111111000000000000000000000000000001111111111110000000000000000000000000001111100000000011111111111000000000000000000000000000
00000000000000000011111111111111111100000000000000000111110000000000000001111111000000000000000000000000000001111111111110000000000000000000000000011111100100000111111111111111000000000000000000000000
00000000000000000011111111111111111110000000000000000111111000000000000001111110000000000000000000000000000001111111111110000000000000000000000000111111111111111111111111111111110000000000000000000000
00000000000000000001111111111111111111110000000000000111111000000000000001111110000000000000000000001111000001111111111100000000000000000000000001111111111111111111111111111111110000000000000000000000
00000000000000000001111111111111111111111100000000000111111100000000000011111110000000000000000000001111110011111111111100000000000000000000000001111111111111111111111111111111110000000000000000000000
00000000000000000000111111111111111111111111000000000111111110000000000111111100000000000000000000011111111111111111111000000000000000000000000011111111111111111111111111111111100000000000000000000000
00000000000000000000000111111111111111111111000000000011111111000000001111111100000000000000000000011111111111111111111000000000000000000000000001111100111100011111111111111110000000000000000000000000
00000000000000000000000000111111111111111111000000000011111111110000011111111100000000000000000000011111111111111111111000000000000000000000000000000000000000001111111111110000000000000000000000000000
00000000000000000000000000000001111111111111000000000001111111111111111111111100000000000000000000011111111111111111111000000000000000000000000000000000000000001111111111100000000000000000000000000000
00000000000000000000000000000000011111111111000000000000111111111111111111111000000000000000000000011111111111111111111000000000000000000000000000000000000000001111111111100000000000000000000000000000
00000000000000000000000000000000000111111111100000000000011111111111111111110000000000000000000000011111111111111111111110000000000000000000000000000000000000011111111111100000000000000000000000000000
00000000000000000000000000000000000000111111100000000000000111111111111111100000000000000000000000001111111111111111111111000000000000000000000000000000000000011111111111100000000000000000000000000000
00000000000000000000000000000000000000001111100000000000000000001111111110000000000000000000000000000111111111111111111111111000000000000000000000000000001100111111111111111111000000000000000000000000
00000000000000000000000000000000000000000000000000000000000000000011000000000000000000000000000000000000111111111111111111111100000000000000000000000000111111111111111111111111100000000000000000000000
00000000000000000000000000000000000000000000000000000000000000000000000000000000000000000000000000000000001111111111111111111100000000000000000000000000111111111111111111111111100000000000000000000000
00000000000000000000000000000000000000000000000000000000000000000000000000000000000000000000000000000000000011111111111111111000000000000000000000000001111111111111111111111111000000000000000000000000
00000000000000000000000000000000000000000000000000000000000000000000000000000000000000000000000000000000000000011111111111111000000000000000000000000000111111111100111100011110000000000000000000000000
00000000000000000000000000000000000000000000000000000000000000000000000000000000000000000000000000000000000000001111111111110000000000000000000000000000000000000000000000000000000000000000000000000000
00000000000000000000000000000000000000000000000000000000000000000000000000000000000000000000000000000000000000000001111111110000000000000000000000000000000000000000000000000000000000000000000000000000
00000000000000000000000000000000000000000000000000000000000000000000000000000000000000000000000000000000000000000000011111110000000000000000000000000000000000000000000000000000000000000000000000000000
00000000000000000000000000000000000000000000000000000000000000000000000000000000000000000000000000000000000000000000000111100000000000000000000000000000000000000000000000000000000000000000000000000000
00000000000000000000000000000000000000000000000000000000000000000000000000000000000000000000000000000000000000000000000000000000000000000000000000000000000000000000000000000000000000000000000000000000
00000000000000000000000000000000000000000000000000000000000000000000000000000000000000000000000000000000000000000000000000000000000000000000000000000000000000000000000000000000000000000000000000000000
00000000000000000000000000000000000000000000000000000000000000000000000000000000000000000000000000000000000000000000000000000000000000000000000000000000000000000000000000000000000000000000000000000000
00000000000000000000000000000000000000000000000000000000000000000000000000000000000000000000000000000000000000000000000000000000000000000000000000000000000000000000000000000000000000000000000000000000
00000000000000000000000000000000000000000000000000000000000000000000000000000000000000000000000000000000000000000000000000000000000000000000000000000000000000000000000000000000000000000000000000000000
00000000000000000000000000000000000000000000000000000000000000000000000000000000000000000000000000000000000000000000000000000000000000000000000000000000000000000000000000000000000000000000000000000000
