P1
200 72
00000000000000000000000000000000000000000000000000000000000000000000000000000000000000000000000000000000000000000000000000000000000000000000000000000000000000000000000000000000000000000000000000000000
00000000000000000000000000000000000000000000000000000000000000000000000000000000000000000000000000000000000000000000000000000000000000000000000000000000000000000000000000000000000000000000000000000000
00000000000000000000000000000000000000000000000000000000000000000000000000000000000000000000000000000000000000000000000000000000000000000000000000000000000000000000000000000000000000000000000000000000
00000000000000000000000000000000000000000000000000000000000000000000000000000000000000000000000000000000000000000000000000000000000000000000000000000000000000000000000000000000000000000000000000000000
00000000000000000000000000000000000000000000000000000000000000000000000000000000000000000000000000000000000000000000000000000000000000000000000000000000000000000000000000000000000000000000000000000000
00000000000000000000000000000000000000000000000000000000000000000000000000000000000000000000000000000000000000000000000000000000000000000000000000000000000000000000000000000000000000000000000000000000
00000000000000000000000000000000000000000000000000000000000000000000000000000000000000000000000000000000000000000000000000000000000000000000000000000000000000000000000000000000000000000000000000000000
00000000000000000000000000000000000000000000000000000000000000000000000000000000000000000000000000000000000000000000000000000000000000000000000000000000000000000000000000000000000000000000000000000000
00000000000000000000000000000000000000000000000000000000000000000000000000000000000000000000000000000000000000000000000000000000000000000000000000000000000000000000000000000000000000000000000000000000
00000000000000000000000000000000000000000000000000000000000000000000000000000000000000000000000000000000000000000000000000000000000000000000000000000000000000000000000000000000000000000000000000000000
00000000000000000000000000000000000000000000000000000000000000000000000000000000000000000000000000000000000000000000000000000000000000000000000000000000000000000000000000000000000000000000000000000000
00000000000000000000000000000000000000000000000000000000000000000000000000000000000000000000000000000000000000000000000000000000000000000000000000000000000000000000000000000000000000000000000000000000
00000000000000000000000000000000000000000000000000000000000000000000000000000000000000000000000000000000000000000000000000000000000000000000000000000000000000000000000000000000000000000000000000000000
00000000000000000000000000000000000000000000000000000000000000000000000000000000000000000000000000000000000000000000000000000000000000000000000000000000000000000000000000000000000000000000000000000000
00000000000000000000000000000000000000000000000000000000000000000000000000000000000000000000000000000000000000000000000000001111111111110000000000000000000000000000000000000000000000000000000000000000
00000000000000000000000000000000000111111110000000000000000000000000000000000000000000000000000000000000000000000000000001111111111111111100000000000000000000000000000000000000000000000000000000000000
00000000000000000000000000000000001111111111111000000000000000000000000000000000000000000000000000000000000000000000000111111111111111111110000000000000000000000000000000000000000000000000000000000000
00000000000000000000000000000000001111111111111100000000000000000000000000000000000000000000000000000000000000000000001111111111111111111111000000000000000000000000000000000000000000000000000000000000
00000000000000000000000000000000001111111111111111100000000000000000000000000000001111111100000000000000000000000000001111111111111111111111100000000000000000000000000001111110000000000000000000000000
00000000000000000000000000000000011111111111111111100000000000000000000000000000011111111111000000000000000000000000001111111100000111111111110000000000000000000000001111111111000000000000000000000000
00000000000000000000000000000000001111111111111111100000000000000000000000000001111111111111110000000000000000000000001111100000000000111111110000000000000000000001111111111111110000000000000000000000
00000000000000000000000000000000000000100111111111000000000000000000000000000011111111111111111000000000000000000000001111000000000000011111111000000000000000000011111111111111111000000000000000000000
00000000000000000000000000000000000000000011111111000000000000000000000000000111111111111111111110000000000000000000000000000000000000001111111000000000000000001111111100001111111000000000000000000000
00000000000000000000000000000000000000000011111111000000000000000000000000001111111111111111111111000000000000000000000000000000000000000111111000000000000000011111110000000111111100000000000000000000
00000000000000000000000000000000000000000011111111000000000000000000000000001111111100000001111111100000000000000000000000000000000000000111111000000000000001111111100000000011111110000000000000000000
00000000000000000000000000000000000000000011111111000000000000000000000000011111111000000000011111100000000000000000000000000000000000000111111000000000000001111110000000000011111110000000000000000000
00000000000000000000000000000000000000000111111110000000000000000000000000111111110000000000011111110000000000000000000000000000000000000111111000000000000011111110000000000001111110000000000000000000
00000000000000000000000000000000000000001111111110000000000000000000000001111111100000000000001111110000000000000000000000000000000000000111111100000000000011111100000000000001111110000000000000000000
00000000000000000000000000000000000000001111111110000000000000000000000001111111100000000000001111111000000000000000000000000000000000001111111100000000000011111100000000000001111110000000000000000000
00000000000000000000000000000000000000001111111100000000000000000000000011111111000000000000000111111000000000000000000000000000000000001111111100000000000011111100000000000000111111000000000000000000
00000000000000000000000000000000000000011111111100000000000000000000000011111111000000000000000111111000000000000000000000000000000000001111111000000000000011111100000000000000111111000000000000000000
00000000000000000000000000000000000000011111111000000000000000000000000011111110000000000000000111111100000000000000000000000000000000001111111000000000000011111110000000000000111111000000000000000000
00000000000000000000000000000000000000111111111000000000000000000000000011111110000000000000000111111100000000000000000000000000000000011111110000000000000011111110000000000000111111000000000000000000
00000000000000000000000000000000000000111111110000000000000000000000000111111110000000000000000011111100000000000000000000000000000000011111110000000000000011111110000000000000111111000000000000000000
00000000000000000000000000000000000000111111110000000000000000000000000111111100000000000000000111111000000000000000000000000000000000111111110000000000000011111111000000000000111111000000000000000000
00000000000000000000000000000000000001111111110000000000000000000000001111111100000110000000000111111000000000000000000000000000000001111111100000000000000001111111100000000000111111000000000000000000
00000000000000000000000000000000000001111111100000000000000000000000001111111000001111000000001111111100000000000000000000000000000011111111100000000000000001111111110000000001111111000000000000000000
00000000000000000000000000000000000011111111000000000000000000000000001111111000001111111000001111111100000000000000000000000000000011111111000000000000000000011111111101111111111111000000000000000000
00000000000000000000000000000000000011111111000000000000000000000000001111110000001111111100000111111100000000000000000000000000000111111110000000000000000000001111111111111111111111000000000000000000
00000000000000000000000000000000000011111111000000000000000000000000011111110000001111111000000111111100000000000000000000000000001111111110000000000000000000000011111111111111111111000000000000000000
00000000000000000000000000000000000111111111000000000000000000000000011111110000011111111000001111111000000000000000000000000000011111111100000000000000000000000000111100110000111111000000000000000000
00000000000000000000000000000000000111111110000000000000000000000000011111110000011111111000001111111000000000000000000000000000011111111000000000000000000000000000000000000000111111000000000000000000
00000000000000000000000000000000000111111100000000000000000000000000011111110000011111111000011111110000000000000000000000000000111111110000000000000000000000000000000000000000111111000000000000000000
00000000000000000000000000000000001111111100000000000000000000000000111111110000011111110000011111110000000000000000000000000001111111100000000000000000000000000000000000000001111111000000000000000000
00000000000000000000000000000000011111111100000000000000000000000000111111100000000001100000011111110000000000000000000000000111111111000000000000000000000000000000000000000001111111000000000000000000
00000000000000000000000000000000011111111000000000000000000000000000111111100000000000000000111111110000000000000000000000000111111110000000000000000000000000000000000000000001111110000000000000000000
00000000000000000000000000000000011111111000000000000000000000000000111111100000000000000000111111100000000000000000000000001111111100000000000000000000000001111000000000000011111110000000000000000000
00000000000000000000000000000000011111110000000000000000000000000000111111100000000000000000111111100000000000000000000000011111111000000000000000000000000001111000000000000011111110000000000000000000
00000000000000000000000000000000111111110000000000000000000000000000111111100000000000000001111111100000000000000000000000111111111000000000000000000000000001111000000000000011111100000000000000000000
00000000000000000000000000000001111111110000000000000000000000000000111111100000000000000001111111100000000000000000000001111111110000000000000000000000000001111110000000000111111000000000000000000000
00000000000000000000000000000001111111100000000000000000000000000000111111100000000000000001111111000000000000000000000011111111100000000000000000000000000000111111100000011111110000000000000000000000
00000000000000000000000000000001111111100000000000000000000000000000111111100000000000000011111111000000000000000000000011111111000000000000000000000000000000111111111111111111110000000000000000000000
00000000000000000000000000000011111111000000000000000000000000000000111111100000000000000011111110000000000000000000000011111111100000000000000000000000000000001111111111111111100000000000000000000000
00000000000000000000000000000011111111000000000000000000000000000000111111110000000000000111111100000000000000000000000011111111111111110000000000000000000000000001111111111111000000000000000000000000
00000000000000000000000000000111111110000000000000000000000000000000111111110000000000011111111000000000000000000000000011111111111111111111110000000000000000000000000111111000000000000000000000000000
00000000000000000111110000000111111110000000000000000000000000000000111111110000000000111111111000000000000000000000000011111111111111111111111000000000000000000000000000000000000000000000000000000000
00000000000000001111111111111111111110000000000000000000000000000000111111111000000001111111110000000000000000000000000001111111111111111111111100000000000000000000000000000000000000000000000000000000
00000000000000011111111111111111111110000000000000000000000000000000011111111111111111111111100000000000000000000000000000000000011111111111111100000000000000000000000000000000000000000000000000000000
00000000000000011111111111111111111111100001000000000000000000000000001111111111111111111110000000000000000000000000000000000000000001111111111100000000000000000000000000000000000000000000000000000000
00000000000000011111111111111111111111111111111000000000000000000000000111111111111111111100000000000000000000000000000000000000000000000011111100000000000000000000000000000000000000000000000000000000
00000000000000111111111111111111111111111111111000000000000000000000000111111111111111111000000000000000000000000000000000000000000000000000011100000000000000000000000000000000000000000000000000000000
00000000000000000001111111111111111111111111111000000000000000000000000000111111111111100000000000000000000000000000000000000000000000000000000000000000000000000000000000000000000000000000000000000000
00000000000000000000000000001111111111111111111000000000000000000000000000000111100000000000000000000000000000000000000000000000000000000000000000000000000000000000000000000000000000000000000000000000
00000000000000000000000000000000001111111111111000000000000000000000000000000000000000000000000000000000000000000000000000000000000000000000000000000000000000000000000000000000000000000000000000000000
00000000000000000000000000000000000000011111100000000000000000000000000000000000000000000000000000000000000000000000000000000000000000000000000000000000000000000000000000000000000000000000000000000000
00000000000000000000000000000000000000000000000000000000000000000000000000000000000000000000000000000000000000000000000000000000000000000000000000000000000000000000000000000000000000000000000000000000
00000000000000000000000000000000000000000000000000000000000000000000000000000000000000000000000000000000000000000000000000000000000000000000000000000000000000000000000000000000000000000000000000000000
00000000000000000000000000000000000000000000000000000000000000000000000000000000000000000000000000000000000000000000000000000000000000000000000000000000000000000000000000000000000000000000000000000000
00000000000000000000000000000000000000000000000000000000000000000000000000000000000000000000000000000000000000000000000000000000000000000000000000000000000000000000000000000000000000000000000000000000
00000000000000000000000000000000000000000000000000000000000000000000000000000000000000000000000000000000000000000000000000000000000000000000000000000000000000000000000000000000000000000000000000000000
00000000000000000000000000000000000000000000000000000000000000000000000000000000000000000000000000000000000000000000000000000000000000000000000000000000000000000000000000000000000000000000000000000000
00000000000000000000000000000000000000000000000000000000000000000000000000000000000000000000000000000000000000000000000000000000000000000000000000000000000000000000000000000000000000000000000000000000
