P1
200 72
00000000000000000000000000000000000000000000000000000000000000000000000000000000000000000000000000000000000000000000000000000000000000000000000000000000000000000000000000000000000000000000000000000000
00000000000000000000000000000000000000000000000000000000000000000000000000000000000000000000000000000000000000000000000000000000000000000000000000000000000000000000000000000000000000000000000000000000
00000000000000000000000000000000000000000000000000000000000000000000000000000000000000000000000000000000000000000000000000000000000000000000000000000000000000000000000000000000000000000000000000000000
00000000000000000000000000000000000000000000000000000000000000000000000000000000000000000000000000000000000000000000000000000000000000000000000000000000000000000000000000000000000000000000000000000000
00000000000000000000000000000000000000000000000000000000000000000000000000000000000000000000000000000000000000000000000000000000000000000000000000000000000000000000000000000000000000000000000000000000
00000000000000000000000000000000000000000000000000000000000000000000000000000000000000000000000000000000000000000000000000000000000000000000000000000000000000000000000000000000000000000000000000000000
00000000000000000000000000000000000000000000000000000000000000000000000000000000000000000000000000000000000000000000000000000000000000000000000000000000000000000000000000000000000000000000000000000000
00000000000000000000000000000000000000000000000000000000000000000000000000000000000000000000000000000000000000000000000000000000000000000000000000000000000000000000000000000000000000000000000000000000
00000000000000000000000000000000000000000000000000000000000000000000000000000000000000000000000000000000000000000000000000000000000000000000000000000000000000000000000000000000000000000000000000000000
00000000000000000000000000000000100000000000000000000000000000000000000000000000000000000000000000000000000000000000000000000000000000000000000000000000000000000000000000000000000000000000000000000000
00000000000000000000000000111111111100000000000000000000000000000000000000000000000000000000000000000000000000000000000000000000000000000000000000000000000000000000000000000000000000000000000000000000
00000000000000000000011111111111111110000000000000000000000000000000000000000000000000000000000000000000000000000000000000000000000110000000000000000000000000000000000000000000000000000000000000000000
00000000000000000001111111111111111100000000000000000000000000000000000000000000000000000000000000000000000000000000000000000000111110000000000000000000000000000000000000000000000000000000000000000000
00000000000000000011111111111111111100000000000000000000000000000000000000000000000000000000000000000000000000000000000000001111111111000000000000000000000000000000000011111111111100000000000000000000
00000000000000000111111111111111111100000000000000000000000000000000111110001110000000000000000000000000000000000000000000111111111111000000000000000000000000000000111111111111111111000000000000000000
00000000000000000111111111111111111100000000000000000000000000001111111111111111100000000000000000000000000000000000000001111111111111000000000000000000000000000001111111111111111111100000000000000000
00000000000000000111111000011111111000000000000000000000000000111111111111111111111100000000000000000000000000000000011111111111111111000000000000000000000000000011111111111111111111110000000000000000
00000000000000000000000000011111111000000000000000000000000011111111111111111111111111000000000000000000000000000011111111111111111111000000000000000000000000000111111111111111111111111000000000000000
00000000000000000000000000111111110000000000000000000000000011111111111111111111111111110000000000000000000000000111111111111000111110000000000000000000000000000111111111111111111111111100000000000000
00000000000000000000000000111111110000000000000000000000000111111111111111111111111111111100000000000000000000001111111111110000111110000000000000000000000000001111111111100000001111111110000000000000
00000000000000000000000000111111110000000000000000000000000111111111111111111111111111111110000000000000000000001111111110000000111110000000000000000000000000001111111111000000000111111111000000000000
00000000000000000000000000111111110000000000000000000000001111111111111111111111111111111111000000000000000000001111100000000000111110000000000000000000000000001111111110000000000011111111000000000000
00000000000000000000000001111111100000000000000000000000011111111111111111111111111111111111100000000000000000001111000000000001111110000000000000000000000000001111111100000000000001111111100000000000
00000000000000000000000011111111000000000000000000000000111111111111111111100111111111111111110000000000000000000000000000000001111110000000000000000000000000011111111000000000000000111111100000000000
00000000000000000000000011111111000000000000000000000000111111111111111110000001111111111111110000000000000000000000000000000001111100000000000000000000000000001111111000000000000000111111110000000000
00000000000000000000000011111111000000000000000000000000111111111111111000000000111111111111111000000000000000000000000000000001111100000000000000000000000000001111111000000000000000011111110000000000
00000000000000000000000011111110000000000000000000000001111111111111111000000000011111111111111100000000000000000000000000000011111100000000000000000000000000001111111000000000000000011111110000000000
00000000000000000000000111111110000000000000000000000001111111111111110000000000001111111111111100000000000000000000000000000011111100000000000000000000000000001111111000000000000000011111111000000000
00000000000000000000000111111110000000000000000000000000111111111111110000000000000111111111111100000000000000000000000000000011111100000000000000000000000000001111111000000000000000011111111000000000
00000000000000000000000111111110000000000000000000000000111111111111110000000000000111111111111110000000000000000000000000000011111000000000000000000000000000000111111100000000000000001111111000000000
00000000000000000000000111111100000000000000000000000000111111111111100000000000000011111111111110000000000000000000000000000011111000000000000000000000000000000111111100000000000000001111111100000000
00000000000000000000001111111000000000000000000000000000111111111111100000000000000011111111111111000000000000000000000000000011111000000000000000000000000000000111111100000000000000001111111100000000
00000000000000000000001111111000000000000000000000000001111111111111110000000000000011111111111111000000000000000000000000000111111000000000000000000000000000000111111100000000000000001111111100000000
00000000000000000000001111111000000000000000000000000001111111111111110000000000000011111111111111100000000000000000000000000111111000000000000000000000000000000111111110000000000000001111111100000000
00000000000000000000011111111000000000000000000000000001111111111111110000000000000011111111111111100000000000000000000000000111111000000000000000000000000000000011111111000000000000001111111100000000
00000000000000000000011111110000000000000000000000000001111111111111110000000000000001111111111111100000000000000000000000000111111000000000000000000000000000000011111111000000000000001111111100000000
00000000000000000000111111110000000000000000000000000001111111111111110000000000000001111111111111100000000000000000000000000111111000000000000000000000000000000001111111000000000000001111111100000000
00000000000000000000111111110000000000000000000000000001111111111111110000000000000001111111111111100000000000000000000000000111110000000000000000000000000000000001111111100000000000001111111100000000
00000000000000000000111111100000000000000000000000000000111111111111110000000000000001111111111111100000000000000000000000000111110000000000000000000000000000000000111111100000000000011111111100000000
00000000000000000000111111100000000000000000000000000000111111111111110000000000000000111111111111100000000000000000000000000111110000000000000000000000000000000000011111110000000000011111111110000000
00000000000000000001111111000000000000000000000000000000011111111111110000000000000000111111111111100000000000000000000000000111110000000000000000000000000000000000011111111000000000011111111110000000
00000000000000000001111111000000000000000000000000000000011111111111111000000000000000111111111111100000000000000000000000000111110000000000000000000000000000000000001111111110000000111111111110000000
00000000000000000001111111000000000000000000000000000000011111111111111000000000000000111111111111100000000000000000000000000111110000000000000000000000000000000000000111111111111111111111111110000000
00000000000000000001111111000000000000000000000000000000011111111111111000000000000000111111111111110000000000000000000000000111110000000000000000000000000000000000000011111111111111111111111110000000
00000000000000000001111110000000000000000000000000000000011111111111111000000000000000111111111111110000000000000000000000001111110000000000000000000000000000000000000001111111111111111111111110000000
00000000000000000011111110000000000000000000000000000000011111111111111000000000000000111111111111110000000000000000000000001111111000000000000000000000000000000000000000111111111111111111111110000000
00000000000000000111111100000000000000000000000000000000011111111111111100000000000000111111111111110000000000000000000000001111111000000000000000000000000000000000000000011111111111111011111110000000
00000000000000000111111100000000000000000000000000000000011111111111111100000000000000111111111111110000000000000000000000001111111000000000000000000000000000000000000000000111111111100011111110000000
00000000001000000111111100000000000000000000000000000000001111111111111100000000000000111111111111110000000000000000000000001111110000000000000000000000000000000000000000000000000000000001111110000000
00000000001111101111111000000000000000000000000000000000000111111111111100000000000000111111111111110000000000000000000000001111111000000000000000000000000000000000000000000000000000000001111110000000
00000000011111111111111000000000000000000000000000000000000111111111111110000000000000111111111111110000000000000000000000001111111000000000000000000000000000000000000000000000000000000001111100000000
00000000001111111111111000000000000000000000000000000000000011111111111111000000000000111111111111110000000000000000000000011111111000000000000000000000000000000000000000000000000000000011111100000000
00000000000111111111111000000000000000000000000000000000000011111111111111000000000001111111111111100000000000000000000000011111110000000000000000000000000000000000000000000000000000000011111100000000
00000000000001111111111000000000000000000000000000000000000011111111111111100000000001111111111111100000000000000000000000001111111000000000000000000000000000000000000000000000000000000111111100000000
00000000000000011111111100000000000000000000000000000000000001111111111111100000000000111111111111000000000000000000000000001111111000000000000000000000000000000000000000000000000000000111111100000000
00000000000000001111111110000000000000000000000000000000000001111111111111110000000001111111111111000000000000000000000000001111110000000000000000000000000000000000000000000000000000000111111000000000
00000000000000000011111111100000000000000000000000000000000000111111111111111000000011111111111111000000000000000000000000001111100000000000000000000000000000000000000000000000000000001111111000000000
00000000000000000000111111100000000000000000000000000000000000011111111111111100001111111111111110000000000000000000000000000110000000000000000000000000000000000000000000010000000000011111110000000000
00000000000000000000011111110000000000000000000000000000000000011111111111111111111111111111111110000000000000000000000000000000000000000000000000000000000000000000000000111100000001111111110000000000
00000000000000000000000111100000000000000000000000000000000000001111111111111111111111111111111110000000000000000000000000000000000000000000000000000000000000000000000000111111111111111111100000000000
00000000000000000000000001000000000000000000000000000000000000000111111111111111111111111111111100000000000000000000000000000000000000000000000000000000000000000000000000011111111111111111000000000000
00000000000000000000000000000000000000000000000000000000000000000011111111111111111111111111111000000000000000000000000000000000000000000000000000000000000000000000000000001111111111111111000000000000
00000000000000000000000000000000000000000000000000000000000000000001111111111111111111111111110000000000000000000000000000000000000000000000000000000000000000000000000000001111111111111110000000000000
00000000000000000000000000000000000000000000000000000000000000000000111111111111111111111111100000000000000000000000000000000000000000000000000000000000000000000000000000001111111111111100000000000000
00000000000000000000000000000000000000000000000000000000000000000000001111111111111111111111000000000000000000000000000000000000000000000000000000000000000000000000000000000111111111000000000000000000
00000000000000000000000000000000000000000000000000000000000000000000000011111111111111111100000000000000000000000000000000000000000000000000000000000000000000000000000000000000000000000000000000000000
00000000000000000000000000000000000000000000000000000000000000000000000000111111111111000000000000000000000000000000000000000000000000000000000000000000000000000000000000000000000000000000000000000000
00000000000000000000000000000000000000000000000000000000000000000000000000000000000000000000000000000000000000000000000000000000000000000000000000000000000000000000000000000000000000000000000000000000
00000000000000000000000000000000000000000000000000000000000000000000000000000000000000000000000000000000000000000000000000000000000000000000000000000000000000000000000000000000000000000000000000000000
00000000000000000000000000000000000000000000000000000000000000000000000000000000000000000000000000000000000000000000000000000000000000000000000000000000000000000000000000000000000000000000000000000000
00000000000000000000000000000000000000000000000000000000000000000000000000000000000000000000000000000000000000000000000000000000000000000000000000000000000000000000000000000000000000000000000000000000
00000000000000000000000000000000000000000000000000000000000000000000000000000000000000000000000000000000000000000000000000000000000000000000000000000000000000000000000000000000000000000000000000000000
