P1
200 72
00000000000000000000000000000000000000000000000000000000000000000000000000000000000000000000000000000000000000000000000000000000000000000000000000000000000000000000000000000000000000000000000000000000
00000000000000000000000000000000000000000000000000000000000000000000000000000000000000000000000000000000000000000000000000000000000000000000000000000000000000000000000000000000000000000000000000000000
00000000000000000000000000000000000000000000000000000000000000000000000000000000000000000000000000000000000000000000000000000000000000000000000000000000000000000000000000000000000000000000000000000000
00000000000000000000000000000000000000000000000000000000000000000000000000000000000000000000000000000000000000000000000000000000000000000000000000000000000000000000000000000000000000000000000000000000
00000000000000000000000000000000000000000000000000000000000000000000000000000000000000000000000000000000000000000000000000000000000000000000000000000000000000000000000000000000000000000000000000000000
00000000000000000000000000000000000000000000000000000000000000000000000000000000000000000000000000000000000000000000000000000000000000000000000000000000000000000000000000000000000000000000000000000000
00000000000000000000000000000000000000000000000000000000000000000000000000000000000000000000000000000000000000000000000000000000000000000000000000000000000000000000000000000000000000000000000000000000
00000000000000000000000000000000000000000000000000000000000000000000000000000000000000000000000000000000000000000000000000000000000000000000000000000000000000000000000000000000000000000000000000000000
00000000000000000000000000000000000000000000000000000000000000000000000000000000000000000000000000000000000000000000000000000000000000000000000000000000000000000000000000000000000000000000000000000000
00000000000000000000000000000000000000000000000000000000000000000000000000000000000000000000000000000000000000000000000000000000000000000000000000000000000000000000000000000000000000000000000000000000
00000000000000000000000000000000000000000000000000000000000000000000000000000000000000000000000000000000000000000000000000000000000000000000000000000000000000000000000000000000000000000000000000000000
00000000000000000000000000000000000000000000000000000000000000000000000000000000000000000000000000000000000000000000000000000000000000000000000000000000000000000000000000000000000000000000000000000000
00000000000000000000000000000000000001100000000000000000000000000000000000000000000000000000000000000000000000000000000000000000000000000000000000000000000000000000000000000000000000000000000000000000
00000000000000000000000000000000000111110000000000000000000000000000000000000000000000000000000000000000000000000000000000000000000000000000000000000000000000000000000000000000000000000000000000000000
00000000000000000000000000000000111111110000000000000000000000000000000000000000000000000000000000000000000000000000000000000000000000000000000000000000000000000000000000000000000000000000000000000000
00000000000000000000000000000011111111110000000000000000000000000000000000000000000000000000000000000000000000000000000000000000000000000000000000000000000000000000000000000000000000000000000000000000
00000000000000000000000000000111111111110000000000000000000000000000000000000000000000000000000000000000000000000000000000000000000000000000000000000000000000000000000000000000000000000000000000000000
00000000000000000000000000000011001111110000000000000000000000000000000000000000000000000000000000000000000000000000000000000000000000000000000000000000000000000000000000000000000000000000000000000000
00000000000000000000000000000000001111100000000000000000000000000000000000001111000000000000000000000000000000000000000000000000000000000000000000000000111111000000000000000000000000000000000000000000
00000000000000000000000000000000000111110000000000000000000000000000000000111111000000000000000000000000000000000000000000000000000000000000000000000000111111100000000000000000000000000000000000000000
00000000000000000000000000000000000111110000000000000000000000000000000011111111000000000000000000000000000000001111111000000000000000000000000000000000111111111000000000000000000000000000000000000000
00000000000000000000000000000000000111110000000000000000000000000000001111111111000000000000000000000000000001111111111110000000000000000000000000000001111111111000000000000000000000000000000000000000
00000000000000000000000000000000001111110000000000000000000000000000011111111111000000000000000000000000001111111111111111000000000000000000000000000001111111111000000000000000000000000000000000000000
00000000000000000000000000000000000111110000000000000000000000000000111111111111000000000000000000000000011111111111111111000000000000000000000000000001111111111000000000000000000000000000000000000000
00000000000000000000000000000000000111110000000000000000000000000001111111111110000000000000000000000001111111111111111111100000000000000000000000000001111111111100000000000000000000000000000000000000
00000000000000000000000000000000000111110000000000000000000000000011111001111110000000000000000000000111111111111111111111100000000000000000000000000001111111111100000000000000000000000000000000000000
00000000000000000000000000000000001111110000000000000000000000000011110000111110000000000000000000001111111111111111111111100000000000000000000000000001111111111100000000000000000000000000000000000000
00000000000000000000000000000000000111110000000000000000000000000001100000111111000000000000000000111111111111111111111111100000000000000000000000000011111001111110000000000000000000000000000000000000
00000000000000000000000000000000000111110000000000000000000000000000000000111111000000000000000001111111111111111111111111100000000000000000000000000011111001111111000000000000000000000000000000000000
00000000000000000000000000000000001111110000000000000000000000000000000000111111000000000000000001111111111100000011111111100000000000000000000000000011111001111111000000000000000000000000000000000000
00000000000000000000000000000000001111110000000000000000000000000000000001111111000000000000000001111111110000000001111111110000000000000000000000000011111000111111000000000000000000000000000000000000
00000000000000000000000000000000000111110000000000000000000000000000000001111110000000000000000000111111100000000001111111110000000000000000000000000011111000111111000000000000000000000000000000000000
00000000000000000000000000000000000111110000000000000000000000000000000001111110000000000000000000111111000000000001111111110000000000000000000000000111111000011111100000000000000000000000000000000000
00000000000000000000000000000000000111110000000000000000000000000000000001111110000000000000000000111000000000000001111111100000000000000000000000000111110000011111110000000000000000000000000000000000
00000000000000000000000000000000000111110000000000000000000000000000000001111110000000000000000000110000000000000001111111100000000000000000000000000111110000001111110000000000000000000000000000000000
00000000000000000000000000000000000111110000000000000000000000000000000001111110000000000000000000000000000000000001111111100000000000000000000000000111110000001111110000000000000000000000000000000000
00000000000000000000000000000000000111110000000000000000000000000000000001111110000000000000000000000000000000000011111111100000000000000000000000001111110000001111110000000000000000000000000000000000
00000000000000000000000000000000000111110000000000000000000000000000000001111110000000000000000000000000000000000011111111000000000000000000000000001111110000001111111000000000000000000000000000000000
00000000000000000000000000000000000111110000000000000000000000000000000001111110000000000000000000000000000000000111111111000000000000000000000000001111110000000111111100000000000000000000000000000000
00000000000000000000000000000000000111110000000000000000000000000000000001111100000000000000000000000000000000000111111110000000000000000000000000001111100000000011111100000000000000000000000000000000
00000000000000000000000000000000000111110000000000000000000000000000000001111100000000000000000000000000000000001111111110000000000000000000000000001111100000000011111100000000000000000000000000000000
00000000000000000000000000000000000111110000000000000000000000000000000011111110000000000000000000000000000000001111111100000000000000000000000000011111100000000011111110111110000000000000000000000000
00000000000000000000000000000000000111110000000000000000000000000000000011111110000000000000000000000000000000011111111100000000000000000000000000011111100000000011111111111110000000000000000000000000
00000000000000000000000000000000000111110000000000000000000000000000000011111110000000000000000000000000000000111111111000000000000000000000000000011111100000000111111111111111000000000000000000000000
00000000000000000000000000000000000111110000000000000000000000000000000011111110000000000000000000000000000000111111110000000000000000000000000000011111100001111111111111111111000000000000000000000000
00000000000000000000000000000000000111110000000000000000000000000000000011111110000000000000000000000000000001111111110000000000000000000000000000011111111111111111111111111100000000000000000000000000
00000000000000000000000000000000000111110000000000000000000000000000000011111100000000000000000000000000000011111111100000000000000000000000000000011111111111111111111111100000000000000000000000000000
00000000000000000000000000000000000111110000000000000000000000000000000011111100000000000000000000000000000011111111000000000000000000000000000000011111111111111111111111100000000000000000000000000000
00000000000000000000000000000000000111110000000000000000000000000000000011111100000000000000000000000000000111111111000000000000000000000000000000011111111111111111111111100000000000000000000000000000
00000000000000000000000000000000000111110000000000000000000000000000000011111100000000000000000000000000001111111110000000000000000000000000000000011111111111111000011111110000000000000000000000000000
00000000000000000000000000000000000111110000000000000000000000000000000111111100011110000000000000000000001111111100000000000000000000000000000000011111111111000000001111111000000000000000000000000000
00000000000000000000000000000000000111110000000000000000000000000000000111111100111110000000000000000000011111111000000000000000000000000000000000001111111100000000001111111000000000000000000000000000
00000000000000000000000000000000000111110000000000000000000000000000000111111111111100000000000000000000111111111111100111000000000000000000000000001111100000000000000111111000000000000000000000000000
00000000000000000000000000000000000111111111100000000000000000000000000111111111111100000000000000000000111111111111111111111100000000000000000000000000000000000000000111111000000000000000000000000000
00000000000000000000000000000000000111111111100000000000000000000000000111111111100000000000000000000000111111111111111111111100000000000000000000000000000000000000000111111000000000000000000000000000
00000000000000000000000000000000000111111110000000000000000000000000001111111111000000000000000000000000111111111111111111111100000000000000000000000000000000000000000011100000000000000000000000000000
00000000000000000000000000000000001111111000000000000000000000000000001111111100000000000000000000000000111111111111111111111110000000000000000000000000000000000000000000000000000000000000000000000000
00000000000000000000000000000000111111000000000000000000000000000000011111111000000000000000000000000000011111111111111111111110000000000000000000000000000000000000000000000000000000000000000000000000
00000000000000000000000000000001111000000000000000000000000000000000111111100000000000000000000000000000001111111111111111111110000000000000000000000000000000000000000000000000000000000000000000000000
00000000000000000000000000000000100000000000000000000000000000000011111110000000000000000000000000000000000000001100111111111110000000000000000000000000000000000000000000000000000000000000000000000000
00000000000000000000000000000000000000000000000000000000000000000111111100000000000000000000000000000000000000000000000000111000000000000000000000000000000000000000000000000000000000000000000000000000
00000000000000000000000000000000000000000000000000000000000000001111111000000000000000000000000000000000000000000000000000000000000000000000000000000000000000000000000000000000000000000000000000000000
00000000000000000000000000000000000000000000000000000000000000011111100000000000000000000000000000000000000000000000000000000000000000000000000000000000000000000000000000000000000000000000000000000000
00000000000000000000000000000000000000000000000000000000000000111111000000000000000000000000000000000000000000000000000000000000000000000000000000000000000000000000000000000000000000000000000000000000
00000000000000000000000000000000000000000000000000000000000000111100000000000000000000000000000000000000000000000000000000000000000000000000000000000000000000000000000000000000000000000000000000000000
00000000000000000000000000000000000000000000000000000000000000111000000000000000000000000000000000000000000000000000000000000000000000000000000000000000000000000000000000000000000000000000000000000000
00000000000000000000000000000000000000000000000000000000000000110000000000000000000000000000000000000000000000000000000000000000000000000000000000000000000000000000000000000000000000000000000000000000
00000000000000000000000000000000000000000000000000000000000000100000000000000000000000000000000000000000000000000000000000000000000000000000000000000000000000000000000000000000000000000000000000000000
00000000000000000000000000000000000000000000000000000000000000000000000000000000000000000000000000000000000000000000000000000000000000000000000000000000000000000000000000000000000000000000000000000000
00000000000000000000000000000000000000000000000000000000000000000000000000000000000000000000000000000000000000000000000000000000000000000000000000000000000000000000000000000000000000000000000000000000
00000000000000000000000000000000000000000000000000000000000000000000000000000000000000000000000000000000000000000000000000000000000000000000000000000000000000000000000000000000000000000000000000000000
00000000000000000000000000000000000000000000000000000000000000000000000000000000000000000000000000000000000000000000000000000000000000000000000000000000000000000000000000000000000000000000000000000000
