P1
200 72
00000000000000000000000000000000000000000000000000000000000000000000000000000000000000000000000000000000000000000000000000000000000000000000000000000000000000000000000000000000000000000000000000000000
00000000000000000000000000000000000000000000000000000000000000000000000000000000000000000000000000000000000000000000000000000000000000000000000000000000000000000000000000000000000000000000000000000000
00000000000000000000000000000000000000000000000000000000000000000000000000000000000000000000000000000000000000000000000000000000000000000000000000000000000000000000000000000000000000000000000000000000
00000000000000000000000000000000000000000000000000000000000000000000000000000000000000000000000000000000000000000000000000000000000000000000000000000000000000000000000000000000000000000000000000000000
00000000000000000000000000000000000000000000000000000000000000000000000000000000000000000000000000000000000000000000000000000000000000000000000000000000000000000000000000000000000000000000000000000000
00000000000000000000000000000000000000000000000000000000000000000000000000000000000000000000000000000000000000000000000000000000000000000000000000000000000000000000000000000000000000000000000000000000
00000000000000000000000000000000000000000000000000000000000000000000000000000000000000000000000000000000000000000000000000000000000000000000000000000000000000000000000000000000000000000000000000000000
00000000000000000000000000000000000000000000000000000000000000000000000000000000000000000000000000000000000000000000000000000000000000000000000000000000000000000000000000000000000000000000000000000000
00000000000000000000000000000000000000000000000000000000000000000000000000000000000000000000000000000000000000000000000000000000000000000000000000000000000000000000000000000000000000000000000000000000
00000000000000000000000000000000000000000000000000000000000000000000000000000000000000000000000000000000000000000000000000000000000000000000000000000000000011000000000000000000000000000000000000000000
00000000000000000000000000000000000000000000000000000000000000000000000000000000000000000000000000000000000000000000000000000000000000000000000000000000011111111000000000000000000000000000000000000000
00000000000000000000000000000000000000000000000000000000000000000000000000000000000000000000000000000000000000000000000000000000000000000000000000000000111111111100000000000000000000000000000000000000
00000000000000000000000000000000000000000000000000000000000000000000000000111000000000000000000000000000000000000000000000000000000000000000000000000001111111111100000000000000000000000000000000000000
00000000000000000000000000000000000000000000000000000000000000000000000001111000000000000000000000000000000000000000000000000000000000000000000000000001111111111100000000000000000000000000000000000000
00000000000000000000000000000000000000000000000000000000000000000000000011111000000000000000000000000000000000000000000000000000000000000000000000000011111111111100000000000000000000000000000000000000
00000000000000000000000000000000000000000000000000000000000000000000000111111000000000000000000000000000000000000000000000000000000000000000000000000011111111111110000000000000000000000000000000000000
00000000000000000000000000000000000000000000000000000000000000000000001111111000000000000000000000000000000000000000000000000000000000000000000000000011111111111110000000000000000000000000000000000000
00000000000000000000000000000000000000000000000000000000000000000000001111111000000000000000000000000000000000000000000000000000000000000000000000000011111111111110000000000000000000000000000000000000
00000000000000000000000000000000000000000000000000000000000000000000001111111100000000000000000000000000000000000000000000000000000000000000000000000011111111111110000000000000000000000000000000000000
00000000000000000000000000000000000000000000000000000000000000000000011111111100000000000000000000000000000000000000000000000000000000000000000000000111111111111111000000000000000000000000000000000000
00000000000000000000000000000000000000000000000000000000000000000000111111111100000000000000000000000000000000000000000001000000000000000000000000000111111111111111000000000000000000000000000000000000
00000000000000000000000000000000000001111100000000000000000000000001111111111100000000000000000000000000000000000011111111000000000000000000000000001111111111111111000000000000000000000000000000000000
00000000000000000000000000000000111111111110000000000000000000000001111001111100000000000000000000000000000000011111111111000000000000000000000000001111111111111111000000000000000000000000000000000000
00000000000000000000000000000011111111111110000000000000000000000001110001111110000000000000000000000000000111111111111111000000000000000000000000011111111111111111100000000000000000000000000000000000
00000000000000000000000000000011111111111110000000000000000000000011100001111100000000000000000000000000001111111111111111000000000000000000000000011111111111111111100000000000000000000000000000000000
00000000000000000000000000000111111111111110000000000000000000000011100001111100000000000000000000000000111111110000111110000000000000000000000000011111111111111111100000000000000000000000000000000000
00000000000000000000000000000111111111111110000000000000000000000001000001111100000000000000000000000001111111100000011110000000000000000000000000011111110111111111100000000000000000000000000000000000
00000000000000000000000000000111110011111110000000000000000000000000000001111110000000000000000000000011111110000000111110000000000000000000000000011111110111111111110000000000000000000000000000000000
00000000000000000000000000000001000011111110000000000000000000000000000001111110000000000000000000000111111110000000111110000000000000000000000000111111100011111111110000000000000000000000000000000000
00000000000000000000000000000000000011111110000000000000000000000000000001111110000000000000000000000111111100000000111110000000000000000000000000111111100011111111110000000000000000000000000000000000
00000000000000000000000000000000000011111100000000000000000000000000000001111110000000000000000000001111111100000000111100000000000000000000000000111111000011111111110000000000000000000000000000000000
00000000000000000000000000000000000011111100000000000000000000000000000001111110000000000000000000011111111000000000000000000000000000000000000001111111000011111111111000000000000000000000000000000000
00000000000000000000000000000000000011111000000000000000000000000000000001111110000000000000000000011111111000000000000000000000000000000000000001111110000001111111111000000000000000000000000000000000
00000000000000000000000000000000000111111000000000000000000000000000000001111110000000000000000000111111110000000000000000000000000000000000000001111110000001111111111000000000000000000000000000000000
00000000000000000000000000000000001111111000000000000000000000000000000001111110000000000000000000111111110000000000000000000000000000000000000011111110000001111111111000000000000000000000000000000000
00000000000000000000000000000000001111111000000000000000000000000000000001111110000000000000000000111111110000000000000000000000000000000000000011111110000001111111111100011000000000000000000000000000
00000000000000000000000000000000001111111000000000000000000000000000000001111110000000000000000000111111110000000000000000000000000000000000000111111100000000111111111111111100000000000000000000000000
00000000000000000000000000000000001111111000000000000000000000000000000001111110000000000000000000111111110000000000000000000000000000000000000111111100000000111111111111111100000000000000000000000000
00000000000000000000000000000000001111110000000000000000000000000000000001111110000000000000000000111111110111111110000000000000000000000000000111111100000000111111111111111100000000000000000000000000
00000000000000000000000000000000001111110000000000000000000000000000000001111110000000000000000000111111111111111111000000000000000000000000001111111100000000111111111111111110000000000000000000000000
00000000000000000000000000000000001111100000000000000000000000000000000001111110000000000000000001111111111111111111100000000000000000000000001111111100000011111111111111111110000000000000000000000000
00000000000000000000000000000000011111100000000000000000000000000000000001111110000000000000000001111111111111111111110000000000000000000000001111111000111111111111111111111110000000000000000000000000
00000000000000000000000000000000011111100000000000000000000000000000000001111110000000000000000001111111111001111111110000000000000000000000001111111111111111111111111111111110000000000000000000000000
00000000000000000000000000000000111111100000000000000000000000000000000001111110000000000000000001111111100000111111110000000000000000000000011111111111111111111111111111110000000000000000000000000000
00000000000000000000000000000000111111100000000000000000000000000000000001111110000000000000000000111111100000111111110000000000000000000000011111111111111111111111111111100000000000000000000000000000
00000000000000000000000000000000111111100000000000000000000000000000000001111110000000000000000000111111100000111111110000000000000000000000011111111111111111111111111111100000000000000000000000000000
00000000000000000000000000000000111111100000000000000000000000000000000001111110000000000000000000111111100000111111110000000000000000000000011111111111111111111111111111100000000000000000000000000000
00000000000000000000000000000000111111000000000000000000000000000000000001111110000000000000000000111111100000111111110000000000000000000000011111111111111111111111111111110000000000000000000000000000
00000000000000000000000000000000111111000000000000000000000000000000000011111110000000000000000000111111100000111111110000000000000000000000011111111111111111111111111111110000000000000000000000000000
00000000000000000000000000000000111110000000000000000000000000000000000011111110000000000000000000111111100000111111100000000000000000000000011111111111111100001111111111110000000000000000000000000000
00000000000000000000000000000001111110000000000000000000000000000000000011111110000000000000000000111111100000111111100000000000000000000000001111111111111000001111111111110000000000000000000000000000
00000000000000000000000000000011111110000000000000000000000000000000000001111110000000000000000000111111100000111111100000000000000000000000001111111111000000001111111111110000000000000000000000000000
00000000000000000000000000000011111110000000000000000000000000000000000001111110000000000000000000011111100000111111100000000000000000000000011111111000000000000111111111111000000000000000000000000000
00000000000000000000000000000011111110000000000000000000000000000000000011111110000000000000000000011111100000111111100000000000000000000000011111110000000000000111111111110000000000000000000000000000
00000000000000000000000000000011111100000000000000000000000000000000000011111110000110000000000000011111100001111111100000000000000000000000011100000000000000000111111111100000000000000000000000000000
00000000000000000000000000000011111100000000000000000000000000000000000011111111111110000000000000011111100001111111000000000000000000000000001000000000000000000111111111000000000000000000000000000000
00000000000000000000000000000011111100000000000000000000000000000000000011111111111111000000000000001111110001111111000000000000000000000000000000000000000000000011110000000000000000000000000000000000
00000000000000000000000000000011111000000000000000000000000000000000000011111111111110000000000000001111110011111110000000000000000000000000000000000000000000000011100000000000000000000000000000000000
00000000000000000000000000000111111000000000000000000000000000000000001111111111111000000000000000000111110011111100000000000000000000000000000000000000000000000000000000000000000000000000000000000000
00000000000000000000000000001111111000000000000000000000000000000011111111111111110000000000000000000111111111111100000000000000000000000000000000000000000000000000000000000000000000000000000000000000
00000000000000000000000000001111111000000000000000000000000000000111111111111100000000000000000000000001111111111000000000000000000000000000000000000000000000000000000000000000000000000000000000000000
00000000000000000000011111011111111000000000000000000000000000000111111110000000000000000000000000000000111111110000000000000000000000000000000000000000000000000000000000000000000000000000000000000000
00000000000000000000011111111111111000000000000000000000000000000111111000000000000000000000000000000000000111100000000000000000000000000000000000000000000000000000000000000000000000000000000000000000
00000000000000000000011111111111111110000000000000000000000000000100000000000000000000000000000000000000000000000000000000000000000000000000000000000000000000000000000000000000000000000000000000000000
00000000000000000000011111111111111111110000000000000000000000000000000000000000000000000000000000000000000000000000000000000000000000000000000000000000000000000000000000000000000000000000000000000000
00000000000000000000001111111111111111111000000000000000000000000000000000000000000000000000000000000000000000000000000000000000000000000000000000000000000000000000000000000000000000000000000000000000
00000000000000000000000000000011111111110000000000000000000000000000000000000000000000000000000000000000000000000000000000000000000000000000000000000000000000000000000000000000000000000000000000000000
00000000000000000000000000000000000000010000000000000000000000000000000000000000000000000000000000000000000000000000000000000000000000000000000000000000000000000000000000000000000000000000000000000000
00000000000000000000000000000000000000000000000000000000000000000000000000000000000000000000000000000000000000000000000000000000000000000000000000000000000000000000000000000000000000000000000000000000
00000000000000000000000000000000000000000000000000000000000000000000000000000000000000000000000000000000000000000000000000000000000000000000000000000000000000000000000000000000000000000000000000000000
00000000000000000000000000000000000000000000000000000000000000000000000000000000000000000000000000000000000000000000000000000000000000000000000000000000000000000000000000000000000000000000000000000000
00000000000000000000000000000000000000000000000000000000000000000000000000000000000000000000000000000000000000000000000000000000000000000000000000000000000000000000000000000000000000000000000000000000
