P1
200 72
00000000000000000000000000000000000000000000000000000000000000000000000000000000000000000000000000000000000000000000000000000000000000000000000000000000000000000000000000000000000000000000000000000000
00000000000000000000000000000000000000000000000000000000000000000000000000000000000000000000000000000000000000000000000000000000000000000000000000000000000000000000000000000000000000000000000000000000
00000000000000000000000000000000000000000000000000000000000000000000000000000000000000000000000000000000000000000000000000000000000000000000000000000000000000000000000000000000000000000000000000000000
00000000000000000000000000000000000000000000000000000000000000000000000000000000000000000000000000000000000000000000000000000000000000000000000000000000000000000000000000000000000000000000000000000000
00000000000000000000000000000000000000000000000000000000000000000000000000000000000000000000000000000000000000000000000000000000000000000000000000000000000000000000000000000000000000000000000000000000
00000000000000000000000000000000000000000000000000000000000000000000000000000000000000000000000000000000000000000000000000000000000000000000000000000000000000000000000000000000000000000000000000000000
00000000000000000000000000000000000000000000000000000000000000000000000000000000000000000000000000000000000000000000000000000000000000000000000000000000000000000000000000000000000000000000000000000000
00000000000000000000000000000000000000000000000000000000000000000000000000000000000000000000000000000000000000000000000000000000000000000000000000000000000000000000000000000000000000000000000000000000
00000000000000000000000000000000000000000000000000000000000000000000000000000000000000000000000000000000000000000000000000000000000000000000000000000000000000000000000000000000000000000000000000000000
00000000000000000000000000000000000000000000000000000000000000000000000000000000000000000000000000000000000000000000000000000000000000000000000000000000000000000000000000000000000000000000000000000000
00000000000000000000000000000000000000000000000000000000000000000000000000000000000000000000000000000000000000000000000111111111100000000000000000000000000000000000000000000000000000000000000000000000
00000000000000000000000000000000000000000000000000000000000000000000000000000000000000000000000000000000000000000000111111111111111000000000000000000000000000000000000000000000000000000000000000000000
00000000000000000000000000000000000000000000000000000000000000000000000000000000000000000000000000000000000000001111111111111111111110000000000000000000000000000000000000000000000000000000000000000000
00000000000000000000000000000000000000000000000000000000000000000000000000000000000000000000000000000000000000011111111111111111111111100000000000000000000000000000000000000000000000000000000000000000
00000000000000000000000000000000000000000000000000000000000000000000000000000111111000000000000000000000000000111111111111111111111111100000000000000000000000000000000000000000000000000000000000000000
00000000000000000000000000000000000000000000000000000000000000000000000000011111111111110000000000000000000001111111111111111111111111110000000000000000000000000000000000000000000000000000000000000000
00000000000000000000000000000000000000000000000000000000000000000000000001111111111111110000000000000000000011111111111111111111111111110000000000000000000000000000000000000000000000000000000000000000
00000000000000000000000000000000000000000000000000000000000000000000001111111111111111110000000000000000000111111111111111111111111111111000000000000000000000000000000000000000000000000000000000000000
00000000000000000000000000000000001000000000000000000000000000000000011111111111111111110000000000000000000111111111111100000111111111111100000000000000000000000000000111100000000000000000000000000000
00000000000000000000000000000000011111110000000000000000000000000000111111111111111111100000000000000000000111111111111000000011111111111100000000000000000000000000011111111100000000000000000000000000
00000000000000000000000000000000111111111111000000000000000000000001111111111111111111100000000000000000000111111111110000000000111111111110000000000000000000000001111111111111100000000000000000000000
00000000000000000000000000000000111111111111100000000000000000000001111111111111111111110000000000000000001111111111110000000000011111111111000000000000000000000011111111111111110000000000000000000000
00000000000000000000000000000001111111111111111100000000000000000001111111111111111111110000000000000000001111111111110000000000011111111111000000000000000000000011111111111111111100000000000000000000
00000000000000000000000000000001111111111111111110000000000000000001111111111111111111100000000000000000001111111111110000000000001111111111000000000000000000000111111111111111111110000000000000000000
00000000000000000000000000000001111111111111111111000000000000000001111111110111111111100000000000000000000111111111110000000000000111111111000000000000000000000111111111111111111111000000000000000000
00000000000000000000000000000011111111111111111110000000000000000011111111000111111111100000000000000000000111111111110000000000000111111111000000000000000000000111111111111111111111100000000000000000
00000000000000000000000000000000000111111111111110000000000000000011111100000111111111100000000000000000000111111111111000000000000111111111100000000000000000000111111111100011111111100000000000000000
00000000000000000000000000000000000001111111111100000000000000000011111000000111111111100000000000000000000011111111111000000000000111111111100000000000000000001111111111000000111111110000000000000000
00000000000000000000000000000000000011111111110000000000000000000000000000000111111111100000000000000000000001111111111100000000000111111111110000000000000000001111111111000000011111110000000000000000
00000000000000000000000000000000000011111111110000000000000000000000000000000111111111100000000000000000000001111111111110000000000111111111110000000000000000001111111110000000011111111000000000000000
00000000000000000000000000000000000011111111110000000000000000000000000000000111111111100000000000000000000000111111111111000000000111111111110000000000000000001111111110000000011111111000000000000000
00000000000000000000000000000000000111111111100000000000000000000000000000000111111111000000000000000000000000111111111111100000001111111111110000000000000000001111111110000000011111111000000000000000
00000000000000000000000000000000000111111111100000000000000000000000000000000111111111000000000000000000000000011111111111111110111111111111111000000000000000001111111110000000011111111000000000000000
00000000000000000000000000000000001111111111000000000000000000000000000000001111111111000000000000000000000000001111111111111111111111111111111000000000000000011111111100000000011111111000000000000000
00000000000000000000000000000000001111111110000000000000000000000000000000001111111111000000000000000000000000000011111111111111111111111111111000000000000000001111111100111000001111111100000000000000
00000000000000000000000000000000011111111100000000000000000000000000000000001111111111000000000000000000000000000001111111111111111111111111111000000000000000001111111100111110001111111100000000000000
00000000000000000000000000000000111111111100000000000000000000000000000000000111111111000000000000000000000000000000111111111111111111111111111000000000000000001111111100111111001111111100000000000000
00000000000000000000000000000000111111111000000000000000000000000000000000000111111111000000000000000000000000000000011111111111111111111111111000000000000000001111111100111111101111111100000000000000
00000000000000000000000000000001111111110000000000000000000000000000000000001111111111000000000000000000000000000000000111111111111111111111111000000000000000001111111100111111111111111100000000000000
00000000000000000000000000000011111111110000000000000000000000000000000000001111111111000000000000000000000000000000000011111111111100111111111100000000000000001111111100011111111111111100000000000000
00000000000000000000000000000011111111110000000000000000000000000000000000001111111110000000000000000000000000000000000000000111111000011111111100000000000000001111111100000111101111111110000000000000
00000000000000000000000000000011111111100000000000000000000000000000000000001111111111000000000000000000000000000000000000000000000000011111111000000000000000001111111100000000001111111110000000000000
00000000000000000000000000000111111111000000000000000000000000000000000000001111111111000000000000000000000000000000000000000000000000011111111000000000000000000111111100000000001111111110000000000000
00000000000000000000000000000111111110000000000000000000000000000000000000001111111111000000000000000000000000000000000000000000000000011111111100000000000000000111111100000000011111111100000000000000
00000000000000000000000000001111111110000000000000000000000000000000000000001111111110000000000000000000000000000000011111111000000000011111111100000000000000000111111110000000001111111100000000000000
00000000000000000000000000001111111100000000000000000000000000000000000000011111111110000000000000000000000000000000011111111100000000011111111100000000000000000111111110000000011111111100000000000000
00000000000000000000000000011111111100000000000000000000000000000000000000011111111110000000000000000000000000000000001111111110000000011111111100000000000000000111111110000000011111111100000000000000
00000000000000000000000000111111111000000000000000000000000000000000000000011111111110000000000000000000000000000000001111111111110000111111111100000000000000000011111111000000111111111100000000000000
00000000000000000000000000111111111000000000000000000000000000000000000000011111111110000000000000000000000000000000000111111111111111111111111100000000000000000011111111000000011111111100000000000000
00000000000000000000000001111111110000000000000000000000000000000000000000011111111110000000000000000000000000000000000011111111111111111111111000000000000000000001111111110001111111111100000000000000
00000000000000000111110011111111110000000000000000000000000000000000000000011111111110000000000000000000000000000000000001111111111111111111111000000000000000000000111111111111111111111100000000000000
00000000000000001111111111111111111110000000000000000000000000000000000000011111111110000000000000000000000000000000000000111111111111111111111000000000000000000000011111111111111111111000000000000000
00000000000000011111111111111111111111110000000000000000000000000000000000011111111110000000000000000000000000000000000000001111111111111111111000000000000000000000011111111111111111111000000000000000
00000000000000111111111111111111111111110000000000000000000000000111111110111111111110000000000000000000000000000000000000000111111111111111110000000000000000000000001111111111111111111000000000000000
00000000000000111111111111111111111111110000000000000000000000001111111111111111111111000000000000000000000000000000000000000001111111111111100000000000000000000000000011111111111111110000000000000000
00000000000001111111111111111111111111100000000000000000000000011111111111111111111111111110000000000000000000000000000000000000011111111111000000000000000000000000000000111111111111100000000000000000
00000000000001111111111111111111111111100000000000000000000000011111111111111111111111111111110000000000000000000000000000000000000110111110000000000000000000000000000000001111111111100000000000000000
00000000000001111111111111111111111111000000000000000000000000011111111111111111111111111111111000000000000000000000000000000000000000000000000000000000000000000000000000000001111100000000000000000000
00000000000001111111111111111111111110000000000000000000000000011111111111111111111111111111111000000000000000000000000000000000000000000000000000000000000000000000000000000000000000000000000000000000
00000000000001101100000000000000000000000000000000000000000000011111111111111111111111111111111000000000000000000000000000000000000000000000000000000000000000000000000000000000000000000000000000000000
00000000000000000000000000000000000000000000000000000000000000011111111111111111111111111111111000000000000000000000000000000000000000000000000000000000000000000000000000000000000000000000000000000000
00000000000000000000000000000000000000000000000000000000000000000011111111111111111111111111111000000000000000000000000000000000000000000000000000000000000000000000000000000000000000000000000000000000
00000000000000000000000000000000000000000000000000000000000000000000000000000000001111111111110000000000000000000000000000000000000000000000000000000000000000000000000000000000000000000000000000000000
00000000000000000000000000000000000000000000000000000000000000000000000000000000000000000000000000000000000000000000000000000000000000000000000000000000000000000000000000000000000000000000000000000000
00000000000000000000000000000000000000000000000000000000000000000000000000000000000000000000000000000000000000000000000000000000000000000000000000000000000000000000000000000000000000000000000000000000
00000000000000000000000000000000000000000000000000000000000000000000000000000000000000000000000000000000000000000000000000000000000000000000000000000000000000000000000000000000000000000000000000000000
00000000000000000000000000000000000000000000000000000000000000000000000000000000000000000000000000000000000000000000000000000000000000000000000000000000000000000000000000000000000000000000000000000000
00000000000000000000000000000000000000000000000000000000000000000000000000000000000000000000000000000000000000000000000000000000000000000000000000000000000000000000000000000000000000000000000000000000
00000000000000000000000000000000000000000000000000000000000000000000000000000000000000000000000000000000000000000000000000000000000000000000000000000000000000000000000000000000000000000000000000000000
00000000000000000000000000000000000000000000000000000000000000000000000000000000000000000000000000000000000000000000000000000000000000000000000000000000000000000000000000000000000000000000000000000000
00000000000000000000000000000000000000000000000000000000000000000000000000000000000000000000000000000000000000000000000000000000000000000000000000000000000000000000000000000000000000000000000000000000
00000000000000000000000000000000000000000000000000000000000000000000000000000000000000000000000000000000000000000000000000000000000000000000000000000000000000000000000000000000000000000000000000000000
