P1
200 72
00000000000000000000000000000000000000000000000000000000000000000000000000000000000000000000000000000000000000000000000000000000000000000000000000000000000000000000000000000000000000000000000000000000
00000000000000000000000000000000000000000000000000000000000000000000000000000000000000000000000000000000000000000000000000000000000000000000000000000000000000000000000000000000000000000000000000000000
00000000000000000000000000000000000000000000000000000000000000000000000000000000000000000000000000000000000000000000000000000000000000000000000000000000000000000000000000000000000000000000000000000000
00000000000000000000000000000000000000000000000000000000000000000000000000000000000000000000000000000000000000000000000000000000000000000000000000000000000000000000000000000000000000000000000000000000
00000000000000000000000000000000000000000000000000000000000000000000000000000000000000000000000000000000000000000000000000000000000000000000000000000000000000000000000000000000000000000000000000000000
00000000000000000000000000000000000000000000000000000000000000000000000000000000000000000000000000000000000000000000000000000000000000000000000000000000000000000000000000000000000000000000000000000000
00000000000000000000000000000000000000000000000000000000000000000000000000000000000000000000000000000000000000000000000000000000000000000000000000000000000000000000000000000000000000000000000000000000
00000000000000000000000000000000000000000000000000000000000000000000000000000000000000000000000000000000000000000000000000000000000000000000000000000000000000000000000000000000000000000000000000000000
00000000000000000000000000000000000000000000000000000000000000000000000000000000000000000000000000000000000000000000000000000000000000000000000000000000000000000000000000000000000000000000000000000000
00000000000000000000000000000000000000000000000000000000000000000000000000000000000000000000000000000000000000000000000000000000000000000000000000000000000000000000000000000000000000000000000000000000
00000000000000000000000000000000000000000000000000000000000000000000000000000000000000000000000000000000000000000000000000000000000000000000000000000000000000000000000000000000000000000000000000000000
00000000000000000000000000000000000000000000000000000000000000000000000000000000000000000000000000000000000000000000000000000000000000000000000000000000000000000000000000000000000000000000000000000000
00000000000000000000000000000000000000000000000000000000000000000000000000000000000000000000000000000000000000000000000000000000000000000000000000000000000000000000000000000000000000000000000000000000
00000000000000000000000000000000000000000000000000000000000000000000000000000000000000000000000000000000000000000000000000000000000000000000000000000000000000000000000000000000000000000000000000000000
00000000000000000000000000000000000000000000000000000000000000000000000000000000000000000000000000000000000000000000000000000000000000000000000000000000000000000000000000000000000000000000000000000000
00000000000000000000000000000000000000000000000000000000000000000010111000100000000000000000000000000000000000000000000000000000000000000000000000000000000000000000000000000000000000000000000000000000
00000000000000000000000000000000000000000000000000000000000000111111111111111111100000000000000000000000000000000000000000000000000000000000000000000000000000000111001111111000000000000000000000000000
00000000000000000000000000000000000000000000000000000000000000111111111111111111111100000000000000000000000000000000000000000000000000000000000000000000000111111111111111111000000000000000000000000000
00000000000000000000000111000000000000000000000000000000000000111111111111111111111111000000000000000000000000000000000000000000000000000000000000000000011111111111111111111000000000000000000000000000
00000000000000000000011111111111100000000000000000000000000000111111111111111111111111110000000000000000000000000000000000000000000000000000000000000000011111111111111111111000000000000000000000000000
00000000000000000000011111111111111000000000000000000000000000111111111111111111111111111000000000000000000000000000000000000000000000000000000000000000011111111111111111111000000000000000000000000000
00000000000000000000011111111111111111000000000000000000000000111111111111111111111111111110000000000000000000000000000000000000000000000000000000000000011111111111111111111100000000000000000000000000
00000000000000000000001111111111111111000000000000000000000000111111111111111111111111111110000000000000000000000000000000000000000000000000000000000000011111111011110111111000000000000000000000000000
00000000000000000000000000111111111111000000000000000000000000111111111111001111111111111111000000000000000000000000000000111100000000000000000000000000001000000000000111111000000000000000000000000000
00000000000000000000000000000001111111000000000000000000000000111111001000000011111111111111000000000000000000000000000000111111100000000000000000000000000000000000000111111000000000000000000000000000
00000000000000000000000000000001111111000000000000000000000000110000000000000000011111111111000000000000000000000000000001111111111100000000000000000000000000000000000111111000000000000000000000000000
00000000000000000000000000000001111110000000000000000000000000000000000000000000001111111111000000000000000000000000000001111111111111000000000000000000000000000000000111111000000000000000000000000000
00000000000000000000000000000001111110000000000000000000000000000000000000000000001111111111000000000000000000000000000011111111111111111000000000000000000000000000000111111000000000000000000000000000
00000000000000000000000000000001111110000000000000000000000000000000000000000000001111111111000000000000000000000000000111111111111111111111000000000000000000000000000111111000000000000000000000000000
00000000000000000000000000000001111110000000000000000000000000000000000000000000001111111111000000000000000000000000000111111111111111111111000000000000000000000000000111111000000000000000000000000000
00000000000000000000000000000001111110000000000000000000000000000000000000000000001111111110000000000000000000000000000111111111111111111111000000000000000000000000000111111000000000000000000000000000
00000000000000000000000000000011111110000000000000000000000000000000000000000000011111111110000000000000000000000000001111111111111111111110000000000000000000000000000111111000000000000000000000000000
00000000000000000000000000000011111110000000000000000000000000000000000000000111111111111100000000000000000000000000011111111111111111111110000000000000000000000000000111111000000000000000000000000000
00000000000000000000000000000011111100000000000000000000000000000000011110011111111111111000000000000000000000000000011111111000000111111110000000000000000000000000000111110000000000000000000000000000
00000000000000000000000000000011111100000000000000000000000000000000011111111111111111110000000000000000000000000000111111110000000000000000000000000000000000000000000111110000000000000000000000000000
00000000000000000000000000000011111100000000000000000000000000000000001111111111111111100000000000000000000000000000111111110000000000000000000000000000000000000000000111111000000000000000000000000000
00000000000000000000000000000011111100000000000000000000000000000000001111111111111111000000000000000000000000000000111111111111100000000000000000000000000000000000000111111000000000000000000000000000
00000000000000000000000000000011111100000000000000000000000000000000001111111111111111100000000000000000000000000001111111111111110000000000000000000000000000000000001111111000000000000000000000000000
00000000000000000000000000000011111100000000000000000000000000000000001111111111111111110000000000000000000000000001111111111111111100000000000000000000000000000000001111110000000000000000000000000000
00000000000000000000000000000111111100000000000000000000000000000000011111111111111111111000000000000000000000000011111111111111111110000000000000000000000000000000001111110000000000000000000000000000
00000000000000000000000000000111111000000000000000000000000000000000011111111111111111111100000000000000000000000011111111111111111110000000000000000000000000000000001111110000000000000000000000000000
00000000000000000000000000000011111000000000000000000000000000000000011111111111111111111110000000000000000000000111111111111111111110000000000000000000000000000000001111110000000000000000000000000000
00000000000000000000000000000111111000000000000000000000000000000000011111001111111111111110000000000000000000000111111111111111111111000000000000000000000000000000001111110000000000000000000000000000
00000000000000000000000000000111111000000000000000000000000000000000000000000000011111111110000000000000000000000000000000011111111111000000000000000000000000000000001111110000000000000000000000000000
00000000000000000000000000000111111000000000000000000000000000000000000000000000001111111110000000000000000000000000000000001111111111000000000000000000000000000000001111110000000000000000000000000000
00000000000000000000000000000111111000000000000000000000000000000000000000000000001111111110000000000000000000000000000000001111111111000000000000000000000000000000001111110000000000000000000000000000
00000000000000000000000000000111111000000000000000000000000000000000000000000000000111111110000000000000000000000000000000001111111111000000000000000000000000000000001111110000000000000000000000000000
00000000000000000000000100000011111000000000000000000000000000000000000000000000001111111110000000000000000000000000000000001111111111000000000000000000000000000000001111110000000000000000000000000000
00000000000000000000000111111111111000000000000000000000000000000000000000000000001111111110000000000000000000000000000000001111111110000000000000000000000000000000011111110000000000000000000000000000
00000000000000000000000111111111111000000000000000000000000000000000000000000000011111111100000000000000000000000000000000001111111110000000000000000000000000000000011111100000000000000000000000000000
00000000000000000000000111111111111111100000000000000000000000000000000000000000011111111100000000000000000000000000000000011111111100000000000000000000000000000000011111100000000000000000000000000000
00000000000000000000000011111111111111110000000000000000000000000000000000000000111111111100000000000000000000000000000000111111111000000000000000000000000000000000011111100000000000000000000000000000
00000000000000000000000000011111111111110000000000000000000000000000000000000001111111111000000000000000000111000000000001111111111000000000000000000000000000000000011111100000000000000000000000000000
00000000000000000000000000000001111111110000000000000000000000000000000000000011111111111000000000000000000111111000000011111111110000000000000000000000000000000000011111100000000000000000000000000000
00000000000000000000000000000000000011000000000000000000000000000000000000001111111111110000000000000000001111111111111111111111110000000000000000000000000000000000111111100000000000000000000000000000
00000000000000000000000000000000000000000000000000000000000000111111111111111111111111100000000000000000001111111111111111111111100000000000000000000000000000000000111111100000000000000000000000000000
00000000000000000000000000000000000000000000000000000000000000111111111111111111111111000000000000000000011111111111111111111111000000000000000000000000000000000000011111100000000000000000000000000000
00000000000000000000000000000000000000000000000000000000000000111111111111111111111110000000000000000000111111111111111111111110000000000000000000000000000000000000111111100000000000000000000000000000
00000000000000000000000000000000000000000000000000000000000000111111111111111111111100000000000000000000111111111111111111111000000000000000000000000000000000000000111111100000000000000000000000000000
00000000000000000000000000000000000000000000000000000000000000111111111111111111111000000000000000000000111111111111111111100000000000000000000000000000000000000000111111000000000000000000000000000000
00000000000000000000000000000000000000000000000000000000000000111111111111111111110000000000000000000000111111111111111110000000000000000000000000000000000000000000111111000000000000000000000000000000
00000000000000000000000000000000000000000000000000000000000000011111111111111111000000000000000000000000111111111111111000000000000000000000000000000000000000000000111110000000000000000000000000000000
00000000000000000000000000000000000000000000000000000000000000001111111111111000000000000000000000000000000011111111100000000000000000000000000000000000000000000000111000000000000000000000000000000000
00000000000000000000000000000000000000000000000000000000000000001111111111100000000000000000000000000000000000000000000000000000000000000000000000000000000000000000000000000000000000000000000000000000
00000000000000000000000000000000000000000000000000000000000000000111011000000000000000000000000000000000000000000000000000000000000000000000000000000000000000000000000000000000000000000000000000000000
00000000000000000000000000000000000000000000000000000000000000000000000000000000000000000000000000000000000000000000000000000000000000000000000000000000000000000000000000000000000000000000000000000000
00000000000000000000000000000000000000000000000000000000000000000000000000000000000000000000000000000000000000000000000000000000000000000000000000000000000000000000000000000000000000000000000000000000
00000000000000000000000000000000000000000000000000000000000000000000000000000000000000000000000000000000000000000000000000000000000000000000000000000000000000000000000000000000000000000000000000000000
00000000000000000000000000000000000000000000000000000000000000000000000000000000000000000000000000000000000000000000000000000000000000000000000000000000000000000000000000000000000000000000000000000000
00000000000000000000000000000000000000000000000000000000000000000000000000000000000000000000000000000000000000000000000000000000000000000000000000000000000000000000000000000000000000000000000000000000
00000000000000000000000000000000000000000000000000000000000000000000000000000000000000000000000000000000000000000000000000000000000000000000000000000000000000000000000000000000000000000000000000000000
00000000000000000000000000000000000000000000000000000000000000000000000000000000000000000000000000000000000000000000000000000000000000000000000000000000000000000000000000000000000000000000000000000000
