P1
200 72
00000000000000000000000000000000000000000000000000000000000000000000000000000000000000000000000000000000000000000000000000000000000000000000000000000000000000000000000000000000000000000000000000000000
00000000000000000000000000000000000000000000000000000000000000000000000000000000000000000000000000000000000000000000000000000000000000000000000000000000000000000000000000000000000000000000000000000000
00000000000000000000000000000000000000000000000000000000000000000000000000000000000000000000000000000000000000000000000000000000000000000000000000000000000000000000000000000000000000000000000000000000
00000000000000000000000000000000000000000000000000000000000000000000000000000000000000000000000000000000000000000000000000000000000000000000000000000000000000000000000000000000000000000000000000000000
00000000000000000000000000000000000000000000000000000000000000000000000000000000000000000000000000000000000000000000000000000000000000000000000000000000000000000000000000000000000000000000000000000000
00000000000000000000000000000000000000000000000000000000000000000000000000000000000000000000000000000000000000000000000000000000000000000000000000000000000000000000000000000000000000000000000000000000
00000000000000000000000000000000000000000000000000000000000000000000000000000000000000000000000000000000000000000000000000000000000000000000000000000000000000000000000000000000000000000000000000000000
00000000000000000000000000000000000000000000000000000000000000000000000000000000000000000000000000000000000000000000000000000000000000000000000000000000000000000000000000000000000000000000000000000000
00000000000000000000000000000000000000000000000000000000000000000000000000000000000000000000000000000000000000000000000000000000000000000000000000000000000000000000000000000000000000000000000000000000
00000000000000000000000000000000000000000000000000000000000000000000000000000000000000000000000000000000000000000000000000000000000000000000000000000000000000000000000000000000000000000000000000000000
00000000000000000000000000000000000000000000000000000000000000000000000000000000000000000000000000000000000000000000000000000000000000000000000000000000000000000000000000000000000000000000000000000000
00000000000000000000000000000000000000000000000000000000000000000000000000000000000000000000000000000000000000000000000000000000000000000000000000000000000000000000000000000000000000000000000000000000
00000000000000000000001111111000000000000000000000000000000000000000000000000000000000000000000000000000000000000000000000000000000000000000000000000000000000000000000000000000000000000000000000000000
00000000000000000000111111110000000000000000000000000000000000000000000000000000000000000000000000000000000000000000000000000000000000000000000000000000000000000000000000000000000000000000000000000000
00000000000000000001111111110000000000000000000000000000000000000000000000000000000000000000000000000000000000000000000000000000000000000000000000000000000000000000000000000000000000000000000000000000
00000000000000000001111111110000000000000000000000000000000000000000000000000000000000000000000000000000000000000000000000000000000000000000000000000000000000000000000000000000000000000000000000000000
00000000000000000011111111110000000000000000000000000000000000000000000000000000000000000000000000000000000000000000000000000000000000000000000000000000000000000000011111111110000000000000000000000000
00000000000000000111111111111000000000000000000000000000000000000000000000000000000000000000000000000000000000000000000000011111110000000000000000000000000000000000111111111111111111111111111000000000
00000000000000011111111111111000000000000000000000000000000000000000000000000000000000000000000000000000000000000000000111111111111110000000000000000000000000000000111111111111111111111111111000000000
00000000000000111111111111111000000000000000000000000000000000000000000000000010000000000000000000000000000000000000011111111111111111000000000000000000000000000000111111111111111111111111111100000000
00000000000001111111111111111000000000000000000000000000000000000000000011111111111111000000000000000000000000000011111111111111111111000000000000000000000000000000111111111111111111111111111000000000
00000000000011111111101111111000000000000000000000000000000000000000011111111111111111110000000000000000000000000111111111111111111111100000000000000000000000000001111111111111111111111111111000000000
00000000000011111110001111111000000000000000000000000000000000000001111111111111111111111000000000000000000000011111111111111111111111110000000000000000000000000001111111111111111111111111111000000000
00000000000011111000001111111000000000000000000000000000000000001111111111111111111111111100000000000000000000111111111111111111111111110000000000000000000000000001111111111111111111111111110000000000
00000000000011110000001111111000000000000000000000000000000000011111111111111111111111111110000000000000000011111111111111111111111111110000000000000000000000000001111111111111111111111111110000000000
00000000000011100000001111111000000000000000000000000000000000111111111111111111111111111110000000000000000111111111111111111111111111110000000000000000000000000000110000000000000111111111100000000000
00000000000001000000000111111000000000000000000000000000000001111111111111111111111111111110000000000000000111111111111111111111111111110000000000000000000000000000000000000000001111111111000000000000
00000000000000000000000111111000000000000000000000000000000011111111111111111111111111111110000000000000001111111111111000000111111111111000000000000000000000000000000000000000001111111111000000000000
00000000000000000000000111111000000000000000000000000000000111111111111100000001111111111110000000000000011111111111100000000011111111111000000000000000000000000000000000000000011111111111000000000000
00000000000000000000001111111000000000000000000000000000000111111111110000000001111111111110000000000000011111111111100000000011111111111000000000000000000000000000000000000000111111111110000000000000
00000000000000000000001111111000000000000000000000000000001111111111100000000000111111111100000000000000011111111111100000000011111111111000000000000000000000000000000000000001111111111100000000000000
00000000000000000000001111111000000000000000000000000000001111111111100000000001111111111100000000000000011111111111000000000011111111111000000000000000000000000000000000000011111111111000000000000000
00000000000000000000001111111000000000000000000000000000011111111111000000000001111111111000000000000000011111111111000000000011111111110000000000000000000000000000000000000011111111111000000000000000
00000000000000000000001111111000000000000000000000000000011111111111000000000011111111110000000000000000011111111111100000000111111111110000000000000000000000000000000000000111111111110000000000000000
00000000000000000000001111111000000000000000000000000000011111111111000000000111111111100000000000000000001111111111111100011111111111110000000000000000000000000000000000000111111111110000000000000000
00000000000000000000001111111000000000000000000000000000011111111100000000001111111111000000000000000000001111111111111111111111111111100000000000000000000000000000000000001111111111100000000000000000
00000000000000000000001111111000000000000000000000000000011100000000000000111111111110000000000000000000001111111111111111111111111111100000000000000000000000000000000000001111111111000000000000000000
00000000000000000000000111111000000000000000000000000000000000000000000111111111111100000000000000000000000111111111111111111111111111110000000000000000000000000000000000011111111111000000000000000000
00000000000000000000000111111000000000000000000000000000000000000000011111111111111111000000000000000000000001111111111111111111111111111100000000000000000000000000000000111111111110000000000000000000
00000000000000000000000111111100000000000000000000000000000000000000011111111111111111100000000000000000000000111111111111111111111111111110000000000000000000000000000001111111111100000000000000000000
00000000000000000000000111111100000000000000000000000000000000000000011111111111111111110000000000000000000000000111111111111111111111111111100000000000000000000000000011111111111000000000000000000000
00000000000000000000001111111100000000000000000000000000000000000000011111111111111111111000000000000000000000001111111111111111111111111111110000000000000000000000000011111111111000000000000000000000
00000000000000000000001111111100000000000000000000000000000000000000111111111111111111111000000000000000000000011111111111111011111111111111111000000000000000000000000111111111110000000000000000000000
00000000000000000000001111111000000000000000000000000000000000000000011111111111111111111100000000000000000001111111111111000000011111111111111000000000000000000000001111111111110000000000000000000000
00000000000000000000001111111000000000000000000000000000000000000000000000000111111111111100000000000000000001111111111110000000001111111111111000000000000000000000011111111111100000000000000000000000
00000000000000000000001111111000000000000000000000000000000000000000000000000011111111111100000000000000000001111111111100000000000011111111111100000000000000000000111111111111100000000000000000000000
00000000000000000000001111111000000000000000000000000000000000000000000000000011111111111000000000000000000011111111111000000000000011111111111100000000000000000000111111111111000000000000000000000000
00000000000000000000001111111000000000000000000000000000000000000000000000000011111111111000000000000000000011111111111100000000000001111111111100000000000000000001111111111110000000000000000000000000
00000000000000000000000111111000000000000000000000000000000000000000000000000011111111111000000000000000000011111111111100000000000001111111111110000000000000000011111111111100000000000000000000000000
00000000000000000000000111111000000000000000000000000000000000000000000000000011111111111000000000000000000011111111111100000000000001111111111110000000000000000011111111111000000000000000000000000000
00000000000000000000000111111100000000000000000000000000000001111100000000000111111111110000000000000000000011111111111110000000000011111111111110000000000000000111111111111000000000000000000000000000
00000000000000000000000111111100000000000000000000000000011111111100000000000111111111110000000000000000000011111111111111000000000011111111111110000000000000000111111111110000000000000000000000000000
00000000000000000000001111111100000000000000000000000000111111111110000000001111111111100000000000000000000011111111111111100000000111111111111111000000000000001111111111100000000000000000000000000000
00000000000000000000001111111100000000000000000000000001111111111110000000011111111111000000000000000000000001111111111111111111111111111111111111000000000000011111111111000000000000000000000000000000
00000000000000000000001111111100000000000000000000000001111111111111000011111111111110000000000000000000000000111111111111111111111111111111111111000000000000111111111110000000000000000000000000000000
00000000000000011100011111111100000000000000000000000001111111111111111111111111111100000000000000000000000000111111111111111111111111111111111110000000000001111111111110000000000000000000000000000000
00000000001111111111111111111111111111111000000000000001111111111111111111111111111100000000000000000000000000011111111111111111111111111111111100000000000011111111111100000000000000000000000000000000
00000000001111111111111111111111111111111000000000000000111111111111111111111111110000000000000000000000000000001111111111111111111111111111111100000000000011111111111000000000000000000000000000000000
00000000001111111111111111111111111111111000000000000000111111111111111111111111100000000000000000000000000000000011111111111111111111111111111100000000000111111111110000000000000000000000000000000000
00000000001111111111111111111111111111111000000000000000011111111111111111111111000000000000000000000000000000000001111111111111111111111111111000000000001111111111000000000000000000000000000000000000
00000000000111111111111111111111111111111100000000000000001111111111111111111000000000000000000000000000000000000000011111111111111111111111000000000000011111100000000000000000000000000000000000000000
00000000000111111111111111111111111111111100000000000000000011111111111111100000000000000000000000000000000000000000000000111111111111111100000000000000000100000000000000000000000000000000000000000000
00000000000000000000011110000011111100011100000000000000000001111111111000000000000000000000000000000000000000000000000000000000000000000000000000000000000000000000000000000000000000000000000000000000
00000000000000000000000000000000000000000000000000000000000000000000000000000000000000000000000000000000000000000000000000000000000000000000000000000000000000000000000000000000000000000000000000000000
00000000000000000000000000000000000000000000000000000000000000000000000000000000000000000000000000000000000000000000000000000000000000000000000000000000000000000000000000000000000000000000000000000000
00000000000000000000000000000000000000000000000000000000000000000000000000000000000000000000000000000000000000000000000000000000000000000000000000000000000000000000000000000000000000000000000000000000
00000000000000000000000000000000000000000000000000000000000000000000000000000000000000000000000000000000000000000000000000000000000000000000000000000000000000000000000000000000000000000000000000000000
00000000000000000000000000000000000000000000000000000000000000000000000000000000000000000000000000000000000000000000000000000000000000000000000000000000000000000000000000000000000000000000000000000000
00000000000000000000000000000000000000000000000000000000000000000000000000000000000000000000000000000000000000000000000000000000000000000000000000000000000000000000000000000000000000000000000000000000
00000000000000000000000000000000000000000000000000000000000000000000000000000000000000000000000000000000000000000000000000000000000000000000000000000000000000000000000000000000000000000000000000000000
00000000000000000000000000000000000000000000000000000000000000000000000000000000000000000000000000000000000000000000000000000000000000000000000000000000000000000000000000000000000000000000000000000000
00000000000000000000000000000000000000000000000000000000000000000000000000000000000000000000000000000000000000000000000000000000000000000000000000000000000000000000000000000000000000000000000000000000
