P1
200 72
00000000000000000000000000000000000000000000000000000000000000000000000000000000000000000000000000000000000000000000000000000000000000000000000000000000000000000000000000000000000000000000000000000000
00000000000000000000000000000000000000000000000000000000000000000000000000000000000000000000000000000000000000000000000000000000000000000000000000000000000000000000000000000000000000000000000000000000
00000000000000000000000000000000000000000000000000000000000000000000000000000000000000000000000000000000000000000000000000000000000000000000000000000000000000000000000000000000000000000000000000000000
00000000000000000000000000000000000000000000000000000000000000000000000000000000000000000000000000000000000000000000000000000000000000000000000000000000000000000000000000000000000000000000000000000000
00000000000000000000000000000000000000000000000000000000000000000000000000000000000000000000000000000000000000000000000000000000000000000000000000000000000000000000000000000000000000000000000000000000
00000000000000000000000000000000000000000000000000000000000000000000000000000000000000000000000000000000000000000000000000000000000000000000000000000000000000000000000000000000000000000000000000000000
00000000000000000000000000000000000000000000000000000000000000000000000000000000000000000000000000000000000000000000000000000000000000000000000000000000000000000000000000000000000000000000000000000000
00000000000000000000000000000000000000000000000000000000000000000000000000000000000000000000000000000000000000000000000000000000000000000000000000000000000000000000000000000000000000000000000000000000
00000000000000000000000000000000000000000000000000000000000000000000000000000000000000000000000000000000000000000000000000000000000000000000000000000000000000000000000000000000000000000000000000000000
00000000000000000000000000000000000000000000000000000000000000000000000000000000000000000000000000000000000000000000000000000000000000000000000000000000000000000000000000000000000000000000000000000000
00000000000000000000000000000000000000000000000000000000000000000000000000000000000000000000000000000000000000000000000000000000000000000000000000000000000000000000000000000000000000000000000000000000
00000000000000000000000000000000000000000000000000000000000000000000000000000000000000000000000000000000000000000000000000000000000000000000000000000000000000000000000000000000000000000000000000000000
00000000000000000000000000000000000000000000000000000000000000000000000000000000000000000000000000000000000000000000000000000000000000000000000000000000000000000000000000000000000000000000000000000000
00000000000000000000000000000000000000000000000000000000000000000000000000000000000000000000000000000000000000000000000000000000000000000000000000000000000000000000000000000000000000000000000000000000
00000000000000000000000000000000000000000000000000000000000000000000000000000000000000000000000000000000000000000000000000000000000000000000000000000000000000000000000000000000000000000000000000000000
00000000000000000000000000000000000000000000000000000000000000000000000000000000000000000000000000000000000000000000000000000000000000000000000000000000000000000000000000000000000000000000000000000000
00000000000000000000000000000000000000000000000000000000000000000000000000000000000000000000000000000000000000000000000000000000000000000000000000000000000011111111100000000000000000000000000000000000
00000000000000000000000000000000000000000000000000000000000000000000000000000000001111000000000000000000000000000000000000000000000000000000000000000000011111111111111000000000000000000000000000000000
00000000000000000000000000000000000000000000000000000000000000000000000000000000011111100000000000000000000000000000000000011100000000000000000000000000111111111111111000000000000000000000000000000000
00000000000000000000000000000000000000000000000000000000000000000000000000000000111111100000000000000000000000000000000011111110000000000000000000000001111111111111111100000000000000000000000000000000
00000000000000000000000000000000000000000000000000000000000000000000000000000000111111100000000000000000000000000000000111111111000000000000000000000011111111111111111100000000000000000000000000000000
00000000000000000000000000000000000000000000000000000000000000000000000000000001111111100000000000000000000000000000011111111111100000000000000000000111111111001111111110000000000000000000000000000000
00000000000000000000000000000000000000000000000000000000000000000000000000000011111111100000000000000000000000000000011100001111100000000000000000001111111100000111111110000000000000000000000000000000
00000000000000000000000000000000000000000000000000000000000000000000000000000011111111100000000000000000000000000000111000000111100000000000000000011111111000000011111110000000000000000000000000000000
00000000000000000000000000000000000000000000000000000000000000000000000000000111111111100000000000000000000000000001111000000111100000000000000000111111110000000001111110000000000000000000000000000000
00000000000000000000000000000000000000000000000000000000000000000000000000001111111111100000000000000000000000000011110000000111100000000000000000111111100000000001111110000000000000000000000000000000
00000000000000000000000000000000000011000000000000000000000000000000000000011111111111100000000000000000000000000111100000000111110000000000000000111111000000000001111111000000000000000000000000000000
00000000000000000000000000000000000111100000000000000000000000000000000000011111111111100000000000000000000000001111000000000111110000000000000001111111000000000001111111000000000000000000000000000000
00000000000000000000000000000000000111100000000000000000000000000000000000111110011111100000000000000000000000011111000000000111110000000000000001111110000000000001111110000000000000000000000000000000
00000000000000000000000000000000001111100000000000000000000000000000000001111110011111100000000000000000000000011110000000000111110000000000000011111110000000000001111110000000000000000000000000000000
00000000000000000000000000000000001111110000000000000000000000000000000011111100011111100000000000000000000000111100000000000111110000000000000011111100000000000001111110000000000000000000000000000000
00000000000000000000000000000000011111110000000000000000000000000000000111111000011111100000000000000000000001111100000000000111110000000000000111111000000000000011111110000000000000000000000000000000
00000000000000000000000000000000011111110000000000000000000000000000000111110000011111100000000000000000000001111000000000000111110000000000001111111000000000000011111110000000000000000000000000000000
00000000000000000000000000000000011111111000000000000000000000000000001111100000011111100000000000000000000011111000000000000111110000000000001111110000000000000011111100000000000000000000000000000000
00000000000000000000000000000000111001111000000000000000000000000000011111000000011111100000000000000000000111110000000000000111110000000000001111110000000000000011111100000000000000000000000000000000
00000000000000000000000000000001111001111000000000000000000000000000111111000000011111100000000000000000000111110000000000000111110000000000001111110000000000000011111100000000000000000000000000000000
00000000000000000000000000000011110000111000000000000000000000000001111110000000011111100000000000000000001111110000000000000111110000000000011111100000000000000011111100000000000000000000000000000000
00000000000000000000000000000011110000111000000000000000000000000011111000000000011111100000000000000000011111100000000000001111110000000000011111100000000000000011111100000000000000000000000000000000
00000000000000000000000000000011100000111000000000000000000000001111110000000000011111100000000000000000011111100000000000001111100000000000111111100000000000000111111000000000000000000000000000000000
00000000000000000000000000000001000000011000000000000000000000011111110000000000011111100000000000000000111111100000000000001111100000000000111111000000000000000111111000000000000000000000000000000000
00000000000000000000000000000000000000011100000000000000000000011111111000000000111111100000000000000000111111000000000000001111100000000000111111000000000000001111111000000000000000000000000000000000
00000000000000000000000000000000000000011100000000000000000000111111111111111111111111111110000000000000111111000000000000001111100000000001111111000000000000001111110000000000000000000000000000000000
00000000000000000000000000000000000000011100000000000000000000111111111111111111111111111111000000000001111111000000000000011111100000000001111111000000000000011111110000000000000000000000000000000000
00000000000000000000000000000000000000011100000000000000000000111111111111111111111111111111100000000001111110000000000000011111100000000001111111000000000000011111100000000000000000000000000000000000
00000000000000000000000000000000000000011110000000000000000000000011111111111111111111111111100000000011111100000000000000011111100000000011111110000000000000011111100000000000000000000000000000000000
00000000000000000000000000000000000000011110000000000000000000000000000000000000111111111111100000000011111100000000000000111111000000000001111110000000000000111111100000000000000000000000000000000000
00000000000000000000000000000000000000001111000000000000000000000000000000000000111111111111100000000011111100000000000000111111000000000011111100000000000000111111100000000000000000000000000000000000
00000000000000000000000000000000000000001111000000000000000000000000000000000000111111100000000000000111111000000000000000111111000000000011111110000000000000111111000000000000000000000000000000000000
00000000000000000000000000000000000000001111000000000000000000000000000000000000111111100000000000000111111000000000000001111110000000000011111110000000000001111111000000000000000000000000000000000000
00000000000000000000000000000000000000001111000000000000000000000000000000000000111111100000000000000111111000000000000001111110000000000011111110000000000011111110000000000000000000000000000000000000
00000000000000000000000000000000000000001111000000000000000000000000000000000001111111100000000000001111111000000000000011111100000000000011111110000000000011111110000000000000000000000000000000000000
00000000000000000000000000000000000000001111000000011100000000000000000000000001111111100000000000000111110000000000000011111100000000000011111110000000000111111100000000000000000000000000000000000000
00000000000000000000000000000000000000000111000001111110000000000000000000000001111111100000000000000111110000000000000111111000000000000011111110000000001111111100000000000000000000000000000000000000
00000000000000000000000000000000000000000111100111111100000000000000000000000000011111100000000000001111110000000000001111110000000000000011111111000000011111111000000000000000000000000000000000000000
00000000000000000000000000000000000000000111111111111000000000000000000000000000000000000000000000000111110000000000001111100000000000000001111111111111111111111000000000000000000000000000000000000000
00000000000000000000000000000000000000000111111111000000000000000000000000000000000000000000000000000111111000000000011111100000000000000000111111111111111111110000000000000000000000000000000000000000
00000000000000000000000000000000000000001111111110000000000000000000000000000000000000000000000000000011111000000001111111000000000000000000011111111111111111100000000000000000000000000000000000000000
00000000000000000000000000000000000001111111110000000000000000000000000000000000000000000000000000000011111000000011111100000000000000000000011111111111111110000000000000000000000000000000000000000000
00000000000000000000000000000000000011111110000000000000000000000000000000000000000000000000000000000001111110001111111000000000000000000000001111111111111100000000000000000000000000000000000000000000
00000000000000000000000000000000011111111100000000000000000000000000000000000000000000000000000000000000011111111111100000000000000000000000000011111111111000000000000000000000000000000000000000000000
00000000000000000000000000000000111111000000000000000000000000000000000000000000000000000000000000000000000111111110000000000000000000000000000000000100000000000000000000000000000000000000000000000000
00000000000000000000000000000000111100000000000000000000000000000000000000000000000000000000000000000000000000000000000000000000000000000000000000000000000000000000000000000000000000000000000000000000
00000000000000000000000000000000100000000000000000000000000000000000000000000000000000000000000000000000000000000000000000000000000000000000000000000000000000000000000000000000000000000000000000000000
00000000000000000000000000000000000000000000000000000000000000000000000000000000000000000000000000000000000000000000000000000000000000000000000000000000000000000000000000000000000000000000000000000000
00000000000000000000000000000000000000000000000000000000000000000000000000000000000000000000000000000000000000000000000000000000000000000000000000000000000000000000000000000000000000000000000000000000
00000000000000000000000000000000000000000000000000000000000000000000000000000000000000000000000000000000000000000000000000000000000000000000000000000000000000000000000000000000000000000000000000000000
00000000000000000000000000000000000000000000000000000000000000000000000000000000000000000000000000000000000000000000000000000000000000000000000000000000000000000000000000000000000000000000000000000000
00000000000000000000000000000000000000000000000000000000000000000000000000000000000000000000000000000000000000000000000000000000000000000000000000000000000000000000000000000000000000000000000000000000
00000000000000000000000000000000000000000000000000000000000000000000000000000000000000000000000000000000000000000000000000000000000000000000000000000000000000000000000000000000000000000000000000000000
00000000000000000000000000000000000000000000000000000000000000000000000000000000000000000000000000000000000000000000000000000000000000000000000000000000000000000000000000000000000000000000000000000000
00000000000000000000000000000000000000000000000000000000000000000000000000000000000000000000000000000000000000000000000000000000000000000000000000000000000000000000000000000000000000000000000000000000
00000000000000000000000000000000000000000000000000000000000000000000000000000000000000000000000000000000000000000000000000000000000000000000000000000000000000000000000000000000000000000000000000000000
