P1
200 72
00000000000000000000000000000000000000000000000000000000000000000000000000000000000000000000000000000000000000000000000000000000000000000000000000000000000000000000000000000000000000000000000000000000
00000000000000000000000000000000000000000000000000000000000000000000000000000000000000000000000000000000000000000000000000000000000000000000000000000000000000000000000000000000000000000000000000000000
00000000000000000000000000000000000000000000000000000000000000000000000000000000000000000000000000000000000000000000000000000000000000000000000000000000000000000000000000000000000000000000000000000000
00000000000000000000000000000000000000000000000000000000000000000000000000000000000000000000000000000000000000000000000000000000000000000000000000000000000000000000000000000000000000000000000000000000
00000000000000000000000000000000000000000000000000000000000000000000000000000000000000000000000000000000000000000000000000000000000000000000000000000000000000000000000000000000000000000000000000000000
00000000000000000000000000000000000000000000000000000000000000000000000000000000000000000000000000000000000000000000000000000000000000000000000000000000000000000000000000000000000000000000000000000000
00000000000000000000000000000000000000000000000000000000000000000000000000000000000000000000000000000000000000000000000000000000000000000000000000000000000000000000000000000000000000000000000000000000
00000000000000000000000000000000000000000000000000000000000000000000000000000000000000000000000000000000000000000000000000000000000000000000000000000000000000000000000000000000000000000000000000000000
00000000000000000000000000000000000000000000000000000000000000000000000000000000000000000000000000000000000000000000000000000000000000000000000000000000000000000000000000000000000000000000000000000000
00000000000000000000000000000000000000000000000000000000000000000000000000000000000000000000000000000000000000000000000000000000000000000000000000000000000000000000000000000000000000000000000000000000
00000000000000000000000000000000000000000000000000000000000000000000000000000000000000000000000000000000000000000000000000000000000000000000000000000000000000000000000000000000000000000000000000000000
00000000000000000000000000000000000000000000000000000000000000000000000000000000000000000000000000000000000000000000000000000000000000000000000000000000000000000000000000000000000000000000000000000000
00000000000000000000000000000000000000000000000000000000000000000000000000000000000000000000000000000000000000000000000000000000000000000000000000000000000000000000000000000000000000000000000000000000
00000000000000000000000000000000000000000000000000000000000000000000000000000000000000000000000000000000000000000000000000000000000000000000000000000000000000000000000000000000000000110000000000000000
00000000000000000000000000000000000000000000000000000000000000000000000000000000000001111000000000000000000000000000000000000000000000000000000000000000000000000000000000000000001111111000000000000000
00000000000000000000000000000000000000000000000000000000000000000000000000000000000011111111000000000000000000000000000000000000000000000000000000000000000000000000000000000001111111111000000000000000
00000000000000000000000000000000000000000000000000000000000000000000000000000000000011111111000000000000000000000000000000000000000000000000000000000000000000000000000000000111111111111000000000000000
00000000000000000000000000000110000000000000000000000000000000000000000000000000000111111111000000000000000000000000000000000000000000000000000000000000000000000000000000011111111111111000000000000000
00000000000000000000000000111110000000000000000000000000000000000000000000000000000111111111000000000000000000000000000000000000000000000000000000000000000000000000000001111111111111111000000000000000
00000000000000000000000011111110000000000000000000000000000000000000000000000000001111111111000000000000000000000000000000000000000000000000000000000000000000000000000011111111111111100000000000000000
00000000000000000000000111111111000000000000000000000000000000000000000000000000011111111111000000000000000000000000000000000000000000000111111110000000000000000000001111111111000000000000000000000000
00000000000000000000011111111111000000000000000000000000000000000000000000000000011111111111000000000000000000000000000000000011001111111111111110000000000000000000011111111000000000000000000000000000
00000000000000000001111111111111100000000000000000000000000000000000000000000000111111111111000000000000000000000000000000000111111111111111111110000000000000000000111111110000000000000000000000000000
00000000000000000001111111111111100000000000000000000000000000000000000000000001111111111111000000000000000000000000000000001111111111111111111110000000000000000001111111000000000000000000000000000000
00000000000000000111111111111111100000000000000000000000000000000000000000000001111111111111000000000000000000000000000000001111111111111111111110000000000000000011111110000000000000000000000000000000
00000000000000001111111111111111100000000000000000000000000000000000000000000011111111111111000000000000000000000000000000011111111111111111111100000000000000000111111100000000000000000000000000000000
00000000000000001111111111111111100000000000000000000000000000000000000000000111111011111111100000000000000000000000000000011111111111111110000000000000000000000111111000000000000000000000000000000000
00000000000000001111111111111111110000000000000000000000000000000000000000000111110011111111100000000000000000000000000000111111111000000000000000000000000000001111111000000000000000000000000000000000
00000000000000001111111101111111110000000000000000000000000000000000000000001111110001111111000000000000000000000000000000111111110000000000000000000000000000011111110000000000000000000000000000000000
00000000000000000111111000111111111000000000000000000000000000000000000000011111100001111111000000000000000000000000000001111111100000000000000000000000000000011111100000000001111111100000000000000000
00000000000000000011110000111111111000000000000000000000000000000000000000111111000001111111000000000000000000000000000001111111000000000000000000000000000000011111100000000111111111110000000000000000
00000000000000000011000000111111111000000000000000000000000000000000000001111111000011111111000000000000000000000000000011111111000000000000000000000000000000111111000000011111111111111100000000000000
00000000000000000000000000011111111000000000000000000000000000000000000011111110000011111111000000000000000000000000000011111111001111111100000000000000000000111111000011111111111111111110000000000000
00000000000000000000000000011111111100000000000000000000000000000000000111111100000011111111000000000000000000000000000111111111011111111111000000000000000000111111000111111111111111111110000000000000
00000000000000000000000000011111111100000000000000000000000000000000000111111000000011111111000000000000000000000000000111111111111111111111000000000000000000111111001111111111111111111111000000000000
00000000000000000000000000011111111100000000000000000000000000000000001111110000000011111111000000000000000000000000001111111111111111111111100000000000000001111111111111111000000011111111000000000000
00000000000000000000000000001111111100000000000000000000000000000000011111100000000011111111000000000000000000000000001111111111111111111111100000000000000001111111111111100000000001111111000000000000
00000000000000000000000000001111111110000000000000000000000000000000011111000000000001111111000000000000000000000000011111111111111111111111110000000000000001111111111111000000000001111111100000000000
00000000000000000000000000000111111110000000000000000000000000000000111111000000000001111111000000000000000000000000111111111111111111111111110000000000000001111111111110000000000001111111100000000000
00000000000000000000000000000111111110000000000000000000000000000001111110000000000001111111000000000000000000000001111111111111111111111111110000000000000001111111111100000000000001111111100000000000
00000000000000000000000000000111111111000000000000000000000000000011111100000000000011111111000000000000000000000001111111111000000011111111110000000000000001111111111000000000000000111111100000000000
00000000000000000000000000000111111111000000000000000000000000000011111100000000000011111111000000000000000000000011111111110000000001111111110000000000000001111111111000000000000000111111100000000000
00000000000000000000000000000111111111000000000000000000000000000111111000000000000011111111000000000000000000000011111111000000000001111111110000000000000001111111111000000000000000111111100000000000
00000000000000000000000000000011111111000000000000000000000000000111110000000000000011111111000000000000000000000000000000000000000001111111110000000000000001111111111000000000000001111111000000000000
00000000000000000000000000000001111111100000000000000000000000001111100000000000000011111111000000000000000000000000000000000000000011111111100000000000000001111111110000000000000001111111000000000000
00000000000000000000000000000001111111100000000000000000000000011111100000000000011111111111000000000000000000000000000000000000000011111111100000000000000001111111110000000000000001111111000000000000
00000000000000000000000000000001111111100000000000000000000000111111111111111111111111111111111110000000000000000000000000000000000111111111000000000000000001111111110000000000000001111110000000000000
00000000000000000000000000000001111111110000000000000000000000111111111111111111111111111111111111000000000000000000110000000000001111111111000000000000000001111111110000000000000011111110000000000000
00000000000000000000000000000001111111110000000000000000000000111111111111111111111111111111111111000000000000011111111000000000011111111110000000000000000000111111111000000000000111111100000000000000
00000000000000000000000000000001111111110000000000000000000000111111111111111111111111111111111110000000000001111111111000000000111111111100000000000000000000111111111000000000000111111100000000000000
00000000000000000000000000000000111111110000000000000000000000111111111111111111111111111111111100000000000011111111111100000111111111111000000000000000000000111111111000000000011111111000000000000000
00000000000000000000000000000000011111111111111100000000000000111111111111111100000111111111000000000000000111111111111111111111111111110000000000000000000000011111111100000001111111110000000000000000
00000000000000000000000000000000111111111111111110000000000000000000000000000000000111111111000000000000000111111111111111111111111111100000000000000000000000011111111111001111111111100000000000000000
00000000000000000000000000111111111111111111111110000000000000000000000000000000000011111110000000000000000111111111111111111111111111000000000000000000000000001111111111111111111110000000000000000000
00000000000000000000000001111111111111111111111111000000000000000000000000000000000011111110000000000000000111111111111111111111111100000000000000000000000000000111111111111111111100000000000000000000
00000000000000000000000001111111111111111111111111000000000000000000000000000000000011111110000000000000000011111111111111111111111000000000000000000000000000000011111111111111111000000000000000000000
00000000000000000000000000111111111111111111111111000000000000000000000000000000000011111110000000000000000001111111111111111111100000000000000000000000000000000001111111111111000000000000000000000000
00000000000000000000000000111111111111111111111111000000000000000000000000000000000011111110000000000000000000111111111111111000000000000000000000000000000000000000011111110000000000000000000000000000
00000000000000000000000000111111111111111111111111000000000000000000000000000000000111111110000000000000000000000111110000000000000000000000000000000000000000000000000000000000000000000000000000000000
00000000000000000000000000011111111111111111111111000000000000000000000000000000000111111110000000000000000000000000000000000000000000000000000000000000000000000000000000000000000000000000000000000000
00000000000000000000000000011111000011110000000000000000000000000000000000000000000111111110000000000000000000000000000000000000000000000000000000000000000000000000000000000000000000000000000000000000
00000000000000000000000000000000000000000000000000000000000000000000000000000000000111111110000000000000000000000000000000000000000000000000000000000000000000000000000000000000000000000000000000000000
00000000000000000000000000000000000000000000000000000000000000000000000000000000000011111000000000000000000000000000000000000000000000000000000000000000000000000000000000000000000000000000000000000000
00000000000000000000000000000000000000000000000000000000000000000000000000000000000000000000000000000000000000000000000000000000000000000000000000000000000000000000000000000000000000000000000000000000
00000000000000000000000000000000000000000000000000000000000000000000000000000000000000000000000000000000000000000000000000000000000000000000000000000000000000000000000000000000000000000000000000000000
00000000000000000000000000000000000000000000000000000000000000000000000000000000000000000000000000000000000000000000000000000000000000000000000000000000000000000000000000000000000000000000000000000000
00000000000000000000000000000000000000000000000000000000000000000000000000000000000000000000000000000000000000000000000000000000000000000000000000000000000000000000000000000000000000000000000000000000
00000000000000000000000000000000000000000000000000000000000000000000000000000000000000000000000000000000000000000000000000000000000000000000000000000000000000000000000000000000000000000000000000000000
00000000000000000000000000000000000000000000000000000000000000000000000000000000000000000000000000000000000000000000000000000000000000000000000000000000000000000000000000000000000000000000000000000000
00000000000000000000000000000000000000000000000000000000000000000000000000000000000000000000000000000000000000000000000000000000000000000000000000000000000000000000000000000000000000000000000000000000
00000000000000000000000000000000000000000000000000000000000000000000000000000000000000000000000000000000000000000000000000000000000000000000000000000000000000000000000000000000000000000000000000000000
00000000000000000000000000000000000000000000000000000000000000000000000000000000000000000000000000000000000000000000000000000000000000000000000000000000000000000000000000000000000000000000000000000000
