P1
200 72
00000000000000000000000000000000000000000000000000000000000000000000000000000000000000000000000000000000000000000000000000000000000000000000000000000000000000000000000000000000000000000000000000000000
00000000000000000000000000000000000000000000000000000000000000000000000000000000000000000000000000000000000000000000000000000000000000000000000000000000000000000000000000000000000000000000000000000000
00000000000000000000000000000000000000000000000000000000000000000000000000000000000000000000000000000000000000000000000000000000000000000000000000000000000000000000000000000000000000000000000000000000
00000000000000000000000000000000000000000000000000000000000000000000000000000000000000000000000000000000000000000000000000000000000000000000000000000000000000000000000000000000000000000000000000000000
00000000000000000000000000000000000000000000000000000000000000000000000000000000000000000000000000000000000000000000000000000000000000000000000000000000000000000000000000000000000000000000000000000000
00000000000000000000000000000000000000000000000000000000000000000000000000000000000000000000000000000000000000000000000000000000000000000000000000000000000000000000000000000000000000000000000000000000
00000000000000000000000000000000000000000000000000000000000000000000000000000000000000000000000000000000000000000000000000000000000000000000000000000000000000000000000000000000000000000000000000000000
00000000000000000000000000000000000000000000000000000000000000000000000000000000000000000000000000000000000000000000000000000000000000000000000000000000000000000000000000000000000000000000000000000000
00000000000000000000000000000000000000000000000000000000000000000000000000000000000000000000000000000000000000000000000000000000000000000000000000000000000000000000000000000000000000000000000000000000
00000000000000000000000000000000000000000000000000000000000000000000000000000000000000000000000000000000000000000000000000000000000000000000000000000000000000000000000000000000000000000000000000000000
00000000000000000000000000000000000000000000000000000000000000000000000000000000000000000000000000000000000000000000000000000000000000000000000000000000000000000000000000000000000000000000000000000000
00000000000000000000000000000000000000000000000000000000000000000000000000000000000000000000000000000000000000000000000000000000000000000000000000000000000000000000000000000000000000000000000000000000
00000000000000000000000000000000000000000000000000000000000000000000000000000000000000000111111000000000000000000000000000000000000000000000000000000000000000000000000000000000000000000000000000000000
00000000000000000000000000000000000000000000000000000000000000000000000000000000000000011111111000000000000000000000000000000000000000000000000000000000000000000000000000000000000000000000000000000000
00000000000000000000000000000000000000000000000000000000000000000000000000000000000111111111111000000000000000000000000000000000000000000000000000000000000000000000000000000000000000000000000000000000
00000000000000000000000000001000000000000000000000000000000000000000000000000011111111111111111000000000000000000000000000000000000000000000000000000000000000000000000000000000000111111000000000000000
00000000000000000000000111111111000000000000000000000000000000000000000000001111111111111111111000000000000000000000000000000000000000000000000000000000000000000000000000000000011111111100000000000000
00000000000000000001111111111111000000000000000000000000000000000000000111111111111111111111110000000000000000000000000000000000000000000000000000000000000000000000000000000001111111111110000000000000
00000000000000000011111111111111000000000000000000000000000000000001111111111111111111111111110000000000000000000000000000000000000000101000000000000000000000000000000000000111111111111111000000000000
00000000000000000011111111111111100000000000000000000000000000000011111111111111111111111111100000000000000000000000000000000000000111111100000000000000000000000000000000111110000001111111100000000000
00000000000000000011111111111111100000000000000000000000000000011111111111111111111111111111100000000000000000000000000000000000001111111111000000000000000000000000000011111100000000011111100000000000
00000000000000000010000001111111100000000000000000000000000000011111111111111111111111111111100000000000000000000000000000000000111111111111000000000000000000000000000111110000000000001111100000000000
00000000000000000000000000111111000000000000000000000000000000011111111111111111111111111111000000000000000000000000000000000001111111111111100000000000000000000000001111000000000000001111100000000000
00000000000000000000000001111111000000000000000000000000000000011111111111111111111111111111000000000000000000000000000000000011111111111111100000000000000000000000001111000000000000000111100000000000
00000000000000000000000001111111000000000000000000000000000000011111111111111111111111111111000000000000000000000000000000000111111111111111100000000000000000000000111110000000000000000111100000000000
00000000000000000000000001111111000000000000000000000000000000011111111111111100111111111110000000000000000000000000000000001111111111111111100000000000000000000000111110000000000000000111110000000000
00000000000000000000000001111110000000000000000000000000000000111111111111111000111111111110000000000000000000000000000000001111111111111111100000000000000000000001111100000000000000000111110000000000
00000000000000000000000011111110000000000000000000000000000000111111111000000000111111111100000000000000000000000000000000011111111111111111100000000000000000000001111100000000000000000111110000000000
00000000000000000000000011111110000000000000000000000000000000111111100000000001111111111100000000000000000000000000000000111111111111111111100000000000000000000001111000000000000000000111110000000000
00000000000000000000000011111110000000000000000000000000000000011000000000000001111111111000000000000000000000000000000000111111100111111111100000000000000000000001111000000000000000000111110000000000
00000000000000000000000011111110000000000000000000000000000000000000000000000011111111111000000000000000000000000000000000111100000011111111000000000000000000000001111000000000000000000111110000000000
00000000000000000000000011111110000000000000000000000000000000000000000000000011111111110000000000000000000000000000000001111000000011111111000000000000000000000011111000000000000000000111110000000000
00000000000000000000000111111100000000000000000000000000000000000000000000000011111111110000000000000000000000000000000001110000000011111111000000000000000000000011111000000000000000000011110000000000
00000000000000000000000111111110000000000000000000000000000000000000000000000111111111100000000000000000000000000000000011110000000001111110000000000000000000000001111000000000000000000011110000000000
00000000000000000000000111111110000000000000000000000000000000000000000000000111111111100000000000000000000000000000000011100000000001111110000000000000000000000001110000000000000000000011110000000000
00000000000000000000000111111110000000000000000000000000000000000000000000001111111111100000000000000000000000000000000011000000000011111110000000000000000000000001110000000000000000000011110000000000
00000000000000000000000111111100000000000000000000000000000000000000000000001111111111000000000000000000000000000000000011000000000011111110000000000000000000000001110000000000000000000011110000000000
00000000000000000000000111111100000000000000000000000000000000000000000000001111111111000000000000000000000000000000000111000000000011111100000000000000000000000001111000000000000000000011110000000000
00000000000000000000000111111100000000000000000000000000000000000000000000011111111111000000000000000000000000000000000000000000000011111000000000000000000000000001111000000000000000000011110000000000
00000000000000000000000111111100000000000000000000000000000000000000000000011111111110000000000000000000000000000000000000000000000011111000000000000000000000000001111000000000000000000011110000000000
00000000000000000000000111111000000000000000000000000000000000000000000000011111111110000000000000000000000000000000000000000000000011110000000000000000000000000000111100000000000000000011110000000000
00000000000000000000001111111000000000000000000000000000000000000000000000111111111110000000000000000000000000000000000000000000000111110000000000000000000000000000111100000000000000000011110000000000
00000000000000000000001111111000000000000000000000000000000000000000000000111111111100000000000000000000000000000000000000000000000111100000000000000000000000000000111100000000000000000011110000000000
00000000000000000000001111111000000000000000000000000000000000000000000001111111111100000000000000000000000000000000000000000000001111100000011000000000000000000000111100000000000000000011110000000000
00000000000000000000001111111000000000000000000000000000000000000000000001111111111000000000000000000000000000000000000000000000001111000000111000000000000000000000111100000000000000000011110000000000
00000000000000000000011111111000000000000000000000000000000000000000000001111111111000000000000000000000000000000000000000000000001110000000111000000000000000000000011110000000000000000111100000000000
00000000000000000000011111111000000000000000000000000000000000000000000011111111111000000000000000000000000000000000000000000000011110000001110000000000000000000000011110000000000000000111100000000000
00000000000000000000011111111000000000000000000000000000000000000000000011111111110000000000000000000000000000000000000000000000011100000001110000000000000000000000011110000000000000000111100000000000
00000000000000000000011111111000000000000000000000000000000000000000000111111111110000000000000000000000000000000000000000000000111100000001110000000000000000000000011111000000000000000111100000000000
00000000000011000000011111110000000000000000000000000000000000000000000111111111110000000000000000000000000000000000000000000000111100000011110000000000000000000000001111000000000000001111100000000000
00000000000111110000111111110000000000000000000000000000000000000000000111111111100000000000000000000000000000000000000000000001111000011111110000000000000000000000001111100000000000001111000000000000
00000000000011111000111111110000000000000000000000000000000000000000001111111111000000000000000000000000000000000000000000000001110000111111110000000000000000000000000111100000000000001111000000000000
00000000000011111100111111110000000000000000000000000000000000000000001111111111000000000000000000000000000000000000000000000011110011111111110000000000000000000000000011111000000000001111000000000000
00000000000001111111111111110000000000000000000000000000000000000000001111111111000000000000000000000000000000000000000000000011111111111111110000000000000000000000000001111100000000011111000000000000
00000000000000111111111111100000000000000000000000000000000000000000011111111110000000000000000000000000000000000000000000000111111111111111100000000000000000000000000000111100000000111110000000000000
00000000000000001111111111100000000000000000000000000000000000000000011111111110000000000000000000000000000000000000000000000111111111111111100000000000000000000000000000011111101111111110000000000000
00000000000000000111111111110000000000000000000000000000000000000000111111111100000000000000000000000000000000000000000000001111111111111111100000000000000000000000000000001111111111111100000000000000
00000000000000000011111111110000000000000000000000000000000000000000111111111100000000000000000000000000000000000000000000011111111111111111100000000000000000000000000000000011111111111000000000000000
00000000000000000000111111110000000000000000000000000000000000000000111111111100000000000000000000000000000000000000000000011111111111111100000000000000000000000000000000000000011111100000000000000000
00000000000000000000011111110000000000000000000000000000000000000001111111111000000000000000000000000000000000000000000000111111111111111000000000000000000000000000000000000000000000000000000000000000
00000000000000000000001111111000000000000000000000000000000000000001111111111000000000000000000000000000000000000000000000111111111111000000000000000000000000000000000000000000000000000000000000000000
00000000000000000000000111111000000000000000000000000000000000000001111111110000000000000000000000000000000000000000000000111111111110000000000000000000000000000000000000000000000000000000000000000000
00000000000000000000000001111100000000000000000000000000000000000011111111110000000000000000000000000000000000000000000001111111110000000000000000000000000000000000000000000000000000000000000000000000
00000000000000000000000000111111000000000000000000000000000000000011111111100000000000000000000000000000000000000000000011111111000000000000000000000000000000000000000000000000000000000000000000000000
00000000000000000000000000011111100000000000000000000000000000000011111111100000000000000000000000000000000000000000000111111100000000000000000000000000000000000000000000000000000000000000000000000000
00000000000000000000000000001111110000000000000000000000000000000111111111000000000000000000000000000000000000000000000011100000000000000000000000000000000000000000000000000000000000000000000000000000
00000000000000000000000000000011111000000000000000000000000000000111111100000000000000000000000000000000000000000000000010000000000000000000000000000000000000000000000000000000000000000000000000000000
00000000000000000000000000000001111000000000000000000000000000001111100000000000000000000000000000000000000000000000000000000000000000000000000000000000000000000000000000000000000000000000000000000000
00000000000000000000000000000000111000000000000000000000000000001110000000000000000000000000000000000000000000000000000000000000000000000000000000000000000000000000000000000000000000000000000000000000
00000000000000000000000000000000011000000000000000000000000000000000000000000000000000000000000000000000000000000000000000000000000000000000000000000000000000000000000000000000000000000000000000000000
00000000000000000000000000000000000000000000000000000000000000000000000000000000000000000000000000000000000000000000000000000000000000000000000000000000000000000000000000000000000000000000000000000000
00000000000000000000000000000000000000000000000000000000000000000000000000000000000000000000000000000000000000000000000000000000000000000000000000000000000000000000000000000000000000000000000000000000
