P1
200 72
00000000000000000000000000000000000000000000000000000000000000000000000000000000000000000000000000000000000000000000000000000000000000000000000000000000000000000000000000000000000000000000000000000000
00000000000000000000000000000000000000000000000000000000000000000000000000000000000000000000000000000000000000000000000000000000000000000000000000000000000000000000000000000000000000000000000000000000
00000000000000000000000000000000000000000000000000000000000000000000000000000000000000000000000000000000000000000000000000000000000000000000000000000000000000000000000000000000000000000000000000000000
00000000000000000000000000000000000000000000000000000000000000000000000000000000000000000000000000000000000000000000000000000000000000000000000000000000000000000000000000000000000000000000000000000000
00000000000000000000000000000000000000000000000000000000000000000000000000000000000000000000000000000000000000000000000000000000000000000000000000000000000000000000000000000000000000000000000000000000
00000000000000000000000000000000000000000000000000000000000000000000000000000000000000000000000000000000000000000000000000000000000000000000000000000000000000000000000000000000000000000000000000000000
00000000000000000000000000000000000000000000000000000000000000000000000000000000000000000000000000000000000000000000000000000000000000000000000000000000000000000000000000000000000000000000000000000000
00000000000000000000000000000000000000000000000000000000000000000000000000000000000000000000000000000000000000000000000000000000000000000000000000000000000000000000000000000000000000000000000000000000
00000000000000000000000000000000000000000000000000000000000000000000000000000000000000000000000000000000000000000000000000000000000000000000000000000000000000000000000000000000000000000000000000000000
00000000000000000000000000000000000000000000000000000000000000000000000000000000000000000000000000000000000000000000000000000000000000000000000000000000000000000000000000000000000000000000000000000000
00000000000000000000000000000000000000000000000000000000000000000000000000000000000000000000000000000000000000000000000000000000000000000000000000000000000000000000000000000000000000000000000000000000
00000000000000000000000000000000000000000000000000000000000000000000000000000000000000000000000000000000000000000000000000000000000000000000000000000000000000000000000000000000000000000000000000000000
00000000000000000000000000000000000000000000000000000000000000000000000000000000000000000000000000000000000000000000000000000000000000000000000000000000000000000000000000000000000000000000000000000000
00000000000000000000000000000000000000000000000000000000000000000000000000000000000000000000000000000000000000000000000000000000000000000000000000000000000000000000000000000000000000000000000000000000
00000000000000000000000000000000000000000000000000000000000000000000000000000001111000000000000000000000000000000000000000000000000000000000000000000000000000000000000000000000000000011100000000000000
00000000000000000000000000000000000000000000000000000000000000000000000000000111111110000000000000000000000000000000000000000000000000000000000000000000000000000000000000000000000000111100000000000000
00000000000000000000000000000000000000000000000000000000000000000000000000011111111111000000000000000000000000000000000000000000000000000000000000000000000000000000000000000000000001111100000000000000
00000000000000000000000000000000000000000000000000000000000000000000000000111111111111000000000000000000000000000001111111000000000000000000000000000000000000000000000000000000000011111000000000000000
00000000000000000000000000000000000000000000000000000000000000000000000001111111111111000000000000000000000000000011111111110000000000000000000000000000000000000000000000000000000111110000000000000000
00000000000000000000000000000000000000000000000000000000000000000000000011111111111111000000000000000000000000000111110011111000000000000000000000000000000000000000000000000000001111110000000000000000
00000000000000000000000000000000000000000000000000000000000000000000001111111111111111000000000000000000000000001111100000111100000000000000000000000000000000000000000000000000011111100000000000000000
00000000000000000000000000000111111000000000000000000000000000000000011111111111111111000000000000000000000000001111000000111110000000000000000000000000000000000000000000000000111111100000000000000000
00000000000000000000000000001111111000000000000000000000000000000000111111111111111111100000000000000000000000001111000000011110000000000000000000000000000000000000000000000001111111000000000000000000
00000000000000000000000000011111111100000000000000000000000000000001111111111111111111100000000000000000000000011111000000001111000000000000000000000000000000000000000000000011111111000000000000000000
00000000000000000000000000111111111100000000000000000000000000000001111111111111111111100000000000000000000000011111000000001111000000000000000000000000000000000000000000000111111110000000000000000000
00000000000000000000000011111111111100000000000000000000000000000011111111110011111111100000000000000000000000011111000000000111100000000000000000000000000000000000000000000111111100000000000000000000
00000000000000000000000111111111111000000000000000000000000000000111111111000001111111000000000000000000000000001111100000000111110000000000000000000000000000000000000000011111111100000000000000000000
00000000000000000000001111111111111000000000000000000000000000001111111110000001111111000000000000000000000000001111100000000111110000000000000000000000000000000000000000111111111100000000000000000000
00000000000000000000011111111111111000000000000000000000000000001111111100000001111111000000000000000000000000001111110000000111100000000000000000000000000000000000000001111111111000000000000000000000
00000000000000000000111111111111111000000000000000000000000000011111111000000011111110000000000000000000000000000111110000000111110000000000000000000000000000000000000011111111111000000000000000000000
00000000000000000000111111111111111000000000000000000000000000111111111000000011111110000000000000000000000000000111111000000111100000000000000000000000000000000000000111100111110000000000000000000000
00000000000000000000111110001111111000000000000000000000000000111111110000000011111100000000000000000000000000000011111110011111000000000000000000000000000000000000001111001111100000000000000000000000
00000000000000000000111100001111111000000000000000000000000000111111110000000111111000000000000000000000000000000011111111111111000000000000000000000000000000000000011110001111100000000000000000000000
00000000000000000000111000001111110000000000000000000000000001111111110000001111111000000000000000000000000000000000111111111110000000000000000000000000000000000000111100011111100000000000000000000000
00000000000000000000110000011111111000000000000000000000000001111111100000011111110000000000000000000000000000000000011111111000000000000000000000000000000000000001111000111111000000000000000000000000
00000000000000000000000000011111111000000000000000000000000001111111110000111111110000000000000000000000000000000000011111111100000000000000000000000000000000000011110000111111000000000000000000000000
00000000000000000000000000011111111000000000000000000000000001111111111111111111110000000000000000000000000000000001111111111100000000000000000000000000000000000111100000111110000000000000000000000000
00000000000000000000000000011111111000000000000000000000000001111111111111111111111100000000000000000000000000000011111111111110000000000000000000000000000000001110000001111100000000000000000000000000
00000000000000000000000000011111111000000000000000000000000000111111111111111111111110000000000000000000000000000111110001111111000000000000000000000000000000011100000001111100000000000000000000000000
00000000000000000000000000011111111000000000000000000000000000111111111111111111111110000000000000000000000000001111100000111111100000000000000000000000000000111000000011111000000000000000000000000000
00000000000000000000000000111111110000000000000000000000000000011111111111111111111110000000000000000000000000011111000000001111110000000000000000000000000001111000000011111000000000000000000000000000
00000000000000000000000000111111110000000000000000000000000000000111111111111111111111000000000000000000000000111111000000001111111000000000000000000000000011110000000111111000000000000000000000000000
00000000000000000000000000111111110000000000000000000000000000000011111111111111111111000000000000000000000000111110000000000011111100000000000000000000000111100000001111110000000000000000000000000000
00000000000000000000000000011111110000000000000000000000000000000111111110000111111111000000000000000000000000111100000000000001111110000000000000000000000111000000001111110000000000000000000000000000
00000000000000000000000000011111110000000000000000000000000000001111111100000011111111000000000000000000000000111100000000000000111111000000000000000000001110000000001111100000000000000000000000000000
00000000000000000000000000011111110000000000000000000000000000011111110000000011111111100000000000000000000000111100000000000000111111000000000000000000111100000000011111111110000000000000000000000000
00000000000000000000000000011111110000000000000000000000000000011111110000000001111111000000000000000000000001111100000000000000011111100000000000000001111111111111111111111110000000000000000000000000
00000000000000000000000000111111110000000000000000000000000000111111100000000001111111000000000000000000000001111100000000000000001111100000000000000011111111111111111111111110000000000000000000000000
00000000000000000000000000111111110000000000000000000000000000111111000000000001111111000000000000000000000001111100000000000000001111100000000000000011111111111111111111111100000000000000000000000000
00000000000000000000000000111111110000000000000000000000000001111111000000000001111111000000000000000000000000111110000000000000001111110000000000000111111111111111111111111100000000000000000000000000
00000000000000000000000000111111110000000000000000000000000001111111000000000011111111000000000000000000000000111111000000000000001111110000000000000111111111111111111111111000000000000000000000000000
00000000000000000000000000111111111110111000000000000000000011111111000000000011111111000000000000000000000000011111100000000000001111110000000000000111111111110111111100000000000000000000000000000000
00000000000000000000000000111111111111111100000000000000000011111111000000000111111110000000000000000000000000001111100000000000001111100000000000000000000000000011111000000000000000000000000000000000
00000000000000000000000001111111111111111100000000000000000011111111100000001111111110000000000000000000000000000111111000000000011111100000000000000000000000000111110000000000000000000000000000000000
00000000000000000000111111111111111111111000000000000000000001111111110000111111111100000000000000000000000000000011111111000011111111100000000000000000000000000111110000000000000000000000000000000000
00000000000000000011111111111111111111111100000000000000000001111111111111111111111100000000000000000000000000000000111111111111111110000000000000000000000000001111100000000000000000000000000000000000
00000000000000000011111111111111111111111100000000000000000001111111111111111111111000000000000000000000000000000000011111111111111100000000000000000000000000001111100000000000000000000000000000000000
00000000000000000011111111111111111111110000000000000000000001111111111111111111110000000000000000000000000000000000000000100110000000000000000000000000000000011111100000000000000000000000000000000000
00000000000000000011111111111111110000000000000000000000000000111111111111111111100000000000000000000000000000000000000000000000000000000000000000000000000000011111000000000000000000000000000000000000
00000000000000000011111111111000000000000000000000000000000000111111111111111111000000000000000000000000000000000000000000000000000000000000000000000000000000111111000000000000000000000000000000000000
00000000000000000111110010000000000000000000000000000000000000001111111111111110000000000000000000000000000000000000000000000000000000000000000000000000000000111111000000000000000000000000000000000000
00000000000000000000000000000000000000000000000000000000000000000111111111100000000000000000000000000000000000000000000000000000000000000000000000000000000001111110000000000000000000000000000000000000
00000000000000000000000000000000000000000000000000000000000000000011010000000000000000000000000000000000000000000000000000000000000000000000000000000000000001111100000000000000000000000000000000000000
00000000000000000000000000000000000000000000000000000000000000000000000000000000000000000000000000000000000000000000000000000000000000000000000000000000000000000000000000000000000000000000000000000000
00000000000000000000000000000000000000000000000000000000000000000000000000000000000000000000000000000000000000000000000000000000000000000000000000000000000000000000000000000000000000000000000000000000
00000000000000000000000000000000000000000000000000000000000000000000000000000000000000000000000000000000000000000000000000000000000000000000000000000000000000000000000000000000000000000000000000000000
00000000000000000000000000000000000000000000000000000000000000000000000000000000000000000000000000000000000000000000000000000000000000000000000000000000000000000000000000000000000000000000000000000000
00000000000000000000000000000000000000000000000000000000000000000000000000000000000000000000000000000000000000000000000000000000000000000000000000000000000000000000000000000000000000000000000000000000
00000000000000000000000000000000000000000000000000000000000000000000000000000000000000000000000000000000000000000000000000000000000000000000000000000000000000000000000000000000000000000000000000000000
00000000000000000000000000000000000000000000000000000000000000000000000000000000000000000000000000000000000000000000000000000000000000000000000000000000000000000000000000000000000000000000000000000000
00000000000000000000000000000000000000000000000000000000000000000000000000000000000000000000000000000000000000000000000000000000000000000000000000000000000000000000000000000000000000000000000000000000
00000000000000000000000000000000000000000000000000000000000000000000000000000000000000000000000000000000000000000000000000000000000000000000000000000000000000000000000000000000000000000000000000000000
