P1
200 72
00000000000000000000000000000000000000000000000000000000000000000000000000000000000000000000000000000000000000000000000000000000000000000000000000000000000000000000000000000000000000000000000000000000
00000000000000000000000000000000000000000000000000000000000000000000000000000000000000000000000000000000000000000000000000000000000000000000000000000000000000000000000000000000000000000000000000000000
00000000000000000000000000000000000000000000000000000000000000000000000000000000000000000000000000000000000000000000000000000000000000000000000000000000000000000000000000000000000000000000000000000000
00000000000000000000000000000000000000000000000000000000000000000000000000000000000000000000000000000000000000000000000000000000000000000000000000000000000000000000000000000000000000000000000000000000
00000000000000000000000000000000000000000000000000000000000000000000000000000000000000000000000000000000000000000000000000000000000000000000000000000000000000000000000000000000000000000000000000000000
00000000000000000000000000000000000000000000000000000000000000000000000000000000000000000000000000000000000000000000000000000000000000000000000000000000000000000000000000000000000000000000000000000000
00000000000000000000000000000000000000000000000000000000000000000000000000000000000000000000000000000000000000000000000000000000000000000000000000000000000000000000000000000000000000000000000000000000
00000000000000000000000000000000000000000000000000000000000000000000000000000000000000000000000000000000000000000000000000000000000000000000000000000000000000000000000000000000000000000000000000000000
00000000000000000000000000000000000000000000000000000000000000000000000000000000000000000000000000000000000000000000000000000000000000000000000000000000000000000000000000000000000000000000000000000000
00000000000000000000000000000000000000000000000000000000000000000000000000000000000000000000000000000000000000000000000000000000000000000000000000000000000000000000000000000000000000000000000000000000
00000000000000000000000000000000000000000000000000000000000000000000000000000000000000000000000000000000000000000000000000000000000000000000000000000000000000000000000000000000000000000000000000000000
00000000000000000000000000000000000000000000000000000000000000000000000000000000000000000000000000000000000000000000000000000000000000000000000000000000000000000000000000000000000000000000000000000000
00000000000000000000000000000000000000000000000000000000000000000000000000000000000000000000000000000000000000000000000000000000000000000000000000000000000000000000000000000000000000000000000000000000
00000000000000000000000000000000000000000000000000000000000000000000000000000000000000000000000000000000000000000000000000000000000000000000000000000000000000000000000000000000000000000000000000000000
00000000000000000000000000000000000000000000000000000000000000000000000000000000000000000000000000000000000000000000000000000000000000000000000000000000000000000000000000000000000000000000000000000000
00000000000000000000000000000111111100000000000000000000000000000000000000000000000000000000000000000000000000000000000000000000000000000000000000000000000000000000000000000000000000000000000000000000
00000000000000000000000000011111111100000000000000000000000000000000000000000000000000000000000000000000000000000000000000000000000000000000000000000000000000000011111100000000000000000000000000000000
00000000000000000000000000111111111100000000000000000000000000000000000000000000000000000000000000000000000000000001110000000000000000000000000000000000000000001111111110000000000000000000000000000000
00000000000000000000000011111111111100000000000000000000000000000000000000000000000000000000000000000000000000000111111000000000000000000000000000000000000000111111111110000000000000000000000000000000
00000000000000000000000111111111111100000000000000000000000000000000011110100000000000000000000000000000000000001111111110000000000000000000000000000000000001111111111111000000000000000000000000000000
00000000000000000000000111111111111100000000000000000000000000000111111111111000000000000000000000000000000000111111111111000000000000000000000000000000000011111111111111100000000000000000000000000000
00000000000000000000001111111111111100000000000000000000000000111111111111111100000000000000000000000000000001111111111111000000000000000000000000000000000111111111111111100000000000000000000000000000
00000000000000000000001111111111111100000000000000000000000011111111111111111110000000000000000000000000000111111111111111000000000000000000000000000000001111111111111111100000000000000000000000000000
00000000000000000000000111100011111100000000000000000000000111111110000111111111000000000000000000000000001111111111111111000000000000000000000000000000011111111111111111100000000000000000000000000000
00000000000000000000000110000011111000000000000000000000011111111000000001111111000000000000000000000000001111111111111111100000000000000000000000000000111111111001111111100000000000000000000000000000
00000000000000000000000000000011111000000000000000000000111111100000000001111111000000000000000000000000011111111111111111100000000000000000000000000001111111000000111111110000000000000000000000000000
00000000000000000000000000000011111000000000000000000000111111000000000001111111000000000000000000000000111111111111111111100000000000000000000000000001111111000000111111100000000000000000000000000000
00000000000000000000000000000011111000000000000000000001111110000000000001111111000000000000000000000001111111111111111111110000000000000000000000000011111110000000011111100000000000000000000000000000
00000000000000000000000000000011111000000000000000000011111100000000000001111111000000000000000000000001111111100001111111100000000000000000000000000011111100000000011111100000000000000000000000000000
00000000000000000000000000000011111000000000000000000111111100000000000001111110000000000000000000000011111111000001111111100000000000000000000000000111111100000000011111100000000000000000000000000000
00000000000000000000000000000011111000000000000000000111111000000000000011111110000000000000000000000011111111000000111111100000000000000000000000000111111000000000011111110000000000000000000000000000
00000000000000000000000000000011111000000000000000000111111000000000000111111110000000000000000000000011111110000000111111100000000000000000000000000111111000000000011111110000000000000000000000000000
00000000000000000000000000000011111000000000000000001111110000000000000111111110000000000000000000000111111110000000111111100000000000000000000000000111111000000000011111110000000000000000000000000000
00000000000000000000000000000011110000000000000000001111110000000000000111111100000000000000000000000111111100000000111111110000000000000000000000001111111000000000011111100000000000000000000000000000
00000000000000000000000000000011110000000000000000011111110000000000001111111100000000000000000000000011111100000000111111110000000000000000000000001111110000000000011111110000000000000000000000000000
00000000000000000000000000000011110000000000000000011111110000000000001111111100000000000000000000000111111100000000111111110000000000000000000000001111110000000000011111110000000000000000000000000000
00000000000000000000000000000011110000000000000000011111100000000000011111111000000000000000000000000111111100000000111111100000000000000000000000001111110000000000011111110000000000000000000000000000
00000000000000000000000000000111110000000000000000011111100000000000111111110000000000000000000000000111111100000001111111100000000000000000000000001111110000000000011111110000000000000000000000000000
00000000000000000000000000000111110000000000000000011111100000000001111111110000000000000000000000000111111110000001111111100000000000000000000000001111110000000000001111110000000000000000000000000000
00000000000000000000000000001111110000000000000000011111100000000011111111100000000000000000000000000011111110000011111111100000000000000000000000001111110000011100001111110000000000000000000000000000
00000000000000000000000000001111110000000000000000001111110000001111111111100000000000000000000000000001111111000011111111100000000000000000000000001111110001111110001111110000000000000000000000000000
00000000000000000000000000001111110000000000000000001111111110111111111111100000000000000000000000000001111111111111111111100000000000000000000000001111110001111110001111110000000000000000000000000000
00000000000000000000000000001111110000000000000000001111111111111110111111000000000000000000000000000001111111111111111111100000000000000000000000001111110001111110001111110000000000000000000000000000
00000000000000000000000000001111110000000000000000000111111111111001111110000000000000000000000000000001111111111111111111000000000000000000000000001111110001111110001111110000000000000000000000000000
00000000000000000000000000001111110000000000000000000001111111000001111100000000000000000000000000000000111111111111111111000000000000000000000000001111110001111110001111110000000000000000000000000000
00000000000000000000000000001111110000000000000000000000000000000011111100000000000000000000000000000000011111111111111111000000000000000000000000001111110001111110011111110000000000000000000000000000
00000000000000000000000000001111110000000000000000000000000000000011111000000000000000000000000000000000011111111111111111000000000000000000000000000111111001111100011111100000000000000000000000000000
00000000000000000000000000001111110000000000000000000000000000000011111000000000000000000000000000000000001111111100111111000000000000000000000000000111111000110000001111100000000000000000000000000000
00000000000000000000000000001111110000000000000000000000000000000111110000000000000000000000000000000000000111110000111111000000000000000000000000000111111000000000011111100000000000000000000000000000
00000000000000000000000000001111110000000000000000000000000000001111100000000000000000000000000000000000000000000000111111000000000000000000000000000111111000000000011111100000000000000000000000000000
00000000000000000000000000001111110000000000000000000000000000011111000000000000000000000000000000000000000000000000111111000000000000000000000000000111111000000000011111100000000000000000000000000000
00000000000000000000000000001111100000000000000001111000000000111110000000000000000000000000000000000000000000000000111111000000000000000000000000000111111000000000011111100000000000000000000000000000
00000000000000000000000000001111100000000000000001111000000001111100000000000000000000000000000000000000000000000000111111000000000000000000000000000111111000000000011111100000000000000000000000000000
00000000000000000000000000001111110111111110000001111100000111111000000000000000000000000000000000000000000111000001111110000000000000000000000000000011111000000000011111100000000000000000000000000000
00000000000000000000111111111111111111111100000011111110111111110000000000000000000000000000000000000000011111100011111110000000000000000000000000000001111100000000011111000000000000000000000000000000
00000000000000000001111111111111111111111100000011111111111111000000000000000000000000000000000000000000111111110111111110000000000000000000000000000001111100000000111111000000000000000000000000000000
00000000000000000011111111111111111111111100000011111111111100000000000000000000000000000000000000000000111111111111111100000000000000000000000000000001111110000000111111000000000000000000000000000000
00000000000000000111111111111111111111111100000011111111111000000000000000000000000000000000000000000000011111111111111000000000000000000000000000000001111110000000111111000000000000000000000000000000
00000000000000000111111111111111111111111000000000000000000000000000000000000000000000000000000000000000001111111111111000000000000000000000000000000000111111000001111111000000000000000000000000000000
00000000000000000111111111111100011000000000000000000000000000000000000000000000000000000000000000000000001111111111111000000000000000000000000000000000111111100001111110000000000000000000000000000000
00000000000000000111111110000000000000000000000000000000000000000000000000000000000000000000000000000000000111111111110000000000000000000000000000000000011111111111111110000000000000000000000000000000
00000000000000000111000000000000000000000000000000000000000000000000000000000000000000000000000000000000000011111111100000000000000000000000000000000000011111111111111100000000000000000000000000000000
00000000000000000000000000000000000000000000000000000000000000000000000000000000000000000000000000000000000001111111000000000000000000000000000000000000001111111111111100000000000000000000000000000000
00000000000000000000000000000000000000000000000000000000000000000000000000000000000000000000000000000000000000011000000000000000000000000000000000000000000111111111111000000000000000000000000000000000
00000000000000000000000000000000000000000000000000000000000000000000000000000000000000000000000000000000000000000000000000000000000000000000000000000000000111111111110000000000000000000000000000000000
00000000000000000000000000000000000000000000000000000000000000000000000000000000000000000000000000000000000000000000000000000000000000000000000000000000000011111111100000000000000000000000000000000000
00000000000000000000000000000000000000000000000000000000000000000000000000000000000000000000000000000000000000000000000000000000000000000000000000000000000000010000000000000000000000000000000000000000
00000000000000000000000000000000000000000000000000000000000000000000000000000000000000000000000000000000000000000000000000000000000000000000000000000000000000000000000000000000000000000000000000000000
00000000000000000000000000000000000000000000000000000000000000000000000000000000000000000000000000000000000000000000000000000000000000000000000000000000000000000000000000000000000000000000000000000000
00000000000000000000000000000000000000000000000000000000000000000000000000000000000000000000000000000000000000000000000000000000000000000000000000000000000000000000000000000000000000000000000000000000
00000000000000000000000000000000000000000000000000000000000000000000000000000000000000000000000000000000000000000000000000000000000000000000000000000000000000000000000000000000000000000000000000000000
00000000000000000000000000000000000000000000000000000000000000000000000000000000000000000000000000000000000000000000000000000000000000000000000000000000000000000000000000000000000000000000000000000000
