P1
200 72
00000000000000000000000000000000000000000000000000000000000000000000000000000000000000000000000000000000000000000000000000000000000000000000000000000000000000000000000000000000000000000000000000000000
00000000000000000000000000000000000000000000000000000000000000000000000000000000000000000000000000000000000000000000000000000000000000000000000000000000000000000000000000000000000000000000000000000000
00000000000000000000000000000000000000000000000000000000000000000000000000000000000000000000000000000000000000000000000000000000000000000000000000000000000000000000000000000000000000000000000000000000
00000000000000000000000000000000000000000000000000000000000000000000000000000000000000000000000000000000000000000000000000000000000000000000000000000000000000000000000000000000000000000000000000000000
00000000000000000000000000000000000000000000000000000000000000000000000000000000000000000000000000000000000000000000000000000000000000000000000000000000000000000000000000000000000000000000000000000000
00000000000000000000000000000000000000000000000000000000000000000000000000000000000000000000000000000000000000000000000000000000000000000000000000000000000000000000000000000000000000000000000000000000
00000000000000000000000000000000000000000000000000000000000000000000000000000000000000000000000000000000000000000000000000000000000000000000000000000000000000000000000000000000000000000000000000000000
00000000000000000000000000000000000000000000000000000000000000000000000000000000000000000000000000000000000000000000000000000000000000000000000000000000000000000000000000000000000000000000000000000000
00000000000000000000000000000000000000000000000000000000000000000000000000000000000000000000000000000000000000000000000000000000000000000000000000000000000000000000000000000000000000000000000000000000
00000000000000000000000000000000000000000000000000000000000000000000000000000000000000000000000000000000000000000000000000000000000000000000000000000000000000000000000000000000000000000000000000000000
00000000000000000000000000000000000000000000000000000000000000000000000000000000000000000000000000000000000000000000000000000000000000000000000000000000000000000000000000000000000000000000000000000000
00000000000000000000000000000000000000000000000000000000000000000000000000000000000000000000000000000000000000000000000000000000000000000000000000000000000000000000000000000000000000000000000000000000
00000000000000000000000000000000000000000000000000000000000000000000000000000000000000000000000000000000000000000000000000000000000000000000000000000000000000000000000000000000000000000000000000000000
00000000000000000000000000000000000000000000000000000000000000000000000000000000000000000000000000000000000000000000000000000000000000000000000000000000000000000000000000000000000000000000000000000000
00000000000000000000000000000000000000000000000000000000000000000000000000000000000000000000000000000000000000000000111111111111110000000000000000000000000000000000000000000000000000000000000000000000
00000000000000000000000000000000000000000000000000000000000000000000000000000000000000000000000000000000000000000111111111111111111000000000000000000000000000000000000000000000000000000000000000000000
00000000000000000000000000000000000000000000001111110000000000000000000000000000000000000000000000000000000000001111111111111111111110000000000000000000000000001111000000000000000000000000000000000000
00000000000000000000000000000000000000000001111111111100000000000000000000000000000000000000000000000000000000111111111111111111111110000000000000000000000111111111110000000000000000000000000000000000
00000000000000000000000000000000000000000111111111111110000000000000000000000000000000000000000000000000000001111111111111111111111111000000000000000000011111111111111000000000000000000000000000000000
00000000000000000000000000000000000000001111111111111111000000000000000000000111111000000000000000000000000001111111111111111111111111100000000000000000111111111111111100000000000000000000000000000000
00000000000000000000000000000000000000011111111111111111100000000000000000001111111100000000000000000000000011111111111110111111111111100000000000000001111111111111111100000000000000000000000000000000
00000000000000000000000000000000000000111111111111111111100000000000000000111111111111100000000000000000000111111111111000001111111111100000000000000011111111111111111110000000000000000000000000000000
00000000000000000000000000000000000000111111111000111111110000000000000001111111111111111000000000000000000111111111110000001111111111100000000000000111111110000011111110000000000000000000000000000000
00000000000000000000000000000000000001111111100000011111110000000000000011111111111111111100000000000000000111111111100000000111111111000000000000001111111100000001111110000000000000000000000000000000
00000000000000000000000000000000000001111110000000011111110000000000000011111110000011111100000000000000001111111111000000000111111111000000000000011111110000000001111111000000000000000000000000000000
00000000000000000000000000000000000011111100000000001111111000000000000111111100000001111110000000000000000111111111000000000111111111000000000000111111110000000001111111000000000000000000000000000000
00000000000000000000000000000000000011111100000000001111111000000000001111111100000000111111000000000000000000000000000000000111111111000000000000111111100000000000111111000000000000000000000000000000
00000000000000000000000000000000000001111100000000001111110000000000001111111000000000011111100000000000000000000000000000001111111110000000000001111111000000000000111111000000000000000000000000000000
00000000000000000000000000000000000000011000000000001111110000000000001111110000000000011111100000000000000000000000000000001111111110000000000001111110000000000000011111000000000000000000000000000000
00000000000000000000000000000000000000000000000000001111110000000000011111100000000000001111100000000000000000000000000000011111111100000000000001111110000000000000011111000000000000000000000000000000
00000000000000000000000000000000000000000000000000001111110000000000011111100000000000001111110000000000000000000000000001111111111000000000000011111100000000000000011111000000000000000000000000000000
00000000000000000000000000000000000000000000000000011111110000000000011111100000000000111111111000000000000000000000001111111111110000000000000011111100000000000000111111000000000000000000000000000000
00000000000000000000000000000000000000000000000000011111100000000000111111100000000001111111111000000000000000000001111111111111000000000000000111111100001110000000111111000000000000000000000000000000
00000000000000000000000000000000000000000000000000011111100000000000111111000000000111111111111000000000000000000001111111111100000000000000000111111100011111100000111111000000000000000000000000000000
00000000000000000000000000000000000000000000000000111111000000000000111111000000001111111111111100000000000000000011111111111100000000000000000111111100111111100001111111000000000000000000000000000000
00000000000000000000000000000000000000000000000001111110000000000000111111000000011111111111111100000000000000000011111111111111000000000000001111111000111111110001111111000000000000000000000000000000
00000000000000000000000000000000000000000000000001111110000000000000111111000000111111110011111100000000000000000011111111111111100000000000001111111000111111110000111111000000000000000000000000000000
00000000000000000000000000000000000000000000000111111100000000000000111111000001111111100011111100000000000000000011111111111111100000000000001111110000111111110000111111000000000000000000000000000000
00000000000000000000000000000000000000000000001111111000000000000000111111000011111110000011111100000000000000000011111111111111110000000000011111110000111111110001111111000000000000000000000000000000
00000000000000000000000000000000000000000000011111110000000000000000111111000111111100000011111100000000000000000000000011111111110000000000011111110000011111110001111111000000000000000000000000000000
00000000000000000000000000000000000000000001111111100000000000000000111111001111111000000011111100000000000000000000000001111111110000000000011111110000001111100011111110000000000000000000000000000000
00000000000000000000000000000000000000000011111111000000000000000000111111111111110000000011111100000000000000000000000001111111110000000000011111100000000000000011111110000000000000000000000000000000
00000000000000000000000000000000000000001111111100000000000000000000111111111111100000000111111100000000000000000000000001111111110000000000011111100000000000000011111110000000000000000000000000000000
00000000000000000000000000000000000000011111111000000000000000000000111111111111000000000111111000000000000000000000000000111111110000000000011111100000000000000011111110000000000000000000000000000000
00000000000000000000000000000000000001111111110000000000000000000000111111111100000000000111111000000000000000000000000001111111110000000000011111100000000000000011111110000000000000000000000000000000
00000000000000000000000000000000000011111111100000000000000000000000111111111000000000000111110000000000000000000000000001111111100000000000011111100000000000000111111100000000000000000000000000000000
00000000000000000000000000000000000111111111000000000000000000000000111111110000000000000111110000000000000000100000000001111111100000000000011111100000000000000111111100000000000000000000000000000000
00000000000000000000000000000000001111111100000000000000000000000000111111110000000000001111110000000000000011110000000011111111100000000000011111100000000000001111111000000000000000000000000000000000
00000000000000000000000000000000011111110000000000000000000000000000011111110000000000011111100000000000111111110000000111111111000000000000011111110000000000011111111000000000000000000000000000000000
00000000000000000000000000000000111111100000000000000000000000000000011111111000000000111111100000000000111111111000001111111111000000000000011111111000000000011111111000000000000000000000000000000000
00000000000000000000000000000000111111000000000000000000000000000000001111111100000001111111000000000000111111111111111111111110000000000000001111111100000000111111111000000000000000000000000000000000
00000000000000000000000000000011111110000000000000000000000000000000001111111111100111111110000000000000111111111111111111111100000000000000001111111110000011111111110000000000000000000000000000000000
00000000000000000000000000000011111000000000000000000000000000000000000111111111111111111100000000000000111111111111111111111100000000000000000111111111111111111111100000000000000000000000000000000000
00000000000000000000000000000111111100000000000000000000000000000000000001111111111111111000000000000000011111111111111111111000000000000000000011111111111111111111100000000000000000000000000000000000
00000000000000000000000000000111111111110000000000000000000000000000000000111111111111000000000000000000011111111111111111100000000000000000000000111111111111111111000000000000000000000000000000000000
00000000000000000000000000000111111111111111110000000000000000000000000000011111111100000000000000000000001111111111111111000000000000000000000000000111111111111110000000000000000000000000000000000000
00000000000000000000000000000111111111111111111111000000000000000000000000000000000000000000000000000000000111111111111100000000000000000000000000000011111111111100000000000000000000000000000000000000
00000000000000000000000000000111111111111111111111000000000000000000000000000000000000000000000000000000000001111111100000000000000000000000000000000000011111100000000000000000000000000000000000000000
00000000000000000000000000000000111111111111111111000000000000000000000000000000000000000000000000000000000000000000000000000000000000000000000000000000000000000000000000000000000000000000000000000000
00000000000000000000000000000000000000111111111111000000000000000000000000000000000000000000000000000000000000000000000000000000000000000000000000000000000000000000000000000000000000000000000000000000
00000000000000000000000000000000000000000001111111000000000000000000000000000000000000000000000000000000000000000000000000000000000000000000000000000000000000000000000000000000000000000000000000000000
00000000000000000000000000000000000000000000000000000000000000000000000000000000000000000000000000000000000000000000000000000000000000000000000000000000000000000000000000000000000000000000000000000000
00000000000000000000000000000000000000000000000000000000000000000000000000000000000000000000000000000000000000000000000000000000000000000000000000000000000000000000000000000000000000000000000000000000
00000000000000000000000000000000000000000000000000000000000000000000000000000000000000000000000000000000000000000000000000000000000000000000000000000000000000000000000000000000000000000000000000000000
00000000000000000000000000000000000000000000000000000000000000000000000000000000000000000000000000000000000000000000000000000000000000000000000000000000000000000000000000000000000000000000000000000000
00000000000000000000000000000000000000000000000000000000000000000000000000000000000000000000000000000000000000000000000000000000000000000000000000000000000000000000000000000000000000000000000000000000
00000000000000000000000000000000000000000000000000000000000000000000000000000000000000000000000000000000000000000000000000000000000000000000000000000000000000000000000000000000000000000000000000000000
00000000000000000000000000000000000000000000000000000000000000000000000000000000000000000000000000000000000000000000000000000000000000000000000000000000000000000000000000000000000000000000000000000000
00000000000000000000000000000000000000000000000000000000000000000000000000000000000000000000000000000000000000000000000000000000000000000000000000000000000000000000000000000000000000000000000000000000
00000000000000000000000000000000000000000000000000000000000000000000000000000000000000000000000000000000000000000000000000000000000000000000000000000000000000000000000000000000000000000000000000000000
00000000000000000000000000000000000000000000000000000000000000000000000000000000000000000000000000000000000000000000000000000000000000000000000000000000000000000000000000000000000000000000000000000000
00000000000000000000000000000000000000000000000000000000000000000000000000000000000000000000000000000000000000000000000000000000000000000000000000000000000000000000000000000000000000000000000000000000
