P1
200 72
00000000000000000000000000000000000000000000000000000000000000000000000000000000000000000000000000000000000000000000000000000000000000000000000000000000000000000000000000000000000000000000000000000000
00000000000000000000000000000000000000000000000000000000000000000000000000000000000000000000000000000000000000000000000000000000000000000000000000000000000000000000000000000000000000000000000000000000
00000000000000000000000000000000000000000000000000000000000000000000000000000000000000000000000000000000000000000000000000000000000000000000000000000000000000000000000000000000000000000000000000000000
00000000000000000000000000000000000000000000000000000000000000000000000000000000000000000000000000000000000000000000000000000000000000000000000000000000000000000000000000000000000000000000000000000000
00000000000000000000000000000000000000000000000000000000000000000000000000000000000000000000000000000000000000000000000000000000000000000000000000000000000000000000000000000000000000000000000000000000
00000000000000000000000000000000000000000000000000000000000000000000000000000000000000000000000000000000000000000000000000000000000000000000000000000000000000000000000000000000000000000000000000000000
00000000000000000000000000000000000000000000000000000000000000000000000000000000000000000000000000000000000000000000000000000000000000000000000000000000000000000000000000000000000000000000000000000000
00000000000000000000000000000000000000000000000000000000000000000000000000000000000000000000000000000000000000000000000000000000000000000000000000000000000000000000000000000000000000000000000000000000
00000000000000000000000000000000000000000000000000000000000000000000000000000000000000000000000000000000000000000000000000000000000000000000000000000000000000000000000000000000000000000000000000000000
00000000000000000000000000000000000000000000000000000000000000000000000000000000000000000000000000000000000000000000000000000000000000000000000000000000000000000000000000000000000000000000000000000000
00000000000000000000000000000000000000000000000000000000000000000000000000000000000000000000000000000000000000000000000000000000000000000000000000000000000000000000000000000000000000000000000000000000
00000000000000000000000000000000000000000000000000000000000000000000000000000000000000000000000000000000000000000000000000000000000000000000000000000000000000000000000000000000000000000000000000000000
00000000000000000000000000000000000000000000000000000000000000000000000000000000000000000000000000000000000000000000000000000000000000000000000000000000000000000000000000000000000000000000000000000000
00000000000000000000000000000000000000000000000000000000000000000000000000000000000000000000000000000000000000000000000000000000000000000000000000000000000000000000000000000000000000000000000000000000
00000000000000000000000000000000000000000000000000000000000000000000000000000000000000000000000000000000000000000000000000000000000000000000000000000000000000000000000000000000000000000000000000000000
00000000000000000000000000000000000000000000000000000000000000000000000000000000000000000000000000000000000000000000000000000000000000000000000000000000000000000000000000000000000000000000000000000000
00000000000000000000000000000000000000000000000000000000000000000000000000011111111000000000000000000000000000000000000000000000000000000000000000000000000000000000000000000000000000000000000000000000
00000000000000000000000000000000000000000001111111111110000000000000000000111111111110000000000000000000000000000000000000000000000000000000000000000000000000000000000000111111110000000000000000000000
00000000000000000000000000000000000000000111111111111111100000000000000001111111111111000000000000000000000000000000000000000000000000000000000000000000000000000000000011111111111100000000000000000000
00000000000000000000000000000000000000011111111111111111110000000000000001111111111111100000000000000000000000000000000000000000000000000000000000000000000000000000011111111111111110000000000000000000
00000000000000000000000000000000000000111111111111111111110000000000000011111100011111110000000000000000000000000000000000000000000000000000000000000000000000000001111111111111111111000000000000000000
00000000000000000000000000000000000001111111111111111111111000000000000111111000001111111000000000000000000000000000000000000111000000000000000000000000000000000011111111111111111111000000000000000000
00000000000000000000000000000000000011111111111111111111111000000000000111110000000111111000000000000000000000000000000011111111111111000000000000000000000000000111111111111111111111100000000000000000
00000000000000000000000000000000000111111111111111111111111000000000000111100000000011111100000000000000000000000000000111111111111111111100000000000000000000001111111111111111111111100000000000000000
00000000000000000000000000000000001111111111111111111111111000000000000111100000000011111100000000000000000000000000011111111111111110011100000000000000000000011111111111111111111111100000000000000000
00000000000000000000000000000000011111111111000001111111111000000000001111100000000111111100000000000000000000000001111111111100000000000000000000000000000000111111111111000111111111100000000000000000
00000000000000000000000000000000011111111110000000111111111000000000001111100000000111111110000000000000000000000011111111110000000000000000000000000000000000111111111100000011111111100000000000000000
00000000000000000000000000000000000111111100000000111111111000000000001111000000001111111110000000000000000000000111111111100000000000000000000000000000000001111111111000000001111111100000000000000000
00000000000000000000000000000000000001111000000000111111110000000000001111000000001111111110000000000000000000001111111111000000000000000000000000000000000001111111110000000001111111100000000000000000
00000000000000000000000000000000000000000000000001111111110000000000001111000000011111011110000000000000000000011111111110000000000000000000000000000000000001111111110000000001111111100000000000000000
00000000000000000000000000000000000000000000000001111111100000000000001111000000011110011111000000000000000000011111111100000000000000000000000000000000000011111111100000000001111111100000000000000000
00000000000000000000000000000000000000000000000011111111100000000000001111000000111110011111000000000000000000111111111000000000000000000000000000000000000111111111100000000001111111100000000000000000
00000000000000000000000000000000000000000000000111111111000000000000001111000000111100011111000000000000000000111111110000000000000000000000000000000000000111111111000000000011111111100000000000000000
00000000000000000000000000000000000000000000001111111110000000000000001111000001111100001111000000000000000000111111111111111100000000000000000000000000000111111111100000000011111111100000000000000000
00000000000000000000000000000000000000000000111111111100000000000000001111000001111000001111000000000000000000111111111111111111100000000000000000000000000111111111100000000111111111100000000000000000
00000000000000000000000000000000000000000001111111111000000000000000001111000011111000001111000000000000000001111111111111111111110000000000000000000000000111111111100000000111111111100000000000000000
00000000000000000000000000000000000000000011111111110000000000000000001111000011110000001111000000000000000001111111111100111111111000000000000000000000000111111111110000000111111111100000000000000000
00000000000000000000000000000000000000001111111111100000000000000000001111000111110000001111000000000000000001111111000000000011111110000000000000000000000111111111111100111111111111100000000000000000
00000000000000000000000000000000000000111111111111000000000000000000001111100111100000001111000000000000000011111110000000000001111111000000000000000000000011111111111111111111111111000000000000000000
00000000000000000000000000000000000011111111111110000000000000000000001111101111100000001111000000000000000011111110000000000000111111000000000000000000000011111111111111111111111111000000000000000000
00000000000000000000000000000000001111111111111000000000000000000000001111111111100000001111000000000000000011111110000000000000111111100000000000000000000001111111111111111111111111000000000000000000
00000000000000000000000000000000011111111111100000000000000000000000001111111111000000001111000000000000000011111110000000000000111111100000000000000000000000011111111111111111111111000000000000000000
00000000000000000000000000000001111111111111000000000000000000000000000111111110000000011111000000000000000011111110000000000000111111110000000000000000000000001111111111111111111111000000000000000000
00000000000000000000000000000011111111111110000000000000000000000000000111111110000000011111000000000000000111111100000000000000111111100000000000000000000000000111111111000111111111000000000000000000
00000000000000000000000000000111111111111000000000000000000000000000000111111100000000011110000000000000000011111100000000000000011111100000000000000000000000000000001110000111111110000000000000000000
00000000000000000000000000011111111111100000000000000000000000000000000011111100000000111110000000000000000011111100000000000000111111100000000000000000000000000000000000001111111110000000000000000000
00000000000000000000000000111111111111000000000000000000000000000000000001111110000001111100000000000000000011111100000000000000111111100000000000000001111111000000000000001111111110000000000000000000
00000000000000000000000001111111111100000000000000000000000000000000000001111111000001111100000000000000000011111100000000000000111111000000000000000001111111111000000000001111111110000000000000000000
00000000000000000000000011111111111000000000000000000000000000000000000000111111100011111000000000000000000011111100000000000000111111000000000000000001111111111000000000011111111110000000000000000000
00000000000000000000000111111111100000000000000000000000000000000000000000111111111111111000000000000000000001111110000000000000111111000000000000000001111111111100000000111111111110000000000000000000
00000000000000000000001111111111000000000000000000000000000000000000000000011111111111110000000000000000000001111110000000000001111110000000000000000001111111111110000001111111111100000000000000000000
00000000000000000000011111111110000000000000000000000000000000000000000000001111111111100000000000000000000001111110000000000001111110000000000000000000111111111111100011111111111100000000000000000000
00000000000000000000111111111111000000000000000000000000000000000000000000000111111110000000000000000000000000111111000000000011111100000000000000000000011111111111111111111111111000000000000000000000
00000000000000000001111111111111111111011110000000000000000000000000000000000000010000000000000000000000000000011111000000000111111000000000000000000000011111111111111111111111111000000000000000000000
00000000000000000001111111111111111111111111000000000000000000000000000000000000000000000000000000000000000000011111110000111111100000000000000000000000001111111111111111111111110000000000000000000000
00000000000000000011111111111111111111111111000000000000000000000000000000000000000000000000000000000000000000011111111111111111000000000000000000000000000111111111111111111111100000000000000000000000
00000000000000000011111111111111111111111110000000000000000000000000000000000000000000000000000000000000000000000111111111111100000000000000000000000000000001111111111111111111000000000000000000000000
00000000000000000111111111111111111111111110000000000000000000000000000000000000000000000000000000000000000000000000110011100000000000000000000000000000000000011111111111111110000000000000000000000000
00000000000000000111111111111111111111111100000000000000000000000000000000000000000000000000000000000000000000000000000000000000000000000000000000000000000000000111111111111100000000000000000000000000
00000000000000000111111111111111111111111000000000000000000000000000000000000000000000000000000000000000000000000000000000000000000000000000000000000000000000000000011111000000000000000000000000000000
00000000000000000011011111111111111111111000000000000000000000000000000000000000000000000000000000000000000000000000000000000000000000000000000000000000000000000000000000000000000000000000000000000000
00000000000000000000000000000000110000110000000000000000000000000000000000000000000000000000000000000000000000000000000000000000000000000000000000000000000000000000000000000000000000000000000000000000
00000000000000000000000000000000000000000000000000000000000000000000000000000000000000000000000000000000000000000000000000000000000000000000000000000000000000000000000000000000000000000000000000000000
00000000000000000000000000000000000000000000000000000000000000000000000000000000000000000000000000000000000000000000000000000000000000000000000000000000000000000000000000000000000000000000000000000000
00000000000000000000000000000000000000000000000000000000000000000000000000000000000000000000000000000000000000000000000000000000000000000000000000000000000000000000000000000000000000000000000000000000
00000000000000000000000000000000000000000000000000000000000000000000000000000000000000000000000000000000000000000000000000000000000000000000000000000000000000000000000000000000000000000000000000000000
00000000000000000000000000000000000000000000000000000000000000000000000000000000000000000000000000000000000000000000000000000000000000000000000000000000000000000000000000000000000000000000000000000000
00000000000000000000000000000000000000000000000000000000000000000000000000000000000000000000000000000000000000000000000000000000000000000000000000000000000000000000000000000000000000000000000000000000
00000000000000000000000000000000000000000000000000000000000000000000000000000000000000000000000000000000000000000000000000000000000000000000000000000000000000000000000000000000000000000000000000000000
00000000000000000000000000000000000000000000000000000000000000000000000000000000000000000000000000000000000000000000000000000000000000000000000000000000000000000000000000000000000000000000000000000000
00000000000000000000000000000000000000000000000000000000000000000000000000000000000000000000000000000000000000000000000000000000000000000000000000000000000000000000000000000000000000000000000000000000
00000000000000000000000000000000000000000000000000000000000000000000000000000000000000000000000000000000000000000000000000000000000000000000000000000000000000000000000000000000000000000000000000000000
