P1
200 72
00000000000000000000000000000000000000000000000000000000000000000000000000000000000000000000000000000000000000000000000000000000000000000000000000000000000000000000000000000000000000000000000000000000
00000000000000000000000000000000000000000000000000000000000000000000000000000000000000000000000000000000000000000000000000000000000000000000000000000000000000000000000000000000000000000000000000000000
00000000000000000000000000000000000000000000000000000000000000000000000000000000000000000000000000000000000000000000000000000000000000000000000000000000000000000000000000000000000000000000000000000000
00000000000000000000000000000000000000000000000000000000000000000000000000000000000000000000000000000000000000000000000000000000000000000000000000000000000000000000000000000000000000000000000000000000
00000000000000000000000000000000000000000000000000000000000000000000000000000000000000000000000000000000000000000000000000000000000000000000000000000000000000000000000000000000000000000000000000000000
00000000000000000000000000000000000000000000000000000000000000000000000000000000000000000000000000000000000000000000000000000000000000000000000000000000000000000000000000000000000000000000000000000000
00000000000000000000000000000000000000000000000000000000000000000000000000000000000000000000000000000000000000000000000000000000000000000000000000000000000000000000000000000000000000000000000000000000
00000000000000000000000000000000000000000000000000000000000000000000000000000000000000000000000000000000000000000000000000000000000000000000000000000000000000000000000000000000000000000000000000000000
00000000000000000000000000000000000000000000000000000000000000000000000000000000000000000000000000000000000000000000000000000000000000000000000000000000000000000000000000000000000000000000000000000000
00000000000000000000000000000000000000000000000000000000000000000000000000000000000000000000000000000000000000000000000000000000000000000000000000000000000000000000000000000000000000000000000000000000
00000000000000000000000000000000000000000000000000000000000000000000001111111100000000000000000000000000000000000000000000000000000000000000000000000000000000000000000000000000000000000000000000000000
00000000000000000000000000000000000000000000000000000000000000000000111111111111111000000000000000000000000000000000000000000000000000000000000000000000000000000000000000000000000000000000000000000000
00000000000000000000000000000000000000000000000000000000000000000011111111111111111000000000000000000000000000000000000000000000000000000000000000000000000000000000000000000000000000000000000000000000
00000000000000000000000000000000000000000000000000000000000000011111111111111111111000000000000000000000000000000000000000000000000000000000111000000000000000000000000000000000000000000000000000000000
00000000000000000000000000000000000000000000000000000000000000111111111111111111111000000000000000000000000000000000000000000000000000000001111000000000000000000000000000000000000000000000000000000000
00000000000000000000000000000000000000000000000000000000000000111111111111111111111000000000000000000000000000000000000000000000000000000111111000000000000000000000000000000000000000000000000000000000
00000000000000000000000000000000000000000000000000000000000000111111111111111111111000000000000000000000000000000000000000000000000000001111111000000000000000000000000000000000000000000000000000000000
00000000000000000000000000000000000000000000000000000000000000111111111111111111111000000000000000000000000000000000000000000000000000011111111000000000000000000000000000000000000000000000000000000000
00000000000000000000000000000000000000000010000000000000000000111111111111111111111000000000000000000000000000000000000000000000000000111111111000000000000000000000000000000000000000000000000000000000
00000000000000000000000000000000111111111111110000000000000000111111111111111111111100000000000000000000000000000000000000000000000001111111111000000000000000000000000000000000000000000000000000000000
00000000000000000000000000111111111111111111111000000000000000111111111111111111111100000000000000000000000000000000000000000000000001111111111000000000000000000000000000000000000000000000001100000000
00000000000000000000000001111111111111111111111100000000000000111111111111111111111100000000000000000000000000000000000000000000000001111111111000000000000000000000000000000000000000000011111100000000
00000000000000000000000011111111111111111111111110000000000000111111000011111111111100000000000000000000000000000000000000000000000011111111111000000000000000000000000000000000000000111111111100000000
00000000000000000000000011111111111111111111111110000000000000011000000011111111111100000000000000000000000000000000000000000000000011111111111000000000000000000000000000000000000111111111111000000000
00000000000000000000000111111111000001111111111111000000000000000000000001111111111100000000000000000000000000000000000000000000000111111111111100000000000000000000000000000000011111111111111000000000
00000000000000000000000111111100000000111111111111000000000000000000000001111111111100000000000000000000000000000000000000000000000111111111111100000000000000000000000000000011111111111111111000000000
00000000000000000000001111110000000000111111111111000000000000000000000001111111111100000000000000000000000000000000000000000000000111111111111100000000000000000000000000000111111111111111110000000000
00000000000000000000011111100000000001111111111110000000000000000000000001111111111100000000000000000000000000000000000000000000000111111111111100000000000000000000000000001111111111111111110000000000
00000000000000000000111111000000000001111111111110000000000000000000000001111111111110000000000000000000000000000000000000000000000111100111111100000000000000000000000000011111111111111111110000000000
00000000000000000000111110000000000001111111111110000000000000000000000001111111111110000000000000000000000000000000000000000000001111100111111100000000000000000000000000011111111111111111100000000000
00000000000000000000111100000000000001111111111100000000000000000000000001111111111110000000000000000000000000000000000000000000001111100111111100000000000000000000000000011111111111111111100000000000
00000000000000000000000000000000000011111111111100000000000000000000000001111111111110000000000000000000000000000000000000000000011111100111111100000000000000000000000000111111111111111111100000000000
00000000000000000000000000000000000011111111111100000000000000000000000001111111111110000000000000000000000000000000000000000000011111000111111100000000000000000000000000111110001111111111000000000000
00000000000000000000000000000000000111111111111000000000000000000000000001111111111110000000000000000000000000000000000000000000011111000111111100000000000000000000000000000000001111111111000000000000
00000000000000000000000000000000000111111111111000000000000000000000000001111111111110000000000000000000000000000000000000000000011111000011111100000000000000000000000000000000001111111110000000000000
00000000000000000000000000000000001111111111110000000000000000000000000001111111111110000000000000000000000000000000000000000000111110000011111100000000000000000000000000000000011111111110000000000000
00000000000000000000000000000000001111111111100000000000000000000000000000111111111110000000000000000000000000000000000000000000111110000011111110000000000000000000000000000000011111111110000000000000
00000000000000000000000000000000111111111111000000000000000000000000000000111111111110000000000000000000000000000000000000000000111110000011111110000000000000000000000000000000111111111100000000000000
00000000000000000000000000000000111111111111000000000000000000000000000000111111111110000000000000000000000000000000000000000001111110000011111110000000000000000000000000000000111111111100000000000000
00000000000000000000000000000001111111111110000000000000000000000000000000111111111110000000000000000000000000000000000000000001111100000011111110000000000000000000000000000000111111111100000000000000
00000000000000000000000000000011111111111100000000000000000000000000000001111111111110000000000000000000000000000000000000000001111100000001111110000000000000000000000000000000111111111100000000000000
00000000000000000000000000000111111111111000000000000000000000000000000001111111111110000000000000000000000000000000000000000001111100000001111110000000000000000000000000000001111111111000000000000000
00000000000000000000000000001111111111110000000000000000000000000000000001111111111110000000000000000000000000000000000000000001111100000001111110000000000000000000000000000001111111111000000000000000
00000000000000000000000000111111111111100000000000000000000000000000000001111111111110000000000000000000000000000000000000000011111000000001111110011100000000000000000000000011111111110000000000000000
00000000000000000000000001111111111111000000000000000000000000000000000001111111111110000000000000000000000000000000000000000011111000000000111111111110000000000000000000000011111111110000000000000000
00000000000000000000000111111111111100000000000000000000000000000000000001111111111111000000000000000000000000000000000000000011111000000000111111111110000000000000000000000011111111110000000000000000
00000000000000000000011111111111110000000000000000000000000000000000000000111111111111000000000000000000000000000000000000000111111000000000111111111100000000000000000000000011111111100000000000000000
00000000000000000000111111111110000000000000000000000000000000000000000000111111111111000011111100000000000000000000000000000111110000000001111111111110000000000000000000000111111111100000000000000000
00000000000000001111111111111100000000000000000000000000000000000000000000111111111111111111111100000000000000000000000000000111110000001111111111111100000000000000000000000111111111100000000000000000
00000000000000011111111111100000000000000000000000000000000000000000000000111111111111111111111110000000000000000000000000000111110000011111111111100000000000000000000000001111111111000000000000000000
00000000000111111111111110000000000000000000000000000000000000000000000000111111111111111111111110000000000000000000000000001111110011111111111111000000000000000000000000001111111111000000000000000000
00000000111111111111100000000000000000000000000000000000000000000000001111111111111111111111111110000000000000000000000000001111111111111111111111000000000000000000000000001111111110000000000000000000
00000011111111111110000000000000000000000000000000000000000000000011111111111111111111111111111110000000000000000000000000001111111111111111111111100000000000000000000000011111111110000000000000000000
00000111111111100000000000000011100000000000000000000000000000001111111111111111111111111111111110000000000000000000000000001111111111111110011111100000000000000000000000011111111110000000000000000000
00001111111111100000000000000011110000000000000000000000000000001111111111111111111111111111111110000000000000000000000000001111111111110000011111100000000000000001000000011111111110000000000000000000
00001111111111111110000000000111110000000000000000000000000000001111111111111111111111111111111100000000000000000000000000001111111100000000011111100000000000000011111111111111111100000000000000000000
00011111111111111111111110000111110000000000000000000000000000001111111111111111111111111111000000000000000000000000000000000111111000000000011111100000000000000011111111111111111100000000000000000000
00111111111111111111111111101111100000000000000000000000000000001111111111111111111111110000000000000000000000000000000000000011000000000000011111100000000000000111111111111111111100000000000000000000
00111111111111111111111111111111000000000000000000000000000000001111111111111111111100000000000000000000000000000000000000000000000000000000011111100000000000000111111111111111111111111000000000000000
00001111111111111111111111111111000000000000000000000000000000001111111111111100000000000000000000000000000000000000000000000000000000000000001111110000000000000111111111111111111111111100000000000000
00000111111111111111111111111111000000000000000000000000000000001111111111100000000000000000000000000000000000000000000000000000000000000000001111110000000000000111111111111111111111111100000000000000
00000000001111111111111111111110000000000000000000000000000000001111110000000000000000000000000000000000000000000000000000000000000000000000001111110000000000000000011111111111111111111100000000000000
00000000000011111111111111111100000000000000000000000000000000001110000000000000000000000000000000000000000000000000000000000000000000000000001111110000000000000000001111111111111111111100000000000000
00000000000000011111111111111000000000000000000000000000000000000000000000000000000000000000000000000000000000000000000000000000000000000000000110000000000000000000000000001111111111111000000000000000
00000000000000000000111111111000000000000000000000000000000000000000000000000000000000000000000000000000000000000000000000000000000000000000000000000000000000000000000000000111111111111000000000000000
00000000000000000000011111110000000000000000000000000000000000000000000000000000000000000000000000000000000000000000000000000000000000000000000000000000000000000000000000000000001111111000000000000000
00000000000000000000000001110000000000000000000000000000000000000000000000000000000000000000000000000000000000000000000000000000000000000000000000000000000000000000000000000000000111110000000000000000
00000000000000000000000000000000000000000000000000000000000000000000000000000000000000000000000000000000000000000000000000000000000000000000000000000000000000000000000000000000000000000000000000000000
00000000000000000000000000000000000000000000000000000000000000000000000000000000000000000000000000000000000000000000000000000000000000000000000000000000000000000000000000000000000000000000000000000000
00000000000000000000000000000000000000000000000000000000000000000000000000000000000000000000000000000000000000000000000000000000000000000000000000000000000000000000000000000000000000000000000000000000
00000000000000000000000000000000000000000000000000000000000000000000000000000000000000000000000000000000000000000000000000000000000000000000000000000000000000000000000000000000000000000000000000000000
00000000000000000000000000000000000000000000000000000000000000000000000000000000000000000000000000000000000000000000000000000000000000000000000000000000000000000000000000000000000000000000000000000000
