P1
200 72
00000000000000000000000000000000000000000000000000000000000000000000000000000000000000000000000000000000000000000000000000000000000000000000000000000000000000000000000000000000000000000000000000000000
00000000000000000000000000000000000000000000000000000000000000000000000000000000000000000000000000000000000000000000000000000000000000000000000000000000000000000000000000000000000000000000000000000000
00000000000000000000000000000000000000000000000000000000000000000000000000000000000000000000000000000000000000000000000000000000000000000000000000000000000000000000000000000000000000000000000000000000
00000000000000000000000000000000000000000000000000000000000000000000000000000000000000000000000000000000000000000000000000000000000000000000000000000000000000000000000000000000000000000000000000000000
00000000000000000000000000000000000000000000000000000000000000000000000000000000000000000000000000000000000000000000000000000000000000000000000000000000000000000000000000000000000000000000000000000000
00000000000000000000000000000000000000000000000000000000000000000000000000000000000000000000000000000000000000000000000000000000000000000000000000000000000000000000000000000000000000000000000000000000
00000000000000000000000000000000000000000000000000000000000000000000000000000000000000000000000000000000000000000000000000000000000000000000000000000000000000000000000000000000000000000000000000000000
00000000000000000000000000000000000000000000000000000000000000000000000000000000000000000000000000000000000000000000000000000000000000000000000000000000000000000000000000000000000000000000000000000000
00000000000000000000000000000000000000000000000000000000000000000000000000000000000000000000000000000000000111000000000000000000000000000000000000000000000000000000000000000000000000000000000000000000
00000000000000000000000000000000000000000000000000000000000000000000000000000000000000000000000000000000000111110000000000000000000000000000000000000000000000000000000000000000000000000000000000000000
00000000000000000000000000000000000000000000000000000000000000000000000000000000000000000000000000000000000111111100000000000000000000000000000000000000000000000000000000000000000000000000000000000000
00000000000000000000000000000000000000000000000000000000000000000000000000000000000000000000000000000000000111111111000000000000000000000000000000000000000000000000000000000000000000000000000000000000
00000000000000000000000000000000000000000000000000000000000000000000000000000000000000000000000000000000000111111111111000000000000000000000000000000000000000000000000000000000000000000000000000000000
00000000000000000000000000000000000000000000000000000000000000000000000000000000000000000000000000000000000111111111111110000000000000000000000000000000000000000000000000000000000000000000000000000000
00000000000000000000000000000000000000000000000000000000000000000000000000000000000000000000000000000000001111111111111111100000000000000000000000000000000000000000000000000000000001111111000000000000
00000000001110001111000000000000000000000000000000000000000000000000000000000000000000000000000000000000001111111111111111110000000000000000000000000000000000000000000000000000011111111111110000000000
00000110111111111111111110000000000000000000000000000000000000000000000000000000000000000000000000000000001111111111111111111111000000000000000000000000000000000000000000000011111111111111111000000000
00011111111111111111111111100000000000000000000000000000000000000000000000000000000000000000000000000000001111111111111111111111111000000000000000000000000000000000000000001111111111111111111100000000
00111111111111111111111111111000000000000000000000000000000000000000000000000000000000000000000000000000001111111111111111111111111110000000000000000000000000000000000000011111111111111111111110000000
00111111111111111111111111111110000000000000000000000000000000000000000000000000000000000000000000000000000111111111111111111111111111100000000000000000000000000000000001111111111111111111111110000000
00111111111111111111111111111111000000000000000000000000000000000000000000000000000000000000000000000000000001111111111111111111111111111110000000000000000000000000000011111111110111001111111111000000
00111111111111111111111111111111100000000000000000000000000000000000000000000000000000000000000000000000000000000111111111111111111111111111110000000000000000000000000111111111000000000111111111000000
00111111111111111111111111111111110000000000000000000000000000000000000000000000000000000000000000000000000000000011111111111111111111111111111000000000000000000000001111111110000000000011111111000000
00111111111111111111111111111111110000000000000000000000000000001000000000000000000000000000000000000000000000000000011111111111111111111111111111100000000000000000011111111100000000000011111111000000
00011111111110000111111111111111111000000000000000000000001111111111111100000000000000000000000000000000000000000000000001111111111111111111111111100000000000000000011111111000000000000011111111000000
00011111100000000000011111111111111000000000000000000000001111111111111111110000000000000000000000000000000000000000000000001111111111111111111111100000000000000000111111110000000000000011111111000000
00011111000000000000001111111111111100000000000000000000001111111111111111111000000000000000000000000000000000000000000000000111111111111111111111100000000000000001111111100000000000000001111111000000
00001000000000000000000111111111111100000000000000000000011111111100011111111110000000000000000000000000000000000000000000000000011111111111111111000000000000000001111111000000000000000001111111000000
00000000000000000000000111111111111110000000000000000000011111000000000001111111000000000000000000000000000000000000000000000000111111111111111111000000000000000011111110000000000000000001111111000000
00000000000000000000000011111111111110000000000000000000011111000000000000111111100000000000000000000000000000000000000000000001111111111111111111000000000000000011111110000000000000000011111111000000
00000000000000000000000011111111111110000000000000000000001110000000000000011111110000000000000000000000000000000000000000000011111111111111111110000000000000000111111100000000000000000011111111000000
00000000000000000000000001111111111110000000000000000000001110000000000000011111110000000000000000000000000000000000000000000011111111111111111100000000000000001111111100000000000000000011111111000000
00000000000000000000000001111111111110000000000000000000000000000000000000011111110000000000000000000000000000000000000000000111111111111111111000000000000000001111111000000000000000000111111111000000
00000000000000000000000001111111111110000000000000000000000000000000000000011111110000000000000000000000000000000000000000001111111111111111100000000000000000011111111000000000000000000111111111000000
00000000000000000000000011111111111110000000000000000000000000000000000000111111100000000000000000000000000000000000000000011111111111111111100000000000000000011111111000000000000000000111111110000000
00000000000000000000000011111111111110000000000000000000000000000000000000111111000000000000000000000000000000000000000000111111111111111111000000000000000000011111111000000000000000000111111110000000
00000000000000000000000111111111111110000000000000000000000000000000000011111110000000000000000000000000000000000000000001111111111111111110000000000000000000111111110000000000000000001111111110000000
00000000000000000000001111111111111100000000000000000000000000000000001111111100000000000000000000000000000000000000000011111111111111111100000000000000000000111111110000000000000000000111111100000000
00000000000000000000011111111111111100000000000000000000000000000111111111111000000000000000000000000000000000000000000111111111111111111000000000000000000001111111110000000000000000000111111100000000
00000000000000000000111111111111111000000000000000000000000000011111111111111110000000000000000000000000000000000000000111111111111111100000000000000000000001111111100000000000000000001111111100000000
00000000000000000001111111111111111000000000000000000000000000011111111111111111100000000000000000000000000000000000001111111111111111000000000000000000000001111111100000000000000000001111111000000000
00000000000000000011111111111111110000000000000000000000000000011111111111111111111000000000000000000000000000000000011111111111111110000000000000000000000011111111100000000000000000001111111000000000
00000000000000000111111111111111100000000000000000000000000000000000000000111111111000000000000000000000000000000000111111111111111100000000000000000000000011111111100000000000000000011111111000000000
00000000000000001111111111111111000000000000000000000000000000000000000000011111111000000000000000000000000000000001111111111111111100000000000000000000000011111111000000000000000000011111111000000000
00000000000000011111111111111110000000000000000000000000000000000000000000001111111100000000000000000000000000000001111111111111111000000000000000000000000011111111000000000000000000111111111000000000
00000000000000111111111111111100000000000000000000000000000000000000000000000111111100000000000000000000000000000011111111111111110000000000000000000000000011111110000000000000000000111111111000000000
00000000000001111111111111111000000000000000000000000000000000000000000000000111111100000000000000000000000000000011111111111111100000000000000000000000000011111110000000000000000000111111110000000000
00000000000011111111111111110000000000000000000000000000000000000000000000000111111000000000000000000000000000001111111111111111000000000000000000000000000011111110000000000000000001111111110000000000
00000000000111111111111111100000000000000000000000000000000000000000000000001111111000000000000000000000000000011111111111111110000000000000000000000000000011111110000000000000000011111111100000000000
00000000001111111111111110000000000000000000000000000000000000000000000000001111110000000000000000000000000000011111111111111100000000000000000000000000000111111111000000000000000011111111100000000000
00000000011111111111111100000000000000000000000000000000000000000000000000001111100000000000000000000000000000011111111111111100000000000000000000000000000111111111000000000000000111111111000000000000
00000000111111111111111111110000100000000000000000000000000000000000000000011111000000000000000000000000000000111111111111111000000000000000000000000000000111111111000000000000001111111111000000000000
00000000011111111111111111111111111111111110000000000000000000000000000000111111000000000000000000000000000001111111111111110000000000000000000000000000000011111111100000000000011111111110000000000000
00000000001111111111111111111111111111111111000000000000011110000000000001111110000000000000000000000000000011111111111111100000000000000000000000000000000011111111100000000000011111111100000000000000
00000000001111111111111111111111111111111111000000000000011110000000000111111100000000000000000000000000000011111111111111000000000000000000000000000000000001111111110000000000111111111000000000000000
00000000001111111111111111111111111111111111000000000000011110000000001111110000000000000000000000000000000111111111111110000000000000000000000000000000000001111111111111111111111111110000000000000000
00000000001111111111111111111111111111111111000000000000011110000001111111000000000000000000000000000000001111111111111110000000000000000000000000000000000000111111111111111111111111100000000000000000
00000000001111111111111111111111111111111111100000000000011111111111111110000000000000000000000000000000011111111111111110000000000000000000000000000000000000011111111111111111111111100000000000000000
00000000001111111111111111111111111111111111100000000000011111111111111000000000000000000000000000000000011111111111111100000000000000000000000000000000000000000111111111111111111111000000000000000000
00000000000011111111111111111111111111111111100000000000001111111111100000000000000000000000000000000000011111111111111000000000000000000000000000000000000000000001111111111111111110000000000000000000
00000000000000000000011110111111111111111111110000000000001111111100000000000000000000000000000000000000111111111111110000000000000000000000000000000000000000000000011111111111111100000000000000000000
00000000000000000000000000000000001111011111110000000000001111111000000000000000000000000000000000000000000111111111100000000000000000000000000000000000000000000000000011111111000000000000000000000000
00000000000000000000000000000000000000000000000000000000001110000000000000000000000000000000000000000000000000000000000000000000000000000000000000000000000000000000000000000000000000000000000000000000
00000000000000000000000000000000000000000000000000000000000000000000000000000000000000000000000000000000000000000000000000000000000000000000000000000000000000000000000000000000000000000000000000000000
00000000000000000000000000000000000000000000000000000000000000000000000000000000000000000000000000000000000000000000000000000000000000000000000000000000000000000000000000000000000000000000000000000000
00000000000000000000000000000000000000000000000000000000000000000000000000000000000000000000000000000000000000000000000000000000000000000000000000000000000000000000000000000000000000000000000000000000
00000000000000000000000000000000000000000000000000000000000000000000000000000000000000000000000000000000000000000000000000000000000000000000000000000000000000000000000000000000000000000000000000000000
00000000000000000000000000000000000000000000000000000000000000000000000000000000000000000000000000000000000000000000000000000000000000000000000000000000000000000000000000000000000000000000000000000000
00000000000000000000000000000000000000000000000000000000000000000000000000000000000000000000000000000000000000000000000000000000000000000000000000000000000000000000000000000000000000000000000000000000
00000000000000000000000000000000000000000000000000000000000000000000000000000000000000000000000000000000000000000000000000000000000000000000000000000000000000000000000000000000000000000000000000000000
00000000000000000000000000000000000000000000000000000000000000000000000000000000000000000000000000000000000000000000000000000000000000000000000000000000000000000000000000000000000000000000000000000000
00000000000000000000000000000000000000000000000000000000000000000000000000000000000000000000000000000000000000000000000000000000000000000000000000000000000000000000000000000000000000000000000000000000
