P1
200 72
00000000000000000000000000000000000000000000000000000000000000000000000000000000000000000000000000000000000000000000000000000000000000000000000000000000000000000000000000000000000000000000000000000000
00000000000000000000000000000000000000000000000000000000000000000000000000000000000000000000000000000000000000000000000000000000000000000000000000000000000000000000000000000000000000000000000000000000
00000000000000000000000000000000000000000000000000000000000000000000000000000000000000000000000000000000000000000000000000000000000000000000000000000000000000000000000000000000000000000000000000000000
00000000000000000000000000000000000000000000000000000000000000000000000000000000000000000000000000000000000000000000000000000000000000000000000000000000000000000000000000000000000000000000000000000000
00000000000000000000000000000000000000000000000000000000000000000000000000000000000000000000000000000000000000000000000000000000000000000000000000000000000000000000000000000000000000000000000000000000
00000000000000000000000000000000000000000000000000000000000000000000000000000000000000000000000000000000000000000000000000000000000000000000000000000000000000000000000000000000000000000000000000000000
00000000000000000000000000000000000000000000000000000000000000000000000000000000000000000000000000000000000000000000000000000000000000000000000000000000000000000000000000000000000000000000000000000000
00000000000000000000000000000000000000000000000000000000000000000000000000000000000000000000000000000000000000000000000000000000000000000000000000000000000000000000000000000000000000000000000000000000
00000000000000000000000000000000000000000000000000000000000000000000000000000000000000000000000000000000000000000000000000000000000000000000000000000000000000000000000000000000000000000000000000000000
00000000000000000000000000000000000000000000000000000000000000000000000000000000000000000000000000000000000000000000000000000000000000000000000000000000000000000000000000000000000000000000000000000000
00000000000000000000000000000000000000000000000000000000000000000000000000000000000000000000000000000000000000000000000000000000000000000000000000000000000000000000000000000000000000000000000000000000
00000000000000000000000000000000000000000000000000000000000000000000000000000000000000000000000000000000000000000000000000000000000000000000000000000000000000000000000000000000000000000000000000000001
00000000000000000000000000000000000000000000000000000000000000000000000000000000000000000000000000000000000000000000000000000000000000000000000000000000000000000000000000000000000000000000000000000111
00000000000000000000000000000000000000000000000000000000000000000000000000000000000000000000000000000000000000000000000000000000000000000000000000000000000000000000000000000000000000000000000000111111
00000000000000000000000000000000000000000000000000000000000000000000000000000000000000000110000000000000000000000000000000000000000000000000000000000000000000000000000000000000000000000000000011111111
00000000000000000000000000000000000000000000000000000000000000000000000000000000000001111111000000000000000000000000000000000000000000000000000000000000000000000000000000000000000000000000111111111111
00000000000000000000000000000000000000000000000000000000000000000000000000000000000111111110000000000000000000000000000000000011111111111110000000000000000000000000000000000000000000000111111111111111
00000000000000000000000000100111100111110000000000000000000000000000000000000000001111111110000000000000000000000000000000111111111111111111110000000000000000000000000000000000000000111111111111111111
00000000000000000000000011111111111111111110000000000000000000000000000000000000011111111110000000000000000000000000000011111111111111111111111000000000000000000000000000000000011111111111111111111111
00000000000000000000000011111111111111111111000000000000000000000000000000000000111111111110000000000000000000000000000111111111111111111111111100000000000000000000000000000001111111111111111111111111
00000000000000000000000111111111111111111111110000000000000000000000000000000001111111111100000000000000000000000000001111111111111111111111111110000000000000000000000000000001111111111111111111111110
00000000000000000000000111111110001111111111111100000000000000000000000000000001111111111100000000000000000000000000111111111111111111111111111111000000000000000000000000000001111111111111111111111000
00000000000000000000001111110000000011111111111100000000000000000000000000000011111111111100000000000000000000000001111111111111111111111111111111000000000000000000000000000011111111111111111111000000
00000000000000000000011111100000000000111111111100000000000000000000000000000111111111111000000000000000000000000011111111111111111111111111111111000000000000000000000000000111111111111111111000000000
00000000000000000000111111000000000000111111111110000000000000000000000000001111111111111000000000000000000000000011111111111111110011111111111111000000000000000000000000000111111111110100000000000000
00000000000000000000111110000000000001111111111110000000000000000000000000001111111111111000000000000000000000000011111111111110000001111111111111000000000000000000000000000111111000000000000000000000
00000000000000000000111100000000000001111111111111000000000000000000000000011111101111111000000000000000000000000111111111111100000000111111111111100000000000000000000000000111100000000000000000000000
00000000000000000000111000000000000001111111111111000000000000000000000000111111001111111000000000000000000000000111111111111100000000011111111111100000000000000000000000001111100000000000000000000000
00000000000000000000000000000000000001111111111110000000000000000000000001111110001111111000000000000000000000000111111111111100000000011111111111100000000000000000000000001111000000000000000000000000
00000000000000000000000000000000000001111111111110000000000000000000000001111110011111111000000000000000000000000111111111111000000000011111111111100000000000000000000000001111000000000000000000000000
00000000000000000000000000000000000011111111111110000000000000000000000001111100011111111000000000000000000000000111111111111100000000111111111111000000000000000000000000011111000000001111100000000000
00000000000000000000000000000000000011111111111100000000000000000000000011111000011111111000000000000000000000000111111111111100000000111111111111000000000000000000000000011110011111111111111000000000
00000000000000000000000000000000000111111111111100000000000000000000000111110000011111110000000000000000000000000011111111111110000001111111111111000000000000000000000000111111111111111111111100000000
00000000000000000000000000000000000111111111111000000000000000000000000111110000011111110000000000000000000000000011111111111111101111111111111110000000000000000000000000111111111111111111111110000000
00000000000000000000000000000000001111111111110000000000000000000000001111100000011111110000000000000000000000000001111111111111111111111111111110000000000000000000000001111111111111111111111110000000
00000000000000000000000000000000011111111111100000000000000000000000011111000000011111110000000000000000000000000000111111111111111111111111111100000000000000000000000001111111000011111111111110000000
00000000000000000000000000000000111111111111000000000000000000000000011110000000011111110000000000000000000000000000011111111111111111111111110000000000000000000000000001111100000001111111111110000000
00000000000000000000000000000001111111111110000000000000000000000000111110000000011111110000000000000000000000000000011111111111111111111111100000000000000000000000000001111000000000111111111110000000
00000000000000000000000000000111111111111100000000000000000000000001111100000000011111100000000000000000000000000001111111111111111111111111000000000000000000000000000001110000000000111111111110000000
00000000000000000000000000001111111111110000000000000000000000000001111100000000011111100000000000000000000000000111111111111111111111111111000000000000000000000000000000100000000000111111111110000000
00000000000000000000000000111111111111100000000000000000000000000011111000000000011111100000000000000000000000001111111111111111111111111111110000000000000000000000000000000000000000111111111110000000
00000000000000000000000011111111111110000000000000000000000000000111110000000000111111000000000000000000000000111111111111111111111111111111111000000000000000000000000000000000000001111111111110000000
00000000000000000000001111111111111000000000000000000000000000000111100000000000111111000000000000000000000000111111111111110000001111111111111100000000000000000000000000000000000001111111111100000000
00000000000000000000011111111111000000000000000000000000000000001111100000000001111111000000000000000000000001111111111111100000000011111111111110000000000000000000000000000000000001111111111100000000
00000000000000000000111111111100000000000000000000000000000000011111000000000001111111000000000000000000000011111111111111100000000001111111111110000000000000000000000000000000000001111111111100000000
00000000000000000011111111100000000000000000000000000000000000111110000000000001111111100111100000000000000011111111111110000000000000111111111111000000000000000000000000000000000011111111111000000000
00000000000000011111111110000000000001111000000000000000000000111110000000000001111111111111110000000000000111111111111110000000000000111111111111000000000000000000000000000000000011111111111000000000
00000000000001111111111100000000000011111000000000000000000000111110000000001111111111111111110000000000000111111111111100000000000000111111111111000000000000000001110000000000000111111111110000000000
00000000000011111111110000000000000111111000000000000000000001111110001111111111111111111111110000000000000111111111111100000000000000111111111111000000000000000001111000000000000111111111110000000000
00000000001111111110000000000000000111110000000000000000000011111111111111111111111111111111000000000000000111111111111110000000000000111111111111100000000000000011111000000000001111111111100000000000
00000001111111111110011000110001111111110000000000000000000011111111111111111111111111110000000000000000000111111111111110000000000000111111111111100000000000000011111000000000001111111111100000000000
00000111111111111111111111111111111111100000000000000000000011111111111111111111111111000000000000000000000111111111111111000000000000111111111111100000000000000011111000000000011111111111000000000000
00000111111111111111111111111111111111000000000000000000000011111111111100000001111110000000000000000000000011111111111111100000000001111111111111100000000000000011111000000000111111111111000000000000
00001111111111111111111111111111111111000000000000000000000011011100000000000001111110000000000000000000000011111111111111110000000111111111111111100000000000000111111100000001111111111110000000000000
00011111111111111111111111111111111111000000000000000000000000000000000000000001111110000000000000000000000000111111111111111111001111111111111111110000000000000111111111000011111111111100000000000000
00011111111111111111111111111111111110000000000000000000000000000000000000000001111100000000000000000000000000011111111111111111111111111111111111100000000000000111111111111111111111111000000000000000
00111111111111111111111111111111111110000000000000000000000000000000000000000001111100000000000000000000000000001111111111111111111111111111111111100000000000000011111111111111111111110000000000000000
00111111111111111111111111111111111100000000000000000000000000000000000000000001111100000000000000000000000000000111111111111111111111111111111111000000000000000000111111111111111111000000000000000000
01111111111111111111111111111011100000000000000000000000000000000000000000000011111110001110000000000000000000000011111111111111111111111111111111000000000000000000001111111111111100000000000000000000
01111111111101110000000000000000000000000000000000000000000000000000000000000011111111111110000000000000000000000000111111111111111111111111111110000000000000000000000000000011100000000000000000000000
00000000000000000000000000000000000000000000000000000000000000000000000011111111111111111100000000000000000000000000000111111111111111111111111110000000000000000000000000000000000000000000000000000000
00000000000000000000000000000000000000000000000000000000000000000000000111111111111111111100000000000000000000000000000001111111111111111111111100000000000000000000000000000000000000000000000000000000
00000000000000000000000000000000000000000000000000000000000000000000000111111111111111111100000000000000000000000000000000000011111111111111110000000000000000000000000000000000000000000000000000000000
00000000000000000000000000000000000000000000000000000000000000000000000111111111111110000000000000000000000000000000000000000000001111111111000000000000000000000000000000000000000000000000000000000000
00000000000000000000000000000000000000000000000000000000000000000000000110000000000000000000000000000000000000000000000000000000000000000000000000000000000000000000000000000000000000000000000000000000
00000000000000000000000000000000000000000000000000000000000000000000000000000000000000000000000000000000000000000000000000000000000000000000000000000000000000000000000000000000000000000000000000000000
00000000000000000000000000000000000000000000000000000000000000000000000000000000000000000000000000000000000000000000000000000000000000000000000000000000000000000000000000000000000000000000000000000000
00000000000000000000000000000000000000000000000000000000000000000000000000000000000000000000000000000000000000000000000000000000000000000000000000000000000000000000000000000000000000000000000000000000
00000000000000000000000000000000000000000000000000000000000000000000000000000000000000000000000000000000000000000000000000000000000000000000000000000000000000000000000000000000000000000000000000000000
00000000000000000000000000000000000000000000000000000000000000000000000000000000000000000000000000000000000000000000000000000000000000000000000000000000000000000000000000000000000000000000000000000000
00000000000000000000000000000000000000000000000000000000000000000000000000000000000000000000000000000000000000000000000000000000000000000000000000000000000000000000000000000000000000000000000000000000
00000000000000000000000000000000000000000000000000000000000000000000000000000000000000000000000000000000000000000000000000000000000000000000000000000000000000000000000000000000000000000000000000000000
