P1
200 72
00000000000000000000000000000000000000000000000000000000000000000000000000000000000000000000000000000000000000000000000000000000000000000000000000000000000000000000000000000000000000000000000000000000
00000000000000000000000000000000000000000000000000000000000000000000000000000000000000000000000000000000000000000000000000000000000000000000000000000000000000000000000000000000000000000000000000000000
00000000000000000000000000000000000000000000000000000000000000000000000000000000000000000000000000000000000000000000000000000000000000000000000000000000000000000000000000000000000000000000000000000000
00000000000000000000000000000000000000000000000000000000000000000000000000000000000000000000000000000000000000000000000000000000000000000000000000000000000000000000000000000000000000000000000000000000
00000000000000000000000000000000000000000000000000000000000000000000000000000000000000000000000000000000000000000000000000000000000000000000000000000000000000000000000000000000000000000000000000000000
00000000000000000000000000000000000000000000000000000000000000000000000000000000000000000000000000000000000000000000000000000000000000000000000000000000000000000000000000000000000000000000000000000000
00000000000000000000000000000000000000000000000000000000000000000000000000000000000000000000000000000000000000000000000000000000000000000000000000000000000000000000000000000000000000000000000000000000
00000000000000000000000000000000000000000000000000000000000000000000000000000000000000000000000000000000000000000000000000000000000000000000000000000000000000000000000000000000000000000000000000000000
00000000000000000000000000000000000000000000000000000000000000000000000000000000000000000000000000000000000000000000000000000000000000000000000000000000000000000000000000000000000000000000000000000000
00000000000000000000000000000000000000000000000000000000000000000000000000000000000000000000000000000000000000000000000000000000000000000000000000000000000000000000000000000000000000000000000000000000
00000000000000000000000000000000000000000000000000000000000000000000000000000000000000000000000000000000000000000000000000000000000000000000000000000000000000000000000000000000000000000000000000000000
00000000000000000000000000000000000000000000000000000000000000000000000000000000000000000000000000000000000000000000000000000000000000000000000000000000000000000000000000000000000000000000000000000000
00000000000000000000000000000000000000000000000000000000000000000000000000000000000000000000000000000000000000000000000000000000000000000000000000000000000000000000000000000000000000000000000000000000
00000000000000000000000000000000000000000000000000000000000000000000000000000000000000000000000000000000000000000000000000000000000000000000000000000000000000000000000000000000000000000000000000000000
00000000000000000000000000000000000000000000000000000000000000000000000000000000000000000000000000000000000000011111000000000000000000000000000000000000000000000000000000000000000000000000000000000000
00000000000000000000000000000000000000000000000000000000000000000000000000000000000000000000000000000000000001111111111111110000000000000000000000000000000000000000000000000000000000000000000000000000
00000000000000000000000000000000000000001111111000000000000000000000000000000000000000000000000000000000000011111111111111111000000000000000000000000000000000000000000000000000000000000000000000000000
00000000000000000000000000000000000001111111111100000000000000000000000000000000000000000000000000000000000111111111111111111100000000000000000000000000011111111000000000000000000000000000000000000000
00000000000000000000000000000000000011111111111110000000000000000000000000000000000010000000000000000000000111111110000111111111000000000000000000000011111111111111100000000000000000000000000000000000
00000000000000000000000000000000001111111111111111000000000000000000000000000000000111111111110000000000001111111000000001111111000000000000000000001111111111111111111000000000000000000000000000000000
00000000000000000000000000000000001111111111111111100000000000000000000000000000001111111111111000000000001111110000000000111111100000000000000000011111111111111111111110000000000000000000000000000000
00000000000000000000000000000000011111111111111111110000000000000000000000000000001111111111111000000000001111110000000000011111100000000000000000111111111111111111111111000000000000000000000000000000
00000000000000000000000000000000011111111111111111111000000000000000000000000000011111111111111000000000011111110000000000011111100000000000000000111111111111111111111111100000000000000000000000000000
00000000000000000000000000000000111111111111111111111000000000000000000000000000111111111111111000000000011111100000000000011111100000000000000001111111110000000001111111110000000000000000000000000000
00000000000000000000000000000000111111111000011111111000000000000000000000000001111111111111111000000000011111100000000000011111100000000000000011111111100000000000011111110000000000000000000000000000
00000000000000000000000000000000111111110000001111111100000000000000000000000001111111111111111000000000011111100000000000011111100000000000000111111111000000000000001111111000000000000000000000000000
00000000000000000000000000000001111111110000001111111100000000000000000000000011111111111111111000000000011111110000000000011111100000000000000111111110000000000000001111111000000000000000000000000000
00000000000000000000000000000001111111110000001111111100000000000000000000000111111111111111111000000000011111110000000000111111000000000000000111111100000000000000001111111000000000000000000000000000
00000000000000000000000000000001111111100000000111111100000000000000000000001111111110111111111000000000011111110000000001111111000000000000000111111100000000000000001111111000000000000000000000000000
00000000000000000000000000000001111111100000001111111100000000000000000000001111111100111111111000000000001111111100000111111110000000000000000111111000000000000000001111111000000000000000000000000000
00000000000000000000000000000000111110000000001111111100000000000000000000011111111100011111111000000000001111111111011111111100000000000000001111111000000000000000001111111000000000000000000000000000
00000000000000000000000000000000000000000000011111111100000000000000000000011111111000011111111000000000000111111111111111111000000000000000001111110000000000000000001111111000000000000000000000000000
00000000000000000000000000000000000000000000011111111100000000000000000000111111110000011111111000000000000001111111111111111100000000000000001111110000000000000000011111111000000000000000000000000000
00000000000000000000000000000000000000000000011111111100000000000000000001111111100000011111111000000000000001111111111111111110000000000000001111110000000000000000111111111000000000000000000000000000
00000000000000000000000000000000000000000000111111111100000000000000000001111111100000011111111000000000000011111111011111111111000000000000011111110000000000000000111111110000000000000000000000000000
00000000000000000000000000000000000000000001111111111100000000000000000011111111000000011111111000000000000111111100000001111111100000000000011111110000000000000001111111110000000000000000000000000000
00000000000000000000000000000000000000000011111111111000000000000000000011111110000000011111111000000000001111111000000000111111100000000000001111111000000000000011111111110000000000000000000000000000
00000000000000000000000000000000000000000011111111100000000000000000000011111110000000011111111000000000001111110000000000011111100000000000001111111100000000011111111111100000000000000000000000000000
00000000000000000000000000000000000000000111111111100000000000000000000111111100000000011111111111110000011111100000000000011111100000000000001111111111000011111111111111100000000000000000000000000000
00000000000000000000000000000000000000001111111111000000000000000000001111111100000000111111111111110000111111000000000000011111100000000000000111111111111111111111111111000000000000000000000000000000
00000000000000000000000000000000000000011111111111000000000000000000001111111111111111111111111111110000111111000000000000011111100000000000000111111111111111111111111110000000000000000000000000000000
00000000000000000000000000000000000000111111111110000000000000000000001111111111111111111111111111110000111111000000000000011111100000000000000111111111111111111111111100000000000000000000000000000000
00000000000000000000000000000000000000111111111100000000000000000000001111111111111111111111111111110000111110000000000000011111100000000000000000111111111111111111111000000000000000000000000000000000
00000000000000000000000000000000000001111111111000000000000000000000001111111111111111111111111111100000111110000000000000111111100000000000000000011011111100001111111000000000000000000000000000000000
00000000000000000000000000000000000001111111111000000000000000000000001111111111111111111111111110000000111110000000000000111111000000000000000000000000000000011111110000000000000000000000000000000000
00000000000000000000000000000000000011111111110000000000000000000000000111111111111111011111111110000001111110000000000001111111000000000000000000000000000000111111100000000000000000000000000000000000
00000000000000000000000000000000000011111111000000000000000000000000000111111111100000001111111110000001111110000000000011111110000000000000000000000000000001111111100000000000000000000000000000000000
00000000000000000000000000000000000111111110000000000000000000000000000111111100000000001111111110000001111111000000000111111100000000000000000000000000000011111111000000000000000000000000000000000000
00000000000000000000000000000000001111111110000000000000000000000000000111100000000000001111111110000001111111100000011111111000000000000000000000000000000111111100000000000000000000000000000000000000
00000000000000000000000000000000001111111110000000000000000000000000000000000000000000001111111100000001111111111111111111110000000000000000000000000000001111111000000000000000000000000000000000000000
00000000000000000000000000000000011111111110001100000111100110000000000000000000000000001111111000000001111111111111111111000000000000000000000000000000111111111000000000000000000000000000000000000000
00000000000000000000000000000000011111111111111111111111111111000000000000000000000000001110000000000000111111111111111100000000000000001110000000000011111111100000000000000000000000000000000000000000
00000000000000000000000000000000011111111111111111111111111111000000000000000000000000000000000000000000111111111111110000000000000000001111100000011111111111000000000000000000000000000000000000000000
00000000000000000000000000000000111111111111111111111111111111000000000000000000000000000000000000000000011111111110000000000000000000011111111111111111111110000000000000000000000000000000000000000000
00000000000000000000000000000000111111111111111111111111111111100000000000000000000000000000000000000000001111100000000000000000000000011111111111111111111100000000000000000000000000000000000000000000
00000000000000000000000000000000111111111111111111111111111111100000000000000000000000000000000000000000000000000000000000000000000000011111111111111111110000000000000000000000000000000000000000000000
00000000000000000000000000000000111111111111111111111111111111100000000000000000000000000000000000000000000000000000000000000000000000011111111111111110000000000000000000000000000000000000000000000000
00000000000000000000000000000000111111111111111111111111111111100000000000000000000000000000000000000000000000000000000000000000000000011111111111110000000000000000000000000000000000000000000000000000
00000000000000000000000000000000001111100011110000000000000000000000000000000000000000000000000000000000000000000000000000000000000000000000010000000000000000000000000000000000000000000000000000000000
00000000000000000000000000000000000000000000000000000000000000000000000000000000000000000000000000000000000000000000000000000000000000000000000000000000000000000000000000000000000000000000000000000000
00000000000000000000000000000000000000000000000000000000000000000000000000000000000000000000000000000000000000000000000000000000000000000000000000000000000000000000000000000000000000000000000000000000
00000000000000000000000000000000000000000000000000000000000000000000000000000000000000000000000000000000000000000000000000000000000000000000000000000000000000000000000000000000000000000000000000000000
00000000000000000000000000000000000000000000000000000000000000000000000000000000000000000000000000000000000000000000000000000000000000000000000000000000000000000000000000000000000000000000000000000000
00000000000000000000000000000000000000000000000000000000000000000000000000000000000000000000000000000000000000000000000000000000000000000000000000000000000000000000000000000000000000000000000000000000
00000000000000000000000000000000000000000000000000000000000000000000000000000000000000000000000000000000000000000000000000000000000000000000000000000000000000000000000000000000000000000000000000000000
00000000000000000000000000000000000000000000000000000000000000000000000000000000000000000000000000000000000000000000000000000000000000000000000000000000000000000000000000000000000000000000000000000000
00000000000000000000000000000000000000000000000000000000000000000000000000000000000000000000000000000000000000000000000000000000000000000000000000000000000000000000000000000000000000000000000000000000
00000000000000000000000000000000000000000000000000000000000000000000000000000000000000000000000000000000000000000000000000000000000000000000000000000000000000000000000000000000000000000000000000000000
00000000000000000000000000000000000000000000000000000000000000000000000000000000000000000000000000000000000000000000000000000000000000000000000000000000000000000000000000000000000000000000000000000000
00000000000000000000000000000000000000000000000000000000000000000000000000000000000000000000000000000000000000000000000000000000000000000000000000000000000000000000000000000000000000000000000000000000
00000000000000000000000000000000000000000000000000000000000000000000000000000000000000000000000000000000000000000000000000000000000000000000000000000000000000000000000000000000000000000000000000000000
00000000000000000000000000000000000000000000000000000000000000000000000000000000000000000000000000000000000000000000000000000000000000000000000000000000000000000000000000000000000000000000000000000000
