P1
200 72
00000000000000000000000000000000000000000000000000000000000000000000000000000000000000000000000000000000000000000000000000000000000000000000000000000000000000000000000000000000000000000000000000000000
00000000000000000000000000000000000000000000000000000000000000000000000000000000000000000000000000000000000000000000000000000000000000000000000000000000000000000000000000000000000000000000000000000000
00000000000000000000000000000000000000000000000000000000000000000000000000000000000000000000000000000000000000000000000000000000000000000000000000000000000000000000000000000000000000000000000000000000
00000000000000000000000000000000000000000000000000000000000000000000000000000000000000000000000000000000000000000000000000000000000000000000000000000000000000000000000000000000000000000000000000000000
00000000000000000000000000000000000000000000000000000000000000000000000000000000000000000000000000000000000000000000000000000000000000000000000000000000000000000000000000000000000000000000000000000000
00000000000000000000000000000000000000000000000000000000000000000000000000000000000000000000000000000000000000000000000000000000000000000000000000000000000000000000000000000000000000000000000000000000
00000000000000000000000000000000000000000000000000000000000000000000000000000000000000000000000000000000000000000000000000000000000000000000000000000000000000000000000000000000000000000000000000000000
00000000000000000000000000000000000000000000000000000000000000000000000000000000000000000000000000000000000000000000000000000000000000000000000000000000000000000000000000000000000000000000000000000000
00000000000000000000000000000000000000000000000000000000000000000000000000000000000000000000000000000000000000000000000000000000000000000000000000000000000000000000000000000000000000000000000000000000
00000000000000000000000000000000000000000000000000000000000000000000000000000000000000000000000000000000000000000000000000000000000000000000000000000000000000000000000000000000000000000000000000000000
00000000000000000000000000000000000000000000000000000000000000000000000000000000000000000000000000000000000000000000000000000000000000000000000000000000000000000000000000000000000000000000000000000000
00000000000000000000000000000000000000000000000000000000000000000000000000000000000000000000000000000000000000000000000000000000000000000000000000000000000000000000000000000000000000000000000000000000
00000000000000000000000000000000000000000000000000000000000000000000000000000000000000000000000000000000000000000000000000000000000000000000000000000000000000000000000000000000000111110000000000000000
00000000000000000000000000000000000000000000000000000000000000000000000000000000000000000000000000000000000000000000000000000000000000000000000000000000000000000000000000001111111111110000000000000000
00000000000000000000000000000000000000000000000000000000000000000000000000000000000000000000000000000000000000000000000000000000000000000000000000000000000000000000011111111111111111110000000000000000
00000000000000000000000000000000000000000000000000000000000000000000000000000000000000000000000000000000000000000000000000000000000000000000000000000000000001111111111111111111111111110000000000000000
00000000000000000000000000000000000000000000000000000000000000000000000000000000000000000000000000000000000000000000000000000000000000000000000000000000000011111111111111111111111111100000000000000000
00000000000000000000000000000000000000000000000000000000000000000000000000000000000000000000000000000000000000000000000000000000000000000000000000000000000111111111111111111111111111100000000000000000
00000000000000000000000000000000000000000000000000000000000000000000000000000000000000000000000000000000000000000000000000000000000000000000000000000000000111111111111111111110011111100000000000000000
00000000000000000000000000000000000000000000000000000000000000000000011100100000000000000000000000000000000000000000000000000000000000000000000000000000000111111111111100000000001111000000000000000000
00000000000000000000000000000000000000000000000000000000000000000000111111111111111000000000000000000000000000000000000000111111111100000000000000000000000011111000000000000000011111000000000000000000
00000000000000000000000000000000000000000000000000000000000000000000111111111111111111110000000000000000000000000000000011111111111110000000000000000000000011110000000000000000011111000000000000000000
00000000000000000000000000000000000100100000000000000000000000000000111111111111111111110000000000000000000000000000001111111111111111000000000000000000000011110000000000000000111110000000000000000000
00000000000000000000000000000011111111111111000000000000000000000000111111111111111111110000000000000000000000000000111111111111111111100000000000000000000011110000000000000001111110000000000000000000
00000000000000000000000000000111111111111111110000000000000000000000011111111111111111111000000000000000000000000111111111111111111111100000000000000000000011110000000000000001111100000000000000000000
00000000000000000000000000001111111111111111111000000000000000000000011111000111001111111000000000000000000000001111111111111111111111100000000000000000000111110000000000000001111100000000000000000000
00000000000000000000000000001111111111111111111100000000000000000000011111000000000000000000000000000000000000001111111111111111111111110000000000000000000111100000000000000001111100000000000000000000
00000000000000000000000000000111111000000111111111000000000000000000011111000000000000000000000000000000000000001111111111111111111111110000000000000000000011100000000000000011111000000000000000000000
00000000000000000000000000000111100000000001111111000000000000000000011111000000000000000000000000000000000000001111111111000011111111110000000000000000000000000000000000000011111000000000000000000000
00000000000000000000000000000000000000000000111111100000000000000000011111000000000000000000000000000000000000001111110000000001111111110000000000000000000000000000000000000111111000000000000000000000
00000000000000000000000000000000000000000000011111110000000000000000011111000000000000000000000000000000000000001111000000000001111111100000000000000000000000000000000000000111110000000000000000000000
00000000000000000000000000000000000000000000011111110000000000000000011111000000000000000000000000000000000000001100000000000001111111100000000000000000000000000000000000000111110000000000000000000000
00000000000000000000000000000000000000000000001111110000000000000000011111000000000000000000000000000000000000000000000000000001111111100000000000000000000000000000000000000111110000000000000000000000
00000000000000000000000000000000000000000000011111100000000000000000011111100100001100000000000000000000000000000000000000000011111111100000000000000000000000000000000000001111100000000000000000000000
00000000000000000000000000000000000000000000011111110000000000000000011111101111111111000000000000000000000000000000000000000011111111000000000000000000000000000000000000001111100000000000000000000000
00000000000000000000000000000000000000000000011111110000000000000000011111111111111111110000000000000000000000000000000000000111111110000000000000000000000000000000000000011111100000000000000000000000
00000000000000000000000000000000000000000000111111100000000000000000011111111111111111111100000000000000000000000000000000000111111110000000000000000000000000000000000000011111000000000000000000000000
00000000000000000000000000000000000000000000111111100000000000000000111111111111111111111110000000000000000000000000000000001111111100000000000000000000000000000000000000011111000000000000000000000000
00000000000000000000000000000000000000000000111111100000000000000000011111111111111111111111000000000000000000000000000000011111111000000000000000000000000000000000000000111110000000000000000000000000
00000000000000000000000000000000000000000011111111000000000000000000011111111110000111111111100000000000000000000000000000011111110000000000000000000000000000000000000000111110000000000000000000000000
00000000000000000000000000000000000000000111111111000000000000000000011111111000000000111111110000000000000000000000000000111111110000000000000000000000000000000000000000111100000000000000000000000000
00000000000000000000000000000000000000001111111110000000000000000000011111000000000000011111111000000000000000000000000011111111100000000000000000000000000000000000000000111100000000000000000000000000
00000000000000000000000000000000000000001111111100000000000000000000000000000000000000001111111100000000000000000000000111111111000000000000000000000000000000000000000001111100000000000000000000000000
00000000000000000000000000000000000000111111111000000000000000000000000000000000000000000111111100000000000000000000001111111111000000000000000000000000000000000000000001111100000000000000000000000000
00000000000000000000000000000000000011111111110000000000000000000000000000000000000000000011111100000000000000000000001111111110000000000000000000000000000000000000000011111000000000000000000000000000
00000000000000000000000000000000000011111111000000000000000000000000000000000000000000000011111110000000000000000000011111111000000000000000000000000000000000000000000011111000000000000000000000000000
00000000000000000000000000000000001111111110000000000000000000000000000000000000000000000001111110000000000000000000111111110000000000000000000000000000000000000000000111111000000000000000000000000000
00000000000000000000000000000000011111111100000000000000000000000000000000000000000000000001111110000000000000000001111111110000000000000000000000000000000000000000000111110000000000000000000000000000
00000000000000000000000000000000111111111000000000000000000000000000000000000000000000000011111110000000000000000011111111100000000000000000000000000000000000000000000111110000000000000000000000000000
00000000000000000000000000000001111111110000000000000000000000000000000000000000000000000011111111000000000000001111111111000000000011110000000000000000000000000000000111110000000000000000000000000000
00000000000000000000000000000111111111100000000000000000000000000000001111000000000000000011111110000000000000011111111100000001111111110000000000000000000000000000001111110000000000000000000000000000
00000000000000000000000000001111111110000000000000000000000000000000011111110000000000000111111110000000000000111111111100001111111111110000000000000000000000000000001111100000000000000000000000000000
00000000000000000000000000111111111100000000000000000000000000000000011111110000000000000111111110000000000001111111111111111111111111110000000000000000000000000000001111100000000000000000000000000000
00000000000000000000000001111111111000000000000000000000000000000000011111111100000000001111111100000000000001111111111111111111111111111000000000000000000000000000001111000000000000000000000000000000
00000000000000000000000011111111110000000000000000000000000000000000001111111111100000111111111100000000000011111111111111111111111111111000000000000000000000000000011111000000000000000000000000000000
00000000000000000000000111111111100000000000000000000000000000000000001111111111111111111111111000000000001111111111111111111111111111110000000000000000000000000000011111000000000000000000000000000000
00000000000000000000000111111111111001100010001000000000000000000000000111111111111111111111110000000000001111111111111111111111111111000000000000000000000000000000011110000000000000000000000000000000
00000000000000000000001111111111111111111111111110000000000000000000000111111111111111111111000000000000001111111111111111111111100000000000000000000000000000000000011110000000000000000000000000000000
00000000000000000000001111111111111111111111111110000000000000000000000011111111111111111100000000000000011111111111111111111100000000000000000000000000000000000000111110000000000000000000000000000000
00000000000000000000001111111111111111111111111110000000000000000000000000111111111111100000000000000000011111111111111110000000000000000000000000000000000000000000111110000000000000000000000000000000
00000000000000000000000111111111111111111111111110000000000000000000000000000011000000000000000000000000011111111111100000000000000000000000000000000000000000000000111100000000000000000000000000000000
00000000000000000000000000000000000010001100010000000000000000000000000000000000000000000000000000000000011111111000000000000000000000000000000000000000000000000001111100000000000000000000000000000000
00000000000000000000000000000000000000000000000000000000000000000000000000000000000000000000000000000000010010000000000000000000000000000000000000000000000000000001111000000000000000000000000000000000
00000000000000000000000000000000000000000000000000000000000000000000000000000000000000000000000000000000000000000000000000000000000000000000000000000000000000000001111000000000000000000000000000000000
00000000000000000000000000000000000000000000000000000000000000000000000000000000000000000000000000000000000000000000000000000000000000000000000000000000000000000001110000000000000000000000000000000000
00000000000000000000000000000000000000000000000000000000000000000000000000000000000000000000000000000000000000000000000000000000000000000000000000000000000000000011100000000000000000000000000000000000
00000000000000000000000000000000000000000000000000000000000000000000000000000000000000000000000000000000000000000000000000000000000000000000000000000000000000000000000000000000000000000000000000000000
00000000000000000000000000000000000000000000000000000000000000000000000000000000000000000000000000000000000000000000000000000000000000000000000000000000000000000000000000000000000000000000000000000000
00000000000000000000000000000000000000000000000000000000000000000000000000000000000000000000000000000000000000000000000000000000000000000000000000000000000000000000000000000000000000000000000000000000
00000000000000000000000000000000000000000000000000000000000000000000000000000000000000000000000000000000000000000000000000000000000000000000000000000000000000000000000000000000000000000000000000000000
00000000000000000000000000000000000000000000000000000000000000000000000000000000000000000000000000000000000000000000000000000000000000000000000000000000000000000000000000000000000000000000000000000000
00000000000000000000000000000000000000000000000000000000000000000000000000000000000000000000000000000000000000000000000000000000000000000000000000000000000000000000000000000000000000000000000000000000
