P1
200 72
00000000000000000000000000000000000000000000000000000000000000000000000000000000000000000000000000000000000000000000000000000000000000000000000000000000000000000000000000000000000000000000000000000000
00000000000000000000000000000000000000000000000000000000000000000000000000000000000000000000000000000000000000000000000000000000000000000000000000000000000000000000000000000000000000000000000000000000
00000000000000000000000000000000000000000000000000000000000000000000000000000000000000000000000000000000000000000000000000000000000000000000000000000000000000000000000000000000000000000000000000000000
00000000000000000000000000000000000000000000000000000000000000000000000000000000000000000000000000000000000000000000000000000000000000000000000000000000000000000000000000000000000000000000000000000000
00000000000000000000000000000000000000000000000000000000000000000000000000000000000000000000000000000000000000000000000000000000000000000000000000000000000000000000000000000000000000000000000000000000
00000000000000000000000000000000000000000000000000000000000000000000000000000000000000000000000000000000000000000000000000000000000000000000000000000000000000000000000000000000000000000000000000000000
00000000000000000000000000000000000000000000000000000000000000000000000000000000000000000000000000000000000000000000000000000000000000000000000000000000000000000000000000000000000000000000000000000000
00000000000000000000000000000000000000000000000000000000000000000000000000000000000000000000000000000000000000000000000000000000000000000000000000000000000000000000000000000000000000000000000000000000
00000000000000000000000000000000000000000000000000000000000000000000000000000000000000000000000000000000000000000000000000000000000000000000000000000000000000000000000000000000000000000000000000000000
00000000000000000000000000000000000000000000000000000000000000000000000000000000000000000000000000000000000000000000000000000000000000000000000000000000000000000000000000000000000000000000000000000000
00000000000000000000000000000000000000000000000000000000000000000000000000000000000000000000000000000000000000000000000000000000000000000000000000000000000000000000000000000000000000000000000000000000
00000000000000000000000000000000000000000000000000000000000000000000000000000111110000000000000000000000000000000000000000000000000000000000000000000000000000000000000000000000111100000000000000000000
00000000000000000000000000000000000000000000000000000000000000000000000000011111110000000000000000000000000000000000000000000000000000000000000000000000000000000000000000000111111111100000000000000000
00000000000000000000000000000000000000000000000000000000000000000000001111111111110000000000000000000000000000000000000000000000000000000000000000000000000000000000000000001111111111110000000000000000
00000000000000000000000000000000000000000000000000000000000000000000111111111111110000000000000000000000000000000000000000000000000000000000000000000000000000000000000000111111111111111000000000000000
00000000000000000000000000000000000000000000000000000000000000011111111111111111100000000000000000000000000000000000000000000000000000000000000000000000000000000000000001111111111111111100000000000000
00000000000000000000000000000000000000000000000000000000000011111111111111111111100000000000000000000000000000000000000000000000001100000000000000000000000000000000000011111111111111111110000000000000
00000000000000000000000000000000000000000000000000000000111111111111111111111111100000000000000000000000000000000000000000000000111100000000000000000000000000000000000111111111111111111110000000000000
00000000000000000000000000000000000000000000000000001111111111111111111111111111100000000000000000000000000000000000000000000001111100000000000000000000000000000000000111111111000111111111000000000000
00000000000000000000000000000000000000000000000000011111111111111111111111111111100000000000000000000000000000000000000000001111111100000000000000000000000000000000001111111100000001111111000000000000
00000000000011110000000000000000000000000000000000011111111111111111111111111111100000000000000000000000000000000000000000011111111100000000000000000000000000000000001111111000000000111111100000000000
00000000111111111111110000000000000000000000000000011111111111111111111111111111100000000000000000000000000000000000000001111111111100000000000000000000000000000000011111110000000000111111100000000000
00000001111111111111111100000000000000000000000000011111111111111111111111111111000000000000000000000000000000000000000011111111111110000000000000000000000000000000011111110000000000011111110000000000
00000011111111111111111111000000000000000000000000011111111111111111111111100000000000000000000000000000000000000000000111111111111100000000000000000000000000000000011111110000000000011111110000000000
00000111111111111111111111110000000000000000000000011111111111111110000000000000000000000000000000000000000000000000000111111111111100000000000000000000000000000000011111110000000000001111110000000000
00000111111111111111111111110000000000000000000000011111111111110000000000000000000000000000000000000000000000000000001111111111111100000000000000000000000000000000011111110000000000000111111000000000
00000111111110000000111111111000000000000000000000011111111110000000000000000000000000000000000000000000000000000000001111111111111110000000000000000000000000000000011111110000000000000111111000000000
00001111111100000000001111111100000000000000000000011111111110000000000000000000000000000000000000000000000000000000001111111111111110000000000000000000000000000000011111110000000000000111111100000000
00001111111100000000000111111100000000000000000000011111111110000000000000000000000000000000000000000000000000000000011111111111111110000000000000000000000000000000011111110000000000000111111100000000
00001111111100000000000011111110000000000000000000011111111110000000011000000000000000000000000000000000000000000000111111111111111100000000000000000000000000000000011111110000000000000111111100000000
00001111111000000000000011111110000000000000000000011111111111111111111111000000000000000000000000000000000000000000111111111111111110000000000000000000000000000000011111100000000000000011111100000000
00000001111000000000000001111110000000000000000000011111111111111111111111110000000000000000000000000000000000000000111111111111111110000000000000000000000000000000011111100000000000000011111100000000
00000000000000000000000001111110000000000000000000011111111111111111111111111000000000000000000000000000000000000001111111111111111110000000000000000000000000000000001111110000001100000011111110000000
00000000000000000000000001111110000000000000000000001111111111111111111111111100000000000000000000000000000000000011111111111111111110000000000000000000000000000000001111110000111111000011111110000000
00000000000000000000000011111110000000000000000000001111111111111111111111111110000000000000000000000000000000000011111111111111111110000000000000000000000000000000011111110000111111100011111110000000
00000000000000000000000011111110000000000000000000011111111111111111111111111111000000000000000000000000000000000111111110011111111110000000000000000000000000000000011111110001111111100001111110000000
00000000000000000000000011111110000000000000000000011111111111111111111111111111000000000000000000000000000000000111111110011111111110000000000000000000000000000000001111110000111111110001111110000000
00000000000000000000000111111100000000000000000000011111111111111111111111111111100000000000000000000000000000001111111100011111111110000000000000000000000000000000001111110000111111110001111111000000
00000000000000000000001111111100000000000000000000011111111110001111111111111111100000000000000000000000000000001111111000011111111110000000000000000000000000000000001111111000111111110001111111000000
00000000000000000000011111111000000000000000000000011111111000000001111111111111100000000000000000000000000000011111111000011111111110000000000000000000000000000000001111111000111111110001111111000000
00000000000000000000111111111000000000000000000000001100000000000000111111111111100000000000000000000000000000011111110000011111111110000000000000000000000000000000000111111000011111100000111111000000
00000000000000000001111111110000000000000000000000000000000000000000011111111111100000000000000000000000000000111111110000011111111111000000000000000000000000000000000111111000000111100000111111000000
00000000000000000011111111100000000000000000000000000000000000000000001111111111100000000000000000000000000001111111100000001111111111000000000000000000000000000000000111111100000000000000111111000000
00000000000000000011111111000000000000000000000000000000000000000000001111111111100000000000000000000000000001111111000000011111111111000000000000000000000000000000000011111100000000000000111111100000
00000000000000000111111110000000000000000000000000000000000000000000001111111111100000000000000000000000000011111111000000011111111111111100000000000000000000000000000011111110000000000000111111000000
00000000000000011111111100000000000000000000000000000000000000000000001111111111100000000000000000000000000011111110000000011111111111111110000000000000000000000000000011111110000000000000111111000000
00000000000000111111111000000000000000000000000000000000000000000000001111111111100000000000000000000000000111111110000011111111111111111110000000000000000000000000000011111110000000000000111111100000
00000000000000111111110000000000000000000000000000000000000000000000001111111111100000000000000000000000000111111110111111111111111111111110000000000000000000000000000001111110000000000000111111100000
00000000000001111111000000000000000000000000000000000000000000000000011111111111100000000000000000000000000111111111111111111111111111111110000000000000000000000000000000111111000000000000111111100000
00000000000111111111000000000000000000000000000000000000000000000000011111111111100000000000000000000000001111111111111111111111111111111110000000000000000000000000000000111111000000000000111111000000
00000000000111111110000000000000000000000000000000011100000000000000111111111111100000000000000000000000001111111111111111111111111111111110000000000000000000000000000000111111000000000000111111000000
00000000001111111100000000000000000000000000000000111111100000000001111111111111000000000000000000000000001111111111111111111111111111111110000000000000000000000000000000111111100000000000111111100000
00000000011111111000000000000000000000000000000000111111111110000111111111111111000000000000000000000000000111111111111111111111111111110010000000000000000000000000000000011111110000000000111111100000
00000000011111110000000000000000000000000000000000111111111111111111111111111110000000000000000000000000000111111111111111111111111111100000000000000000000000000000000000001111111000000001111111000000
00000000111111100000000000000000000000000000000000111111111111111111111111111110000000000000000000000000000111110111000000001111111111000000000000000000000000000000000000001111111100000001111111000000
00000001111111100000000000000000000000000000000000111111111111111111111111111100000000000000000000000000000000000000000000001111111111000000000000000000000000000000000000000111111110000011111111000000
00000001111111000000000000000000000000000000000000011111111111111111111111111000000000000000000000000000000000000000000000001111111111000000000000000000000000000000000000000111111111100111111111000000
00000001111111000000000000001111000000000000000000011111111111111111111111110000000000000000000000000000000000000000000000001111111111100000000000000000000000000000000000000011111111111111111110000000
00000011111111000000001111111111000000000000000000000111111111111111111111100000000000000000000000000000000000000000000000000111111111100000000000000000000000000000000000000001111111111111111110000000
00000011111111111111111111111110000000000000000000000000011111111111111111000000000000000000000000000000000000000000000000000111111111000000000000000000000000000000000000000000111111111111111100000000
00000011111111111111111111111110000000000000000000000000000110011111111100000000000000000000000000000000000000000000000000000001101110000000000000000000000000000000000000000000011111111111111000000000
00000011111111111111111111111110000000000000000000000000000000000000000000000000000000000000000000000000000000000000000000000000000000000000000000000000000000000000000000000000000111111111110000000000
00000011111111111111111110000000000000000000000000000000000000000000000000000000000000000000000000000000000000000000000000000000000000000000000000000000000000000000000000000000000001111111100000000000
00000011111111111110000000000000000000000000000000000000000000000000000000000000000000000000000000000000000000000000000000000000000000000000000000000000000000000000000000000000000000000000000000000000
00000011111110000000000000000000000000000000000000000000000000000000000000000000000000000000000000000000000000000000000000000000000000000000000000000000000000000000000000000000000000000000000000000000
00000010000000000000000000000000000000000000000000000000000000000000000000000000000000000000000000000000000000000000000000000000000000000000000000000000000000000000000000000000000000000000000000000000
00000000000000000000000000000000000000000000000000000000000000000000000000000000000000000000000000000000000000000000000000000000000000000000000000000000000000000000000000000000000000000000000000000000
00000000000000000000000000000000000000000000000000000000000000000000000000000000000000000000000000000000000000000000000000000000000000000000000000000000000000000000000000000000000000000000000000000000
00000000000000000000000000000000000000000000000000000000000000000000000000000000000000000000000000000000000000000000000000000000000000000000000000000000000000000000000000000000000000000000000000000000
00000000000000000000000000000000000000000000000000000000000000000000000000000000000000000000000000000000000000000000000000000000000000000000000000000000000000000000000000000000000000000000000000000000
00000000000000000000000000000000000000000000000000000000000000000000000000000000000000000000000000000000000000000000000000000000000000000000000000000000000000000000000000000000000000000000000000000000
00000000000000000000000000000000000000000000000000000000000000000000000000000000000000000000000000000000000000000000000000000000000000000000000000000000000000000000000000000000000000000000000000000000
