P1
200 72
00000000000000000000000000000000000000000000000000000000000000000000000000000000000000000000000000000000000000000000000000000000000000000000000000000000000000000000000000000000000000000000000000000000
00000000000000000000000000000000000000000000000000000000000000000000000000000000000000000000000000000000000000000000000000000000000000000000000000000000000000000000000000000000000000000000000000000000
00000000000000000000000000000000000000000000000000000000000000000000000000000000000000000000000000000000000000000000000000000000000000000000000000000000000000000000000000000000000000000000000000000000
00000000000000000000000000000000000000000000000000000000000000000000000000000000000000000000000000000000000000000000000000000000000000000000000000000000000000000000000000000000000000000000000000000000
00000000000000000000000000000000000000000000000000000000000000000000000000000000000000000000000000000000000000000000000000000000000000000000000000000000000000000000000000000000000000000000000000000000
00000000000000000000000000000000000000000000000000000000000000000000000000000000000000000000000000000000000000000000000000000000000000000000000000000000000000000000000000000000000000000000000000000000
00000000000000000000000000000000000000000000000000000000000000000000000000000000000000000000000000000000000000000000000000000000000000000000000000000000000000000000000000000000000000000000000000000000
00000000000000000000000000000000000000000000000000000000000000000000000000000000000000000000000000000000000000000000000000000000000000000000000000000000000000000000000000000000000000000000000000000000
00000000000000000000000000000000000000000000000000000000000000000000000000000000000000000000000000000000000000000000000000000000000000000000000000000000000000000000000000000000000000000000000000000000
00000000000000000000000000000000000000000000000000000000000000000000000000000000000000000000000000000000000000000000000000000000000000000000000000000000000000000000000000000000000000000000000000000000
00000000000000000000000000000000000000000000000000000000000000000000000000000000000000000000000000000000000000000000000000000000000000000000000000000000000000000000000000000000000000000000000000000000
00000000000000000000000000000000000000000000000000000000000000000000000000000000000000000000000000000000000000000000000001111110000000000000000000000000000000000000000000000000000000000000000000000000
00000000000000000000000000000000000000000000000000000000000000000000000000000000000000000000000000000000000000000000011111111111000000000000000000000000000000000000000000000000000000000011111111000000
00000000000000000000000000000000000000000000000000000000000000000000000000000000000000000000000000000000000000000001111111111111111000000000000000000000000000000000000000000000000000000111111111111000
00000000000001111111111111000000000000000000000000000000000000000000000000000000000000000000000000000000000000000001111111111111111100000000000000000000000000000000000000000000000000011111111111111110
00000000000011111111111111110000000000000000000000000000000000000000000000000000000000000000000000000000000000000011111111111111111111000000000000000000000000000000000000000000000001111111111111111111
00000000000011111111111111111100000000000000000000000000000000000000000000000000000000000000000000000000000000000011111111111111111111100000000000000000000000000000000000000000000011111111111111111111
00000000000011111111111111111110000000000000000000000000000000000000000000000000000000000000000000000000000000000111111111111111111111100000000000000000000000000000000000000000000111111111111111111111
00000000000011111100000111111111000000000000000000000000000000000000000000000000000000000000000000000000000000001111111111100001111111110000000000000000000000000000000000000000001111111111111111111111
00000000000111110000000011111111100000000000000000000000000000000001111111111110000000000000000000000000000000001111111100000000011111111000000000000000000000000000000000000000111111111111111111111111
00000000000111110000000001111111110000000000000000000000000000000011111111111111110000000000000000000000000000011111111100000000001111111000000000000000000000000000000000000001111111111111111111111111
00000000000111100000000001111111110000000000000000000000000000001111111111111111111000000000000000000000000000011111111000000000001111111100000000000000000000000000000000000001111111111111111111111111
00000000000011000000000001111111111000000000000000000000000000011111111111111111111000000000000000000000000000011111110000000000000111111100000000000000000000000000000000000011111111111110000111111111
00000000000000000000000001111111111000000000000000000000000000111111111111111111111000000000000000000000000000011111110000000000000111111100000000000000000000000000000000000111111111111000000111111111
00000000000000000000000001111111111000000000000000000000000001111111110000000001110000000000000000000000000000111111100000000000000011111110000000000000000000000000000000000111111111110000000011111111
00000000000000000000000001111111111100000000000000000000000001111111000000000000000000000000000000000000000000111111100000000000000011111110000000000000000000000000000000001111111111110000000011111111
00000000000000000000000001111111111100000000000000000000000011111110000000000000000000000000000000000000000000111111100000000000000011111110000000000000000000000000000000011111111111100000000011111111
00000000000000000000000001111111111100000000000000000000000011111100000000000000000000000000000000000000000000111111000000000000000011111110000000000000000000000000000000011111111111000000000011111111
00000000000000000000000001111111111100000000000000000000000011111100000000000000000000000000000000000000000001111111000000000000000011111110000000000000000000000000000000011111111111000000000111111111
00000000000000000000000011111111111000000000000000000000000011111100000000000000000000000000000000000000000001111111000000000000000011111110000000000000000000000000000000111111111111000000000111111111
00000000000000000000000011111111111000000000000000000000000011111000000000000000000000000000000000000000000001111111000000000000000011111110000000000000000000000000000001111111111110000000000111111111
00000000000000000000000011111111111000000000000000000000000011111000010011110000000000000000000000000000000011111111000000000000000011111110000000000000000000000000000001111111111110000000001111111111
00000000000000000000000111111111111000000000000000000000000011111000111111111111000000000000000000000000000011111111000000000000000011111110000000000000000000000000000001111111111110000000001111111111
00000000000000000000000111111111110000000000000000000000000011111001111111111111000000000000000000000000000011111111000000000000000011111110000000000000000000000000000001111111111110000000011111111111
00000000000000000000001111111111110000000000000000000000000011111111111111111111100000000000000000000000000011111111000000000000000011111111000000000000000000000000000001111111111111000000111111111111
00000000000000000000011111111111100000000000000000000000000011111111111111111111100000000000000000000000000011111111000000000000000111111111000000000000000000000000000001111111111111000011111111111111
00000000000000000001111111111111100000000000000000000000000011111111110000011111110000000000000000000000000001111111000000000000001111111111000000000000000000000000000011111111111111111111111111111111
00000000000000000011111111111111000000000000000000000000000011111111100000001111110000000000000000000000000001111111100000000000011111111110000000000000000000000000000011111111111111111111111111111111
00000000000000111111111111111110000000000000000000000000000011111111000000000111110000000000000000000000000001111111110000000000011111111110000000000000000000000000000001111111111111111111111111111111
00000000000011111111111111111000000000000000000000000000000001111110000000000111110000000000000000000000000001111111111000000000111111111110000000000000000000000000000001111111111111111111111111111111
00000001111111111111111111110000000000000000000000000000000001111110000000000111110000000000000000000000000000111111111110000011111111111110000000000000000000000000000000111111111111111111111111111110
00000111111111111111111110000000000000000000000000000000000001111110000000000111110000000000000000000000000000111111111111111111111111111100000000000000000000000000000000001111111111111111111111111110
00001111111111111111100000000000000000000000000000000000000001111110000000000111110000000000000000000000000000011111111111111111111111111100000000000000000000000000000000000111111111111111111111111110
00011111111111111100000000000000000000000000000000000000000001111110000000000111110000000000000000000000000000001111111111111111111111111110000000000000000000000000000000000011111111111111111111111100
00011111111111100000000000000000000000000000000000000000000000111110000000000111110000000000000000000000000000000111111111111111111111111110000000000000000000000000000000000000000011111111111111111100
00001111111111100000000000000000000000000000000000000000000000111110000000000111110000000000000000000000000000000001111111111111101111111100000000000000000000000000000000000000000000000111111111111000
00011111111111111100000000000000000000000000000000000000000000111110000000000111100000000000000000000000000000000000111111111100001111111100000000000000000000000000000000000000000000001111111111111000
00001111111111111110000000000000000000000000000000000000000000011111000000001111100000000000000000000000000000000000000000000000001111111100000000000000000000000011100000000000000000011111111111110000
00000111111111111111110000011100000000000000000000000000000000011111000000011111100000000000000000000000000000000000000000000000011111111000000000000000000000000111110000000000000000111111111111110000
00000011111111111111111000011111000000000000000000000000000000011111100000011111000000000000000000000000000000000000000000000000011111111000000000000000000000001111111110000000000011111111111111100000
00000000011111111111111110011111000000000000000000000000000000011111100000111111000000000000000000000000000000000000000000000000111111110000000000000000000000001111111111100000000111111111111111000000
00000000000111111111111111111111000000000000000000000000000000001111110001111110000000000000000000000000000000000000000000000000111111110000000000000000000000011111111111111111111111111111111110000000
00000000000011111111111111111110000000000000000000000000000000001111111111111110000000000000000000000000000000000000000000000001111111110000000000000000000000111111111111111111111111111111111100000000
00000000000000111111111111111110000000000000000000000000000000000111111111111100000000000000000000000000000000000000000000000001111111100000000000000000000001111111111111111111111111111111111100000000
00000000000000011111111111111110000000000000000000000000000000000011111111111000000000000000000000000000001100000000000000000011111111100000000000000000000000111111111111111111111111111111111000000000
00000000000000000111111111111110000000000000000000000000000000000001111111110000000000000000000000000000001111000000000000000111111111000000000000000000000000111111111111111111111111111111110000000000
00000000000000000001111111111100000000000000000000000000000000000000111111000000000000000000000000000000001111111000000000011111111110000000000000000000000000001111111111111111111111111111000000000000
00000000000000000000111111111100000000000000000000000000000000000000011110000000000000000000000000000000011111111110111111111111111100000000000000000000000000000011111111111111111111111100000000000000
00000000000000000000001111111100000000000000000000000000000000000000000000000000000000000000000000000000011111111111111111111111111100000000000000000000000000000000011111111111111111110000000000000000
00000000000000000000000011111100000000000000000000000000000000000000000000000000000000000000000000000000011111111111111111111111110000000000000000000000000000000000000111111111111111000000000000000000
00000000000000000000000001111100000000000000000000000000000000000000000000000000000000000000000000000000011111111111111111111111100000000000000000000000000000000000000000001110000000000000000000000000
00000000000000000000000000011000000000000000000000000000000000000000000000000000000000000000000000000000011111111111111111111110000000000000000000000000000000000000000000000000000000000000000000000000
00000000000000000000000000000000000000000000000000000000000000000000000000000000000000000000000000000000000111111111111111111100000000000000000000000000000000000000000000000000000000000000000000000000
00000000000000000000000000000000000000000000000000000000000000000000000000000000000000000000000000000000000000111011111111110000000000000000000000000000000000000000000000000000000000000000000000000000
00000000000000000000000000000000000000000000000000000000000000000000000000000000000000000000000000000000000000000000000000000000000000000000000000000000000000000000000000000000000000000000000000000000
00000000000000000000000000000000000000000000000000000000000000000000000000000000000000000000000000000000000000000000000000000000000000000000000000000000000000000000000000000000000000000000000000000000
00000000000000000000000000000000000000000000000000000000000000000000000000000000000000000000000000000000000000000000000000000000000000000000000000000000000000000000000000000000000000000000000000000000
00000000000000000000000000000000000000000000000000000000000000000000000000000000000000000000000000000000000000000000000000000000000000000000000000000000000000000000000000000000000000000000000000000000
00000000000000000000000000000000000000000000000000000000000000000000000000000000000000000000000000000000000000000000000000000000000000000000000000000000000000000000000000000000000000000000000000000000
00000000000000000000000000000000000000000000000000000000000000000000000000000000000000000000000000000000000000000000000000000000000000000000000000000000000000000000000000000000000000000000000000000000
00000000000000000000000000000000000000000000000000000000000000000000000000000000000000000000000000000000000000000000000000000000000000000000000000000000000000000000000000000000000000000000000000000000
00000000000000000000000000000000000000000000000000000000000000000000000000000000000000000000000000000000000000000000000000000000000000000000000000000000000000000000000000000000000000000000000000000000
