P1
200 72
00000000000000000000000000000000000000000000000000000000000000000000000000000000000000000000000000000000000000000000000000000000000000000000000000000000000000000000000000000000000000000000000000000000
00000000000000000000000000000000000000000000000000000000000000000000000000000000000000000000000000000000000000000000000000000000000000000000000000000000000000000000000000000000000000000000000000000000
00000000000000000000000000000000000000000000000000000000000000000000000000000000000000000000000000000000000000000000000000000000000000000000000000000000000000000000000000000000000000000000000000000000
00000000000000000000000000000000000000000000000000000000000000000000000000000000000000000000000000000000000000000000000000000000000000000000000000000000000000000000000000000000000000000000000000000000
00000000000000000000000000000000000000000000000000000000000000000000000000000000000000000000000000000000000000000000000000000000000000000000000000000000000000000000000000000000000000000000000000000000
00000000000000000000000000000000000000000000000000000000000000000000000000000000000000000000000000000000000000000000000000000000000000000000000000000000000000000000000000000000000000000000000000000000
00000000000000000000000000000000000000000000000000000000000000000000000000000000000000000000000000000000000000000000000000000000000000000000000000000000000000000000000000000000000000000000000000000000
00000000000000000000000000000000000000000000000000000000000000000000000000000000000000000000000000000000000000000000000000000000000000000000000000000000000000000000000000000000000000000000000000000000
00000000000000000000000000000000000000000000000000000000000000000000000000000000000000000000000000000000000000000000000000000000000000000000000000000000000000000000000000000001111111110000000000000000
00000000000000000000000000000000000000000000000000000000000000000000000000000000000000000000000000000000000000000000000000000000000000000000000000000000000000000000000000000011111111110000000000000000
00000000000000000000000000000000000000000000000000000000000000000000000000000000000000000000000000000000000000000000000000000000000000000000000000000000000000000000000000000111111111100000000000000000
00000000000000000000000000000000000000000000000000000000000000000000000000000000000000000000000000000000000000000000000000000000000000000000000000000000000000000000000000001111111111000000000000000000
00000000000000000000000000000000000000000000000000000000000000000000000000000000000000000000000000000000000000000000000000000000000000000000000000000000000000000000000000011111111111000000000000000000
00000000000000000000000000000000000000000000000000000000000000000000000000000000000000000000000000000000000000000000000000000000000000000000000000000000000000000000000000111111111111000000000000000000
00000000000000000000000000000000000000000000000000000000000000000000000000000000000000000000000000000000000000000000000000000000000000000000000000000000000000000000000001111111111110000000000000000000
00000000000000000000000000000000000000000000000000000000000000000000000000000000000000000000000000000000000000000000000000000000000000000000000000000000000000000000000011111111111100000000000000000000
00000000000000000000000000000011111100000000000000000000000000000000000000000000000000000000000000000000000000000000000000000000000000000000000000000000000000000000000111111111111100000000000000000000
00000000000000000000000000000011111110000000000000000000000000000000000000000000000000000000000000000000000000000000000000001111111111100000000000000000000000000000001111111111111100000000000000000000
00000000000000000000000000000011111111110000000000000000000000000000000000000000000000000000000000000000000000000000000011111111111111110000000000000000000000000000001111111111111100000000000000000000
00000000000000000000000000000111111111111000000000000000000000000000001111110000000000000000000000000000000000000000001111111111111111111000000000000000000000000000011111111111111000000000000000000000
00000000000000000000000000000111111111111110000000000000000000000000011111111100000000000000000000000000000000000000111111111111111111111100000000000000000000000000011111001111111000000000000000000000
00000000000000000000000000000111100001111111000000000000000000000000111111111111000000000000000000000000000000000001111111111111111111111110000000000000000000000000111110001111110000000000000000000000
00000000000000000000000000000111100000111111110000000000000000000001111111111111110000000000000000000000000000000011111111111000011111111110000000000000000000000000111110001111110000000000000000000000
00000000000000000000000000001111000000001111110000000000000000000011111111100111111000000000000000000000000000001111111100000000000111111110000000000000000000000001111100001111110000000000000000000000
00000000000000000000000000000110000000001111111000000000000000000011111111000001111100000000000000000000000000011111111000000000000011111110000000000000000000000011111000011111110000000000000000000000
00000000000000000000000000000000000000001111111000000000000000000111111110000000111110000000000000000000000000011111110000000000000111111110000000000000000000000111110000011111100000000000000000000000
00000000000000000000000000000000000000001111111100000000000000001111111100000000011110000000000000000000000000111111100000000000000011111110000000000000000000000111110000011111100000000000000000000000
00000000000000000000000000000000000000001111111100000000000000001111111100000000011111000000000000000000000001111111000000000000000001110000000000000000000000001111100000011111000000000000000000000000
00000000000000000000000000000000000000001111111100000000000000011111111000000000001111100000000000000000000001111111000000000000000000000000000000000000000000001111000000011111000000000000000000000000
00000000000000000000000000000000000000011111111100000000000000011111110000000000001111100000000000000000000001111110000000000000000000000000000000000000000000011110000000111111000000000000000000000000
00000000000000000000000000000000000000011111111000000000000000011111110000000000000111100000000000000000000011111100001110000000000000000000000000000000000000011110000000111111000000000000000000000000
00000000000000000000000000000000000000111111111000000000000000011111100000000000000111110000000000000000000011111111111111111000000000000000000000000000000000111110000000111110000000000000000000000000
00000000000000000000000000000000000001111111111000000000000000111111100000000000000111110000000000000000000111111111111111111100000000000000000000000000000001111100000000111110000000000000000000000000
00000000000000000000000000000011111111111111110000000000000000111111000000000000000111110000000000000000000111111111111111111110000000000000000000000000000001111000000001111110000000000000000000000000
00000000000000000000000000000011111111111111100000000000000000111111000000000000000111111000000000000000000111111111111111111111000000000000000000000000000011111000000001111110000000000000000000000000
00000000000000000000000000000011111111111111000000000000000000111111000000000000000111111000000000000000000111111111000001111111100000000000000000000000000011110000000001111110000000000000000000000000
00000000000000000000000000000011111111111100000000000000000001111110000000000000000111111000000000000000000111111100000000111111110000000000000000000000000111110000000001111100000000000000000000000000
00000000000000000000000000000000111111111100000000000000000001111110000000000000000111111000000000000000001111111000000000011111110000000000000000000000000111100000000011111100000000000000000000000000
00000000000000000000000000000000001111111110000000000000000011111110000000000000001111111000000000000000001111110000000000001111100000000000000000000000001111100000000011111000000000000000000000000000
00000000000000000000000000000000000111111111000000000000000011111110000000000000001111110000000000000000001111100000000000001111100000000000000000000000001111000000000011111000000000000000000000000000
00000000000000000000000000000000000011111111000000000000000011111110000000000000001111110000000000000000001111100000000000001111110000000000000000000000011111000000000011111100010000000000000000000000
00000000000000000000000000000000000011111111100000000000000111111110000000000000001111110000000000000000001111100000000000001111110000000000000000000000011110000000000111111111100000000000000000000000
00000000000000000000000000000000000011111111100000000000000111111110000000000000011111110000000000000000001111100000000000001111110000000000000000000000111111000111111111111111100000000000000000000000
00000000000000000000110000000000000011111111100000000000000111111110000000000000011111100000000000000000001111100000000000011111100000000000000000000000111111111111111111111111100000000000000000000000
00000000000000000001111000000000000011111111100000000000000111111100000000000000111111100000000000000000001111100000000000011111000000000000000000000000111111111111111111111111100000000000000000000000
00000000000000000011111000000000000111111111100000000000000111111100000000000000111111100000000000000000000111110000000000111111000000000000000000000000111111111111111111111111100000000000000000000000
00000000000000000011111000000000000111111111000000000000000111111100000000000000111111000000000000000000000111110000000000111111000000000000000000000000111111111111111111111110000000000000000000000000
00000000000000000011111000000000001111111111000000000000000011111100000000000001111111000000000000000000000011111000000001111111000000000000000000000000111111111111111111110000000000000000000000000000
00000000000000000111110000000000011111111110000000000000000011111100000000000001111110000000000000000000000011111000000011111110000000000000000000000000111111111111001111100000000000000000000000000000
00000000000000000111110000000001111111111100000000000000000011111100000000000011111110000000000000000000000001111110000111111100000000000000000000000000111111000000001111100000000000000000000000000000
00000000000000000111111000001111111111111000000000000000000011111100000000000111111110000000000000000000000000111111111111111100000000000000000000000000000000000000001111100000000000000000000000000000
00000000000000000111111111111111111111100000000000000000000011111110000000011111111100000000000000000000000000111111111111111000000000000000000000000000000000000000001111100000000000000000000000000000
00000000000000001111111111111111111100000000000000000000000001111111100001111111111000000000000000000000000000011111111111110000000000000000000000000000000000000000001111000000000000000000000000000000
00000000000000001111111111111111100000000000000000000000000001111111111111111111100000000000000000000000000000001111111111100000000000000000000000000000000000000000001111000000000000000000000000000000
00000000000000000011110011000000000000000000000000000000000000011111111111111110000000000000000000000000000000000011111111000000000000000000000000000000000000000000001111000000000000000000000000000000
00000000000000000000000000000000000000000000000000000000000000000111111111100000000000000000000000000000000000000000100100000000000000000000000000000000000000000000001111000000000000000000000000000000
00000000000000000000000000000000000000000000000000000000000000000000000000000000000000000000000000000000000000000000000000000000000000000000000000000000000000000000011111000000000000000000000000000000
00000000000000000000000000000000000000000000000000000000000000000000000000000000000000000000000000000000000000000000000000000000000000000000000000000000000000000000011110000000000000000000000000000000
00000000000000000000000000000000000000000000000000000000000000000000000000000000000000000000000000000000000000000000000000000000000000000000000000000000000000000000011110000000000000000000000000000000
00000000000000000000000000000000000000000000000000000000000000000000000000000000000000000000000000000000000000000000000000000000000000000000000000000000000000000000000000000000000000000000000000000000
00000000000000000000000000000000000000000000000000000000000000000000000000000000000000000000000000000000000000000000000000000000000000000000000000000000000000000000000000000000000000000000000000000000
00000000000000000000000000000000000000000000000000000000000000000000000000000000000000000000000000000000000000000000000000000000000000000000000000000000000000000000000000000000000000000000000000000000
00000000000000000000000000000000000000000000000000000000000000000000000000000000000000000000000000000000000000000000000000000000000000000000000000000000000000000000000000000000000000000000000000000000
00000000000000000000000000000000000000000000000000000000000000000000000000000000000000000000000000000000000000000000000000000000000000000000000000000000000000000000000000000000000000000000000000000000
00000000000000000000000000000000000000000000000000000000000000000000000000000000000000000000000000000000000000000000000000000000000000000000000000000000000000000000000000000000000000000000000000000000
00000000000000000000000000000000000000000000000000000000000000000000000000000000000000000000000000000000000000000000000000000000000000000000000000000000000000000000000000000000000000000000000000000000
00000000000000000000000000000000000000000000000000000000000000000000000000000000000000000000000000000000000000000000000000000000000000000000000000000000000000000000000000000000000000000000000000000000
00000000000000000000000000000000000000000000000000000000000000000000000000000000000000000000000000000000000000000000000000000000000000000000000000000000000000000000000000000000000000000000000000000000
00000000000000000000000000000000000000000000000000000000000000000000000000000000000000000000000000000000000000000000000000000000000000000000000000000000000000000000000000000000000000000000000000000000
00000000000000000000000000000000000000000000000000000000000000000000000000000000000000000000000000000000000000000000000000000000000000000000000000000000000000000000000000000000000000000000000000000000
00000000000000000000000000000000000000000000000000000000000000000000000000000000000000000000000000000000000000000000000000000000000000000000000000000000000000000000000000000000000000000000000000000000
00000000000000000000000000000000000000000000000000000000000000000000000000000000000000000000000000000000000000000000000000000000000000000000000000000000000000000000000000000000000000000000000000000000
