P1
200 72
00000000000000000000000000000000000000000000000000000000000000000000000000000000000000000000000000000000000000000000000000000000000000000000000000000000000000000000000000000000000000000000000000000000
00000000000000000000000000000000000000000000000000000000000000000000000000000000000000000000000000000000000000000000000000000000000000000000000000000000000000000000000000000000000000000000000000000000
00000000000000000000000000000000000000000000000000000000000000000000000000000000000000000000000000000000000000000000000000000000000000000000000000000000000000000000000000000000000000000000000000000000
00000000000000000000000000000000000000000000000000000000000000000000000000000000000000000000000000000000000000000000000000000000000000000000000000000000000000000000000000000000000000000000000000000000
00000000000000000000000000000000000000000000000000000000000000000000000000000000000000000000000000000000000000000000000000000000000000000000000000000000000000000000000000000000000000000000000000000000
00000000000000000000000000000000000000000000000000000000000000000000000000000000000000000000000000000000000000000000000000000000000000000000000000000000000000000000000000000000000000000000000000000000
00000000000000000000000000000000000000000000000000000000000000000000000000000000000000000000000000000000000000000000000000000000000000000000000000000000000000000000000000000000000000000000000000000000
00000000000000000000000000000000000000000000000000000000000000000000000000000000000000000000000000000000000000000000000000000000000000000000000000000000000000000000000000000000000000000000000000000000
00000000000000000000000000000000000000000000000000000000000000000000000000000000000000000000000000000000000000000000000000000000000000000000000000000000000000000000000000000000000000000000000000000000
00000000000000000000000000000000000000000000000000000000000000000000000000000000000000000000000000000000000000000000000000000000000000000000000000000000000000000000000000000000000000000000000000000000
00000000000000000000000000000000000000000000000000000000000000000000000000000000000000000000000000000000000000000000000000000000000000000000000000000000000000000000000000000000000000000000000000000000
00000000000000000000000000000000000000000000000000000000000000000000000000000000000000000000000000000000000000000000000000000000000000000000000000000000000000000000000000000000000000000000000000000000
00000000000000000000000000000000000000000000000000000000000000000000000000000000000000000000000000000000000000000000000000000000000000000000000000000000000000000000000000000000000000000000000000000000
00000000000000000000000000000000000000000000000000000000000000000000000000000000000000000000000000000000000000000000000000000000000000000000000000000000000000000000000000000000000000000000000000000000
00000000000000000000000000000000000000000000000000000000000000000000000000000000000000000000000000000000000000000000000000000000000000000000000000000000000000000000000000000000000000000000000000000000
00000000000000000000000000000000000000000000000000000000000000000000000000000000000000000000000000000000000000000000000000000000000000000000000000000000000000000000000000000000000000000000000000000000
00000000000000000000000000000000000000000000000000000000000000000000000000000000000000000000000000000000000000000000000000000000000000000000000000000000000000000000000000000000000000000000001111000000
00000000000000000000000000000000000000000000000000000000000000000000000000000000000000000000000000000000000000000000000000000000000000000111100111111111100000000000000000000000000000000000011111000000
00000000000000000000000000000111111000000000000000000000000000000000000000111001110000000000000000000000000000000000000000000000000000001111111111111111100000000000000000000000000000000000111111000000
00000000000000000000000000111111111110000000000000000000000000000000111111111111111111000000000000000000000000000000000000000000000000011111111111111111100000000000000000000000000000000001111111000000
00000000000000000000000011111111111111000000000000000000000000000011111111111111111111111000000000000000000000000000000000000000000000111111111111111111000000000000000000000000000000000001111110000000
00000000000000000000000111111111111111100000000000000000000000000011111111111111111111111110000000000000000000000000000000000000000000111111111111111111000000000000000000000000000000000011111110000000
00000000000000000000001111110000000111110000000000000000000000000011111111111111111111111111000000000000000000000000000000000000000001111111111111111111000000000000000000000000000000000111111100000000
00000000000000000000011111000000000011111000000000000000000000000011111111111111111111111111100000000000000000000000000000000000000001111111111111111110000000000000000000000000000000001111111100000000
00000000000000000000111110000000000001111000000000000000000000000111111111111111111111111111110000000000000000000000000000000000000011111111111111111110000000000000000000000000000000011111111100000000
00000000000000000000111100000000000000111000000000000000000000000111111111111111111111111111110000000000000000000000000000000000000011111111111111111100000000000000000000000000000000011111111100000000
00000000000000000000111000000000000000111000000000000000000000000111111111111111111111111111111000000000000000000000000000000000000111111111111111110000000000000000000000000000000000111111111000000000
00000000000000000000010000000000000001111000000000000000000000000111111110000000001111111111111100000000000000000000000000000000000111100000000000000000000000000000000000000000000001111111111000000000
00000000000000000000000000000000000001111000000000000000000000000111111000000000000111111111111100000000000000000000000000000000001111000000000000000000000000000000000000000000000011111111110000000000
00000000000000000000000000000000000001110000000000000000000000000111100000000000000011111111111100000000000000000000000000000000011110000000000000000000000000000000000000000000000111111111110000000000
00000000000000000000000000000000000001110000000000000000000000000000000000000000000011111111111100000000000000000000000000000000011111000000000000000000000000000000000000000000001111111111100000000000
00000000000000000000000000000000000011100000000000000000000000000000000000000000000011111111111000000000000000000000000000000000111111111110000000000000000000000000000000000000001111111111100000000000
00000000000000000000000000000000001111100000000000000000000000000000000000000000000011111111111000000000000000000000000000000000111111111111100000000000000000000000000000000000011111011111100000000000
00000000000000000000000000000000011111000000000000000000000000000000000000000000000011111111111000000000000000000000000000000000111111111111111000000000000000000000000000000000111110011111000000000000
00000000000000000000000000000000111110000000000000000000000000000000000000000000000111111111111000000000000000000000000000000001111111111111111100000000000000000000000000000001111100111111000000000000
00000000000000000000000000000011111110000000000000000000000000000000000000000000001111111111110000000000000000000000000000000011111111111111111110000000000000000000000000000011111000111110000000000000
00000000000000000000000000000111111111100000000000000000000000000000000000000000011111111111100000000000000000000000000000000011111111111111111111000000000000000000000000000011110000111110000000000000
00000000000000000000000000000111111111110000000000000000000000000000000000000000011111111111000000000000000000000000000000000111111111111111111111000000000000000000000000000111100000111110000000000000
00000000000000000000000000000000000111111000000000000000000000000000000000000000111111111110000000000000000000000000000000001111111111111111111111100000000000000000000000001111000000111100000000000000
00000000000000000000000000000000000001111100000000000000000000000000000000000001111111111100000000000000000000000000000000001111111111111111111111100000000000000000000000111110000001111100000000000000
00000000000000000000000000000000000000011110000000000000000000000000000000000011111111111100000000000000000000000000000000001111111111111111111111100000000000000000000001111110000011111100000000000000
00000000000000000000000000000000000000011110000000000000000000000000000000000111111111111000000000000000000000000000000000000001101111111111111111000000000000000000000011111100000011111000000000000000
00000000000000000000000000000000000000001110000000000000000000000000000000001111111111100000000000000000000000000000000000000000000000111111111111100000000000000000000111111000000011111000000000000000
00000000000000000000000000000000000000000110000000000000000000000000000000011111111111000000000000000000000000000000000000000000000000001111111111100000000000000000001111110000000111110000000000000000
00000000000000000000000000000000000000000111000000000000000000000000000000111111111111000000000000000000000000000000000000000000000000000111111111100000000000000000011111000000000111110000000000000000
00000000000000000000000000000000000000001111000000000000000000000000000001111111111110000000000000000000000000000000000000000000000000000011111111100000000000000001111110000000001111110000000000000000
00000000000000000000000000000000000000001111000000000000000000000000000011111111111100000000000000000000000000000000000000000000000000000001111111100000000000000011111100000000001111100000000000000000
00000000000000000000000000000000000000001111000000000000000000000000000011111111111000000000011110000000000000000000000000000000000000000001111111000000000000000011111111110000011111110110000000000000
00000000000000000000000000000000000000001111000000000000000000000000000111111111110000000001111110000000000000000000000000000000000000000000111110000000000000000111111111111111111111111110000000000000
00000000000000000000000000000000000000001111000000000000000000000000001111111111100000011111111110000000000000000000000000000000000000000001111110000000000000001111111111111111111111111110000000000000
00000000000000000000000000000000000000001110000000000000000000000000011111111111000111111111111110000000000000000000000000000000000000000001111110000000000000011111111111111111111111111110000000000000
00000000000000000000000000000000000000011110000000000000000000000000111111111111001111111111111111000000000000000000000000000000000000000001111100000000000000001111111111111111111111111100000000000000
00000000000000000000000000000000000000011100000000000000000000000001111111111111111111111111111111000000000000000000000011000000000000000001111100000000000000000000000000000011111111111000000000000000
00000000000000000000000000000000000000111100000000000000000000000011111111111111111111111111111111000000000000000000001111111000000000000011111000000000000000000000000000000001111100000000000000000000
00000000000000000000000000100000000001111100000000000000000000000111111111111111111111111111111110000000000000000000011111111100000000000111111000000000000000000000000000000011111100000000000000000000
00000000000000000000000001111000000011111000000000000000000000001111111111111111111111111111110000000000000000000000111111111110000000001111110000000000000000000000000000000011111100000000000000000000
00000000000000000000000001111111111111110000000000000000000000001111111111111111111111111111100000000000000000000000111111111111100000011111100000000000000000000000000000000011111000000000000000000000
00000000000000000000000001111111111111100000000000000000000000011111111111111111111111111000000000000000000000000001111111111111111001111110000000000000000000000000000000000111111000000000000000000000
00000000000000000000000000011111111111000000000000000000000000011111111111111111111111100000000000000000000000000001111111111111111111111100000000000000000000000000000000001111110000000000000000000000
00000000000000000000000000000011111000000000000000000000000000011111111111111111111100000000000000000000000000000001111111111111111111111000000000000000000000000000000000001111110000000000000000000000
00000000000000000000000000000000000000000000000000000000000000011111111111111111100000000000000000000000000000000000111111111111111111100000000000000000000000000000000000001111100000000000000000000000
00000000000000000000000000000000000000000000000000000000000000011111111111111110000000000000000000000000000000000000111111111111111110000000000000000000000000000000000000000000000000000000000000000000
00000000000000000000000000000000000000000000000000000000000000011111111111110000000000000000000000000000000000000000001111111111100000000000000000000000000000000000000000000000000000000000000000000000
00000000000000000000000000000000000000000000000000000000000000011111111111100000000000000000000000000000000000000000000011000000000000000000000000000000000000000000000000000000000000000000000000000000
00000000000000000000000000000000000000000000000000000000000000111111111100000000000000000000000000000000000000000000000000000000000000000000000000000000000000000000000000000000000000000000000000000000
00000000000000000000000000000000000000000000000000000000000000111111110000000000000000000000000000000000000000000000000000000000000000000000000000000000000000000000000000000000000000000000000000000000
00000000000000000000000000000000000000000000000000000000000000111111000000000000000000000000000000000000000000000000000000000000000000000000000000000000000000000000000000000000000000000000000000000000
00000000000000000000000000000000000000000000000000000000000000011000000000000000000000000000000000000000000000000000000000000000000000000000000000000000000000000000000000000000000000000000000000000000
00000000000000000000000000000000000000000000000000000000000000000000000000000000000000000000000000000000000000000000000000000000000000000000000000000000000000000000000000000000000000000000000000000000
00000000000000000000000000000000000000000000000000000000000000000000000000000000000000000000000000000000000000000000000000000000000000000000000000000000000000000000000000000000000000000000000000000000
00000000000000000000000000000000000000000000000000000000000000000000000000000000000000000000000000000000000000000000000000000000000000000000000000000000000000000000000000000000000000000000000000000000
00000000000000000000000000000000000000000000000000000000000000000000000000000000000000000000000000000000000000000000000000000000000000000000000000000000000000000000000000000000000000000000000000000000
