P1
200 72
00000000000000000000000000000000000000000000000000000000000000000000000000000000000000000000000000000000000000000000000000000000000000000000000000000000000000000000000000000000000000000000000000000000
00000000000000000000000000000000000000000000000000000000000000000000000000000000000000000000000000000000000000000000000000000000000000000000000000000000000000000000000000000000000000000000000000000000
00000000000000000000000000000000000000000000000000000000000000000000000000000000000000000000000000000000000000000000000000000000000000000000000000000000000000000000000000000000000000000000000000000000
00000000000000000000000000000000000000000000000000000000000000000000000000000000000000000000000000000000000000000000000000000000000000000000000000000000000000000000000000000000000000000000000000000000
00000000000000000000000000000000000000000000000000000000000000000000000000000000000000000000000000000000000000000000000000000000000000000000000000000000000000000000000000000000000000000000000000000000
00000000000000000000000000000000000000000000000000000000000000000000000000000000000000000000000000000000000000000000000000000000000000000000000000000000000000000000000000000000000000000000000000000000
00000000000000000000000000000000000000000000000000000000000000000000000000000000000000000000000000000000000000000000000000000000000000000000000000000000000000000000000000000000000000000000000000000000
00000000000000000000000000000000000000000000000000000000000000000000000000000000000000000000000000000000000000000000000000000000000000000000000000000000000000000000000000000000000000000000000000000000
00000000000000000000000000000000000000000000000000000000000000000000000000000000000000000000000000000000000000000000000000000000000000000000000000000000000000000000000000000000000000000000000000000000
00000000000000000000000000000000000000000000000000000000000000000000000000000000000000000000000000000000000000000000000000000000000000000000000000000000000000000000000000000000000000000000000000000000
00000000000000000000000000000000000000000000000000000000000000000000000000000000000000000000000000000000000000000000000000000000000000000000000000000000000000000000000000000000000000000000000000000000
00000000000000000000000000000000000000000000000000000000000000000000000000000000000000000000000000000000000000000000000000000000000000000000000000000000000000001000000000000000000000000000000000000000
00000000000000000000000000000000000000000000000000000000000000000000001111001100000000000000000000000000000000000000000000000000000000000000000000000000000000011111100000000000000000000000000000000000
00000000000000000000000000000000000000000000000000000000000000000000001111111111100000000000000000000000000000000000000000000000000000000000000000000000000000011111111100000000000000000000000000000000
00000000000000000000000000000000000000000000000000000000000000000000001111111111111100000000000000000000000000000000000000000000000000000000000000000000000000011111111111100000000000000000000000000000
00000000000000000000000000000000000000000000000000000000000000000000001111111111111111100000000000000000000000000000000000000000000000000000000000000000000000011111111111111000000000000000000000000000
00000000000000000000000000000000000011111001000000000000000000000000011111111111111111111000000000000000000000000000000000000000000000000000000000000000000000011111111111111111100000000000000000000000
00000000000000000000000000000001111111111111100000000000000000000000011111111111111111111100000000000000000000000000000000000000000000000000000000000000000000011111111111111111111110000000000000000000
00000000000000000000000000000011111111111111110000000000000000000000111111000000011111111111000000000000000000000000011100000000000000000000000000000000000000001111111111111111111111111100000000000000
00000000000000000000000000000111111111111111111100000000000000000000111111000000001111111111100000000000000000000000011111110000000000000000000000000000000000001111111111111111111111111111111000000000
00000000000000000000000000000111111111111111111100000000000000000000111110000000000011111111110000000000000000000000011111111110000000000000000000000000000000000001111111111111111111111111111111100000
00000000000000000000000000001111111111111111111100000000000000000000011100000000000011111111111000000000000000000000011111111111111110000000000000000000000000000000000111111111111111111111111111110000
00000000000000000000000000001111111111111111111100000000000000000000011100000000000011111111111100000000000000000000001111111111111111110000000000000000000000000000000000001111111111111111111111100000
00000000000000000000000000001111111111111111111110000000000000000000000000000000000001111111111100000000000000000000001111111111111111111111000000000000000000000000000000000000001111111111111111100000
00000000000000000000000000001111100000111111111110000000000000000000000000000000000011111111111100000000000000000000011111111111111111111111100000000000000000000000000000000000000000111111111111100000
00000000000000000000000000000000000000001111111100000000000000000000000000000000000011111111111100000000000000000000011111111111111111111111100000000000000000000000000000000000000000011111111111000000
00000000000000000000000000000000000000001111111100000000000000000000000000000000000011111111111110000000000000000000011111111111111111111111100000000000000000000000000000000000000000111111111110000000
00000000000000000000000000000000000000001111111100000000000000000000000000000000000011111111111100000000000000000000011111111111111111111111100000000000000000000000000000000000000001111111111100000000
00000000000000000000000000000000000000001111111100000000000000000000000000000000000111111111111100000000000000000000000000011111111111111111110000000000000000000000000000000000000011111111111000000000
00000000000000000000000000000000000000011111111100000000000000000000000000000000000111111111111100000000000000000000000000000001111111111111110000000000000000000000000000000000000111111111110000000000
00000000000000000000000000000000000000011111111100000000000000000000000000000000001111111111111100000000000000000000000000000000000011111111110000000000000000000000000000000000001111111111000000000000
00000000000000000000000000000000000000111111111000000000000000000000000001000100011111111111111000000000000000000000000000000000000011111111110000000000000000000000000000000000011111111110000000000000
00000000000000000000000000001111111111111111111000000000000000000000000011111111111111111111111000000000000000000000000000000000000011111111110000000000000000000000000000000000111111111110000000000000
00000000000000000000000000001111111111111111110000000000000000000000000011111111111111111111110000000000000000000000000000000000000011111111110000000000000000000000000000000000111111111000000000000000
00000000000000000000000000011111111111111111100000000000000000000000000011111111111111111111100000000000000000000000000000000000000111111111100000000000000000000000000000000001111111110000000000000000
00000000000000000000000000011111111111111110000000000000000000000000000000111111111111111111000000000000000000000000000000000000000111111111100000000000000000000000000000000011111111100000000000000000
00000000000000000000000000111111111111111100000000000000000000000000000000001111111111111100000000000000000000000000000000000000000111111111100000000000000000000000000000000111111111100000000000000000
00000000000000000000000000111111111111110000000000000000000000000000000000000111111111110000000000000000000000000000000000000000001111111111100000000000000000000000000000000111111111000000000000000000
00000000000000000000000000001111111111100000000000000000000000000000000000000011111111100000000000000000000000000000000000000000000111111111000000000000000000000000000000000111111110000000000000000000
00000000000000000000000000000011111111110000000000000000000000000000000000000011111111110000000000000000000000000000000000000000001111111111100000000000000000000000000000001111111110000000000000000000
00000000000000000000000000000001111111111000000000000000000000000000000000000001111111111000000000000000000000000000000000000000001111111111000000000000000000000000000000001111111100000000000000000000
00000000000000000000000000000000011111111000000000000000000000000000000000000001111111111000000000000000000000000000000000000000011111111111000000000000000000000000000000011111111000000000000000000000
00000000000000000000000000000000011111111100000000000000000001000000000000000001111111111100000000000000000000000000000000000000011111111111000000000000000000000000000000011111111000000000000000000000
00000000000001110000000000000000011111111100000000000000000011110000000000000000111111111100000000000000000000000000000000000000111111111111000000000000000000000000000000111111110000000000000000000000
00000000000011111000000000000000011111111100000000000000000011110000000000000000111111111100000000000000000000000000000000000000111111111110000000000000000000000000000000111111110000000000000000000000
00000000000011111110000000000000011111111100000000000000000011111000000000000001111111111110000000000000000000000000000000000000111111111110000000000000000000000000000000111111100000000000000000000000
00000000000011111111000000000000011111111100000000000000000011111000000000000001111111111110000000000000000000000000000000000000111111111110000000000000000000000000000001111111100000000000000000000000
00000000000111111111110000000000111111111000000000000000000011110000000000000001111111111110000000000000000000000000000000000000111111111110000000000000000000000000000001111111100000000000000000000000
00000000000111111111111110000011111111111000000000000000000111111000000000000001111111111110000000000000000000000000000000000001111111111100000000000000000000000000000001111111000000000000000000000000
00000000000111111111111111111111111111110000000000000000001111111000000000000011111111111110000000000000000000000000000000000001111111111100000000000000000000000000000011111111000000000000000000000000
00000000000011111111111111111111111111110000000000000000001111111000000000000011111111111100000000000000000000000000000000000011111111111100000000000000000000000000000011111111000000000000000000000000
00000000000000111111111111111111111111110000000000000000001111111100000000000111111111111000000000000000000000000000000000000011111111111100000000000000000000000000000011111111000000000000000000000000
00000000000000001111111111111111111111100000000000000000000111111110000000001111111111111000000000000000000000000000000000000111111111111100000000000000000000000000000011111110000000000000000000000000
00000000000000000011111111111111111111100000000000000000000011111111100000111111111111111000000000000000000000000000000000000111111111111000000000000000000000000000000011111110000000000000000000000000
00000000000000000000011111111111111111000000000000000000000000111111111111111111111111111000000000000000000000000000000000000111111111111000000000000000000000000000000011111110000000000000000000000000
00000000000000000000001111111111111100000000000000000000000000001111111111111111111111110000000000000000000000000000000000001111111111110000000000000000000000000000000011111110000000000000000000000000
00000000000000000000000001111111110000000000000000000000000000000111111111111111111111100000000000000000000000000000000000001111111111111000000000000000000000000000000111111110000000000000000000000000
00000000000000000000000000000100000000000000000000000000000000000011111111111111111111000000000000000000000000000000000000011111111111110000000000000000000000000000000011111100000000000000000000000000
00000000000000000000000000000000000000000000000000000000000000000000001111111111111110000000000000000000000000000000000000011111111111110000000000000000000000000000000111111100000000000000000000000000
00000000000000000000000000000000000000000000000000000000000000000000000011111111110000000000000000000000000000000000000000111111111111110000000000000000000000000000000111111100000000000000000000000000
00000000000000000000000000000000000000000000000000000000000000000000000000000000000000000000000000000000000000000000000000111111111111100000000000000000000000000000000111100000000000000000000000000000
00000000000000000000000000000000000000000000000000000000000000000000000000000000000000000000000000000000000000000000000000111111111111100000000000000000000000000000000000000000000000000000000000000000
00000000000000000000000000000000000000000000000000000000000000000000000000000000000000000000000000000000000000000000000001111111111111000000000000000000000000000000000000000000000000000000000000000000
00000000000000000000000000000000000000000000000000000000000000000000000000000000000000000000000000000000000000000000000001111111111100000000000000000000000000000000000000000000000000000000000000000000
00000000000000000000000000000000000000000000000000000000000000000000000000000000000000000000000000000000000000000000000000100000000000000000000000000000000000000000000000000000000000000000000000000000
00000000000000000000000000000000000000000000000000000000000000000000000000000000000000000000000000000000000000000000000000000000000000000000000000000000000000000000000000000000000000000000000000000000
00000000000000000000000000000000000000000000000000000000000000000000000000000000000000000000000000000000000000000000000000000000000000000000000000000000000000000000000000000000000000000000000000000000
00000000000000000000000000000000000000000000000000000000000000000000000000000000000000000000000000000000000000000000000000000000000000000000000000000000000000000000000000000000000000000000000000000000
00000000000000000000000000000000000000000000000000000000000000000000000000000000000000000000000000000000000000000000000000000000000000000000000000000000000000000000000000000000000000000000000000000000
00000000000000000000000000000000000000000000000000000000000000000000000000000000000000000000000000000000000000000000000000000000000000000000000000000000000000000000000000000000000000000000000000000000
00000000000000000000000000000000000000000000000000000000000000000000000000000000000000000000000000000000000000000000000000000000000000000000000000000000000000000000000000000000000000000000000000000000
00000000000000000000000000000000000000000000000000000000000000000000000000000000000000000000000000000000000000000000000000000000000000000000000000000000000000000000000000000000000000000000000000000000
