P1
200 72
00000000000000000000000000000000000000000000000000000000000000000000000000000000000000000000000000000000000000000000000000000000000000000000000000000000000000000000000000000000000000000000000000000000
00000000000000000000000000000000000000000000000000000000000000000000000000000000000000000000000000000000000000000000000000000000000000000000000000000000000000000000000000000000000000000000000000000000
00000000000000000000000000000000000000000000000000000000000000000000000000000000000000000000000000000000000000000000000000000000000000000000000000000000000000000000000000000000000000000000000000000000
00000000000000000000000000000000000000000000000000000000000000000000000000000000000000000000000000000000000000000000000000000000000000000000000000000000000000000000000000000000000000000000000000000000
00000000000000000000000000000000000000000000000000000000000000000000000000000000000000000000000000000000000000000000000000000000000000000000000000000000000000000000000000000000000000000000000000000000
00000000000000000000000000000000000000000000000000000000000000000000000000000000000000000000000000000000000000000000000000000000000000000000000000000000000000000000000000000000000000000000000000000000
00000000000000000000000000000000000000000000000000000000000000000000000000000000000000000000000000000000000000000000000000000000000000000000000000000000000000000000000000000000000000000000000000000000
00000000000000000000000000000000000000000000000000000000000000000000000000000000000000000000000000000000000000000000000000000000000000000000000000000000000000000000000000000000000000000000000000000000
00000000000000000000000000000000000000000000000000000000000000000000000000000000000000000000000000000000000000000000000000000000000000000000000000000000000000000000000000000000000000000000000000000000
00000000000000000111111111100000000000000000000000000000000000000000000000000000000000000000000000000000000000000000000000000000000000000000000000000000000000000000000000000000000000000000000000000000
00000000000000111111111111111111100000000000000000000000000000000000000000000000000000000000000000000000000000000000000000000000000000000000000000000000000000000000000000000000000000000000000000000000
00000000000001111111111111111111111000000000000000000000000000000000000000000000000000000000000000000000000000000000000000000000000000000000000000000000000000000000000000000000000000000000000000000000
00000000000001111111111111111111111100000000000000000000000000000000000000000000000000000000000000000000000000000000000000000000000000000000000000000000000000000000000000000000000000000000000000000000
00000000000001111111111111111111111100000000000000000000000000000000000000000000000000000000000000000000000000000000000000000000000000000000000000000000000000000000000000000111111110111000000000000000
00000000000001111110000001111111111110000000000000000000000000000000000000000000000000000000000000000000000000000000000000000000000000000000000000000000000000000000000000000111111111111111111110000000
00000000000001111100000000011111111111000000000000000000000000000000000000000000000000000000000000000000000000000000000000000000000000000000000000000000000000000000000000000111111111111111111111111111
00000000000011111100000000011111111111000000000000000000000000000000000000000000000000000111000000000000000000000000000000000000000000000000000000000000000000000000000000001111111111111111111111111111
00000000000001111100000000001111111111100000000000000000000000000000000000000000000000001111100000000000000000000000000000000000000000000000000000000000000000000000000000011111111111111111111111111111
00000000000001111000000000001111111111100000000000000000000000000000000000000000000000011111100000000000000000000000001111111100000000000000000000000000000000000000000000011111111111111111111111111111
00000000000001111000000000001111111111100000000000000000000000000000000000000000000000011111100000000000000000000000011111111110000000000000000000000000000000000000000000011111111111111111111111111111
00000000000001111000000000000111111111100000000000000000000000000000000000000000000000011111100000000000000000000001111111111111100000000000000000000000000000000000000000111111111111111111111111111111
00000000000000110000000000000111111111100000000000000000000000000000000000000000000000111111000000000000000000000011111111111111110000000000000000000000000000000000000001111111111111111111111111111111
00000000000000000000000000000111111111100000000000000000000000000000000000000000000001111111000000000000000000000111111111111111110000000000000000000000000000000000000001111111111111001111111111111111
00000000000000000000000000000111111111100000000000000000000000000000000000000000000001111111000000000000000000001111111111111111111000000000000000000000000000000000000001111111111110000000000000001111
00000000000000000000000000001111111111100000000000000000000000000000000000000000000011111111000000000000000000011111111111111111111000000000000000000000000000000000000001111111111100000000000000000000
00000000000000000000000000001111111111110000000000000000000000000000000000000000000111111110000000000000000000011111111111111111111100000000000000000000000000000000000011111111111100000000000000000000
00000000000000000000000000001111111111100000000000000000000000000000000000000000001111111111000000000000000000011111111100111111111100000000000000000000000000000000000011111111111100000000000000000000
00000000000000000000000000001111111111100000000000000000000000000000000000000000011111111111000000000000000000111111111000011111111100000000000000000000000000000000000111111111111111111110000000000000
00000000000000000000000000011111111111100000000000000000000000000000000000000000111111111111000000000000000000111111110000001111111110000000000000000000000000000000000111111111111111111111111000000000
00000000000000000000000000111111111111000000000000000000000000000000000000000000111111111110000000000000000001111111110000001111111110000000000000000000000000000000001111111111111111111111111111000000
00000000000000000000000001111111111110000000000000000000000000000000000000000001111111111110000000000000000001111111100000000111111111000000000000000000000000000000001111111111111111111111111111100000
00000000000000000000111111111111111110000000000000000000000000000000000000000011111001111110000000000000000001111111100000000111111111000000000000000000000000000000001111111111111111111111111111110000
00000000000000000000111111111111111100000000000000000000000000000000000000000111111001111110000000000000000001111111100000000111111111000000000000000000000000000000001111111111111111111111111111111000
00000000000000000000111111111111111000000000000000000000000000000000000000001111110001111100000000000000000001111111100000000111111111000000000000000000000000000000011111111111111111111111111111111000
00000000000000000000111111111111110000000000000000000000000000000000000000011111100001111100000000000000000011111111100000000011111111100000000000000000000000000000011111111111111111111111111111111000
00000000000000000000011111111111111100000000000000000000000000000000000000011111000001111100000000000000000011111111100000000011111111100000000000000000000000000000111111000000000011111111111111111100
00000000000000000000000001111111111110000000000000000000000000000000000001111110000011111100000000000000000011111111100011111011111111100000000000000000000000000000011000000000000000111111111111111100
00000000000000000000000000111111111111000000000000000000000000000000000011111100000011111100000000000000000011111111100111111111111111100000000000000000000000000000000000000000000000011111111111111100
00000000000000000000000000011111111111000000000000000000000000000000000111111000000011111100000000000000000011111111101111111111111111100000000000000000000000000000000000000000000000011111111111111000
00000000000000000000000000001111111111100000000000000000000000000000011111110000000011111100000000000000000011111111101111111111111111110000000000000000000000000000000000000000000000001111111111111000
00000000000000000000000000001111111111110000000000000000000000000000111111100000000111111000000000000000000011111111100111111111111111110000000000000000000000000000000000000000000000011111111111111000
00000000000000000000000000000111111111110000000000000000000000000001111110000000000111111000000000000000000001111111100111111101111111110000000000000000000000000000000000000000000000011111111111111000
00000000000000000000000000000111111111110000000000000000000000000011111100000000000111111000000000000000000001111111100011111001111111110000000000000000000000000000000000000000000000111111111111110000
00000000000000000000000000000011111111110000000000000000000000000111111110000000001111111000000000000000000001111111110000000001111111110000000000000000000000000000000000000000000001111111111111100000
00000000000000000000000000000011111111110000000000000000000000000111111111110000001111110000000000000000000001111111110000000001111111110000000000000000000000001110000000000000000001111111111111100000
00000000000000000000000000000111111111111000000000000000000000001111111111111111111111111000000000000000000001111111110000000001111111111000000000000000000000011111100000000000000111111111111111000000
00000000000000000000000000000111111111111000000000000000000000001111111111111111111111111111100000000000000001111111110000000001111111111000000000000000000000111111111100000001111111111111111110000000
00000000000011100000000000000011111111111000000000000000000000001111111111111111111111111111110000000000000001111111110000000001111111110000000000000000000000111111111111111111111111111111111100000000
00000000000011110000000000000011111111111000000000000000000000000000000011111111111111111111110000000000000001111111110000000001111111110000000000000000000000111111111111111111111111111111111000000000
00000000000011110000000000000011111111111000000000000000000000000000000000000011111111111111110000000000000001111111110000000001111111110000000000000000000001111111111111111111111111111111110000000000
00000000000111110000000000000011111111111000000000000000000000000000000000000000111111111111110000000000000000111111111000000011111111110000000000000000000001111111111111111111111111111111000000000000
00000000000111110000000000000111111111111000000000000000000000000000000000000000111111111111110000000000000000111111111100000011111111111000000000000000000001111111111111111111111111111100000000000000
00000000000111111000000000000111111111110000000000000000000000000000000000000000111111100000000000000000000000111111111111000111111111110000000000000000000000111111111111111111111111110000000000000000
00000000000111111000000000001111111111110000000000000000000000000000000000000001111111100000000000000000000000111111111111111111111111110000000000000000000000011111111111111111111111000000000000000000
00000000000111111100000000001111111111110000000000000000000000000000000000000001111111100000000000000000000000011111111111111111111111110000000000000000000000000011111111111111111000000000000000000000
00000000000111111100000000011111111111110000000000000000000000000000000000000001111111100000000000000000000000001111111111111111111111100000000000000000000000000000000001000000000000000000000000000000
00000000000111111110000000111111111111100000000000000000000000000000000000000011111111000000000000000000000000001111111111111111111111000000000000000000000000000000000000000000000000000000000000000000
00000000000111111111111111111111111111000000000000000000000000000000000000000011111111000000000000000000000000000111111111111111111111000000000000000000000000000000000000000000000000000000000000000000
00000000000011111111111111111111111110000000000000000000000000000000000000000001111111000000000000000000000000000000111111111111111110000000000000000000000000000000000000000000000000000000000000000000
00000000000011111111111111111111111100000000000000000000000000000000000000000000001110000000000000000000000000000000001111111111110000000000000000000000000000000000000000000000000000000000000000000000
00000000000000111111111111111111111000000000000000000000000000000000000000000000000000000000000000000000000000000000000001111001100000000000000000000000000000000000000000000000000000000000000000000000
00000000000000000111111111111111100000000000000000000000000000000000000000000000000000000000000000000000000000000000000000000000000000000000000000000000000000000000000000000000000000000000000000000000
00000000000000000000000011111110000000000000000000000000000000000000000000000000000000000000000000000000000000000000000000000000000000000000000000000000000000000000000000000000000000000000000000000000
00000000000000000000000000000000000000000000000000000000000000000000000000000000000000000000000000000000000000000000000000000000000000000000000000000000000000000000000000000000000000000000000000000000
00000000000000000000000000000000000000000000000000000000000000000000000000000000000000000000000000000000000000000000000000000000000000000000000000000000000000000000000000000000000000000000000000000000
00000000000000000000000000000000000000000000000000000000000000000000000000000000000000000000000000000000000000000000000000000000000000000000000000000000000000000000000000000000000000000000000000000000
00000000000000000000000000000000000000000000000000000000000000000000000000000000000000000000000000000000000000000000000000000000000000000000000000000000000000000000000000000000000000000000000000000000
00000000000000000000000000000000000000000000000000000000000000000000000000000000000000000000000000000000000000000000000000000000000000000000000000000000000000000000000000000000000000000000000000000000
00000000000000000000000000000000000000000000000000000000000000000000000000000000000000000000000000000000000000000000000000000000000000000000000000000000000000000000000000000000000000000000000000000000
00000000000000000000000000000000000000000000000000000000000000000000000000000000000000000000000000000000000000000000000000000000000000000000000000000000000000000000000000000000000000000000000000000000
00000000000000000000000000000000000000000000000000000000000000000000000000000000000000000000000000000000000000000000000000000000000000000000000000000000000000000000000000000000000000000000000000000000
00000000000000000000000000000000000000000000000000000000000000000000000000000000000000000000000000000000000000000000000000000000000000000000000000000000000000000000000000000000000000000000000000000000
