P1
200 72
00000000000000000000000000000000000000000000000000000000000000000000000000000000000000000000000000000000000000000000000000000000000000000000000000000000000000000000000000000000000000000000000000000000
00000000000000000000000000000000000000000000000000000000000000000000000000000000000000000000000000000000000000000000000000000000000000000000000000000000000000000000000000000000000000000000000000000000
00000000000000000000000000000000000000000000000000000000000000000000000000000000000000000000000000000000000000000000000000000000000000000000000000000000000000000000000000000000000000000000000000000000
00000000000000000000000000000000000000000000000000000000000000000000000000000000000000000000000000000000000000000000000000000000000000000000000000000000000000000000000000000000000000000000000000000000
00000000000000000000000000000000000000000000000000000000000000000000000000000000000000000000000000000000000000000000000000000000000000000000000000000000000000000000000000000000000000000000000000000000
00000000000000000000000000000000000000000000000000000000000000000000000000000000000000000000000000000000000000000000000000000000000000000000000000000000000000000000000000000000000000000000000000000000
00000000000000000000000000000000000000000000000000000000000000000000000000000000000000000000000000000000000000000000000000000000000000000000000000000000000000000000000000000000000000000000000000000000
00000000000000000000000000000000000000000000000000000000000000000000000000000000000000000000000000000000000000000000000000000000000000000000000000000000000000000000000000000000000000000000000000000000
00000000000000000000000000000000000000000000000000000000000000000000000000000000000000000000000000000000000000000000000000000000000000000000000000000000000000000000000000000000000000000000000000000000
00000000000000000000000000000000000000000000000000000000001111100000000000000000000000000000000000000000000000000000000000000000000000000000000000000000000000000000000000000000000000000000000000000000
00000000000000000000000000000000000000000000000000000000001111111111000000000000000000000000000000000000000000000000000000000000000000000000000000000000000000000000000000000000000000000000000000000000
00000000000000000000000000000000000000000000000000000000001111111111111100000000000000000000000000000000000000000000000000000000000000000000000000000000000000000000000000000000000000000000000000000000
00000000000000000000000000000000000000000000000000000000001111111111111111111000000000000000000000000000000000000000000000000000000000000000000000000000000000000000000000000000000000000000000000000000
00000000000000000000000000000000000000000000000000000000001111111111111111111111111111000000000000000000000000000000000000000000000000000000000000000000000000000000000000000000000000000000000000000000
00000000000000000000000000000000000000000000000000000000001111111111111111111111111111111110000000000000000000000000000000000000000000000000000000000000000000000000000000000000000000000000000000000000
00000000000000000000000000000000000000000000000000000000001111111111111111111111111111111111000000000000000000000000000000000000000000000000000000000000000000000000000000000001111110000000000000000000
00000000000000000000000000000000000000000000000000000000001111111111111111111111111111111111000000000000000000000000000000000000000000000000000000000000000000000000000000000111111110000000000000000000
00000000000000000000000000000110001110000000000000000000001111111111111111111111111111111111000000000000000000000000000000000000000000000000000000000000000000000000000000000111111110000000000000000000
00000000000000000000000011111111111111100000000000000000001111111111111111111111111111111111000000000000000000000000000000000000000000000000000000000000000000000000000000001111111100000000000000000000
00000000000000000000000111111111111111111000000000000000001111111111111111111111111111111111100000000000000000000000000000000000000000000000000000000000000000000000000000011111111100000000000000000000
00000000000000000000000111111111111111111100000000000000000011111111111111111111111111111111100000000000000000000000000000000000000000000000000000000000000000000000000000111111111100000000000000000000
00000000000000000000001111111111111111111100000000000000000000000111111111111111111111111111100000000000000000000000000000000000000111111000000000000000000000000000000000111111111100000000000000000000
00000000000000000000001111111111111111111100000000000000000000000000000111111111111111111111000000000000000000000000000000000000111111111000000000000000000000000000000000111111111100000000000000000000
00000000000000000000001111111111111111111110000000000000000000000000000000000001111111111111000000000000000000000000000011001111111111111000000000000000000000000000000001111111111100000000000000000000
00000000000000000000001111111111111111111111000000000000000000000000000000000001111111111111000000000000000000000000111111111111111111111000000000000000000000000000000001111111111100000000000000000000
00000000000000000000001111111111111111111111000000000000000000000000000000000001111111111111000000000000000000000011111111111111111111110000000000000000000000000000000011111111111100000000000000000000
00000000000000000000001111111100001111111110000000000000000000000000000000000011111111111111000000000000000000000111111111111111111111000000000000000000000000000000000011110011111100000000000000000000
00000000000000000000011110000000000111111110000000000000000000000000000000000011111111111110000000000000000000000111111111111111100000000000000000000000000000000000000111110011111100000000000000000000
00000000000000000000000000000000000111111110000000000000000000000000000000000111111111111110000000000000000000000111111100000000000000000000000000000000000000000000001111100011111100000000000000000000
00000000000000000000000000000000000011111111000000000000000000000000000000000111111111111100000000000000000000000111111000000000000000000000000000000000000000000000001111100011111100000000000000000000
00000000000000000000000000000000000111111110000000000000000000000000000000000111111111111100000000000000000000000111111000000000000000000000000000000000000000000000011111000011111100000000000000000000
00000000000000000000000000000000000111111110000000000000000000000000000000001111111111111100000000000000000000001111111000000000000000000000000000000000000000000000011111000011111000000000000000000000
00000000000000000000000000000000001111111100000000000000000000000000000000001111111111111000000000000000000000001111111000000000000000000000000000000000000000000000011110000011111100000000000000000000
00000000000000000000000000000000011111111000000000000000000000000000000000001111111111111000000000000000000000001111111000000000000000000000000000000000000000000000111110000011111100000000000000000000
00000000000000000000000000000001111111111000000000000000000000000000000000001111111111111000000000000000000000001111111000000000000000000000000000000000000000000000111100000011111100000000000000000000
00000000000000000000000000111011111111110000000000000000000000000000000000001111111111111000000000000000000000001111111000000011100000000000000000000000000000000000111100000011111100000000000000000000
00000000000000000000000001111111111111100000000000000000000000000000000000011111111111110000000000000000000000001111111111111111111100000000000000000000000000000001111100000011111100000000000000000000
00000000000000000000000001111111111111000000000000000000000000000000000000011111111111110000000000000000000000001111111111111111111110000000000000000000000000000001111000000011111100000000000000000000
00000000000000000000000001111111111110000000000000000000000000000000000000111111111111100000000000000000000000001111111111111111111111000000000000000000000000000011111000000011111100000000000000000000
00000000000000000000000011111111111111000000000000000000000000000000000000111111111111100000000000000000000000001111111111111111111111000000000000000000000000000011110000000011111100000000000000000000
00000000000000000000000011111111111111000000000000000000000000000000000000111111111111100000000000000000000000001111111111111111111111000000000000000000000000000011110000000011111100001100000000000000
00000000000000000000000011111111111111100000000000000000000000000000000001111111111111000000000000000000000000001111111100000000111111100000000000000000000000000011110000000011111111111100000000000000
00000000000000000000000011111111111111110000000000000000000000000000000001111111111111000000000000000000000000000111110000000000011111100000000000000000000000000111110000000011111111111100000000000000
00000000000000000000000011111111111111110000000000000000000000000000000011111111111111000000000000000000000000000000000000000000011111110000000000000000000000000111100000000111111111111000000000000000
00000000000000000000000001111111111111110000000000000000000000000000000011111111111111000000000000000000000000000000000000000000001111110000000000000000000000000111100001111111111111110000000000000000
00000000000000000000000000000000111111110000000000000000000000000000000111111111111111000000000000000000000000000000000000000000001111110000000000000000000000000111100011111111111111000000000000000000
00000000000000000000000000000000111111111000000000000000000000000000000111111111111110000000000000000000000000000000000000000000001111110000000000000000000000001111111111111111111100000000000000000000
00000000000000000000000000000000111111111000000000000000000000000000000111111111111110000000000000000000000000000000000000000000001111110000000000000000000000001111111111111111111100000000000000000000
00000000000000000000000000000000011111111000000000000000000000000000000111111111111100000000000000000000000000000000000000000000001111110000000000000000000000001111111111110001111100000000000000000000
00000000000000000000000000000000111111110000000000000000000000000000000111111111111100000000000000000000000000011111000000000000001111110000000000000000000000000111111100000001111100000000000000000000
00000000000000000000000000000000111111110000000000000000000000000000000111111111111000000000000000000000000000011111000000000000011111110000000000000000000000000111100000000001111100000000000000000000
00000000000000000000000000000000111111110000000000000000000000000000001111111111111000000000000000000000000000011111100000000000011111100000000000000000000000000111000000000001111110010000000000000000
00000000000000000000000000000000111111110000000000000000000000000000001111111111111000000000000000000000000000011111110000000000111111100000000000000000000000000000000000000001111111111000000000000000
00000000000000000000000000000001111111110000000000000000000000000000001111111111110000000000000000000000000000001111111000000001111111000000000000000000000000000000000000000001111111111000000000000000
00000000000000000000000000000011111111110000000000000000000000000000011111111111110000000000000000000000000000001111111110000011111111000000000000000000000000000000000000000001111111111000000000000000
00000000000000000000000000000011111111100000000000000000000000000000011111111111110000000000000000000000000000000111111111111111111111000000000000000000000000000000000000001111111111110000000000000000
00000000000000000000000000001111111111000000000000000000000000000000111111111111110000000000000000000000000000000011111111111111111110000000000000000000000000000000000000011111111111000000000000000000
00000000000000000000000000111111111111000000000000000000000000000000111111111111110000000000000000000000000000000001111111111111111100000000000000000000000000000000000000011111110000000000000000000000
00000000000000001111111111111111111111000000000000000000000000000000111111111111100000000000000000000000000000000000011111111111111000000000000000000000000000000000000000011111100000000000000000000000
00000000000000001111111111111111111110000000000000000000000000000001111111111111100000000000000000000000000000000000000011111111110000000000000000000000000000000000000000011100000000000000000000000000
00000000000000001111111111111111111110000000000000000000000000000001111111111111000000000000000000000000000000000000000000011000000000000000000000000000000000000000000000000000000000000000000000000000
00000000000000001111111111111111111100000000000000000000000000000001111111111111000000000000000000000000000000000000000000000000000000000000000000000000000000000000000000000000000000000000000000000000
00000000000000011111111111111111110000000000000000000000000000000011111111111111000000000000000000000000000000000000000000000000000000000000000000000000000000000000000000000000000000000000000000000000
00000000000000011111111111111111100000000000000000000000000000000011100000000000000000000000000000000000000000000000000000000000000000000000000000000000000000000000000000000000000000000000000000000000
00000000000000001111111111111111100000000000000000000000000000000000000000000000000000000000000000000000000000000000000000000000000000000000000000000000000000000000000000000000000000000000000000000000
00000000000000001111111111111110000000000000000000000000000000000000000000000000000000000000000000000000000000000000000000000000000000000000000000000000000000000000000000000000000000000000000000000000
00000000000000001111111111111100000000000000000000000000000000000000000000000000000000000000000000000000000000000000000000000000000000000000000000000000000000000000000000000000000000000000000000000000
00000000000000001111111111000000000000000000000000000000000000000000000000000000000000000000000000000000000000000000000000000000000000000000000000000000000000000000000000000000000000000000000000000000
00000000000000000011100000000000000000000000000000000000000000000000000000000000000000000000000000000000000000000000000000000000000000000000000000000000000000000000000000000000000000000000000000000000
00000000000000000000000000000000000000000000000000000000000000000000000000000000000000000000000000000000000000000000000000000000000000000000000000000000000000000000000000000000000000000000000000000000
00000000000000000000000000000000000000000000000000000000000000000000000000000000000000000000000000000000000000000000000000000000000000000000000000000000000000000000000000000000000000000000000000000000
00000000000000000000000000000000000000000000000000000000000000000000000000000000000000000000000000000000000000000000000000000000000000000000000000000000000000000000000000000000000000000000000000000000
