P1
200 72
00000000000000000000000000000000000000000000000000000000000000000000000000000000000000000000000000000000000000000000000000000000000000000000000000000000000000000000000000000000000000000000000000000000
00000000000000000000000000000000000000000000000000000000000000000000000000000000000000000000000000000000000000000000000000000000000000000000000000000000000000000000000000000000000000000000000000000000
00000000000000000000000000000000000000000000000000000000000000000000000000000000000000000000000000000000000000000000000000000000000000000000000000000000000000000000000000000000000000000000000000000000
00000000000000000000000000000000000000000000000000000000000000000000000000000000000000000000000000000000000000000000000000000000000000000000000000000000000000000000000000000000000000000000000000000000
00000000000000000000000000000000000000000000000000000000000000000000000000000000000000000000000000000000000000000000000000000000000000000000000000000000000000000000000000000000000000000000000000000000
00000000000000000000000000000000000000000000000000000000000000000000000000000000000000000000000000000000000000000000000000000000000000000000000000000000000000000000000000000000000000000000000000000000
00000000000000000000000000000000000000000000000000000000000000000000000000000000000000000000000000000000000000000000000000000000000000000000000000000000000000000000000000000000000000000000000000000000
00000000000000000000000000000000000000000000000000000000000000000000000000000000000000000000000000000000000000000000000000000000000000000000000000000000000000000000000000000000000000000000000000000000
00000000000000000000000000000000000000000000000000000000000000000000000000000000000000000000000000000000000000000000000000000000000000000000000000000000000000000000000000000000000000000000000000000000
00000000000000000000000000000000000000000000000000000000000000000000000000000000000000000000000000000000000000000000000000000000000000000000000000000000000000000000000000000000000000000000000000000000
00000000000000000000000000000000000000000000000000000000000000000000000000000000000000000000000000000000000000000000000000000000000000000000000000000000000000000000000000000000000000000000000000000000
00000000000000000000000000000000000000000000000000000000000000000000000000000000000000000000000000000000000000000000000000000000000000000000000000000000000000000000000000000000000000000000001110000000
00000000000000000000000000000000000000000000000000000000000000000000000000000000000000000000000000000000000000000000000000000000000000000000000000000000000000000000000000000000000000000000011110000000
00000000000000000000000000000000000000000000000000000000000000000000000000000000000000000000000000000000000000000000000000000000000000000000000000000000000000000000000000000000000000000011111110000000
00000000000000000000000000000000000000000000000000000000000000000000000000000000000000000000000000000000000000000000000000000000000000000000000000000000000000000000000000000000000000001111111111000000
00000000000000000000000000000000000000000000000000000000000000000000000000000000000000000000000000000000000000000000000000000000000000000000000000000000000000000000000000000000000000011111111111000000
00000000000000000000000000000000000000000000000000000000000000000000000000000000000000000000000000000000000000000000111111111110011101110111001100000000000000000000000000000000000011111111111110000000
00000000000000000000000000000000000000000000000000000000000000000000000000000000000000000000000000000000000000000000111111111111111111111111111111100000000000000000000000000000001111111111111110000000
00000000000000000000000000000000000000000000000000000000000000000000000000000000000000000000000000000000000000000001111111111111111111111111111111100000000000000000000000000000011111111111111110000000
00000000000000000000000000000000000000000000000000000000000000000000000000000000000000000000000000000000000000000001111111111111111111111111111111000000000000000000000000000011111111111111111110000000
00000000000000000000010000000000000000000000000000000000000000000000000000000000000000000000000000000000000000000011111111111111111111111111111110000000000000000000000000001111111111111111111110000000
00000000000011111111111110000000000000000000000000000000000000000000000000000000000000000000000000000000000000000011111111111111111111111111111110000000000000000000000000011111111111111111111110000000
00000000000011111111111111000000000000000000000000000000000001111111011000000000000000000000000000000000000000000011111111111111111111111111111100000000000000000000000011111111111111111111111110000000
00000000000111111111111111100000000000000000000000000000111111111111111110000000000000000000000000000000000000000011111111111111111111111111111000000000000000000000001111111111111111111111111100000000
00000000000111110001111111100000000000000000000000000001111111111111111111110000000000000000000000000000000000000111111110011111111111111111110000000000000000000000111111111111111111111111111100000000
00000000000111100000111111110000000000000000000000000011111111111111111111111100000000000000000000000000000000000111100000000000000000010001100000000000000000000111111111111111111111101111111000000000
00000000000111000000111111110000000000000000000000000011111111111111111111111110000000000000000000000000000000001111100000000000000000000000000000000000000000001111111111111111111111001111110000000000
00000000001111000000011111110000000000000000000000000111111111111111111111111111000000000000000000000000000000001111000000000000000000000000000000000000000000011111111111111111111000001111110000000000
00000000001111000000011111100000000000000000000000000111111111111111111111111111100000000000000000000000000000001111000000000000000000000000000000000000000000011111111111111111100000001111110000000000
00000000001110000000011111100000000000000000000000000111111111111000001111111111100000000000000000000000000000001111000000000000000000000000000000000000000000111111111111111110000000011111100000000000
00000000000000000000111111110000000000000000000000001111111111110000000011111111100000000000000000000000000000011111001111111100000000000000000000000000000000111111111111110000000000111111100000000000
00000000000000000000111111110000000000000000000000001111111111100000000001111111110000000000000000000000000000011111111111111111100000000000000000000000000000111111111111000000000000111111000000000000
00000000000000000000111111100000000000000000000000000111111111000000000001111111110000000000000000000000000000111111111111111111111000000000000000000000000000111111111100000000000000111111000000000000
00000000000000000001111111100000000000000000000000000011111111100000000001111111110000000000000000000000000000111111111111111111111100000000000000000000000000111111100000000000000001111111000000000000
00000000000000000011111111000000000000000000000000000011111111100000000001111111100000000000000000000000000000111111111111111111111110000000000000000000000000111111000000000000000001111111000000000000
00000000000001111111111111000000000000000000000000000011111111110000000011111111100000000000000000000000000000111110000001111111111110000000000000000000000000111111000000000000000011111110000000000000
00000000000001111111111110000000000000000000000000000001111111110000000111111111100000000000000000000000000000111100000000111111111111000000000000000000000000111111000000000000000011111110000000000000
00000000000001111111111100000000000000000000000000000000111111111110011111111111000000000000000000000000000000010000000000111111111111000000000000000000000000111111000000000000000111111100000000000000
00000000000001111111111000000000000000000000000000000000011111111111111111111100000000000000000000000000000000000000000000011111111110000000000000000000000001111111000000000000000111111100000000000000
00000000000000011111111100000000000000000000000000000000011111111111111111111000000000000000000000000000000000000000000000011111111111000000000000000000000001111110000000000000000111111000000000000000
00000000000000000111111100000000000000000000000000000000001111111111111111111100000000000000000000000000000000000000000000011111111111000000000000000000000001111110000000000000000111111000000000000000
00000000000000000011111100000000000000000000000000000000000001111111111111111111000000000000000000000000000000000000000000111111111110000000000000000000000000110000000000000000001111110000000000000000
00000000000000000011111110000000000000000000000000000000000001111111111111111111100000000000000000000000000000000000000000111111111110000000000000000000000000000000000000000000001111110000000000000000
00000000000000000001111110000000000000000000000000000000000011111111111111111111110000000000000000000000000000000000000001111111111100000000000000000000000000000000000000000000011111100000000000000000
00000000000000000001111111000000000000000000000000000000000111111111110011111111110000000000000000000000000000000000000001111111111100000000000000000000000000000000000000000000111111100000000000000000
00000011100000000001111111000000000000000000000000000000001111111110000000111111111000000000000000000000000000000000000011111111111100000000000000000000000000000000000000000000111111000000000000000000
00000011110000000001111111000000000000000000000000000000001111111100000000011111111000000000000000000000000000000000000011111111111000000000000000000000000000000000000000000001111111000000000000000000
00000011100000000001111111000000000000000000000000000000001111111100000000011111111000000000000000000000011100000000000011111111111000000000000000000000000000000000000000000001111111000000000000000000
00000011100000000001111111000000000000000000000000000000001111111100000000001111111000000000000000000000111100000000000011111111110000000000000000000000000000000000000000000011111110000000000000000000
00000011110000000001111111000000000000000000000000000000011111111000000000001111111000000000000000000001111100000000000111111111100000000000000000000000000000000000000000000011111110000000000000000000
00000011110000000011111111000000000000000000000000000000011111111000000000001111111100000000000000000000111000000000001111111111100000000000000000000000000000000000000000000111111100000000000000000000
00000011110000000011111111000000000000000000000000000000001111111100000000011111111000000000000000000001111000000000011111111111000000000000000000000000000000000000000000000111111100000000000000000000
00000011111100000111111110000000000000000000000000000000001111111100000000011111111000000000000000000001111000000000011111111111000000000000000000000000000000000000000000001111111000000000000000000000
00000001111111111111111110000000000000000000000000000000001111111110000000111111110000000000000000000011111100000001111111111100000000000000000000000000000000000000000000001111111000000000000000000000
00000000111111111111111100000000000000000000000000000000001111111110000001111111110000000000000000000011111100000011111111111100000000000000000000000000000000000000000000011111110000000000000000000000
00000000001111111111111100000000000000000000000000000000000111111111111011111111110000000000000000000011111111001111111111111000000000000000000000000000000000000000000000011111110000000000000000000000
00000000000001111111111000000000000000000000000000000000000011111111111111111111100000000000000000000011111111111111111111100000000000000000000000000000000000000000000000111111100000000000000000000000
00000000000000111110000000000000000000000000000000000000000011111111111111111111000000000000000000000001111111111111111110000000000000000000000000000000000000000000000000111111100000000000000000000000
00000000000000000000000000000000000000000000000000000000000011111111111111111110000000000000000000000000001111111111111100000000000000000000000000000000000000000000000001111111000000000000000000000000
00000000000000000000000000000000000000000000000000000000000001111111111111111000000000000000000000000000000111111111110000000000000000000000000000000000000000000000000011111111000000000000000000000000
00000000000000000000000000000000000000000000000000000000000000111111111111110000000000000000000000000000000000110000000000000000000000000000000000000000000000000000000011111110000000000000000000000000
00000000000000000000000000000000000000000000000000000000000000011111111111100000000000000000000000000000000000000000000000000000000000000000000000000000000000000000000111111110000000000000000000000000
00000000000000000000000000000000000000000000000000000000000000000111111100000000000000000000000000000000000000000000000000000000000000000000000000000000000000000000000111111100000000000000000000000000
00000000000000000000000000000000000000000000000000000000000000000000000000000000000000000000000000000000000000000000000000000000000000000000000000000000000000000000001111111000000000000000000000000000
00000000000000000000000000000000000000000000000000000000000000000000000000000000000000000000000000000000000000000000000000000000000000000000000000000000000000000000001111111000000000000000000000000000
00000000000000000000000000000000000000000000000000000000000000000000000000000000000000000000000000000000000000000000000000000000000000000000000000000000000000000000011111110000000000000000000000000000
00000000000000000000000000000000000000000000000000000000000000000000000000000000000000000000000000000000000000000000000000000000000000000000000000000000000000000000011111110000000000000000000000000000
00000000000000000000000000000000000000000000000000000000000000000000000000000000000000000000000000000000000000000000000000000000000000000000000000000000000000000000111111000000000000000000000000000000
00000000000000000000000000000000000000000000000000000000000000000000000000000000000000000000000000000000000000000000000000000000000000000000000000000000000000000000111000000000000000000000000000000000
00000000000000000000000000000000000000000000000000000000000000000000000000000000000000000000000000000000000000000000000000000000000000000000000000000000000000000000000000000000000000000000000000000000
00000000000000000000000000000000000000000000000000000000000000000000000000000000000000000000000000000000000000000000000000000000000000000000000000000000000000000000000000000000000000000000000000000000
00000000000000000000000000000000000000000000000000000000000000000000000000000000000000000000000000000000000000000000000000000000000000000000000000000000000000000000000000000000000000000000000000000000
