P1
200 72
00000000000000000000000000000000000000000000000000000000000000000000000000000000000000000000000000000000000000000000000000000000000000000000000000000000000000000000000000000000000000000000000000000000
00000000000000000000000000000000000000000000000000000000000000000000000000000000000000000000000000000000000000000000000000000000000000000000000000000000000000000000000000000000000000000000000000000000
00000000000000000000000000000000000000000000000000000000000000000000000000000000000000000000000000000000000000000000000000000000000000000000000000000000000000000000000000000000000000000000000000000000
00000000000000000000000000000000000000000000000000000000000000000000000000000000000000000000000000000000000000000000000000000000000000000000000000000000000000000000000000000000000000000000000000000000
00000000000000000000000000000000000000000000000000000000000000000000000000000000000000000000000000000000000000000000000000000000000000000000000000000000000000000000000000000000000000000000000000000000
00000000000000000000000000000000000000000000000000000000000000000000000000000000000000000000000000000000000000000000000000000000000000000000000000000000000000000000000000000000000000000000000000000000
00000000000000000000000000000000000000000000000000000000000000000000000000000000000000000000000000000000000000000000000000000000000000000000000000000000000000000000000000000000000000000000000000000000
00000000000000000000000000000000000000000000000000000000000000000000000000000000000000000000000000000000000000000000000000000000000000000000000000000000000000000000000000000000000000000000000000000000
00000000000000000000000000000000000000000000000000000000000000000000000000000000000000000000000000000000000000000000000000000000000000000000000000000000000000000000000000000000000000000000000000000000
00000000000000000000000000000000000000000000000000000000000000000000000000000000000000000000000000000000000000000000000000000000000000000000000000000000000000000000000000000000000000000000000000000000
00000000000000000000000000000000000000000000000000000000000000000000000000000000000000000000000000000000000000000000000000000000000000000000000000000000000000000000000000000000000000000000000000000000
00000000000000000000000000000000000000000000000000000000000000000000000010000000000000000000000000000000000000000000000000000000000000000000000000000000000000000000000000000000000000000000000000000000
00000000000000000000000000000000000000000000000000000000000000000001111111111110000000000000000000000000000000000000000000000000000000000000000000000000000000000000000000000000000000000000000000000000
00000000000000000000000000000000000000000000000000000000000000001111111111111111100000000000000000000000000000000000000000000000000000000000000010111000000000000000000000000000000000000000000000000000
00000000000000000000000000000000000000000000000000000000000011111111111111111111111000000000000000000000000000000000000000000000000000000000011111111111111110000000000000000000000000000000000000000000
00000000000000000000000000000000000000000000000000000000011111111111111111111111111100000000000000000000000000000000000000000000000000000001111111111111111111000000000000000000000000000000000000000000
00000000000000000000000000000000000000000000000000000000111111111111111111111111111110000000000000000000000000000000000000000000000000000011111111111111111111110000000000000000000000111111100000000000
00000000000000000000000000000000000000000000000000000001111111111110011111111111111111000000000000000000000000000000000000000000000000000011111111111111111111111000000000000000000001111111111000000000
00000000000000000110000000000000000000000000000000000011111111111100000011111111111111000000000000000000000000000000000000000000000000000111111110000011111111111100000000000000000011111111111110000000
00000000000000111111111100000000000000000000000000000111111111111000000001111111111111100000000000000000000000000000000000000000000000001111111100000001111111111110000000000000001111111111111111000000
00000000000001111111111111000000000000000000000000001111111111110000000000111111111111110000000000000000000000000000000000000000000000011111110000000000111111111110000000000000011111111111111111100000
00000000000111111111111111110000000000000000000000011111111111110000000000111111111111110000000000000000000000000000000000000000000000011111000000000000011111111111000000000000011111111111111111100000
00000000001111111111111111111000000000000000000000011111111111110000000000011111111111111000000000000000000000000000000000000000000000111111000000000000111111111111000000000000111111111111111111100000
00000000001111111111111111111110000000000000000000111111111111110000000000011111111111111000000000000000000000000000000000000000000000111110000000000000111111111111000000000001111111111111111111100000
00000000001111111111111111111111000000000000000000111111111111110000000000011111111111111000000000000000000000000000000000000000000000000000000000000000111111111111000000000001111111111111011111110000
00000000000011111100000001111111110000000000000000111111111111110000000000011111111111111100000000000000000000000000000000000000000000000000000000000000111111111111000000000001111111111000000111110000
00000000000001111000000000011111111000000000000000111111111111110000000000011111111111111100000000000000000000000000000000000000000000000000000000000001111111111110000000000001111111100000000011110000
00000000000000000000000000001111111000000000000000111111111111110000000000011111111111111110000000000000000000000000000000000000000000000000000000000011111111111110000000000001111111100000000000100000
00000000000000000000000000000111111100000000000001111111111111110000000000001111111111111110000000000000000000000000000000000000000000000000000000000011111111111110000000000011111111000000000000000000
00000000000000000000000000000011111100000000000000111111111111111000000000001111111111111100000000000000000000000000000000000000000000000000000000000111111111111100000000000011111111000000000000000000
00000000000000000000000000000011111110000000000000111111111111111000000000001111111111111110000000000000000000000000000000000000000000000000000000000111111111111000000000000011111111000111000000000000
00000000000000000000000000000011111110000000000000111111111111111000000000000111111111111110000000000000000000000000000000000000000000000000000000001111111111111000000000000011111111111111111100000000
00000000000000000000000000000011111110000000000000111111111111111000000000001111111111111110000000000000000000000000000000000000000000000000000000001111111111110000000000000011111111111111111110000000
00000000000000000000000000000111111110000000000000011111111111111100000000001111111111111110000000000000000000000000000000000000000000000000000000011111111111100000000000000111111111111111111111100000
00000000000000011110000000000111111100000000000000011111111111111100000000001111111111111111000000000000000000000000000000000000000000000000000001111111111111000000000000000111111111111111111111110000
00000000000000111111100000011111111100000000000000011111111111111110000000001111111111111111000000000000000000000000000000000000000000000000000011111111111100000000000000000111111111111111111111110000
00000000000000111111111111111111111100000000000000011111111111111110000000001111111111111110000000000000000000000000000000000000000000000000000111111111111000000000000000000111111111111111111111111000
00000000000000111111111111111111111100000000000000001111111111111110000000001111111111111110000000000000000000000000000000000000000000000000011111111111110000000000000000000111111111111111111111111100
00000000000000011111111111111111110000000000000000001111111111111110000000001111111111111111000000000000000000000000000000000000000000000001111111111110000000000000000000000111111111111001111111111100
00000000000000011111111111111111000000000000000000000111111111111111000000001111111111111111000000000000000000000000000000000000000000000111111111111100000000000000000000000111111111100000111111111100
00000000000000000011111111110000000000000000000000000111111111111111000000011111111111111111000000000000000000000000000000000000000000011111111111100000000000000000000000000111111111100000011111111100
00000000000000000000011111110000000000000000000000000011111111111111110001111111111111111111000000000000000000000000000000000000000011111111111100000000000000000000000000000111111111000000001111111100
00000000000000000000001111111000000000000000000000000001111111111111111111111111111111111111000000000000000000000000000000000000001111111111110000000000000000000000000000000111111111000000001111111110
00000000000000000000000111111000000000000000000000000000111111111111111111111111111111111111000000000000000000000000000000000000111111111111000000000000000000000000000000000111111111000000000111111110
00111000000000000000000111111100000000000000000000000000011111111111111111111001111111111110000000000000000000000000000000000111111111111100000000000001100000000000000000001111111111000000000111111110
11111110000000000000000111111100000000000000000000000000000111111111111111110001111111111110000000000000000000000000000000111111111111100000000000000011111000000000000000001111111111000000000111111110
11111110000000000000000111111100000000000000000000000000000001111111111011000001111111111111000000000000000000000000000011111111111100000000000000000111110000000000000000001111111111000000001111111110
11111110000000000000000111111100000000000000000000000000000000000110000000000001111111111110000000000000000000000000001111111111111000000000000000000111110000000000000000001111111111000000001111111110
11111110000000000000001111111100000000000000000000000000000000000000000000000001111111111110000000000000000000000001111111111111111111111001100000001111110000000000000000001111111111000000011111111110
11111111000000000000001111111100000000000000000000000000000000000000000000000001111111111110000000000000000000000001111111111111111111111111111111111111100000000000000000000111111111100000011111111100
11111111100000000000011111111000000000000000000000000000000000000000000000000000111111111110000000000000000000000011111111111111111111111111111111111111000000000000000000000111111111111111111111111100
11111111111000000001111111111000000000000000000000000000000000000000000000000000111111111110000000000000000000001111111111111111111111111111111111111111000000000000000000000111111111111111111111111000
01111111111110011111111111110000000000000000000000000000000000000000000000000001111111111100000000000000000000001111111111111111111111111111111111111111000000000000000000000111111111111111111111111000
00111111111111111111111111100000000000000000000000000000000000000000000000000001111111111100000000000000000000011111111111111111111111111111111111111110000000000000000000000111111111111111111111110000
00011111111111111111111111000000000000000000000000000000000001100000000000000001111111111100000000000000000000011111111111111111111111111111111111111100000000000000000000000011111111111111111111100000
00001111111111111111111100000000000000000000000000000000000111110000000000000001111111111000000000000000000000111111111111111111111111111111111111111100000000000000000000000011111111111111111111000000
00000011111111111111110000000000000000000000000000000000000111110000000000000011111111110000000000000000000000000000000011001100111011101111111111111000000000000000000000000001111111111111111000000000
00000000000011100000000000000000000000000000000000000000000011111000000000000011111111110000000000000000000000000000000000000000000000000000000000000000000000000000000000000000011111111110000000000000
00000000000000000000000000000000000000000000000000000000000011111100000000001111111111100000000000000000000000000000000000000000000000000000000000000000000000000000000000000000000111111000000000000000
00000000000000000000000000000000000000000000000000000000000011111111000000011111111111000000000000000000000000000000000000000000000000000000000000000000000000000000000000000000000000000000000000000000
00000000000000000000000000000000000000000000000000000000000001111111111111111111111110000000000000000000000000000000000000000000000000000000000000000000000000000000000000000000000000000000000000000000
00000000000000000000000000000000000000000000000000000000000001111111111111111111111100000000000000000000000000000000000000000000000000000000000000000000000000000000000000000000000000000000000000000000
00000000000000000000000000000000000000000000000000000000000001111111111111111111111000000000000000000000000000000000000000000000000000000000000000000000000000000000000000000000000000000000000000000000
00000000000000000000000000000000000000000000000000000000000001111111111111111111000000000000000000000000000000000000000000000000000000000000000000000000000000000000000000000000000000000000000000000000
00000000000000000000000000000000000000000000000000000000000000111111111111011000000000000000000000000000000000000000000000000000000000000000000000000000000000000000000000000000000000000000000000000000
00000000000000000000000000000000000000000000000000000000000000000000000000000000000000000000000000000000000000000000000000000000000000000000000000000000000000000000000000000000000000000000000000000000
00000000000000000000000000000000000000000000000000000000000000000000000000000000000000000000000000000000000000000000000000000000000000000000000000000000000000000000000000000000000000000000000000000000
00000000000000000000000000000000000000000000000000000000000000000000000000000000000000000000000000000000000000000000000000000000000000000000000000000000000000000000000000000000000000000000000000000000
00000000000000000000000000000000000000000000000000000000000000000000000000000000000000000000000000000000000000000000000000000000000000000000000000000000000000000000000000000000000000000000000000000000
00000000000000000000000000000000000000000000000000000000000000000000000000000000000000000000000000000000000000000000000000000000000000000000000000000000000000000000000000000000000000000000000000000000
00000000000000000000000000000000000000000000000000000000000000000000000000000000000000000000000000000000000000000000000000000000000000000000000000000000000000000000000000000000000000000000000000000000
00000000000000000000000000000000000000000000000000000000000000000000000000000000000000000000000000000000000000000000000000000000000000000000000000000000000000000000000000000000000000000000000000000000
