P1
200 72
00000000000000000000000000000000000000000000000000000000000000000000000000000000000000000000000000000000000000000000000000000000000000000000000000000000000000000000000000000000000000000000000000000000
00000000000000000000000000000000000000000000000000000000000000000000000000000000000000000000000000000000000000000000000000000000000000000000000000000000000000000000000000000000000000000000000000000000
00000000000000000000000000000000000000000000000000000000000000000000000000000000000000000000000000000000000000000000000000000000000000000000000000000000000000000000000000000000000000000000000000000000
00000000000000000000000000000000000000000000000000000000000000000000000000000000000000000000000000000000000000000000000000000000000000000000000000000000000000000000000000000000000000000000000000000000
00000000000000000000000000000000000000000000000000000000000000000000000000000000000000000000000000000000000000000000000000000000000000000000000000000000000000000000000000000000000000000000000000000000
00000000000000000000000000000000000000000000000000000000000000000000000000000000000000000000000000000000000000000000000000000000000000000000000000000000000000000000000000000000000000000000000000000000
00000000000000000000000000000000000000000000000000000000000000000000000000000000000000000000000000000000000000000000000000000000000000000000000000000000000000000000000000000000000000000000000000000000
00000000000000000000000000000000000000000000000000000000000000000000000000001100000000000000000000000000000000000000000000000000000000000000000000000000000000000000000000000000000000000000000000000000
00000000000000000000000000000000000000000000000000000000000000000000000011111111111000000000000000000000000000000000000000000000000000000000000000000000000000000000000000000000000000000000000000000000
00000000000000000000000000000000000000000000000000000000000000000000001111111111111111100000000000000000000000000000000000000000000000000000000000000000000000000000000000000000000000000000000000000000
00000000000000000000000000000000000000000000000000000000000000000000011111111111111111110000000000000000000000000000000000000000000000000000000000000000000000000000000000000000000000000000000000000000
00000000000000000000000000000000000000000000000000000000000000000000111111111111111111111000000000000000000000000000000000000000000000000000000000000000000000000000000000000000000000000000000000000000
00000000000000000000000000000001111111000000000000000000000000000001111111111111111111111100000000000000000000000000000000000000000000000000000000000000000000000000000000000000000000000000000000000000
00000000000000000000000000000111111111000000000000000000000000000011111111111100001111111111000000000000000000000000000000000000000000000000000000111110000000000000000000000000000000000000000000000000
00000000000000000000000000000111111111000000000000000000000000000111111111111000000011111111100000000000000000000000000000000000000000000000000001111110000000000000000000000000000000000000000000000000
00000000000000000000000000001111111110000000000000000000000000001111111111110000000001111111100000000000000000000000000000000000000000000000000111111110000000000000000000000000000000000000000000000000
00000000000000000000000000001111111110000000000000000000000000011111111111100000000001111111110000000000000000000000000000000000000000000000001111111100000000000000000000000000000000000000000000000000
00000000000000000000000000011111111110000000000000000000000000111111111111100000000011111111110000000000000000000000000000000000000000000000011111111100000000000000000000000000000000000000000000000000
00000000000000000000000000111111111110000000000000000000000000111111111111100000000011111111111000000000000000000000000000000000000000000000111111111100000000000000000000000000000000000000000000000000
00000000000000000000000001111111111110000000000000000000000001111111111111100000000011111111111000000000000000000000000000000000000000000001111111111000000000000000000000000000001100000000000000000000
00000000000000000000000001111111111110000000000000000000000001111111111111000000000001111111111000000000000000000000000000000000000000000011111111110000000000000000000000000000111111110000000000000000
00000000000000000000000011111111111110000000000000000000000011111111111111000000000001111111111100000000000000000000000000000000000000000111111111110000000000000000000000000000111111111100000000000000
00000000000000000000000011111111111110000000000000000000000011111111111111000000000011111111111100000000000000000000000000000000000000001111111111110000000000000000000000000001111111111110000000000000
00000000000000000000000111111111111100000000000000000000000111111111111110000000000011111111111100000000000000000000000000000000000000011111111111100000000000000000000000000011111111111110000000000000
00000000000000000000000111111111111100000000000000000000000111111111111110000000000011111111111110000000000000000000000000000000000001111111111111000000000000000000000000000111111111111100000000000000
00000000000000000000001111111111111110000000000000000000001111111111111110000000000011111111111110000000000000000000000000000000000011111111111111000000000000000000000000000111111111111100000000000000
00000000000000000000011111111111111110000000000000000000001111111111111110000000000011111111111110000000000000000000000000000000000111111101111110000000000000000000000000001111111111111110000000000000
00000000000000000000011111111111111110000000000000000000001111111111111100000000000011111111111110000000000000000000000000000000001111111001111110000000000000000000000000011111111111111110000000000000
00000000000000000000111111100111111110000000000000000000001111111111111100000000000011111111111110000000000000000000000000000000011111100011111110000000000000000000000000111111111111111110000000000000
00000000000000000001111111001111111100000000000000000000001111111111111100000000000011111111111110000000000000000000000000000000111111000011111100000000000000000000000000111111111111111100000000000000
00000000000000000001111111001111111100000000000000000000011111111111111000000000000011111111111110000000000000000000000000000001111110000011111100000000000000000000000001111111111111111100000000000000
00000000000000000011111110001111111100000000000000000000011111111111111000000000000011111111111111000000000000000000000000000011111100000111111000000000000000000000000011111111111111111110000000000000
00000000000000000111111100001111111100000000000000000000011111111111111000000000000111111111111111000000000000000000000000000111111000001111111000000000000000000000000011111111111111111110000000000000
00000000000000001111111100001111111100000000000000000000011111111111111000000000000111111111111110000000000000000000000000001111110000001111110000000000000000000000000111111111011111111100000000000000
00000000000000001111111000001111111100000000000000000000011111111111111000000000000111111111111110000000000000000000000000011111100000001111110000000000000000000000001111111110011111111100000000000000
00000000000000011111110000011111111100000000000000000000111111111111110000000000000111111111111110000000000000000000000000011111100000001111110000000000000000000000011111111100011111111100000000000000
00000000000000011111100000011111111000000000000000000000111111111111110000000000000111111111111110000000000000000000000000111111000000011111100000000000000000000000111111111000011111111110000000000000
00000000000000111111100000001111111000000000000000000001111111111111110000000000001111111111111110000000000000000000000001111110000000011111100000000000000000000000111111111000011111111110000000000000
00000000000001111111000000001111111000000000000000000001111111111111110000000000001111111111111100000000000000000000000011111100000000011111000000000000000000000001111111110000001111111100000000000000
00000000000001111111110000001111111100000000000000000001111111111111110000000000001111111111111100000000000000000000000111111000000000111111100001000000000000000001111111100000011111111100000000000000
00000000000001111111111111111111111100000000000000000001111111111111110000000000001111111111111110000000000000000000000111110000000001111111111110000000000000000011111111000000011111111100000000000000
00000000000001111111111111111111111110000000000000000001111111111111110000000000001111111111111110000000000000000000001111100000000001111111111110000000000000000111111111000000011111111110000000000000
00000000000001111111111111111111111111110000000000000001111111111111110000000000001111111111111100000000000000000000011111000000011111111111111110000000000000001111111110000000011111111110000000000000
00000000000011111111111111111111111111100000000000000001111111111111100000000000001111111111111100000000000000000000011111100111111111111111111100000000000000011111111110000000011111111110000000000000
00000000000011111111111111111111111111100000000000000001111111111111100000000000011111111111111100000000000000000000111111111111111111111111111000000000000000011111111100000000011111111110000000000000
00000000000011111111111111111111111111100000000000000001111111111111100000000000011111111111111000000000000000000000111111111111111111111110000000000000000000111111111110000000111111111110000000000000
00000000000001111111111111111111111111100000000000000001111111111111100000000000011111111111111000000000000000000001111111111111111111111000000000000000000000111111111111111111111111111110000000000000
00000000000000000011111111111111111111100000000000000001111111111111100000000000011111111111111000000000000000000001111111111111111111111000000000000000000000111111111111111111111111111111111000000000
00000000000000000000000100111111111111100000000000000000111111111111100000000000111111111111110000000000000000000001111111111110000111110000000000000000000000111111111111111111111111111111111100000000
00000000000000000000000000111111111111000000000000000000111111111111100000000000111111111111110000000000000000000001111111100000000111110000000000000000000000111111111111111111111111111111111100000000
00000000000000000000000000111111111110000000000000000000111111111111100000000000111111111111100000000000000000000001111100000000001111110000000000000000000000111111111111111111111111111111111100000000
00000000000000000000000000111111110000000000000000000000111111111111100000000001111111111111000000000000000000000001100000000000001111110000000000000000000000111111111111111111111111111111111100000000
00000000000000000000000000111111110000000000000000000000111111111111100000000001111111111110000000000000000000000000000000000000011111110000000000000000000000111111111111111111111111111111111100000000
00000000000000000000000000111111110000000000000000000000011111111111100000000011111111111110000000000000000000000000000000000000011111100000000000000000000000111111111111111111111111111111111100000000
00000000000000000000000000111111110000000000000000000000011111111111110000001111111111111100000000000000000000000000000000000000011111000000000000000000000000000000111111111101111111111111111100000000
00000000000000000000000001111111110000000000000000000000001111111111111100011111111111111000000000000000000000000000000000000000011111000000000000000000000000000000000000000000111111111110000000000000
00000000000000000000000001111111110000000000000000000000000011111111111111111111111111110000000000000000000000000000000000000000111111000000000000000000000000000000000000000000111111111110000000000000
00000000000000000000000001111111110000000000000000000000000001111111111111111111111111000000000000000000000000000000000000000000111110000000000000000000000000000000000000000000111111111110000000000000
00000000000000000000000000001111110000000000000000000000000000011111111111111111111100000000000000000000000000000000000000000000110000000000000000000000000000000000000000000000111111111110000000000000
00000000000000000000000000000001100000000000000000000000000000000111111111111111000000000000000000000000000000000000000000000000000000000000000000000000000000000000000000000000111111111100000000000000
00000000000000000000000000000000000000000000000000000000000000000000001110001000000000000000000000000000000000000000000000000000000000000000000000000000000000000000000000000000111111111110000000000000
00000000000000000000000000000000000000000000000000000000000000000000000000000000000000000000000000000000000000000000000000000000000000000000000000000000000000000000000000000000111111111110000000000000
00000000000000000000000000000000000000000000000000000000000000000000000000000000000000000000000000000000000000000000000000000000000000000000000000000000000000000000000000000000111111111110000000000000
00000000000000000000000000000000000000000000000000000000000000000000000000000000000000000000000000000000000000000000000000000000000000000000000000000000000000000000000000000000111111111100000000000000
00000000000000000000000000000000000000000000000000000000000000000000000000000000000000000000000000000000000000000000000000000000000000000000000000000000000000000000000000000000000000000000000000000000
00000000000000000000000000000000000000000000000000000000000000000000000000000000000000000000000000000000000000000000000000000000000000000000000000000000000000000000000000000000000000000000000000000000
00000000000000000000000000000000000000000000000000000000000000000000000000000000000000000000000000000000000000000000000000000000000000000000000000000000000000000000000000000000000000000000000000000000
00000000000000000000000000000000000000000000000000000000000000000000000000000000000000000000000000000000000000000000000000000000000000000000000000000000000000000000000000000000000000000000000000000000
00000000000000000000000000000000000000000000000000000000000000000000000000000000000000000000000000000000000000000000000000000000000000000000000000000000000000000000000000000000000000000000000000000000
00000000000000000000000000000000000000000000000000000000000000000000000000000000000000000000000000000000000000000000000000000000000000000000000000000000000000000000000000000000000000000000000000000000
00000000000000000000000000000000000000000000000000000000000000000000000000000000000000000000000000000000000000000000000000000000000000000000000000000000000000000000000000000000000000000000000000000000
00000000000000000000000000000000000000000000000000000000000000000000000000000000000000000000000000000000000000000000000000000000000000000000000000000000000000000000000000000000000000000000000000000000
