P1
200 72
00000000000000000000000000000000000000000000000000000000000000000000000000000000000000000000000000000000000000000000000000000000000000000000000000000000000000000000000000000000000000000000000000000000
00000000000000000000000000000000000000000000000000000000000000000000000000000000000000000000000000000000000000000000000000000000000000000000000000000000000000000000000000000000000000000000000000000000
00000000000000000000000000000000000000000000000000000000000000000000000000000000000000000000000000000000000000000000000000000000000000000000000000000000000000000000000000000000000000000000000000000000
00000000000000000000000000000000000000000000000000000000000000000000000000000000000000000000000000000000000000000000000000000000000000000000000000000000000000000000000000000000000000000000000000000000
00000000000000000000000000000000000000000000000000000000000000000000000000000000000000000000000000000000000000000000000000000000000000000000000000000000000000000000000000000000000000000000000000000000
00000000000000000000000000000000000000000000000000000000000000000000000000000000000000000000000000000000000000000000000000000000000000000000000000000000000000000000000000000000000000000000000000000000
00000000000000000000000000000000000000000000000000000000000000000000000000000000000000000000000000000000000000000000000000000000000000000000000000000000000000000000000000000000000000000000000000000000
00000000000000000000000000000000000000000000000000000000000000000000000000000000000000000000000000000000000000000000000000000000000000000000000000000000000000000000000000000000000000000000000000000000
00000000000000000000000000000000000000000000000000000000000000000000000000000000000000000000000000000000000000000000000000000000000000000000000000000000000000000000000000000000000000000000000000000000
00000000000000000000000000000000000000000000000000000000000000000000000000000000000000000000000000000000000000000000000000000000000000000000000000000000000000000000000000000000000000000000000000000000
00000000000000000000000000000000000000000000000000000000000000000000000000000000000000000000000000000000000000000000000000000000000000000000000000000000000000000000000000000000000000000000000000000000
00000000000000000000000000000000000000000000000000000000000000000000000000000000000000000000000000000000000000000000000000000000000000000000000000000000000000000000000000000000000000000000000000000000
00000000000000000000000000000000000000000000000000000000000000000000000000000000000000000000000000000000000000000000000000000000000000000000000000000000000000000000000000000000000000000000000000000000
00000000000000000000000000000000000000000000000000000000000000000000000000000000000000000000000000000000000000000110000000000000000000000000000000000000000000000000000110000000000000000000000000000000
00000000000000000000000000000000000000000000000000000000000000000000000000000000000000000000000000000000000111111111110000000000000000000000000000000000000000000000011111000000000000000000000000000000
00000000000000000000000000000000000000000000000000000000000000000000000000000000000000000000000000000001111111111111111100000000000000000000000000000000000000000001111110000000000000000000000000000000
00000000000000000000000000000000000000000000000000000000000000000000000000000000000000000000000000000111111111111111111110000000000000000000000000000000000000000111111110000000000000000000000000000000
00000000000000000000000000000000000000000000000000000000000000000000000000000000000000000000000000001111111111111111111111000000000000000000000000000000000000001111111100000000000000000000000000000000
00000000000000000000000000000000000000000000000000000000000000000000000000000000000000000000000000111111111111111111111111000000000000000000000000000000000000011111100000000000000000000000000000000000
00000000000000000000000000000000000000000000000000000000000000000000000000000000000000000000000000111111111000000011111111100000000000000000000000000000000000111111000000000000000000000000000000000000
00000000000000000000000000000000000000000000000000000000000000000000000000000000000000000000000000111111100000000001111111100000000000000000000000000000000001111100000000000000000000000000000000000000
00000000000000000000000000000000000000000000000000000000000000000000000000000000000000000000000001111111000000000000111111100000000000000000000000000000000111110000000000000000000000000000000000000000
00000000000000000000000000000000000000000000000011000000000000000000000000110000000000000000000001111111000000000000011111100000000000000000000000000000001111110000000000000000000000000000000000000000
00000000000000000000000000000000000000000000000111110000000000000000000001110000000000000000000011111110000000000000011111100000000000000000000000000000011111000000000000000000000000000000000000000000
00000000000000000000000000000000000000000000011111100000000000000000000011110000000000000000000011111110000000000000001111110000000000000000000000000000011110000000000000000000000000000000000000000000
00000000000000000000000000000000000000000000111111100000000000000000000011111000000000000000000011111100000000000000011111110000000000000000000000000000111100000000000000000000000000000000000000000000
00000000000000000000000000000000000000000001111111100000000000000000000111111000000000000000000000000000000000000000011111110000000000000000000000000001111100000000000000000000000000000000000000000000
00000000000000000000000000000000000000000111111111000000000000000000000111111000000000000000000000000000000000000000111111110000000000000000000000000011111000000000000000000000000000000000000000000000
00000000000000000000000000000000000000001111111111000000000000000000001111111000000000000000000000000000000000000001111111100000000000000000000000000011110000000000000000000000000000000000000000000000
00000000000000000000000000000000000000011111111111000000000000000000001111111000000000000000000000000000000000000001111111000000000000000000000000000111100000000000000000000000000000000000000000000000
00000000000000000000000000000000000000111100111110000000000000000000011101111000000000000000000000000000000000000011111111000000000000000000000000001111000000000000000000000000000000000000000000000000
00000000000000000000000000000000000011111001111100000000000000000000011100111000000000000000000000000000000000000011111111000000000000000000000000001111000000000000000000000000000000000000000000000000
00000000000000000000000000000000000111111001111100000000000000000000111000111100000000000000000000000000000000000111111110000000000000000000000000001111000000000000000000000000000000000000000000000000
00000000000000000000000000000000000111110001111100000000000000000000111000111100000000000000000000000000000000001111111110000000000000000000000000011110000000000000000000000000000000000000000000000000
00000000000000000000000000000000001111100001111100000000000000000000111000111100000000000000000000000000000000011111111000000000000000000000000000111100000000000000000000000000000000000000000000000000
00000000000000000000000000000000011110000001111100000000000000000000110000111100000000000000000000000000000000111111110000000000000000000000000000111100000000111111000000000000000000000000000000000000
00000000000000000000000000000001111100000011111000000000000000000000000000111100000000000000000000000000000011111111100000000000000000000000000000111100000011111111100000000000000000000000000000000000
00000000000000000000000000000001111000000111111000000000000000000000000000111100000000000000000000000000000111111111000000000000000000000000000000111000000111111111110000000000000000000000000000000000
00000000000000000000000000000011111000000111110000000000000000000000000000011100000000000000000000000000001111111110000000000000000000000000000001111000001111111111110000000000000000000000000000000000
00000000000000000000000000000011110000000111110000000000000000000000000000011110000000000000000000000000111111111000000000000000000000000000000001110000011111000111111000000000000000000000000000000000
00000000000000000000000000000111100000000111110000000000000000000000000000011110000000000000000000000001111111110000000000000000000000000000000001110000111100000011111000000000000000000000000000000000
00000000000000000000000000001111000000001111100000000000000000000000000000011110000000000000000000000011111111100000000000000000000000000000000001110001111000000001111000000000000000000000000000000000
00000000000000000000000000011111000000001111100000000000000000000000000000011110000000000000000000000011111111000000000000000000000000000000000001110011110000000001111000000000000000000000000000000000
00000000000000000000000000011110000000001111100000000000000000000000000000011110000000000000000000001111111110000000000000000000000000000000000011110011100000000000111000000000000000000000000000000000
00000000000000000000000000011110100000001111100000000000000000000000000000001110000000000000000000001111111100000000000000000000000000000000000011110111100000000000111000000000000000000000000000000000
00000000000000000000000000111111111111111111100000000000000000000000000000001110000000000000000000011111111000000000000000000000000000000000000011111111000000000001111000000000000000000000000000000000
00000000000000000000000000111111111111111111111100000000000000000000000000001111000000000000000000011111111111000000000000000000000000000000000011111110000000000001111000000000000000000000000000000000
00000000000000000000000000111111111111111111111100000000000000000000000000001111000000000000000000011111111111111111110100000000000000000000000011111100000000000001110000000000000000000000000000000000
00000000000000000000000000111111111111111111111100000000000000000000000000001111000000000000000000011111111111111111111111111000000000000000000011111100000000000001110000000000000000000000000000000000
00000000000000000000000000111111111111111111111000000000000000000000000000001111000000000000000000011111111111111111111111111110000000000000000011111000000000000001110000000000000000000000000000000000
00000000000000000000000000000000000000111111110000000000000000000000000000001111000000000000000000011101111111111111111111111110000000000000000011111000000000000011100000000000000000000000000000000000
00000000000000000000000000000000000000111100000000000000000000000000000000000111000000000000000000000000000000111111111111111110000000000000000011111000000000000011100000000000000000000000000000000000
00000000000000000000000000000000000000111100000000000000000000000000000000000111100001111100000000000000000000000000011111111111000000000000000001110000000000000111100000000000000000000000000000000000
00000000000000000000000000000000000000111100000000000000000000000000000000000111111111111100000000000000000000000000000000111111000000000000000001110000000000000111000000000000000000000000000000000000
00000000000000000000000000000000000000111100000000000000000000000000000000001111111111111100000000000000000000000000000000000000000000000000000001111000000000001111000000000000000000000000000000000000
00000000000000000000000000000000000001111000000000000000000000000000000011111111111111100000000000000000000000000000000000000000000000000000000001111000000000011110000000000000000000000000000000000000
00000000000000000000000000000000000011111000000000000000000000000000111111111111111100000000000000000000000000000000000000000000000000000000000000111000000000011110000000000000000000000000000000000000
00000000000000000000000000000000000000111000000000000000000000000000111111111000000000000000000000000000000000000000000000000000000000000000000000111100000000111100000000000000000000000000000000000000
00000000000000000000000000000000000000000000000000000000000000000000111111100000000000000000000000000000000000000000000000000000000000000000000000111110000011111100000000000000000000000000000000000000
00000000000000000000000000000000000000000000000000000000000000000000000000000000000000000000000000000000000000000000000000000000000000000000000000111111111111110000000000000000000000000000000000000000
00000000000000000000000000000000000000000000000000000000000000000000000000000000000000000000000000000000000000000000000000000000000000000000000000011111111111100000000000000000000000000000000000000000
00000000000000000000000000000000000000000000000000000000000000000000000000000000000000000000000000000000000000000000000000000000000000000000000000001111111111000000000000000000000000000000000000000000
00000000000000000000000000000000000000000000000000000000000000000000000000000000000000000000000000000000000000000000000000000000000000000000000000000111111100000000000000000000000000000000000000000000
00000000000000000000000000000000000000000000000000000000000000000000000000000000000000000000000000000000000000000000000000000000000000000000000000000011000000000000000000000000000000000000000000000000
00000000000000000000000000000000000000000000000000000000000000000000000000000000000000000000000000000000000000000000000000000000000000000000000000000000000000000000000000000000000000000000000000000000
00000000000000000000000000000000000000000000000000000000000000000000000000000000000000000000000000000000000000000000000000000000000000000000000000000000000000000000000000000000000000000000000000000000
00000000000000000000000000000000000000000000000000000000000000000000000000000000000000000000000000000000000000000000000000000000000000000000000000000000000000000000000000000000000000000000000000000000
00000000000000000000000000000000000000000000000000000000000000000000000000000000000000000000000000000000000000000000000000000000000000000000000000000000000000000000000000000000000000000000000000000000
00000000000000000000000000000000000000000000000000000000000000000000000000000000000000000000000000000000000000000000000000000000000000000000000000000000000000000000000000000000000000000000000000000000
00000000000000000000000000000000000000000000000000000000000000000000000000000000000000000000000000000000000000000000000000000000000000000000000000000000000000000000000000000000000000000000000000000000
00000000000000000000000000000000000000000000000000000000000000000000000000000000000000000000000000000000000000000000000000000000000000000000000000000000000000000000000000000000000000000000000000000000
00000000000000000000000000000000000000000000000000000000000000000000000000000000000000000000000000000000000000000000000000000000000000000000000000000000000000000000000000000000000000000000000000000000
