P1
200 72
00000000000000000000000000000000000000000000000000000000000000000000000000000000000000000000000000000000000000000000000000000000000000000000000000000000000000000000000000000000000000000000000000000000
00000000000000000000000000000000000000000000000000000000000000000000000000000000000000000000000000000000000000000000000000000000000000000000000000000000000000000000000000000000000000000000000000000000
00000000000000000000000000000000000000000000000000000000000000000000000000000000000000000000000000000000000000000000000000000000000000000000000000000000000000000000000000000000000000000000000000000000
00000000000000000000000000000000000000000000000000000000000000000000000000000000000000000000000000000000000000000000000000000000000000000000000000000000000000000000000000000000000000000000000000000000
00000000000000000000000000000000000000000000000000000000000000000000000000000000000000000000000000000000000000000000000000000000000000000000000000000000000000000000000000000000000000000000000000000000
00000000000000000000000000000000000000000000000000000000000000000000000000000000000000000000000000000000000000000000000000000000000000000000000000000000000000000000000000000000000000000000000000000000
00000000000000000000000000000000000000000000000000000000000000000000000000000000000000000000000000000000000000000000000000000000000000000000000000000000000000000000000000000000000000000000000000000000
00000000000000000000000000000000000000000000000000000000000000000000000000000000000000000000000000000000000000000000000000000000000000000000000000000000000000000000000000000000000000000000000000000000
00000000000000000000000000000000000000000000000000000000000000000000000000000000000000000000000000000000000000000000000000000000000000000000000000000000000000000000000000000000000000000000000000000000
00000000000000000000000000000000000000000000000000000000000000000000000000000000000000000000000000000000000000000000000000000000000000000000000000000000000000000000000000000000000000000000000000000000
00000000000000000000000000000000000000000000000000000000000000000000000000000000000000000000000000000000000000000000000000000000000000000000000000000000000000000000000000000000000000000000000000000000
00000000000000000000000000000000000000000000000000000000000000000000000000000000000000000000000000000000000000000000000000000000000000000000000000000000000000000000000000000000000000000000000000000000
00000000000000000000000000000000000000000000000000000000000000000000000000000000000000000000000000001100000000000000000000000000000000000000000000000000000000000000000000000000000000000000000000000000
00000000000000000000000000000000000000000000000000000000000000000000000000000000000000000000000000001111100000000000000000000000000000000000000000000000000000000000000000000000000000000000000000000000
00000000000000000000000000000000000000000000000000000000000000000000000000000000000000000000000000011111111000000000000000000000000000000000000000000000000000000000000000000000000000000000000000000000
00000000000000000000000000000000000000000000000000000000000000000000000000000000000000000000000000011111111100000000000000000000000000000000000000000000000000000000000000000000000000000000000000000000
00000000000000000000000000000000000000000000000000000000000000000000000000000000000000000000000000011111111111110000000000000000000000000000000000000001110000000000000000000000000000000000000000000000
00000000000000000000000000000000000000000000000000000000000000000000000000000000000000000000000000000011111111111100000000000000000000000000000000001111111100000000000000000000000000000000000000000000
00000000000000000000000000000000000000000000000000000000000000000000000000000000000000000000000000000001111111111110000000000000000000000000000000111111111111000000000000000000000000000000000000000000
00000000000000000000000000000000000000000000000000000000000000000000000000000000000000000000000000000000011111111111110000000000000000000000000001111111111111100000000000000000000000000000000000000000
00000000000000000000000000000000000000000000000000000000000000000000000000000000110000000000000000000000000011111111111100000000000000000000000001111111111111111000000000000000000000000000000000000000
00000000000000000000000000000000000000000000000001111110000000000000000000000111110000000000000000000000000000111111111110000000000000000000000001111111001111111100000000000000000000000000000000000000
00000000000000000000000000000000000000000000000011111110000000000000000000001111110000000000000000000000000000001111111111111000000000000000000011111100000011111110000000000000000000000000000000000000
00000000000000000000000000000000000000000000000011111100000000000000000000011111110000000000000000000000000000000001111111111000000000000000000011111100000001111111000000000000000000000000000000000000
00000000000000000000000000000000000000000000000111111100000000000000000000111111110000000000000000000000000000000000111111111000000000000000000011111100000000111111100000000000000000000000000000000000
00000000000000000000000000000000000000000000001111111100000000000000000001111111110000000000000000000000000000000000001111111000000000000000000011111000000000011111100000000000000000000000000000000000
00000000000000000000000000000000000000000000011111111100000000000000000011111111110000000000000000000000000000000000011111111000000000000000000011111000000000001111110000000000000000000000000000000000
00000000000000000000000000000000000000000000111111111000000000000000001111111111100000000000000000000000000000000000111111110000000000000000000011111000000000000111110000000000000000000000000000000000
00000000000000000000000000000000000000000001111111111000000000000000011111111111100000000000000000000000000000000001111111100000000000000000000011111000000000000111111000000000000000000000000000000000
00000000000000000000000000000000000000000011111111111000000000000000011111111111100000000000000000000000000000000011111111000000000000000000000011111100000000000111111000000000000000000000000000000000
00000000000000000000000000000000000000000011111111111000000000000000111111111111100000000000000000000000000000001111111110000000000000000000000011111100000000000011111100000000000000000000000000000000
00000000000000000000000000000000000000000111111111111000000000000000111111111111100000000000000000000000000000011111111100000000000000000000000011111100000000000011111100000000000000000000000000000000
00000000000000000000000000000000000000001111111111110000000000000000111100111111100000000000000000000000000001111111110000000000000000000000000011111100000000000001111100000000000000000000000000000000
00000000000000000000000000000000000000011111111111110000000000000000111000111111100000000000000000000000000011111111110000000000000000000000000011111100001111100001111110000000000000000000000000000000
00000000000000000000000000000000000000011111111111110000000000000001110000111111100000000000000000000000000111111111000000000000000000000000000011111100011111100001111111000000000000000000000000000000
00000000000000000000000000000000000000111111011111100000000000000000000001111111100000000000000000000000000111111110000000000000000000000000000011111100011111100000111111000000000000000000000000000000
00000000000000000000000000000000000001111110011111100000000000000000000001111111000000000000000000000000011111111100000000000000000000000000000011111100011111110000111111000000000000000000000000000000
00000000000000000000000000000000000111111100011111100000000000000000000001111111000000000000000000000000011111110000000000000000000000000000000001111110011111110000111111000000000000000000000000000000
00000000000000000000000000000000001111111000111111000000000000000000000001111111000000000000000000000000111111100000000000000000000000000000000001111110011111100000011111100000000000000000000000000000
00000000000000000000000000000000011111110000111111000000000000000000000001111111000000000000000000000001111111100000000000000000000000000000000001111100000111000000011111100000000000000000000000000000
00000000000000000000000000000000111111100001111111000000000000000000000001111111000000000000000000000011111111000000000000000000000000000000000001111110000000000000011111100000000000000000000000000000
00000000000000000000000000000001111111000001111110000000000000000000000001111111000000000000000000000111111110000000000000000000000000000000000000111110000000000000011111100000000000000000000000000000
00000000000000000000000000000111111110000001111110000000000000000000000011111111000000000000000000001111111100000000000000000000000000000000000000111111000000000000011111100000000000000000000000000000
00000000000000000000000000001111111110000011111111000000000000000000000011111110000000000000000000011111111000000000000000000000000000000000000000111111000000000000011111100000000000000000000000000000
00000000000000000000000000011111111111111111111111000000000000000000000011111110000000000000000000011111111000000000000000000000000000000000000000111111000000000000011111100000000000000000000000000000
00000000000000000000000000111111111111111111111111100000000000000000000011111110000000000000000000111111110000000000000000000000000000000000000000111111100000000000111111000000000000000000000000000000
00000000000000000000000001111111111111111111111111100000000000000000000111111110000000000000000000111111100000000000000000000000000000000000000000111111100000000000111111000000000000000000000000000000
00000000000000000000000001111111111111111111111111100000000000000000000111111110000000000000000001111111100000000000000000000000000000000000000000011111110000000001111111000000000000000000000000000000
00000000000000000000000000111111111111111111111111000000000000000000000111111110000000000000000001111111000000000000000000000000000000000000000000011111110000000011111110000000000000000000000000000000
00000000000000000000000000000000000000111111111111000000000000000000000111111110000000000000000011111110000000000000000000000000000000000000000000001111111000000111111100000000000000000000000000000000
00000000000000000000000000000000000000011111111100000000000000000000001111111110000000000000000111111100000000000000000000000000000000000000000000001111111110011111111000000000000000000000000000000000
00000000000000000000000000000000011111111111111000000000000000000000001111111100000000000000000111111100000000000000000000000000000000000000000000001111111111111111111000000000000000000000000000000000
00000000000000000000000000000000111111111111111000000000000000000000001111111100000000000000001111111100000000000000000000000000000000000000000000000111111111111111110000000000000000000000000000000000
00000000000000000000000000000000111111111111111100000000000001111111111111111100000000000000001111111100000000000000000000000000000000000000000000000111111111111111000000000000000000000000000000000000
00000000000000000000000000000001111111111111111100000000000011111111111111111100000000000000001111111100000000000000000000000000000000000000000000000011111111111110000000000000000000000000000000000000
00000000000000000000000000000000111111111111111100000000000011111111111111111111111000000000000000111000000000000000000000000000000000000000000000000000111111110000000000000000000000000000000000000000
00000000000000000000000000000000000111111111111100000000000111111111111111111111111110000000000000000000000000000000000000000000000000000000000000000000011101000000000000000000000000000000000000000000
00000000000000000000000000000000000000011111111000000000000111111111111111111111111111000000000000000000000000000000000000000000000000000000000000000000000000000000000000000000000000000000000000000000
00000000000000000000000000000000000000000000110000000000000001111111111111111111111111000000000000000000000000000000000000000000000000000000000000000000000000000000000000000000000000000000000000000000
00000000000000000000000000000000000000000000000000000000000000011111111111111111111111000000000000000000000000000000000000000000000000000000000000000000000000000000000000000000000000000000000000000000
00000000000000000000000000000000000000000000000000000000000000000000001111111111111111000000000000000000000000000000000000000000000000000000000000000000000000000000000000000000000000000000000000000000
00000000000000000000000000000000000000000000000000000000000000000000000000111111111111000000000000000000000000000000000000000000000000000000000000000000000000000000000000000000000000000000000000000000
00000000000000000000000000000000000000000000000000000000000000000000000000001111111111000000000000000000000000000000000000000000000000000000000000000000000000000000000000000000000000000000000000000000
00000000000000000000000000000000000000000000000000000000000000000000000000000000111111000000000000000000000000000000000000000000000000000000000000000000000000000000000000000000000000000000000000000000
00000000000000000000000000000000000000000000000000000000000000000000000000000000000010000000000000000000000000000000000000000000000000000000000000000000000000000000000000000000000000000000000000000000
00000000000000000000000000000000000000000000000000000000000000000000000000000000000000000000000000000000000000000000000000000000000000000000000000000000000000000000000000000000000000000000000000000000
00000000000000000000000000000000000000000000000000000000000000000000000000000000000000000000000000000000000000000000000000000000000000000000000000000000000000000000000000000000000000000000000000000000
00000000000000000000000000000000000000000000000000000000000000000000000000000000000000000000000000000000000000000000000000000000000000000000000000000000000000000000000000000000000000000000000000000000
00000000000000000000000000000000000000000000000000000000000000000000000000000000000000000000000000000000000000000000000000000000000000000000000000000000000000000000000000000000000000000000000000000000
00000000000000000000000000000000000000000000000000000000000000000000000000000000000000000000000000000000000000000000000000000000000000000000000000000000000000000000000000000000000000000000000000000000
00000000000000000000000000000000000000000000000000000000000000000000000000000000000000000000000000000000000000000000000000000000000000000000000000000000000000000000000000000000000000000000000000000000
00000000000000000000000000000000000000000000000000000000000000000000000000000000000000000000000000000000000000000000000000000000000000000000000000000000000000000000000000000000000000000000000000000000
