P1
200 72
00000000000000000000000000000000000000000000000000000000000000000000000000000000000000000000000000000000000000000000000000000000000000000000000000000000000000000000000000000000000000000000000000000000
00000000000000000000000000000000000000000000000000000000000000000000000000000000000000000000000000000000000000000000000000000000000000000000000000000000000000000000000000000000000000000000000000000000
00000000000000000000000000000000000000000000000000000000000000000000000000000000000000000000000000000000000000000000000000000000000000000000000000000000000000000000000000000000000000000000000000000000
00000000000000000000000000000000000000000000000000000000000000000000000000000000000000000000000000000000000000000000000000000000000000000000000000000000000000000000000000000000000000000000000000000000
00000000000000000000000000000000000000000000000000000000000000000000000000000000000000000000000000000000000000000000000000000000000000000000000000000000000000000000000000000000000000000000000000000000
00000000000000000000000000000000000000000000000000000000000000000000000000000000000000000000000000000000000000000000000000000000000000000000000000000000000000000000000000000000000000000000000000000000
00000000000000000000000000000000000000000000000000000000000000000000000000000000000000000000000000000000000000000000000000000000000000000000000000000000000000000000000000000000000000000000000000000000
00000000000000000000000000000000000000000000000000000000000000000000000000000000000000000000000000000000000000000000000000000000000000000000000000000000000000000000000000000000000000000000000000000000
00000000000000000000000000000000000000000000000000000000000000000000000000000000000000000000000000000000000000000000000000000000000000000000000000000000000000000000000000000000000000000000000000000000
00000000000000000000000000000000000000000000000000000000000000000000000000000000000000000000000000000000000000000000000000000000000000000000000000000000000000000000000000000000000000000000000000000000
00000000000000000000000000000000000000000000000000000000000000000000000000000000000000000000000000000000000000000000000000000000000000000000000000000000000000000000000000000000000000000000000000000000
00000000000000000000000000000000000000000000000000000000000000000000000000000000000000000000000000000000000000000000000000000000000000000000000000000000000000000000000000000000000000000000000000000000
00000000000000000000000000000000000000000000000000000000000000000000000000000000000000000000000000000000000000000000000000000000000000000001110000000000000000000000000000000000000000000000000000000000
00000000000000000000000001110000000000000000000000000000000000000000000000000000000000000000000000000000000000000000000000000000001111111111111111100000000000000000000000000000000000000000000000000000
00000000000000000000000011111000000000000000000000000000000000001011111100000000000000000000000000000000000000000000000000000000111111111111111111110000000000000000000000000000000000000000000000000000
00000000000000000001111111111000000000000000000000000000000000011111111111111111000000000000000000000000000000000000000000000011111111111111111111111000000000000000000000000000100000000000000000000000
00000000000000000011111111111000000000000000000000000000000000111111111111111111111000000000000000000000000000000000000000000111111111111111111111111110000000000000000000000111111110000000000000000000
00000000000000000011111111111000000000000000000000000000000000111111111111111111111110000000000000000000000000000000000000000111111111000111111111111110000000000000000000001111111111000000000000000000
00000000000000000011111111111000000000000000000000000000000001111111111111111111111111000000000000000000000000000000000000001111111100000001111111111111000000000000000000001111111111000000000000000000
00000000000000000111111111111000000000000000000000000000000001111111111111111111111111100000000000000000000000000000000000001111111000000000111111111111000000000000000000001111111111000000000000000000
00000000000000000111111111111000000000000000000000000000000000110011000011111111111111100000000000000000000000000000000000001111100000000000011111111111000000000000000000001111111111100000000000000000
00000000000000001111111111111000000000000000000000000000000000000000000000000111111111110000000000000000000000000000000000011111000000000000011111111111000000000000000000011111111111110000000000000000
00000000000000001111111111111000000000000000000000000000000000000000000000000001111111110000000000000000000000000000000000111110000000000000111111111111000000000000000000011111111111110000000000000000
00000000000000011111111111111000000000000000000000000000000000000000000000000000111111111000000000000000000000000000000000111100000000000000111111111111000000000000000000011111111111110000000000000000
00000000000000011111111111111000000000000000000000000000000000000000000000000000011111111000000000000000000000000000000000111100000000000000111111111111000000000000000000011111101111110000000000000000
00000000000000111111111111111000000000000000000000000000000000000000000000000000011111111000000000000000000000000000000000000000000000000001111111111111000000000000000000111111100111111000000000000000
00000000000000111111111111111000000000000000000000000000000000000000000000000000001111111000000000000000000000000000000000000000000000000001111111111110000000000000000000111111100111111100000000000000
00000000000001111111111111111000000000000000000000000000000000000000000000000000011111111000000000000000000000000000000000000000000000000001111111111110000000000000000000111111100111111100000000000000
00000000000011111111111111111000000000000000000000000000000000000000000000000000011111111000000000000000000000000000000000000000000000000001111111111110000000000000000000111111000011111100000000000000
00000000000011111011111111111000000000000000000000000000000000000000000000000000011111111000000000000000000000000000000000000000000000000001111111111110000000000000000001111111000001111110000000000000
00000000000111111011111111111000000000000000000000000000000000000000000000000000111111111000000000000000000000000000000000000000000000000011111111111100000000000000000001111111000001111111000000000000
00000000000111110001111111111000000000000000000000000000000000000000000000000000111111111000000000000000000000000000000000000000000000000111111111111100000000000000000001111111000001111111000000000000
00000000001111100001111111111000000000000000000000000000000000000000000000000001111111110000000000000000000000000000000000000000000000001111111111111100000000000000000001111110000000111111000000000000
00000000011111100011111111111000000000000000000000000000000000000000000000000011111111100000000000000000000000000000000000000000000000001111111111111000000000000000000011111110000000011111100000000000
00000000011111000011111111111000000000000000000000000000000000000000000000000111111111100000000000000000000000000000000000000000000000011111111111111000000000000000000011111110000000011111100000000000
00000000111111000011111111111000000000000000000000000000000000000000000000001111111111000000000000000000000000000000000000000000000000111111111111111000000000000000000011111110000000011111110000000000
00000001111111000011111111111000000000000000000000000000000000000000000000111111111110000000000000000000000000000000000000000000000001111111111111110000000000000000000011111110000000001111110000000000
00000001111110000011111111111000000000000000000000000000000000000000000011111111111110000000000000000000000000000000000000000000000011111111111111000000000000000000000111111100000000000111111000000000
00000011111100000011111111111000000000000000000000000000000000000000000111111111111100000000000000000000000000000000000000000000001111111111111110000000000000000000000111111100000000000111111000000000
00000011111000000011111111111000000000000000000000000000000000000000111111111111111000000000000000000000000000000000000000000000111111111111111100000000000000000000000111111100000000000111111100000000
00000111111000000011111111111000000000000000000000000000000000000011111111111111110000000000000000000000000000000000000000001111111111111111110000000000000000000000000111111100000000000111111100000000
00001111110000000011111111111000000000000000000000000000000000111111111111111111000000000000000000000000000000000000000000111111111111111111000000000000000000000000000111111000000000000011111110000000
00001111100000000011111111111000000000000000000000000000000011111111111111111100000000000000000000000000000000000000001111111111111111111100000000000000000000000000000111111100000000000001111110000000
00011111000000000111111111111000000000000000000000000000001111111111111111110000000000000000000000000000000000001111111111111111111110000000000000000000000000000000000011111111111111111111111111000000
00111111000000000111111111111000000000000000000000000000011111111111111111000000000000000000000000000000000001111111111111111111110000000000000000000000000000000000000011111111111111111111111111111111
01111111111110000111111111111111111000000000000000000111111111111111111000000000000000000000000000000000000111111111111111110000000000000000000000000000000000000000000011111111111111111111111111111111
01111111111111111111111111111111111100000000000000011111111111111111100000000000000000000000000000000000000111111111111111000000000000000000000000000000000000000000000011111111111111111111111111111111
11111111111111111111111111111111111100000000000000011111111111111100000000000000000000000000000000000000001111111111111111100000000000000000000000000000000000000000000001111111111111111111111111111111
11111111111111111111111111111111111100000000000000111111111111110000000000000000000000000000000000000000011111111111111111111000000000000000100000000000000000000000000000000000011001101111111111111111
11111111111111111111111111111111111100000000000000111111111110000000000000000000000000000000000000000000011111111111111111111111100000000001111000000000000000000000000000000000000000000000011111111110
00011110000011101111111111111111001000000000000000111111111110000000000000000000000000000000000000000000000011111111111111111111111000000011111110000000000000000000000000000000000000000000001111111000
00000000000000000111111111111000000000000000000000111111111111000000000000000000000000000000000000000000000001111111111111111111111110000011111110000000000000000000000000000000000000000000000111111100
00000000000000000111111111111000000000000000000000001111111111100000000000000000000000000000000000000000000000001111111111111111111111110111111110000000000000000000000000000000000000000000000111111100
00000000000000001111111111111000000000000000000000000111111111111000000000000000000000000000000000000000000000000000111111111111111111111111111100000000000000000000000000000000000000000000000011111110
00000000000000001111111111111000000000000000000000000000111111111110000000000000000000000000000000000000000000000000001111111111111111111111111100000000000000000000000000000000000000000000000001111110
00000000000000001111111111111000000000000000000000000000011111111111100000000000000000000000000000000000000000000000000011111111111111111111111000000000000000000000000000000000000000000000000001111111
00000000001100111111111111110000000000000000000000000000000111111111110000000000000000000000000000000000000000000000000000011111111111111111111000000000000000000000000000000000000000000000000001111111
00000000001111111111111111111000000000000000000000000000000001111111111100000000000000000000000000000000000000000000000000000111111111111111110000000000000000000000000000000000000000000000000000111111
00000000011111111111111111111111110000000000000000000000000000111111111110000000000000000000000000000000000000000000000000000001111111111111110000000000000000000000000000000000000000000000000000111111
00000000011111111111111111111111111000000000000000000000000000011111111111000000000000000000000000000000000000000000000000000000001111111111100000000000000000000000000000000000000000000000000000000000
00000000000111111111111111111111111000000000000000000000000000000011111111000000000000000000000000000000000000000000000000000000000001111111100000000000000000000000000000000000000000000000000000000000
00000000000000000000111111111111111000000000000000000000000000000001111111000000000000000000000000000000000000000000000000000000000000111111000000000000000000000000000000000000000000000000000000000000
00000000000000000000000000000111111000000000000000000000000000000000111110000000000000000000000000000000000000000000000000000000000000001111000000000000000000000000000000000000000000000000000000000000
00000000000000000000000000000000000000000000000000000000000000000000001110000000000000000000000000000000000000000000000000000000000000000000000000000000000000000000000000000000000000000000000000000000
00000000000000000000000000000000000000000000000000000000000000000000000000000000000000000000000000000000000000000000000000000000000000000000000000000000000000000000000000000000000000000000000000000000
00000000000000000000000000000000000000000000000000000000000000000000000000000000000000000000000000000000000000000000000000000000000000000000000000000000000000000000000000000000000000000000000000000000
00000000000000000000000000000000000000000000000000000000000000000000000000000000000000000000000000000000000000000000000000000000000000000000000000000000000000000000000000000000000000000000000000000000
00000000000000000000000000000000000000000000000000000000000000000000000000000000000000000000000000000000000000000000000000000000000000000000000000000000000000000000000000000000000000000000000000000000
00000000000000000000000000000000000000000000000000000000000000000000000000000000000000000000000000000000000000000000000000000000000000000000000000000000000000000000000000000000000000000000000000000000
00000000000000000000000000000000000000000000000000000000000000000000000000000000000000000000000000000000000000000000000000000000000000000000000000000000000000000000000000000000000000000000000000000000
00000000000000000000000000000000000000000000000000000000000000000000000000000000000000000000000000000000000000000000000000000000000000000000000000000000000000000000000000000000000000000000000000000000
00000000000000000000000000000000000000000000000000000000000000000000000000000000000000000000000000000000000000000000000000000000000000000000000000000000000000000000000000000000000000000000000000000000
