P1
200 72
00000000000000000000000000000000000000000000000000000000000000000000000000000000000000000000000000000000000000000000000000000000000000000000000000000000000000000000000000000000000000000000000000000000
00000000000000000000000000000000000000000000000000000000000000000000000000000000000000000000000000000000000000000000000000000000000000000000000000000000000000000000000000000000000000000000000000000000
00000000000000000000000000000000000000000000000000000000000000000000000000000000000000000000000000000000000000000000000000000000000000000000000000000000000000000000000000000000000000000000000000000000
00000000000000000000000000000000000000000000000000000000000000000000000000000000000000000000000000000000000000000000000000000000000000000000000000000000000000000000000000000000000000000000000000000000
00000000000000000000000000000000000000000000000000000000000000000000000000000000000000000000000000000000000000000000000000000000000000000000000000000000000000000000000000000000000000000000000000000000
00000000000000000000000000000000000000000000000000000000000000000000000000000000000000000000000000000000000000000000000000000000000000000000000000000000000000000000000000000000000000000000000000000000
00000000000000000000000000000000000000000000000000000000000000000000000000000000000000000000000000000000000000000000000000000000000000000000000000000000000000000000000000000000000000000000000000000000
00000000000000000000000000000000000000000000000000000000000000000000000000000000000000000000000000000000000000000000000000000000000000000000000000000000000000000000000000000000000000000000000000000000
00000000000000000000000000000000000000000000000000000000000000000000000000000000000000000000000000000000000000000000000000000000000000000000000000000000000000000000000000000000000000000000000000000000
00000000000000000000000000000000000000000000000000000000000000000000000000000000000000000000000000000000000000000000000000000000000000000000000000000000000000000000000000000000000000000000000000000000
00000000000000000000000000000000000000000000000000000000000000000000000000000000000000000000000000000000000000000000000000000000000000000000000000000000000000000000000000000000000111100000000000000000
00000000000000000000000000000000000000000000000000000000000000000000000000000000000000000000000000000000000000000000000000000000000000000000000000000000000000000000000000000111111111111000000000000000
00000000000000000000000000000000000000000000000000000000000000000000000000000000000000000000000000000000000000000000000000000000000000000000000000000000000000000000000000011111111111111100000000000000
00000000000000000000000000000000000000000000000000000000000000000000000000000000000000000000000000000000000000000000000000000000000000000000000000000000000000000000000000111111111111111100000000000000
00000000000000000000000000000000000000000000000000000000000000000000000000000000000000000000000000000000000000000000000000000000000000000000000000000000000000000000000001111111111111111100000000000000
00000000000000000000000000000000000000000000000000000000000000000000000000000000000000000000000000000000000000000000000000000000000000000000000000000000000000000000000011111111000111111100000000000000
00000000000000000000000000000000000000000000000000000000000000000000000000000000000000000000000000000000000000000000000000000000000000000000000000000000000000000000000011111100000001111100000000000000
00000000000000000000000000000000000011111111100000000000000000000000000000000000000010011111111000000000000000000000000000000000111111000000000000000000000000000000000111111000000000111110000000000000
00000000000000000000000000000000000111111111110000000000000000000000000000000000111111111111111100000000000000000000000000011111111111111110000000000000000000000000001111110000000000111110000000000000
00000000000000000000000000000000001111111111110000000000000000000000000000000111111111111111111111000000000000000000000001111111111111111111111100000000000000000000001111110000000000011110000000000000
00000000000000000000000000000000001111111111110000000000000000000000000000011111111111111111111111000000000000000000000011111111111111111111111110000000000000000000011111100000000000000000000000000000
00000000000000000000000000000000011111111111110000000000000000000000000001111111111110011111111111100000000000000000000111111111111111111111111111110000000000000000111111100000000000000000000000000000
00000000000000000000000000000000111111111111110000000000000000000000000011111111100000000011111111100000000000000000001111111111111100000011111111111000000000000000111111000000000000000000000000000000
00000000000000000000000000000000111111111111110000000000000000000000000011111111000000000001111111100000000000000000011111111111110000000000111111111000000000000001111111000000000000000000000000000000
00000000000000000000000000000001111111111111110000000000000000000000000011111110000000000001111111110000000000000000111111111111100000000000001111111000000000000001111111000000000000000000000000000000
00000000000000000000000000000001111111111111110000000000000000000000000011111100000000000000111111110000000000000000111111111111000000000000001111111000000000000001111110000000000000000000000000000000
00000000000000000000000000000011111110011111110000000000000000000000000011111000000000000000111111110000000000000000111111111111000000000000001111111000000000000001111110000000000000000000000000000000
00000000000000000000000000000011111100111111110000000000000000000000000111110000000000000000111111100000000000000000111111111110000000000000001111110000000000000001111110000000000000000000000000000000
00000000000000000000000000000111111100111111110000000000000000000000000111110000000000000000111111100000000000000001111111111110000000000000000111110000000000000001111110000000111000000000000000000000
00000000000000000000000000000111111000111111110000000000000000000000000001000000000000000001111111100000000000000001111111111100000000000000000111100000000000000011111110000111111111000000000000000000
00000000000000000000000000001111111000011111111000000000000000000000000000000000000000000001111111000000000000000011111111111100000000000000000000000000000000000011111110001111111111110000000000000000
00000000000000000000000000001111110000011111111000000000000000000000000000000000000000000001111110000000000000000011111111111111111111000000000000000000000000000011111110111111111111111100000000000000
00000000000000000000000000011111110000011111111000000000000000000000000000000000000000000011111100000000000000000011111111111111111111111000000000000000000000000011111111111111111111111110000000000000
00000000000000000000000000111111100000011111111000000000000000000000000000000000000000000111111100000000000000000011111111111111111111111100000000000000000000000011111111111111001111111111000000000000
00000000000000000000000000111111100000001111111000000000000000000000000000000000000000001111111000000000000000000011111111111111111111111111000000000000000000000011111111111100000001111111100000000000
00000000000000000000000000111111000000011111111000000000000000000000000000000000000000111111110000000000000000000011111111111110000011111111100000000000000000000011111111111000000000111111110000000000
00000000000000000000000001111111000000011111111000000000000000000000000000000000000011111111100000000000000000000011111111111100000001111111110000000000000000000011111111110000000000011111111000000000
00000000000000000000000011111110000000011111111000000000000000000000000000000011111111111111000000000000000000000011111111111100000000111111110000000000000000000011111111100000000000001111111000000000
00000000000000000000000011111110000000001111111000000000000000000000000000000111111111111000000000000000000000000011111111111100000000111111111000000000000000000011111111100000000000001111111100000000
00000000000000000000000111111100000000001111111000000000000000000000000000000111111111111000000000000000000000000011111111111000000000111111111000000000000000000011111111000000000000000111111100000000
00000000000000000000000111111100000000001111111000000000000000000000000000000111111111111110000000000000000000000111111111111000000000111111111100000000000000000011111111000000000000000111111110000000
00000000000000000000000111111100000000001111111000000000000000000000000000000000011111111111100000000000000000000011111111111000000000111111111100000000000000000011111111000000000000000111111110000000
00000000000000000000001111111000000000001111111100000000000000000000000000000000000001111111100000000000000000000011111111110000000000111111111000000000000000000011111110000000000000000011111110000000
00000000000000000000011111111000000000001111111100000000000000000000000000000000000000111111100000000000000000000011111111110000000001111111111100000000000000000111111110000000000000000011111110000000
00000000000000000000011111110000000000001111111110011100000000000000000000000000000000011111110000000000000000000011111111110000000001111111111100000000000000000111111110000000000000000011111110000000
00000000000000000000011111111111001110111111111111111100000000000000000000000000000000011111110000000000000000000001111111110000000001111111111100000000000000000111111110000000000000000011111110000000
00000000000000000000011111111111111111111111111111111100000000000000000000000000000000011111110000000000000000000001111111110000000001111111111100000000000000000011111110000000000000000011111110000000
00000000000000000000001111111111111111111111111111111100000000000000000000000000000000011111111000000000000000000001111111110000000011111111111000000000000000000011111111000000000000000011111110000000
00000000000000000000001111111111111111111111111111111100000000000000000000000000000000011111111000000000000000000000111111110000000011111111111000000000000000000001111111000000000000000011111111000000
00000000000000000000001111111111111111111111111111100000000000000000000000000000000000011111111000000000000000000000111111110000000111111111111000000000000000000001111111000000000000000011111111000000
00000000000000000000001111111011100011000111111110000000000000000001000000000000000000011111110000000000000000000000011111110000000111111111111000000000000000000001111111000000000000000011111110000000
00000000000000000000000000000000000000000011111110000000000000000111100000000000000000011111110000000000000000000000001111111000001111111111110000000000000000000001111111000000000000000011111110000000
00000000000000000000000000000000000000000011111110000000000000000111100000000000000000011111110000000000000000000000000111111100001111111111110000000000000000000001111111000000000000000111111110000000
00000000000000000000000000000000000000000011111110000000000000000111100000000000000000111111110000000000000000000000000011111111111111111111100000000000000000000000111111100000000000000111111110000000
00000000000000000000000000000000000000000011111110000000000000000111110000000000000000111111100000000000000000000000000001111111111111111111000000000000000000000000111111110000000000001111111110000000
00000000000000000000000000000000000000000001111110000000000000000111110000000000000000111111100000000000000000000000000000111111111111111110000000000000000000000000011111111000000000001111111110000000
00000000000000000000000000000000000000000011111110000000000000001111110000000000000001111111000000000000000000000000000000000111111111111100000000000000000000000000011111111100000000011111111100000000
00000000000000000000000000000000000000000011111110000000000000001111111000000000000001111111000000000000000000000000000000000001111111111000000000000000000000000000000111111111111111111111111000000000
00000000000000000000000000000000000000000011111110000000000000001111111100000000000011111110000000000000000000000000000000000000001100000000000000000000000000000000000011111111111111111111110000000000
00000000000000000000000000000000000000000001111110000000000000000111111110000000001111111110000000000000000000000000000000000000000000000000000000000000000000000000000001111111111111111111000000000000
00000000000000000000000000000000000000000000111100000000000000000011111111111111111111111100000000000000000000000000000000000000000000000000000000000000000000000000000000111111111111111110000000000000
00000000000000000000000000000000000000000000000000000000000000000000111111111111111111111000000000000000000000000000000000000000000000000000000000000000000000000000000000001111111111111000000000000000
00000000000000000000000000000000000000000000000000000000000000000000001111111111111111100000000000000000000000000000000000000000000000000000000000000000000000000000000000000010000001100000000000000000
00000000000000000000000000000000000000000000000000000000000000000000000001111111111111000000000000000000000000000000000000000000000000000000000000000000000000000000000000000000000000000000000000000000
00000000000000000000000000000000000000000000000000000000000000000000000000000001111000000000000000000000000000000000000000000000000000000000000000000000000000000000000000000000000000000000000000000000
00000000000000000000000000000000000000000000000000000000000000000000000000000000000000000000000000000000000000000000000000000000000000000000000000000000000000000000000000000000000000000000000000000000
00000000000000000000000000000000000000000000000000000000000000000000000000000000000000000000000000000000000000000000000000000000000000000000000000000000000000000000000000000000000000000000000000000000
00000000000000000000000000000000000000000000000000000000000000000000000000000000000000000000000000000000000000000000000000000000000000000000000000000000000000000000000000000000000000000000000000000000
00000000000000000000000000000000000000000000000000000000000000000000000000000000000000000000000000000000000000000000000000000000000000000000000000000000000000000000000000000000000000000000000000000000
00000000000000000000000000000000000000000000000000000000000000000000000000000000000000000000000000000000000000000000000000000000000000000000000000000000000000000000000000000000000000000000000000000000
00000000000000000000000000000000000000000000000000000000000000000000000000000000000000000000000000000000000000000000000000000000000000000000000000000000000000000000000000000000000000000000000000000000
00000000000000000000000000000000000000000000000000000000000000000000000000000000000000000000000000000000000000000000000000000000000000000000000000000000000000000000000000000000000000000000000000000000
