P1
200 72
00000000000000000000000000000000000000000000000000000000000000000000000000000000000000000000000000000000000000000000000000000000000000000000000000000000000000000000000000000000000000000000000000000000
00000000000000000000000000000000000000000000000000000000000000000000000000000000000000000000000000000000000000000000000000000000000000000000000000000000000000000000000000000000000000000000000000000000
00000000000000000000000000000000000000000000000000000000000000000000000000000000000000000000000000000000000000000000000000000000000000000000000000000000000000000000000000000000000000000000000000000000
00000000000000000000000000000000000000000000000000000000000000000000000000000000000000000000000000000000000000000000000000000000000000000000000000000000000000000000000000000000000000000000000000000000
00000000000000000000000000000000000000000000000000000000000000000000000000000000000000000000000000000000000000000000000000000000000000000000000000000000000000000000000000000000000000000000000000000000
00000000000000000000000000000000000000000000000000000000000000000000000000000000000000000000000000000000000000000000000000000000000000000000000000000000000000000000000000000000000000000000000000000000
00000000000000000000000000000000000000000000000000000000000000000000000000000000000000000000000000000000000000000000000000000000000000000000000000000000000000000000000000000000000000000000000000000000
00000000000000000000000000000000000000000000000000000000000000000000000000000000000000000000000000000000000000000000000000000000000000000000000000000000000000000000000000000000000000000000000000000000
00000000000000000000000000000000000000000000000000000000000000000000000000000000000000000000000000000000000000000000000000000000000000000000000000000000000000000000000000000000000000000000000000000000
00000000000000000000000000000000000000000000000000000000000000000000000000000000000000000000000000000000000000000000000000000000000000000000000000000000000000000000000000000000000000000000000000000000
00000000000000000000000000000000000000000000000000000000000000000000000000000000000000000000000000000000000000000000000000000000000000000000000000000000000000000000000000000000000000000000000000000000
00000000000000000000000000000000000000000000000000000000000000000000000000000000000000000000000000000000000000000000000000000000000000000000000000000000000000000000000000000000000000000000000000000000
00000000000000000000000000000000000000000000000000000000000000000000000000000000000000000000000000000000000000000000000000000000000000000000000000000000000000000000000000000000000000000000000000000000
00000000000000000000000000000000000000000000000000000000000000000000000000000000000000000000000000000000000000000000000000000000000000000000000000000000000000000000110000010000000000000000000000000000
00000000000000000000000000000000000000000000000000000000000000000000000000000000000000000000000000000000000000000000000000000000000000000000000000000000000000000011111111111000000000000000000000000000
00000000000000000000000000000000000000000000000000000000000000000000000000000000000000000000000000000000000000000000000000000000000000000000000000000000000000000111111111111110000000000000000000000000
00000000000000000000000000000000000000000000000000111111000000000000000000000000000000000000000000000000000000000000000000000000000000000000000000000000000000011111111111111111000000000000000000000000
00000000000000000000000000000000000000000000000001111111000000000000000000000000000000000000000000000000000000000000000000000000000000000000000000000000000000111111111111111111100000000000000000000000
00000000000000000000000000000000000000000000000001111111000000000000000000000000000000000000000000001111111000000000000000000000000000000000000000000000000001111111111111111111110000000000000000000000
00000000000000000000000000000000000000000000000011111111000000000000000000000000000000000000000000001111111000000000000000000000000000000000000000000000000011111111110001111111110000000000000000000000
00000000000000000000000000000000000000000000000111111111000000000000000000000000000000000000000000011111111000000000000000000000000000000000000000000000000011111110000000011111110000000000000000000000
00000000000000000000000000000000000000000000000111111111000000000000000000000000000000000000000000111111110000000000000000000000000000000000000000000000000011111110000000001111111000000000000000000000
00000000000000000000000000000000000000000000001111111111000000000000000000000000000000000000000001111111110000000000000000000000000000011100000000000000000111111100000000001111111000000000000000000000
00000000000000000000000000000000000000000000011111111111000000000000000000000000000000000000000011111111110000000000000000000000011111111111000000000000000111111000000000001111111000000000000000000000
00000000000000000000000000000000000000000000011111111111000000000000000000000000000000000000000111111111110000000000000000000001111111111111100000000000001111111000000000000111111000000000000000000000
00000000000000000000000000000000000000000000111111111111000000000000000000000000000000000000001111111111100000000000000000000011111111111111100000000000001111111000000000000111111000000000000000000000
00000000000000000000000000000000000000000001111111111111000000000000000000000000000000000000011111111111100000000000000000000001111111111111100000000000001111110000000000000111111000000000000000000000
00000000000000000000000000000000000000000011111111111111000000000000000000000000000000000000111111111111000000000000000000000001111111111111100000000000001111110000000000000111111000000000000000000000
00000000000000000000000000000000000000000011111001111111000000000000000000000000000000000001111110111111000000000000000000000000101111111111100000000000000000000000000000001111111000000000000000000000
00000000000000000000000000000000000000000111110011111111000000000000000000000000000000000011111100111111000000000000000000000000000001111111100000000000000000000000000000001111111000000000000000000000
00000000000000000000000000000000000000001111100011111111000000000000000000000000000000000111111100111111000000000000000000000000000001111111100000000000000000000000000000001111111000000000000000000000
00000000000000000000000000000000000000011111100011111110000000000000000000000000000000011111110001111111000000000000000000000000000011111111000000000000000000000000000000001111110000000000000000000000
00000000000000000000000000000000000000111111000011111110000000000000000000000000000000111111100001111110000000000000000000000000000011111111000000000000000000000000000000001111110000000000000000000000
00000000000000000000000000000000000001111110000011111110000000000000000000000000000011111110000011111110000000000000000000000000000011111111000000000000000000000000000000011111100000000000000000000000
00000000000000000000000000000000000011111100000011111110000000000000000000000000001111111100000011111110000000000000000000000000000011111111000000000000000000000000000000111111100000000000000000000000
00000000000000000000000000000000000011111000000011111110000000000000000000000000011111111000000011111100000000000000000000000000000011111111000000000000000000000000000000111111000000000000000000000000
00000000000000000000000000000000000111111000000011111110000000000000000000000000111111110000000111111100000000000000000000000000000011111111000000000000000000000000000001111111000000000000000000000000
00000000000000000000000000000000001111110000000011111110000000000000000000000011111111100000000111111100000000000000000000000000000011111111000000000000000000000000000011111110000000000000000000000000
00000000000000000000000000000000111111000000000111111110000000000000000000001111111110000000000111111000000000000000000000000000000011111111000000000000000000000000000011111100000000000000000000000000
00000000000000000000000000000000111111000000000111111110000000000000000000001111111100000000001111111000000000000000000000000000000011111111000000000000000000000000000111111000000000000000000000000000
00000000000000000000000000000001111100000000000011111100000000000000000000011111111100000000011111111000000000000000000000000000000111111110000000000000000000000000001111110000000000000000000000000000
00000000000000000000000000000011111000000000000111111100000000000000000000111111111111111000011111110000000000000000000000000000000111111110000000000000000000000000011111100000000000000000000000000000
00000000000000000000000000000111111000000000000111111100000000000000000000111111111111111100111111110000000000000000000000000000000011111110000000000000000000000000111111100000000000000000000000000000
00000000000000000000000000000111111000000000000111111100000000000000000000000011111111111111111111100000000000000000000000000000000011111110000000000000000000000001111111000000000000000000000000000000
00000000000000000000000000001111111111111100001111111000000000000000000000000000111111111111111111110000000000000000000000000000000111111110000000000000000000000011111110000000000000000000000000000000
00000000000000000000000000011111111111111111111111111100000000000000000000000000000011111111111111111000000000000000000000000000000111111110000000000000000000000111111100000000000000000000000000000000
00000000000000000000000000001111111111111111111111111111100000000000000000000000000000000111111111111111000000000000000000000000000111111110000000000000000000001111111000000000000000000000000000000000
00000000000000000000000000000011111111111111111111111111111110000000000000000000000000000011111111111111000000000000000000000000000111111110000000000000000000001111110000000000000000000000000000000000
00000000000000000000000000000000000000111111111111111111111111000000000000000000000000000011111111111111000000000000000000000000000111111110000000000000000000011111110000000000000000000000000000000000
00000000000000000000000000000000000000000000011111111111111111000000000000000000000000000011111111111111000000000000000000000000001111111100000000000000000000011111100000000000000000000000000000000000
00000000000000000000000000000000000000000000011111111111111111000000000000000000000000000111111111000110000000000000000000000000001111111100000000000000000000111111000000000000000000000000000000000000
00000000000000000000000000000000000000000000011111111000000000000000000000000000000000000111111110000000000000000000000000000000000111111100000000000000000001111111000000000000000000000000000000000000
00000000000000000000000000000000000000000000011111111000000000000000000000000000000000001111111110000000000000000000000000000000000111111100000000000000000011111110000000000000000000000000000000000000
00000000000000000000000000000000000000000000011111110000000000000000000000000000000000001111111100000000000000000000000000000000001111111100000000000000000011111110000000000000000111000000000000000000
00000000000000000000000000000000000000000000011111110000000000000000000000000000000000001111111100000000000000000000000000000000001111111000000000000000000111111100000000000011111111000000000000000000
00000000000000000000000000000000000000111000111111110000000000000000000000000000000000001111111000000000000000000000000000000000001111111100000000000000001111111100000001111111111111000000000000000000
00000000000000000000000000000000000001111111111111110000000000000000000000000000000000000111111000000000000000000000000000000111111111111100000000000000001111111111111111111111111111000000000000000000
00000000000000000000000000000000000011111111111111111110000000000000000000000000000000000011111000000000000000000000000000001111111111111100000000000000011111111111111111111111111111000000000000000000
00000000000000000000000000000000000001111111111111111111110000000000000000000000000000000000000000000000000000000000000000001111111111111110000000000000011111111111111111111111111110000000000000000000
00000000000000000000000000000000000000000000111111111111111000000000000000000000000000000000000000000000000000000000000000001111111111111111110000000000111111111111111111111111111100000000000000000000
00000000000000000000000000000000000000000000000011111111111000000000000000000000000000000000000000000000000000000000000000000001111111111111111000000000111111111111111111111110000000000000000000000000
00000000000000000000000000000000000000000000000000000111111000000000000000000000000000000000000000000000000000000000000000000000000000011111110000000000111111111111111100000000000000000000000000000000
00000000000000000000000000000000000000000000000000000000000000000000000000000000000000000000000000000000000000000000000000000000000000000000000000000000111111111110000000000000000000000000000000000000
00000000000000000000000000000000000000000000000000000000000000000000000000000000000000000000000000000000000000000000000000000000000000000000000000000000111111000000000000000000000000000000000000000000
00000000000000000000000000000000000000000000000000000000000000000000000000000000000000000000000000000000000000000000000000000000000000000000000000000000000000000000000000000000000000000000000000000000
00000000000000000000000000000000000000000000000000000000000000000000000000000000000000000000000000000000000000000000000000000000000000000000000000000000000000000000000000000000000000000000000000000000
00000000000000000000000000000000000000000000000000000000000000000000000000000000000000000000000000000000000000000000000000000000000000000000000000000000000000000000000000000000000000000000000000000000
00000000000000000000000000000000000000000000000000000000000000000000000000000000000000000000000000000000000000000000000000000000000000000000000000000000000000000000000000000000000000000000000000000000
00000000000000000000000000000000000000000000000000000000000000000000000000000000000000000000000000000000000000000000000000000000000000000000000000000000000000000000000000000000000000000000000000000000
00000000000000000000000000000000000000000000000000000000000000000000000000000000000000000000000000000000000000000000000000000000000000000000000000000000000000000000000000000000000000000000000000000000
00000000000000000000000000000000000000000000000000000000000000000000000000000000000000000000000000000000000000000000000000000000000000000000000000000000000000000000000000000000000000000000000000000000
00000000000000000000000000000000000000000000000000000000000000000000000000000000000000000000000000000000000000000000000000000000000000000000000000000000000000000000000000000000000000000000000000000000
