P1
200 72
00000000000000000000000000000000000000000000000000000000000000000000000000000000000000000000000000000000000000000000000000000000000000000000000000000000000000000000000000000000000000000000000000000000
00000000000000000000000000000000000000000000000000000000000000000000000000000000000000000000000000000000000000000000000000000000000000000000000000000000000000000000000000000000000000000000000000000000
00000000000000000000000000000000000000000000000000000000000000000000000000000000000000000000000000000000000000000000000000000000000000000000000000000000000000000000000000000000000000000000000000000000
00000000000000000000000000000000000000000000000000000000000000000000000000000000000000000000000000000000000000000000000000000000000000000000000000000000000000000000000000000000000000000000000000000000
00000000000000000000000000000000000000000000000000000000000000000000000000000000000000000000000000000000000000000000000000000000000000000000000000000000000000000000000000000000000000000000000000000000
00000000000000000000000000000000000000000000000000000000000000000000000000000000000000000000000000000000000000000000000000000000000000000000000000000000000000000000000000000000000000000000000000000000
00000000000000000000000000000000000000000000000000000000000000000000000000000000000000000000000000000000000000000000000000000000000000000000000000000000000000000000000000000000000000000000000000000000
00000000000000000000000000000000000000000000000000000000000000000000000000000000000000000000000000000000000000000000000000000000000000000000000000000000000000000000000000000000000000000000000000000000
00000000000000000000000000000000000000000000000000000000000000000000000000000000000000000000000000000000000000000000000000000000000000000000000000000000000000000000000000000000000000000000000000000000
00000000000000000000000000000000000000000000000000000000000000000000000000000000000000000000000000000000000000000000000000000000000000000000000000000000000000000000000000000000000000000000000000000000
00000000000000000000000000000000000000000000000000000000000000000000000000000000000000000000000000000000000000000000000000000000000000000000000000000000000000000000000000000000000000000000000000000000
00000000000000000000000000000000000000000000000000000000000000000000000000000000000000000000000000000000000001111111111000000000000000000000000000000000000000000000000000000000000000000000000000000000
00000000000000000000000000000000000000000000000000000000000000000000000000000000000000000000000000000000000001111111111111111111111111100000000000000000000000000000000000000000000000000000000000000000
00000000000000000000000000000000000000000000000000000000000000000000000000000000000000000000000000000000000001111111111111111111111111100000000000000000000000000000000000000000000000000000000000000000
00000000000000000000000000000000000000000000000000000000000000000000000000000000000000000000000000000000000001111111111111111111111111100000000000000000000000000000000000000000000000000000000000000000
00000000000000000000000000000000000000000000000000000000000000000000000000000000000000000000000000000000000011111111111111111111111111100000000000000000000000000000000000000000000000000000000000000000
00000000000000000000000000000000000000000000000000000000000000000000000000000000000000000000001110000000000011111111111111111111111111110000000000000000000000000000011111110000000000000000000000000000
00000000000000000000000000000000000000000000001111000000000000000000000000000000000000000000011110000000000011111111111111111111111111110000000000000000000000000000111111111000000000000000000000000000
00000000000000000000000000000000000000000000011111100000000000000000000000000000000000000000111110000000000011111111111111111111111111110000000000000000000000000001111101111100000000000000000000000000
00000000000000000000000000000000000000000000111111100000000000000000000000000000000000000001111110000000000011111111111111111111111111100000000000000000000000000011110000111100000000000000000000000000
00000000000000000000000000000000000000000001111111000000000000000000000000000000000000000111111100000000000011111111100000000000000000000000000000000000000000000111100000111110000000000000000000000000
00000000000000000000000000000000000000000011111111000000000000000000000000000000000000001111111100000000000011111111100000000000000000000000000000000000000000001111100000111110000000000000000000000000
00000000000000000000000000000000000000000111111111000000000000000000000000000000000000001111111100000000000011111111000000000000000000000000000000000000000000001111100000111110000000000000000000000000
00000000000000000000000000000000000000001111100111000000000000000000000000000000000000011111111100000000000011111111000000000000000000000000000000000000000000001111100000111110000000000000000000000000
00000000000000000000000000000000000000011110001111000000000000000000000000000000000000111111111000000000000011111111000000000000000000000000000000000000000000011111100000111110000000000000000000000000
00000000000000000000000000000000000000111100001110000000000000000000000000000000000001111111111000000000000111111111000011111100000000000000000000000000000000011111100000111110000000000000000000000000
00000000000000000000000000000000000011111000011110000000000000000000000000000000000011111111110000000000000111111111001111111111110000000000000000000000000000011111110000111110000000000000000000000000
00000000000000000000000000000000000111110000011110000000000000000000000000000000000111111111110000000000000111111111111111111111111100000000000000000000000000011111111001111110000000000000000000000000
00000000000000000000000000000000001111100000111100000000000000000000000000000000001111111111110000000000000111111111111111111111111110000000000000000000000000011111111001111100000000000000000000000000
00000000000000000000000000000000011111000000011110000000000000000000000000000000001111111111100000000000000111111111111111111111111111000000000000000000000000001111111111111100000000000000000000000000
00000000000000000000000000000001111110000000011100000000000000000000000000000000011111011111100000000000001111111111111111111111111111100000000000000000000000001111111111111000000000000000000000000000
00000000000000000000000000000011111100000000111100000000000000000000000000000000111110011111100000000000001111111111111111111111111111110000000000000000000000000111111111110000000000000000000000000000
00000000000000000000000000000111111000000000111000000000000000000000000000000001111100011111000000000000001111111111111111111111111111111000000000000000000000000111111111100000000000000000000000000000
00000000000000000000000000011111100000000001111000000000000000000000000000000111111000011111000000000000001111111111111100111111111111111000000000000000000000001111111111100000000000000000000000000000
00000000000000000000000000111110000000000001111000000000000000000000000000001111110000111110000000000000001111111111110000001111111111111000000000000000000000111111111111100000000000000000000000000000
00000000000000000000000000111110000000000011111000000000000000000000000000011111100000111110000000000000000111111111100000000011111111111100000000000000000011111101111111100000000000000000000000000000
00000000000000000000000000111111000000000011110000000000000000000000000000111111000000111110000000000000001111111111000000000011111111111100000000000000000111111000111111110000000000000000000000000000
00000000000000000000000000011111111100000011110000000000000000000000000001111110000001111100000000000000001111111110000000000001111111111100000000000000001111110000011111110000000000000000000000000000
00000000000000000000000000001111111110000011110000000000000000000000000011111100000001111100000000000000001111000000000000000001111111111100000000000000011111100000011111111000000000000000000000000000
00000000000000000000000000000000111111110111100000000000000000000000000111111000000011111100000000000000000000000000000000000001111111111100000000000000111111100000011111111000000000000000000000000000
00000000000000000000000000000000011111111111100000000000000000000000001111110000000011111000000000000000000000000000000000000000111111111100000000000000111111000000001111111000000000000000000000000000
00000000000000000000000000000000000001111111100000000000000000000000011111100000000111111000000000000000000000000000000000000000111111111110000000000000111111000000001111111000000000000000000000000000
00000000000000000000000000000000000000111111111000000000000000000000111111000000001111111100000000000000000000000000000000000000111111111110000000000000111111000000000111111100000000000000000000000000
00000000000000000000000000000000000000011111111100000000000000000001111111111101111111111111100000000000000000000000000000000000111111111100000000000000111111000000000111111100000000000000000000000000
00000000000000000000000000000000000000011111111100000000000000000001111111111111111111111111100000000000000000000000000000000001111111111100000000000000111111000000000111111100000000000000000000000000
00000000000000000000000000000000000000011111111000000000000000000011111111111111111111111111100000000000000000000000000000000001111111111100000000000000011111000000000111111100000000000000000000000000
00000000000000000000000000000000000000011110000000000000000000000111111111111111111111111111000000000000000000000000000000000011111111111000000000000000011111000000001111111100000000000000000000000000
00000000000000000000000000000001100000111110000000000000000000000111111111111111111111111110000000000000000001111100000000000111111111110000000000000000001111100000001111111100000000000000000000000000
00000000000000000000000000000011111100111100000000000000000000000111111111111001111111100000000000000000001111111110000000001111111111110000000000000000000111111000001111111000000000000000000000000000
00000000000000000000000000000001111111111100000000000000000000000001110000000000111111000000000000000000111111111110000000011111111111110000000000000000000011111111111111111000000000000000000000000000
00000000000000000000000000000000111111111000000000000000000000000000000000000000111110000000000000000000111111111111111111111111111111100000000000000000000000111111111111110000000000000000000000000000
00000000000000000000000000000000001111111100000000000000000000000000000000000001111110000000000000000000111111111111111111111111111111000000000000000000000000000111111111100000000000000000000000000000
00000000000000000000000000000000000011111100000000000000000000000000000000000001111110000000000000000000111111111111111111111111111100000000000000000000000000000000000100000000000000000000000000000000
00000000000000000000000000000000000001111111000000000000000000000000000000000011111100000000000000000000111111111111111111111111111000000000000000000000000000000000000000000000000000000000000000000000
00000000000000000000000000000000000000011111100000000000000000000000000000000011111100000000000000000000011111111111111111111111110000000000000000000000000000000000000000000000000000000000000000000000
00000000000000000000000000000000000000000011100000000000000000000000000000000111111100000000000000000000011111111111111111111111000000000000000000000000000000000000000000000000000000000000000000000000
00000000000000000000000000000000000000000001000000000000000000000000000000001111111000000000000000000000001111111111111111111100000000000000000000000000000000000000000000000000000000000000000000000000
00000000000000000000000000000000000000000000000000000000000000000000000000001111111000000000000000000000000111111111111111111000000000000000000000000000000000000000000000000000000000000000000000000000
00000000000000000000000000000000000000000000000000000000000000000000000000000001100000000000000000000000000011111111111111000000000000000000000000000000000000000000000000000000000000000000000000000000
00000000000000000000000000000000000000000000000000000000000000000000000000000000000000000000000000000000000000111111010000000000000000000000000000000000000000000000000000000000000000000000000000000000
00000000000000000000000000000000000000000000000000000000000000000000000000000000000000000000000000000000000000000000000000000000000000000000000000000000000000000000000000000000000000000000000000000000
00000000000000000000000000000000000000000000000000000000000000000000000000000000000000000000000000000000000000000000000000000000000000000000000000000000000000000000000000000000000000000000000000000000
00000000000000000000000000000000000000000000000000000000000000000000000000000000000000000000000000000000000000000000000000000000000000000000000000000000000000000000000000000000000000000000000000000000
00000000000000000000000000000000000000000000000000000000000000000000000000000000000000000000000000000000000000000000000000000000000000000000000000000000000000000000000000000000000000000000000000000000
00000000000000000000000000000000000000000000000000000000000000000000000000000000000000000000000000000000000000000000000000000000000000000000000000000000000000000000000000000000000000000000000000000000
00000000000000000000000000000000000000000000000000000000000000000000000000000000000000000000000000000000000000000000000000000000000000000000000000000000000000000000000000000000000000000000000000000000
00000000000000000000000000000000000000000000000000000000000000000000000000000000000000000000000000000000000000000000000000000000000000000000000000000000000000000000000000000000000000000000000000000000
00000000000000000000000000000000000000000000000000000000000000000000000000000000000000000000000000000000000000000000000000000000000000000000000000000000000000000000000000000000000000000000000000000000
00000000000000000000000000000000000000000000000000000000000000000000000000000000000000000000000000000000000000000000000000000000000000000000000000000000000000000000000000000000000000000000000000000000
00000000000000000000000000000000000000000000000000000000000000000000000000000000000000000000000000000000000000000000000000000000000000000000000000000000000000000000000000000000000000000000000000000000
00000000000000000000000000000000000000000000000000000000000000000000000000000000000000000000000000000000000000000000000000000000000000000000000000000000000000000000000000000000000000000000000000000000
00000000000000000000000000000000000000000000000000000000000000000000000000000000000000000000000000000000000000000000000000000000000000000000000000000000000000000000000000000000000000000000000000000000
