P1
200 72
00000000000000000000000000000000000000000000000000000000000000000000000000000000000000000000000000000000000000000000000000000000000000000000000000000000000000000000000000000000000000000000000000000000
00000000000000000000000000000000000000000000000000000000000000000000000000000000000000000000000000000000000000000000000000000000000000000000000000000000000000000000000000000000000000000000000000000000
00000000000000000000000000000000000000000000000000000000000000000000000000000000000000000000000000000000000000000000000000000000000000000000000000000000000000000000000000000000000000000000000000000000
00000000000000000000000000000000000000000000000000000000000000000000000000000000000000000000000000000000000000000000000000000000000000000000000000000000000000000000000000000000000000000000000000000000
00000000000000000000000000000000000000000000000000000000000000000000000000000000000000000000000000000000000000000000000000000000000000000000000000000000000000000000000000000000000000000000000000000000
00000000000000000000000000000000000000000000000000000000000000000000000000000000000000000000000000000000000000000000000000000000000000000000000000000000000000000000000000000000000000000000000000000000
00000000000000000000000000000000000000000000000000000000000000000000000000000000000000000000000000000000000000000000000000000000000000000000000000000000000000000000000000000000000000000000000000000000
00000000000000000000000000000000000000000000000000000000000000000000000000000000000000000000000000000000000000000000000000000000000000000000000000000000000000000000000000000000000000000000000000000000
00000000000000000000000000000000000000000000000000000000000000000000000000000000000000000000000000000000000000000000000000000000000000000000000000000000000000000000000000000000000000000000000000000000
00000000000000000000000000000000000000000000000000000000000000000000000000000000000000000000000000000000000000000000000000000000000000000000000000000000000000000001110000000000000000000000000000000000
00000000000000000000000000000000000000000000000000000000000000000000000000000000000000000000000000000000000000000000000000000000000000000000000000000000000000001111111111000000000000000000000000000000
00000000000000000000000000000000000000000000000000000000000000000000000000000000000000000000000000000000000000000000000000000000000000000000000000000000000000011111111111111000000000000000000000000000
00000000000000000000000000000000000000000000000000000000000000000000000000000000000000000000000000000000000000000000000000000000000000000000000000000000000000011111111111111100000000000000000000000000
00000000000000000000000000000000000000000000000000000000000000000000000000000000000000000000000000000000000000000000000000000000000000000000000000000000000000111111111111111110000000000000000000000000
00000000000000000000000000000000000000000000000000000000000000000000000000000000000000000000000000000000000000000000000000000000000000000000000000000000000001111111111111111110000000000000000000000000
00000000000000000000000000000000000000000000000000000000000000000000000000000000000000000000000000000000000000000000000000001100000000000000000000000000000001111111111111111111000000000000000000000000
00000000000000000000000000000000000000000000000000000000000000000000000000000000000000000000000000000000000000000000000011111100000000000000000000000000000011111111111111111111100000000000000000000000
00000000000000000000000000000000000000001100000000000000000000000000000000000000000000000000000000000000000000000000000111111100000000000000000000000000000011111111111111111111100000000000000000000000
00000000000000000000000000000000000000011111000000000000000000000000000000000000000000000000000000000000000000000000111111110000000000000000000000000000000011111111000001111111110000000000000000000000
00000000000000000000000000000000000000111111000000000000000000000000000000000001110000000000000000000000000000000011111111000000000000000000000000000000000011111110000000111111110000000000000000000000
00000000000000000000000000000000000001111110000000000000000000000000000000000111110000000000000000000000000000011111111100000000000000000000000000000000000000011110000000111111110000000000000000000000
00000000000000000000000000000000000011111110000000000000000000000000000000111111110000000000000000000000000000111111110000000000000000000000000000000000000000000000000000111111110000000000000000000000
00000000000000000000000000000000000111111110000000000000000000000000000111111111110000000000000000000000000111111111000000000000000000000000000000000000000000000000000000111111110000000000000000000000
00000000000000000000000000000000000111111110000000000000000000000000111111111111110000000000000000000000011111111000000000000000000000000000000000000000000000000000000000011111110000000000000000000000
00000000000000000000000000000000001111111110000000000000000000000111111111111111110000000000000000000000011111100000000000000000000000000000000000000000000000000000000000011111110000000000000000000000
00000000000000000000000000000000011111111110000000000000000000111111111111111111111000000000000000000000011111000000000000000000000000000000000000000000000000000000000000111111110000000000000000000000
00000000000000000000000000000000011111111100000000000000001111111111111111111111111000000000000000000000011111000000000000000000000000000000000000000000000000000000000000111111110000000000000000000000
00000000000000000000000000000000111111111100000000000000011111111111111111111111111000000000000000000000001111000000000000000000000000000000000000000000000000000000000000111111110000000000000000000000
00000000000000000000000000000001111011111000000000000000011111111111111111111111100000000000000000000000000111000000000000000000000000000000000000000000000000000001000001111111110000000000000000000000
00000000000000000000000000000001110011111000000000000000011111111111111111111100000000000000000000000000000111100000000000000000000000000000000000000000000000000011111111111111100000000000000000000000
00000000000000000000000000000011110011111000000000000000011111111111111111100000000000000000000000000000000111100000000000000000000000000000000000000000000000000011111111111111100000000000000000000000
00000000000000000000000000000011100011111000000000000000011111111111111000000000000000000000000000000000000111110000000000111110000000000000000000000000000000000001111111111111100000000000000000000000
00000000000000000000000000000111100011111000000000000000011111111111100000000000000000000000000000000000000011110000000111111111000000000000000000000000000000000001111111111111100000000000000000000000
00000000000000000000000000001111000111111000000000000000011111111100000000000000000000000000000000000000000011111000111111111111100000000000000000000000000000000011111111111111000000000000000000000000
00000000000000000000000000011110000111110000000000000000011111111000000000000000000000000000000000000000000001111001111111111111110000000000000000000000000000000011111111111110000000000000000000000000
00000000000000000000000000011110000111110000000000000000011111111000000000000000000000000000000000000000000001111111111100001111110000000000000000000000000000000011111111111000000000000000000000000000
00000000000000000000000000111100000111110000000000000000011111111000000000111111100000000000000000000000000001111111110000000011110000000000000000000000000000000001111111110000000000000000000000000000
00000000000000000000000001111100000111100000000000000000011111111000001111111111110000000000000000000000000000111111000000000011110000000000000000000000000000000000011111111000000000000000000000000000
00000000000000000000000001111000000111100000000000000000011111111111111111111111111110000000000000000000000000111110000000000001110000000000000000000000000000000000001111111000000000000000000000000000
00000000000000000000000011110000001111100000000000000000011111111111111111111111111111000000000000000000000000111100000000000001111000000000000000000000001110000000000111111100000000000000000000000000
00000000000000000000000011110000001111100010000000000000011111111111111111111111111111100000000000000000000000111100000000000000111000000000000000000000011111100000000011111110000000000000000000000000
00000000000000000000000111100000001111111111000000000000011111111111111111111111111111110000000000000000000000000000000000000000111000000000000000000000011111111000000011111110000000000000000000000000
00000000000000000000001111000000011111111111000000000000011111111111111111111111111111110000000000000000000000000000000000000001111000000000000000000000011111111000000011111110000000000000000000000000
00000000000000000000001111000000111111111110000000000000011111111111111111111111111111111000000000000000000000000000000000000000111000000000000000000000001111111000000001111111000000000000000000000000
00000000000000000000011110001111111111111000000000000000011111111111111111111111111111111000000000000000000000000000000000000000111000000000000000000000001111111000000001111111000000000000000000000000
00000000000000000000011111111111111111000000000000000000011111111111010001111111111111111100000000000000000000000000000000000001111000000000000000000000001111111000000001111111000000000000000000000000
00000000000000000000111111111111111110000000000000000000011111111000000000011111111111111100000000000000000000000000000000000001110000000000000000000000000111111000000001111111000000000000000000000000
00000000000000000000111111111111111110000000000000000000011111100000000000001111111111111100000000000000000000000000000000000001110000000000000000000000000111111100000001111111000000000000000000000000
00000000000000000000111111111100111110000000000000000000011000000000000000000111111111111110000000000000000000000000000000000001100000000000000000000000000111111110000001111111000000000000000000000000
00000000000000000000111111000000111110000000000000000000000000000000000000000011111111111110000000000000000000000000000000000011100000000000000000000000000111111110000001111111100000000000000000000000
00000000000000000000111100000001111110000000000000000000000000000000000000000011111111111110000000000000000000000000000000000011100000000000000000000000000011111111000011111111100000000000000000000000
00000000000000000000000000000001111110110000000000000000000000000000000000000001111111111110000000000000000000000000000000000111000000000000000000000000000011111111111111111111000000000000000000000000
00000000000000000000000000000001111111110000000000000000000000000000000000000011111111111110000000000000000000000000000000001111000000000000000000000000000001111111111111111111000000000000000000000000
00000000000000000000000000000001111111110000000000000000000000000000000000000011111111111111000000000000000000000000000000001110000000000000000000000000000000111111111111111111000000000000000000000000
00000000000000000000000000000001111111110000000000000000000000000000000000000011111111111111000000000000000000000000000000011100000000000000000000000000000000111111111111111111000000000000000000000000
00000000000000000000000000001111111111000000000000000000000000000000000000000011111111111110000000000000000000000000000000111100000000000000000000000000000000011111111111111110000000000000000000000000
00000000000000000000000000011111111100000000000000000000000000000000000000000111111111111110000000000000000000000000000011111000000000000000000000000000000000001111111111111110000000000000000000000000
00000000000000000000000000111111100000000000000000000000000000000000000000001111111111111110000000000000000000000000011111110000000000000000000000000000000000000111111111111110000000000000000000000000
00000000000000000000000000111111000000000000000000000000100000000000000000111111111111111110000000000000000000000000111111100000000000000000000000000000000000000001111111111100000000000000000000000000
00000000000000000000000001111100000000000000000000000001111010000000000001111111111111111100000000000000000000000000111111000000000000000000000000000000000000000000111111111100000000000000000000000000
00000000000000000000000000100000000000000000000000000001111111110111000111111111111111111100000000000000000000000000111100000000000000000000000000000000000000000000011111111000000000000000000000000000
00000000000000000000000000000000000000000000000000000001111111111111111111111111111111111000000000000000000000000000000000000000000000000000000000000000000000000000000111100000000000000000000000000000
00000000000000000000000000000000000000000000000000000001111111111111111111111111111111110000000000000000000000000000000000000000000000000000000000000000000000000000000000000000000000000000000000000000
00000000000000000000000000000000000000000000000000000001111111111111111111111111111111100000000000000000000000000000000000000000000000000000000000000000000000000000000000000000000000000000000000000000
00000000000000000000000000000000000000000000000000000001111111111111111111111111111111000000000000000000000000000000000000000000000000000000000000000000000000000000000000000000000000000000000000000000
00000000000000000000000000000000000000000000000000000001111111111111111111111111111100000000000000000000000000000000000000000000000000000000000000000000000000000000000000000000000000000000000000000000
00000000000000000000000000000000000000000000000000000001111111111111111111111111100000000000000000000000000000000000000000000000000000000000000000000000000000000000000000000000000000000000000000000000
00000000000000000000000000000000000000000000000000000000001111111111111111100000000000000000000000000000000000000000000000000000000000000000000000000000000000000000000000000000000000000000000000000000
00000000000000000000000000000000000000000000000000000000000000000000000000000000000000000000000000000000000000000000000000000000000000000000000000000000000000000000000000000000000000000000000000000000
00000000000000000000000000000000000000000000000000000000000000000000000000000000000000000000000000000000000000000000000000000000000000000000000000000000000000000000000000000000000000000000000000000000
00000000000000000000000000000000000000000000000000000000000000000000000000000000000000000000000000000000000000000000000000000000000000000000000000000000000000000000000000000000000000000000000000000000
00000000000000000000000000000000000000000000000000000000000000000000000000000000000000000000000000000000000000000000000000000000000000000000000000000000000000000000000000000000000000000000000000000000
