P1
200 72
00000000000000000000000000000000000000000000000000000000000000000000000000000000000000000000000000000000000000000000000000000000000000000000000000000000000000000000000000000000000000000000000000000000
00000000000000000000000000000000000000000000000000000000000000000000000000000000000000000000000000000000000000000000000000000000000000000000000000000000000000000000000000000000000000000000000000000000
00000000000000000000000000000000000000000000000000000000000000000000000000000000000000000000000000000000000000000000000000000000000000000000000000000000000000000000000000000000000000000000000000000000
00000000000000000000000000000000000000000000000000000000000000000000000000000000000000000000000000000000000000000000000000000000000000000000000000000000000000000000000000000000000000000000000000000000
00000000000000000000000000000000000000000000000000000000000000000000000000000000000000000000000000000000000000000000000000000000000000000000000000000000000000000000000000000000000000000000000000000000
00000000000000000000000000000000000000000000000000000000000000000000000000000000000000000000000000000000000000000000000000000000000000000000000000000000000000000000000000000000000000000000000000000000
00000000000000000000000000000000000000000000000000000000000000000000000000000000000000000000000000000000000000000000000000000000000000000000000000000000000000000000000000000000000000000000000000000000
00000000000000000000000000000000000000000000000000000000000000000000000000000000000000000000000000000000000000000000000000000000000000000000000000000000000000000000000000000000000000000000000000000000
00000000000000000000000000000000000000000000000000000000000000000000000000000000000000000000000000000000000000000000000000000000000000000000000000000000000000000000000000000000000000000000000000000000
00000000000000000000000000000000000000000000000000000000000000000000000000000000000000000000000000000000000000000000000000000000000000000000000000000000000000000000000000000000000000000000000000000000
00000000000000000000000000000000000000000000000000000000000000000000000000000000000000000000000000000000000000000000000000000000000000000000000000000000000000000000000000000000000000000000000000000000
00000000000000000000000000000000000000000000000000000000000000000000000000000000000000000000000000000000000000000000000000000000000000000000000000000000000000000000000000000000000000000000000000000000
00000000000000000000000000000000000000000000000000000000000000000000000000000000000000000000000000000000000000000000000000000000000000000000000000000000000000000000000000000000000000000000000000000000
00000000000000000000000000000000000000000000000000001100000000000000000000000000000000000000000000000000000000000000000000000000000000000000000000000000000000000000000000000000000000000000000000000000
00000000000000000000000000000000000000000000000000011100000000000000000000001111111100000000000000000000000000000000000000000000000000000000000000000000000000000000000000000000000000000000000000000000
00000000000000000000000000000000000000000000000011111100000000000000000000111111111111110000000000000000000000000000000000000000000000000000000000000000000000000000000000000000000000000000000000000000
00000000000000000000000000000000000000000000001111111100000000000000000001111111111111111110000000000000000000000000000000000000000000000000000000000001101111000000000000000000000000000000000000000000
00000000000000000000000000000000000000000000011111111100000000000000000011111111111111111111000000000000000000000000000000000000000000000000000000000111111111111110000000000000000000000000000000000000
00000000000000000000000000000000000000000000011111111000000000000000000011111110000000011111000000000000000000000000000000000000000000000000000000001111111111111111100000000000000000000000000000000000
00000000000000000000000000000000000000000000111111110000000000000000000111111100000000001111000000000000000000000000000000000000000000000000000000011111111111111111111000000000000000000000000000000000
00000000000000000000000000000000000000000000111111110000000000000000000111111100000000001111000000000000000000000000011110000000000000000000000000111111110000000111111100000000000000000000000000000000
00000000000000000000000000000000000000000000111111110000000000000000001111111000000000000111100000000000000000000000111110000000000000000000000001111111100000000011111100000000000000000000000000000000
00000000000000000000000000000000000000000001111111110000000000000000001111110000000000000111100000000000000000000001111111000000000000000000000001111111000000000001111110000000000000000000000000000000
00000000000000000000000000000000000000000011111111110000000000000000001111110000000000000111100000000000000000000011111111000000000000000000000001111111000000000000111111000000000000000000000000000000
00000000000000000000000000000000000000000111111111100000000000000000011111110000000000000000000000000000000000000111111111000000000000000000000001111111000000000000011111100000000000000000000000000000
00000000000000000000000000000000000000001111111111100000000000000000011111110000000000000000000000000000000000000111111111000000000000000000000001111111000000000000011111110000000000000000000000000000
00000000000000000000000000000000000000001111111111100000000000000000011111110000000000000000000000000000000000001111111111100000000000000000000001111111000000000000001111110000000000000000000000000000
00000000000000000000000000000000000000001111111111100000000000000000011111110000000000000000000000000000000000011111111111100000000000000000000001111111100000000000001111110000000000000000000000000000
00000000000000000000000000000000000000011111111111100000000000000000011111110000000000000000000000000000000000111110111111100000000000000000000001111111100000000000000111111000000000000000000000000000
00000000000000000000000000000000000000011111111111100000000000000000011111110000000000000000000000000000000000111000011111100000000000000000000000111111100000000000000111111000000000000000000000000000
00000000000000000000000000000000000000111110111111000000000000000000011111110000000000000000000000000000000000110000011111100000000000000000000000011111100000000000000111111000000000000000000000000000
00000000000000000000000000000000000001111111111111000000000000000000011111110000111111111110000000000000000000000000011111110000000000000000000000011111110000000000000011111000000000000000000000000000
00000000000000000000000000000000000001111101111111000000000000000000011111111111111111111111100000000000000000000000001111110000000000000000000000011111111000000000000011111100000000000000000000000000
00000000000000000000000000000000000011111001111111000000000000000000011111111111111111111111110000000000000000000000001111110000000000000000000000011111111000000000000011111110000000000000000000000000
00000000000000000000000000000000000011111001111111000000000000000000001111111111111101111111111000000000000000000000001111110000000000000000000000001111111100000000000011111110000000000000000000000000
00000000000000000000000000000000000111110001111111000000000000000000001111111111000000001111111100000000000000000000001111111000000000000000000000000111111100000000000001111110000000000000000000000000
00000000000000000000000000000000000111110001111110000000000000000000001111111000000000000111111110000000000000000000001111111000000000000000000000000011111111000000000001111110000000000000000000000000
00000000000000000000000000000000001111100001111110000000000000000000001111111000000000000011111111000000000000000000000111111000000000000000000000000001111111110000000111111110000000000000000000000000
00000000000000000000000000000000011111000001111110000000000000000000001111111000000000000001111111000000000000000000000111111000000000000000000000000000011111111111111111111111000000000000000000000000
00000000000000000000000000000000011111000011111110000000000000000000001111111000000000000001111111100000000000000000000111111100000000000000000000000000001111111111111111111111000000000000000000000000
00000000000000000000000000000000111110000011111110000000000000000000001111111000000000000001111111100000000000000000000011111100000000000000000000000000000111111111111111111111000000000000000000000000
00000000000000000000000000000000111110000011111100000000000000000000001111111000000000000000111111100000000000000000000011111100000000000000000000000000000001111111111000111111000000000000000000000000
00000000000000000000000000000001111100000011111100000000000000000000001111111000000000000000111111100000000000000000000011111100000000000000000000000000000000000000000000011111000000000000000000000000
00000000000000000000000000000011111100000011111100000000000000000000001111111100000000000000111111110000000000000000000011111110000000000000000000000000000000000000000000011111000000000000000000000000
00000000000000000000000000000011111000000011111100000000000000000000001111111100000000000000111111110000000000000000000011111110000000000000000000000000000000000000000000111111000000000000000000000000
00000000000000000000000000000011110000000011111000000000000000000000001111111100000000000000111111100000000000000000000001111110000000000000000000000000000000000000000000111111000000000000000000000000
00000000000000000000000000000111110000000011111001100000000000000000000111111100000000000000111111100000000000000000000001111110000000000000000000000000000000000000000000011111000000000000000000000000
00000000000000000000000000000111100000000111111111110000000000000000000111111100000000000000111111100000000000000000000000111110000000000000000000000000000000000000000000011111000000000000000000000000
00000000000000000000000000001111100000000111111111110000000000000000000111111110000000000000111111100000000000000000000000111111000000000000000000000000000000000000000000011111000000000000000000000000
00000000000000000000000000011111100000001111111111110000000000000000000011111110000000000000111111000000000000000000000000111111000000000000000000000000001100000000000000111111000000000000000000000000
00000000000000000000000000111111000011111111111111110000000000000000000011111111000000000001111110000000000000000000000000111111000000000000000000000000001110000000000000111111000000000000000000000000
00000000000000000000000000111111001111111111111111110000000000000000000001111111100000000011111110000000000000000000000000111111000000000000000000000000001111000000000000111110000000000000000000000000
00000000000000000000000001111111111111111111111111100000000000000000000000111111110000001111111100000000000000000000011100111111000000000000000000000000001111100000000001111110000000000000000000000000
00000000000000000000000001111111111111111111111000000000000000000000000000111111111111111111111000000000000000000000111111111111100000000000000000000000001111100000000001111110000000000000000000000000
00000000000000000000000001111111111111111111110000000000000000000000000000011111111111111111100000000000000000000000011111111111100000000000000000000000000111111110000111111100000000000000000000000000
00000000000000000000000001111111111111111111110000000000000000000000000000000111111111111000000000000000000000000000001111111111111000000000000000000000000111111111111111111000000000000000000000000000
00000000000000000000000001111111111100001111110000000000000000000000000000000011111110000000000000000000000000000000000000011111111111100000000000000000000000111111111111110000000000000000000000000000
00000000000000000000000001111111111000001111110000000000000000000000000000000000000000000000000000000000000000000000000000000011111111110000000000000000000000001111111111100000000000000000000000000000
00000000000000000000000001111000000000001111110000000000000000000000000000000000000000000000000000000000000000000000000000000000111111110000000000000000000000000000001000000000000000000000000000000000
00000000000000000000000000000000000000001111100000000000000000000000000000000000000000000000000000000000000000000000000000000000000011110000000000000000000000000000000000000000000000000000000000000000
00000000000000000000000000000000000000001111100000000000000000000000000000000000000000000000000000000000000000000000000000000000000000110000000000000000000000000000000000000000000000000000000000000000
00000000000000000000000000000000000000011111100000000000000000000000000000000000000000000000000000000000000000000000000000000000000000000000000000000000000000000000000000000000000000000000000000000000
00000000000000000000000000000000000000011111100000000000000000000000000000000000000000000000000000000000000000000000000000000000000000000000000000000000000000000000000000000000000000000000000000000000
00000000000000000000000000000000000000011111100000000000000000000000000000000000000000000000000000000000000000000000000000000000000000000000000000000000000000000000000000000000000000000000000000000000
00000000000000000000000000000000000000011111000000000000000000000000000000000000000000000000000000000000000000000000000000000000000000000000000000000000000000000000000000000000000000000000000000000000
00000000000000000000000000000000000000011100000000000000000000000000000000000000000000000000000000000000000000000000000000000000000000000000000000000000000000000000000000000000000000000000000000000000
00000000000000000000000000000000000000000000000000000000000000000000000000000000000000000000000000000000000000000000000000000000000000000000000000000000000000000000000000000000000000000000000000000000
00000000000000000000000000000000000000000000000000000000000000000000000000000000000000000000000000000000000000000000000000000000000000000000000000000000000000000000000000000000000000000000000000000000
00000000000000000000000000000000000000000000000000000000000000000000000000000000000000000000000000000000000000000000000000000000000000000000000000000000000000000000000000000000000000000000000000000000
00000000000000000000000000000000000000000000000000000000000000000000000000000000000000000000000000000000000000000000000000000000000000000000000000000000000000000000000000000000000000000000000000000000
00000000000000000000000000000000000000000000000000000000000000000000000000000000000000000000000000000000000000000000000000000000000000000000000000000000000000000000000000000000000000000000000000000000
00000000000000000000000000000000000000000000000000000000000000000000000000000000000000000000000000000000000000000000000000000000000000000000000000000000000000000000000000000000000000000000000000000000
