P1
200 72
00000000000000000000000000000000000000000000000000000000000000000000000000000000000000000000000000000000000000000000000000000000000000000000000000000000000000000000000000000000000000000000000000000000
00000000000000000000000000000000000000000000000000000000000000000000000000000000000000000000000000000000000000000000000000000000000000000000000000000000000000000000000000000000000000000000000000000000
00000000000000000000000000000000000000000000000000000000000000000000000000000000000000000000000000000000000000000000000000000000000000000000000000000000000000000000000000000000000000000000000000000000
00000000000000000000000000000000000000000000000000000000000000000000000000000000000000000000000000000000000000000000000000000000000000000000000000000000000000000000000000000000000000000000000000000000
00000000000000000000000000000000000000000000000000000000000000000000000000000000000000000000000000000000000000000000000000000000000000000000000000000000000000000000000000000000000000000000000000000000
00000000000000000000000000000000000000000000000000000000000000000000000000000000000000000000000000000000000000000000000000000000000000000000000000000000000000000000000000000000000000000000000000000000
00000000000000000000000000000000000000000000000000000000000000000000000000000000000000000000000000000000000000000000000000000000000000000000000000000000000000000000000000000000000000000000000000000000
00000000000000000000000000000000000000000000000000000000000000000000000000000000000000000000000000000000000000000000000000000000000000000000000000000000000000000000000000000000000000000000000000000000
00000000000000000000000000000000000000000000000000000000000000000000000000000000000000000000000000000000000000000000000000000000000000000000000000000000000000000000000000000000000000000000000000000000
00000000000000000000000000000000000000000000000000000000000000000000000000000000000000000000000000000000000000000000000000000000000000000000000000000000000000000000000000000000000000000000000000000000
00000000000000000000000000000000000000000000000000000000000000000000000000000000000000000000000000000000000000000000000000000000000000000000000000000000000000000000000000000000000000000000000000000000
00000000000000000000000000000000000000000000000000000000000000000000000000000000000000000000000000000000000000000000000000000000000000000000000000000000000000000000000000000000000000000000000000000000
00000000000000000000000000000000000000000000000000000000000000000000000000000000000000000000000000000000000000000000000000000000000000000000000000000000000000001111110000000000000000000000000000000000
00000000000000000000000000000000000000000000000000000000000000000000000000000001000000000000000000000000000000000111111110000000000000000000000000000000000000111111111000000000000000000000000000000000
00000000000000000000000000000000000000000000000000000000000000000000000000001111100000000000000000000000000000001111111111111111110000000000000000000000000000111111111111111000000000000000000000000000
00000000000000000000000000000000000000000000000000000000000000000000000000011111110000000000000000000000000000001111111111111111111111111110000000000000000001111111111111111100000000000000000000000000
00000000000000000000000000000000000000000000000000000000000000000000000011111111110000000000000000000000000000000111111111111111111111111111110000000000000011111111111111111110000000000000000000000000
00000000000000000000000000000000000000000000000000000000000000000000000111111111111000000000000000000000000000000111111111111111111111111111110000000000000111111111111111111111100000000000000000000000
00000000000000000000000000000000000000000000000000000000000000000000001111111111110000000000000000000000000000000000011111111111111111111111100000000000000111111111111111111111100000000000000000000000
00000000000000000000000000000000000000000000000000000000000000000000011111100011111000000000000000000000000000000000000000000011111111111111100000000000000111111111000001111111110000000000000000000000
00000000000000000000000000000000000000000000000000000000000000000000111111000001111000000000000000000000000000000000000000000000000011111111000000000000001111111100000000011111110000000000000000000000
00000000000000000000000000000000000000000000000000000000000000000000111110000001111100000000000000000000000000000000000000000000000011111111000000000000011111111100000000001111111000000000000000000000
00000000000000000000000000000000000000000000000000000000000000000001111100000000111100000000000000000000000000000000000000000000000111111111000000000000011111111000000000001111111000000000000000000000
00000000000000000000000000000000000000001100000000000000000000000011111100000000111000000000000000000000000000000000000000000000000111111110000000000000001111111000000000001111111000000000000000000000
00000000000000000000000000000000000000111111100000000000000000000011111000000000000000000000000000000000000000000000000000000000001111111100000000000000001111111000000000001111111000000000000000000000
00000000000000000000000000000000000011111111110000000000000000000111111000000000000000000000000000000000000000000000000000000000001111111000000000000000011111110000000000000111111100000000000000000000
00000000000000000000000000000000000111111111100000000000000000000111111000000000000000000000000000000000000000000000000000000000011111111000000000000000011111110000000000000111111100000000000000000000
00000000000000000000000000000000001111111111100000000000000000001111110000000000000000000000000000000000000000000000000000000000111111110000000000000000011111110000000000000111111100000000000000000000
00000000000000000000000000000000001111111111000000000000000000001111110000000000000000000000000000000000000000000000000000000000111111100000000000000000011111100000000000000011111100000000000000000000
00000000000000000000000000000000011111111111000000000000000000001111110000000000000000000000000000000000000000000000000000000000111111100000000000000000011111100000000000000111111100000000000000000000
00000000000000000000000000000001111111111111000000000000000000001111110000000111000000000000000000000000000000000000000000000001111111100000000000000000011111100000000000000111111000000000000000000000
00000000000000000000000000000011111101111110000000000000000000011111110001111111110000000000000000000000000000000000000000000011111111000000000000000000011111100000000000000111111000000000000000000000
00000000000000000000000000000111111001111110000000000000000000111111110011111111111110000000000000000000000000000000000000000011111110000000000000000000011111100000000000000111111000000000000000000000
00000000000000000000000000000111110001111110000000000000000000111111111111111111111111000000000000000000000000000000000000000111111110000000000000000000011111100000000000000111111000000000000000000000
00000000000000000000000000001111100011111110000000000000000000111111111111111111111111000000000000000000000000000000000000000111111100000000000000000000011111100000000000000111111000000000000000000000
00000000000000000000000000011111000011111100000000000000000000111111111111111111111111100000000000000000000000000000000000001111111100000000000000000000011111100000000000000111111000000000000000000000
00000000000000000000000000111110000011111100000000000000000000111111111110011111111111110000000000000000000000000000000000001111111000000000000000000000011111100000000000000111111000000000000000000000
00000000000000000000000000111110000011111000000000000000000000111111111000000011111111111000000000000000000000000000000000011111111000000000000000000000011111100000000000000111110000000000000000000000
00000000000000000000000001111100000011111000000000000000000000111111110000000011111111111000000000000000000000000000000000011111110000000000000000000000011111100000000000001111110000000000000000000000
00000000000000000000000011110000000011111000000000000000000000111111111000000001111111111000000000000000000000000000000000111111100000000000000000000000011111100000000000001111110000000000000000000000
00000000000000000000000111110000000011111000000000000000000000111111111000000000111111111100000000000000000000000000000000111111100000000000000000000000011111100000000000001111110000000000000000000000
00000000000000000000000111100000000011111000000000000000000000111111111000000000011111111100000000000000000000000000000001111111100000000000000000000000011111100000000000011111110000000000000000000000
00000000000000000000001111100000000111111000000000000000000000111111111000000000011111111110000000000000000000000000000011111111000000000000000000000000011111100000000000011111100000000000000000000000
00000000000000000000001111000000000111111000000000000000000000111111111000000000011111111110000000000000000000000000000011111110000000000000000000000000011111100000000000011111100000000000000000000000
00000000000000000000011111000000000111111000000000000000000000111111111000000000011111111110000000000000000000000000000011111110000000000000000000000000001111100000000000011111100000000000000000000000
00000000000000000000011110000000001111111111110000000000000000111111111100000000011111111110000000000000000000000000000111111100000000000000000000000000001111100000000000011111000000000000000000000000
00000000000000000000111111111111111111111111110000000000000000011111111100000000011111111110000000000000000000000000000111111100000000000000000000000000001111100000000000111111000000000000000000000000
00000000000000000000111111111111111111111111100000000000000000011111111110000000011111111110000000000000000000000000001111111000000000000000000000000000001111110000000000111111000000000000000000000000
00000000000000000001111111111111111111110000000000000000000000001111111111000000011111111110000000000000000000000000001111111000000000000000000000000000001111110000000001111110000000000000000000000000
00000000000000000001111111111100011111100000000000000000000000000111111111100000111111111110000000000000000000000000011111110000000000000000000000000000001111110000000001111110000000000000000000000000
00000000000000000000111110000000011111100000000000000000000000000011111111111111111111111100000000000000000000000000111111110000000000000000000000000000000111111000000011111100000000000000000000000000
00000000000000000000000000000000011111100000000000000000000000000001111111111111111111111000000000000000000000000000111111100000000000000000000000000000000111111000000011111000000000000000000000000000
00000000000000000000000000000000011111000000000000000000000000000000011111111111111111110000000000000000000000000000111111100000000000000000000000000000000111111100000111111000000000000000000000000000
00000000000000000000000000000000011111111110000000000000000000000000000011111111111111100000000000000000000000000001111111000000000000000000000000000000000011111110001111110000000000000000000000000000
00000000000000000000000000000000011111111110000000000000000000000000000000000010000000000000000000000000000000000001111111000000000000000000000000000000000011111111111111100000000000000000000000000000
00000000000000000000000000000011111111111110000000000000000000000000000000000000000000000000000000000000000000000001111110000000000000000000000000000000000001111111111111100000000000000000000000000000
00000000000000000000000000001111111111111000000000000000000000000000000000000000000000000000000000000000000000000011111110000000000000000000000000000000000001111111111111000000000000000000000000000000
00000000000000000000000000001111111010000000000000000000000000000000000000000000000000000000000000000000000000000111111100000000000000000000000000000000000000111111111110000000000000000000000000000000
00000000000000000000000000001110000000000000000000000000000000000000000000000000000000000000000000000000000000000111111100000000000000000000000000000000000000001111111000000000000000000000000000000000
00000000000000000000000000000000000000000000000000000000000000000000000000000000000000000000000000000000000000000111111100000000000000000000000000000000000000000000000000000000000000000000000000000000
00000000000000000000000000000000000000000000000000000000000000000000000000000000000000000000000000000000000000000000000000000000000000000000000000000000000000000000000000000000000000000000000000000000
00000000000000000000000000000000000000000000000000000000000000000000000000000000000000000000000000000000000000000000000000000000000000000000000000000000000000000000000000000000000000000000000000000000
00000000000000000000000000000000000000000000000000000000000000000000000000000000000000000000000000000000000000000000000000000000000000000000000000000000000000000000000000000000000000000000000000000000
00000000000000000000000000000000000000000000000000000000000000000000000000000000000000000000000000000000000000000000000000000000000000000000000000000000000000000000000000000000000000000000000000000000
00000000000000000000000000000000000000000000000000000000000000000000000000000000000000000000000000000000000000000000000000000000000000000000000000000000000000000000000000000000000000000000000000000000
00000000000000000000000000000000000000000000000000000000000000000000000000000000000000000000000000000000000000000000000000000000000000000000000000000000000000000000000000000000000000000000000000000000
00000000000000000000000000000000000000000000000000000000000000000000000000000000000000000000000000000000000000000000000000000000000000000000000000000000000000000000000000000000000000000000000000000000
00000000000000000000000000000000000000000000000000000000000000000000000000000000000000000000000000000000000000000000000000000000000000000000000000000000000000000000000000000000000000000000000000000000
00000000000000000000000000000000000000000000000000000000000000000000000000000000000000000000000000000000000000000000000000000000000000000000000000000000000000000000000000000000000000000000000000000000
00000000000000000000000000000000000000000000000000000000000000000000000000000000000000000000000000000000000000000000000000000000000000000000000000000000000000000000000000000000000000000000000000000000
00000000000000000000000000000000000000000000000000000000000000000000000000000000000000000000000000000000000000000000000000000000000000000000000000000000000000000000000000000000000000000000000000000000
00000000000000000000000000000000000000000000000000000000000000000000000000000000000000000000000000000000000000000000000000000000000000000000000000000000000000000000000000000000000000000000000000000000
