P1
200 72
00000000000000000000000000000000000000000000000000000000000000000000000000000000000000000000000000000000000000000000000000000000000000000000000000000000000000000000000000000000000000000000000000000000
00000000000000000000000000000000000000000000000000000000000000000000000000000000000000000000000000000000000000000000000000000000000000000000000000000000000000000000000000000000000000000000000000000000
00000000000000000000000000000000000000000000000000000000000000000000000000000000000000000000000000000000000000000000000000000000000000000000000000000000000000000000000000000000000000000000000000000000
00000000000000000000000000000000000000000000000000000000000000000000000000000000000000000000000000000000000000000000000000000000000000000000000000000000000000000000000000000000000000000000000000000000
00000000000000000000000000000000000000000000000000000000000000000000000000000000000000000000000000000000000000000000000000000000000000000000000000000000000000000000000000000000000000000000000000000000
00000000000000000000000000000000000000000000000000000000000000000000000000000000000000000000000000000000000000000000000000000000000000000000000000000000000000000000000000000000000000000000000000000000
00000000000000000000000000000000000000000000000000000000000000000000000000000000000000000000000000000000000000000000000000000000000000000000000000000000000000000000000000000000000001000000000000000000
00000000000000000000000000000000000000000000000000000000000000000000000000000000000000000000000000000000000000000000000000000000000000000000000000000000000000000000000000000000011111000000000000000000
00000000000000000000000000000000000000000000000000000000000000000000000000000000000000000000000000000000000000000000000000000000000000000000000000000000000000000000000000000111111111000000000000000000
00000000000000000000000000000000000000000000000000000000000000000000000000000000000000000000000000000000000000000000000000000000000000000000000000000000000000000000000001111111111111000000000000000000
00000000000000000000000000000000000000000000000000000000000000000000000000000000000000000000000000000000000000000000000000000000000000000000000000000000000000000000011111111111111110000000000000000000
00000000000000000000000000000000000000000000000000000000000000000000000000000000000000000000000000000000000011000000000000000000000000000000000000000000000000000111111111111111111100000000000000000000
00000000000000000000000000000000000000000000000000000000000000000000000011111111000000000000000000000000000011110000000000000000000000000000000000000000000000001111111111111111110000000000000000000000
00000000000000000000000000000000000000000000000000000000000000000000000111111111110000000000000000000000000011111100000000000000000000000000000000000000000000001111111111111100000000000000000000000000
00000000000000000000000000000000000000000000000000000000000000000001111111111111111000000000000000000000000011111111000000000000000000000000000000000000000000000111111111000000000000000000000000000000
00000000000000000000000000000000000000000000000000000000000000000111111111111111111000000000000000000000000011111111110000000000000000000000000000000000000000000111110000000000000000000000000000000000
00000000000000000000000000000000000000000000000000000000000000001111111111111111111100000000000000000000000111111111111100000000000000000000000000000000000000001111000000000000000000000000000000000000
00000000000000000000000000000000000000000000000000000000000000011111111111111111111100000000000000000000000111111111111110000000000000000000000000000000000000001111000000000000000000000000000000000000
00000000000000000000000000000000000000000100000000000000000001111111111100001000001100000000000000000000000111101111111111100000000000000000000000000000000000001111000000000000000000000000000000000000
00000000000000000000000000000000000000011111110000000000000011111111110000000000000000000000000000000000000111100001111111111000000000000000000000000000000000001111000000000000000000000000000000000000
00000000000000000000000000000000000000111111110000000000000011111111000000000000000000000000000000000000000111000000111111111110000000000000000000000000000000001111000000000000000000000000000000000000
00000000000000000000000000000000000011111111110000000000000111111110000000000000000000000000000000000000000000000000001111111111100000000000000000000000000000001111000000000000000000000000000000000000
00000000000000000000000000000000000111111111100000000000001111111100000000000000000000000000000000000000000000000000000011111111111000000000000000000000000000001111000000000000000000000000000000000000
00000000000000000000000000000000011111111111000000000000001111111000000000000000000000000000000000000000000000000000000000111111111100000000000000000000000000001111000000000000000000000000000000000000
00000000000000000000000000000000111111111110000000000000011111111000000000000000000000000000000000000000000000000000000000011111111111000000000000000000000000001111000000000100000000000000000000000000
00000000000000000000000000000001111111111110000000000000011111110000000000000000000000000000000000000000000000000000000000000011111111000000000000000000000000001111000001111111000000000000000000000000
00000000000000000000000000000011111111111100000000000000011111110000000000000000000000000000000000000000000000000000000000000001111111000000000000000000000000001110000111111111111000000000000000000000
00000000000000000000000000000111101111111000000000000000011111110000000000000000000000000000000000000000000000000000000000000001111111000000000000000000000000001110011111111111111000000000000000000000
00000000000000000000000000011111001111111000000000000000011111110000111001111100000000000000000000000000000000000000000000000011111111000000000000000000000000011111111111111111111000000000000000000000
00000000000000000000000000111110001111110000000000000000111111100001111111111111110000000000000000000000000000000000000000000011111110000000000000000000000000011111111111111111111100000000000000000000
00000000000000000000000001111000011111100000000000000000111111110011111111111111111000000000000000000000000000000000000000000111111110000000000000000000000000001111111100001111111100000000000000000000
00000000000000000000000011110000111111100000000000000000111111111111111111111111111100000000000000000000000000000000000000000111111100000000000000000000000000001111111000000111111110000000000000000000
00000000000000000000000111100001111111000000000000000000011111111111111111111111111110000000000000000000000000000000000000001111111000000000000000000000000000001111110000000011111110000000000000000000
00000000000000000000011111000001111110000000000000000000011111111111111110011111111111000000000000000000000000000000000000011111110000000000000000000000000000001111000000000001111110000000000000000000
00000000000000000000111110000001111100000000000000000000011111111111110000000111111111100000000000000000000000000000000000111111100000000000000000000000000000011111000000000001111110000000000000000000
00000000000000000001111000000011111100000000000000000000011111111111100000000001111111100000000000000000000000000000000000111111100000000000000000000000000000011110000000000011111110000000000000000000
00000000000000000011110000000111111000000000000000000000011111111111000000000000111111110000000000000000000000000000000001111111100000000000000000000000000000011110000000000001111110000000000000000000
00000000000000000111100000001111111000000000000000000000011111111110000000000000011111110000000000000000000000000000000011111111000000000000000000000000000000001000000000000001111110000000000000000000
00000000000000011111000000001111110000000000000000000000011111111110000000000000011111111000000000000000000000000000000011111110000000000000000000000000000000000000000000000001111110000000000000000000
00000000000000111110000000001111110000000000000000000000001111111110000000000000001111111000000000000000000000000000000111111100000000000000000000000000000000000000000000000001111100000000000000000000
00000000000001111100000000011111100000000000000000000000001111111110000000000000001111111100000000000000000000000000001111111000000000000000000000000000000000000000000000000011111100000000000000000000
00000000000001111000000000111111100000000000000000000000000111111110000000000000001111111100000000000000000000000000011111110000000000000000000000000000000000000000000000000001111100000000000000000000
00000000000011111001100111111111111100000000000000000000000111111110000000000000000111111100000000000000000000000000111111110000000000000000000000000000000000000000000000000011111100000000000000000000
00000000000111111111111111111111111110000000000000000000000111111110000000000000000111111100000000000000000000000001111111110000000000000000000000000000000000000000000000000011111100000000000000000000
00000000001111111111111111111111111100000000000000000000000011111110000000000000000111111100000000000000000000000011111111100000000000000000000000000000000000000000000000000011111100000000000000000000
00000000001111111111111111111111111000000000000000000000000011111110000000000000000011111100000000000000000000000111111111000000000000000000000000000000000000000000000000000011111100000000000000000000
00000000011111111111111111111000000000000000000000000000000001111111000000000000000011111110000000000000000000000111111110000000000000000000000000000000000000000000000000000011111100000000000000000000
00000000011111101000000111111000000000000000000000000000000001111111000000000000000011111110000000000000000000001111111100000000000000000000000000000000000000000000000000000011111000000000000000000000
00000000000000000000000111110000000000000000000000000000000001111111100000000000000011111110000000000000000000001111111000000000000000000000000000000000000000000000000000000011111000000000000000000000
00000000000000000000001111110000000000000000000000000000000000111111100000000000000011111111000000000000000000011111110000000000000000000000000000000000000000000000000000000111110000000000000000000000
00000000000000000000011111100000000000000000000000000000000000011111110000000000000011111111000000000000000000111111100000000000000000000000000000000000000000000000000000000111110000000000000000000000
00000000000000000000011111000000000000000000000000000000000000011111111000000000000111111110000000000000000001111111100000000000000000000000000000000000000000000000000000000111110000000000000000000000
00000000000000000000111111000000000000000000000000000000000000001111111100000000000111111110000000000000000000111111000000000000000000000000000000000000000000110000000000001111100000000000000000000000
00000000000000000000111110000000000000000000000000000000000000000111111111000000000111111110000000000000000000011111000000000000000000000000000000000000000001111000000000011111000000000000000000000000
00000000000000000000111100000000000000000000000000000000000000000011111111100000011111111100000000000000000000000110000000000000000000000000000000000000000001111000000000011111000000000000000000000000
00000000000000000000111000000000000000000000000000000000000000000001111111111111111111111100000000000000000000000000000000000000000000000000000000000000000001111000000000111110000000000000000000000000
00000000000000000000000000000000000000000000000000000000000000000000111111111111111111111000000000000000000000000000000000000000000000000000000000000000000001111100000001111110000000000000000000000000
00000000000000000000000000000000000000000000000000000000000000000000001111111111111111111000000000000000000000000000000000000000000000000000000000000000000001111100000001111100000000000000000000000000
00000000000000000000000000000000000000000000000000000000000000000000000011111111111111110000000000000000000000000000000000000000000000000000000000000000000001111110000111111000000000000000000000000000
00000000000000000000000000000000000000000000000000000000000000000000000000111111111111100000000000000000000000000000000000000000000000000000000000000000000001111111111111110000000000000000000000000000
00000000000000000000000000000000000000000000000000000000000000000000000000000111111100000000000000000000000000000000000000000000000000000000000000000000000000111111111111100000000000000000000000000000
00000000000000000000000000000000000000000000000000000000000000000000000000000000000000000000000000000000000000000000000000000000000000000000000000000000000000111111111111100000000000000000000000000000
00000000000000000000000000000000000000000000000000000000000000000000000000000000000000000000000000000000000000000000000000000000000000000000000000000000000001111111111110000000000000000000000000000000
00000000000000000000000000000000000000000000000000000000000000000000000000000000000000000000000000000000000000000000000000000000000000000000000000000000000001111111111000000000000000000000000000000000
00000000000000000000000000000000000000000000000000000000000000000000000000000000000000000000000000000000000000000000000000000000000000000000000000000000000000111111100000000000000000000000000000000000
00000000000000000000000000000000000000000000000000000000000000000000000000000000000000000000000000000000000000000000000000000000000000000000000000000000000000001000000000000000000000000000000000000000
00000000000000000000000000000000000000000000000000000000000000000000000000000000000000000000000000000000000000000000000000000000000000000000000000000000000000000000000000000000000000000000000000000000
00000000000000000000000000000000000000000000000000000000000000000000000000000000000000000000000000000000000000000000000000000000000000000000000000000000000000000000000000000000000000000000000000000000
00000000000000000000000000000000000000000000000000000000000000000000000000000000000000000000000000000000000000000000000000000000000000000000000000000000000000000000000000000000000000000000000000000000
00000000000000000000000000000000000000000000000000000000000000000000000000000000000000000000000000000000000000000000000000000000000000000000000000000000000000000000000000000000000000000000000000000000
00000000000000000000000000000000000000000000000000000000000000000000000000000000000000000000000000000000000000000000000000000000000000000000000000000000000000000000000000000000000000000000000000000000
00000000000000000000000000000000000000000000000000000000000000000000000000000000000000000000000000000000000000000000000000000000000000000000000000000000000000000000000000000000000000000000000000000000
