P1
200 72
00000000000000000000000000000000000000000000000000000000000000000000000000000000000000000000000000000000000000000000000000000000000000000000000000000000000000000000000000000000000000000000000000000000
00000000000000000000000000000000000000000000000000000000000000000000000000000000000000000000000000000000000000000000000000000000000000000000000000000000000000000000000000000000000000000000000000000000
00000000000000000000000000000000000000000000000000000000000000000000000000000000000000000000000000000000000000000000000000000000000000000000000000000000000000000000000000000000000000000000000000000000
00000000000000000000000000000000000000000000000000000000000000000000000000000000000000000000000000000000000000000000000000000000000000000000000000000000000000000000000000000000000000000000000000000000
00000000000000000000000000000000000000000000000000000000000000000000000000000000000000000000000000000000000000000000000000000000000000000000000000000000000000000000000000000000000000000000000000000000
00000000000000000000000000000000000000000000000000000000000000000000000000000000000000000000000000000000000000000000000000000000000000000000000000000000000000000000000000000000000000000000000000000000
00000000000000000000000000000000000000000000000000000000000000000000000000000000000000000000000000000000000000000000000000000000000000000000000000000000000000000000000000000000000000000000000000000000
00000000000000000000000000000000000000000000000000000000000000000000000000000000000000000000000000000000000000000000000000000000000000000000000000000000000000000000000000000000000000000000000000000000
00000000000000000000000000000000000000000000000000000000000000000000000000000000000000000000000000000000000000000000000000000000000000000000000000000000000000000000000000000000000000000000000000000000
00000000000000000000000000000000000000000000000000000000000000000000000000000000000000000000000000000000000000000000000000000000000000000000000000000000000000000000000000000000000000000000000000000000
00000000000000000000000000000000000000000000000000000000000000000000000000000000000000000000000000000000000000000000000000000000000000000000000000000000000000000000000000000000000000000000000000000000
00000000000000000000000000000000000000000000000000000000000000000000000000000000000000000000000000000000000000000000000000000000000000000000000000000000000000000000000000000000000000000000000000000000
00000000000000000000000000000000000000000000000000000000000000000000000000000000000000000000000000000000000000000000000000000000000000000000000000000000000000000000000000000000000000000000000000000000
00000000000000000000000000000000000000000000000000000000000000000000000000000000000000000000000000000000000000000000000000000000000000000000000000000000000111110000000000000000000000000000000000000000
00000000000000000000000000000000000000000000000000000000000000000000000000000000000000000000000000000000000000000000000000000000000000000000000000000000001111111000000000000000000000000000000000000000
00000000000000000000000000000000000000000000000000000000000000000000000000000000000000000000000000000000000000000000000000000000000000000000000000000000001111111111000000000000000000000000000000000000
00000000000000000000000000000000000000000000000000000000000000000000000000000000000000000000000000000000000000000000000000110000000000000000000000000000001111111111110000000000000000000000000000000000
00000000000000000000000000000000000000000000000000000000000000000000000000000000000000000000000000000000000000001111111111111111110000000000000000000000011111111111111100000000000000000000000000000000
00000000000000000000000000000000000000000000000000000000000000000000000000000000000000000000000000000000000001111111111111111111111100000000000000000000011111000111111110000000000000000000000000000000
00000000000000000000000000000000000000000000001111110000000000000000111111111000000000000000000000000000000111111111111111111111111110000000000000000000011110000000111111100000000000000000000000000000
00000000000000000000000000000000000000000000011111110000000000000011111111111110000000000000000000000000011111111111111111111111111111000000000000000000011110000000011111100000000000000000000000000000
00000000000000000000000000000000000000000001111111110000000000000111111111111111000000000000000000000000111111111111110011111111111111000000000000000000011100000000001111110000000000000000000000000000
00000000000000000000000000000000000000000011111111110000000000000111111111111111100000000000000000000001111111111100000000001111111111000000000000000000000100000000000111111000000000000000000000000000
00000000000000000000000000000000000000001111111111100000000000001111111111111111100000000000000000000011111111100000000000000111111111000000000000000000000000000000000011111000000000000000000000000000
00000000000000000000000000000000000000011111101111000000000000011111110000000111000000000000000000000111111111000000000000000011111111000000000000000000000000000000000011111100000000000000000000000000
00000000000000000000000000000000000000111111001111000000000000011111100000000010000000000000000000000111111110000000000000000011111111000000000000000000000000000000000011111100000000000000000000000000
00000000000000000000000000000000000001111100011110000000000000011111000000000000000000000000000000000111111100000000000000000011111111000000000000000000000000000000000011111110000000000000000000000000
00000000000000000000000000000000000111111000011110000000000000111110000000000000000000000000000000000111111100000000000000000111111110000000000000000000000000000000000011111110000000000000000000000000
00000000000000000000000000000000000111100000111100000000000000111110000000000000000000000000000000001111111000000000000000000111111110000000000000000000000000000000000011111110000000000000000000000000
00000000000000000000000000000000001111000000111000000000000000111110000000000000000000000000000000000111111000000000000000001111111110000000000000000000000000000000000011111110000000000000000000000000
00000000000000000000000000000000111110000001111000000000000000111110000000000000000000000000000000000111111000000000000000001111111000000000000000000000000000000000000011111110000000000000000000000000
00000000000000000000000000000000111100000011110000000000000000111110000000000000000000000000000000000111111100000000000000011111111000000000000000000000000000000000000011111110000000000000000000000000
00000000000000000000000000000001111000000111110000000000000000111110000011110000000000000000000000000011111100000000000000111111111000000000000000000000000000000000000011111100000000000000000000000000
00000000000000000000000000000011110000000111100000000000000000111110011111111100000000000000000000000011111110000000000011111111110000000000000000000000000000000000000111111100000000000000000000000000
00000000000000000000000000000111000000000111100000000000000000111111111111111110000000000000000000000001111111111001111111111111100000000000000000000000000000000000000111111100000000000000000000000000
00000000000000000000000000001110000000001111000000000000000000111111111111111111000000000000000000001111111111111111111111111111000000000000000000000000000000000000001111111000000000000000000000000000
00000000000000000000000000011100000000001110000000000000000000111111111111111111100000000000000001111111111111111111111111111100000000000000000000000000000000000000011111110000000000000000000000000000
00000000000000000000000000111000000000011110000000000000000000111111110000011111100000000000000111111111111111111111111111111000000000000000000000000000000000000000111111110000000000000000000000000000
00000000000000000000000001110000000000011100000000000000000000111111100000000111100000000000011111111111111111111111111111000000000000000000000000000000000000000001111111100000000000000000000000000000
00000000000000000000000011111000000000111100000000000000000000011111000000000111110000000000011111111100000000011111111100000000000000000000000000000000000000000011111111000000000000000000000000000000
00000000000000000000000111111111111111111110000000000000000000011111000000000111110000000000011111111000000000000111111110000000000000000000000000000000000000000111111110000000000000000000000000000000
00000000000000000000000111111111111111111111000000000000000000011110000000000111110000000000111111110000000000000011111111000000000000000000000000000000000000011111111100000000000000000000000000000000
00000000000000000000000111111111111111111110000000000000000000011110000000000111110000000000111111100000000000000001111111000000000000000000000000000000000000111111110000000000000000000000000000000000
00000000000000000000000000000011000111110000000000000000000000011110000000000011110000000001111111000000000000000001111111000000000000000000000000000000000001111111000000000000000000000000000000000000
00000000000000000000000000000000000011100000000000000000000000011111000000000011110000000001111111000000000000000001111111000000000000000000000000000000011111111100000000000000000000000000000000000000
00000000000000000000000000000000000111100000000000000000000000011111000000000011110000000001111111000000000000000001111111000000000000000000000000000001111111110000000000000000000000000000000000000000
00000000000000000000000000000000000111000000000000000000000000001111000000000011110000000001111111000000000000000001111111100000000000000000000000000011111111100000000000000000000000000000000000000000
00000000000000000000000000000000001111000000000000000000000000001111000000000111110000000001111111000000000000000001111111000000000000000000000000001111111100000000000000000000000000000000000000000000
00000000000000000000000000000000011110000000000000000000000000001111100000000111110000000000111111000000000000000011111110000000000000000000000000011111110000000000000000000000000000000000000000000000
00000000000000000000000000000000011110000000000000000000000000001111100000001111100000000000111111100000000000000011111110000000000000000000000000011111110000000000000000000000000000000000000000000000
00000000000000000000000000000000111111000000000000000000000000000111110000001111100000000000011111110000000000000111111110000000000000000000000000011111111100000000000000000000000000000000000000000000
00000000000000000000000000011111111111000000000000000000000000000111111000011111000000000000011111111000000000001111111110000000000000000000000000111111111111110000000000000000000000000000000000000000
00000000000000000000000000011111111111000000000000000000000000000011111111111111000000000000001111111110000000011111111100000000000000000000000000111111111111111111100000000000000000000000000000000000
00000000000000000000000000011111111000000000000000000000000000000011111111111110000000000000000111111111110111111111111000000000000000000000000000111111111111111111111000000000000000000000000000000000
00000000000000000000000000000000000000000000000000000000000000000000111111111100000000000000000001111111111111111111110000000000000000000000000000000111111111111111111110000000000000000000000000000000
00000000000000000000000000000000000000000000000000000000000000000000011111111000000000000000000000111111111111111111100000000000000000000000000000000000001111111111111111110000000000000000000000000000
00000000000000000000000000000000000000000000000000000000000000000000000111100000000000000000000000011111111111111111000000000000000000000000000000000000000000111111111111100000000000000000000000000000
00000000000000000000000000000000000000000000000000000000000000000000000000000000000000000000000000000011111111111110000000000000000000000000000000000000000000000011111111100000000000000000000000000000
00000000000000000000000000000000000000000000000000000000000000000000000000000000000000000000000000000000111111111100000000000000000000000000000000000000000000000000001111100000000000000000000000000000
00000000000000000000000000000000000000000000000000000000000000000000000000000000000000000000000000000000000000000000000000000000000000000000000000000000000000000000000000000000000000000000000000000000
00000000000000000000000000000000000000000000000000000000000000000000000000000000000000000000000000000000000000000000000000000000000000000000000000000000000000000000000000000000000000000000000000000000
00000000000000000000000000000000000000000000000000000000000000000000000000000000000000000000000000000000000000000000000000000000000000000000000000000000000000000000000000000000000000000000000000000000
00000000000000000000000000000000000000000000000000000000000000000000000000000000000000000000000000000000000000000000000000000000000000000000000000000000000000000000000000000000000000000000000000000000
00000000000000000000000000000000000000000000000000000000000000000000000000000000000000000000000000000000000000000000000000000000000000000000000000000000000000000000000000000000000000000000000000000000
00000000000000000000000000000000000000000000000000000000000000000000000000000000000000000000000000000000000000000000000000000000000000000000000000000000000000000000000000000000000000000000000000000000
00000000000000000000000000000000000000000000000000000000000000000000000000000000000000000000000000000000000000000000000000000000000000000000000000000000000000000000000000000000000000000000000000000000
00000000000000000000000000000000000000000000000000000000000000000000000000000000000000000000000000000000000000000000000000000000000000000000000000000000000000000000000000000000000000000000000000000000
00000000000000000000000000000000000000000000000000000000000000000000000000000000000000000000000000000000000000000000000000000000000000000000000000000000000000000000000000000000000000000000000000000000
00000000000000000000000000000000000000000000000000000000000000000000000000000000000000000000000000000000000000000000000000000000000000000000000000000000000000000000000000000000000000000000000000000000
00000000000000000000000000000000000000000000000000000000000000000000000000000000000000000000000000000000000000000000000000000000000000000000000000000000000000000000000000000000000000000000000000000000
00000000000000000000000000000000000000000000000000000000000000000000000000000000000000000000000000000000000000000000000000000000000000000000000000000000000000000000000000000000000000000000000000000000
00000000000000000000000000000000000000000000000000000000000000000000000000000000000000000000000000000000000000000000000000000000000000000000000000000000000000000000000000000000000000000000000000000000
