P1
200 72
00000000000000000000000000000000000000000000000000000000000000000000000000000000000000000000000000000000000000000000000000000000000000000000000000000000000000000000000000000000000000000000000000000000
00000000000000000000000000000000000000000000000000000000000000000000000000000000000000000000000000000000000000000000000000000000000000000000000000000000000000000000000000000000000000000000000000000000
00000000000000000000000000000000000000000000000000000000000000000000000000000000000000000000000000000000000000000000000000000000000000000000000000000000000000000000000000000000000000000000000000000000
00000000000000000000000000000000000000000000000000000000000000000000000000000000000000000000000000000000000000000000000000000000000000000000000000000000000000000000000000000000000000000000000000000000
00000000000000000000000000000000000000000000000000000000000000000000000000000000000000000000000000000000000000000000000000000000000000000000000000000000000000000000000000000000000000000000000000000000
00000000000000000000000000000000000000000000000000000000000000000000000000000000000000000000000000000000000000000000000000000000000000000000000000000000000000000000000000000000000000000000000000000000
00000000000000000000000000000000000000000000000000000000000000000000000000000000000000000000000000000000000000000000000000000000000000000000000000000000000000000000000000000000000000000000000000000000
00000000000000000000000000000000000000000000000000000000000000000000000000000000000000000000000000000000000000000000000000000000000000000000000000000000000000000000000000000000000000000000000000000000
00000000000000000000000000000000000000000000000000000000000000000000000000000000000000000000000000000000000000000000000000000000000000000000000000000000000000000000000000000000000000000000000000000000
00000000000000000000000000000000000000000000000000000000000000000000000000000000000000000000000000000000000000000000000000000000000000000000000000000000000000000000000000000000000000000000000000000000
00000000000000000000000000000000000000000000000000000000000000000000000000000000000000000000000000000000000000000000000000000000000000000000000000000000000000000000000000000000000000000000000000000000
00000000000000000000000000000000000000000000000000000000000000000000000000000000000000000000000000000000000000000000000000000000000000000000000000000000000000000000000000000000000000000000000000000000
00000000000000000000000000000000000000000000000000000000000000000000000000000000000000000000000000000000000000000000000000000000000000000000000000000000000000000111111111110110000000000000000000000000
00000000000000000000000000000000000000000000000000000000000000000000000000000000000000000000000000000000000000000000000000000000000000000000000000000000000011111111111111111110000000000000000000000000
00000000000000000000000000000000000000000000000000000000000000000000000000000000000000000000000000000000000000000000000000000000000000000000000000000000001111111111111111111110000000000000000000000000
00000000000000000000000000000000000000000000000000000000000000000000000000000000000000000000000000000000000000000000000000000000000000000000000000000000111111111111111111111110000000000000000000000000
00000000000000000000000000000000000000000000000000000000000000000000000000000000000000100000000000000000000000000000000000000000000000000000000000000001111111111111111111111100000000000000000000000000
00000000000000000000000000111000010000000000000000000000000000000000000000000000001111111100000000000000000000000000000000000000001111110000000000000011111111111111111111111100000000000000000000000000
00000000000000000000000001111111111111111111011100000000000000000000000000000000011111111111000000000000000000000000000000000001111111110000000000000011111111111111111111111100000000000000000000000000
00000000000000000000000011111111111111111111111111000000000000000000000000000011111111111111100000000000000000000000000000011111111111110000000000000111111111111111111111111100000000000000000000000000
00000000000000000000000011111111111111111111111111000000000000000000000000001111111111111111110000000000000000000000000000111111111111100000000000001111111111110000000000011100000000000000000000000000
00000000000000000000000011111111111111111111111111000000000000000000000000011111111111111111110000000000000000000000000000000111111111100000000000011111111111100000000000000000000000000000000000000000
00000000000000000000000011111111111111111111111111000000000000000000000000111111111111111111110000000000000000000000000000000011111111000000000000011111111111000000000000000000000000000000000000000000
00000000000000000000000011111111111111111111111111000000000000000000000001111111100001111111110000000000000000000000000000000011111111000000000000111111111110000000000000000000000000000000000000000000
00000000000000000000000011111111110001000011101111000000000000000000000011111110000000011111111000000000000000000000000000000011111111000000000000111111111100000000000000000000000000000000000000000000
00000000000000000000000011111111100000000000000000000000000000000000000011111100000000001111111000000000000000000000000000000111111111000000000000111111111000000000000000000000000000000000000000000000
00000000000000000000000011111111110000000000000000000000000000000000000111111000000000001111111000000000000000000000000000000111111111000000000001111111110000000000000000000000000000000000000000000000
00000000000000000000000011111111110000000000000000000000000000000000001111111000000000000111111100000000000000000000000000000111111111000000000001111111110000000111111100000000000000000000000000000000
00000000000000000000000011111111110000000000000000000000000000000000000111110000000000000111111100000000000000000000000000001111111110000000000001111111110001111111111110000000000000000000000000000000
00000000000000000000000011111111111111111111000000000000000000000000001111110000000000000011111100000000000000000000000000001111111110000000000011111111111111111111111111100000000000000000000000000000
00000000000000000000000011111111111111111111110000000000000000000000001111110000000000000011111110000000000000000000000000011111111110000000000011111111111111111111111111110000000000000000000000000000
00000000000000000000000001111111111111111111111110000000000000000000011111110000000000000011111110000000000000000000000000011111111100000000000011111111111111111111111111111000000000000000000000000000
00000000000000000000000001111111111111111111111111100000000000000000001111110000000000000011111110000000000000000000000000011111111100000000000011111111111111111111111111111000000000000000000000000000
00000000000000000000000001111111111111111111111111100000000000000000001111110000000000000011111110000000000000000000000000111111111100000000000011111111111111111111111111111000000000000000000000000000
00000000000000000000000001111111111111111111111111110000000000000000001111110000000000000011111110000000000000000000000000111111111000000000000011111111111111111111111111111000000000000000000000000000
00000000000000000000000000111111111100000111111111111000000000000000011111110000000000000001111100000000000000000000000001111111111000000000000011111111111111110111111111111000000000000000000000000000
00000000000000000000000000000011100000000000111111111100000000000000001111110000000000000001111100000000000000000000000001111111110000000000000011111111111100000011111111111000000000000000000000000000
00000000000000000000000000000000000000000000011111111110000000000000001111110000000000000001111100000000000000000000000001111111110000000000000011111111111000000001111111111000000000000000000000000000
00000000000000000000000000000000000000000000001111111110000000000000000111110000000000000001111100000000000000000000000011111111110000000000000011111111111000000001111111111000000000000000000000000000
00000000000000000000000000000000000000000000001111111111000000000000000111111000000000000001111110000000000000000000000011111111100000000000000011111111110000000001111111111000000000000000000000000000
00000000000000000000000000111100000000000000000111111111000000000000000111111000000000000001111110000000000000000000000011111111100000000000000011111111110000000001111111110000000000000000000000000000
00000000000000000000000001111111110000000000000111111111000000000000000111111100000000000001111110000000000000000000000111111111000000000000000011111111110000000001111111110000000000000000000000000000
00000000000000000000000001111111111000000000000111111111100000000000000111111100000000000001111110000000000000000000000111111111000000000000000011111111110000000001111111110000000000000000000000000000
00000000000000000000000000111111111100000000000111111111100000000000000111111100000000000001111110000000000000000000001111111111000000000000000011111111110000000001111111110000000000000000000000000000
00000000000000000000000000011111111110000000000111111111100000000000000111111100000000000001111110000000000000000000001111111110000000000000000011111111110000000011111111110000000000000000000000000000
00000000000000000000000000001111111111100000000111111111110000000000000011111100000000000001111110000000000000000000011111111110000000000000000011111111110000000011111111100000000000000000000000000000
00000000000000000000000000001111111111111111111111111111110000000000000001111110000000000001111110000000000000000000111111111110000000000000000011111111110000000011111111100000000000000000000000000000
00000000000000000000000000000111111111111111111111111111110000000000000001111110000000000001111100000000000000000001111111111100000000000000000011111111110000000111111111000000000000000000000000000000
00000000000000000000000000000011111111111111111111111111100000000000000000111110000000000001111100000000000000000001111111111100000000000000000001111111110000000111111111000000000000000000000000000000
00000000000000000000000000000001111111111111111111111111100000000000000000111111000000000001111100000000000000000001111111111000000000000000000001111111111000001111111110000000000000000000000000000000
00000000000000000000000000000000001111111111111111111111000000000000000000011111100000000011111100000000000000000011111111111000000000000000000001111111111111111111111100000000000000000000000000000000
00000000000000000000000000000000000011111111111111111110000000000000000000001111100000000011111100000000000001001111111111110000000000000000000001111111111111111111111100000000000000000000000000000000
00000000000000000000000000000000000000001111111111111000000000000000000000001111110000000011111100000000000011111111111111100000000000000000000000111111111111111111111000000000000000000000000000000000
00000000000000000000000000000000000000000000111010100000000000000000000000000111111000000111111100000000000011111111111111100000000000000000000000111111111111111111110000000000000000000000000000000000
00000000000000000000000000000000000000000000000000000000000000000000000000000111111111111111111100000000000001111111111111100000000000000000000000011111111111111111100000000000000000000000000000000000
00000000000000000000000000000000000000000000000000000000000000000000000000000011111111111111111000000000000000001111111111100000000000000000000000001111111111111111000000000000000000000000000000000000
00000000000000000000000000000000000000000000000000000000000000000000000000000001111111111111110000000000000000000001111111110000000000000000000000001111111111111100000000000000000000000000000000000000
00000000000000000000000000000000000000000000000000000000000000000000000000000000011111111111110000000000000000000000001111111000000000000000000000000011111111110000000000000000000000000000000000000000
00000000000000000000000000000000000000000000000000000000000000000000000000000000000111111111100000000000000000000000000001111110000000000000000000000001111000000000000000000000000000000000000000000000
00000000000000000000000000000000000000000000000000000000000000000000000000000000000000111111000000000000000000000000000000111111000000000000000000000000000000000000000000000000000000000000000000000000
00000000000000000000000000000000000000000000000000000000000000000000000000000000000000000000000000000000000000000000000000001111000000000000000000000000000000000000000000000000000000000000000000000000
00000000000000000000000000000000000000000000000000000000000000000000000000000000000000000000000000000000000000000000000000000000000000000000000000000000000000000000000000000000000000000000000000000000
00000000000000000000000000000000000000000000000000000000000000000000000000000000000000000000000000000000000000000000000000000000000000000000000000000000000000000000000000000000000000000000000000000000
00000000000000000000000000000000000000000000000000000000000000000000000000000000000000000000000000000000000000000000000000000000000000000000000000000000000000000000000000000000000000000000000000000000
00000000000000000000000000000000000000000000000000000000000000000000000000000000000000000000000000000000000000000000000000000000000000000000000000000000000000000000000000000000000000000000000000000000
00000000000000000000000000000000000000000000000000000000000000000000000000000000000000000000000000000000000000000000000000000000000000000000000000000000000000000000000000000000000000000000000000000000
00000000000000000000000000000000000000000000000000000000000000000000000000000000000000000000000000000000000000000000000000000000000000000000000000000000000000000000000000000000000000000000000000000000
00000000000000000000000000000000000000000000000000000000000000000000000000000000000000000000000000000000000000000000000000000000000000000000000000000000000000000000000000000000000000000000000000000000
00000000000000000000000000000000000000000000000000000000000000000000000000000000000000000000000000000000000000000000000000000000000000000000000000000000000000000000000000000000000000000000000000000000
00000000000000000000000000000000000000000000000000000000000000000000000000000000000000000000000000000000000000000000000000000000000000000000000000000000000000000000000000000000000000000000000000000000
00000000000000000000000000000000000000000000000000000000000000000000000000000000000000000000000000000000000000000000000000000000000000000000000000000000000000000000000000000000000000000000000000000000
00000000000000000000000000000000000000000000000000000000000000000000000000000000000000000000000000000000000000000000000000000000000000000000000000000000000000000000000000000000000000000000000000000000
