P1
200 72
00000000000000000000000000000000000000000000000000000000000000000000000000000000000000000000000000000000000000000000000000000000000000000000000000000000000000000000000000000000000000000000000000000000
00000000000000000000000000000000000000000000000000000000000000000000000000000000000000000000000000000000000000000000000000000000000000000000000000000000000000000000000000000000000000000000000000000000
00000000000000000000000000000000000000000000000000000000000000000000000000000000000000000000000000000000000000000000000000000000000000000000000000000000000000000000000000000000000000000000000000000000
00000000000000000000000000000000000000000000000000000000000000000000000000000000000000000000000000000000000000000000000000000000000000000000000000000000000000000000000000000000000000000000000000000000
00000000000000000000000000000000000000000000000000000000000000000000000000000000000000000000000000000000000000000000000000000000000000000000000000000000000000000000000000000000000000000000000000000000
00000000000000000000000000000000000000000000000000000000000000000000000000000000000000000000000000000000000000000000000000000000000000000000000000000000000000000000000000000000000000000000000000000000
00000000000000000000000000000000000000000000000000000000000000000000000000000000000000000000000000000000000000000000000000000000000000000000000000000000000000000000000000000000000000000000000000000000
00000000000000000000000000000000000000000000000000000000000000000000000000000000000000000000000000000000000000000000000000000000000000000000000000000000000000000000000000000000000000000000000000000000
00000000000000000000000000000000000000000000000000000000000000000000000000000000000000000000000000000000000000000000000000000000000000000000000000000000000000000000000000000000000000000000000000000000
00000000000000000000000000000000000000000000000000000000000000000000000000000000000000000000000000000000000000000000000000000000000000000111111000000000000000000000000000000000000000000000000000000000
00000000000000000000000000000000000000000000000000000000000000000000000000000000000000000000000000000000000000000000000000000000000000000111111111111100000000000000000000000000000000000000000000000000
00000000000000000000000000000000000000000000000000000000000000000000000000000000000000000000000000000000000000000000000000000000000000000111111111111111111100000000000000000000000000000000000000000000
00000000000000000000000000000000000000000000000000000000000000000000000000000000000000000000000000000000000000000000000000000000000000001111111111111111111111111110000000000000000000000000000000000000
00000000000000000000000000000000000000000000000000000000000000000000000000000000000000000000000000000000000000000000000000000000000000001111111111111111111111111111111110000000000000000000000000000000
00000000000000000000000000000000000000000000000000000000000000000000000000000000000000000000000000000000000000000000000000000000000000001111111111111111111111111111111110000000000000000000000000000000
00000000000000000000000000000000000000000000000000000000000000000000000000000000000000000000000000000000000000000000000000000000000000000111111111111111111111111111111110000000000000000000000000000000
00000000000000000000000000000000000000000000000001100000000000000000000000000000000000000000000000000000000000000000000000000000000000000111111111111111111111111111111110000000000000000000000000000000
00000000000000000000000000000000000000000000000111110000000000000000000000000000000000000000000000000000000000000000000000000000000000000111111111111111111111111111111110000000000000000000000000000000
00000000000000000000000000000000000000000000111111110000000000000000000000000000000000000000000000000011110000000000000000000000000000000111111111111111111111111111111111000000000000000000000000000000
00000000000000000000000000000000000000000001111111100000000000000000000000000000000000000000000000000111111111111110000000000000000000001111111111111111111111111111111111000000000000000000000000000000
00000000000000000000000000000000000000001111111100000000000000000000000000000000000000000000000000001111111111111111000000000000000000001111100000111000011111111111111110000000000000000000000000000000
00000000000000000000000000000000000000111111111000000000000000000000000000000000000000000000000000001111111111111111100000000000000000001111100000000000000000001111111110000000000000000000000000000000
00000000000000000000000000000000000001111110000000000000000000000000000000000000000000000000000000001111111101111111110000000000000000001111100000000000000000000000001110000000000000000000000000000000
00000000000000000000000000000000000011111100000000000000000000000000000000000000000000000000000000011111110000001111111000000000000000001111100000000000000000000000000000000000000000000000000000000000
00000000000000000000000000000000000011110000000000000000000000000000000000000000000000000000000000011111100000000011111100000000000000001111000000000000000000000000000000000000000000000000000000000000
00000000000000000000000000000000000001100000000000000000000000000000000000000000000000000000000000011111100000000011111100000000000000001111000000000000000000000000000000000000000000000000000000000000
00000000000000000000000000000000000001110000000000000000000000000000000000000000000000000000000000011111100000000011111100000000000000001111000000000000000000000000000000000000000000000000000000000000
00000000000000000000000000000000000001110000000000000000000000000000000000000011111111110000000000011111100000000001111100000000000000001111000111111110000000000000000000000000000000000000000000000000
00000000000000000000000000000000000001110000000000000000000000000000000000000111111111111100000000001111100000000001111100000000000000001111111111111111111111000000000000000000000000000000000000000000
00000000000000000000000000000000000011110000000000000000000000000000000000000111111111111100000000001111100000000001111100000000000000001111111111111111111111111000000000000000000000000000000000000000
00000000000000000000000000000000000011110000001100000000000000000000000000000111111111111100000000001111110000000011111100000000000000001111111111111111111111111100000000000000000000000000000000000000
00000000000000000000000000000000000001100000111111100000000000000000000000000000000011111100000000001111110000000011111000000000000000001111111111111111111111111110000000000000000000000000000000000000
00000000000000000000000000000000000001110011111111111000000000000000000000000000000111111000000000000111111000000111111000000000000000011111111000000111111111111111000000000000000000000000000000000000
00000000000000000000000000000000000001110111111111111100000000000000000000000000000111111000000000000111111100001111110000000000000000011111110000000000111111111111100000000000000000000000000000000000
00000000000000000000000000000000000001111111100111111100000000000000000000000000001111111000000000000011111111011111100000000000000000011111100000000000011111111111111000000000000000000000000000000000
00000000000000000000000000000000000011111111000000111100000000000000000000000000001111110000000000000001111111111111100000000000000000011000000000000000011111111111111100000000000000000000000000000000
00000000000000000000000000000000000011111100000000011110000000000000000000000000001111110000000000000000111111111111110000000000000000000000000000000000001111111111111100000000000000000000000000000000
00000000000000000000000000000000000011110000000000011110000000000000000000000000011111110000000000000000111111111111110000000000000000000000000000000000001111111111111110000000000000000000000000000000
00000000000000000000000000000000000001110000000000011110000000000000000000000000011111110000000000000001111111000111111000000000000000000000000000000000000111111111111110000000000000000000000000000000
00000000000000000000000000000000000000000000000000001110000000000000000000000000111111100000000000000001111100000001111100000000000000000000000000000000000111111111111110000000000000000000000000000000
00000000000000000000000000000000000000000000000000001110000000000000000000000000111111100000000000000011111000000001111100000000000000000000000000000000000111111111111111000000000000000000000000000000
00000000000000000000000000000000000000000000000000001110000000000000000000000001111111000000000000000011111000000001111110000000000000000000000000000000000011111111111111000000000000000000000000000000
00000000000000000000000000000000000000000000000000001110000000000000000000000001111111000000000000000011111000000001111110000000000000000000000000000000000011111111111111000000000000000000000000000000
00000000000000000000000000000000000000000000000000001110000000000000000000000011111110000000000000000111111000000000111100000000000000000000000000000000000011111111111111000000000000000000000000000000
00000000000000000000000000000000000000000000000000011110000000000000000000000011111110000000000000000111110000000000111100000000000000000000000000000000000011111111111111000000000000000000000000000000
00000000000000000000000000000000000000000000000000011110000000000000000000000011111100000000000000000011110000000000111100000000000000000000000000000000000011111111111111000000000000000000000000000000
00000000000000000000000000000000000000000000000000111100000000000000000000000111111100000000000000000011110000000001111100000000000000000000000000000000000111111111111110000000000000000000000000000000
00000000000000000000000000000000000000000000000000111100000000000000000000001111111100000000000000000011110000000001111000000000000000000000000000000000000111111111111110000000000000000000000000000000
00000000000000000000000000000000000000000000000001111000000000000000000000001111111000000000000000000011111000000001111000000000000001110000000000000000000111111111111110000000000000000000000000000000
00000000000000000000000000000000000000000000000001111000000000000000000000001111111000000000000000000011111000000011111000000000000001111000000000000000001111111111111110000000000000000000000000000000
00000000000000000000000000000000000000000000000011110000000000000000000000011111111000000000000000000011111000000011110000000000000001111000000000000000001111111111111110000000000000000000000000000000
00000000000000000000000000000000000000000000000111100000000000000000000000011111111000000000000000000001111100001111100000000000000011111000000000000000001111111111111110000000000000000000000000000000
00000000000000000000000000000000000110000000011111000000000000000000000000111111110000000000000000000001111111111111100000000000000011111100000000000000011111111111111110000000000000000000000000000000
00000000000000000000000000000000001111111011111110000000000000000000000000111111110000000000000000000000111111111111000000000000000011111100000000000000011111111111111100000000000000000000000000000000
00000000000000000000000000000000001111111111111100000000000000000000000001111111100000000000000000000000111111111110000000000000000011111110000000000000111111111111111000000000000000000000000000000000
00000000000000000000000000000000000111111111110000000000000000000111110001111111100000000000000000000000011111111100000000000000000011111110000000000000111111111111110000000000000000000000000000000000
00000000000000000000000000000000000011111111100000000000000000000111111011111111000000000000000000000000001111100000000000000000000011111111000000000001111111111111100000000000000000000000000000000000
00000000000000000000000000000000000000000000000000000000000000000111111111111111000000000000000000000000000000000000000000000000000001111111000000000111111111111111000000000000000000000000000000000000
00000000000000000000000000000000000000000000000000000000000000000001111111111111000000000000000000000000000000000000000000000000000011111111111100001111111111111110000000000000000000000000000000000000
00000000000000000000000000000000000000000000000000000000000000000000111111111110000000000000000000000000000000000000000000000000000011111111111111111111111111111100000000000000000000000000000000000000
00000000000000000000000000000000000000000000000000000000000000000000001111111111000000000000000000000000000000000000000000000000000011111111111111111111111111110000000000000000000000000000000000000000
00000000000000000000000000000000000000000000000000000000000000000000000011111111100000000000000000000000000000000000000000000000000001111111111111111111111111100000000000000000000000000000000000000000
00000000000000000000000000000000000000000000000000000000000000000000000000111111111100000000000000000000000000000000000000000000000000000111111111111111111100000000000000000000000000000000000000000000
00000000000000000000000000000000000000000000000000000000000000000000000000000111111110000000000000000000000000000000000000000000000000000000000111100010000000000000000000000000000000000000000000000000
00000000000000000000000000000000000000000000000000000000000000000000000000000011111110000000000000000000000000000000000000000000000000000000000000000000000000000000000000000000000000000000000000000000
00000000000000000000000000000000000000000000000000000000000000000000000000000000001100000000000000000000000000000000000000000000000000000000000000000000000000000000000000000000000000000000000000000000
00000000000000000000000000000000000000000000000000000000000000000000000000000000000000000000000000000000000000000000000000000000000000000000000000000000000000000000000000000000000000000000000000000000
00000000000000000000000000000000000000000000000000000000000000000000000000000000000000000000000000000000000000000000000000000000000000000000000000000000000000000000000000000000000000000000000000000000
00000000000000000000000000000000000000000000000000000000000000000000000000000000000000000000000000000000000000000000000000000000000000000000000000000000000000000000000000000000000000000000000000000000
00000000000000000000000000000000000000000000000000000000000000000000000000000000000000000000000000000000000000000000000000000000000000000000000000000000000000000000000000000000000000000000000000000000
00000000000000000000000000000000000000000000000000000000000000000000000000000000000000000000000000000000000000000000000000000000000000000000000000000000000000000000000000000000000000000000000000000000
00000000000000000000000000000000000000000000000000000000000000000000000000000000000000000000000000000000000000000000000000000000000000000000000000000000000000000000000000000000000000000000000000000000
