P1
200 72
00000000000000000000000000000000000000000000000000000000000000000000000000000000000000000000000000000000000000000000000000000000000000000000000000000000000000000000000000000000000000000000000000000000
00000000000000000000000000000000000000000000000000000000000000000000000000000000000000000000000000000000000000000000000000000000000000000000000000000000000000000000000000000000000000000000000000000000
00000000000000000000000000000000000000000000000000000000000000000000000000000000000000000000000000000000000000000000000000000000000000000000000000000000000000000000000000000000000000000000000000000000
00000000000000000000000000000000000000000000000000000000000000000000000000000000000000000000000000000000000000000000000000000000000000000000000000000000000000000000000000000000000000000000000000000000
00000000000000000000000000000000000000000000000000000000000000000000000000000000000000000000000000000000000000000000000000000000000000000000000000000000000000000000000000000000000000000000000000000000
00000000000000000000000000000000000000000000000000000000000000000000000000000000000000000000000000000000000000000000000000000000000000000000000000000000000000000000000000000000000000000000000000000000
00000000000000000000000000000000000000000000000000000000000000000000000000000000000000000000000000000000000000000000000000000000000000000000000000000000000000000000000000000000000000000000000000000000
00000000000000000000000000000000000000000000000000000000000000000000000000000000000000000000000000000000000000000000000000000000000000000000000000000000000000000000000000000000000000000000000000000000
00000000000000000000000000000000000000000000000000000000000000000000000000000000000000000000000000000000000000000000000000000000000000000000000000000000000000000000000000000000000000000000000000000000
00000000000000000000000000000000000000000000000000000000000000000000000000000000000000000000000000000000000000000000000000000000000000000000000000000000000000000000000000000000000000000000000000000000
00000000000000000000000000000000000000000000000000000000000000000000000000000000000000000000000000000000000000000000000000000000000000000000000000000000000000000000000000000000000000000000000000000000
00000000000000000000000000000000000000000000000000000000000000000000000000000000000000000000000000000000000000000000000000000000000000000000000000000000000000000000000000000000000000000000000000000000
00000000000000000000000000000000000000000000000000000000000000000000000000000000000000000000000000000000000000000000000000000000000000000000000000000000000000000000000000000000000000000000000000000000
00000000000000000000000000000000000000000000000000000000000000000000000000000000000000000000000000000000000000000000000000000000000000000000000000000000000000000000000000000000000000000000000000000000
00000000000000000000000000000000000000000000000000000000000000000000000000000000000000000000000000000000000000000000000000011000000000000000000000000000000000000000000000000000000000000000000000000000
00000000000000000000000000000000000000000000000000000000000000000000000000000000000000000000000000000000000000000000000001111111111110000000000000000000000000000000000000000000000000000000000000000000
00000000000000000000000000000000000000000000000000000000000000000000000000000000000000000000000000000000000000000000000111111111111111000000000000000000000000000000000000011100000000000000000000000000
00000000000000000000000000000000000111100011111111100000000000000000000000000000000000000000000000000000000000000000011111111111111111100000000000000000000000000000000000111111100000000000000000000000
00000000000000000000000000000111111111111111111111100000000000000000000001111111110000000000000000000000000000000000111111111111111111110000000000000000000000000000000001111111100000000000000000000000
00000000000000000000000000000111111111111111111111100000000000000000001111111111111000000000000000000000000000000001111111111111111111110000000000000000000000000000000001111111100000000000000000000000
00000000000000000000000000000111111111011111111111000000000000000000011111111111111100000000000000000000000000000011111111111111111111110000000000000000000000000000000011111111000000000000000000000000
00000000000000000000000000001111100000000000000000000000000000000001111111111111111110000000000000000000000000000111111111111111111111110000000000000000000000000000000111111111000000000000000000000000
00000000000000000000000000001111000000000000000000000000000000000001111111110011111110000000000000000000000000001111111111111111111111110000000000000000000000000000001111111111000000000000000000000000
00000000000000000000000000001111000000000000000000000000000000000001111111000000111110000000000000000000000000011111111111111111111111110000000000000000000000000000011111111111000000000000000000000000
00000000000000000000000000001111000000000000000000000000000000000011111000000000111111000000000000000000000000011111111111100000000011110000000000000000000000000000111111111111000000000000000000000000
00000000000000000000000000000111000000000000000000000000000000000011110000000000011111000000000000000000000000011111111110000000000000110000000000000000000000000000111111111111000000000000000000000000
00000000000000000000000000000111000000000000000000000000000000000011000000000000011111000000000000000000000000111111111100000000000000000000000000000000000000000001111111111111000000000000000000000000
00000000000000000000000000000111000000000000000000000000000000000000000000000000111111000000000000000000000000111111111100000000000000000000000000000000000000000011111111111111000000000000000000000000
00000000000000000000000000000111000000000000000000000000000000000000000000000000111110000000000000000000000001111111111000000000000000000000000000000000000000000011111111111111000000000000000000000000
00000000000000000000000000001111000110000000000000000000000000000000000000000000111110000000000000000000000001111111111000000000000000000000000000000000000000000111111100111110000000000000000000000000
00000000000000000000000000001111111111110000000000000000000000000000000000000001111100000000000000000000000011111111110001111111000000000000000000000000000000001111111000111110000000000000000000000000
00000000000000000000000000001111111111111111000000000000000000000000000000000011111100000000000000000000000011111111111111111111110000000000000000000000000000001111110001111110000000000000000000000000
00000000000000000000000000001111111111111111100000000000000000000000000000001111111000000000000000000000000111111111111111111111111100000000000000000000000000011111100001111110000000000000000000000000
00000000000000000000000000000011100000111111100000000000000000000000000000111111110000000000000000000000000111111111111111111111111110000000000000000000000000011111100001111110000000000000000000000000
00000000000000000000000000000000000000001111110000000000000000000000000111111111111100000000000000000000001111111111111111111111111111000000000000000000000000111111000001111110000000000000000000000000
00000000000000000000000000000000000000000111110000000000000000000000001111111111111110000000000000000000001111111111111111111111111111100000000000000000000001111110000001111110000000000000000000000000
00000000000000000000000000000000000000000011110000000000000000000000001111111111111111000000000000000000001111111111111111111111111111100000000000000000000001111110000001111110000000000000000000000000
00000000000000000000000000000000000000000001111000000000000000000000001111111011111111100000000000000000001111111111111111111111111111110000000000000000000011111110000001111110000000000000000000000000
00000000000000000000000000000000000000000001111000000000000000000000001100000000111111100000000000000000001111111111111111111111111111110000000000000000000111111100000001111110000000000000000000000000
00000000000000000000000000000000000000000001111000000000000000000000000000000000011111100000000000000000001111111111111100011111111111111000000000000000001111111000000001111100000000000000000000000000
00000000000000000000000000000000000000000001111000000000000000000000000000000000001111100000000000000000011111111111111000000111111111111100000000000000001111111000000011111100000000000000000000000000
00000000000000000000000000000000000000000000111000000000000000000000000000000000001111100000000000000000011111111111110000000111111111111100000000000000011111110000000011111100000000000000000000000000
00000000000000000000000000000000000000000000111000000000000000000000000000000000001111110000000000000000011111111111100000000111111111111100000000000000111111100000000011111100000000000000000000000000
00000000000000000000000001100000000000000001111000000000000000000000000000000000001111110000000000000000011111111111100000000011111111111100000000000001111111100000000011111100000000000000000000000000
00000000000000000000000001110000000000000001110000000000000000000000000000000000001111110000000000000000011111111111100000000011111111111100000000000001111111000000000011111100000000000000000000000000
00000000000000000000000000111000000000000001110000000000000000000000000000000000001111100000000000000000111111111111000000000011111111111100000000000011111110000000000011111100000000000000000000000000
00000000000000000000000000111100000000000011100000000000000000000000000000000000011111100000000000000000111111111111000000000011111111111100000000000011111110001110000111111100000000000000000000000000
00000000000000000000000000011110000000000111100000000000000000000000000000000000111111100000000000000000111111111110000000000011111111111100000000000011111111111111111111111100000000000000000000000000
00000000000000000000000000001111000000000111100000000000000000000000000000000001111111000000000000000000011111111111000000000111111111111100000000000111111111111111111111111111110000000000000000000000
00000000000000000000000000000111100000001111000000000000000000000000000000000011111110000000000000000000011111111111000000000111111111111100000000000111111111111111111111111111110000000000000000000000
00000000000000000000000000000011111100011111000000000000000000000000000000001111111100000000000000000000011111111111100000001111111111111000000000000111111111111111111111111111110000000000000000000000
00000000000000000000000000000011111111111110000000000000000000000000000000011111111000000000000000000000011111111111110000111111111111111000000000000111111111111111111111111111110000000000000000000000
00000000000000000000000000000001111111111100000000000000000000000000000011111111110000000000000000000000011111111111111111111111111111111000000000000000000000000000011111111111110000000000000000000000
00000000000000000000000000000000001111111000000000000000000000000000111111111111100000000000000000000000001111111111111111111111111111111000000000000000000000000000000111111000000000000000000000000000
00000000000000000000000000000000000001000000000000000000000000011111111111111100000000000000000000000000001111111111111111111111111111111000000000000000000000000000000011111000000000000000000000000000
00000000000000000000000000000000000000000000000000000000000001111111111111110000000000000000000000000000000111111111111111111111111111100000000000000000000000000000000011111000000000000000000000000000
00000000000000000000000000000000000000000000000000000000000001111111111111000000000000000000000000000000000011111111111111111111111111100000000000000000000000000000000011111000000000000000000000000000
00000000000000000000000000000000000000000000000000000000000001111111111100000000000000000000000000000000000001111111111111111111111111000000000000000000000000000000000011110000000000000000000000000000
00000000000000000000000000000000000000000000000000000000000001111111110000000000000000000000000000000000000000011111111111111111111000000000000000000000000000000000000011110000000000000000000000000000
00000000000000000000000000000000000000000000000000000000000011111111000000000000000000000000000000000000000000000111111111111111110000000000000000000000000000000000000111110000000000000000000000000000
00000000000000000000000000000000000000000000000000000000000011110000000000000000000000000000000000000000000000000000111101111110000000000000000000000000000000000000000111110000000000000000000000000000
00000000000000000000000000000000000000000000000000000000000000000000000000000000000000000000000000000000000000000000000000000000000000000000000000000000000000000000000111110000000000000000000000000000
00000000000000000000000000000000000000000000000000000000000000000000000000000000000000000000000000000000000000000000000000000000000000000000000000000000000000000000000111110000000000000000000000000000
00000000000000000000000000000000000000000000000000000000000000000000000000000000000000000000000000000000000000000000000000000000000000000000000000000000000000000000000000000000000000000000000000000000
00000000000000000000000000000000000000000000000000000000000000000000000000000000000000000000000000000000000000000000000000000000000000000000000000000000000000000000000000000000000000000000000000000000
00000000000000000000000000000000000000000000000000000000000000000000000000000000000000000000000000000000000000000000000000000000000000000000000000000000000000000000000000000000000000000000000000000000
00000000000000000000000000000000000000000000000000000000000000000000000000000000000000000000000000000000000000000000000000000000000000000000000000000000000000000000000000000000000000000000000000000000
00000000000000000000000000000000000000000000000000000000000000000000000000000000000000000000000000000000000000000000000000000000000000000000000000000000000000000000000000000000000000000000000000000000
00000000000000000000000000000000000000000000000000000000000000000000000000000000000000000000000000000000000000000000000000000000000000000000000000000000000000000000000000000000000000000000000000000000
00000000000000000000000000000000000000000000000000000000000000000000000000000000000000000000000000000000000000000000000000000000000000000000000000000000000000000000000000000000000000000000000000000000
00000000000000000000000000000000000000000000000000000000000000000000000000000000000000000000000000000000000000000000000000000000000000000000000000000000000000000000000000000000000000000000000000000000
00000000000000000000000000000000000000000000000000000000000000000000000000000000000000000000000000000000000000000000000000000000000000000000000000000000000000000000000000000000000000000000000000000000
