P1
200 72
00000000000000000000000000000000000000000000000000000000000000000000000000000000000000000000000000000000000000000000000000000000000000000000000000000000000000000000000000000000000000000000000000000000
00000000000000000000000000000000000000000000000000000000000000000000000000000000000000000000000000000000000000000000000000000000000000000000000000000000000000000000000000000000000000000000000000000000
00000000000000000000000000000000000000000000000000000000000000000000000000000000000000000000000000000000000000000000000000000000000000000000000000000000000000000000000000000000000000000000000000000000
00000000000000000000000000000000000000000000000000000000000000000000000000000000000000000000000000000000000000000000000000000000000000000000000000000000000000000000000000000000000000000000000000000000
00000000000000000000000000000000000000000000000000000000000000000000000000000000000000000000000000000000000000000000000000000000000000000000000000000000000000000000000000000000000000000000000000000000
00000000000000000000000000000000000000000000000000000000000000000000000000000000000000000000000000000000000000000000000000000000000000000000000000000000000000000000000000000000000000000000000000000000
00000000000000000000000000000000000000000000000000000000000000000000000000000000000000000000000000000000000000000000000000000000000000000000000000000000000000000000000000000000000000000000000000000000
00000000000000000000000000000000000000000000000000000000000000000000000000000000000000000000000000000000000000000000000000000000000000000000000000000000000000000000000000000000000000000000000000000000
00000000000000000000000000000000000000000000000000000000000000000000000000000000000000000000000000000000000000000000000000000000000000000000000000000000000000000000000000000000000000000000000000000000
00000000000000000000000000000000000000000000000000000000000000000000000000000000000000000000000000000000000000000000000000000000000000000000000000000000000000000000000000000000000000000000000000000000
00000000000000000000000000000000000000000000000000000000000000000000000000000000000000000000000000000000000000000000000000000000000000000000000000000000000000000000000000000000000000000000000000000000
00000000000000000000000000000000000000000000000000000000000000000000000000000000000000000000000000000000000000000000000000000000000000000000000000000000000000000000000000000000000000000000000000000000
00000000000000000000000000000000000000000000000000000000000000000000000000000000000000000000000000000000000000000000000000000000000000000000000000000000000000000000000000000000000000000000000000000000
00000000000000000000000000011111111111110000000000000000000000000000000000000000000000000000000000000000000000000000000000000000000000000000000000000000000000000000000000000000000000000000000000000000
00000000000000000001111111111111111111110000000000000000000000000000000000000000000000000000000000000000000000000000000000000000000000000000000000000000000000000000000000000000000000000000000000000000
00000000000000000000111111111111111111111000000000000000000000000000000000000000000000000000000000000000000000000000000000000000000000000000000000000000000000000000000000000000000000000000000000000000
00000000000000000000111111111111111111111000000000000000000000000000000000000000000000000000000000000000000000000000000000000000000000000000000000000000000000000000000000000000000000000000000000000000
00000000000000000000111111111111111111111000000000000000000000000000000000000000111111110000000000000000000000000000000000000000000000000000000000000000000000000000000000000000000000000000000000000000
00000000000000000000111111111111111111111000000000000000000000000000000000000001111111110000000000000000000000000000000000000000000000000000000000000000000000011111111000000000000000000000000000000000
00000000000000000000111111111111111111111000000000000000000000000000000000000011111111111000000000000000000000000000000000000000000000000000000000000000000001111111111110000000000000000000000000000000
00000000000000000000111111111111111111111100000000000000000000000000000000000011111111111000000000000000000000000000000000000000000000000111000000000000000011111111111111000000000000000000000000000000
00000000000000000000011111111111111111111100000000000000000000000000000000000111111111111000000000000000000000000000000000000000000000001111000000000000000111111110001111000000000000000000000000000000
00000000000000000000001111111111111000000000000000000000000000000000000000000111111111111000000000000000000000000000000000000000000000011111000000000000001111111100000111100000000000000000000000000000
00000000000000000000001111111000000000000000000000000000000000000000000000001111111111111100000000000000000000000000000000000000000000011111000000000000011111111100000111110000000000000000000000000000
00000000000000000000001111111000000000000000000000000000000000000000000000001111111111111100000000000000000000000000000000000000000000111111000000000000011111111000000011111000000000000000000000000000
00000000000000000000001111111000000000000000000000000000000000000000000000011111111111111100000000000000000000000000000000000000000001111111000000000000111111111000000011111100000000000000000000000000
00000000000000000000001111111000000000000000000000000000000000000000000000111111111111111100000000000000000000000000000000000000000011111111000000000000111111111000000111111100000000000000000000000000
00000000000000000000001111111000000000000000000000000000000000000000000000111111111111111100000000000000000000000000000000000000000011111110000000000001111111111000000111111110000000000000000000000000
00000000000000000000001111111000000000000000000000000000000000000000000001111110111111111100000000000000000000000000000000000000000111111110000000000001111111111000000011111110000000000000000000000000
00000000000000000000000111111111111111000000000000000000000000000000000011111100111111111100000000000000000000000000000000000000001111111110000000000011111111110000000011111111000000000000000000000000
00000000000000000000000111111111111111110000000000000000000000000000000011111000111111111100000000000000000000000000000000000000011111111110000000000011111111110000000011111111000000000000000000000000
00000000000000000000000111111111111111111100000000000000000000000000000111111000111111111100000000000000000000000000000000000000111111111110000000000011111111110000000111111111000000000000000000000000
00000000000000000000000111111111111111111110000000000000000000000000000111110000111111111100000000000000000000000000000000000001111100111110000000000011111111100000000111111111000000000000000000000000
00000000000000000000000111111111111111111110000000000000000000000000001111110000111111111100000000000000000000000000000000000011111001111100000000000011111111100000000111111111000000000000000000000000
00000000000000000000000111111111111111111111000000000000000000000000011111100000111111111100000000000000000000000000000000000111110001111100000000000011111111100000000111111111000000000000000000000000
00000000000000000000000111111111111111111111100000000000000000000000111111000000011111111110000000000000000000000000000000001111100001111100000000000011111111100000000111111111000000000000000000000000
00000000000000000000000011111111111111111111110000000000000000000000111110000000011111111110000000000000000000000000000000011111000001111100000000000011111111100000000111111111000000000000000000000000
00000000000000000000000011111111111111111111110000000000000000000001111110000000011111111110000000000000000000000000000000111110000001111100000000000011111111100000000111111111100000000000000000000000
00000000000000000000000001111111111111111111111000000000000000000011111100000000011111111110000000000000000000000000000011111100000001111000000000000011111111100000000111111111100000000000000000000000
00000000000000000000000001111100000001111111111000000000000000000111111100000000011111111111000000000000000000000000000111111000000011111000000000000011111111100000000111111111100000000000000000000000
00000000000000000000000001100000000000011111111100000000000000000111111100000000011111111111000000000000000000000000001111110000000011111000000000000011111111100000001111111111100000000000000000000000
00000000000000000000000000000000000000001111111110000000000000000111111111100000011111111111000000000000000000000000011111100000000111110000000000000011111111000000001111111111000000000000000000000000
00000000000000000000000000000000000000001111111111000000000000000111111111111110111111111111000000000000000000000000111111111000000111110000000000000011111111000000001111111111000000000000000000000000
00000000000000000000000000000000000000000111111111000000000000000011111111111111111111111111000000000000000000000000111111111111111111110000000000000011111111000000001111111111000000000000000000000000
00000000000000000000000000000000000000000111111111000000000000000000001111111111111111111111000000000000000000000000111111111111111111111000000000000011111111000000001111111111000000000000000000000000
00000000000000000000000000000000000000000011111111000000000000000000000000111111111111111111111000000000000000000000111111111111111111111111000000000011111111000000001111111111000000000000000000000000
00000000000000000000000000000000000000000011111111000000000000000000000000000000111111111111111111100000000000000000000000111111111111111111000000000001111111000000001111111110000000000000000000000000
00000000000000000000000000000000000000000011111111100000000000000000000000000000011111111111111111110000000000000000000000000001111111111111000000000001111111000000011111111100000000000000000000000000
00000000000000000000000000000000000000000011111111100000000000000000000000000000011111111111111111111000000000000000000000000000011111111111000000000000111111000000011111111100000000000000000000000000
00000000000000000000000000000000000000000011111111100000000000000000000000000000011111111111111111111000000000000000000000000000001111111111000000000000011111000000011111111000000000000000000000000000
00000000000000000000000000000000000000000011111111100000000000000000000000000000011111111111100000110000000000000000000000000000011111100000000000000000011111000000111111111000000000000000000000000000
00000000000000000000000000000000000000000111111111100000000000000000000000000000011111111111100000000000000000000000000000000000011111000000000000000000001111100001111111110000000000000000000000000000
00000000000000000000000000010000000000000111111111100000000000000000000000000000011111111111110000000000000000000000000000000000011111000000000000000000000111111111111111100000000000000000000000000000
00000000000000000000000000011111110001011111111111100000000000000000000000011110011111111111110000000000000000000000000000000000011111000000000000000000000001111111111110000000000000000000000000000000
00000000000000000000000000111111111111111111111111100000000000000000000000111111111111111111110000000000000000000000000000000000111111000000000000000000000000011111111000000000000000000000000000000000
00000000000000000000000000011111111111111111111111100000000000000000000000011111111111111111110000000000000000000000000000000000111111000000000000000000000000000000000000000000000000000000000000000000
00000000000000000000000000011111111111111111111111100000000000000000000000011111111111111111111000000000000000000000000000000001111110000000000000000000000000000000000000000000000000000000000000000000
00000000000000000000000000011111111111111111111111100000000000000000000000000000000111111111111111100000000000000000000000000001111110000000000000000000000000000000000000000000000000000000000000000000
00000000000000000000000000011111111111111111111111000000000000000000000000000000000000111111111111111100000000000000000000000000111110000000000000000000000000000000000000000000000000000000000000000000
00000000000000000000000000001111111111111111111111000000000000000000000000000000000000000011111111111110000000000000000000000000000000000000000000000000000000000000000000000000000000000000000000000000
00000000000000000000000000001111111111111111111110000000000000000000000000000000000000000000001111111110000000000000000000000000000000000000000000000000000000000000000000000000000000000000000000000000
00000000000000000000000000000111111111111111111100000000000000000000000000000000000000000000000000111110000000000000000000000000000000000000000000000000000000000000000000000000000000000000000000000000
00000000000000000000000000000000111111111111110000000000000000000000000000000000000000000000000000000000000000000000000000000000000000000000000000000000000000000000000000000000000000000000000000000000
00000000000000000000000000000000000000000111100000000000000000000000000000000000000000000000000000000000000000000000000000000000000000000000000000000000000000000000000000000000000000000000000000000000
00000000000000000000000000000000000000000000000000000000000000000000000000000000000000000000000000000000000000000000000000000000000000000000000000000000000000000000000000000000000000000000000000000000
00000000000000000000000000000000000000000000000000000000000000000000000000000000000000000000000000000000000000000000000000000000000000000000000000000000000000000000000000000000000000000000000000000000
00000000000000000000000000000000000000000000000000000000000000000000000000000000000000000000000000000000000000000000000000000000000000000000000000000000000000000000000000000000000000000000000000000000
00000000000000000000000000000000000000000000000000000000000000000000000000000000000000000000000000000000000000000000000000000000000000000000000000000000000000000000000000000000000000000000000000000000
00000000000000000000000000000000000000000000000000000000000000000000000000000000000000000000000000000000000000000000000000000000000000000000000000000000000000000000000000000000000000000000000000000000
00000000000000000000000000000000000000000000000000000000000000000000000000000000000000000000000000000000000000000000000000000000000000000000000000000000000000000000000000000000000000000000000000000000
00000000000000000000000000000000000000000000000000000000000000000000000000000000000000000000000000000000000000000000000000000000000000000000000000000000000000000000000000000000000000000000000000000000
00000000000000000000000000000000000000000000000000000000000000000000000000000000000000000000000000000000000000000000000000000000000000000000000000000000000000000000000000000000000000000000000000000000
