P1
200 72
00000000000000000000000000000000000000000000000000000000000000000000000000000000000000000000000000000000000000000000000000000000000000000000000000000000000000000000000000000000000000000000000000000000
00000000000000000000000000000000000000000000000000000000000000000000000000000000000000000000000000000000000000000000000000000000000000000000000000000000000000000000000000000000000000000000000000000000
00000000000000000000000000000000000000000000000000000000000000000000000000000000000000000000000000000000000000000000000000000000000000000000000000000000000000000000000000000000000000000000000000000000
00000000000000000000000000000000000000000000000000000000000000000000000000000000000000000000000000000000000000000000000000000000000000000000000000000000000000000000000000000000000000000000000000000000
00000000000000000000000000000000000000000000000000000000000000000000000000000000000000000000000000000000000000000000000000000000000000000000000000000000000000000000000000000000000000000000000000000000
00000000000000000000000000000000000000000000000000000000000000000000000000000000000000000000000000000000000000000000000000000000000000000000000000000000000000000000000000000000000000000000000000000000
00000000000000000000000000000000000000000000000000000000000000000000000000000000000000000000000000000000000000000000000000000000000000000000000000000000000000000000000000000000000000000000000000000000
00000000000000000000000000000000000000000000000000000000000000000000000000000000000000000000000000000000000000000000000000000000000000000000000000000000000000000000000000000000000000000000000000000000
00000000000000000000000000000000000000000000000000000000000000000000000000000000000000000000000000000000000000000000000000000000000000000000000000000000000000000000000000000000000000000000000000000000
00000000000000000000000000000000000000000000000000000000000000000000000000000000000000000000000000000000000000000000000000000000000000000000000000000000000000000000000000000000000000000000000000000000
00000000000000000000000000000000000000000000000000000000000000000000000000000000000000000000000000000000000000000000000000000000000000000000000000000000000000000000000000000000000000000000000000000000
00000000000000000000000000000000000000000000000000000000000000000000000000000000000000000000000000000000000000000000000000000000000000000000000000000000000000000000000000000000000000000000000000000000
00000000000000000000000000000000000000000000000000000000000000000000000000000000000000000000000000000000000000000000000000000000000000000000000000000000000000000000000000000000000000000000000000000000
00000000000000000000000000000000000011111100000000000000000000000000000000000000000000000000000000000000000000000000000000000000000000000000000000000000000000000000000000000000000000000000000000000000
00000000000000000000000000000000000111111110000000000000000000000000000000000000000000000000000000000000000000000000000000000000000000000000000000000000000000000000000000000000000000000000000000000000
00000000000000000000000000000000000111111111111100000000000000000000000000000000000000000000000000000000000000000000000000000000000000000000000000000000000000000000000000000000000000000000000000000000
00000000000000000000000000000000001111111111111110000000000000000000000000000000000000000000000000000000000000000000000000000000000000000000000000000000000000000000000000000000000000000000000000000000
00000000000000000000000000000000001111111111111111111000000000000000000000000000000000000000000000000000000000000000000000000000000000000000000000000000000000000000000000000000000000000000000000000000
00000000000000000000000000000000001111111111111111111111000000000000000000000000000000000000000000000000000000000000000000000000000000000001100000000000000000000000000000000000000000000000000000000000
00000000000000000000000000000000001111111111111111111111110000000000000000000000000000000000111110000000000000000000000000000000000000001111100000000000000000000111001100000000000000000000000000000000
00000000000000000000000000000000001111111111111111111111111110000000000000000000000000000001111111000000000000000000000000000000000001111111100000000000000000001111111111000000000000000000000000000000
00000000000000000000000000000000011111111111111111111111111110000000000000000000000000000011111111111100000000000000000000000000000111111111100000000000000000011111111111100000000000000000000000000000
00000000000000000000000000000000011111100011111111111111111110000000000000000000000000000111111111111110000000000000000000000001111111111111100000000000000000111111111111110000000000000000000000000000
00000000000000000000000000000000011111100001111111111111111110000000000000000000000000001111111111111110000000000000000000001111111111111111100000000000000000111111111111110000000000000000000000000000
00000000000000000000000000000000011111100000000011111111111110000000000000000000000000011111111111111100000000000000000001111111111111111110000000000000000001111111100111111000000000000000000000000000
00000000000000000000000000000000111111000000000000001111111100000000000000000000000000111111111111111100000000000000000011111111111111100000000000000000000001111110000011111100000000000000000000000000
00000000000000000000000000000000111111000000000000000111111100000000000000000000000001111111111111111100000000000000000111111111111100000000000000000000000001111100000001111100000000000000000000000000
00000000000000000000000000000001111111000000000000000000000000000000000000000000000011111111111111111100000000000000000111111111110000000000000000000000000001111100000001111110000000000000000000000000
00000000000000000000000000000001111111000000000000000000000000000000000000000000000111111111111111111100000000000000000111111111000000000000000000000000000001111100000000111110000000000000000000000000
00000000000000000000000000000001111110000000000000000000000000000000000000000000001111111111111111111100000000000000000011111110000000000000000000000000000011111100000000111111000000000000000000000000
00000000000000000000000000000001111110000000000000000000000000000000000000000000011111111001111111111100000000000000000011111110000000000000000000000000000011111100000000011111000000000000000000000000
00000000000000000000000000000011111100000000000000000000000000000000000000000001111111100001111111111000000000000000000011111110000000111111000000000000000011111000000000011111000000000000000000000000
00000000000000000000000000000011111111100000000000000000000000000000000000000011111111000011111111111000000000000000000011111110000011111111110000000000000001111000000000001111000000000000000000000000
00000000000000000000000000000111111111110000000000000000000000000000000000000111111110000011111111111000000000000000000011111111011111111111111000000000000001111100000000001111100000000000000000000000
00000000000000000000000000000111111111111111100000000000000000000000000000001111111100000011111111111000000000000000000011111111111111111111111100000000000001111100000000011111100000000000000000000000
00000000000000000000000000000111111111111111111100000000000000000000000000011111111000000011111111111000000000000000000011111111111111111111111100000000000001111100000000011111100000000000000000000000
00000000000000000000000000000011111111111111111111000000000000000000000000111111110000000011111111111000000000000000000011111111111111111111111110000000000001111110000000011111100000000000000000000000
00000000000000000000000000000001100000001111111111100000000000000000000011111111000000000011111111111000000000000000000011111111111111111111111110000000000001111110000000011111100000000000000000000000
00000000000000000000000000000000000000000111111111110000000000000000000111111110000000000011111111110000000000000000000011111111111000001111111110000000000001111110000000111111100000000000000000000000
00000000000000000000000000000000000000000011111111110000000000000000000111111110000000000111111111110000000000000000000011111111100000000111111110000000000000111111000001111111100000000000000000000000
00000000000000000000000000000000000000000011111111111000000000000000000111111110000000000111111111110000000000000000000011111111000000000111111110000000000000111111111111111111110000000000000000000000
00000000000000000000000000000000000000000001111111111000000000000000000111111111100000000111111111110000000000000000000011111110000000000111111110000000000000111111111111111111110000000000000000000000
00000000000000000000000000000000000000000000111111111000000000000000000111111111111110000111111111110000000000000000000011111000000000000111111110000000000000011111111111111111111000000000000000000000
00000000000000000000000000000000000000000000111111111100000000000000000000011111111111111111111111110000000000000000000001000000000000000011111110000000000000011111111111111111111000000000000000000000
00000000000000000000000000000000000000000000111111111100000000000000000000001111111111111111111111110000000000000000000000000000000000000011111110000000000000001111111111100111110000000000000000000000
00000000000000000000000000000000000000000000111111111100000000000000000000000000111111111111111111110000000000000000000000000000000000000111111110000000000000000011111110000111110000000000000000000000
00000000000000000000000001110000000000000000111111111100000000000000000000000000001111111111111111110000000000000000000000000000000000000111111100000000000000000000111000000111110000000000000000000000
00000000000000000000000011110000000000000000111111111100000000000000000000000000000000111111111111110000000000000000000000000011100000001111111100000000000000000000000000000111110000000000000000000000
00000000000000000000000011110000000000000001111111111100000000000000000000000000000000011111111111111100000000000000000000011111100000011111111100000000000000000000000000000111110000000000000000000000
00000000000000000000000011110000000000000001111111111000000000000000000000000000000000011111111111111111110000000000000001111111110000111111111000000000000000000000000000000111110000000000000000000000
00000000000000000000000011110000000000000011111111111000000000000000000000000000000000011111111111111111111000000000000001111111111111111111110000000000000000000000000000001111100000000000000000000000
00000000000000000000000111110000000000000011111111111000000000000000000000000000000000011111111111111111111000000000000001111111111111111111100000000000000000000000000000001111100000000000000000000000
00000000000000000000000111110000000000000011111111111000000000000000000000000000000000011111111111110011111000000000000001111111111111111111000000000000000000001111000000011111100000000000000000000000
00000000000000000000000111110000000000000111111111110000000000000000000000000000111000111111111111100001110000000000000000111111111111111110000000000000000000111111100001111111100000000000000000000000
00000000000000000000001111111000000000001111111111100000000000000000000000000000111111111111111111100000000000000000000000011111111111110000000000000000000000111111110011111111000000000000000000000000
00000000000000000000001111111110000000011111111111100000000000000000000000000001111111111111111111100000000000000000000000000111111110000000000000000000000000011111111111111110000000000000000000000000
00000000000000000000001111111111111111111111111111000000000000000000000000000001111111111111111111100000000000000000000000000000000000000000000000000000000000011111111111111100000000000000000000000000
00000000000000000000001111111111111111111111111110000000000000000000000000000000011111111111111111100000000000000000000000000000000000000000000000000000000000001111111111111000000000000000000000000000
00000000000000000000000111111111111111111111111100000000000000000000000000000000000001111111111111100000000000000000000000000000000000000000000000000000000000001111111111100000000000000000000000000000
00000000000000000000000001111111111111111111110000000000000000000000000000000000000000001111111111111000000000000000000000000000000000000000000000000000000000000111111111000000000000000000000000000000
00000000000000000000000000000011111111111111000000000000000000000000000000000000000000000001111111111111100000000000000000000000000000000000000000000000000000000011111000000000000000000000000000000000
00000000000000000000000000000000000111111000000000000000000000000000000000000000000000000000000111111111100000000000000000000000000000000000000000000000000000000000000000000000000000000000000000000000
00000000000000000000000000000000000000000000000000000000000000000000000000000000000000000000000001111111100000000000000000000000000000000000000000000000000000000000000000000000000000000000000000000000
00000000000000000000000000000000000000000000000000000000000000000000000000000000000000000000000000000011100000000000000000000000000000000000000000000000000000000000000000000000000000000000000000000000
00000000000000000000000000000000000000000000000000000000000000000000000000000000000000000000000000000000000000000000000000000000000000000000000000000000000000000000000000000000000000000000000000000000
00000000000000000000000000000000000000000000000000000000000000000000000000000000000000000000000000000000000000000000000000000000000000000000000000000000000000000000000000000000000000000000000000000000
00000000000000000000000000000000000000000000000000000000000000000000000000000000000000000000000000000000000000000000000000000000000000000000000000000000000000000000000000000000000000000000000000000000
00000000000000000000000000000000000000000000000000000000000000000000000000000000000000000000000000000000000000000000000000000000000000000000000000000000000000000000000000000000000000000000000000000000
00000000000000000000000000000000000000000000000000000000000000000000000000000000000000000000000000000000000000000000000000000000000000000000000000000000000000000000000000000000000000000000000000000000
00000000000000000000000000000000000000000000000000000000000000000000000000000000000000000000000000000000000000000000000000000000000000000000000000000000000000000000000000000000000000000000000000000000
00000000000000000000000000000000000000000000000000000000000000000000000000000000000000000000000000000000000000000000000000000000000000000000000000000000000000000000000000000000000000000000000000000000
00000000000000000000000000000000000000000000000000000000000000000000000000000000000000000000000000000000000000000000000000000000000000000000000000000000000000000000000000000000000000000000000000000000
