P1
200 72
00000000000000000000000000000000000000000000000000000000000000000000000000000000000000000000000000000000000000000000000000000000000000000000000000000000000000000000000000000000000000000000000000000000
00000000000000000000000000000000000000000000000000000000000000000000000000000000000000000000000000000000000000000000000000000000000000000000000000000000000000000000000000000000000000000000000000000000
00000000000000000000000000000000000000000000000000000000000000000000000000000000000000000000000000000000000000000000000000000000000000000000000000000000000000000000000000000000000000000000000000000000
00000000000000000000000000000000000000000000000000000000000000000000000000000000000000000000000000000000000000000000000000000000000000000000000000000000000000000000000000000000000000000000000000000000
00000000000000000000000000000000000000000000000000000000000000000000000000000000000000000000000000000000000000000000000000000000000000000000000000000000000000000000000000000000000000000000000000000000
00000000000000000000000000000000000000000000000000000000000000000000000000000000000000000000000000000000000000000000000000000000000000000000000000000000000000000000000000000000000000000000000000000000
00000000000000000000000000000000000000000000000000000000000000000000000000000000000000000000000000000000000000000000000000000000000000000000000000000000000000000000000000000000000000000000000000000000
00000000000000000000000000000000000000000000000000000000000000000000000000000000000000000000001000000000000000000000000000000000000000000000000000000000000000000000000000000000000000000000000000000000
00000000000000000000000000000000000000000000000000000000000000000000000000000000000000000011111000000000000000000000000000000000000000000000000000000000000000000000000000000000000000000000000000000000
00000000000000000000000000000000000000000000000000000000000000000000000000000000000001111111111000000000000000000000000000000000000000000000000000000000000000000000000000000000000000000000000000000000
00000000000000000000000000000000000000000000000000000000000000000000000000000000011111111111111000000000000000000000000000000000000000000000000000000000000000000000000000000000000000000000000000000000
00000000000000000000000000000000000000000000000000000000000000000000000000000111111111111111111000000000000000000000000000000000000000000000000000000000000000000000000000000000000000000000000000000000
00000000000000000000000000000000000000000000000000000000000000000000000001111111111111111111111000000000000000000000000000000000000000000000100000000000000000000000000000000000000000000000000000000000
00000000000000000000000000000000000000000000000000000000000000000000111111111111111111111111111000000000000000000000000000000000000000000001100000000000000000000000000000000000000000000000000000000000
00000000000000000000000000000000000000000000000000000000000000001111111111111111111111111111111000000000000000000000000000000000000000000111100000000000000000000000000000000000000000000000000000000000
00000000000000000000000000000000000000000000000000000000000000001111111111111111111111111111111000000000000000000000000000000000000000011111100000000000000000000000000000000000000000000000000000000000
00000000000000000000000000000000000000000000000000000000000000001111111111111111111111111111110000000000000000000000000000000000000000011111000000000000000000000000000000000000000000000000000000000000
00000000000000000000000000000000000000000000000000000000000000000111111111111111111111111111000000000000000000000000000000000000000000111111000000000000000000000000000000000000000000000000000000000000
00000000000000000000000000000000000000000000000000000000000000000111111111111111111111110000000000000000000000000000000000000000000001111110000000000000000001111100000000000000000000000000000000000000
00000000000000000000000000000000000000000011000000000000000000000111111111111111111100000000000000000000000000000000000000000000000011111110000000000000000011111111100000000000000000000000000000000000
00000000000000000000000000000000000000011111111001100000000000000111111111111111000000000000000000000000000000000000000000000000000111111110000000000000000011111111110000000000000000000000000000000000
00000000000000000000000000000000000000111111111111111111100000000011111111110000000000000000000000000000000000000000000000000000001111111110000000000000000011111111111111000000000000000000000000000000
00000000000000000000000000000000000001111111111111111111110000000011111100000000000000000000000000000000000000000000000000000000011111111110000000000000000011111111111111110000000000000000000000000000
00000000000000000000000000000000000011111111111111111111100000000011111100000000000000000000000000000000000000000000000000000000111111111100000000000000000111111111111111111100000000000000000000000000
00000000000000000000000000000000000111111100111111111111000000000001111100000000000000000000000000000000000000000000000000000001111111111100000000000000000111111111111111111110000000000000000000000000
00000000000000000000000000000000001111100000000011111100000000000001111100000000000000000000000000000000000000000000000000000011111111111100000000000000000111111111111111111111000000000000000000000000
00000000000000000000000000000000011111000000000000000000000000000000111100000000000000000000000000000000000000000000000000000111100111111000000000000000000111111111111111111111110000000000000000000000
00000000000000000000000000000000111111100000000000000000000000000000111110000000011111111100000000000000000000000000000000001111000111111000000000000000000000000010111111111111110000000000000000000000
00000000000000000000000000000001111111110000000000000000000000000000111110000011111111111111100000000000000000000000000000011110001111110000000000000000000000000000001111111111111000000000000000000000
00000000000000000000000000000001111111111100000000000000000000000000011110000111111111111111110000000000000000000000000000111100001111110000000000000000000000000000000011111111111000000000000000000000
00000000000000000000000000000001111111111100000000000000000000000000011110001111111111111111111000000000000000000000000000111000001111110000000000000000000000000000000001111111111100000000000000000000
00000000000000000000000000000000001111111110000000000000000000000000011111111111111111111111111100000000000000000000000000110000001111110000000000000000000000000000000000111111111100000000000000000000
00000000000000000000000000000000000011111110000000000000000000000000011111111111111111111111111110000000000000000000000000100000001111100000000000000000000000000000000000111111111110000000000000000000
00000000000000000000000000000000000001111111000000000000000000000000001111111100101111111111111110000000000000000000000000000000011111100000000000000000000000000000000000011111111110000000000000000000
00000000000000000000000000000000000001111111100000000000000000000000001111111000000011111111111111000000000000000000000000000000011111100000000000000000000000000000000000011111111110000000000000000000
00000000000000000000000000000000000000111111100000000000000000000000001111110000000000111111111111000000000000000000000000000000011111100000000000000000000000000000000000111111111110000000000000000000
00000000000000000000000000000000000000011111100000000000000000000000001111110000000000111111111111000000000000000000000000000000011111100000000000000000000000111100000001111111111110000000000000000000
00000000000000000000000000000000000000011111100000000000000000000000000111100000000000011111111111100000000000000000000000000000011111000000000000000000000000111111111111111111111110000000000000000000
00000000000000000000000000000000000000011111100000000000000000000000000111000000000000011111111111110000000000000000000000000000111111000000000000000000000000111111111111111111111110000000000000000000
00000000000000000000000000000000000000011111000000000000000000000000000000000000000000011111111111110000000000000000000000000000111110000000000000000000000000111111111111111111111100000000000000000000
00000000000000000000000000000000000000011111000000000000000000000000000000000000000000001111111111110000000000000000000000000000111110000000000000000000000001111111111111111111111000000000000000000000
00000000000000000000000000000000000000111111000000000000000000000000000000000000000000001111111111110000000000000000000000000001111110000000000000000000000001111111111111111111110000000000000000000000
00000000000000000000000000000000000000111110000000000000000000000000000000000000000000000111111111110000000000000000000000000001111100000000000000000000000001111111111111111111000000000000000000000000
00000000000000000000111000000000000001111110000000000000000000000000000000000000000000000111111111110000000000000000000000000011111100000000000000000000000000111111111111111111100000000000000000000000
00000000000000000000111100000000000011111100000000000000000000000000000000000000000000000111111111110000000000000000000000000011111100000000000000000000000000011111111111111111110000000000000000000000
00000000000000000000111110000000000011111000000000000000000000000000000000000000000000000111111111110000000000000000000000000011111100000000000000000000000000000000111111111111110000000000000000000000
00000000000000000000111111000000000111110000000000000000000000000000000000000000000000000111111111111000000000000000000000000011111100000000000000000000000000000000000111111111111000000000000000000000
00000000000000000000011111100000011111100000000000000000000000000000000000000000000000000111111111111000000000000000000000000011111000000000000000000000000000000000000011111111111100000000000000000000
00000000000000000000001111111111111111000000000000000000000000000000000000000000000000000111111111110000000000000000000000000111111000000000000000000000000000000000000001111111111110000000000000000000
00000000000000000000000011111111111100000000000000000000000000000000000000000000000000000111111111110000000000000000000000000111111000000000000000000000000000000000000000111111111110000000000000000000
00000000000000000000000000111111111000000000000000000000000000000000000000000000000000000111111111110000000000000000000000000111111000000000000000000000000000000000000000111111111111000000000000000000
00000000000000000000000000000110000000000000000000000000000000000000000000000000000000000111111111110000000000000000000000000111111000000000000000000000000000000000000000111111111111000000000000000000
00000000000000000000000000000000000000000000000000000000000000000000000001111000000000000111111111110000000000000000000000001111110000000000000000001110000000000000000000111111111111000000000000000000
00000000000000000000000000000000000000000000000000000000000000000000000001111100000000000111111111100000000000000000000000001111110000000000000000011111110000000000000000111111111111000000000000000000
00000000000000000000000000000000000000000000000000000000000000000000000001111100000000000111111111100000000000000000000000001111110000000000000000011111111111000000000011111111111111000000000000000000
00000000000000000000000000000000000000000000000000000000000000000000000001111110000000000111111111100000000000000000000000001111110000000000000000011111111111111111111111111111111111000000000000000000
00000000000000000000000000000000000000000000000000000000000000000000000000111110000000000111111111000000000000000000000000011111110000000000000000011111111111111111111111111111111111000000000000000000
00000000000000000000000000000000000000000000000000000000000000000000000000111111000000001111111111000000000000000000000000011111110011100000000000011111111111111111111111111111111110000000000000000000
00000000000000000000000000000000000000000000000000000000000000000000000000111111000000001111111110000000000000000000000000011111111111100000000000011111111111111111111111111111111100000000000000000000
00000000000000000000000000000000000000000000000000000000000000000000000000111111110000111111111110000000000000000000000000011111111111100000000000111111111111111111111111111111111000000000000000000000
00000000000000000000000000000000000000000000000000000000000000000000000000011111111111111111111100000000000000000000000000111111111110000000000000111111111111111111111111111111111000000000000000000000
00000000000000000000000000000000000000000000000000000000000000000000000000011111111111111111111000000000000000000000000000111111111000000000000000011111111111111111111111111111000000000000000000000000
00000000000000000000000000000000000000000000000000000000000000000000000000011111111111111111100000000000000000000000000011111111000000000000000000000001111111111111111111111000000000000000000000000000
00000000000000000000000000000000000000000000000000000000000000000000000000001111111111111111000000000000000000000000001111111100000000000000000000000000000000000000000000000000000000000000000000000000
00000000000000000000000000000000000000000000000000000000000000000000000000000000111111111000000000000000000000000000111111110000000000000000000000000000000000000000000000000000000000000000000000000000
00000000000000000000000000000000000000000000000000000000000000000000000000000000001110000000000000000000000000000001111110000000000000000000000000000000000000000000000000000000000000000000000000000000
00000000000000000000000000000000000000000000000000000000000000000000000000000000000000000000000000000000000000000001111000000000000000000000000000000000000000000000000000000000000000000000000000000000
00000000000000000000000000000000000000000000000000000000000000000000000000000000000000000000000000000000000000000000000000000000000000000000000000000000000000000000000000000000000000000000000000000000
00000000000000000000000000000000000000000000000000000000000000000000000000000000000000000000000000000000000000000000000000000000000000000000000000000000000000000000000000000000000000000000000000000000
00000000000000000000000000000000000000000000000000000000000000000000000000000000000000000000000000000000000000000000000000000000000000000000000000000000000000000000000000000000000000000000000000000000
00000000000000000000000000000000000000000000000000000000000000000000000000000000000000000000000000000000000000000000000000000000000000000000000000000000000000000000000000000000000000000000000000000000
00000000000000000000000000000000000000000000000000000000000000000000000000000000000000000000000000000000000000000000000000000000000000000000000000000000000000000000000000000000000000000000000000000000
