P1
200 72
00000000000000000000000000000000000000000000000000000000000000000000000000000000000000000000000000000000000000000000000000000000000000000000000000000000000000000000000000000000000000000000000000000000
00000000000000000000000000000000000000000000000000000000000000000000000000000000000000000000000000000000000000000000000000000000000000000000000000000000000000000000000000000000000000000000000000000000
00000000000000000000000000000000000000000000000000000000000000000000000000000000000000000000000000000000000000000000000000000000000000000000000000000000000000000000000000000000000000000000000000000000
00000000000000000000000000000000000000000000000000000000000000000000000000000000000000000000000000000000000000000000000000000000000000000000000000000000000000000000000000000000000000000000000000000000
00000000000000000000000000000000000000000000000000000000000000000000000000000000000000000000000000000000000000000000000000000000000000000000000000000000000000000000000000000000000000000000000000000000
00000000000000000000000000000000000000000000000000000000000000000000000000000000000000000000000000000000000000000000000000000000000000000000000000000000000000000000000000000000000000000000000000000000
00000000000000000000000000000000000000000000000000000000000000000000000000000000000000000000000000000000000000000000000000000000000000000000000000000000000000000000000000000000000000000000000000000000
00000000000000000000000000000000000000000000000000000000000000000000000000000000000000000000000000000000000000000000000000000000000000000000000000000000000000000000000000000000000000000000000000000000
00000000000000000000000000000000000000000000000000000000000000000000000000000000000000000000000000000000000000000000000000000000000000000000000000000000000000000000000000000000000000000000000000000000
00000000000000000000000000000000000000000000000000000000000000000000000000000000000000000000000000000000000000000000000000000000000000000000000000000000000000000000000000000000000000000000000000000000
00000000000000000000000000000000000000000000000000000000000000000000000000000000000000000000000000000000000000000000000000000000000000000000000000000000000000000000000000000000000000000000000000000000
00000000000000000000000000000000000000000000000000000000000000000000000000000000000000000000000000000000000000000000000000000000000000000000000000000000000000000000000000000000000000000000000000000000
00000000000000000000000000000000000000000000000000000000000000000000000000000000000000000000000000000000000000000000000000000000000000000000000000000000000000000000000000000000000000000000000000000000
00000000000000000000000000000000000000000000000000000000000000000000000000000000000000000000000000000000000000000000000000000000000000000000000000000000000000000000000000000000000000000000000000000000
00000000000000000000000000000000000000000000000000000000000000000000000000000000000000000000000000000000001111111011100000000000000000000000000000000000000000000000000000000000000000000000000000000000
00000000000000000000000000000000000000000000000000000000000000000000000000000000000000000000000000000000111111111111111000000000000000000000000000000000000000000000000000000000000000000000000000000000
00000000000000000000000000000000000000000000000000000000000000000000000000000000000000000000000000000001111111111111111110000000000000000000000000000000000000000000000000000000000000000000000000000000
00000000000000000000000000000000000000000000000000000000000000000000000000000000000000000000000000000011111111111111111111100000000000000000000000000000000000000000000000000000000000000000000000000000
00000000011100000000000000000000000000000000000000000000000000000000000000000000000000000000000000000011111111111111111111111000000000000000000000000000000000000000000000000000000000000000000000000000
00000000111111000000000000000000000000000000000000000000000000000000000000000000000000000000000000001111111111111111111111111110000000000000000000000000000000000000000000000011111111111000000000000000
00000000111111111100000000000000000000000000000000000000000001100010000000000000000000000000000000001111111111111111111111111111000000000000000000000000000000000000000001111111111111111100000000000000
00000000111111111111110000000000000000000000000000000000000111111111111000000000000000000000000000001111111111111111111111111111100000000000000000000000000000000000001111111111111111111111100000000000
00000001111111111111111110000000000000000000000000000000011111111111111111000000000000000000000000001111111111111111111111111111110000000000000000000000000000000000001111111111111111111111111000000000
00000001111111111111111111111000000000000000000000000001111111111111111111100000000000000000000000011111111111111110011111111111111000000000000000000000000000000000001111111111111111111111111100000000
00000001111111100111111111111111100000000000000000000001111111110001111111110000000000000000000000011111111111110000001111111111111100000000000000000000000000000000001111111111111111111111111110000000
00000011111111000000111111111111110000000000000000000011111111000000001111111000000000000000000000011111111111110000000011111111111110000000000000000000000000000000001111111111111111111111111111000000
00000011111110000000000111111111111000000000000000000011111110000000000111111100000000000000000000011111111111110000000001111111111110000000000000000000000000000000001111111111111111111111111111000000
00000111111110000000000000111111110000000000000000000111111100000000000011111110000000000000000000011111111111110000000000111111111111000000000000000000000000000000001111111111011111111111111111000000
00000111111100000000000000001111100000000000000000000111111100000000000011111110000000000000000000011111111111100000000000011111111111100000000000000000000000000000001111111000000001111111111111100000
00001111111100000000000000000000000000000000000000001111111100000000000001111111000000000000000000011111111111100000000000011111111111110000000000000000000000000000001111100000000000011111111111100000
00001111111100000000000000000000000000000000000000001111111000000000000001111111000000000000000000011111111111100000000000001111111111111000000000000000000000000000001110000000000000001111111111100000
00001111111000000000000000000000000000000000000000001111111000000000000001111111000000000000000000011111111111110000000000001111111111111000000000000000000000000000000100000000000000001111111111100000
00011111111000000000000000000000000000000000000000001111111000000000000001111111100000000000000000011111111111110000000000001111111111111100000000000000000000000000000000000000000000001111111111100000
00011111111000000000000000000000000000000000000000001111111000000000000001111111100000000000000000011111111111111000000000000111111111111100000000000000000000000000000000000000000000001111111111100000
00011111111111111100000000000000000000000000000000001111111000000000000001111111100000000000000000011111111111111000000000000111111111111100000000000000000000000000000000000000000000011111111111000000
00011111111111111111100000000000000000000000000000001111111000000000000001111111100000000000000000011111111111111000000000000011111111111110000000000000000000000000000000000000000000011111111111000000
00111111111111111111111000000000000000000000000000001111111000000000000001111111100000000000000000011111111111110000000000000011111111111111000000000000000000000000000000000000000000111111111111000000
00111111111111111111111100000000000000000000000000001111111000000000000001111111100000000000000000001111111111110000000000000001111111111111000000000000000000000000000000000000000000111111111110000000
00000011110000001111111110000000000000000000000000001111111100000000000001111111100000000000000000000111111111111000000000000001111111111111000000000000000000000000000000000000000001111111111110000000
00000000000000000011111111000000000000000000000000001111111100000000000011111111100000000000000000000111111111111100000000000001111111111111000000000000000000000000000000000000000011111111111100000000
00000000000000000001111111000000000000000000000000000111111100000000000011111111100000000000000000000111111111111100000000000001111111111111000000000000000000000000000000000000000011111111111000000000
00000000000000000000111111100000000000000000000000000111111100000000000111111111100000000000000000000111111111111100000000000000111111111111100000000000000000000000000000000000000111111111110000000000
00000000000000000000011111100000000000000000000000000111111110000000001111111111100000000000000000000111111111111100000000000000111111111111110000000000000000000000000000000000001111111111100000000000
00000000000000000000011111100000000000000000000000000011111111000000111111111111100000000000000000000111111111111110000000000000011111111111110000000000000000000000000000000000011111111111000000000000
01100000000000000000011111100000000000000000000000000011111111111001111111111111100000000000000000000011111111111110000000000000111111111111110000000000000000000000000000000000111111111110000000000000
11110000000000000000011111100000000000000000000000000011111111111111111100111111000000000000000000000011111111111110000000000000111111111111110000000000000000000000000000000000111111111110000000000000
11110000000000000000011111100000000000000000000000000001111111111111111000111111000000000000000000000011111111111111000000000000111111111111111000000000000000000000000000000001111111111100000000000000
11110000000000000000111111100000000000000000000000000000011111111111110000111111000000000000000000000011111111111111000000000000011111111111110000000000000000000000000000000011111111111000000000000000
11110000000000000000111111100000000000000000000000000000001111111110000000111111000000000000000000000001111111111111000000000000001111111111111000000000000000000000000000000111111111110000000000000000
11111000000000000001111111000000000000000000000000000000000111000000000000111110000000000000000000000001111111111111100000000000001111111111111000000000000000000000000000000111111111100000000011110000
11111100000000000011111111000000000000000000000000000000000000000000000001111110000000000000000000000000111111111111110000000000011111111111111000000000000000000000000000001111111111100000001111111000
11111110000000000111111110000000000000000000000000000000000000000000000001111100000000000000000000000000111111111111110000000000011111111111111000000000000000000000000000011111111111000001111111111000
11111111100000001111111100000000000000000000000000000000000000000000000001111100000000000000000000000000111111111111111000000000011111111111110000000000000000000000000000111111111110011111111111111000
01111111111111111111111000000000000000000000000000000000000000000000000011111000000000000000000000000000011111111111111100000000011111111111110000000000000000000000000000111111111111111111111111111100
00111111111111111111111000000000000000000000000000000000000000000000000111111000000000000000000000000000011111111111111100000000011111111111110000000000000000000000000001111111111111111111111111111100
00011111111111111111100000000000000000000000000000000000000000000000000111110000000000000000000000000000001111111111111111000011111111111111110000000000000000000000000011111111111111111111111111111100
00000111111111111111000000000000000000000000000000000000000000000000001111100000000000000000000000000000000111111111111111111111111111111111100000000000000000000000000111111111111111111111111111111000
00000000011111111000000000000000000000000000000000000000000000000000001111100000000000000000000000000000000011111111111111111111111111111111100000000000000000000000000111111111111111111111111111110000
00000000000001000000000000000000000000000000000000000000000000000000011111000000000000000000000000000000000001111111111111111111111111111111000000000000000000000000001111111111111111111111111100000000
00000000000000000000000000000000000000000000000000000000111000000000111110000000000000000000000000000000000000111111111111111111111111111110000000000000000000000000011111111111111111111111111000000000
00000000000000000000000000000000000000000000000000000001111100000011111100000000000000000000000000000000000000011111111111111111111111111100000000000000000000000000011111111111111111111110000000000000
00000000000000000000000000000000000000000000000000000001111100001111111000000000000000000000000000000000000000001111111111111111111111111000000000000000000000000000011111111111111111111100000000000000
00000000000000000000000000000000000000000000000000000001111111111111100000000000000000000000000000000000000000000011111111111111111111100000000000000000000000000000011111111111111111100000000000000000
00000000000000000000000000000000000000000000000000000001111111111111100000000000000000000000000000000000000000000001111111111111111110000000000000000000000000000000011111111111111111000000000000000000
00000000000000000000000000000000000000000000000000000001111111111111000000000000000000000000000000000000000000000000001111111110000000000000000000000000000000000000011111111111111000000000000000000000
00000000000000000000000000000000000000000000000000000001111111111100000000000000000000000000000000000000000000000000000000000000000000000000000000000000000000000000011111111111100000000000000000000000
00000000000000000000000000000000000000000000000000000001111111110000000000000000000000000000000000000000000000000000000000000000000000000000000000000000000000000000011111111110000000000000000000000000
00000000000000000000000000000000000000000000000000000001111111000000000000000000000000000000000000000000000000000000000000000000000000000000000000000000000000000000011111111000000000000000000000000000
00000000000000000000000000000000000000000000000000000001111110000000000000000000000000000000000000000000000000000000000000000000000000000000000000000000000000000000111111110000000000000000000000000000
00000000000000000000000000000000000000000000000000000000000000000000000000000000000000000000000000000000000000000000000000000000000000000000000000000000000000000000111110000000000000000000000000000000
00000000000000000000000000000000000000000000000000000000000000000000000000000000000000000000000000000000000000000000000000000000000000000000000000000000000000000000111100000000000000000000000000000000
00000000000000000000000000000000000000000000000000000000000000000000000000000000000000000000000000000000000000000000000000000000000000000000000000000000000000000000100000000000000000000000000000000000
