P1
200 72
00000000000000000000000000000000000000000000000000000000000000000000000000000000000000000000000000000000000000000000000000000000000000000000000000000000000000000000000000000000000000000000000000000000
00000000000000000000000000000000000000000000000000000000000000000000000000000000000000000000000000000000000000000000000000000000000000000000000000000000000000000000000000000000000000000000000000000000
00000000000000000000000000000000000000000000000000000000000000000000000000000000000000000000000000000000000000000000000000000000000000000000000000000000000000000000000000000000000000000000000000000000
00000000000000000000000000000000000000000000000000000000000000000000000000000000000000000000000000000000000000000000000000000000000000000000000000000000000000000000000000000000000000000000000000000000
00000000000000000000000000000000000000000000000000000000000000000000000000000000000000000000000000000000000000000000000000000000000000000000000000000000000000000000000000000000000000000000000000000000
00000000000000000000000000000000000000000000000000000000000000000000000000000000000000000000000000000000000000000000000000000000000000000000000000000000000000000000000000000000000000000000000000000000
00000000000000000000000000000000000000000000000000000000000000000000000000000000000000000000000000000000000000000000000000000000000000000000000000000000000000000000000000000000000000000000000000000000
00000000000000000000000000000000000000000000000000000000000000000000000000000000000000000000000000000000000000000000000000000000000000000000000000000000000000000000000000000000000000000000000000000000
00000000000000000000000000000000000000000000000000000000000000000000000000000000000000000000000000000000000000000000000000000000000000000000000000000000000000000000000000000000000000000000000000000000
00000000000000000000000000000000000000000000000000000000000000000000000000000000000000000000000000000000000000000000000000000000000000000000000000000000000000000000000000000000000000000000000000000000
00000000000000000000000000000000000000000000000000000000000000000000000000000000000000000000000000000000000000000000000000000000000000000000000000000000000000000000000000000000000000000000000000000000
00000000000000000000000000000000000000000000000000000000000000000000000000000000000000000000000000000000000000000000000000000000000000000000000000000000000000000000000000000000000000000000000000000000
00000000000000000000000000000000000000000000000000000000000000000000000000000000000000000000000000000000000000000000000000000000000000000000000000000000000000000000000000000000000000000000000000000000
00000000000000000000000000000000000000000000000000000000000000000000000000000000000000000000000000000000000000000000000000000000000000000000000000000000000000000000000000000000000000000000000000000000
00000000000000000000000000000000000000000000000000000000000001111110000000000000000000000000000000000000000000000000000000000000000000000000000000000000000000000000000000000000000000000000000000000000
00000000000000000000000000000000000000000000000000000000000001111111100000000000000000000000000000000000000000000000000000110000000000000000000000000000000000000000000000000000000000000000000000000000
00000000000000000000000000000000000000000001100000000000000001111111111100000000000000000000000000000000000000000000000011110000000000000000000000000000000000000000000000000000000000000000000000000000
00000000000000000000000000000000000000000011100000000000000001111111111111100000000000000000000000000000000000000000001111111000000000000000000000000000000000000000000000000000000000000000000000000000
00000000000000000000000000000000000000000111100000000000000000111100000111111000000000000000000000000000000000000000011111111000000000000000000000000000000011111111100000000000000000000000000000000000
00000000000000000000000000000000000000011111100000000000000000111000000001111100000000000000000000000000000000000000111111110000000000000000000000000000000111111111111110000000000000000000000000000000
00000000000000000000000000000000000000111111000000000000000000111000000000011111000000000000000000000000000000000001111111110000000000000000000000000000011111111111111111000000000000000000000000000000
00000000000000000000000000000000000001111100000000000000000000000000000000001111100000000000000000000000000000000011111111110000000000000000000000000000111111100000011111110000000000000000000000000000
00000000000000000000000000000000000011111000000000000000000000000000000000000111110000000000000000000000000000000111111111110000000000000000000000000001111111000000000111111000000000000000000000000000
00000000000000000000000000000000000111110000000000000000000000000000000000000011111000000000000000000000000000001111111111110000000000000000000000000001111110000000000011111100000000000000000000000000
00000000000000000000000000000000001111100000000000000000000000000000000000000001111000000000000000000000000000011111111111110000000000000000000000000011111110000000000001111100000000000000000000000000
00000000000000000000000000000000001111000000000000000000000000000000000000000001111100000000000000000000000000011111111111110000000000000000000000000011111100000000000001111110000000000000000000000000
00000000000000000000000000000000011110000000000000000000000000000000000000000001111110000000000000000000000000111111111111111000000000000000000000000011111100000000000000111111000000000000000000000000
00000000000000000000000000000000111000000000000000000000000000000000000000000000111110000000000000000000000000111111111111110000000000000000000000000011111100000000000000111111100000000000000000000000
00000000000000000000000000000001110000000000000000000000000000000000000000000000111110000000000000000000000001111111111111110000000000000000000000000011111100000000000000011111100000000000000000000000
00000000000000000000000000000011110000000000000000000000000000000000000000000001111110000000000000000000000011111111111111110000000000000000000000000111111100000000000000011111100000000000000000000000
00000000000000000000000000000111100000000000000000000000000000000000000000000001111111000000000000000000000011111100111111110000000000000000000000000111111100000000000000011111110000000000000000000000
00000000000000000000000000000111100000000000000000000000000000000000001000000001111111000000000000000000000011111000111111111000000000000000000000000111111100000000000000011111110000000000000000000000
00000000000000000000000000001111000000000000000000000000000000000000001111100111111111000000000000000000000011110000111111111000000000000000000000000111111110000000000000011111110000000000000000000000
00000000000000000000000000011110000000000000000000000000000000000000001111111111111111000000000000000000000011100000111111110000000000000000000000000011111110000000000000011111110000000000000000000000
00000000000000000000000000011110000000000000000000000000000000000000000001111111111110000000000000000000000111100000111111110000000000000000000000000011111110000000000000011111110000000000000000000000
00000000000000000000000000111100000000000000000000000000000000000000000000111111110000000000000000000000000111000000111111111000000000000000000000000011111110000000000000001111111000000000000000000000
00000000000000000000000000111000000111111100000000000000000000000000000000001111100000000000000000000000000110000000111111111000000000000000000000000001111111000000000000001111111000000000000000000000
00000000000000000000000000111000001111111110000000000000000000000000000000000011110000000000000000000000000000000000111111110000000000000000000000000001111111000000000000011111110000000000000000000000
00000000000000000000000001111000111111111111000000000000000000000000000000000001111000000000000000000000000000000000111111110000000000000000000000000001111111000000000000011111110000000000000000000000
00000000000000000000000011110001111111111111100000000000000000000000000000000000111110000000000000000000000000000000111111110000000000000000000000000001111111100000000000111111110000000000000000000000
00000000000000000000000011110011111000000111110000000000000000000000000000000000011111000000000000000000000000000000111111111000000000000000000000000000111111110000000000111111110000000000000000000000
00000000000000000000000111111111100000000111110000000000000000001100000000000000001111100000000000000000000000000000111111110000000000000000000000000000011111111000000001111111110000000000000000000000
00000000000000000000000111111111000000000011110000000000000000001110000000000000001111100000000000000000000000000000111111110000000000000000000000000000001111111110011111111111110000000000000000000000
00000000000000000000000111111110000000000001111000000000000000001110000000000000000111110000000000000000000000000000111111110000000000000000000000000000000111111111111111111111110000000000000000000000
00000000000000000000000111111000000000000001111000000000000000001110000000000000000111111000000000000000000000000000111111111000001110000000000000000000000011111111111111111111100000000000000000000000
00000000000000000000000111111000000000000001110000000000000000001111000000000000000111111000000000000000000000000000111111110000111110000000000000000000000001111111111110111111100000000000000000000000
00000000000000000000000111100000000000000011110000000000000000001111100000000000000011111100000000000000000000000000111111110011111110000000000000000000000000111111111100111111100000000000000000000000
00000000000000000000000111100000000000000011110000000000000000000111110000000000000011111100000000000000000000000001111111111111111110000000000000000000000000001111100000111111000000000000000000000000
00000000000000000000000111000000000000000011100000000000000000000111111000000000000011111100000000000000000000000001111111111111111110000000000000000000000000000000000001111111000000000000000000000000
00000000000000000000000111100000000000000111100000000000000000000001111100000000000011111100000000000000000000000001111111111111111110000000000000000000000000000000000001111110000000000000000000000000
00000000000000000000000111110000000000000111000000000000000000000000111111000000000011111100000000000000000000000001111111111111111100000000000000000000000000000000000001111110000000000000000000000000
00000000000000000000000111110000000000011111000000000000000000000000001111110000000111111100000000000000000000000001111111111111110000000000000000000000000000000000000011111100000000000000000000000000
00000000000000000000000011111000000001111110000000000000000000000000000011111110001111111110000000000000000000000001111111111111100000000000000000000000000000000000000111111000000000000000000000000000
00000000000000000000000001111111111111111110000000000000000000000000000000111111111111111110000000000000000000000011111111111100000000000000000000000000000000000000000111111000000000000000000000000000
00000000000000000000000000111111111111111000000000000000000000000000000000001111111111111100000000000000000000001111111111111000000000000000000000000000000000000000001111110000000000000000000000000000
00000000000000000000000000000111111111100000000000000000000000000000000000000001111111111100000000000000000000111111111111100000000000000000000000000000000000000000001111100000000000000000000000000000
00000000000000000000000000000001000000000000000000000000000000000000000000000000011111111000000000000000000001111111111111000000000000000000000000000000000000000000011111000000000000000000000000000000
00000000000000000000000000000000000000000000000000000000000000000000000000000000000000000000000000000000000111111111111100000000000000000000000000000000000000000000111110000000000000000000000000000000
00000000000000000000000000000000000000000000000000000000000000000000000000000000000000000000000000000000001111111111110000000000000000000000000000000000000000000000111100000000000000000000000000000000
00000000000000000000000000000000000000000000000000000000000000000000000000000000000000000000000000000000001111111111100000000000000000000000000000000000000000000001111000000000000000000000000000000000
00000000000000000000000000000000000000000000000000000000000000000000000000000000000000000000000000000000011111111100000000000000000000000000000000000000000000000011110000000000000000000000000000000000
00000000000000000000000000000000000000000000000000000000000000000000000000000000000000000000000000000000011111111000000000000000000000000000000000000000000000000111110000000000000000000000000000000000
00000000000000000000000000000000000000000000000000000000000000000000000000000000000000000000000000000000011111100000000000000000000000000000000000000000000000001111100000000000000000000000000000000000
00000000000000000000000000000000000000000000000000000000000000000000000000000000000000000000000000000000011110000000000000000000000000000000000000000000000000011110000000000000000000000000000000000000
00000000000000000000000000000000000000000000000000000000000000000000000000000000000000000000000000000000011100000000000000000000000000000000000000000000000000111000000000000000000000000000000000000000
00000000000000000000000000000000000000000000000000000000000000000000000000000000000000000000000000000000000000000000000000000000000000000000000000000000000000110000000000000000000000000000000000000000
00000000000000000000000000000000000000000000000000000000000000000000000000000000000000000000000000000000000000000000000000000000000000000000000000000000000000000000000000000000000000000000000000000000
00000000000000000000000000000000000000000000000000000000000000000000000000000000000000000000000000000000000000000000000000000000000000000000000000000000000000000000000000000000000000000000000000000000
00000000000000000000000000000000000000000000000000000000000000000000000000000000000000000000000000000000000000000000000000000000000000000000000000000000000000000000000000000000000000000000000000000000
00000000000000000000000000000000000000000000000000000000000000000000000000000000000000000000000000000000000000000000000000000000000000000000000000000000000000000000000000000000000000000000000000000000
00000000000000000000000000000000000000000000000000000000000000000000000000000000000000000000000000000000000000000000000000000000000000000000000000000000000000000000000000000000000000000000000000000000
00000000000000000000000000000000000000000000000000000000000000000000000000000000000000000000000000000000000000000000000000000000000000000000000000000000000000000000000000000000000000000000000000000000
