P1
200 72
00000000000000000000000000000000000000000000000000000000000000000000000000000000000000000000000000000000000000000000000000000000000000000000000000000000000000000000000000000000000000000000000000000000
00000000000000000000000000000000000000000000000000000000000000000000000000000000000000000000000000000000000000000000000000000000000000000000000000000000000000000000000000000000000000000000000000000000
00000000000000000000000000000000000000000000000000000000000000000000000000000000000000000000000000000000000000000000000000000000000000000000000000000000000000000000000000000000000000000000000000000000
00000000000000000000000000000000000000000000000000000000000000000000000000000000000000000000000000000000000000000000000000000000000000000000000000000000000000000000000000000000000000000000000000000000
00000000000000000000000000000000000000000000000000000000000000000000000000000000000000000000000000000000000000000000000000000000000000000000000000000000000000000000000000000000000000000000000000000000
00000000000000000000000000000000000000000000000000000000000000000000000000000000000000000000000000000000000000000000000000000000000000000000000000000000000000000000000000000000000000000000000000000000
00000000000000000000000000000000000000000000000000000000000000000000000000000000000000000000000000000000000000000000000000000000000000000000000000000000000000000000000000000000000000000000000000000000
00000000000000000000000000000000000000000000000000000000000000000000000000000000000000000000000000000000000000000000000000000000000000000000000000000000000000000000000000000000000000000000000000000000
00000000000000000000000000000000000000000000000000000000000000000000000000000000000000000000000000000000000000000000000000000000000000000000000000000000000000000000000000000000000000000000000000000000
00000000000000000000000000000000000000000000000000000000000000000000000000000000000000000000000000000000000000000000000000000000000000000000000000000000000000000000000000000000000000000000000000000000
00000000000000000000000000000000000000000000000000000000000000000000000000000000000000000000000000000000000000000000000000000000000000000000000000000000000000000000000000000000000000000000000000000000
00000000000000000000000000000000000000000000000000000000000000000000111111111111111111110000000000000000000000000000000000000000000000000000000000000000000000000000000000000000000000000000000000000000
00000000000000000000000000000000000000000000000000000000000000000001111111111111111111111100000000000000000000000000000000000000000000000000000000000000000000000000000000000000000000000000000000000000
00000000000000000000000000000000000000000000000000000000000000000001111111111111111111111111000000000000000000000000000000000000000000000000000000000000000000000000000111111000000000000000000000000000
00000000000000000000000000000000000000000000000000000000000000000001111111111111111111111111000000000000000000000000000000000000000000000000000000000000000000000011111111111000000000000000000000000000
00000000000000000000000000000000000000000000000000000000000000000011111111111111111111111111100000000000000000000000000000000000000000000000000000000000000001111111111111111000000000000000000000000000
00000000000000000000000000000000000000000000000000000000000000000011111111000000001111111111110000000000000000000000000000000000000000000000000000000001111111111111111111110000000000000000000000000000
00000000000000000000000000000000000000000000000000000000000000000001111100000000000011111111110000000000000000000000000000000000000000000000000000000111111111111111111111110000000000000000000000000000
00000000000000000000000000000000000000000000000000000000000000000000000000000000000001111111110000000000000000000000000000000000000000000000000000000111111111111111111111100000000000000000000000000000
00000000000000000000000000000000000000000000000000000000000000000000000000000000000000111111110000000000000000000000000000000000000000000000000000001111111111111111111111000000000000000000000000000000
00000000000000000000000000000000000000000000000000000000000000000000000000000000000000111111110000000000000000000000000000000000000000000000000000001111111111111111000000000000000000000000000000000000
00000000000000000000000000000000000000000000000000000000000000000000000000000000000000011111110000000000000000000001100000000000000000000000000000001111111111111100000000000000000000000000000000000000
00000000000000000000000000000000000000000000000000000000000000000000000000000000000000011111110000000000000000000011110000000000000000000000000000001111111110000000000000000000000000000000000000000000
00000000000000000000000000000000000000000000000000000000000000000000000000000000000000111111100000000000000000000011111110000000000000000000000000001111111000000000000000000000000000000000000000000000
00000000000000000000000000000001110110000000000000000000000000000000000000000000000000111111100000000000000000000011111111100000000000000000000000001111111000000000000000000000000000000000000000000000
00000000000000000000000000000111111111111000000000000000000000000000000000000000000001111111000000000000000000000111111111110000000000000000000000001111111000000000000000000000000000000000000000000000
00000000000000000000000000001111111111111100000000000000000000000000000000000000000001111110000000000000000000000111111111111100000000000000000000011111111000000111000000000000000000000000000000000000
00000000000000000000000000011111111111111110000000000000000000000000000000000000000011111100000000000000000000001111111111111111100000000000000000011111111000111111111000000000000000000000000000000000
00000000000000000000000000011111100000001110000000000000000000000000000000000000011111111100000000000000000000001111100111111111100000000000000000111111111111111111111100000000000000000000000000000000
00000000000000000000000000111110000000000000000000000000000000000000000000000000111111111000000000000000000000011111100001111111100000000000000000111111111111111111111110000000000000000000000000000000
00000000000000000000000000111100000000000000000000000000000000000000000110000111111111110000000000000000000000011111000000001111000000000000000000111111111111111111111110000000000000000000000000000000
00000000000000000000000001111000000000000000000000000000000000000000001111111111111111100000000000000000000000011111000000000110000000000000000000011111111111111111111111000000000000000000000000000000
00000000000000000000000001110000000000000000000000000000000000000000001111111111111110000000000000000000000000111110000000000000000000000000000000111111111111111111111111000000000000000000000000000000
00000000000000000000000001110000000000000000000000000000000000000000001111111111111100000000000000000000000000111110000000000000000000000000000000111111111111111111111111000000000000000000000000000000
00000000000000000000000011110000000000000000000000000000000000000000001111111111111111000000000000000000000001111110000000000000000000000000000000111111111111011111111111000000000000000000000000000000
00000000000000000000000011110000000000000000000000000000000000000000001111111111111111000000000000000000000001111110000000000000000000000000000000111111111100000011111111000000000000000000000000000000
00000000000000000000000011100000000000000000000000000000000000000000000000000011111111100000000000000000000001111111000000000000000000000000000000111111111000000001111110000000000000000000000000000000
00000000000000000000000011100000111110000000000000000000000000000000000000000001111111100000000000000000000011111111111100000000000000000000000000111111100000000001111110000000000000000000000000000000
00000000000000000000000001100011111111110000000000000000000000000000000000000000111111100000000000000000000011111111111110000000000000000000000000011110000000000001111111000000000000000000000000000000
00000000000000000000000001111111111111111000000000000000000000000000000000000000011111100000000000000000000011111111111111000000000000000000000000000000000000000011111110000000000000000000000000000000
00000000000000000000000001111111110001111100000000000000000000000000000000000000011111100000000000000000000111111111111111100000000000000000000000000000000000000011111110000000000000000000000000000000
00000000000000000000000001111111000000011110000000000000000000000000000000000000011111100000000000000000000011111111111111100000000000000000000000000000000000000011111110000000000000000000000000000000
00000000000000000000000011111110000000011111000000000000000000000000000000000000011111100000000000000000000001110000011111110000000000000000000000000000000000000011111110000000000000000000000000000000
00000000000000000000000011111100000000000111100000000000000000000000000000000000011111100000000000000000000000000000001111110000000000000000000000000000000000000011111100000000000000000000000000000000
00000000000000000000000011111000000000000011110000000000000000000000000000000000111111100000000000000000000000000000000111111000000000000000000000000000000000000111111100000000000000000000000000000000
00000000000000000000000001111000000000000001111000000000000000000000000000000000111111100000000000000000000000000000000111111000000000000000000000000000000000000111111000000000000000000000000000000000
00000000000000000000000001111000000000000001111000000000000000000000000000000000111111000000000000000000000000000000000011111000000000000000000000000000000000001111110000000000000000000000000000000000
00000000000000000000000000111000000000000001111000000000000000000000000000000000111111000000000000000000000000000000000011111000000000000000000000000000000000111111110000000000000000000000000000000000
00000000000000000000000000111100000000000000111100000000000000000000000000000001111110000000000000000000000000000000000011111000000000000000000000000000000001111111100000000000000000000000000000000000
00000000000000000000000000011100000000000000111100000000000000000000000000000011111110000000000000000001100000000000000011111000000000000000000000000000000011111111100000000000000000000000000000000000
00000000000000000000000000011110000000000000111100000000000000000000000000000111111100000000000000000011111000000000000011111000000000000000000000000000001111111111000000000000000000000000000000000000
00000000000000000000000000001111000000000000111100000000000000011000000000001111111000000000000000000011111000000000000011111100000000000000000001111111111111111110000000000000000000000000000000000000
00000000000000000000000000001111100000000001111100000000000000111100000000011111111000000000000000000011111000000000000011111100000000000000000011111111111111111100000000000000000000000000000000000000
00000000000000000000000000001111110000000011111000000000000000111110000000111111110000000000000000000011111000000000000011111100000000000000000111111111111111111000000000000000000000000000000000000000
00000000000000000000000000000111111001111111110000000000000000111111111111111111100000000000000000000011111000000000000111111000000000000000001111111111111111100000000000000000000000000000000000000000
00000000000000000000000000000011111111111111100000000000000000111111111111111111000000000000000000000011111100000000001111111000000000000000001111111111111111100000000000000000000000000000000000000000
00000000000000000000000000000000111111111111000000000000000000111111111111111110000000000000000000000001111110000000011111110000000000000000000111111111111111000000000000000000000000000000000000000000
00000000000000000000000000000000000000111000000000000000000000111111111111111100000000000000000000000001111111111111111111110000000000000000000111111111111000000000000000000000000000000000000000000000
00000000000000000000000000000000000000000000000000000000000000011111111111111000000000000000000000000001111111111111111111100000000000000000000111111111100000000000000000000000000000000000000000000000
00000000000000000000000000000000000000000000000000000000000000001111111100000000000000000000000000000000111111111111111111100000000000000000000011111110000000000000000000000000000000000000000000000000
00000000000000000000000000000000000000000000000000000000000000000000000000000000000000000000000000000000011111111111111111000000000000000000000000000000000000000000000000000000000000000000000000000000
00000000000000000000000000000000000000000000000000000000000000000000000000000000000000000000000000000000000111111111111100000000000000000000000000000000000000000000000000000000000000000000000000000000
00000000000000000000000000000000000000000000000000000000000000000000000000000000000000000000000000000000000000011110000000000000000000000000000000000000000000000000000000000000000000000000000000000000
00000000000000000000000000000000000000000000000000000000000000000000000000000000000000000000000000000000000000000000000000000000000000000000000000000000000000000000000000000000000000000000000000000000
00000000000000000000000000000000000000000000000000000000000000000000000000000000000000000000000000000000000000000000000000000000000000000000000000000000000000000000000000000000000000000000000000000000
00000000000000000000000000000000000000000000000000000000000000000000000000000000000000000000000000000000000000000000000000000000000000000000000000000000000000000000000000000000000000000000000000000000
00000000000000000000000000000000000000000000000000000000000000000000000000000000000000000000000000000000000000000000000000000000000000000000000000000000000000000000000000000000000000000000000000000000
00000000000000000000000000000000000000000000000000000000000000000000000000000000000000000000000000000000000000000000000000000000000000000000000000000000000000000000000000000000000000000000000000000000
00000000000000000000000000000000000000000000000000000000000000000000000000000000000000000000000000000000000000000000000000000000000000000000000000000000000000000000000000000000000000000000000000000000
00000000000000000000000000000000000000000000000000000000000000000000000000000000000000000000000000000000000000000000000000000000000000000000000000000000000000000000000000000000000000000000000000000000
00000000000000000000000000000000000000000000000000000000000000000000000000000000000000000000000000000000000000000000000000000000000000000000000000000000000000000000000000000000000000000000000000000000
00000000000000000000000000000000000000000000000000000000000000000000000000000000000000000000000000000000000000000000000000000000000000000000000000000000000000000000000000000000000000000000000000000000
