P1
200 72
00000000000000000000000000000000000000000000000000000000000000000000000000000000000000000000000000000000000000000000000000000000000000000000000000000000000000000000000000000000000000000000000000000000
00000000000000000000000000000000000000000000000000000000000000000000000000000000000000000000000000000000000000000000000000000000000000000000000000000000000000000000000000000000000000000000000000000000
00000000000000000000000000000000000000000000000000000000000000000000000000000000000000000000000000000000000000000000000000000000000000000000000000000000000000000000000000000000000000000000000000000000
00000000000000000000000000000000000000000000000000000000000000000000000000000000000000000000000000000000000000000000000000000000000000000000000000000000000000000000000000000000000000000000000000000000
00000000000000000000000000000000000000000000000000000000000000000000000000000000000000000000000000000000000000000000000000000000000000000000000000000000000000000000000000000000000000000000000000000000
00000000000000000000000000000000000000000000000000000000000000000000000000000000000000000000000000000000000000000000000000000000000000000000000000000000000000000000000000000000000000000000000000000000
00000000000000000000000000000000000000000000000000000000000000000000000000000000000000000000000000000000000000000000000000000000000000000000000000000000000000000000000000000000000000000000000000000000
00000000000000000000000000000000000000000000000000000000000000000000000000000000000000000000000000000000000000000000000000000000000000000000000000000000000000000000000000000000000000000000000000000000
00000000000000000000000000000000000000000000000000000000000000000000000000000000000000000000000000000000000000000000000000000000000000000000000000000000000000000000000000000000000000000000000000000000
00000000000000000000000000000000000000000000000000000000000000000000000000000000000000000000000000000000000000010000000000000000000000000000000000000000000000000000000000000000000000000000000000000000
00000000000000000000000000000000000000000000000000000000000000000000000000000000000000000000000000000000000000111100000000000000000000000000000000000000000000000000000000000000000000000000000000000000
00000000000000000000000000000000000000000000000000000000000000000000000000000000000000000000000000000000000000111110000000000000000000000000000000000000000000000000000000000000000000000000000000000000
00000000000000000000000000000000011111111110000000000000000000000000000000000000000000000000000000000000000000111111100000000000000000000000000000000000000000000000000000000000000000000000000000000000
00000000000000000000000000000001111111111111000000000000000000000000000000000000000000000000000000000000000000111111110000000000000000000000000000000000000000000000000000000000000000000000000000000000
00000000000000000000000000000001111111111111111100000000000000000000000000000000000000000000000000000000000000111111111100000000000000000000000000000000000000000000000000000000000000000000000000000000
00000000000000000000000000000111111111111111111111100000000000000000000000000000000001111100000000000000000000111111111111000000000000000000000000000000000000000000000000000000000000000000000000000000
00000000000000000000000000001111111100000000011111111000000000000000000000000000000011111100000000000000000001111111111111100000000000000000000000000000000000000000000000000000000000000000000000000000
00000000000000000000000000011111111000000000000111111100000000000000000000000000000011111100000000000000000001111111111111111000000000000000000000000000000000000000000000000000000000000000000000000000
00000000000000000000000000111111100000000000000001111110000000000000000000000000000111111100000000000000000001111111111111111111000000000000000000000000000000000000000000000000000000000000000000000000
00000000000000000000000000111110000000000000000000111111000000000000000000000000000111111100000000000000000001111111101111111111100000000000000000000000000000000000000000000011111110000000000000000000
00000000000000000000000001111110000000000000000000000110000000000000000000000000000111111100000000000000000001111111100001111111111000000000000000000000000000000000000000000111111111000000000000000000
00000000000000000000000001111100000000000000000000000000000000000000000000000000001111111110000000000000000001111111100000011111111111000000000000000000000000000000000000001111111111000000000000000000
00000000000000000000000001111000000000000000000000000000000000000000000000000000001111111110000000000000000001111111000000000111111111100000000000000000000000000000000000011111111111000000000000000000
00000000000000000000000001111000000000000000000000000000000000000000000000000000011111111100000000000000000001111111000000000000011111110000000000000000000000000000000000111111111111000000000000000000
00000000000000000000000011110000000000000000000000000000000000000000000000000000011111111100000000000000000001111111000000000000001111110000000000000000000000000000000000111111111111000000000000000000
00000000000000000000000011110000000000000000000000000000000000000000000000000000011111111110000000000000000001111111000000000000000011110000000000000000000000000000000001111111111111000000000000000000
00000000000000000000000111111000000000000000000000000000000000000000000000000000011111111110000000000000000001111111000000000000000000000000000000000000000000000000000011111111111110000000000000000000
00000000000000000000000111110000000000000000000000000000000000000000000000000000111111111110000000000000000001111111100000000000000000000000000000000000000000000000000111111111111110000000000000000000
00000000000000000000000111110000000000000000000000000000000000000000000000000000111111111110000000000000000001111111111000000000000000000000000000000000000000000000001111111111111100000000000000000000
00000000000000000000001111110000011111111100000000000000000000000000000000000001111100111110000000000000000011111111111110000000000000000000000000000000000000000000011111111111111100000000000000000000
00000000000000000000001111100001111111111111110000000000000000000000000000000001111100111110000000000000000011111111111111111100000000000000000000000000000000000000111111111111111100000000000000000000
00000000000000000000001111100111111111111111111000000000000000000000000000000011111001111110000000000000000011111111111111111111000000000000000000000000000000000001111111101111111100000000000000000000
00000000000000000000001111101111111100011111111100000000000000000000000000000011111001111110000000000000000011111111111111111111100000000000000000000000000000000011111111001111111100000000000000000000
00000000000000000000001111111111000000000011111110000000000000000000000000000111110001111110000000000000000000111000001111111111111000000000000000000000000000000111111110001111111000000000000000000000
00000000000000000000001111111110000000000000111111000000000000000000000000000111110001111110000000000000000000000000000001111111111100000000000000000000000000001111111100011111111000000000000000000000
00000000000000000000001111111100000000000000001111100000000000000000000000000111100001111110000000000000000000000000000000011111111110000000000000000000000000011111111100011111111000000000000000000000
00000000000000000000001111111000000000000000000111110000000000000000000000001111100001111110000000000000000000000000000000000011111111000000000000000000000001111111111000011111111000000000000000000000
00000000000000000000001111110000000000000000000111110000000000000000000000001111000001111110000000000000000000000000000000000001111111100000000000000000000011111111100000011111111000000000000000000000
00000000000000000000011111100000000000000000000111111000000000000000000000011111000001111110000000000000000000000000000000000001111111110000000000000000000111111111000000011111111000000000000000000000
00000000000000000000011111110000000000000000000011111000000000000000000000011110000001111110000000000000000000000000000000000000111111111000000000000000001111111110000000111111110000000000000000000000
00000000000000000000011111110000000000000000000011111000000000000000000000111110000001111110000000000000000000000000000000000000011111111000000000000000001111111110000000111111110000000000000000000000
00000000000000000000011111100000000000000000000011111000000000000000000001111110000001111110000000000000000000000000000000000000011111111000000000000000001111111111110001111111110000000000000000000000
00000000000000000000011111100000000000000000000011111000000000000000000001111100000001111110000000000000000000000000000000000000011111111000000000000000011111111111111001111111100000000000000000000000
00000000000000000000011111100000000000000000000011111000000000000000000011111100000000111110000000000000000000000000000000000000011111111000000000000000011111111111111111111111100000000000000000000000
00000000000000000000011111000000000000000000000011111000000000000000000011111000000001111111111100000000000000000000000000000000011111111000000000000000001111111111111111111111100000000000000000000000
00000000000000000000001111000000000000000000000111111000000000000000000011111111001111111111111100000000000000000000000000000000011111111000000000000000000000111111111111111111100000000000000000000000
00000000000000000000001111000000000000000000000111110000000000000000000111111111111111111111111100000000000000000000000000000000111111111000000000000000000000001111111111111111111000000000000000000000
00000000000000000000001111000000000000000000000111110000000000000000000111111111111111111111111100000000000000000000000000000001111111110000000000000000000000000011111111111111111000000000000000000000
00000000000000000000001111000000000000000000000111100000000000000000000111111111111111111111111100000000000000000000000000000011111111110000000000000000000000000000011111111111111100000000000000000000
00000000000000000000001111000000000000000000001111000000000000000000000111111111111111111111111000000000000000000000000000000111111111100000000000000000000000000000001111111111111110000000000000000000
00000000000000000000000111000000000000000000011111000000000000000000000111111111110111111110000000000000110000000000000000011111111111000000000000000000000000000000001111111111111110000000000000000000
00000000000000000000000111100000000000000000111110000000000000000000000011111000000000111110000000000000111111110000001111111111111100000000000000000000000000000000001111111111111110000000000000000000
00000000000000000000000111110000000000000011111100000000000000000000000000000000000000111110000000000000111111111111111111111111111000000000000000000000000000000000011111111111111100000000000000000000
00000000000000000000000011111000000000000111111000000000000000000000000000000000000000111110000000000000111111111111111111111111100000000000000000000000000000000000011111111100011000000000000000000000
00000000000000000000000001111100000000111111110000000000000000000000000000000000000001111110000000000000111111111111111111111100000000000000000000000000000000000000111111111100000000000000000000000000
00000000000000000000000001111111111111111111100000000000000000000000000000000000000001111110000000000001111111111111111111100000000000000000000000000000000000000000111111111100000000000000000000000000
00000000000000000000000000111111111111111100000000000000000000000000000000000000000001111110000000000001111111111111100000000000000000000000000000000000000000000000001111111100000000000000000000000000
00000000000000000000000000011111111111110000000000000000000000000000000000000000000001111110000000000000000001100000000000000000000000000000000000000000000000000000000111111100000000000000000000000000
00000000000000000000000000000011100100000000000000000000000000000000000000000000000000111110000000000000000000000000000000000000000000000000000000000000000000000000000001111000000000000000000000000000
00000000000000000000000000000000000000000000000000000000000000000000000000000000000000111110000000000000000000000000000000000000000000000000000000000000000000000000000000000000000000000000000000000000
00000000000000000000000000000000000000000000000000000000000000000000000000000000000000000000000000000000000000000000000000000000000000000000000000000000000000000000000000000000000000000000000000000000
00000000000000000000000000000000000000000000000000000000000000000000000000000000000000000000000000000000000000000000000000000000000000000000000000000000000000000000000000000000000000000000000000000000
00000000000000000000000000000000000000000000000000000000000000000000000000000000000000000000000000000000000000000000000000000000000000000000000000000000000000000000000000000000000000000000000000000000
00000000000000000000000000000000000000000000000000000000000000000000000000000000000000000000000000000000000000000000000000000000000000000000000000000000000000000000000000000000000000000000000000000000
00000000000000000000000000000000000000000000000000000000000000000000000000000000000000000000000000000000000000000000000000000000000000000000000000000000000000000000000000000000000000000000000000000000
00000000000000000000000000000000000000000000000000000000000000000000000000000000000000000000000000000000000000000000000000000000000000000000000000000000000000000000000000000000000000000000000000000000
00000000000000000000000000000000000000000000000000000000000000000000000000000000000000000000000000000000000000000000000000000000000000000000000000000000000000000000000000000000000000000000000000000000
00000000000000000000000000000000000000000000000000000000000000000000000000000000000000000000000000000000000000000000000000000000000000000000000000000000000000000000000000000000000000000000000000000000
00000000000000000000000000000000000000000000000000000000000000000000000000000000000000000000000000000000000000000000000000000000000000000000000000000000000000000000000000000000000000000000000000000000
00000000000000000000000000000000000000000000000000000000000000000000000000000000000000000000000000000000000000000000000000000000000000000000000000000000000000000000000000000000000000000000000000000000
00000000000000000000000000000000000000000000000000000000000000000000000000000000000000000000000000000000000000000000000000000000000000000000000000000000000000000000000000000000000000000000000000000000
00000000000000000000000000000000000000000000000000000000000000000000000000000000000000000000000000000000000000000000000000000000000000000000000000000000000000000000000000000000000000000000000000000000
