P1
200 72
00000000000000000000000000000000000000000000000000000000000000000000000000000000000000000000000000000000000000000000000000000000000000000000000000000000000000000000000000000000000000000000000000000000
00000000000000000000000000000000000000000000000000000000000000000000000000000000000000000000000000000000000000000000000000000000000000000000000000000000000000000000000000000000000000000000000000000000
00000000000000000000000000000000000000000000000000000000000000000000000000000000000000000000000000000000000000000000000000000000000000000000000000000000000000000000000000000000000000000000000000000000
00000000000000000000000000000000000000000000000000000000000000000000000000000000000000000000000000000000000000000000000000000000000000000000000000000000000000000000000000000000000000000000000000000000
00000000000000000000000000000000000000000000000000000000000000000000000000000000000000000000000000000000000000000000000000000000000000000000000000000000000000000000000000000000000000000000000000000000
00000000000000000000000000000000000000000000000000000000000000000000000000000000000000000000000000000000000000000000000000000000000000000000000000000000000000000000000000000000000000000000000000000000
00000000000000000000000000000000000000000000000000000000000000000000000000000000000000000000000000000000000000000000000000000000000000000000000000000000000000000000000000000000000000000000000000000000
00000000000000000000000000000000000000000000000000000000000000000000000000000000000000000000000000000000000000000000000000000000000000000000000000000000000000000000000000000000000000000000000000000000
00000000000000000000000000000000000000000000000000000000000000000000000000000000000000000000000000000000000000000000000000000000000000000000000000000000000000000000000000000000000000000000000000000000
00000000000000000000000000000000000000000000000000000000000000000000000000000000000000000000000000000000000000000000000000000000000000000000000000000000000000000000000000000000000000000000000000000000
00000000000000000000000000000000000000000000000000000000000000000000000000000000000000000000000000000000000000000000000000000000000000000000000000000000000000000000000000000000000000000000000000000000
00000000000000000000000000000000000000000000000000000000000000000000000000000000000000000000000000000000000000000000000000000000000000000000000000000000000000000000000000000000000000000000000000000000
00000000000000000000000000000000000000000000000000000000000000000000000000000000000000000000000000000000000000000000000000000000000000000000000000000000000000000000000000000000000000000000000000000000
00000000000000000000000000000000000000000000000000000000000000000000000000000000000000000000000000000000000000000000000000000000000000000000000000000000000000000000000000000000000000000000000000000000
00000000000000000000000000000000000000000000000000000000000000000000000000000000000000000000000000000000000000000000000000000000000000000000000000000000000000000000000000000000000000000000000000000000
00000000000000000000111011110111110011100111100111000000000000000000000000000000000000000000000000000000000000000000000000000000000000000000000000000000000000000010011100000000000000000000000000000000
00000000000000000001111111111111111111111111111111110000000000000000000000000111110000000000000000000000000000000000000000000000000000000000000000000000000000001111111111000000000000000000000000000000
00000000000000000001111111111111111111111111111111110000000000000000000000011111111000000000000000000000000000000000000000000000000000000000000000000000000000011111111111110000000000000000000000000000
00000000000000000001111111111111111111111111111111110000000000000000000000111111111000000000000000000000000000000000000001111110000000000000000000000000000000111111111111111000000000000000000000000000
00000000000000000001111111111111111111111111111111110000000000000000000001111111111100000000000000000000000000000000011111111111100000000000000000000000000001111111111111111100000000000000000000000000
00000000000000000001111111111111111111111111111111100000000000000000000011111111111100000000000000000000000000000001111111111111100000000000000000000000000011111111111111111110000000000000000000000000
00000000000000000011111111111111111111111111111111100000000000000000000111111111111110000000000000000000000000000111111111111111100000000000000000000000000011111111111111111110000000000000000000000000
00000000000000000011111111111111111111111111111111100000000000000000001111110000111110000000000000000000000000011111111111111111100000000000000000000000000111111111111111111111000000000000000000000000
00000000000000000111111111111111111111111111111111100000000000000000001111100000111111000000000000000000000000111111111111111111100000000000000000000000000111111111111111111111100000000000000000000000
00000000000000000111111111111111111111111111111111000000000000000000011111000000011111000000000000000000000001111111111000000111100000000000000000000000000111111111000011111111100000000000000000000000
00000000000000000111110000000000000000001111111111000000000000000000111110000000011111000000000000000000000001111111000000000000000000000000000000000000000111111110000001111111100000000000000000000000
00000000000000001111110000000000000000001111111110000000000000000000111110000000011111000000000000000000000011111100000000000000000000000000000000000000001111111110000001111111100000000000000000000000
00000000000000001111110000000000000000001111111100000000000000000001111100000000001111000000000000000000000111111000000000000000000000000000000000000000001111111100000000111111110000000000000000000000
00000000000000001111100000000000000000011111111000000000000000000001111100000000001111000000000000000000001111110000000000000000000000000000000000000000000111111110000000111111110000000000000000000000
00000000000000001111100000000000000000011111110000000000000000000001111100000000001111000000000000000000011111100000000000000000000000000000000000000000000111111110000000111111111000000000000000000000
00000000000000000111000000000000000000111111100000000000000000000001111000000000001111000000000000000000011111100000000000000000000000000000000000000000000111111110000000011111111000000000000000000000
00000000000000000000000000000000000001111111000000000000000000000011111000000000001111000000000000000000011111000000000000000000000000000000000000000000000111111110000000111111111000000000000000000000
00000000000000000000000000000000000011111110000000000000000000000011111000000000001111000000000000000000111111000000000000000000000000000000000000000000000111111111000000111111111000000000000000000000
00000000000000000000000000000000000111111100000000000000000000000011110000000000001111100000000000000001111111000000000000000000000000000000000000000000000011111111110011111111111000000000000000000000
00000000000000000000000000000000001111111100000000000000000000000111110000000000001111100000000000000001111110000111111111000000000000000000000000000000000011111111111111111111110000000000000000000000
00000000000000000000000000000000011111111100000000000000000000000111110000000000001111100000000000000001111110011111111111100000000000000000000000000000000001111111111111111111100000000000000000000000
00000000000000000000000000000000011111111000000000000000000000000111100000000000001111100000000000000001111111111111111111111000000000000000000000000000000000111111111111111111100000000000000000000000
00000000000000000000000000000000111111110000000000000000000000000111100000000000001111100000000000000011111111111111111111111000000000000000000000000000000000011111111111111111000000000000000000000000
00000000000000000000000000000001111111100000000000000000000000000111100000000000001111100000000000000011111111111111111111111100000000000000000000000000000000011111111111111110000000000000000000000000
00000000000000000000000000000001111111000000000000000000000000001111100000000000001111100000000000000111111111111110111111111100000000000000000000000000000001111111111111111111000000000000000000000000
00000000000000000000000000000011111110000000000000000000000000001111100000000000001111100000000000000111111111110000000111111110000000000000000000000000000011111111111111111111000000000000000000000000
00000000000000000000000000000111111100000000000000000000000000001111000000000000001111100000000000000111111111100000000011111111000000000000000000000000000111111111111111111111110000000000000000000000
00000000000000000000000000001111111000000000000000000000000000011111000000000000001111100000000000000111111111000000000001111111000000000000000000000000000111111111111111111111111000000000000000000000
00000000000000000000000000011111111000000000000000000000000000011111000000000000001111100000000000000111111110000000000001111111000000000000000000000000001111111110000000111111111100000000000000000000
00000000000000000000000000111111111000000000000000000000000000011111000000000000001111100000000000000111111100000000000001111111000000000000000000000000001111111100000000011111111100000000000000000000
00000000000000000000000001111111110000000000000000000000000000011111000000000000001111100000000000000111111100000000000000111111000000000000000000000000011111111100000000001111111110000000000000000000
00000000000000000000000001111111100000000000000000000000000000011111000000000000011111100000000000000111111000000000000000111111000000000000000000000000011111111100000000001111111111000000000000000000
00000000000000000000000011111111000000000000000000000000000000011111000000000000011111100000000000000111111000000000000000111110000000000000000000000000011111111100000000000111111111000000000000000000
00000000000000000000000111111110000000000000000000000000000000011111000000000000011111000000000000000111111000000000000000111110000000000000000000000000011111111100000000000111111111000000000000000000
00000000000000000000001111111100000000000000000000000000000000011111000000000000111111000000000000000111111000000000000000111111000000000000000000000000011111111100000000000111111111000000000000000000
00000000000000000000011111111000000000000000000000000000000000111111000000000000111111000000000000000111111000000000000001111111000000000000000000000000011111111100000000000111111111100000000000000000
00000000000000000000111111110000000000000000000000000000000000111111000000000000111111000000000000000111111000000000000001111110000000000000000000000000011111111110000000001111111111100000000000000000
00000000000000000000111111100000000000000000000000000000000000111111000000000000111111000000000000000111111000000000000001111110000000000000000000000000011111111111000000011111111111110000000000000000
00000000000000000001111111100000000000000000000000000000000000011111000000000000111110000000000000000111111000000000000001111110000000000000000000000000011111111111110000111111111111110000000000000000
00000000000000000011111111000000000000000000000000000000000000011111000000000001111110000000000000000011111100000000000011111100000000000000000000000000001111111111111111111111111111100000000000000000
00000000000000000011111110000000000000000000000000000000000000011111100000000011111100000000000000000011111100000000000111111100000000000000000000000000000111111111111111111111111111100000000000000000
00000000000000000111111100000000000000000000000000000000000000001111111000000111111100000000000000000011111110000000001111111000000000000000000000000000000111111111111111111111111111100000000000000000
00000000000000001111111000000000000000000000000000000000000000001111111111011111111100000000000000000001111111100000111111110000000000000000000000000000000011111111111111111111111111100000000000000000
00000000000000011111110000000000000000000000000000000000000000000111111111111111111000000000000000000001111111111111111111110000000000000000000000000000000001111111111111111111111111100000000000000000
00000000000000001111110000000000000000000000000000000000000000000011111111111111110000000000000000000000011111111111111111100000000000000000000000000000000000011111111111111111111111000000000000000000
00000000000000000001100000000000000000000000000000000000000000000001111111111111100000000000000000000000001111111111111111000000000000000000000000000000000000000111111111111111111100000000000000000000
00000000000000000000000000000000000000000000000000000000000000000000111111111111000000000000000000000000000011111111111110000000000000000000000000000000000000000000111111111111110000000000000000000000
00000000000000000000000000000000000000000000000000000000000000000000000000000000000000000000000000000000000000111111111000000000000000000000000000000000000000000000000000011100000000000000000000000000
00000000000000000000000000000000000000000000000000000000000000000000000000000000000000000000000000000000000000000000000000000000000000000000000000000000000000000000000000000000000000000000000000000000
00000000000000000000000000000000000000000000000000000000000000000000000000000000000000000000000000000000000000000000000000000000000000000000000000000000000000000000000000000000000000000000000000000000
00000000000000000000000000000000000000000000000000000000000000000000000000000000000000000000000000000000000000000000000000000000000000000000000000000000000000000000000000000000000000000000000000000000
00000000000000000000000000000000000000000000000000000000000000000000000000000000000000000000000000000000000000000000000000000000000000000000000000000000000000000000000000000000000000000000000000000000
00000000000000000000000000000000000000000000000000000000000000000000000000000000000000000000000000000000000000000000000000000000000000000000000000000000000000000000000000000000000000000000000000000000
00000000000000000000000000000000000000000000000000000000000000000000000000000000000000000000000000000000000000000000000000000000000000000000000000000000000000000000000000000000000000000000000000000000
00000000000000000000000000000000000000000000000000000000000000000000000000000000000000000000000000000000000000000000000000000000000000000000000000000000000000000000000000000000000000000000000000000000
00000000000000000000000000000000000000000000000000000000000000000000000000000000000000000000000000000000000000000000000000000000000000000000000000000000000000000000000000000000000000000000000000000000
00000000000000000000000000000000000000000000000000000000000000000000000000000000000000000000000000000000000000000000000000000000000000000000000000000000000000000000000000000000000000000000000000000000
