P1
200 72
00000000000000000000000000000000000000000000000000000000000000000000000000000000000000000000000000000000000000000000000000000000000000000000000000000000000000000000000000000000000000000000000000000000
00000000000000000000000000000000000000000000000000000000000000000000000000000000000000000000000000000000000000000000000000000000000000000000000000000000000000000000000000000000000000000000000000000000
00000000000000000000000000000000000000000000000000000000000000000000000000000000000000000000000000000000000000000000000000000000000000000000000000000000000000000000000000000000000000000000000000000000
00000000000000000000000000000000000000000000000000000000000000000000000000000000000000000000000000000000000000000000000000000000000000000000000000000000000000000000000000000000000000000000000000000000
00000000000000000000000000000000000000000000000000000000000000000000000000000000000000000000000000000000000000000000000000000000000000000000000000000000000000000000000000000000000000000000000000000000
00000000000000000000000000000000000000000000000000000000000000000000000000000000000000000000000000000000000000000000000000000000000000000000000000000000000000000000000000000000000000000000000000000000
00000000000000000000000000000000000000000000000000000000000000000000000000000000000000000000000000000000000000000000000000000000000000000000000000000000000000000000000000000000000000000000000000000000
00000000000000000000000000000000000000000000000000000000000000000000000000000000000000000000000000000000000000000000000000000000000000000000000000000000000000000000000000000000000000000000000000000000
00000000000000000000000000000000000000000000000000000000000000000000000000000000000000000000000000000000000000000000000000000000000000000000000000000000000000000000000000000000000000000000000000000000
00000000000000000000000000000000000000000000000000000000000000000000000000000000000000000000000000000000000000000000000000000000000000000000000000000000000000000000000000000000000000000000000000000000
00000000000000000000000000000000000000000000000000000000000000000000000000000000000000000000000000000000000000000000000000000000000000000000000000000000000000000000000000000000000000000000000000000000
00000000000000000000000000000000000000000000000000000000000000000000000000000000000000000000000000000000000000000000000000000000000000000000000000000000000000000000000000000000000000000000000000000000
00000000000000000000000000000000000000000000000000000000000000000000000000000000000000000000000000000000000000000000000000000000000000000000000000000000000000000000011111111100000000000000000000000000
00000000000000000000000000000000000000000000000000000000000000000000000000000000000000000000000000000000000000000000000000000000000000000000000000000000000000000001111111111110000000000000000000000000
00000000000000000000000000000000000000000000000000000000000000000000000000000000000000000000000000000000000000000000000000000000000000000000000000000000000000000011111111111111000000000000000000000000
00000000000000000000000000000000111000000000000000000000000000000000000000000000000000000000000000000000000000000000000011111110000000000000000000000000000000000111111111111111100000000000000000000000
00000000000000000000000000011111111100000000000000000000000000000000000000000000000000000000000000000000000000000000011111111111100000000000000000000000000000001111111111111111100000000000000000000000
00000000000000000000000000111111111100000000000000000000000000000000000000001110000000000000000000000000000000000001111111111111110000000000000000000000000000001111111110011111110000000000000000000000
00000000000000000000111111111111111100000000000000000000000000000000000011111111100000000000000000000000000000000011111111111111110000000000000000000000000000001111111000001111111000000000000000000000
00000000000000000001111111111111111100000000000000000000000000000000011111111111100000000000000000000000000000000111111111111111111100000000000000000000000000011111110000000111111100000000000000000000
00000000000000111111111111111111111100000000000000000000000000000001111111111111110000000000000000000000000000000111111111111111111110000000000000000000000000011111100000000111111110000000000000000000
00000000000111111111111111111111111100000000000000000000000000000011111111111111111000000000000000000000000000011111111111111111111110000000000000000000000000111111100000000011111110000000000000000000
00000000001111111111111111111111111110000000000000000000000000000111111111111111111000000000000000000000000000011111111111111111111111000000000000000000000000111111000000000011111110000000000000000000
00000000001111111111111111111111111110000000000000000000000000000111111100001111111100000000000000000000000000111111111000111111111111000000000000000000000000111111000000000001111111000000000000000000
00000000001111111111111111111111111110000000000000000000000000000111110000000111111100000000000000000000000000111111110000001111111111100000000000000000000001111111000000000001111111000000000000000000
00000000000111111111111111111111111100000000000000000000000000000111000000000011111100000000000000000000000001111111100000001111111111100000000000000000000001111111000000000000111111000000000000000000
00000000000111111111111111111111111100000000000000000000000000000000000000000011111100000000000000000000000001111111000000001111111111100000000000000000000001111110000000000000111111000000000000000000
00000000000111111111111000011111111110000000000000000000000000000000000000000011111000000000000000000000000011111111000000001111111111100000000000000000000001111110000000000000011111100000000000000000
00000000000111111100000000011111111110000000000000000000000000000000000000000011111000000000000000000000000011111111000000000111111111110000000000000000000001111110000000000000011111100000000000000000
00000000000111111000000000011111111100000000000000000000000000000000000000000011111000000000000000000000000111111111000000000111111111111000000000000000000001111110000000000000011111100000000000000000
00000000000000000000000000011111111100000000000000000000000000000000000000000011111000000000000000000000000111111111000000000011111111111000000000000000000001111110000000000000011111110000000000000000
00000000000000000000000000011111111100000000000000000000000000000000000000000111111000000000000000000000000111111111000000000011111111111000000000000000000001111110000000000000011111110000000000000000
00000000000000000000000000011111111100000000000000000000000000000000000000000111111000000000000000000000001111111111000000000011111111111000000000000000000001111110000000000000001111110000000000000000
00000000000000000000000000011111111100000000000000000000000000000000000000001111110000000000000000000000001111111111000000000011111111111000000000000000000001111110000000000000001111110000000000000000
00000000000000000000000000111111111100000000000000000000000000000000000000011111110000000000000000000000001111111111000000000001111111111000000000000000000001111110000000000000001111111000000000000000
00000000000000000000000000011111111100000000000000000000000000000000000001111111100000000000000000000000001111111111000000000001111111111100000000000000000001111110000000000000001111111000000000000000
00000000000000000000000000011111111000000000000000000000000000000001111111111111000000000000000000000000001111111111000000000001111111111100000000000000000001111110000000000000001111111000000000000000
00000000000000000000000000111111111000000000000000000000000000000011111111111110000000000000000000000000001111111111000000000001111111111000000000000000000011111110000000000000001111111000000000000000
00000000000000000000000000111111111000000000000000000000000000000011111111111111000000000000000000000000001111111111000000000001111111111000000000000000000011111110000000000000000111111000000000000000
00000000000000000000000000111111111000000000000000000000000000000011111111111111100000000000000000000000001111111111000000000001111111111000000000000000000001111111000000000000000111111000000000000000
00000000000000000000000000111111111000000000000000000000000000000011111111111111111000000000000000000000001111111111000000000000111111111000000000000000000001111111000000000000000111111100000000000000
00000000000000000000000000111111111000000000000000000000000000000000000001111111111000000000000000000000001111111111100000000001111111111000000000000000000001111111000000000000000111111100000000000000
00000000000000000000000000111111111000000000000000000000000000000000000000011111111000000000000000000000001111111111100000000001111111111000000000000000000001111111000000000000000111111100000000000000
00000000000000000000000000111111110000000000000000000000000000000000000000000111111100000000000000000000001111111111110000000011111111110000000000000000000001111111000000000000000111111110000000000000
00000000000000000000000001111111111000000000000000000000000000000000000000000111111100000000000000000000001111111111110000000011111111100000000000000000000000111111000000000000000111111110000000000000
00000000000000000000000001111111111000000000000000000000000000000000000000000011111100000000000000000000001111111111111000000111111111100000000000000000000000111111000000000000000111111110000000000000
00000000000000000000000001111111110000000000000000000000000000000000000000000011111100000000000000000000001111111111111000001111111111100000000000000000000000111111100000000000000111111110000000000000
00000000000000000000000001111111110000000000000000000000000000000000000000000011111110000000000000000000000111111111111110011111111111000000000000000000000000111111100000000000000111111110000000000000
00000000000000000000000001111111110000000000000000000000000000000000000000000011111110000000000000000000000111111111111111111111111110000000000000000000000000111111110000000000000111111110000000000000
00000000000000000000000001111111110000000000000000000000000000000000000000000011111110000000000000000000001111111111111111111111111100000000000000000000000000011111110000000000000111111110000000000000
00000000000000000000000001111111110000000000000000000000000000000000000000000011111110000000000000000000000111111111111111111111110000000000000000000000000000001111111000000000000111111110000000000000
00000000000000000000000011111111110000000000000000000000000000000000000000000011111110000000000000000000000111111111111111111111100000000000000000000000000000001111111000000000000111111110000000000000
00000000000000000000000011111111110000000000000000000000000000000000000000000011111110000000000000000000000011111111111111111111000000000000000000000000000000001111111100000000000111111110000000000000
00000000000000000000000011111111110000000000000000000001100000000000000000000011111110000000000000000000000001111111111111111110000000000000000000000000000000000111111110000000011111111110000000000000
00000000000000000000000011111111100000000000000000000001111000000000000000001111111110000000000000000000000001111111111111100000000000000000000000000000000000000011111111100001111111111110000000000000
00000000000000000000000011111111100000000000000000000011111110000000000000011111111100000000000000000000000000111111111111000000000000000000000000000000000000000001111111111111111111111110000000000000
00000000000000000000000011111111100000000000000000000011111111111000000001111111111100000000000000000000000000000111111000000000000000000000000000000000000000000000111111111111111111111100000000000000
00000000000000000000000011111111100000000000000000000011111111111111111111111111111000000000000000000000000000000000000000000000000000000000000000000000000000000000011111111111111111111000000000000000
00000000000000000000000011111111100000000000000000000001111111111111111111111111111000000000000000000000000000000000000000000000000000000000000000000000000000000000000111111111111111110000000000000000
00000000000000000000000111111111100000000000000000000000011111111111111111111111110000000000000000000000000000000000000000000000000000000000000000000000000000000000000001111111111111100000000000000000
00000000000000000000000111111111000000000000000000000000000111111111111111111111000000000000000000000000000000000000000000000000000000000000000000000000000000000000000000001111111110000000000000000000
00000000000000000000000111111111000000000000000000000000000000111111111111111110000000000000000000000000000000000000000000000000000000000000000000000000000000000000000000000000100000000000000000000000
00000000000000000000001111111111000000000000000000000000000000000000000000111000000000000000000000000000000000000000000000000000000000000000000000000000000000000000000000000000000000000000000000000000
00000000000000000000000111111111000000000000000000000000000000000000000000000000000000000000000000000000000000000000000000000000000000000000000000000000000000000000000000000000000000000000000000000000
00000000000000000000000111111000000000000000000000000000000000000000000000000000000000000000000000000000000000000000000000000000000000000000000000000000000000000000000000000000000000000000000000000000
00000000000000000000000111110000000000000000000000000000000000000000000000000000000000000000000000000000000000000000000000000000000000000000000000000000000000000000000000000000000000000000000000000000
00000000000000000000000000000000000000000000000000000000000000000000000000000000000000000000000000000000000000000000000000000000000000000000000000000000000000000000000000000000000000000000000000000000
00000000000000000000000000000000000000000000000000000000000000000000000000000000000000000000000000000000000000000000000000000000000000000000000000000000000000000000000000000000000000000000000000000000
00000000000000000000000000000000000000000000000000000000000000000000000000000000000000000000000000000000000000000000000000000000000000000000000000000000000000000000000000000000000000000000000000000000
00000000000000000000000000000000000000000000000000000000000000000000000000000000000000000000000000000000000000000000000000000000000000000000000000000000000000000000000000000000000000000000000000000000
00000000000000000000000000000000000000000000000000000000000000000000000000000000000000000000000000000000000000000000000000000000000000000000000000000000000000000000000000000000000000000000000000000000
00000000000000000000000000000000000000000000000000000000000000000000000000000000000000000000000000000000000000000000000000000000000000000000000000000000000000000000000000000000000000000000000000000000
