P1
200 72
00000000000000000000000000000000000000000000000000000000000000000000000000000000000000000000000000000000000000000000000000000000000000000000000000000000000000000000000000000000000000000000000000000000
00000000000000000000000000000000000000000000000000000000000000000000000000000000000000000000000000000000000000000000000000000000000000000000000000000000000000000000000000000000000000000000000000000000
00000000000000000000000000000000000000000000000000000000000000000000000000000000000000000000000000000000000000000000000000000000000000000000000000000000000000000000000000000000000000000000000000000000
00000000000000000000000000000000000000000000000000000000000000000000000000000000000000000000000000000000000000000000000000000000000000000000000000000000000000000000000000000000000000000000000000000000
00000000000000000000000000000000000000000000000000000000000000000000000000000000000000000000000000000000000000000000000000000000000000000000000000000000000000000000000000000000000000000000000000000000
00000000000000000000000000000000000000000000000000000000000000000000000000000000000000000000000000000000000000000000000000000000000000000000000000000000000000000000000000000000000000000000000000000000
00000000000000000000000000000000000000000000000000000000000000000000000000000000000000000000000000000000000000000000000000000000000000000000000000000000000000000000000000000000000000000000000000000000
00000000000000000000000000000000000000000000000000000000000000000000000000000000000000000000000000000000000000000000000000000000000000000000000000000000000000000000000000000000000000000000000000000000
00000000000000000000000000000000000000000000000000000000000000000000000000000000000000000000000000000000000000000000000000000000000000000000000000000000001110000000000000000000000000000000000000000000
00000000000000000000000000000000000000000000000000000000000000000000000000000000000000000000000000000000000000000000000000000000000000000000000000000001111111110000000000000000000000000000000000000000
00000000000000000000000000000000000000000000000000000000000000000000000000000000000000000000000000000000000000000000000000000000000000000000000000000011111111111000000000000000000000000000000000000000
00000000000000000000000000000000000000000000000000000000000000000000000000000000000000000000000000000000000000000000000000000000000000000000000000011111111111111000000000000000000000000000000000000000
00000000000000000000000000000000000000000000000000000000000000000000000000000000000000000000000000000000000000000000000000000000000000000000000001111111111111111100000000000000000000000000000000000000
00000000000000000000000000000000000000000000000000000000000000000000000000000000000000000000000000000000000000000000000000000000000000000000000011111111111111111100000000000000000000000000000000000000
00000000000000000000000000000000000000000000000000000000000000000000000000000000000000111100000000000000000000000000000000000000000000000000001111111111111111111110000000000000000000000000000000000000
00000000000000000000000000000000000000000000000000000000000000000000000000000000000000111111100000000000000000000000000000000000000000000000011111111111111111111110000000000000000000011111111111100000
00000000000000000000000000000000000000000000000000000000000000000000000000000000000001111111110000000000000000000000000000000000000000000001111111111111111111111110000000000000000001111111111111110000
00000000000000000000000000000000000000000000000000000000000000000000000000000000000001111111111110000000000000000000000000000000000000000111111111111000000111111110000000000000000001111111111111111000
00000000000000000111111111111111111111111111111111111000000000000000000000000000000011111111111111000000000000000000000000000000000000000111111111100000000111111100000000000000000011111111111111111100
00000000000000001111111111111111111111111111111111110000000000000000000000000000000111111111111111111100000000000000000000000000000000001111111110000000000011111100000000000000000011111111111111111100
00000000000000001111111111111111111111111111111111110000000000000000000000000000001111111111111111111111000000000000000000000000000000000111111000000000000001111100000000000000000111111111111111111110
00000000000000011111111111111111111111111111111111100000000000000000000000000000011111111111111111111111100000000000000000000000000000000111100000000000000011111100000000000000000111111111001111111110
00000000000000011111111111111111111111111111111111000000000000000000000000000000011111111111111111111111111110000000000000000000000000000111100000000000000011111100000000000000001111111100000011111110
00000000000000011111111111111111111111111111111110000000000000000000000000000000011111111111111111111111111111000000000000000000000000000110000000000000000011111100000000000000011111111000000001111110
00000000000000111111111111111111111111111111111110000000000000000000000000000000111111111111111111111111111111100000000000000000000000000000000000000000000111111100000000000000011111111000000001111111
00000000000001111111111111111111111111111111111000000000000000000000000000000001111111111111111111111111111111110000000000000000000000000000000000000000000111111000000000000000011111111000000001111111
00000000000000111111111111111111111111111111110000000000000000000000000000000011111111111100011111111111111111100000000000000000000000000000000000000000001111111000000000000000111111111000000011111111
00000000000000000000000000000011111111111111100000000000000000000000000000000011111111111000000001111111111111000000000000000000000000000000000000000000001111110000000000000000111111111000000011111111
00000000000000000000000000000011111111111111000000000000000000000000000000000111111111110000000000111111111110000000000000000000000000000000000000000000011111100000000000000000111111110000000001111111
00000000000000000000000000000111111111111110000000000000000000000000000000001111111111110000000000000111111100000000000000000000000000000000000000000000111111100000000000000000111111110000000001111111
00000000000000000000000000001111111111111100000000000000000000000000000000001111111111110000000000000000011100000000000000000000000000000000000000000001111111000000000000000000111111110000000001111111
00000000000000000000000000011111111111110000000000000000000000000000000000001111111111111111000000000000001000000000000000000000000000000000000000000011111110000000000000000000111111110000000001111111
00000000000000000000000000111111111111110000000000000000000000000000000000011111111111111111111000000000000000000000000000000000000000000000000000001111111110000000000000000000111111110000000001111111
00000000000000000000000000111111111111000000000000000000000000000000000000111111111111111111111100000000000000000000000000000000000000000000000001111111111100000000000000000000111111110000000001111111
00000000000000000000000011111111111110000000000000000000000000000000000001111111111111111111111110000000000000000000000000000000000000000000001111111111111100000000000000000000111111110000000001111111
00000000000000000000000111111111111100000000000000000000000000000000000001111111111111111111111111100000000000000000000000000000000000000000111111111111111110000000000000000000111111110000000001111111
00000000000000000000000111111111111000000000000000000000000000000000000011111111111111111111111111100000000000000000000000000000000000000000111111111111111111000000000000000000111111110000000001111111
00000000000000000000001111111111110000000000000000000000000000000000000001000000011111111111111111100000000000000000000000000000000000000000111111111111111111100000000000000000111111110000000001111111
00000000000000000000111111111111100000000000000000000000000000000000000000000000000011111111111111100000000000000000000000000000000000000001111111111111111111100000000000000000111111110000000001111111
00000000000000000001111111111111000000000000000000000000000000000000000000000000000001111111111111110000000000000000000000000000000000000001111100011111111111110000000000000000111111110000000011111111
00000000000000000011111111111110000000000000000000000000000000000000000000000000000000011111111111110000000000000000000000000000000000000001110000000000111111110000000000000000111111110000000011111111
00000000000000000111111111111100000000000000000000000000000000000000000000000000000000011111111111110000000000000000000000000000000000000000000000000000011111110000000000000000011111110000000011111111
00000000000000001111111111111000000000000000000000000000000000000000000000000000000000001111111111110000000000000000000000000000000000000000000000000000011111110000000000000000011111110000000011111111
00000000000000011111111111100000000000000000000000000000000000000000000000000000000000001111111111110000000000000000000000000000000000000000000000000000011111110000000000000000011111110000000111111111
00000000000000111111111111000000000000000000000000000000000000000110000000000000000000001111111111100000000000000000000000000000000000000000000000000000011111110000000000000000001111110000000111111111
00000000000001111111111110000000000000000000000000000000000000001111000000000000000000011111111111100000000000000000000000000000000000000000000000000000011111110000000000000000001111111000000111111111
00000000000001111111111100000000000000000000000000000000000000001111100000000000000000111111111111000000000000000000000000000000000000000000000000000000011111110000000000000000001111111100001111111110
00000000000011111111111000000000000000000000000000000000000000011111110000000000000000111111111111000000000000000000000000000000000000000000000000000000111111110000000000000000001111111111011111111110
00000000000111111111110000000000000000000000000000000000000000011111111000000000000001111111111111000000000000000000000000000000000000000000000000000000111111110000000000000000000111111111111111111110
00000000001111111111100000000000000000000000000000000000000000111111111100000000000111111111111110000000000000000000000000000000000000000000000000000000111111100000000000000000000011111111111111111110
00000000011111111111000000000000000000000000000000000000000000111111111111000000011111111111111100000000000000000000000000000000000000000000000000000000111111100000000000000000000001111111111111111100
00000000111111111110000000000000000000000000000000000000000001111111111111111111111111111111111000000000000000000000000000000000000000000000000000000001111111100000000000000000000000111111111111111100
00000001111111111100000000000000000000000000000000000000000001111111111111111111111111111111111000000000000000000000000000000000000000000000000000000111111111000000000000000000000000001111111111111000
00000001111111111000000000000000000000000000000000000000000001111111111111111111111111111111100000000000000000000000000000000000000000000000000000001111111110000000000000000000000000000111111111111000
00000011111111110000000000000000000000000000000000000000000001111111111111111111111111111111000000000000000000000000000000000000000000000000000000011111111110000000000000000000000000000001111111110000
00000111111111100000000000000000000000000000000000000000000000111111111111111111111111111111000000000000000000000000000000000000010000000000000000111111111100000000000000000000000000000000011111100000
00001111111111100000000000000000000000000000000000000000000000001111111111111111111111111100000000000000000000000000000000000000111111111111111111111111111000000000000000000000000000000000000000000000
00011111111111000000000000000000000000000000000000000000000000000111111111111111111111110000000000000000000000000000000000000001111111111111111111111111110000000000000000000000000000000000000000000000
00011111111110000000000000000000000000000000000000000000000000000001111111111111111111100000000000000000000000000000000000000001111111111111111111111111000000000000000000000000000000000000000000000000
00000000011100000000000000000000000000000000000000000000000000000000001001111111110000000000000000000000000000000000000000000001111111111111111111111110000000000000000000000000000000000000000000000000
00000000000000000000000000000000000000000000000000000000000000000000000000000000000000000000000000000000000000000000000000000001111111111111111111111000000000000000000000000000000000000000000000000000
00000000000000000000000000000000000000000000000000000000000000000000000000000000000000000000000000000000000000000000000000000000111111111111111110000000000000000000000000000000000000000000000000000000
00000000000000000000000000000000000000000000000000000000000000000000000000000000000000000000000000000000000000000000000000000000000000000110000000000000000000000000000000000000000000000000000000000000
00000000000000000000000000000000000000000000000000000000000000000000000000000000000000000000000000000000000000000000000000000000000000000000000000000000000000000000000000000000000000000000000000000000
00000000000000000000000000000000000000000000000000000000000000000000000000000000000000000000000000000000000000000000000000000000000000000000000000000000000000000000000000000000000000000000000000000000
00000000000000000000000000000000000000000000000000000000000000000000000000000000000000000000000000000000000000000000000000000000000000000000000000000000000000000000000000000000000000000000000000000000
00000000000000000000000000000000000000000000000000000000000000000000000000000000000000000000000000000000000000000000000000000000000000000000000000000000000000000000000000000000000000000000000000000000
00000000000000000000000000000000000000000000000000000000000000000000000000000000000000000000000000000000000000000000000000000000000000000000000000000000000000000000000000000000000000000000000000000000
00000000000000000000000000000000000000000000000000000000000000000000000000000000000000000000000000000000000000000000000000000000000000000000000000000000000000000000000000000000000000000000000000000000
00000000000000000000000000000000000000000000000000000000000000000000000000000000000000000000000000000000000000000000000000000000000000000000000000000000000000000000000000000000000000000000000000000000
00000000000000000000000000000000000000000000000000000000000000000000000000000000000000000000000000000000000000000000000000000000000000000000000000000000000000000000000000000000000000000000000000000000
00000000000000000000000000000000000000000000000000000000000000000000000000000000000000000000000000000000000000000000000000000000000000000000000000000000000000000000000000000000000000000000000000000000
