P1
200 72
00000000000000000000000000000000000000000000000000000000000000000000000000000000000000000000000000000000000000000000000000000000000000000000000000000000000000000000000000000000000000000000000000000000
00000000000000000000000000000000000000000000000000000000000000000000000000000000000000000000000000000000000000000000000000000000000000000000000000000000000000000000000000000000000000000000000000000000
00000000000000000000000000000000000000000000000000000000000000000000000000000000000000000000000000000000000000000000000000000000000000000000000000000000000000000000000000000000000000000000000000000000
00000000000000000000000000000000000000000000000000000000000000000000000000000000000000000000000000000000000000000000000000000000000000000000000000000000000000000000000000000000000000000000000000000000
00000000000000000000000000000000000000000000000000000000000000000000000000000000000000000000000000000000000000000000000000000000000000000000000000000000000000000000000000000000000000000000000000000000
00000000000000000000000000000000000000000000000000000000000000000000000000000000000000000000000000000000000000000000000000000000000000000000000000000000000000000000000000000000000000000000000000000000
00000000000000000000000000000000000000000000000000000000000000000000000000000000000000000000000000000000000000000000000000000000000000000000000000000000000000000000000000000000000000000000000000000000
00000000000000000000000000000000000000000000000000000000000000000000000000000000000000000000000000000000000000000000000000000000000000000000000000000000000000000000000000000000000000000000000000000000
00000000000000000000000000000000000000000000000000000000000000000000000000000000000000000000000000000000000000000000000000000000000000000000000000000000000000000000000000000000000000000000000000000000
00000000000000000000000000000000000000000000000000000000000000000000000000000000000000000000000000000000000000000000000000000000000000000000000000000000000000000000000000000000000000000000000000000000
00000000000000000000000000000000000000000000000000000000000000000000000000000000000000000000000000000000000000000000000000000000000000000000000000000000000000000000000000000000000000000000000000000000
00000000000000000000000000000000000000000000000000000000000000000000000000000000000000000000000000000000000000000000000000000000000000000000000000000000000000000000000000000000000000000000000000000000
00000000000000000000000000000001111000000011111000000111111000001100000000000000000000000000000000000000000000000000000000000000000000000000000000000000000000000000000000000000000000000000000000000000
00000000000000000000000000000111111111111111111111111111111111111111100000000000000000000000000000000000000000000000000000000000000000000000000000000000000000000000000000000000000000000000000000000000
00000000000000000000000000000111111111111111111111111111111111111111100000000000000000000000000000000000000000000000000000000000000000000000000000000000000000000000000000000000000000000000000000000000
00000000000000000000000000000111111111111111111111111111111111111111000000000000000000000000000000000000000000000000000000000000000000000000000000000000000000000000000000000000000000000000000000000000
00000000000000000000000000000111111111111111111111111111111111111111000000000000000000000000000000000000000000000000000000000000000000000000000000000000000000000000000000000000000000000000000000000000
00000000000000000000000000000111111111111111111111111111111111111111000000000000000000000000000000000000000000000000000000000000000000000000000000000000000111000111100111000000000000000000000000000000
00000000000000000000000000000111111111111111111111111111111111111110000000000000000000000000000000000000000000000011101111111000000000000000000000111111111111111111111111100000000000000000000000000000
00000000000000000000000000000111111111111111111111111111111111111110000000000000000000000000000000000000000000000111111111111110000000000000000000111111111111111111111111100000000000000000000000000000
00000000000000000000000000001111111111111111111111111111111111111110000000000000000000001111111000000000000000000111111111111111100000000000000000111111111111111111111111100000000000000000000000000000
00000000000000000000000000001111111111111111111111111111111111111100000000000000000001111111111100000000000000000111111111111111111100000000000000011111111111111111111111100000000000000000000000000000
00000000000000000000000000001111111001111111110001111111111111111100000000000000000011111111111111000000000000000111111111111111111110000000000000000000110000110001111111100000000000000000000000000000
00000000000000000000000000001111110000000000000000000001111111111000000000000000000111111111111111100000000000000111111111111111111111000000000000000000000000000000111111000000000000000000000000000000
00000000000000000000000000001111100000000000000000000001111111110000000000000000000111110000001111100000000000000011000000111111111110000000000000000000000000000000111111000000000000000000000000000000
00000000000000000000000000001111000000000000000000000001111111100000000000000000001111000000000111110000000000000000000000111111111110000000000000000000000000000000111110000000000000000000000000000000
00000000000000000000000000001111000000000000000000000011111111000000000000000000011111000000000001111000000000000000000000111111111110000000000000000000000000000001111110000000000000000000000000000000
00000000000000000000000000001111000000000000000000000111111111000000000000000000011110000000000001111100000000000000000000111111111100000000000000000000000000000001111110000000000000000000000000000000
00000000000000000000000000001111000000000000000000001111111110000000000000000000011100000000000000111100000000000000000001111111111100000000000000000000000000000001111100000000000000000000000000000000
00000000000000000000000000001000000000000000000000011111111100000000000000000000011100000000000000111100000000000000000001111111111100000000000000000000000000000011111100000000000000000000000000000000
00000000000000000000000000000000000000000000000000111111111000000000000000000000111100000000000000011100000000000000000001111111111100000000000000000000000000000011111100000000000000000000000000000000
00000000000000000000000000000000000000000000000000111111110000000000000000000000111100000000000000011100000000000000000001111111111100000000000000000000000000000011111000000000000000000000000000000000
00000000000000000000000000000000000000000000000001111111110000000000000000000000111100000000000000111100000000000000000001111111111100000000000000000000000000000111111000000000000000000000000000000000
00000000000000000000000000000000000000000000000001111111100000000000000000000000111100000000000000111100000000000000000001111111111100000000000000000000000000000111111000000000000000000000000000000000
00000000000000000000000000000000000000000000000011111111100000000000000000000000011110000000000001111100000000000000000001111111111100000000000000000000000000000111110000000000000000000000000000000000
00000000000000000000000000000000000000000000000011111111000000000000000000000000011111000000000011111000000000000000000000111111111100000000000000000000000000000111110000000000000000000000000000000000
00000000000000000000000000000000000000000000000111111110000000000000000000000000001111100000000111111000000000000000000000111111111100000000000000000000000000000111110000000000000000000000000000000000
00000000000000000000000000000000000000000000001111111100000000000000000000000000000111111111111111110000000000000000000000111111111000000000000000000000000000000111100000000000000000000000000000000000
00000000000000000000000000000000000000000000001111111000000000000000000000000000000011111111111111000000000000000000000001111111111000000000000000000000000000001111110000000000000000000000000000000000
00000000000000000000000000000000000000000000011111110000000000000000000000000000000001111111111111000000000000000000000001111111111000000000000000000000000000001111110000000000000000000000000000000000
00000000000000000000000000000000000000000000111111100000000000000000000000000000000011111111111111110000000000000000000001111111111000000000000000000000000000001111110000000000000000000000000000000000
00000000000000000000000000000000000000000000111111100000000000000000000000000000000111111100011111111000000000000000000001111111111000000000000000000000000000001111100000000000000000000000000000000000
00000000000000000000000000000000000000000001111111000000000000000000000000000000001111110000000001111100000000000000000001111111111000000000000000000000000000001111100000000000000000000000000000000000
00000000000000000000000000000000000000000011111111000000000000000000000000000000011111000000000000111110000000000000000001111111111000000000000000000000000000001111100000000000000000000000000000000000
00000000000000000000000000000000000000000011111110000000000000000000000000000000111110000000000000011111000000000000000001111111111000000000000000000000000000011111000000000000000000000000000000000000
00000000000000000000000000000000000000000111111100000000000000000000000000000001111100000000000000001111000000000000000001111111111000000000000000000000000000011111000000000000000000000000000000000000
00000000000000000000000000000000000000000111111100000000000000000000000000000001111100000000000000001111000000000000000001111111110000000000000000000000000000011111000000000000000000000000000000000000
00000000000000000000000000000000000000001111111000000000000000000000000000000011111000000000000000001111000000000000000011111111110000000000000000000000000000011111000000000000000000000000000000000000
00000000000000000000000000000000000000001111110000000000000000000000000000000011111000000000000000001111000000000000000011111111110000000000000000000000000000011111000000000000000000000000000000000000
00000000000000000000000000000000000000011111110000000000000000000000000000000011110000000000000000001111000000000000000011111111110000000000000000000000000000011111000000000000000000000000000000000000
00000000000000000000000000000000000000011111100000000000000000000000000000000011110000000000000000011111000000000000000011111111110000000000000000000000000000011111000000000000000000000000000000000000
00000000000000000000000000000000000000111111100000000000000000000000000000000011110000000000000000011110000000000000000011111111110000000000000000000000000000011111000000000000000000000000000000000000
00000000000000000000000000000000000001111111000000000000000000000000000000000111110000000000000000111110000000000000000011111111110000000000000000000000000000011111000000000000000000000000000000000000
00000000000000000000000000000000000001111110000000000000000000000000000000000111110000000000000001111100000000000000000111111111111110000000000000000000000000000000000000000000000000000000000000000000
00000000000000000000000000000000000011111110000000000000000000000000000000000011111000000000000011111000000000000001111111111111111111000000000000000000000000000000000000000000000000000000000000000000
00000000000000000000000000000000000111111100000000000000000000000000000000000011111000000000001111111000000000000001111111111111111111000000000000000000000000000000000000000000000000000000000000000000
00000000000000000000000000000000000111111100000000000000000000000000000000000011111100000000011111110000000000000011111111111111111110000000000000000000000000000000000000000000000000000000000000000000
00000000000000000000000000000000001111111000000000000000000000000000000000000011111111001111111111000000000000000011111111000110000000000000000000000000000000000000000000000000000000000000000000000000
00000000000000000000000000000000001111111000000000000000000000000000000000000001111111111111111110000000000000000000000000000000000000000000000000000000000000000000000000000000000000000000000000000000
00000000000000000000000000000000011111110000000000000000000000000000000000000000111111111111111000000000000000000000000000000000000000000000000000000000000000000000000000000000000000000000000000000000
00000000000000000000000000000000011111100000000000000000000000000000000000000000011111111111000000000000000000000000000000000000000000000000000000000000000000000000000000000000000000000000000000000000
00000000000000000000000000000000011111100000000000000000000000000000000000000000000001111000000000000000000000000000000000000000000000000000000000000000000000000000000000000000000000000000000000000000
00000000000000000000000000000000111111000000000000000000000000000000000000000000000000000000000000000000000000000000000000000000000000000000000000000000000000000000000000000000000000000000000000000000
00000000000000000000000000000000111111000000000000000000000000000000000000000000000000000000000000000000000000000000000000000000000000000000000000000000000000000000000000000000000000000000000000000000
00000000000000000000000000000000000110000000000000000000000000000000000000000000000000000000000000000000000000000000000000000000000000000000000000000000000000000000000000000000000000000000000000000000
00000000000000000000000000000000000000000000000000000000000000000000000000000000000000000000000000000000000000000000000000000000000000000000000000000000000000000000000000000000000000000000000000000000
00000000000000000000000000000000000000000000000000000000000000000000000000000000000000000000000000000000000000000000000000000000000000000000000000000000000000000000000000000000000000000000000000000000
00000000000000000000000000000000000000000000000000000000000000000000000000000000000000000000000000000000000000000000000000000000000000000000000000000000000000000000000000000000000000000000000000000000
00000000000000000000000000000000000000000000000000000000000000000000000000000000000000000000000000000000000000000000000000000000000000000000000000000000000000000000000000000000000000000000000000000000
00000000000000000000000000000000000000000000000000000000000000000000000000000000000000000000000000000000000000000000000000000000000000000000000000000000000000000000000000000000000000000000000000000000
00000000000000000000000000000000000000000000000000000000000000000000000000000000000000000000000000000000000000000000000000000000000000000000000000000000000000000000000000000000000000000000000000000000
00000000000000000000000000000000000000000000000000000000000000000000000000000000000000000000000000000000000000000000000000000000000000000000000000000000000000000000000000000000000000000000000000000000
