P1
200 72
00000000000000000000000000000000000000000000000000000000000000000000000000000000000000000000000000000000000000000000000000000000000000000000000000000000000000000000000000000000000000000000000000000000
00000000000000000000000000000000000000000000000000000000000000000000000000000000000000000000000000000000000000000000000000000000000000000000000000000000000000000000000000000000000000000000000000000000
00000000000000000000000000000000000000000000000000000000000000000000000000000000000000000000000000000000000000000000000000000000000000000000000000000000000000000000000000000000000000000000000000000000
00000000000000000000000000000000000000000000000000000000000000000000000000000000000000000000000000000000000000000000000000000000000000000000000000000000000000000000000000000000000000000000000000000000
00000000000000000000000000000000000000000000000000000000000000000000000000000000000000000000000000000000000000000000000000000000000000000000000000000000000000000000000000000000000000000000000000000000
00000000000000000000000000000000000000000000000000000000000000000000000000000000000000000000000000000000000000000000000000000000000000000000000000000000000000000000000000000000000000000000000000000000
00000000000000000000000000000000000000000000000000000000000000000000000000000000000000000000000000000000000000000000000000000000000000000000000000000000000000000000000000000000000000000000000000000000
00000000000000000000000000000000000000000000000000000000000000000000000000000000000000000000000000000000000000000000000000000000000000000000000000000000000000000000000000000000000000000000000000000000
00000000000000000000000000000000000000000000000000000000000000000000000000000000000000000000000000000000000000000000000000000000000000000000000000000000000000000000000000000000000000000000000000000000
00000000000000000000000000000000000000000000000000000000000000000000000000000000000000000000000000000000000000000000000000000000000000000000000000000000000000000000000000000000000000000000000000000000
00000000000000000000000000000000000000000000000000000000000000000000000000000000000000000000000000000000000000000000000000000000000000000000000000000000000000000000000000000000000000000000000000000000
00000000000000000000000000000000000000000000000000000000000000000000000000000000000000000000000000000000000000000000000000000000000000000000000000000000000000000000000000000000000000000000000000000000
00000000000000000000000000000000000000000000000000000000000000000000000000000000000000000000000000000000000000000000000000000000000000000000000000000000000000000000000000000000000000000000000000000000
00000000000000000000000000000000000000000000000000000000000000000000000000000000000000000000000000000000000000000000000000000000000000000000000000000000000000000000000000000000000000000000000000000000
00000000000000000000000000110010000000000000000000000000000000000000000000000000000000000000000000000000000000000000000000000000000000000000000000000000000000000000000000000000000001111000000000000000
00000000000000000000000111111111111000000000000000000000000000000000000000000000000000000000000000000000000000000000000000000001111111100000000000000000000000000000000000000000000011111000000000000000
00000000000000000000001111111111111100000000000000000000000000000000000000000000000000000000000000000000000000000000000000111111111111111000000000000000000000000000000000000000001111111000000000000000
00000000000000000000011111111111111111000000000000000000000000000000000000000000000000000000000000000000000000000000000111111111111111111100000000000000000000000000000000000000011111111000000000000000
00000000000000000000111111111111111111110000000000000000000000000000000000000000000000000000000000000000000000000000001111111111111111111110000000000000000000000000000000000011111111111000000000000000
00000000000000000000111111111111111111111000000000000000000000000000000000000000000000000000000000000000000000000000011111111111111111111111000000000000000000000000000000001111111111111000000000000000
00000000000000000001111111111111111111111100000000000000000000000000000000000000000000000000000000000000000000000000111111111111111111111111000000000000000000000000000000001111111111111000000000000000
00000000000000000001111111111111111111111110000000000000000000000000000000000000000000000000000000000000000000000000111111111111111111111111100000000000000000000000000000011111111111111000000000000000
00000000000000000011111111111111111111111111000000000000000000000000000000000000000000000000000000000000000000000001111111111111111111111111100000000000000000000000000000011111111111111000000000000000
00000000000000000011111111111110111111111111000000000000000000000000000000000000000000000000000000000000000000000001111111111100000111111111110000000000000000000000000000111111111111111000000000000000
00000000000000000011111111110000011111111111000000000000000000000000000000000000000000000000000000000000000000000011111111110000000111111111110000000000000000000000000000111111111111111000000000000000
00000000000000000011111111100000000111111111100000000000000000000000000000000000000000000000000000000000000000000001111111110000000011111111110000000000000000000000000001111111111111111000000000000000
00000000000000000111111111100000000111111111100000000000000000000000000000000000000000000010000000000000000000000001111111100000000011111111100000000000000000000000000011111111111111111000000000000000
00000000000000000111111111100000000011111111100000000000000000000000000000000000000000001111100000000000000000000000000011100000000011111111100000000000000000000000000011111111111111110000000000000000
00000000000000000011111111000000000011111111110000000000000000000000000000000000000000111111110000000000000000000000000000000000000011111111100000000000000000000000000111111111111111110000000000000000
00000000000000000011111111100000000001111111110000000000000000000000000000000000000001111111110000000000000000000000000000000000000111111111100000000000000000000000000111111101111111110000000000000000
00000000000000000011111111100000000011111111110000000000000000000000000000000000000111111111110000000000000000000000000000000000001111111111000000000000000000000000001111111001111111110000000000000000
00000000000000000011111111110000000011111111110000000000000000000000000000000000111111111111100000000000000000000000000000000000011111111111000000000000000000000000011111111001111111110000000000000000
00000000000000000011111111110000000011111111110000000000000000000000000000000001111111111111000000000000000000000000000000000000111111111110000000000000000000000000011111110001111111110000000000000000
00000000000000000011111111111000000111111111100000000000000000000000000000000111111111111110000000000000000000000000000000000000111111111100000000000000000000000000111111110001111111110000000000000000
00000000000000000001111111111111001111111111100000000000000000000000000000011111111111111100000000000000000000000000000000000011111111111000000000000000000000000000111111100001111111110000000000000000
00000000000000000000111111111111111111111111100000000000000000000000000000111111111111111100000000000000000000000000000000000111111111111000000000000000000000000001111111000001111111110000000000000000
00000000000000000000011111111111111111111111000000000000000000000000000011111111111111111100000000000000000000000000000000001111111111110000000000000000000000000011111111000001111111110000000000000000
00000000000000000000001111111111111111111110000000000000000000000000001111111110001111111000000000000000000000000000000000011111111111100000000000000000000000000111111111000001111111110000000000000000
00000000000000000000000111111111111111111100000000000000000000000000011111111100001111110000000000000000000000000000000001111111111110000000000000000000000000000111111110000001111111111000000000000000
00000000000000000000000111111111111111111100000000000000000000000001111111110000011111110000000000000000000000000000000111111111111100000000000000000000000000001111111100000011111111111000000000000000
00000000000000000000011111111111111111111110000000000000000000000111111111100000011111100000000000000000000000000000001111111111111000000000000000000000000000001111111000000011111111111000000000000000
00000000000000000000111111111111111111111111100000000000000000001111111110000000111111100000000000000000000000000000011111111111110000000000000000000000000000011111111000000011111111111011100000000000
00000000000000000001111111111111111111111111110000000000000000011111111000000000111111100000000000000000000000000000111111111111000000000000000000000000000000111111111000001111111111111111100000000000
00000000000000000011111111111111111111111111111000000000000000111111110000000001111111000000000000000000000000000000111111111110000000000000000000000000000001111111111111111111111111111111100000000000
00000000000000000011111111111000001111111111111100000000000001111111100000000001111110000000000000000000000000000001111111111100000000000000000000000000000001111111111111111111111111111111100000000000
00000000000000000011111111110000000001111111111100000000000011111111110000000011111100000000000000000000000000000011111111110000000000000000000000000000000001111111111111111111111111111111100000000000
00000000000000000111111111100000000000111111111110000000000011111111111000000111111100000000000000000000000000000111111111100000000000000000000000000000000000111111111111111111111111111111100000000000
00000000000000000111111111100000000000011111111110000000000011111111111111111111111000000000000000000000000000001111111111000000000000000000000000000000000000111111111111111111111111111111100000000000
00000000000000001111111111000000000000011111111110000000000011111111111111111111111000000000000000000000000000011111111110000000000000000000000000000000000000111111000011100011111111111100000000000000
00000000000000001111111111000000000000011111111110000000000000111111111111111111111000000000000000000000000000111111111110000000000000000000000000000000000000000000000000000011111111110000000000000000
00000000000000001111111111000000000000011111111111000000000000000111111111111111111111000000000000000000000000111111111111000111111000110000000000000000000000000000000000000011111111110000000000000000
00000000000000001111111111000000000000011111111111000000000000000000001111111111111111100000000000000000000000111111111111111111111111110000000000000000000000000000000000000011111111110000000000000000
00000000000000001111111111100000000000011111111111000000000000000000000001111111111111000000000000000000000000111111111111111111111111110000000000000000000000000000000000000011111111110000000000000000
00000000000000001111111111100000000000111111111111000000000000000000000000111111111111000000000000000000000000111111111111111111111111110000000000000000000000000000000000000011111111110000000000000000
00000000000000001111111111100000000000111111111111000000000000000000000001111111011110000000000000000000000000111111111111111111111111110000000000000000000000000000000000000011111111110000000000000000
00000000000000001111111111110000000001111111111111000000000000000000000011111100000000000000000000000000000001111111111111111111111111100000000000000000000000000000000000000000111011100000000000000000
00000000000000001111111111111000000111111111111111000000000000000000000111111100000000000000000000000000000000111111111111111111111111100000000000000000000000000000000000000000000000000000000000000000
00000000000000001111111111111111111111111111111110000000000000000000000111111000000000000000000000000000000000000011111000011111000001000000000000000000000000000000000000000000000000000000000000000000
00000000000000000111111111111111111111111111111110000000000000000000001111111000000000000000000000000000000000000000000000000000000000000000000000000000000000000000000000000000000000000000000000000000
00000000000000000111111111111111111111111111111100000000000000000000001111110000000000000000000000000000000000000000000000000000000000000000000000000000000000000000000000000000000000000000000000000000
00000000000000000111111111111111111111111111111000000000000000000000001111110000000000000000000000000000000000000000000000000000000000000000000000000000000000000000000000000000000000000000000000000000
00000000000000000011111111111111111111111111110000000000000000000000000011100000000000000000000000000000000000000000000000000000000000000000000000000000000000000000000000000000000000000000000000000000
00000000000000000001111111111111111111111111000000000000000000000000000000000000000000000000000000000000000000000000000000000000000000000000000000000000000000000000000000000000000000000000000000000000
00000000000000000000111111111111111111111110000000000000000000000000000000000000000000000000000000000000000000000000000000000000000000000000000000000000000000000000000000000000000000000000000000000000
00000000000000000000011111111111111111110000000000000000000000000000000000000000000000000000000000000000000000000000000000000000000000000000000000000000000000000000000000000000000000000000000000000000
00000000000000000000000111111111111100000000000000000000000000000000000000000000000000000000000000000000000000000000000000000000000000000000000000000000000000000000000000000000000000000000000000000000
00000000000000000000000000100000000000000000000000000000000000000000000000000000000000000000000000000000000000000000000000000000000000000000000000000000000000000000000000000000000000000000000000000000
00000000000000000000000000000000000000000000000000000000000000000000000000000000000000000000000000000000000000000000000000000000000000000000000000000000000000000000000000000000000000000000000000000000
00000000000000000000000000000000000000000000000000000000000000000000000000000000000000000000000000000000000000000000000000000000000000000000000000000000000000000000000000000000000000000000000000000000
00000000000000000000000000000000000000000000000000000000000000000000000000000000000000000000000000000000000000000000000000000000000000000000000000000000000000000000000000000000000000000000000000000000
00000000000000000000000000000000000000000000000000000000000000000000000000000000000000000000000000000000000000000000000000000000000000000000000000000000000000000000000000000000000000000000000000000000
00000000000000000000000000000000000000000000000000000000000000000000000000000000000000000000000000000000000000000000000000000000000000000000000000000000000000000000000000000000000000000000000000000000
