P1
200 72
00000000000000000000000000000000000000000000000000000000000000000000000000000000000000000000000000000000000000000000000000000000000000000000000000000000000000000000000000000000000000000000000000000000
00000000000000000000000000000000000000000000000000000000000000000000000000000000000000000000000000000000000000000000000000000000000000000000000000000000000000000000000000000000000000000000000000000000
00000000000000000000000000000000000000000000000000000000000000000000000000000000000000000000000000000000000000000000000000000000000000000000000000000000000000000000000000000000000000000000000000000000
00000000000000000000000000000000000000000000000000000000000000000000000000000000000000000000000000000000000000000000000000000000000000000000000000000000000000000000000000000000000000000000000000000000
00000000000000000000000000000000000000000000000000000000000000000000000000000000000000000000000000000000000000000000000000000000000000000000000000000000000000000000000000000000000000000000000000000000
00000000000000000000000000000000000000000000000000000000000000000000000000000000000000000000000000000000000000000000000000000000000000000000000000000000000000000000000000000000000000000000000000000000
00000000000000000000000000000000000000000000000000000000000000000000000000000000000000000000000000000000000000000000000000000000000000000000000000000000000000000000000000000000000000000000000000000000
00000000000000000000000000000000000000000000000000000000000000000000000000000000000000000000000000000000000000000000000000000000000000000000000000000000000000000000000000000000000000000000000000000000
00000000000000000000000000000000000000000000000000000000000000000000000000000000000000000000000000000000000000000000000000000000000000000000000000000000000000000000000000000000000000000000000000000000
00000000000000000000000000000000000000000000000000000000000000000000000000000000000000000000000000000000000000000000000000000000000000000000000000000000000000000000000000000000000000000000000000000000
00000000000000000000000000000000000000000000000000000000000000000000000000000000000000000000000000000000000000000000000000000000000000000000000000000000000000000000000000000000000000000000000000000000
00000000000000000000000000000000000000000000000000000000000000000000000000000000000000000000000000000000000000000000000000000000000000000000000000000000000000000000000000000000000000000000000000000000
00000000000000000000000000110000000000000000000000000000000000000000000000000000000000000000000000000000000000000000000000000000000000000000000000000000000000000000000000000000000000000000000000000000
00000000000000000000000001111111110000000000000000000000000000000000000000000000000000000000000000000000000000111111100000000000000000000000000000000000000000000000000000000000000000000000000000000000
00000000000000000001111111111111111000000000000000000000000000000000000000000000000000000000000000000000000000111111111111000000000000000000000000000000000000000000000000000000000000000000000000000000
00000000000000000111111111111111111100000000000000000000000000000000000000000000000000000000000000000000000000111111111111110000000000000000000000000000000000000000000000000000000000000000000000000000
00000000000000001111111111111111111110000000000000000000000000000000000000000000000000000000000000000000000001111111111111111111100000000000000000000000000000000000000000000000000000000000000000000000
00000000000000111111111111111111111111000000000000000000000000000000000000000000000000000000000000000000000001111111111111111111111111000000000000000000000000000000000000000000000000000000000000000000
00000000000001111111111111111111111111000000000000000000000000000000000000000000000000000000000000000000000001111111111111111111111111111110000000000000000000000000000000000000000000000000000000000000
00000000000001111111111111111111111111100000000000000000000000000000000000000000000011000000000000000000000011111111111111111111111111111111111000000000000000000000000000000000000000000000000000000000
00000000000011111111111100001111111111100000000000000000000000000000000000000000001111100000000000000000000011111100001111111111111111111111111100000000000000000000000000000000000000000000000000000000
00000000000011111111110000000111111111100000000000000000000000000000000000000000011111111100000000000000000011111000000000011111111111111111111110000000000000000000000000000000001110000000000000000000
00000000000111111111110000000111111111100000000000000000000000000000000000000000111111111110000000000000000011111000000000000000111111111111111110000000000000000000000000000001111111100000000000000000
00000000000111111111100000000011111111100000000000000000000000000000000000000011111111111110000000000000000001111000000000000000000011111111111100000000000000000000000000000111111111110000000000000000
00000000000111111111100000000011111111100000000000000000000000000000000000000111111111111100000000000000000000000000000000000000000000111111111100000000000000000000000000001111111111111000000000000000
00000000000111111111000000000011111111100000000000000000000000000000000000001111111111111100000000000000000000000000000000000000000000011111111000000000000000000000000000011111111111111100000000000000
00000000000111111111000000000011111111100000000000000000000000000000000000011111111111111000000000000000000000000000000000000000000000111111110000000000000000000000000000111111111111111100000000000000
00000000000111111111000000000011111111100000000000000000000000000000000001111111111111111000000000000000000000000000000000000000000001111111100000000000000000000000000001111111111111111110000000000000
00000000000111111111100000000111111111100000000000000000000000000000000011111111111111110000000000000000000000000000000000000000000011111110000000000000000000000000000011111111000111111100000000000000
00000000000011111111110000001111111111000000000000000000000000000000000011111110111111110000000000000000000000000000000000000000000111111100000000000000000000000000000111111100000011111110000000000000
00000000000011111111111111111111111110000000000000000000000000000000000111111100111111110000000000000000000000000000000000000000001111111000000000000000000000000000000111111000000001111110000000000000
00000000000001111111111111111111111100000000000000000000000000000000001111111000111111110000000000000000000000000000000000000000011111110000000000000000000000000000001111110000000001111110000000000000
00000000000000111111111111111111111100000000000000000000000000000000111111110000111111100000000000000000000000000000000000000000111111110000000000000000000000000000001111110000000011111100000000000000
00000000000000011111111111111111110000000000000000000000000000000000111111100001111111100000000000000000000000000000000000000001111111000000000000000000000000000000011111100000000011111100000000000000
00000000000000011111111111111111100000000000000000000000000000000001111111000001111111000000000000000000000000000000000000000011111111000000000000000000000000000000011111100000000111111000000000000000
00000000000001111111111111111111110000000000000000000000000000000011111110000001111111000000000000000000000000000000000000000111111110000000000000000000000000000000111111110000011111110000000000000000
00000000000011111111111111111111111000000000000000000000000000000111111100000001111111000000000000000000000000000000000000001111111100000000000000000000000000000000111111111111111111110000000000000000
00000000000111111111111001111111111100000000000000000000000000000111111000000011111110000000000000000000000000000000000000001111111000000000000000000000000000000000011111111111111111100000000000000000
00000000001111111111000000011111111110000000000000000000000000001111110000000011111110000000000000000000000000000000000000111111110000000000000000000000000000000000011111111111111111110000000000000000
00000000001111111110000000001111111111000000000000000000000000001111110000000011111110000000000000000000000000000000000000111111100000000000000000000000000000000000011111111111111111111000000000000000
00000000011111111110000000000111111111000000000000000000000000111111100000000011111110000000000000000000000000000000000001111110000000000000000000000000000000000000001111111111111111111000000000000000
00000000111111111100000000000111111111100000000000000000000000111111000000000111111100000000000000000000000000000000000011111110000000000000000000000000000000000000011111111111111111111100000000000000
00000000111111111000000000000011111111100000000000000000000001111110000000001111111100000000000000000000000000000000000111111100000000000000000000000000000000000000111111111101111111111100000000000000
00000000111111111000000000000011111111110000000000000000000001111110000000001111111000000000000000000000000000000000001111111000000000000000000000000000000000000000111111110000000111111110000000000000
00000000111111111000000000000011111111110000000000000000000011111100000000001111111000000000000000000000000000000000011111110000000000000000000000000000000000000001111111000000000011111110000000000000
00000000111111111000000000000011111111110000000000000000000111111000000000001111111000000000000000000000000000000000111111100000000000000000000000000000000000000111111100000000000011111100000000000000
00000000111111111100000000000011111111110000000000000000000111110000000000011111110000000000000000000000000000000001111111000000000000000000000000000000000000001111111100000000000011111100000000000000
00000000011111111110000000000011111111110000000000000000000111111000000000011111110000000000000000000000000000000011111110000000000000000000000000000000000000001111111000000000000111111100000000000000
00000000011111111110000000000111111111110000000000000000001111111111110000011111110000000000000000000000000000000111111100000000000000000000000000000000000000011111111000000000001111111100000000000000
00000000001111111111000000001111111111100000000000000000001111111111111111111111110000000000000000000000000000000111111000000000000000000000000000000000000000011111111000000000011111111000000000000000
00000000001111111111111000011111111111100000000000000000001111111111111111111111100000000000000000000000000000001111111000000000000000000000000000000000000000111111111000000001111111111000000000000000
00000000000111111111111111111111111111100000000000000000000111111111111111111111111000000000000000000000000000011111111000000000000000000000000000000000000000111111111101011111111111110000000000000000
00000000000011111111111111111111111111100000000000000000000000011111111111111111111111000000000000000000000000111111110000000000000000000000000000000000000001111111111111111111111111100000000000000000
00000000000001111111111111111111111111000000000000000000000000000001111111111111111111100000000000000000000001111111100000000000000000000000000000000000000001111111111111111111111111000000000000000000
00000000000000011111111111111111111111000000000000000000000000000000000011111111111111100000000000000000000011111111000000000000000000000000000000000000000000111111111111111111111100000000000000000000
00000000000000001111111111111111111110000000000000000000000000000000000001111111111111000000000000000000000011111110000000000000000000000000000000000000000000111111111111111111111000000000000000000000
00000000000000000011111111111111111000000000000000000000000000000000000001111111111111000000000000000000000011111100000000000000000000000000000000000000000000011111111111111111100000000000000000000000
00000000000000000000111001111111100000000000000000000000000000000000000001111110000000000000000000000000000111111000000000000000000000000000000000000000000000000111111111110000000000000000000000000000
00000000000000000000000000000000000000000000000000000000000000000000000001111100000000000000000000000000000011110000000000000000000000000000000000000000000000000000011000000000000000000000000000000000
00000000000000000000000000000000000000000000000000000000000000000000000011111100000000000000000000000000000000000000000000000000000000000000000000000000000000000000000000000000000000000000000000000000
00000000000000000000000000000000000000000000000000000000000000000000000011111100000000000000000000000000000000000000000000000000000000000000000000000000000000000000000000000000000000000000000000000000
00000000000000000000000000000000000000000000000000000000000000000000000011111100000000000000000000000000000000000000000000000000000000000000000000000000000000000000000000000000000000000000000000000000
00000000000000000000000000000000000000000000000000000000000000000011100111111100000000000000000000000000000000000000000000000000000000000000000000000000000000000000000000000000000000000000000000000000
00000000000000000000000000000000000000000000000000000000000000000111111111111100000000000000000000000000000000000000000000000000000000000000000000000000000000000000000000000000000000000000000000000000
00000000000000000000000000000000000000000000000000000000000000000111111111111111100000000000000000000000000000000000000000000000000000000000000000000000000000000000000000000000000000000000000000000000
00000000000000000000000000000000000000000000000000000000000000000111111111111111110000000000000000000000000000000000000000000000000000000000000000000000000000000000000000000000000000000000000000000000
00000000000000000000000000000000000000000000000000000000000000000000011111111111110000000000000000000000000000000000000000000000000000000000000000000000000000000000000000000000000000000000000000000000
00000000000000000000000000000000000000000000000000000000000000000000000001111111110000000000000000000000000000000000000000000000000000000000000000000000000000000000000000000000000000000000000000000000
00000000000000000000000000000000000000000000000000000000000000000000000000000011000000000000000000000000000000000000000000000000000000000000000000000000000000000000000000000000000000000000000000000000
00000000000000000000000000000000000000000000000000000000000000000000000000000000000000000000000000000000000000000000000000000000000000000000000000000000000000000000000000000000000000000000000000000000
00000000000000000000000000000000000000000000000000000000000000000000000000000000000000000000000000000000000000000000000000000000000000000000000000000000000000000000000000000000000000000000000000000000
00000000000000000000000000000000000000000000000000000000000000000000000000000000000000000000000000000000000000000000000000000000000000000000000000000000000000000000000000000000000000000000000000000000
