P1
200 72
00000000000000000000000000000000000000000000000000000000000000000000000000000000000000000000000000000000000000000000000000000000000000000000000000000000000000000000000000000000000000000000000000000000
00000000000000000000000000000000000000000000000000000000000000000000000000000000000000000000000000000000000000000000000000000000000000000000000000000000000000000000000000000000000000000000000000000000
00000000000000000000000000000000000000000000000000000000000000000000000000000000000000000000000000000000000000000000000000000000000000000000000000000000000000000000000000000000000000000000000000000000
00000000000000000000000000000000000000000000000000000000000000000000000000000000000000000000000000000000000000000000000000000000000000000000000000000000000000000000000000000000000000000000000000000000
00000000000000000000000000000000000000000000000000000000000000000000000000000000000000000000000000000000000000000000000000000000000000000000000000000000000000000000000000000000000000000000000000000000
00000000000000000000000000000000000000000000000000000000000000000000000000000000000000000000000000000000000000000000000000000000000000000000000000000000000000000000000000000000000000000000000000000000
00000000000000000000000000000000000000000000000000000000000000000000000000000000000000000000000000000000000000000000000000000000000000000000000000000000000000000000000000000000000000000000000000000000
00000000000000000000000000000000000000000000000000000000000000000000000000000000000000000000000000000000000000000000000000000000000000000000000000000000000000000000000000000000000000000000000000000000
00000000000000000000000000000000000000000000000000000000000000000000000000000000000000000000000000000000000000000000000000000000000000000000000000000000000000000000000000000000000000000000000000000000
00000000000000000000000000000000000000000000000000000000000000000000000000000000000000000000000000000000000000000000000000000000000000000000000000000000000000000000000000000000000000000000000000000000
00000000000000000000000000000000000000000000000000000000000000000000000000000000000000000000000000000000000000000000000000000000000000000000000000000000000000000000000000000000000000000000000000000000
00000000000000000000000000000000000000000000000000000000000000000000000000000000000000000000000000000000000000000000000000000000000000000000000000000000000000000000000000000000000000000000000000000000
00000000000000000000000000000000000000000000000000000000000000000000000000000000000000000000000000000000000000000000000000000000000000000000000000000000000000000000000000000000000000000000000000000000
00000000000000000000000000000000000000000000000000000000000000000000000000000000000000000000000000000000000000000000000000000000000000000000000000000000000000000000000000000000000000000000000000000000
00000000000000000000000000000000000000011111111110000000000000000000000000000000000000000000000000000000000000000000000000000000000000000000000000000000000000000000000000000000000000000000000000000000
00000000000000000000000000000000000000111111111111100000000000000000000000000000000000000000000000000000000000000000000000000000000000000000000000000000000000000000000000000000000000000000000000000000
00000000000000000000000000000000000001111111111111110000000000000000000000000000010000000000000000000000000000000000000000000000000000000000000000000001110000000000000000000000000000000000000000000000
00000000000000000000000000000000000111111111111111111000000000000000000000000001111111100000000000000000000000000000000000000000000000000000000000000011111111100000000000000000000000000000000000000000
00000000000000000000000000000000001111111111111111111100000000000000000000000111111111111110000000000000000000000000000000000000000000000000000000000111111111110000000000000000000000000000000000000000
00000000000000000000000000000000001111111111111111111110000000000000000000001111111111111111100000000000000000000000000000111000000000000000000000001111111111111000000000000000000000000000000000000000
00000000000000000000000000000000011111111100000111111110000000000000000000011111111111111111110000000000000000000000000011111000000000000000000000011111111111111100000000000000000000000000000000000000
00000000000000000000000000000000111111111000000011111111000000000000000000111111111111111111110000000000000000000000001111111000000000000000000000011111111111111100000000000000000000000000000000000000
00000000000000000000000000000000111111110000000001111111000000000000000000111111110000011111110000000000000000000000011111111000000000000000000000011111111111111110000000000000000000000000000000000000
00000000000000000000000000000000111111100000000001111111000000000000000000111111100000000011110000000000000000000000111111111000000000000000000000011111110011111110000000000000000000000000000000000000
00000000000000000000000000000000111111100000000000111111100000000000000000111111000000000001110000000000000000000001111111111000000000000000000000011111100001111110000000000000000000000000000000000000
00000000000000000000000000000000111111100000000000111111100000000000000001111110000000000000110000000000000000000011111111111000000000000000000000011111000001111111000000000000000000000000000000000000
00000000000000000000000000000000111111000000000000111111100000000000000001111110000000000000000000000000000000000111111111110000000000000000000000111111000000111111000000000000000000000000000000000000
00000000000000000000000000000000111111000000000000111111100000000000000001111110000000000000000000000000000000001111111111110000000000000000000000111111000000111111000000000000000000000000000000000000
00000000000000000000000000000000111111000000000000111111100000000000000011111100000000000000000000000000000000111111001111110000000000000000000000111111000000111111000000000000000000000000000000000000
00000000000000000000000000000000111111100000000000111111100000000000000011111100000000000000000000000000000000111110001111110000000000000000000000111111000000111111000000000000000000000000000000000000
00000000000000000000000000000000011111110000000001111111100000000000000011111100000000000000000000000000000000111110001111111000000000000000000000011111000000011111000000000000000000000000000000000000
00000000000000000000000000000000011111111000000011111111000000000000000011111100111111000000000000000000000000111000001111111000000000000000000000011111000000011111100000000000000000000000000000000000
00000000000000000000000000000000011111111110000111111111000000000000000011111101111111111100000000000000000000110000001111111000000000000000000000011111000000011111100000000000000000000000000000000000
00000000000000000000000000000000001111111111111111111110000000000000000011111111111111111110000000000000000000000000001111111000000000000000000000011111100000011111100000000000000000000000000000000000
00000000000000000000000000000000000111111111111111111110000000000000000011111111111111111111000000000000000000000000001111111000000000000000000000011111100000111111100000000000000000000000000000000000
00000000000000000000000000000000000011111111111111110000000000000000000011111111111111111111100000000000000000000000001111111000000000000000000000011111110000111111100000000000000000000000000000000000
00000000000000000000000000000000001111111111111111100000000000000000000011111111110000111111110000000000000000000000001111111000000000000000000000011111110000111111100000000000000000000000000000000000
00000000000000000000000000000000111111111111111111110000000000000000000011111111000000000111111000000000000000000000000111110000000000000000000000001111111001111111100000000000000000000000000000000000
00000000000000000000000000000001111111111111111111111000000000000000000011111111000000000011111000000000000000000000000111110000000000000000000000001111111111111111100000000000000000000000000000000000
00000000000000000000000000000001111111110001111111111100000000000000000011111110000000000001111100000000000000000000001111110000000000000000000000000111111111111111100000000000000000000000000000000000
00000000000000000000000000000011111111100000000111111110000000000000000011111110000000000001111100000000000000000000001111110000000000000000000000000111111111111111100000000000000000000000000000000000
00000000000000000000000000000111111110000000000011111111000000000000000011111110000000000001111110000000000000000000001111111000000000000000000000000111111111111111100000000000000000000000000000000000
00000000000000000000000000000111111100000000000001111111000000000000000001111100000000000000111110000000000000000000001111111000000000000000000000000011111111111111100000000000000000000000000000000000
00000000000000000000000000001111111100000000000000111111100000000000000001111100000000000000111111000000000000000000001111111000000000000000000000000001111111111111100000000000000000000000000000000000
00000000000000000000000000001111111000000000000000111111100000000000000001111110000000000000111111000000000000000000001111111000000000000000000000000000111111111111110000000000000000000000000000000000
00000000000000000000000000001111111000000000000000011111110000000000000001111110000000000000111111000000000000000000001111111000000000000000000000000000000000011111110000000000000000000000000000000000
00000000000000000000000000001111111000000000000000011111111000000000000001111110000000000000111111000000000000000000001111111000000000000000000000000000000000011111110000000000000000000000000000000000
00000000000000000000000000001111111000000000000000001111111000000000000001111110000000000000111111000000000000000000001111111000000000000000000000000111000000001111100000000000000000000000000000000000
00000000000000000000000000001111111000000000000000011111111000000000000001111111000000000000111111000000000000000000000111111000000000000000000000011111100000011111100000000000000000000000000000000000
00000000000000000000000000001111111000000000000000011111111000000000000000111111000000000000111111000000000000000000000111110000000000000000000000011111100000011111100000000000000000000000000000000000
00000000000000000000000000001111111100000000000000011111111000000000000000111111100000000001111111000000000000000000001111110000000000000000000000011111110000011111100000000000000000000000000000000000
00000000000000000000000000001111111110000000000000011111111100000000000000011111100000000001111111000000000000000000001111111000000000000000000000001111110000111111100000000000000000000000000000000000
00000000000000000000000000000111111111000000000000011111111100000000000000001111110000000011111111000000000000000000001111111000000000000000000000001111111001111111100000000000000000000000000000000000
00000000000000000000000000000011111111100000000000111111111000000000000000000111111110001111111111000000000000000000001111111000000000000000000000001111111111111111100000000000000000000000000000000000
00000000000000000000000000000011111111111100000011111111111000000000000000000111111111111111111110000000000000000000001111111000000000000000000000000111111111111111000000000000000000000000000000000000
00000000000000000000000000000001111111111111111111111111111000000000000000000001111111111111111110000000000000000000001111111000000000000000000000000111111111111111000000000000000000000000000000000000
00000000000000000000000000000000111111111111111111111111111000000000000000000000111111111111111100000000000000000000001111111000000000000000000000000011111111111111000000000000000000000000000000000000
00000000000000000000000000000000001111111111111111111111110000000000000000000000011111111111111000000000000000000000001111111000000000000000000000000001111111111110000000000000000000000000000000000000
00000000000000000000000000000000000111111111111111111111110000000000000000000000000001111111100000000000000000000000001111111000000000000000000000000000111111111110000000000000000000000000000000000000
00000000000000000000000000000000000001111111111111111111100000000000000000000000000000000000000000000000000000011111111111111000000000000000000000000000011111111100000000000000000000000000000000000000
00000000000000000000000000000000000000011111111111111111000000000000000000000000000000000000000000000000000000011111111111111111111000000000000000000000000111111000000000000000000000000000000000000000
00000000000000000000000000000000000000000000001111110000000000000000000000000000000000000000000000000000000000011111111111111111111100000000000000000000000000000000000000000000000000000000000000000000
00000000000000000000000000000000000000000000000000000000000000000000000000000000000000000000000000000000000000001111111111111111111100000000000000000000000000000000000000000000000000000000000000000000
00000000000000000000000000000000000000000000000000000000000000000000000000000000000000000000000000000000000000000000000001111111111100000000000000000000000000000000000000000000000000000000000000000000
00000000000000000000000000000000000000000000000000000000000000000000000000000000000000000000000000000000000000000000000000000011111100000000000000000000000000000000000000000000000000000000000000000000
00000000000000000000000000000000000000000000000000000000000000000000000000000000000000000000000000000000000000000000000000000000000000000000000000000000000000000000000000000000000000000000000000000000
00000000000000000000000000000000000000000000000000000000000000000000000000000000000000000000000000000000000000000000000000000000000000000000000000000000000000000000000000000000000000000000000000000000
00000000000000000000000000000000000000000000000000000000000000000000000000000000000000000000000000000000000000000000000000000000000000000000000000000000000000000000000000000000000000000000000000000000
00000000000000000000000000000000000000000000000000000000000000000000000000000000000000000000000000000000000000000000000000000000000000000000000000000000000000000000000000000000000000000000000000000000
00000000000000000000000000000000000000000000000000000000000000000000000000000000000000000000000000000000000000000000000000000000000000000000000000000000000000000000000000000000000000000000000000000000
00000000000000000000000000000000000000000000000000000000000000000000000000000000000000000000000000000000000000000000000000000000000000000000000000000000000000000000000000000000000000000000000000000000
00000000000000000000000000000000000000000000000000000000000000000000000000000000000000000000000000000000000000000000000000000000000000000000000000000000000000000000000000000000000000000000000000000000
