P1
200 72
00000000000000000000000000000000000000000000000000000000000000000000000000000000000000000000000000000000000000000000000000000000000000000000000000000000000000000000000000000000000000000000000000000000
00000000000000000000000000000000000000000000000000000000000000000000000000000000000000000000000000000000000000000000000000000000000000000000000000000000000000000000000000000000000000000000000000000000
00000000000000000000000000000000000000000000000000000000000000000000000000000000000000000000000000000000000000000000000000000000000000000000000000000000000000000000000000000000000000000000000000000000
00000000000000000000000000000000000000000000000000000000000000000000000000000000000000000000000000000000000000000000000000000000000000000000000000000000000000000000000000000000000000000000000000000000
00000000000000000000000000000000000000000000000000000000000000000000000000000000000000000000000000000000000000000000000000000000000000000000000000000000000000000000000000000000000000000000000000000000
00000000000000000000000000000000000000000000000000000000000000000000000000000000000000000000000000000000000000000000000000000000000000000000000000000000000000000000000000000000000000000000000000000000
00000000000000000000000000000000000000000000000000000000000000000000000000000000000000000000000000000000000000000000000000000000000000000000000000000000000000000000000000000000000000000000000000000000
00000000000000000000000000000000000000000000000000000000000000000000000000000000000000000000000000000000000000000000000000000000000000000000000000000000000000000000000000000000000000000000000000000000
00000000000000000000000000000000000000000000000000000000000000000000000000000000000000000000000000000000000000000000000000000000000000000000000000000000000000000000000000000000000000000000000000000000
00000000000000000000000000000000000000000000000000000000000000000000000000000000000000000000000000000000000000000000000000000000000000000000000000000000000000000000000000000000000000000000000000000000
00000000000000000000000000000000000000000000000000000000000000000000000000000000000000000000000000000000000000000000000000000000000000000000000000000000000000000000000000000000000000000000000000000000
00000000000000000000000000000000000000000000000000000000000000000000000000000000000000000000000000000000000000000000000000000000000000000000000000000000000000000000000000000000000000000000000000000000
00000000000000000000000000000000000000000000000000000000000000000000000000000000000000000000000000000000000000000000000000000000000000000000000000000000000000000000000000000000000000000000000000000000
00000000000000000000000000000000000000000000000000000000000000000000000000000000000000000000000000000000000000000000000000000000000000000000000000000000000000000000000000000000000000000000000000000000
00000000000000000000000000000000000000000000000000000000000000000000000000000000000000000110000000000000000000000000001000000000000000000000000000000000000000000000000000000000000000000000000000000000
00000000000000000000000000000000000000000000000000000000000000000000000000000000000111111111111000000000000000000000011111000000000000000000000000000000000000000000000000000000000000000000000000000000
00000000000000000000000000000000111111100000000000000000000000000000000000000000111111111111111000000000000000000000111111110000000000000000000000000000000000000000000000000000000000000000000000000000
00000000000000000000000000000011111111110000000000000000000000000000000000011111111111111111100000000000000000000000111111110000000000000000000000000000000000000000000000000011101110000000000000000000
00000000000000000000000000011111111111111000000000000000000000000000000000111111111111111000000000000000000000000001111111110000000000000000000000000000000000000000000000001111111111000000000000000000
00000000000000000000000000111111111111111100000000000000000000000000000001111111111111000000000000000000000000000001111111110000000000000000000000000000000000000000000001111111111111000000000000000000
00000000000000000000000000111111111111111100000000000000000000000000000111111111111000000000000000000000000000000011111111110000000000000000000000000000000000000000000011111111111110000000000000000000
00000000000000000000000001111100011111111100000000000000000000000000001111111111110000000000000000000000000000000111111111110000000000000000000000000000000000000000001111111111111110000000000000000000
00000000000000000000000011111100001111111100000000000000000000000000011111111111100000000000000000000000000000000111111111110000000000000000000000000000000000000000111111111111111100000000000000000000
00000000000000000000000111111000001111111100000000000000000000000000111111111111000000000000000000000000000000000111111111110000000000000000000000000000000000000011111111111111111100000000000000000000
00000000000000000000000111111100001111111100000000000000000000000001111111111110000000000000000000000000000000001111111111110000000000000000000000000000000000000111111111111111111000000000000000000000
00000000000000000000001111111000001111111100000000000000000000000001111111111100000000000000000000000000000000011111100111110000000000000000000000000000000000000111111111111111111000000000000000000000
00000000000000000000001111111000001111111000000000000000000000000001111111111100000000000000000000000000000000011111000111110000000000000000000000000000000000001111100011111111111000000000000000000000
00000000000000000000001111111000001111111000000000000000000000000011111111111100000000000000000000000000000000111111000111110000000000000000000000000000000000011110000111111111110000000000000000000000
00000000000000000000011111111000001111111000000000000000000000000011111111111000000000000000000000000000000001111111000111110000000000000000000000000000000000000000000111111111100000000000000000000000
00000000000000000000011111111000001111110000000000000000000000000011111111111000000000000000000000000000000001111110000111110000000000000000000000000000000000000000000111111111100000000000000000000000
00000000000000000000011111111000001111110000000000000000000000000011111111111111111000000000000000000000000011111100000111110000000000000000000000000000000000000000001111111111100000000000000000000000
00000000000000000000011111111000001111100000000000000000000000000111111111111111111100000000000000000000000111111100000111110000000000000000000000000000000000000000011111111111000000000000000000000000
00000000000000000000011111111000011111100000000000000000000000000111111111111111111100000000000000000000000111111000000111110000000000000000000000000000000000000000011111111111000000000000000000000000
00000000000000000000011111111100011111100000000000000000000000000011111111100111111111000000000000000000001111110000001111111000000000000000000000000000000000000000011111111110000000000000000000000000
00000000000000000000011111111111111111110000000000000000000000000011111111100011111111100000000000000000011111110000001111111000000000000000000000000000000000000000011111111110000000000000000000000000
00000000000000000000011111111111111111111000000000000000000000000011111111100001111111100000000000000000111111100000001111111000000000000000000000000000000000000000111111111110000000000000000000000000
00000000000000000000001111111111111111111100000000000000000000000011111111100000111111100000000000000000111111100000000111110000000000000000000000000000000000000001111111111100000000000000000000000000
00000000000000000000001111111111111111111100000000000000000000000011111111100000111111100000000000000001111110000000000111110000000000000000000000000000000000000001111111111100000000000000000000000000
00000000000000000000000111111111111111111100000000000000000000000111111111100000111111100000000000000001111110000000000111110000000000000000000000000000000000000001111111111000000000000000000000000000
00000000000000000000000111111111001111111110000000000000000000000111111111100000111111110000000000000011111100000000000111111000000000000000000000000000000000000011111111110000000000000000000000000000
00000000000000000000000001111110000111111110000000000000000000000011111111100000111111110000000000000011111100000000000111111000000000000000000000000000000000000111111111110000000000000000000000000000
00000000000000000000000001111100000111111110000000000000000000000011111111100000111111110000000000000011111110000000000111111000000000000000000000000000000000000111111111110000000000000000000000000000
00000000000000000000000011111000000111111110000000000000000000000011111111100000111111110000000000000011111111111000000111111000000000000000000000000000000000000111111111100000000000000000000000000000
00000000000000000000000011111000000111111110000000000000000000000001111111000000111111110000000000000011111111111111101111111000000000000000000000000000000000001111111111100000000000000000000000000000
00000000000000000000000111111000000111111110000000000000000000000001111111000000111111100000000000000011111111111111111111111000000000000000000000000000000000011111111111000000000000000000000000000000
00000000000000000000000111111000000111111110000000000000000000000001111111000000111111100000000000000011111111111111111111111000000000000000000000000000000000011111111111000000000000000000000000000000
00000000000000000000000111111000000111111100000000000000000000000001111111000000111111100000000000000000011111111111111111111111000000000000000000000000000000011111111111000000000000000000000000000000
00000000000000000000001111111000000111111100000000000000000000000001111111000001111111100000000000000000000001111111111111111111110000000000000000000000000000111111111110000000000000000000000000000000
00000000000000000000001111111000000111111100000000000000000000000000111111000001111111100000000000000000000000111111111111111111111000000000000000000000000001111111111100000000000000000000000000000000
00000000000000000000001111111000000111111000000000000000000000000000111111000001111111000000000000000000000000000001111111111111111000000000000000000000000001111111111100000000000000000000000000000000
00000000000000000000001111111000000111111000000000000000000000000000011111100001111111000000000000000000000000000000001111111111111000000000000000000000000001111111111100000000000000000000000000000000
00000000000000000000011111111000000111110000000000000000000000000000011111100011111110000000000000000000000000000000000111111111111100000000000000000000000011111111111000000000000000000000000000000000
00000000000000000000011111111000000111110000000000000000000000000000001111100011111110000000000000000000000000000000000111111111111100000000000000000000000011111111110000000000000000000000000000000000
00000000000000000000011111111000001111100000000000000000000000000000000111100011111100000000000000000000000000000000000111111100000000000000000000000000000111111111110000000000000000000000000000000000
00000000000000000000001111111100011111000000000000000000000000000000000111110111111000000000000000000000000000000000000111111100000000000000000000000000000111111111110000000000000000000000000000000000
00000000000000000000001111111100011111000000000000000000000000000000000001111111110000000000000000000000000000000000000111111100000000000000000000000000001111111111100000000000000000000000000000000000
00000000000000000000001111111111111110000000000000000000000000000000000000111111110000000000000000000000000000000000000111111100000000000000000000000000011111111111100000000000000000000000000000000000
00000000000000000000001111111111111000000000000000000000000000000000000000000111100000000000000000000000000000000000000111111100000000000000000001111111111111111111000000000000000000000000000000000000
00000000000000000000001111111111110000000000000000000000000000000000000000000000000000000000000000000000000000000000000111111100000000000000000011111111111111111111111000000000000000000000000000000000
00000000000000000000000111111111100000000000000000000000000000000000000000000000000000000000000000000000000000000000000111111100000000000000000011111111111111111111111111100000000000000000000000000000
00000000000000000000000111111110000000000000000000000000000000000000000000000000000000000000000000000000000000000000000011111100000000000000000001111111111111111111111111000000000000000000000000000000
00000000000000000000000011111100000000000000000000000000000000000000000000000000000000000000000000000000000000000000000001111110000000000000000000000001110111111111111111000000000000000000000000000000
00000000000000000000000001000000000000000000000000000000000000000000000000000000000000000000000000000000000000000000000000011110000000000000000000000000000000000001111111000000000000000000000000000000
00000000000000000000000000000000000000000000000000000000000000000000000000000000000000000000000000000000000000000000000000000000000000000000000000000000000000000000000000000000000000000000000000000000
00000000000000000000000000000000000000000000000000000000000000000000000000000000000000000000000000000000000000000000000000000000000000000000000000000000000000000000000000000000000000000000000000000000
00000000000000000000000000000000000000000000000000000000000000000000000000000000000000000000000000000000000000000000000000000000000000000000000000000000000000000000000000000000000000000000000000000000
00000000000000000000000000000000000000000000000000000000000000000000000000000000000000000000000000000000000000000000000000000000000000000000000000000000000000000000000000000000000000000000000000000000
00000000000000000000000000000000000000000000000000000000000000000000000000000000000000000000000000000000000000000000000000000000000000000000000000000000000000000000000000000000000000000000000000000000
00000000000000000000000000000000000000000000000000000000000000000000000000000000000000000000000000000000000000000000000000000000000000000000000000000000000000000000000000000000000000000000000000000000
00000000000000000000000000000000000000000000000000000000000000000000000000000000000000000000000000000000000000000000000000000000000000000000000000000000000000000000000000000000000000000000000000000000
00000000000000000000000000000000000000000000000000000000000000000000000000000000000000000000000000000000000000000000000000000000000000000000000000000000000000000000000000000000000000000000000000000000
00000000000000000000000000000000000000000000000000000000000000000000000000000000000000000000000000000000000000000000000000000000000000000000000000000000000000000000000000000000000000000000000000000000
