P1
200 72
00000000000000000000000000000000000000000000000000000000000000000000000000000000000000000000000000000000000000000000000000000000000000000000000000000000000000000000000000000000000000000000000000000000
00000000000000000000000000000000000000000000000000000000000000000000000000000000000000000000000000000000000000000000000000000000000000000000000000000000000000000000000000000000000000000000000000000000
00000000000000000000000000000000000000000000000000000000000000000000000000000000000000000000000000000000000000000000000000000000000000000000000000000000000000000000000000000000000000000000000000000000
00000000000000000000000000000000000000000000000000000000000000000000000000000000000000000000000000000000000000000000000000000000000000000000000000000000000000000000000000000000000000000000000000000000
00000000000000000000000000000000000000000000000000000000000000000000000000000000000000000000000000000000000000000000000000000000000000000000000000000000000000000000000000000000000000000000000000000000
00000000000000000000000000000000000000000000000000000000000000000000000000000000000000000000000000000000000000000000000000000000000000000000000000000000000000000000000000000000000000000000000000000000
00000000000000000000000000000000000000000000000000000000000000000000000000000000000000000000000111000000000000000000000000000000000000000000000000000000000000000000000000000000000000000000000000000000
00000000000000000000000000000000000000000000000000000000000000000000000000000000000000000000011111000000000000000000000000000000000000000000000000000000000000000000000000000000000000000000000000000000
00000000000000000000000000000000000000000000000000000000000000000000000000000000000000000011111111000000000000000000000000000000000000000000000000000000000000000000000000000000000000000000000000000000
00000000000000000000000000000000000000000000000000000000000000000000000000000000000000001111111111000000000000000000000000000000000000000000000000000000000000000000000000000000000000000000000000000000
00000000000000000000000000000000000000000000000000000000000000000000000000000000000000111111111110000000000000000000000000000000000000000000000000000000000000000000000000000000000000000000000000000000
00000000000000000000000000000000000000000000000000000000000000000000000000000000000111111111111110000000000000000000000000000000000000000000000000000000000000000000000000000000000000000000000000000000
00000000000000000000000000000000000000000000000000000000000000000000000000000000001111111111111110000000000000000000000000000000000000000000000000000000000000000000000000000000000000000000000000000000
00000000000000000000000000000000000000000000000000000000000000000000000000000000111111111111111100000000000000000000000000000000000000000000000000000000000000000000000000000000000000000000000000000000
00000000000000000000000000000000000000000000000000000000000000000000000000000111111111111111111100000000000000000000000000000000000000000000000000000000000000000000000000000000000000000000000000000000
00000000000000000000000000000000000000000000000000000000000000000000000000011111111111110111111100000000000000001100111110000000000000000000000001111111000111000000000000000000000000000000000000000000
00000000000000000000000000000000000000000000000000000000000000000000000000111111111111000111111000000000000000011111111111110000000000000000000001111111111111111111111111110011111100000000000000000000
00000000000000000000000000000100000000000000000000000000000000000000000111111111111000000111111000000000000000111111111111111110000000000000000001111111111111111111111111111111111100000000000000000000
00000000000000000000000000111111000000000000000000000000000000000000001111111111100000001111111000000000000000111111111111111111000000000000000000111111111111111111111111111111111110000000000000000000
00000000000000000000000001111111110000000000000000000000000000000000011111111110000000001111110000000000000000011111110001111111100000000000000000111111111111111111111111111111111110000000000000000000
00000000000000000000000001111111111000000000000000000000000000000000011111111000000000011111110000000000000000011100000000011111100000000000000000011111111111111111111111111111111110000000000000000000
00000000000000000000000011111111111100000000000000000000000000000000011111000000000000011111110000000000000000011100000000001111110000000000000000011111111111111111111111111111111100000000000000000000
00000000000000000000000011111111111111000000000000000000000000000000011110000000000000111111100000000000000000011100000000000111111000000000000000011111111111111111111111111111111100000000000000000000
00000000000000000000000011111100011111000000000000000000000000000000011000000000000000111111100000000000000000011100000000000111111000000000000000001111111111111111111111111111111000000000000000000000
00000000000000000000000011111100001111100000000000000000000000000000000000000000000001111111000000000000000000011000000000000111111000000000000000000011110000001111000111111111111000000000000000000000
00000000000000000000000011111000000011100000000000000000000000000000000000000000000001111111000000000000000000000000000000000011111100000000000000000000000000000000000111111111110000000000000000000000
00000000000000000000000011111000000011110000000000000000000000000000000000000000000001111110000000000000000000000000000000000011111100000000000000000000000000000000000111111111110000000000000000000000
00000000000000000000000011111000000011111000000000000000000000000000000000000000000001111110000000000000000000000000000000000011111100000000000000000000000000000000000111111111100000000000000000000000
00000000000000000000000011111000000001111000000000000000000000000000000000000000000011111100000000000000000000000000000000000011111100000000000000000000000000000000000111111111100000000000000000000000
00000000000000000000000011111000000001111100000000000000000000000000000000000000000011111100000000000000000000000000000000000011111100000000000000000000000000000000001111111111100000000000000000000000
00000000000000000000000001111000000001111100000000000000000000000000000000000000000111111100000000000000000000000000000000000011111100000000000000000000000000000000001111111111100000000000000000000000
00000000000000000000000001111000000000111100000000000000000000000000000000000000000111111000000000000000000000000000000000000111111100000000000000000000000000000000011111111111000000000000000000000000
00000000000000000000000001111000000000111110000000000000000000000000000000000000001111111000000000000000000000000000000000001111111100000000000000000000000000000000011111111111000000000000000000000000
00000000000000000000000000111000000000111110000000000000000000000000000000000000001111111000000000000000000000000000001111111111111000000000000000000000000000000000011111111110000000000000000000000000
00000000000000000000000000111100000000111110000000000000000000000000000000000000001111110000000000000000000000000000011111111111110000000000000000000000000000000000011111111110000000000000000000000000
00000000000000000000000000111100000000111110000000000000000000000000000000000000011111110000000000000000000000000000011111111111100000000000000000000000000000000000011111111100000000000000000000000000
00000000000000000000000000111110000001111100000000000000000000000000000000000000011111100000000000000000000000000000001111111111110000000000000000000000000000000000111111111100000000000000000000000000
00000000000000000000000001111111000001111100000000000000000000000000000000000000111111100000000000000000000000000000000001111111111100000000000000000000000000000000111111111000000000000000000000000000
00000000000000000000000011111111100011111110000000000000000000000000000000000000111111000000000000000000000000000000000000000011111111000000000000000000000000000000111111111000000000000000000000000000
00000000000000000000000111111111111111111110000000000000000000000000000000000001111111000000000000000000000000000000000000000000111111100000000000000000000000000000111111111000000000000000000000000000
00000000000000000000000111111111111111111100000000000000000000000000000000000011111111000000000000000000000000000000000000000000011111110000000000000000000000000001111111111000000000000000000000000000
00000000000000000000001111111000111111111000000000000000000000000000000000000011111110000000000000000000000000000000000000000000001111111000000000000000000000000001111111111000000000000000000000000000
00000000000000000000001111110000011111110000000000000000000000000000000000000111111100000000000000000000000000000000000000000000000111111100000000000000000000000001111111110000000000000000000000000000
00000000000000000000001111110000000111100000000000000000000000000000000000000111111100000000000000000000000000000000000000000000000111111100000000000000000000000001111111110000000000000000000000000000
00000000000000000000001111100000000011100000000000000000000000000000000000000111111000000000000000000000000000000000000000000000000111111100000000000000000000000001111111100000000000000000000000000000
00000000000000000000001111100000000011110000000000000000000000000000000000001111110000000000000000000000000000000000000000000000000011111110000000000000000000000001111111100000000000000000000000000000
00000000000000000000001111100000000011111000000000000000000000000000000000001111110000000000000000000000000000000000000000000000000011111110000000000000000000000001111111100000000000000000000000000000
00000000000000000000001111100000000001111000000000000000000000000000000000011111110000000000000000000000000000000111000000000000000011111110000000000000000000000011111111100000000000000000000000000000
00000000000000000000001111100000000001111100000000000000000000000000000000011111100000000000000000000000000000000111100000000000000011111111000000000000000000000011111111100000000000000000000000000000
00000000000000000000001111100000000000111100000000000000000000000000000000111111100000000000000000000000000000000111100000000000000011111111000000000000000000000011111111000000000000000000000000000000
00000000000000000000001111100000000000111100000000000000000000000000000000111111000000000000000000000000000000000011100000000000000011111110000000000000000000000011111111000000000000000000000000000000
00000000000000000000001111100000000000111100000000000000000000000000000001111111000000000000000000000000000000000011110000000000000111111110000000000000000000000011111111000000000000000000000000000000
00000000000000000000000111110000000000111110000000000000000000000000000011111110000000000000000000000000000000000011111000000000001111111100000000000000000000000011111111000000000000000000000000000000
00000000000000000000000111110000000000111110000000000000000000000000000011111110000000000000000000000000000000000011111111100001111111111100000000000000000000000111111110000000000000000000000000000000
00000000000000000000000111110000000000111110000000000000000000000000000111111100000000000000000000000000000000000011111111111111111111111000000000000000000000000111111110000000000000000000000000000000
00000000000000000000000011111000000001111110000000000000000000000000000111111000000000000000000000000000000000000011111111111111111111100000000000000000000000000111110000000000000000000000000000000000
00000000000000000000000001111100000001111110000000000000000000000000001111111000000000000000000000000000000000000001111111111111111111000000000000000000000000000011100000000000000000000000000000000000
00000000000000000000000000111100000001111110000000000000000000000000001111110000000000000000000000000000000000000000000000011100001100000000000000000000000000000000000000000000000000000000000000000000
00000000000000000000000000111110000001111110000000000000000000000000011111110000000000000000000000000000000000000000000000000000000000000000000000000000000000000000000000000000000000000000000000000000
00000000000000000000000000011111111111111110000000000000000000000000011111110000000000000000000000000000000000000000000000000000000000000000000000000000000000000000000000000000000000000000000000000000
00000000000000000000000000001111111111111100000000000000000000000000111111100000000000000000000000000000000000000000000000000000000000000000000000000000000000000000000000000000000000000000000000000000
00000000000000000000000000000001111111111100000000000000000000000000111111000000000000000000000000000000000000000000000000000000000000000000000000000000000000000000000000000000000000000000000000000000
00000000000000000000000000000000111111111000000000000000000000000001111110000000000000000000000000000000000000000000000000000000000000000000000000000000000000000000000000000000000000000000000000000000
00000000000000000000000000000000000011110000000000000000000000000011110000000000000000000000000000000000000000000000000000000000000000000000000000000000000000000000000000000000000000000000000000000000
00000000000000000000000000000000000000000000000000000000000000000011100000000000000000000000000000000000000000000000000000000000000000000000000000000000000000000000000000000000000000000000000000000000
00000000000000000000000000000000000000000000000000000000000000000000000000000000000000000000000000000000000000000000000000000000000000000000000000000000000000000000000000000000000000000000000000000000
00000000000000000000000000000000000000000000000000000000000000000000000000000000000000000000000000000000000000000000000000000000000000000000000000000000000000000000000000000000000000000000000000000000
00000000000000000000000000000000000000000000000000000000000000000000000000000000000000000000000000000000000000000000000000000000000000000000000000000000000000000000000000000000000000000000000000000000
00000000000000000000000000000000000000000000000000000000000000000000000000000000000000000000000000000000000000000000000000000000000000000000000000000000000000000000000000000000000000000000000000000000
00000000000000000000000000000000000000000000000000000000000000000000000000000000000000000000000000000000000000000000000000000000000000000000000000000000000000000000000000000000000000000000000000000000
00000000000000000000000000000000000000000000000000000000000000000000000000000000000000000000000000000000000000000000000000000000000000000000000000000000000000000000000000000000000000000000000000000000
00000000000000000000000000000000000000000000000000000000000000000000000000000000000000000000000000000000000000000000000000000000000000000000000000000000000000000000000000000000000000000000000000000000
