P1
200 72
00000000000000000000000000000000000000000000000000000000000000000000000000000000000000000000000000000000000000000000000000000000000000000000000000000000000000000000000000000000000000000000000000000000
00000000000000000000000000000000000000000000000000000000000000000000000000000000000000000000000000000000000000000000000000000000000000000000000000000000000000000000000000000000000000000000000000000000
00000000000000000000000000000000000000000000000000000000000000000000000000000000000000000000000000000000000000000000000000000000000000000000000000000000000000000000000000000000000000000000000000000000
00000000000000000000000000000000000000000000000000000000000000000000000000000000000000000000000000000000000000000000000000000000000000000000000000000000000000000000000000000000000000000000000000000000
00000000000000000000000000000000000000000000000000000000000000000000000000000000000000000000000000000000000000000000000000000000000000000000000000000000000000000000000000000000000000000000000000000000
00000000000000000000000000000000000000000000000000000000000000000000000000000000000000000000000000000000000000000000000000000000000000000000000000000000000000000000000000000000000000000000000000000000
00000000000000000000000000000000000000000000000000000000000000000000000000000000000000000000000000000000000000000000000000000000000000000000000000000000000000000000000000000000000000000000000000000000
00000000000000000000000000000000000000000000000000000000000000000000000000000000000000000000000000000000000000000000000000000000000000000000000000000000000000000000000000000000000000000000000000000000
00000000000000000000000000000000000000000000000000000000000000000000000000000000000000000000000000000000000000000000000000000000000000000000000000000000000000000000000000000000000000000000000000000000
00000000000000000000000000000000000000000000000000000000000000000000000000000000000000000000000000000000000000000000000000000000000000000000000000000000000000000000000011111100000000000000000000000000
00000000000000000000000000000000000000000000000000000000000000000000000000000000000000000000000000000000000000000000000000000000000000000000000000000000000000000000011111111111000000000000000000000000
00000000000000000000000000000000000000000000000000000000000000000000000000000000000000000000000000000000000000000000000000000000000000000000000000000000000000000000111111111111110000000000000000000000
00000000000000000000000000000000000000000000000000000000000000000000000000000000000000000000000000000000000000000000000000000000000000000000000000000000000000000001111111111111110000000000000000000000
00000000000000000000000000000000000000000000000000000000000000000000011001111011110000000000000000000000000000000000000000000000000000000000000000000000000000000011111111111111111000000000000000000000
00000000000000000000000000000000000000000000000000000000000000000001111111111111111111000000000000000000000000000000000000000000000000000000000000000000000000000011111111111111111100000000000000000000
00000000000000000000000000000010010000000000000000000000000000001111111111111111111111110000000000000000000000000000000000000000000000000000000000000000000000000011111110000111111100000000000000000000
00000000000000000000000000111111111100000000000000000000000000011111111111111111111111111000000000000000000000000000000000000000000000000000000000000000000000000011111000000001111110000000000000000000
00000000000000000000000011111111111110000000000000000000000000011111111111111111111111111110000000000000000000000000000000000000000000000000000000000000000000000111110000000000111110000000000000000000
00000000000000000000001111111111111111000000000000000000000000111111111111111111111111111110000000000000000000000000000000000100110000000000000000000000000000000111110000000000111111000000000000000000
00000000000000000000011111111111111111000000000000000000000001111111111111100000011111111111000000000000000000000000000000001111111110000000000000000000000000000111110000000000111111000000000000000000
00000000000000000000111111000001111111100000000000000000000001111111111100000000000111111111000000000000000000000000000000001111111110000000000000000000000000000111110000000000011111000000000000000000
00000000000000000001111110000000111111100000000000000000000011111111100000000000000011111111100000000000000000000000000000011111111111000000000000000000000000000111110000000000011111000000000000000000
00000000000000000001111100000000011111100000000000000000000011111111100000000000000001111111000000000000000000000000000000011111111111000000000000000000000000000011110000000000011111100000000000000000
00000000000000000011111100000000001111110000000000000000000001111111100000000000000001111111000000000000000000000000000000011111111111000000000000000000000000000000000000000000011111100000000000000000
00000000000000000011111000000000001111110000000000000000000001111111100000000000000001111111000000000000000000000000000000111111111111100000000000000000000000000000000000000000011111100000000000000000
00000000000000000011111000000000001111110000000000000000000001111111100000000000000001111111000000000000000000000000000000111111111111110000000000000000000000000000000000000000011111100000000000000000
00000000000000000111111000000000001111110000000000000000000001111111000000000000000001111111000000000000000000000000000000111111111111110000000000000000000000000000000000000000011111100000000000000000
00000000000000000111111000000000001111100000000000000000000001111111000000000000000001111110000000000000000000000000000001111111111111110000000000000000000000000000000000000000011111100000000000000000
00000000000000000111111000000000001111100000000000000000000000111111100000000000000011111110000000000000000000000000000001111111111111110000000000000000000000000000000000000000111111000000000000000000
00000000000000000111111000000000011111100000000000000000000000111111110000000000000011111100000000000000000000000000000001111111111111110000000000000000000000000000000000000001111111000000000000000000
00000000000000000111111000000000011111000000000000000000000000111111110000000000001111111100000000000000000000000000000011111111111111111000000000000000000000000000000000000111111111000000000000000000
00000000000000000011111100000000111111000000000000000000000000011111111000000000011111111000000000000000000000000000000011111111111111111000000000000000000000000000000011111111111110000000000000000000
00000000000000000011111110000000111110000000000000000000000000011111111100000001111111110000000000000000000000000000000011111111111111111000000000000000000000000000000011111111111100000000000000000000
00000000000000000011111111000001111110000000000000000000000000001111111111111111111111100000000000000000000000000000000111111110111111111000000000000000000000000000000001111111111000000000000000000000
00000000000000000011111111111111111111000000000000000000000000000111111111111111111111110000000000000000000000000000000111111110111111111100000000000000000000000000000001111111111100000000000000000000
00000000000000000001111111111111111111110000000000000000000000000011111111111111111111111100000000000000000000000000000111111100011111111110000000000000000000000000000001111111111110000000000000000000
00000000000000000000111111111111111111111000000000000000000000000000111111111111111111111110000000000000000000000000001111111100011111111110000000000000000000000000000000111111111111000000000000000000
00000000000000000000001111111100001111111100000000000000000000000000001111111111111111111111000000000000000000000000001111111000011111111110000000000000000000000000000000000001111111100000000000000000
00000000000000000000000111111000000111111110000000000000000000000000011111111111111111111111000000000000000000000000001111111000011111111110000000000000000000000000000000000000111111110000000000000000
00000000000000000000001111100000000011111110000000000000000000000000011111111000000011111111000000000000000000000000011111111000001111111111000000000000000000000000000000000000011111111000000000000000
00000000000000000000011111000000000011111110000000000000000000000000111111100000000000111111100000000000000000000000011111111000001111111111000000000000000000000000000000000000001111111000000000000000
00000000000000000000111110000000000001111110000000000000000000000001111111000000000000111111100000000000000000000000011111111000000111111111000000000000000000000000000000000000000111111100000000000000
00000000000000000001111110000000000001111110000000000000000000000001111110000000000000011111000000000000000000000000111111110000000111111111000000000000000000000000000000000000000011111100000000000000
00000000000000000001111110000000000001111110000000000000000000000011111110000000000000011111000000000000000000000001111111100000000111111111100000000000000000000000000000000000000011111100000000000000
00000000000000000001111100000000000001111110000000000000000000000011111100000000000000011111100000000000000000000001111111100000000011111111110001000000000000000000000000000000000001111100000000000000
00000000000000000011111100000000000001111110000000000000000000000001111100000000000000011111100000000000000000000001111111000000000011111111111111100000000000000000001000000000000000111110000000000000
00000000000000000011111100000000000001111110000000000000000000000011111110000000000000011111100000000000000000000011111111000011100111111111111111100000000000000001111100000000000000111110000000000000
00000000000000000011111100000000000001111110000000000000000000000011111100000000000000011111100000000000000000000011111111111111111111111111111111110000000000000001111100000000000001111111000000000000
00000000000000000011111100000000000011111110000000000000000000000011111100000000000000111111000000000000000000000011111111111111111111111111111111111000000000000001111110000000000000111111000000000000
00000000000000000111111100000000000011111100000000000000000000000011111100000000000000111111000000000000000000000011111111111111111111111111111111111000000000000000111111000000000000111111000000000000
00000000000000000111111100000000000011111100000000000000000000000001111100000000000000111111000000000000000000000001111111111111111111111111111111111000000000000000111111100000000001111111000000000000
00000000000000000111111100000000000111111000000000000000000000000000111110000000000001111111000000000000000000000001111111111111111111111111111111111000000000000000011111100000000001111111000000000000
00000000000000000011111100000000001111110000000000000000000000000000111110000000000011111110000000000000000000000001111111111111111111111111111111111000000000000000011111111000000011111111000000000000
00000000000000000001111111000000011111100000000000000000000000000000111111000000000111111110000000000000000000000001111111111111111111111111111111000000000000000000001111111110000011111110000000000000
00000000000000000001111111100001111111000000000000000000000000000000111111100000001111111100000000000000000000000001111111111111111111111111111110000000000000000000000111111111111111111110000000000000
00000000000000000001111111111111111110000000000000000000000000000000111111110000011111111000000000000000000000000000111111111111111001111111111110000000000000000000000011111111111111111110000000000000
00000000000000000001111111111111111100000000000000000000000000000000011111111111111111111000000000000000000000000000111111001110000000111111111110000000000000000000000001111111111111111110000000000000
00000000000000000000111111111111100000000000000000000000000000000000001111111111111111110000000000000000000000000000000000000000000000011111111111000000000000000000000000011111111111111100000000000000
00000000000000000000111111111111000000000000000000000000000000000000001111111111111111100000000000000000000000000000000000000000000000001111111111000000000000000000000000001111111111111000000000000000
00000000000000000000001111111000000000000000000000000000000000000000001111111111111110000000000000000000000000000000000000000000000000001111111111100000000000000000000000000111111111100000000000000000
00000000000000000000000000000000000000000000000000000000000000000000000111111111111100000000000000000000000000000000000000000000000000001111111111100000000000000000000000000000000000000000000000000000
00000000000000000000000000000000000000000000000000000000000000000000000011111111100000000000000000000000000000000000000000000000000000001111111111100000000000000000000000000000000000000000000000000000
00000000000000000000000000000000000000000000000000000000000000000000000000111111000000000000000000000000000000000000000000000000000000000111111100000000000000000000000000000000000000000000000000000000
00000000000000000000000000000000000000000000000000000000000000000000000000000000000000000000000000000000000000000000000000000000000000000111000000000000000000000000000000000000000000000000000000000000
00000000000000000000000000000000000000000000000000000000000000000000000000000000000000000000000000000000000000000000000000000000000000000000000000000000000000000000000000000000000000000000000000000000
00000000000000000000000000000000000000000000000000000000000000000000000000000000000000000000000000000000000000000000000000000000000000000000000000000000000000000000000000000000000000000000000000000000
00000000000000000000000000000000000000000000000000000000000000000000000000000000000000000000000000000000000000000000000000000000000000000000000000000000000000000000000000000000000000000000000000000000
00000000000000000000000000000000000000000000000000000000000000000000000000000000000000000000000000000000000000000000000000000000000000000000000000000000000000000000000000000000000000000000000000000000
00000000000000000000000000000000000000000000000000000000000000000000000000000000000000000000000000000000000000000000000000000000000000000000000000000000000000000000000000000000000000000000000000000000
00000000000000000000000000000000000000000000000000000000000000000000000000000000000000000000000000000000000000000000000000000000000000000000000000000000000000000000000000000000000000000000000000000000
00000000000000000000000000000000000000000000000000000000000000000000000000000000000000000000000000000000000000000000000000000000000000000000000000000000000000000000000000000000000000000000000000000000
00000000000000000000000000000000000000000000000000000000000000000000000000000000000000000000000000000000000000000000000000000000000000000000000000000000000000000000000000000000000000000000000000000000
