P1
200 72
00000000000000000000000000000000000000000000000000000000000000000000000000000000000000000000000000000000000000000000000000000000000000000000000000000000000000000000000000000000000000000000000000000000
00000000000000000000000000000000000000000000000000000000000000000000000000000000000000000000000000000000000000000000000000000000000000000000000000000000000000000000000000000000000000000000000000000000
00000000000000000000000000000000000000000000000000000000000000000000000000000000000000000000000000000000000000000000000000000000000000000000000000000000000000000000000000000000000000000000000000000000
00000000000000000000000000000000000000000000000000000000000000000000000000000000000000000000000000000000000000000000000000000000000000000000000000000000000000000000000000000000000000000000000000000000
00000000000000000000000000000000000000000000000000000000000000000000000000000000000000000000000000000000000000000000000000000000000000000000000000000000000000000000000000000000000000000000000000000000
00000000000000000000000000000000000000000000000000000000000000000000000000000000000000000000000000000000000000000000000000000000000000000000000000000000000000000000000000000000000000000000000000000000
00000000000000000000000000000000000000000000000000000000000000000000000000000000000000000000000000000000000000000000000000000000000000000000000000000000000000000000000000000000000000000000000000000000
00000000000000000000000000000000000000000000000000000000000000000000000000000000000000000000000000000000000000000000000000000000000000000000000000000000000000000000000000000000000000000000000000000000
00000000000000000000000000000000000000000000000000000000000000000000000000000000000000000000000000000000000000000000000000000000000000000000000000000000000000000000000000000000000000000000000000000000
00000000000000000000000000000000000000000000000000000000000000000000000000000000011100000000000000000000000000000000000000000000000000000000000000000000000000000000000000000000000000000000000000000000
00000000000000000000000000000000000000000000000000000000000000000000000000000011111111000000000000000000000000000000000000000000000000000000000000000000000000000000000000000000000000000000000000000000
00000000000000000000000000000000000000000000000000000000000000000000000000000111111111110000000000000000000000000000000000000000000000000000000000000000000000000000000000000000000000000000000000000000
00000000000000000000000000000000000000000000000000000000000000000000000000001111111111111000000000000000000000000000000000000000000000000000000000000000000000000000000000000000000000000000000000000000
00000000000000000000000000000011000000000000000000000000000000000000000000011111111111111100000000000000000000000000000000000000000000000000000000000000000000000000000000000000000000000000000000000000
00000000000000000000000000011111111100000000000000000000000000000000000000011111111111111110000000000000000000000000000000000000000000000000000000000000000000000000000000000000000000000000000000000000
00000000000000000000000011111111111110000000000000000000000000000000000000111111100011111110000000000000000000000000000000000000000000000000000000000000000000000000000000000000000000000000000000000000
00000000000000000000000111111111111111100000000000000000000000000000000001111111000011111111000000000000000000000000000000000000000000000000000000000000000000000000000000000000000000000000000000000000
00000000000000000000011111111111111111110000000000000000000000000000000001111111000011111111100000000000000000000000000000000000000000000000000000000000000000000000000000000000000000000000000000000000
00000000000000000000111111111111111111110000000000000000000000000000000001111111000001111111100000000000000000000000000000000000000000000000000111110000000000000000000000000000000000000000000000000000
00000000000000000001111111111111111111111000000000000000000000000000000011111110000001111111100000000000000000000000000000000000000000000000011111111000000000000000000000000000000000000000000000000000
00000000000000000011111111111000001111111000000000000000000000000000000011111110000001111111100000000000000000000000000000000000000000000000111111111111000000000000000000000000000000011111000000000000
00000000000000000011111111000000000111111100000000000000000000000000000011111110000001111111110000000000000000000000000000000000000000000001111111111111000000000000000000000000000111111111111000000000
00000000000000000111111110000000000011111100000000000000000000000000000111111110000001111111110000000000000000000000000000000000000000000011111111111111000000000000000000000000011111111111111100000000
00000000000000000111111100000000000011111100000000000000000000000000000111111110000001111111111000000000000000000000000000000000000000000011111111111111000000000000000000000000111111111111111111000000
00000000000000001111111000000000000011111100000000000000000000000000000111111110000000111111111000000000000000000000000000000000000000001111111111111111000000000000000000000000111111100000111111100000
00000000000000001111111000000000000011111100000000000000000000000000001111111110000000111111111000000000000000000000000000000000000000011111111111111110000000000000000000000001111111000000001111110000
00000000000000011111110000000000000011111100000000000000000000000000001111111110000000111111111000000000000000000000000000000000000000111111111011111110000000000000000000000011111111000000000111111000
00000000000000111111110000000000000011111110000000000000000000000000001111111110000000111111111100000000000000000000000000000000000000111111110011111110000000000000000000000111111110000000000011111000
00000000000000111111100000000000000011111100000000000000000000000000001111111110000000111111111100000000000000000000000000000000000001111111100011111110000000000000000000000111111100000000000011111100
00000000000001111111100000000000000011111100000000000000000000000000011111111110000000111111111100000000000000000000000000000000000111111111000011111110000000000000000000000111111100000000000011111100
00000000000001111111000000000000000011111110000000000000000000000000011111111110000000111111111100000000000000000000000000000000000111111110000111111100000000000000000000001111111100000000000001111110
00000000000001111111000000000000000011111110000000000000000000000000011111111110000000111111111110000000000000000000000000000000001111111100000111111100000000000000000000001111111000000000000001111110
00000000000001111111000000000000000111111100000000000000000000000000011111111100000000111111111110000000000000000000000000000000001111111000000111111000000000000000000000001111111000000000000001111110
00000000000001111111000000000000000111111100000000000000000000000000111111111100000000111111111110000000000000000000000000000000011111110000000111111000000000000000000000001111110000000000000001111110
00000000000001111111000000000000000111111100000000000000000000000000111111111100000000011111111110000000000000000000000000000000111111110000000111110000000000000000000000011111110000000000000001111110
00000000000001111110000000000000000111111100000000000000000000000000111111111100000000011111111110000000000000000000000000000001111111100000001111110000000000000000000000011111110000000000000001111110
00000000000001111111000000000000001111111000000000000000000000000000111111111100000000011111111111000000000000000000000000000011111111000000001111110000000000000000000000011111110000000000000001111110
00000000000001111111000000000000011111111000000000000000000000000000111111111100000000011111111111000000000000000000000000000011111110000000001111110000000000000000000000011111100000000000000001111110
00000000000001111111000000000000111111111000000000000000000000000000111111111100000000011111111111000000000000000000000000000111111100000000001111110000000000000000000000011111100000000000000001111110
00000000000001111111100000000001111111111000000000000000000000000000111111111100000000111111111111000000000000000000000000001111111000000000011111100000000000000000000000011111100000000000000001111110
00000000000000111111110000000111111111111000000000000000000000000000111111111100000000111111111111000000000000000000000000001111111000000000011111100000000000000000000000111111100000000000000001111110
00000000000000111111111111111111111111111000000000000000000000000001111111111100000000011111111111000000000000000000000000011111110000000000011111100000000000000000000000111111100000000000000011111110
00000000000000011111111111111111111111110000000000000000000000000001111111111100000000011111111111000000000000000000000000011111110000000000011111100000000000000000000000111111100000000000000011111110
00000000000000001111111111111111111111110000000000000000000000000001111111111000000000011111111111000000000000000000000000111111100000000000011111100000000000000000000000111111100000000000000011111110
00000000000000000011111111111111111111100000000000000000000000000001111111111100000000011111111111000000000000000000000000111111111000000000111111000000000000000000000000111111100000000000000111111110
00000000000000000001111111111111111111100000000000000000000000000001111111111100000000011111111111000000000000000000000000011111111111110001111111000000000000000000000000111111100000000000000111111100
00000000000000000000111111111101111111100000000000000000000000000011111111111100000000011111111111000000000000000000000000011111111111111111111111000000000000000000000000111111100000000000000111111100
00000000000000000000000000000001111111100000000000000000000000000011111111111100000000011111111111000000000000000000000000111111111111111111111111001100000000000000000000111111000000000000001111111100
00000000000000000000000000000011111111000000000000000000000000000011111111111100000000011111111110000000000000000000000000111111111111111111111111111100000000000000000000111111000000000000001111111000
00000000000000000000000000000111111110000000000000000000000000000011111111111100000000011111111110000000000000000000000000011111111111111111111111111100000000000000000000011111100000000000011111111000
00000000000000000000000000000111111110000000000000000000000000000011111111111100000000011111111110000000000000000000000000000011110111111111111111111000000000000000000000111111100000000000011111110000
00000100000000000000000000001111111100000000000000000000000000000011111111111100000000011111111110000000000000000000000000000000000000001111111111111000000000000000000000011111100000000000111111110000
00001111000000000000000000011111111000000000000000000000000000000011111111111100000000011111111100000000000000000000000000000000000000000011111100111000000000000000000000011111110000000000111111100000
00011111110000000000000000111111111000000000000000000000000000000011111111111000000000111111111100000000000000000000000000000000000000000111111000000000000000000000000000001111111000000001111111100000
00011111111100000000000001111111111000000000000000000000000000000011111111111000000000111111111100000000000000000000000000000000000000000111111000000000000000000000000000000111111100000111111111000000
00011111111111101100111111111111100000000000000000000000000000000001111111111100000001111111111000000000000000000000000000000000000000000111111000000000000000000000000000000011111111111111111110000000
00111111111111111111111111111111100000000000000000000000000000000001111111111100000011111111110000000000000000000000000000000000000000000111111000000000000000000000000000000001111111111111111100000000
00011111111111111111111111111110000000000000000000000000000000000001111111111111001111111111100000000000000000000000000000000000000000000111111000000000000000000000000000000000011111111111110000000000
00000111111111111111111111111100000000000000000000000000000000000000111111111111111111111111000000000000000000000000000000000000000000001111110000000000000000000000000000000000000111111111000000000000
00000001111111111111111111111000000000000000000000000000000000000000111111111111111111111110000000000000000000000000000000000000000000001111110000000000000000000000000000000000000000000000000000000000
00000000111111111111111111110000000000000000000000000000000000000000011111111111111111111000000000000000000000000000000000000000000000001111110000000000000000000000000000000000000000000000000000000000
00000000001111111111111111000000000000000000000000000000000000000000000111111111111111110000000000000000000000000000000000000000000000001111100000000000000000000000000000000000000000000000000000000000
00000000000000111111000000000000000000000000000000000000000000000000000011111111100000000000000000000000000000000000000000000000000000000000000000000000000000000000000000000000000000000000000000000000
00000000000000000000000000000000000000000000000000000000000000000000000000000000000000000000000000000000000000000000000000000000000000000000000000000000000000000000000000000000000000000000000000000000
00000000000000000000000000000000000000000000000000000000000000000000000000000000000000000000000000000000000000000000000000000000000000000000000000000000000000000000000000000000000000000000000000000000
00000000000000000000000000000000000000000000000000000000000000000000000000000000000000000000000000000000000000000000000000000000000000000000000000000000000000000000000000000000000000000000000000000000
00000000000000000000000000000000000000000000000000000000000000000000000000000000000000000000000000000000000000000000000000000000000000000000000000000000000000000000000000000000000000000000000000000000
00000000000000000000000000000000000000000000000000000000000000000000000000000000000000000000000000000000000000000000000000000000000000000000000000000000000000000000000000000000000000000000000000000000
00000000000000000000000000000000000000000000000000000000000000000000000000000000000000000000000000000000000000000000000000000000000000000000000000000000000000000000000000000000000000000000000000000000
00000000000000000000000000000000000000000000000000000000000000000000000000000000000000000000000000000000000000000000000000000000000000000000000000000000000000000000000000000000000000000000000000000000
00000000000000000000000000000000000000000000000000000000000000000000000000000000000000000000000000000000000000000000000000000000000000000000000000000000000000000000000000000000000000000000000000000000
00000000000000000000000000000000000000000000000000000000000000000000000000000000000000000000000000000000000000000000000000000000000000000000000000000000000000000000000000000000000000000000000000000000
