P1
200 72
00000000000000000000000000000000000000000000000000000000000000000000000000000000000000000000000000000000000000000000000000000000000000000000000000000000000000000000000000000000000000000000000000000000
00000000000000000000000000000000000000000000000000000000000000000000000000000000000000000000000000000000000000000000000000000000000000000000000000000000000000000000000000000000000000000000000000000000
00000000000000000000000000000000000000000000000000000000000000000000000000000000000000000000000000000000000000000000000000000000000000000000000000000000000000000000000000000000000000000000000000000000
00000000000000000000000000000000000000000000000000000000000000000000000000000000000000000000000000000000000000000000000000000000000000000000000000000000000000000000000000000000000000000000000000000000
00000000000000000000000000000000000000000000000000000000000000000000000000000000000000000000000000000000000000000000000000000000000000000000000000000000000000000000000000000000000000000000000000000000
00000000000000000000000000000000000000000000000000000000000000000000000000000000000000000000000000000000000000000000000000000000000000000000000000000000000000000000000000000000000000000000000000000000
00000000000000000000000000000000000000000000000000000000000000000000000000000000000000000000000000000000000000000000000000000000000000000000000000000000000000000000000000000000000000000000000000000000
00000000000000000000000000000000000000000000000000000000000000000000000000000000000000000000000000000000000000000000000000000000000000000000000000000000000000000000000000000000000000000000000000000000
00000000000000000000000000000000000000000000000000000000000000000000000000000000000000000000000000000000000000000000000000000000000000000000000000000000000000000000000000000000000000000000000000000000
00000000000000000000000000000000000000000000000000000000000000000000000000000000000000000000000000000000000000000000000000000000000000000000000000000000000000000000000000000000000000000000000000000000
00000000000000000000000000000000000000000000000000000000000000000000000000000000000000000000000000000000000000000000000000000000000000000000000000000000000000000000000000000000000000000000000000000000
00000000000000000000000000000000000000000000000000000000000000000000000000000000000000000000000000000000000000000000000000000000000000000000000000000000000000000000000000000000000000000000000000000000
00000000000000000000000000000000000000000000000000000000000000000000000000000000000000000000000000000000000000000000000000000000000000000000000000000000000000000000000000000000000000000000000000000000
00000000000000000000000000000000000000000000000000000000000000000000000000000000000000000000000000000000000000000000000000000000000000000000000000000000000000000000000000000000000000000000000000000000
00000000000000000000000000000000000000000000000000000000000000000000000000000000000000000000000000000000000000000000000000000000000000000000000000000000000000000000000000000000000000000000000000000000
00000000000000000000000000000000000000000000000000000000000000000000000000000000000000000000000000000000000000000000000000000000000000000000000000000000000000000000000000000000000000000000000000000000
00000000000000000000000000000000000000000000000000000000000000000000000000000000000000000000000000000000000000000000000000000000000011100000000000000000000000000000000000000000000000000000000000000000
00000000000000000000000000000000000000000000000000000000000000000000000011111110000000000000000000000000000000000000000000000000001111111100000000000000000000000000000000000000000000000000000000000000
00000000000000000000000000000000000000000000000000000000000000000000011111111111111000000000000000000000000000000000000000000000011111111100000000000000000000000000000000000000000000000000000000000000
00000000000000000000110000000000000000000000000000000000000000000000111111111111111110000000000000000000000000000000000000000000111111111100000000000000000000000000000000000000000000000000000000000000
00000000000000001111111111100000000000000000000000000000000000000001111111111111111111100000000000000000000000000000000000000000111111111100000000000000000000000000000000000000000000000000000000000000
00000000000000011111111111111100000000000000000000000000000000000011111111000000011111100000000000000000000000000000000000000001111111111100000000000000000000000000000000110000000000000000000000000000
00000000000000011111111111111110000000000000000000000000000000000111111110000000000111111000000000000000000000000000000000000011111111111100000000000000000000000000000001111100000000000000000000000000
00000000000001111111100011111111000000000000000000000000000000000111111100000000000111111100000000000000000000000000000000000011111111111100000000000000000000000000000011111110000000000000000000000000
00000000000001111111000000011111100000000000000000000000000000000111111100000000000011111100000000000000000000000000000000001111111111111100000000000000000000000000000111111110000000000000000000000000
00000000000001111110000000001111111000000000000000000000000000001111111000000000000011111100000000000000000000000000000000001111111111111000000000000000000000000000011111111110000000000000000000000000
00000000000001111110000000000111111000000000000000000000000000001111111000000000000001111110000000000000000000000000000000011111111111111000000000000000000000000000111111111110000000000000000000000000
00000000000011111110000000000111111100000000000000000000000000011111111000000000000001111111000000000000000000000000000000111111011111111000000000000000000000000000111111111111000000000000000000000000
00000000000011111110000000000011111110000000000000000000000000001111111000000000000001111111000000000000000000000000000001111110011111111000000000000000000000000011111111111111000000000000000000000000
00000000000001111110000000000001111111000000000000000000000000001111111100000000000000111111000000000000000000000000000011111100011111110000000000000000000000000111111111111110000000000000000000000000
00000000000001111110000000000000111111100000000000000000000000001111111000000000000000111111100000000000000000000000000111111100011111110000000000000000000000001111111111111110000000000000000000000000
00000000000001111110000000000000111111100000000000000000000000001111111000000000000000111111100000000000000000000000000111111000011111110000000000000000000000011111111111111110000000000000000000000000
00000000000001111110000000000000011111110000000000000000000000001111111000000000000000111111100000000000000000000000001111111000011111110000000000000000000000111111111011111110000000000000000000000000
00000000000001111110000000000000011111110000000000000000000000001111111000000000000000111111000000000000000000000000011111110000011111110000000000000000000001111111110001111110000000000000000000000000
00000000000000111111000000000000001111111000000000000000000000001111111000000000000000011111100000000000000000000000111111100000011111100000000000000000000011111111100011111110000000000000000000000000
00000000000000111111000000000000001111111100000000000000000000001111111000000000000000111111100000000000000000000001111111000000011111100000000000000000000111111111000011111110000000000000000000000000
00000000000000111111100000000000001111111100000000000000000000000111111100000000000000111111100000000000000000000001111110000000111111100000000000000000011111111110000011111110000000000000000000000000
00000000000000111111100000000000001111111100000000000000000000000111111100000000000000111111000000000000000000000011111110000000111111100000000000000000111111111100000011111110000000000000000000000000
00000000000000011111100000000000001111111110000000000000000000000111111100000000000000011111100000000000000000000111111100000000111111100000000000000000111111111000000111111100000000000000000000000000
00000000000000011111110000000000001111111111000000000000000000000111111100000000000000111111100000000000000000000111111000000000111111000000000000000001111111100000000111111100000000000000000000000000
00000000000000001111111000000000001111111111000000000000000000000111111100000000000000111111100000000000000000001111110000000000111111100000000000000111111111000000000011111100000000000000000000000000
00000000000000000111111100000000001111111111000000000000000000000011111110000000000000111111000000000000000000011111100000000001111111111110000000001111111110000000000011111100000000000000000000000000
00000000000000000111111111000000011111111111000000000000000000000001111110000000000000111111100000000000000000011111100000000011111111111110000000001111111100000000000011111100000000000000000000000000
00000000000000000011111111110000111111111111100000000000000000000001111110000000000000111111100000000000000000111111100001111111111111111110000000001111111000000000000111111100000000000000000000000000
00000000000000000001111111111111111111111111110000000000000000000000111110000000000000111111100000000000000001111111111111111111111111111110000000001111111000000000000111111100000000000000000000000000
00000000000000000000011111111111111110111111110000000000000000000000111111000000000000111111000000000000000001111111111111111111111111111110000000001111111100000000000111111100000000000000000000000000
00000000000000000000000011111111111000011111110000000000000000000000011111000000000000111111000000000000000001111111111111111111111111000000000000011111111111110000000111111100000000000000000000000000
00000000000000000000000000100011000000011111110000000000000000000000011111100000000000111111000000000000000011111111111111100011111110000000000000011111111111111000000111111100000000000000000000000000
00000000000000000000000000000000000000011111110000000000000000000000001111100000000001111110000000000000000011111111111100000011111110000000000000011111111111111111101111111000000000000000000000000000
00000000000000000000000000000000000000011111110000000000000000000000000111110000000001111110000000000000000111111110000000000011111110000000000000000111111111111111111111111100000000000000000000000000
00000000000000000000000000000000000000011111110000000000000000000000000111111000000011111100000000000000000111100000000000000011111110000000000000000001111111111111111111111100000000000000000000000000
00000000000000000000000000000000000000011111110000000000000000000000000011111100001111111100000000000000000000000000000000000011111110000000000000000000001111111111111111111100000000000000000000000000
00000000000000000001110000000000000000011111110000000000000000000000000001111111111111111000000000000000000000000000000000000011111100000000000000000000000001111111111111111110000000000000000000000000
00000000000000000001111000000000000000011111110000000000000000000000000000111111111111110000000000000000000000000000000000000111111100000000000000000000000000011111111111111111111000000000000000000000
00000000000000000001111000000000000000111111110000000000000000000000000000000111111111100000000000000000000000000000000000000111111100000000000000000000000000000000111111111111111000000000000000000000
00000000000000000000111100000000000000111111100000000000000000000000000000000001011100000000000000000000000000000000000000000111111000000000000000000000000000000000001111111111111100000000000000000000
00000000000000000000111111000000000001111111100000000000000000000000000000000000000000000000000000000000000000000000000000000110000000000000000000000000000000000000001111111111111100000000000000000000
00000000000000000000111111100000000111111110000000000000000000000000000000000000000000000000000000000000000000000000000000000000000000000000000000000000000000000000001111111111111100000000000000000000
00000000000000000000111111111111111111111100000000000000000000000000000000000000000000000000000000000000000000000000000000000000000000000000000000000000000000000000001111111000011000000000000000000000
00000000000000000000011111111111111111111000000000000000000000000000000000000000000000000000000000000000000000000000000000000000000000000000000000000000000000000000001111111000000000000000000000000000
00000000000000000000001111111111111111100000000000000000000000000000000000000000000000000000000000000000000000000000000000000000000000000000000000000000000000000000001111111000000000000000000000000000
00000000000000000000000001110011100000000000000000000000000000000000000000000000000000000000000000000000000000000000000000000000000000000000000000000000000000000000001111111000000000000000000000000000
00000000000000000000000000000000000000000000000000000000000000000000000000000000000000000000000000000000000000000000000000000000000000000000000000000000000000000000001111111000000000000000000000000000
00000000000000000000000000000000000000000000000000000000000000000000000000000000000000000000000000000000000000000000000000000000000000000000000000000000000000000000001111111000000000000000000000000000
00000000000000000000000000000000000000000000000000000000000000000000000000000000000000000000000000000000000000000000000000000000000000000000000000000000000000000000001111111000000000000000000000000000
00000000000000000000000000000000000000000000000000000000000000000000000000000000000000000000000000000000000000000000000000000000000000000000000000000000000000000000000111111000000000000000000000000000
00000000000000000000000000000000000000000000000000000000000000000000000000000000000000000000000000000000000000000000000000000000000000000000000000000000000000000000000000011000000000000000000000000000
00000000000000000000000000000000000000000000000000000000000000000000000000000000000000000000000000000000000000000000000000000000000000000000000000000000000000000000000000000000000000000000000000000000
00000000000000000000000000000000000000000000000000000000000000000000000000000000000000000000000000000000000000000000000000000000000000000000000000000000000000000000000000000000000000000000000000000000
00000000000000000000000000000000000000000000000000000000000000000000000000000000000000000000000000000000000000000000000000000000000000000000000000000000000000000000000000000000000000000000000000000000
00000000000000000000000000000000000000000000000000000000000000000000000000000000000000000000000000000000000000000000000000000000000000000000000000000000000000000000000000000000000000000000000000000000
00000000000000000000000000000000000000000000000000000000000000000000000000000000000000000000000000000000000000000000000000000000000000000000000000000000000000000000000000000000000000000000000000000000
