P1
200 72
00000000000000000000000000000000000000000000000000000000000000000000000000000000000000000000000000000000000000000000000000000000000000000000000000000000000000000000000000000000000000000000000000000000
00000000000000000000000000000000000000000000000000000000000000000000000000000000000000000000000000000000000000000000000000000000000000000000000000000000000000000000000000000000000000000000000000000000
00000000000000000000000000000000000000000000000000000000000000000000000000000000000000000000000000000000000000000000000000000000000000000000000000000000000000000000000000000000000000000000000000000000
00000000000000000000000000000000000000000000000000000000000000000000000000000000000000000000000000000000000000000000000000000000000000000000000000000000000000000000000000000000000000000000000000000000
00000000000000000000000000000000000000000000000000000000000000000000000000000000000000000000000000000000000000000000000000000000000000000000000000000000000000000000000000000000000000000000000000000000
00000000000000000000000000000000000000000000000000000000000000000000000000000000000000000000000000000000000000000000000000000000000000000000000000000000000000000000000000000000000000000000000000000000
00000000000000000000000000000000000000000000000000000000000000000000000000000000000000000000000000000000000000000000000000000000000000000000000000000000000000000000000000000000000000000000000000000000
00000000000000000000000000000000000000000000000000000000000000000000000000000000000000000000000000000000000000000000000000000000000000000000000000000000000000000000000000000000000000000000000000000000
00000000000000000000000000000000000000000000000000000000000000000000000000000000000000000000000000000000000000000000000000000000000000000000000000000000000000000000000000000000000000000000000000000000
00000000000000000000000000000000000000000000000000000000000000000000000000000000000000000000000000000000000000000000000000000000000000000000000000000000000000000000000000000000000000000000000000000000
00000000000000000000000000000000000000000000000000000000000000000000000000000000000000000000000000000000000000000000000000000000000000000000000000000000000000000000000000000000000000000000000000000000
00000000000000000000000000000000000000000000000000000000000000000000000000000000000000000000000000000000000000000000000000000000000000000000000000000000000000000000000000000000000000000000000000000000
00000000000000000000000000000000000000000000000000000000000000000000000000000000000000000000000000000000000000000000000000000000000000000000000000000000000000000000000000000000000000000000000000000000
00000000000000000000000000000000000000000000000000000000000000000000000000000000000000000000000000000000000000000000000000000000000000000000000000000000000000000000000000000000000000000000000000000000
00000000000000000000000000000000000000000000000000000000000000000000000000000000000000000000000000000000000000000000000000000000000000000000000000000000000000000000000000000000000000000000000000000000
00000000000000000000000000000000000000000000000000000000000000000000000000000000000000000000000000000000000000000000000000000000000000000000000000000000000000000000000000000000000000000000000000000000
00000000000000000000000000000000000000000000000000000000000000000000000000000000001001110000000000000000000000000000000000000000000000000000000000000000000000000000000000000000000000000000000000000000
00000000000000000000000000000000000000000000000000000000000000000000000000111011111111110000000000000000000000000000000000000000000000000000000000000000000000000000000000000000000000000000000000000000
00000000000000000000000000000000000000000000000000000000000000000000011111111111111111110000000000000000000000000001111111100000000000000000000000000000000000000000000000000000000000000000000000000000
00000000000000000000000000000000000000000000000000000000000000000011111111111111111111110000000000000000000000000111111111111000000000000000000000000000000000000000000000000000000000000000000000000000
00000000000000000000001000000000000000000000000000000000000000011111111111111111111111100000000000000000000000011111111111111100000000000000000000000000000000000000000000000000000000000000000000000000
00000000000000000001111111000000000000000000000000000000000000111111111111111111111111100000000000000000000001111111111111111110000000000000000000000000000000000000000000000000000000000000000000000000
00000000000000001111111111110000000000000000000000000000000001111111111111111111111111000000000000000000000111111111111111111111000000000000000000000000000000000000000000001111111111111110000000000000
00000000000000011111111111111000000000000000000000000000000001111111111111111111111111000000000000000000011111111111111111111111000000000000000000000000000000000000000000011111111111111111000000000000
00000000000000111111111111111100000000000000000000000000000011111111111111111111111111000000000000000000111111111100000001111111000000000000000000000000000000000000000000111111111111111110000000000000
00000000000001111111110111111110000000000000000000000000000011111111111111111111111110000000000000000001111111110000000000111111000000000000000000000000000000000000000001111111111111111110000000000000
00000000000011111110000011111110000000000000000000000000000011111111100111111111111110000000000000000011111111000000000000111111000000000000000000000000000000000000000011111111111111111100000000000000
00000000000111111100000000111110000000000000000000000000000111111100000111111111111100000000000000001111111100000000000000111111000000000000000000000000000000000000000111111111111111111100000000000000
00000000000111111000000000111111000000000000000000000000000000000000001111111111111100000000000000001111111000000000000000111111000000000000000000000000000000000000001111111111111111111100000000000000
00000000000111111000000000011111000000000000000000000000000000000000001111111111111100000000000000001111111000000000000000111111000000000000000000000000000000000000011111111111111111111000000000000000
00000000001111110000000000011111100000000000000000000000000000000000011111111111111000000000000000000111110000000000000000111111000000000000000000000000000000000000111111111111111111111000000000000000
00000000001111110000000000011111100000000000000000000000000000000000011111111111111000000000000000000111100000000000000000111110000000000000000000000000000000000001111111111111111111111000000000000000
00000000001111110000000000011111000000000000000000000000000000000000011111111111110000000000000000000110000000000000000001111110000000000000000000000000000000000001111111111111111111111000000000000000
00000000001111110000000000011111000000000000000000000000000000000000111111111111110000000000000000000000000000000000000001111110000000000000000000000000000000000011111111111111111111111000000000000000
00000000000111110000000000011111000000000000000000000000000000000000111111111111100000000000000000000000000000000000000011111110000000000000000000000000000000000111111111111111111111110000000000000000
00000000000111110000000000011111100000000000000000000000000000000001111111111111100000000000000000000000000000000000000011111100000000000000000000000000000000001111111111101111111111110000000000000000
00000000000111110000000000011111100000000000000000000000000000000001111111111111100000000000000000000000000000000000000011111100000000000000000000000000000000001111111111001111111111110000000000000000
00000000000111111000000000111111000000000000000000000000000000000001111111111111000000000000000000000000000000000000000111111000000000000000000000000000000000011111111110001111111111110000000000000000
00000000000011111100000001111111000000000000000000000000000000000001111111111111000000000000000000000000000000000000000111110000000000000000000000000000000000111111111100011111111111110000000000000000
00000000000011111110000011111111000000000000000000000000000000000011111111111110000000000000000000000000000000000000001111110000000000000000000000000000000000111111111000011111111111110000000000000000
00000000000001111111110111111111000000000000000000000000000000000111111111111110000000000000000000000000000000000000001111110000000000000000000000000000000001111111111000011111111111100000000000000000
00000000000001111111111111111111000000000000000000000000000000000111111111111110000000000000000000000000000000000000011111100000000000000000000000000000000011111111110000011111111111100000000000000000
00000000000000111111111111111111000000000000000000000000000000000111111111111100000000000000000000000000000000000000011111100000000000000000000000000000000111111111100000011111111111100000000000000000
00000000000000001111111111111111000000000000000000000000000000000111111111111100000000000000000000000000000000000000111111000000000000000000000000000000000111111111100000011111111111100000000000000000
00000000000000000111111111111111000000000000000000000000000000001111111111111000000000000000000000000000000000000000111110000000000000000000000000000000000111111111100000011111111111000000000000000000
00000000000000000000011101111110000000000000000000000000000000011111111111111000000000000000000000000000000000000000111110000000000000000000000000000000001111111111000000011111111111000000000000000000
00000001111110000000000001111110000000000000000000000000000000011111111111111000000000000000000000000000000000000001111110000000000000000000000000000000001111111110000000011111111111100010000000000000
00000001111110000000000001111110000000000000000000000000000000011111111111110000000000000000000000000000000000000011111100000000011100000000000000000000011111111110000000011111111111111111000000000000
00000000111111000000000011111110000000000000000000000000000000111111111111110000000000000000000000000000000000000011111100000000111110000000000000000000111111111100000000111111111111111110000000000000
00000000111111000000000011111110000000000000000000000000000000111111111111110000000010000000000000000000000000000111111100000111111110000000000000000000111111111100000000111111111111111110000000000000
00000000011111100000000111111100000000000000000000000000000000111111111111111111111111000000000000000000000000000111111000011111111110000000000000000001111111111000000001111111111111111110000000000000
00000000001111110000000111111000000000000000000000000000000001111111111111111111111111000000000000000000000000000111110000111111111100000000000000000001111111111100011111111111111111111110000000000000
00000000000111111100011111111000000000000000000000000111111111111111111111111111111111000000000000000000000000001111110011111111110000000000000000000000111111111111111111111111111111111110000000000000
00000000000011111111111111111000000000000000000001111111111111111111111111111111111110000000000000000000000000001111111111111111000000000000000000000000111111111111111111111111111111111110000000000000
00000000000001111111111111110000000000000000000001111111111111111111111111111111111110000000000000000000000000001111111111111110000000000000000000000000111111111111111111111111111111111100000000000000
00000000000001111111111111110000000000000000000001111111111111111111111111111111111100000000000000000000000000011111111111110000000000000000000000000000111111111111111111111111111111111000000000000000
00000000000000011111111111100000000000000000000011111111111111111111111111111111111100000000000000000000000000111111111111000000000000000000000000000000111111111111111111111111111111000000000000000000
00000000000000000111111111000000000000000000000011111111111111111111111111111111111000000000000000000000000000111111111110000000000000000000000000000000111111111111111111111111111110000000000000000000
00000000000000000000111100000000000000000000000111111111111111111111111110111000000000000000000000000000000000111111110000000000000000000000000000000000111111111111111111111111111100000000000000000000
00000000000000000000000000000000000000000000000111111111111110111000000000000000000000000000000000000000000000011111100000000000000000000000000000000000111111111111111111111111111100000000000000000000
00000000000000000000000000000000000000000000000111111100100000000000000000000000000000000000000000000000000000011110000000000000000000000000000000000000111111111111100000111111111100000000000000000000
00000000000000000000000000000000000000000000000000000000000000000000000000000000000000000000000000000000000000011100000000000000000000000000000000000000111111111100000000111111111100000000000000000000
00000000000000000000000000000000000000000000000000000000000000000000000000000000000000000000000000000000000000000000000000000000000000000000000000000000111111110000000000111111111100000000000000000000
00000000000000000000000000000000000000000000000000000000000000000000000000000000000000000000000000000000000000000000000000000000000000000000000000000000111100000000000000111111111100000000000000000000
00000000000000000000000000000000000000000000000000000000000000000000000000000000000000000000000000000000000000000000000000000000000000000000000000000000000000000000000000111111111100000000000000000000
00000000000000000000000000000000000000000000000000000000000000000000000000000000000000000000000000000000000000000000000000000000000000000000000000000000000000000000000000111111111000000000000000000000
00000000000000000000000000000000000000000000000000000000000000000000000000000000000000000000000000000000000000000000000000000000000000000000000000000000000000000000000000111110000000000000000000000000
00000000000000000000000000000000000000000000000000000000000000000000000000000000000000000000000000000000000000000000000000000000000000000000000000000000000000000000000000110000000000000000000000000000
00000000000000000000000000000000000000000000000000000000000000000000000000000000000000000000000000000000000000000000000000000000000000000000000000000000000000000000000000000000000000000000000000000000
00000000000000000000000000000000000000000000000000000000000000000000000000000000000000000000000000000000000000000000000000000000000000000000000000000000000000000000000000000000000000000000000000000000
00000000000000000000000000000000000000000000000000000000000000000000000000000000000000000000000000000000000000000000000000000000000000000000000000000000000000000000000000000000000000000000000000000000
00000000000000000000000000000000000000000000000000000000000000000000000000000000000000000000000000000000000000000000000000000000000000000000000000000000000000000000000000000000000000000000000000000000
