P1
200 72
00000000000000000000000000000000000000000000000000000000000000000000000000000000000000000000000000000000000000000000000000000000000000000000000000000000000000000000000000000000000000000000000000000000
00000000000000000000000000000000000000000000000000000000000000000000000000000000000000000000000000000000000000000000000000000000000000000000000000000000000000000000000000000000000000000000000000000000
00000000000000000000000000000000000000000000000000000000000000000000000000000000000000000000000000000000000000000000000000000000000000000000000000000000000000000000000000000000000000000000000000000000
00000000000000000000000000000000000000000000000000000000000000000000000000000000000000000000000000000000000000000000000000000000000000000000000000000000000000000000000000000000000000000000000000000000
00000000000000000000000000000000000000000000000000000000000000000000000000000000000000000000000000000000000000000000000000000000000000000000000000000000000000000000000000000000000000000000000000000000
00000000000000000000000000000000000000000000000000000000000000000000000000000000000000000000000000000000000000000000000000000000000000000000000000000000000000000000000000000000000000000000000000000000
00000000000000000000000000000000000000000000000000000000000000000000000000000000000000000000000000000000000000000000000000000000000000000000000000000000000000000000000000000000000000000000000000000000
00000000000000000000000000000000000000000000000000000000000000000000000000000000000000000000000000000000000000000000000000000000000000000000000000000000000000000000000000000000000000000000000000000000
00000000000000000000000000000000000000000000000000000000000000000000000000000000000000000000000000000000000000000000000000000000000000000000000000000000000000000000000000000000000000000000000000000000
00000000000000000000000000000000000000000000000000000000000000000000000000000000000000000000000000000000000000000000000000000000000000000000000000000000000000000000000000000000000000000000000000000000
00000000000000000000000000000000000000000000000000000000000000000000000000000000000000000000000000000000000000000000000000000000000000000000000000000000000000000000000000000000000000000000000000000000
00000000000000000000000000000000000000000000000000000000000000000000000000000000000000000000000000000000000000000000000000000000000000000000000000000000000000000000000000000000000000000000000000000000
00000000000000000000000000000000000000000000000000000000000000000000000000000000000000000000000000000000000000000000000000000011111111111000000000000000000000000000000000000000000000000000000000000000
00000000000000000000000000000000000000000000000000000000000000000000000000000000000000000000000000000000000000000000000000011111111111111110000000000000000000000000000000000000000000000000000000000000
00000000000000000000000000000000000000000000000000000000000000000000000000000000000000000000000000000000000000000000000011111111111111111111000000000000000000000000000000000000000000000000000000000000
00000000000000000000000000000000000000000000000000000000000000000000000000000000000000000000000000000000000000000000000111111111111111111111000000000000000000000000000000000000000000000000000000000000
00000000000000000000000000000000000001111111100000000000000000000000000000000000000000000000000000000000000000000000001111111111111111111110000000000000000000000000000000000000000000000000000000000000
00000000000000000000000000000000000011111111111000000000000000000000000000000000000000000000000000000000000000000000111111111111111111111100000000000000000000000000000111111111000000000000000000000000
00000000000000000000000000000000000111111111111100000000000000000000000000000000000000000000000000000000000000000001111111111110001111111100000000000000000000000000011111111111100000000000000000000000
00000000000000000000000000000000011111111111111100000000000000000000000000000000000000000000000000000000000000000011111111100000000001111100000000000000000000000001111111111111110000000000000000000000
00000000000000000000000000000000011111111111111110000000000000000000000000000000000000000000000000000000000000001111111110000000000000111100000000000000000000000111111111111111110000000000000000000000
00000000000000000000000000000000111111111111111110000000000000000000000000000000011000000000000000000000000000001111111000000000000000001000000000000000000000001111111111111111110000000000000000000000
00000000000000000000000000000001111111000011111110000000000000000000000000000001111000000000000000000000000000011111110000000000000000000000000000000000000000011111111111111111111000000000000000000000
00000000000000000000000000000011111110000001111110000000000000000000000000000011111000000000000000000000000000111111100000000000000000000000000000000000000000111111111111111111111000000000000000000000
00000000000000000000000000000111111100000001111111000000000000000000000000001111110000000000000000000000000000111111100000000000000000000000000000000000000001111111111111111111111000000000000000000000
00000000000000000000000000000111111000000000111111000000000000000000000000001111110000000000000000000000000001111111000000000000000000000000000000000000000011111111110001111111111000000000000000000000
00000000000000000000000000001111111000000000111111000000000000000000000000011111110000000000000000000000000001111110000000000000000000000000000000000000000011111111100001111111111000000000000000000000
00000000000000000000000000001111110000000000111111000000000000000000000000111111110000000000000000000000000011111100000000000000000000000000000000000000000111111111000000111111111000000000000000000000
00000000000000000000000000001111110000000000111111000000000000000000000001111111111000000000000000000000000111111000000000000000000000000000000000000000001111111110000000111111110000000000000000000000
00000000000000000000000000011111100000000000111111000000000000000000000011111111111000000000000000000000001111111000000000000000000000000000000000000000001111111100000000111111100000000000000000000000
00000000000000000000000000011111100000000000111111000000000000000000000111111111111000000000000000000000001111110001111111111100000000000000000000000000001111111100000000111111100000000000000000000000
00000000000000000000000000011111100000000000111111000000000000000000001111111111111000000000000000000000011111110111111111111110000000000000000000000000011111111100000001111111000000000000000000000000
00000000000000000000000000111111000000000000111111000000000000000000011111111111111000000000000000000000111111111111111111111111000000000000000000000000011111111000000011111111000000000000000000000000
00000000000000000000000000111111000000000000111111000000000000000000011111110111111000000000000000000000111111111111111111111111100000000000000000000000011111100000000111111110000000000000000000000000
00000000000000000000000001111111000000000001111111000000000000000000111111100111111000000000000000000000111111111111111111111111110000000000000000000000011100000000001111111100000000000000000000000000
00000000000000000000000001111111000000000001111110000000000000000000111111001111111000000000000000000001111111111111111111111111110000000000000000000000000000000000011111111100000000000000000000000000
00000000000000000000000001111111000000000011111110000000000000000001111110001111111000000000000000000001111111111111000000111111111000000000000000000000000000000001111111111111100000000000000000000000
00000000000000000000000001111111000000000111111110000000000000000000111100001111111000000000000000000001111111111100000000011111111000000000000000000000000000000011111111111111110000000000000000000000
00000000000000000000000001111111000000000111111110000000000000000000010000000111111000000000000000000011111111110000000000001111111000000000000000000000000000000111111111111111111000000000000000000000
00000000000000000000000001111111100000001111111110000000000000000000000000000111111000000000000000000011111111100000000000001111111000000000000000000000000000000111111111111111111000000000000000000000
00000000000000000000000001111111110001111111111110000000000000000000000000000111111100000000000000000011111111000000000000001111111000000000000000000000000000000111111111111111111000000000000000000000
00000000000000000000000000111111111111111111111110000000000000000000000000000111111100000000000000000111111110000000000000001111111000000000000000000000000000000111111111111111111000000000000000000000
00000000000000000000000000111111111111111111111110000000000000000000000000000111111100000000000000000111111110000000000000001111111000000000000000000000000000000111111111111111111000000000000000000000
00000000000000000000000000111111111111111111111110000000000000000000000000000111111100000000000000001111111100000000000000001111110000000000000000000000000000000111000000111111111000000000000000000000
00000000000000000000000000011111111111111111111100000000000000000000000000000111111100000000000000001111111100000000000000001111110000000000000000000000000000000000000000111111111000000000000000000000
00000000000000000000000000001111111111110011111100000000000000000000000000000111111100000000000000001111111100000000000000011111110000000000000000000000000000000000000000111111111000000000000000000000
00000000000000000000000000000011111111100011111100000000000000000000000000000111111100000000000000001111111000000000000000011111110000000000000000000000000000000000000000111111111000000000000000000000
00000000000000000000000000000000000011000011111100000000000000000000000000001111111100000000000000001111111000000000000000111111110000000000000000000000000000000000000000111111110000000000000000000000
00000000000000000000000000000000000000000111111100000000000000000000000000001111111100000000000000001111111000000000000000111111110000000000000000000000000000000000000001111111110000000000000000000000
00000000000000000000000000000000000000000111111000000000000000000000000000001111111100000000000000001111110000000000000000111111100000000000000000000000000000000000000001111111100000000000000000000000
00000000000000000000000000000000000000000111111000000000000000000000000000000111111100000000000000001111110000000000000000111111000000000000000000000000000000110000000011111111100000000000000000000000
00000000000000000000000000000000000000001111111000000000000000000000000000000111111100000000000000011111110000000000000001111111000000000000000000000000000011111000000111111111000000000000000000000000
00000000000000000000000000000000000000011111110000000000000000000000000000000111111100000000000000011111110000000000000011111110000000000000000000000000011111111100011111111110000000000000000000000000
00000000000000000000000000000000000000111111110000000000000000000000000000000111111100001111110000011111110000000000000111111110000000000000000000000000111111111111111111111100000000000000000000000000
00000000000000000000111000000000000001111111110000000000000000000000000000001111111111111111110000001111110000000000000111111100000000000000000000000001111111111111111111111000000000000000000000000000
00000000000000000000111110000000000001111111100000000000000000000000000000111111111111111111110000001111111000000000001111111100000000000000000000000001111111111111111111110000000000000000000000000000
00000000000000000000111111111101111111111111000000000000000000000000011111111111111111111111111000001111111100000000111111111000000000000000000000000001111111111111111111100000000000000000000000000000
00000000000000000000111111111111111111111111000000000000000000000001111111111111111111111111111000001111111111000111111111111000000000000000000000000001111111111111111111000000000000000000000000000000
00000000000000000001111111111111111111111110000000000000000000000011111111111111111111111111111000000111111111111111111111110000000000000000000000000000111111111111111100000000000000000000000000000000
00000000000000000011111111111111111111111100000000000000000000000011111111111111111111111111110000000011111111111111111111000000000000000000000000000000111111111111110000000000000000000000000000000000
00000000000000000001111111111111111111110000000000000000000000000011111111111111111110000000000000000011111111111111111110000000000000000000000000000000011111111111100000000000000000000000000000000000
00000000000000000000000111111111111111100000000000000000000000000001111110000000000000000000000000000001111111111111111100000000000000000000000000000000001111111100000000000000000000000000000000000000
00000000000000000000000000111011111110000000000000000000000000000000000000000000000000000000000000000000011111111111111000000000000000000000000000000000000000000000000000000000000000000000000000000000
00000000000000000000000000000000000000000000000000000000000000000000000000000000000000000000000000000000000111111111000000000000000000000000000000000000000000000000000000000000000000000000000000000000
00000000000000000000000000000000000000000000000000000000000000000000000000000000000000000000000000000000000000011100000000000000000000000000000000000000000000000000000000000000000000000000000000000000
00000000000000000000000000000000000000000000000000000000000000000000000000000000000000000000000000000000000000000000000000000000000000000000000000000000000000000000000000000000000000000000000000000000
00000000000000000000000000000000000000000000000000000000000000000000000000000000000000000000000000000000000000000000000000000000000000000000000000000000000000000000000000000000000000000000000000000000
00000000000000000000000000000000000000000000000000000000000000000000000000000000000000000000000000000000000000000000000000000000000000000000000000000000000000000000000000000000000000000000000000000000
00000000000000000000000000000000000000000000000000000000000000000000000000000000000000000000000000000000000000000000000000000000000000000000000000000000000000000000000000000000000000000000000000000000
00000000000000000000000000000000000000000000000000000000000000000000000000000000000000000000000000000000000000000000000000000000000000000000000000000000000000000000000000000000000000000000000000000000
00000000000000000000000000000000000000000000000000000000000000000000000000000000000000000000000000000000000000000000000000000000000000000000000000000000000000000000000000000000000000000000000000000000
00000000000000000000000000000000000000000000000000000000000000000000000000000000000000000000000000000000000000000000000000000000000000000000000000000000000000000000000000000000000000000000000000000000
