P1
200 72
00000000000000000000000000000000000000000000000000000000000000000000000000000000000000000000000000000000000000000000000000000000000000000000000000000000000000000000000000000000000000000000000000000000
00000000000000000000000000000000000000000000000000000000000000000000000000000000000000000000000000000000000000000000000000000000000000000000000000000000000000000000000000000000000000000000000000000000
00000000000000000000000000000000000000000000000000000000000000000000000000000000000000000000000000000000000000000000000000000000000000000000000000000000000000000000000000000000000000000000000000000000
00000000000000000000000000000000000000000000000000000000000000000000000000000000000000000000000000000000000000000000000000000000000000000000000000000000000000000000000000000000000000000000000000000000
00000000000000000000000000000000000000000000000000000000000000000000000000000000000000000000000000000000000000000000000000000000000000000000000000000000000000000000000000000000000000000000000000000000
00000000000000000000000000000000000000000000000000000000000000000000000000000000000000000000000000000000000000000000000000000000000000000000000000000000000000000000000000000000000000000000000000000000
00000000000000000000000000000000000000000000000000000000000000000000000000000000000000000000000000000000000000000000000000000000000000000000000000000000000000000000000000000000000000000000000000000000
00000000000000000000000000000000000000000000000000000000000000000000000000000000000000000000000000000000000000000000000000000000000000000000000000000000000000000000000000000000000000000000000000000000
00000000000000000000000000000000000000000000000000000000000000000000000000000000000000000000000000000000000000000000000000000000000000000000000000000000000000000000000000000000000000000000000000000000
00000000000000000000000000000000000000000000000000000000000000000000000000000000000000000000000000000000000000000000000000000000000000000000000000000000000000000000000000000000000000000000000000000000
00000000000000000000000000000000000000000000000000000000000000000000000000000000000000000000000000000000000000000000000000000000000000000000000000000000000000000000000000000000000000000000000000000000
00000000000000000000000000000000000000000000000000000000000000000000000000000000000000000000000000000000000000000000000000000000000000000000000000000000000000000000000000000000000000000000000000000000
00000000000000000000000000000000000000000000000000000000000000000000000000000000000000000000000000000000000000000000000000000000000000000000000000000000000000000000000000000000000000000000000000000000
00000000000000000000000000000000000000000000000000000000000000000000000000000000000000000000000000000000000000000000000000000000000000000000000000000000000000000000000000000000000000000000000000000000
00000000000000000000000000000000000000000000000000000000000000000000000000000000000000000000000000000000000000000000000000000000000000000000000000000000000000000000000000000000000000000000000000000000
00000000000000000000000000000000000000000000000000000000000000011110000000000000000000000000000000000000000000000000000000000000000000000000000000000000000010111001110000000000000000000000000000000000
00000000000000000000000000000000000000000000000000000000000000011111110000000000000000000000000000000000000000000000000000000000000000000000000000000000000111111111111110000000000000000000000000000000
00000000000000000000000000000000000000000000000000000000000000011111111110000000000000000000000000000000000000000001000011100100000000000000000000000000011111111111111111100000000000000000000000000000
00000000000000000000000000000000000001111110000000000000000000011111111111110000000000000000000000000000111111111111111111111110000000000000000000000000111111111111111111110000000000000000000000000000
00000000000000000000000000000000000111111111000000000000000000011111111111111100000000000000000000000001111111111111111111111110000000000000000000000001111111111111111111111000000000000000000000000000
00000000000000000000000000000000011111111111000000000000000000011111111111111100000000000000000000000001111111111111111111111110000000000000000000000001111111111111111111111100000000000000000000000000
00000000000000000000000000000001111111111111100000000000000000001111111111111100000000000000000000000011111111111111111111111110000000000000000000000011111111110000011111111110000000000000000000000000
00000000000000000000000000000011111111111111100000000000000000000000011111111100000000000000000000000011111111111111111111111110000000000000000000000011111111100000000111111111000000000000000000000000
00000000000000000000000000000111111111111111100000000000000000000000000111111100000000000000000000000011111111111111111111111100000000000000000000000111111111000000000011111111100000000000000000000000
00000000000000000000000000011111110001111111000000000000000000000000000011111110000000000000000000000011111111111111111111111100000000000000000000000111111110000000000001111111100000000000000000000000
00000000000000000000000000111111100000011111100000000000000000000000000011111110000000000000000000000011111111111111111111111100000000000000000000000111111110000000000001111111100000000000000000000000
00000000000000000000000001111110000000011111100000000000000000000000000011111100000000000000000000000011111111111111111111111000000000000000000000000111111110000000000000111111110000000000000000000000
00000000000000000000000001111100000000011111000000000000000000000000000011111100000000000000000000000011111100000000000111110000000000000000000000000111111100000000000000011111111000000000000000000000
00000000000000000000000011111000000000011111000000000000000000000000000011111100000000000000000000000111110000000000000111110000000000000000000000001111111100000000000000001111111000000000000000000000
00000000000000000000000111110000000000111111000000000000000000000000000011111100000000000000000000000111100000000000001111110000000000000000000000001111111000000000000000001111111000000000000000000000
00000000000000000000001111100000000000111111000000000000000000000000000111111100000000000000000000000111100000000000001111100000000000000000000000001111111100000000000000001111111000000000000000000000
00000000000000000000001111100000000001111111000000000000000000000000000111111100000000000000000000000111100000000000011111100000000000000000000000001111111100000000000000001111111000000000000000000000
00000000000000000000011111000000000001111110000000000000000000000000000111111000000000000000000000000010000000000000011111000000000000000000000000000111111100000000000000001111111100000000000000000000
00000000000000000000011111000000000011111110000000000000000000000000000011111000000000000000000000000000000000000000111111000000000000000000000000000111111100000000000000001111111100000000000000000000
00000000000000000000111110000000000111111100000000000000000000000000000011111000000000000000000000000000000000000000111110000000000000000000000000000111111100000000000000001111111100000000000000000000
00000000000000000000111110000000000111111100000000000000000000000000000111111100000000000000000000000000000000000001111110000000000000000000000000000111111100000000000000000111111100000000000000000000
00000000000000000001111110000000001111111100000000000000000000000000000111111100000000000000000000000000000000000001111100000000000000000000000000001111111100000000000000000111111100000000000000000000
00000000000000000001111110000000011111111000000000000000000000000000000111111100000000000000000000000000000000000011111100000000000000000000000000001111111000000000000000000111111100000000000000000000
00000000000000000001111100000000011111111000000000000000000000000000000111111000000000000000000000000000000000000011111000000000000000000000000000001111111000000000000000000111111100000000000000000000
00000000000000000001111100000000111111111000000000000000000000000000000111111000000000000000000000000000000000000111111000000000000000000000000000001111111100000000000000000111111110000000000000000000
00000000000000000001111100000011111111110000000000000000000000000000000111111000000000000000000000000000000000000111110000000000000000000000000000000111111100000000000000000111111110000000000000000000
00000000000000000001111110001111111111110000000000000000000000000000000111111000000000000000000000000000000000001111110000000000000000000000000000000111111100000000000000000111111110000000000000000000
00000000000000000001111111111111111111100000000000000000000000000000000111111000000000000000000000000000000000001111100000000000000000000000000000000111111100000000000000000011111110000000000000000000
00000000000000000001111111111111101111100000000000000000000000000000000111110000000000000000000000000000000000011111100000000000000000000000000000000111111110000000000000000111111110000000000000000000
00000000000000000011111111111110001111100000000000000000000000000000000111110000000000000000000000000000000000011111000000000000000000000000000000000111111110000000000000000111111100000000000000000000
00000000000000000001111111111100011111000000000000000000000000000000000111110000000000000000000000000000000000111110000000000000000000000000000000000111111110000000000000000111111110000000000000000000
00000000000000000000111111111000011111000000000000000000000000000000000111110000000000000000000000000000000000111110000000000000000000000000000000000111111110000000000000000111111110000000000000000000
00000000000000000000011111000000111110000000000000000000000000000000001111110000000000000000000000000000000001111110000000000000000000000000000000000011111110000000000000000111111100000000000000000000
00000000000000000000000000000000111110000000000000000000000000000000001111110000000000000000000000000000000001111100000000000000000000000000000000000011111110000000000000000111111100000000000000000000
00000000000000000000000000000001111100000000000000000000000000001000001111110000000000000000000000000000000011111000000000000000000000000000000000000011111111000000000000000111111100000000000000000000
00000000000000000000000000000011111100000000000000000000000000001111001111110000000000000000000000000000000011111000000000000000000000000000000000000011111111000000000000000111111000000000000000000000
00000000000000000000000000000011111000000000000000000000000000011111111111110000000000000000000000000000000111111000000000000000000000000000000000000011111111000000000000001111111100000000000000000000
00000000000000000000000000000111110000000000000000000000000000011111111111110000000000000000000000000000000111110000000000000000000000000000000000000001111111100000000000001111111000000000000000000000
00000000000000000011000000001111100000000000000000000000000000011111111111110000000000000000000000000000000111110000000000000000000000000000000000000000111111100000000000011111111000000000000000000000
00000000000000001111100000011111000000000000000000000000000000000111111111110000000000000000000000000000001111100000000000000000000000000000000000000000111111110000000000111111110000000000000000000000
00000000000000011111100000111110000000000000000000000000000000000011111111110000000000000000000000000000001111100000000000000000000000000000000000000000111111110000000001111111110000000000000000000000
00000000000000011111110111111110000000000000000000000000000000000001111111111000000000000000000000000000001111100000000000000000000000000000000000000000011111111000000011111111100000000000000000000000
00000000000000011111111111111100000000000000000000000000000000000000111111111110000000000000000000000000011111000000000000000000000000000000000000000000011111111111111111111111000000000000000000000000
00000000000000011111111111111000000000000000000000000000000000000000000111111111000000000000000000000000111111000000000000000000000000000000000000000000011111111111111111111110000000000000000000000000
00000000000000011111111111110000000000000000000000000000000000000000000011111111100000000000000000000000111110000000000000000000000000000000000000000000001111111111111111111100000000000000000000000000
00000000000000011111111111000000000000000000000000000000000000000000000001111111110000000000000000000000011110000000000000000000000000000000000000000000000111111111111111111000000000000000000000000000
00000000000000001111111100000000000000000000000000000000000000000000000000011111100000000000000000000000000000000000000000000000000000000000000000000000000011111111111111110000000000000000000000000000
00000000000000000000000000000000000000000000000000000000000000000000000000001111100000000000000000000000000000000000000000000000000000000000000000000000000001111111111111000000000000000000000000000000
00000000000000000000000000000000000000000000000000000000000000000000000000000011100000000000000000000000000000000000000000000000000000000000000000000000000000001111111100000000000000000000000000000000
00000000000000000000000000000000000000000000000000000000000000000000000000000001100000000000000000000000000000000000000000000000000000000000000000000000000000000000011000000000000000000000000000000000
00000000000000000000000000000000000000000000000000000000000000000000000000000000000000000000000000000000000000000000000000000000000000000000000000000000000000000000000000000000000000000000000000000000
00000000000000000000000000000000000000000000000000000000000000000000000000000000000000000000000000000000000000000000000000000000000000000000000000000000000000000000000000000000000000000000000000000000
00000000000000000000000000000000000000000000000000000000000000000000000000000000000000000000000000000000000000000000000000000000000000000000000000000000000000000000000000000000000000000000000000000000
00000000000000000000000000000000000000000000000000000000000000000000000000000000000000000000000000000000000000000000000000000000000000000000000000000000000000000000000000000000000000000000000000000000
00000000000000000000000000000000000000000000000000000000000000000000000000000000000000000000000000000000000000000000000000000000000000000000000000000000000000000000000000000000000000000000000000000000
00000000000000000000000000000000000000000000000000000000000000000000000000000000000000000000000000000000000000000000000000000000000000000000000000000000000000000000000000000000000000000000000000000000
00000000000000000000000000000000000000000000000000000000000000000000000000000000000000000000000000000000000000000000000000000000000000000000000000000000000000000000000000000000000000000000000000000000
