P1
200 72
00000000000000000000000000000000000000000000000000000000000000000000000000000000000000000000000000000000000000000000000000000000000000000000000000000000000000000000000000000000000000000000000000000000
00000000000000000000000000000000000000000000000000000000000000000000000000000000000000000000000000000000000000000000000000000000000000000000000000000000000000000000000000000000000000000000000000000000
00000000000000000000000000000000000000000000000000000000000000000000000000000000000000000000000000000000000000000000000000000000000000000000000000000000000000000000000000000000000000000000000000000000
00000000000000000000000000000000000000000000000000000000000000000000000000000000000000000000000000000000000000000000000000000000000000000000000000000000000000000000000000000000000000000000000000000000
00000000000000000000000000000000000000000000000000000000000000000000000000000000000000000000000000000000000000000000000000000000000000000000000000000000000000000000000000000000000000000000000000000000
00000000000000000000000000000000000000000000000000000000000000000000000000000000000000000000000000000000000000000000000000000000000000000000000000000000000000000000000000000000000000000000000000000000
00000000000000000000000000000000000000000000000000000000000000000000000000000000000000000000000000000000000000000000000000000000000000000000000000000000000000000000000000000000000000000000000000000000
00000000000000000000000000000000000000000000000000000000000000000000000000000000000000000000000000000000000000000000000000000000000000000000000000000000000000000000000000000000000000000000000000000000
00000000000000000000000000000000000000000000000000000000000000000000000000000000000000000000000000000000000000000000000000000000000000000000000000000000000000000000000000000000000000000000000000000000
00000000000000000000000000000000000000000000000000000000000000000000000000000000000000000000000000000000000000000000000000000000000000000000000000000000000000000000000000000000000000000000000000000000
00000000000000000000000000000000000000000000000000000000000000000000000000000000000000000000000000000000000000000000000000000000000000000000000000000000000000000000000000000000000000000000000000000000
00000000000000000000000000000000000000000000000000000000000000000000000000000000000000000000000000000000000000000000000000000000000000000000000000000000000000000000000000000000000000000000000000000000
00000000000000000000000000000000000000000000000000000000000000000000000000000000000000000000000000000000000000000000000000000000000000000000000000000000000000000000001111000000000000000000000000000000
00000000000000000000000000000000000000000000000000000000000000000000000000000000000000000000000000000000000000000000000000000000000000000000000000000000000000000011111111111000000000000000000000000000
00000000000000000000000000000000000000000000000000000000000000000000000000000000000000000000000000000000000000000000000000000000000000000000000000000000000000000111111111111100000000000000000000000000
00000000000000000000000000111000000000000000000000000000000000000000000000000000000000000000000000000000000000000000000000000000000000000000000000000000000000001111111111111110000000000000000000000000
00000000000000000000011111111110000000000000000000000000000000000000000000000001111001110000000000000000000000000000000000000000011111000000000000000000000000011111111111111111000000000000000000000000
00000000000000000000111111111111110000000000000000000000000000000000000000000111111111111110000000000000000000000000000000000000111111000000000000000000000000111111111111111111100000000000000000000000
00000000000000000001111111111111111100000000000000000000000000000000000000011111111111111111100000000000000000000000000000001111111111000000000000000000000001111111111111111111100000000000000000000000
00000000000000000011111111111111111111000000000000000000000000000000000001111111111111111111110000000000000000000000000000001111111111000000000000000000000001111111111111111111110000000000000000000000
00000000000000000011111111111111111111100000000000000000000000000000000011111111111111111111110000000000000000000000000001111111111111000000000000000000000001111111110001111111110000000000000000000000
00000000000000000011111111111111111111110000000000000000000000000000000111111111111101111111110000000000000000000000000011111111111111000000000000000000000001111111100000011111110000000000000000000000
00000000000000000111111111111111111111111000000000000000000000000000001111111111000000001111110000000000000000000000000111111111111111000000000000000000000001111111000000011111111000000000000000000000
00000000000000000111111111111001111111111000000000000000000000000000001111111100000000000001100000000000000000000000001111111111111111000000000000000000000001111111000000011111111100000000000000000000
00000000000000000111111111100000011111111100000000000000000000000000011111110000000000000000000000000000000000000000111111111111111111000000000000000000000011111111000000001111111100000000000000000000
00000000000000000111111111100000001111111110000000000000000000000000011111100000000000000000000000000000000000000000111111111111111111000000000000000000000011111111000000001111111100000000000000000000
00000000000000000111111111000000001111111110000000000000000000000000111111100000000000000000000000000000000000000000011111111111111111000000000000000000000011111111000000001111111100000000000000000000
00000000000000000111111111000000000111111110000000000000000000000000111111000000000000000000000000000000000000000000011111111111111111000000000000000000000011111111000000000111111110000000000000000000
00000000000000001111111111000000000111111111000000000000000000000001111110000000000000000000000000000000000000000000011111100111111111000000000000000000000011111111000000000111111110000000000000000000
00000000000000001111111111000000000111111111000000000000000000000001111110000000000000000000000000000000000000000000011111000111111111000000000000000000000011111111000000000111111111000000000000000000
00000000000000000111111111000000000111111111000000000000000000000001111110000011111110000000000000000000000000000000011100000111111111000000000000000000000011111111001111110011111111000000000000000000
00000000000000000111111111000000000111111111000000000000000000000011111100011111111111111000000000000000000000000000001000000011111111000000000000000000000011111111011111111011111111000000000000000000
00000000000000000111111111000000000111111111000000000000000000000111111100111111111111111100000000000000000000000000000000000011111111000000000000000000000011111111001111111011111111000000000000000000
00000000000000000111111111000000000111111111000000000000000000000111111101111111111111111110000000000000000000000000000000000011111111000000000000000000000011111111101111111011111111000000000000000000
00000000000000000111111111000000001111111111000000000000000000001111111111111111111111111111100000000000000000000000000000000011111111000000000000000000000011111111001111111011111111000000000000000000
00000000000000000111111111100000011111111111000000000000000000001111111111111111111111111111100000000000000000000000000000000011111111100000000000000000000011111111001111111001111111100000000000000000
00000000000000000011111111111001111111111111000000000000000000001111111111111000000111111111100000000000000000000000000000000011111111100000000000000000000001111111000111111001111111100000000000000000
00000000000000000011111111111111111111111110000000000000000000001111111111100000000000111111110000000000000000000000000000000011111111100000000000000000000001111111100111111101111111100000000000000000
00000000000000000001111111111111111111111110000000000000000000001111111111000000000000011111110000000000000000000000000000000011111111100000000000000000000001111111110111111001111111110000000000000000
00000000000000000000111111111111111111111110000000000000000000001111111110000000000000011111110000000000000000000000000000000011111111100000000000000000000001111111110001100001111111110000000000000000
00000000000000000000111111111111111111111100000000000000000000011111111100000000000000011111110000000000000000000000000000000001111111100000000000000000000001111111110000000001111111110000000000000000
00000000000000000000011111111111111111111100000000000000000000011111111100000000000000011111110000000000000000000000000000000001111111100000000000000000000001111111110000000001111111100000000000000000
00000000000000000000000111111111111111111100000000000000000000111111111000000000000000011111110000000000000000000000000000000001111111100000000000000000000000111111110000000000111111110000000000000000
00000000000000000000000000110000011111111100000000000000000000111111111000000000000000011111110000000000000000000000000000000001111111100000000000000000000000011111110000000001111111110000000000000000
00000000000000000000000000000000011111111100000000000000000000111111110000000000000000011111110000000000000000000000000000000001111111100000000000000000000000011111111000000001111111110000000000000000
00000000000000000000000000000000011111111000000000000000000000111111110000000000000000011111100000000000000000000000000000000001111111100000000000000000000000011111111100000001111111110000000000000000
00000000000000000000011100000000111111111000000000000000000000111111110000000000000000011111100000000000000000000000000000000001111111100000000000000000000000011111111100000011111111110000000000000000
00000000000000000111111110000001111111110000000000000000000000111111100000000000000000111111100000000000000000000000000000000000111111100011110000000000000000011111111111000011111111110000000000000000
00000000000000000111111111100111111111100000000000000000000000111111100000000000000001111111100000000000000000000000000000000000111111111111110000000000000000001111111111111111111111110000000000000000
00000000000000000011111111111111111111100000000000000000000000111111100000000000000001111111100000000000000000000000000000000000111111111111110000000000000000000111111111111111111111100000000000000000
00000000000000000011111111111111111111000000000000000000000000111111100000000000000011111111000000000000000000000000000000000000111111111111110000000000000000000111111111111111111111100000000000000000
00000000000000000011111111111111111110000000000000000000000001111111100000000000000111111111000000000000000000000000000000000000111111111111110000000000000000000011111111111111111111100000000000000000
00000000000000000011111111111111111000000000000000000000000001111111100000000000001111111110000000000000000000000000000000000001111111111111110000000000000000000001111111111111111111000000000000000000
00000000000000000001111111111111111000000000000000000000000001111111100000000000011111111100000000000000000000000000000000000011111111111111110000000000000000000000111111111111111111000000000000000000
00000000000000000000111111111111100000000000000000000000000001111111110000000001111111111000000000000000000000000000000000011111111111111111000000000000000000000000001111111111111110000000000000000000
00000000000000000000001111111110000000000000000000000000000000111111111000000011111111110000000000000000000000000000000000011111111111111100000000000000000000000000000011111111111000000000000000000000
00000000000000000000000000000000000000000000000000000000000000111111111111000111111111100000000000000000000000000000000000111111111111110000000000000000000000000000000000110011100000000000000000000000
00000000000000000000000000000000000000000000000000000000000000111111111111111111111111000000000000000000000000000000000000111111111111000000000000000000000000000000000000000000000000000000000000000000
00000000000000000000000000000000000000000000000000000000000000111111111111111111111110000000000000000000000000000000000000111111111100000000000000000000000000000000000000000000000000000000000000000000
00000000000000000000000000000000000000000000000000000000000000011111111111111111111100000000000000000000000000000000000000111111111000000000000000000000000000000000000000000000000000000000000000000000
00000000000000000000000000000000000000000000000000000000000000011111111111111111110000000000000000000000000000000000000000011111000000000000000000000000000000000000000000000000000000000000000000000000
00000000000000000000000000000000000000000000000000000000000000011111111111111100000000000000000000000000000000000000000000011110000000000000000000000000000000000000000000000000000000000000000000000000
00000000000000000000000000000000000000000000000000000000000000001111111111111000000000000000000000000000000000000000000000000000000000000000000000000000000000000000000000000000000000000000000000000000
00000000000000000000000000000000000000000000000000000000000000000001101110000000000000000000000000000000000000000000000000000000000000000000000000000000000000000000000000000000000000000000000000000000
00000000000000000000000000000000000000000000000000000000000000000000000000000000000000000000000000000000000000000000000000000000000000000000000000000000000000000000000000000000000000000000000000000000
00000000000000000000000000000000000000000000000000000000000000000000000000000000000000000000000000000000000000000000000000000000000000000000000000000000000000000000000000000000000000000000000000000000
00000000000000000000000000000000000000000000000000000000000000000000000000000000000000000000000000000000000000000000000000000000000000000000000000000000000000000000000000000000000000000000000000000000
00000000000000000000000000000000000000000000000000000000000000000000000000000000000000000000000000000000000000000000000000000000000000000000000000000000000000000000000000000000000000000000000000000000
00000000000000000000000000000000000000000000000000000000000000000000000000000000000000000000000000000000000000000000000000000000000000000000000000000000000000000000000000000000000000000000000000000000
00000000000000000000000000000000000000000000000000000000000000000000000000000000000000000000000000000000000000000000000000000000000000000000000000000000000000000000000000000000000000000000000000000000
00000000000000000000000000000000000000000000000000000000000000000000000000000000000000000000000000000000000000000000000000000000000000000000000000000000000000000000000000000000000000000000000000000000
00000000000000000000000000000000000000000000000000000000000000000000000000000000000000000000000000000000000000000000000000000000000000000000000000000000000000000000000000000000000000000000000000000000
