P1
50 70
00000000000000000000000000000000000000000000000000
00000000000000000000000000000000000000000000000000
00000000000000000000000000000000000000000000000000
00000000000000000000000000000000000000000000000000
00000000000000000000000000000000000000000000000000
00000000000000000000000000000000000000000000000000
00000000000000000000000000000000000000000000000000
00000000000000000000000000000000000000000000000000
00000000000000000000000000000000000000000000000000
00000000000000000000000000000000000000000000000000
00000000000000000000000000000000000000000000000000
00000000000000000000000000000000000000000000000000
00000000000000000000000000000000000000000000000000
00000000000000000000000000000000000000000000000000
00000000000000000000000000000000000000000000000000
00000000000000000000000000000000000000000000000000
00000000000000000000000000111000000000000000000000
00000000000000000000000011111110000000000000000000
00000000000000000000000111111111000000000000000000
00000000000000000000001111111111000000000000000000
00000000000000000000001110001111100000000000000000
00000000000000000000011100000111100000000000000000
00000000000000000000011100000011100000000000000000
00000000000000000000111000000011110000000000000000
00000000000000000000111000000001110000000000000000
00000000000000000000110000000001110000000000000000
00000000000000000001110000000001110000000000000000
00000000000000000001110000000001110000000000000000
00000000000000000011100000000000110000000000000000
00000000000000000011100000000000110000000000000000
00000000000000000011100000000001110000000000000000
00000000000000000011100000000001111000000000000000
00000000000000000011100000000000111000000000000000
00000000000000000111000000000000111000000000000000
00000000000000000111000000000000111000000000000000
00000000000000000111000000000000111000000000000000
00000000000000000111000000000000111000000000000000
00000000000000000111000000000000111000000000000000
00000000000000000111000000000000111000000000000000
00000000000000000111000000000000111000000000000000
00000000000000001111000000000001110000000000000000
00000000000000001110000000000001110000000000000000
00000000000000001110000000000001110000000000000000
00000000000000001110000000000011110000000000000000
00000000000000001110000000000011110000000000000000
00000000000000001110000000000111100000000000000000
00000000000000001110000000000111100000000000000000
00000000000000001110000000000111000000000000000000
00000000000000001111000000001110000000000000000000
00000000000000001111000000111110000000000000000000
00000000000000001111000001111100000000000000000000
00000000000000001111101111111000000000000000000000
00000000000000001111111111110000000000000000000000
00000000000000001111111111100000000000000000000000
00000000000000000111111100000000000000000000000000
00000000000000000001111000000000000000000000000000
00000000000000000000000000000000000000000000000000
00000000000000000000000000000000000000000000000000
00000000000000000000000000000000000000000000000000
00000000000000000000000000000000000000000000000000
00000000000000000000000000000000000000000000000000
00000000000000000000000000000000000000000000000000
00000000000000000000000000000000000000000000000000
00000000000000000000000000000000000000000000000000
00000000000000000000000000000000000000000000000000
00000000000000000000000000000000000000000000000000
00000000000000000000000000000000000000000000000000
00000000000000000000000000000000000000000000000000
00000000000000000000000000000000000000000000000000
00000000000000000000000000000000000000000000000000
