P1
50 70
00000000000000000000000000000000000000000000000000
00000000000000000000000000000000000000000000000000
00000000000000000000000000000000000000000000000000
00000000000000000000000000000000000000000000000000
00000000000000000000000000000000000000000000000000
00000000000000000000000000000000000000000000000000
00000000000000000000000000000000000000000000000000
00000000000000000000000000000000000000000000000000
00000000000000000000000000000000000000000000000000
00000000000000000000000000000000000000000000000000
00000000000000000000000000000000000000000000000000
00000000000000000000000111000000000000000000000000
00000000000000000000111111111110000000000000000000
00000000000000000001111111111111000000000000000000
00000000000000000111111111111111111000000000000000
00000000000000000111111111111111111100000000000000
00000000000000001111111111111111111110000000000000
00000000000000011111111111111111111111000000000000
00000000000000111111111111111111111111100000000000
00000000000000111111111111111111111111110000000000
00000000000001111111111111000011111111110000000000
00000000000001111111111100000000111111111000000000
00000000000011111111111000000000111111111000000000
00000000000011111111111000000000111111111000000000
00000000000111111111110000000000111111111100000000
00000000000111111111100000000000011111111100000000
00000000000111111111100000000000011111111100000000
00000000001111111111100000000000111111111100000000
00000000001111111111000000000000111111111000000000
00000000011111111111001111000000111111111100000000
00000000011111111110001111111000111111111100000000
00000000011111111110001111111100111111111100000000
00000000011111111110001111111101111111111000000000
00000000011111111110011111111101111111111000000000
00000000111111111100011111111001111111111000000000
00000000111111111100111111111001111111111000000000
00000000111111111100111111111011111111111000000000
00000001111111111000011111111011111111110000000000
00000001111111111000000001110111111111110000000000
00000001111111111000000000000111111111100000000000
00000000111111111000000000000111111111100000000000
00000001111111111000000000001111111111100000000000
00000001111111110000000000001111111111000000000000
00000001111111111000000000011111111111000000000000
00000001111111111000000000111111111110000000000000
00000001111111111000000001111111111110000000000000
00000001111111111000000001111111111100000000000000
00000001111111111111011111111111111000000000000000
00000001111111111111111111111111111000000000000000
00000000111111111111111111111111110000000000000000
00000000111111111111111111111111100000000000000000
00000000011111111111111111111110000000000000000000
00000000001111111111111111111000000000000000000000
00000000000111111111111111110000000000000000000000
00000000000001111111111110000000000000000000000000
00000000000000011001110000000000000000000000000000
00000000000000000000000000000000000000000000000000
00000000000000000000000000000000000000000000000000
00000000000000000000000000000000000000000000000000
00000000000000000000000000000000000000000000000000
00000000000000000000000000000000000000000000000000
00000000000000000000000000000000000000000000000000
00000000000000000000000000000000000000000000000000
00000000000000000000000000000000000000000000000000
00000000000000000000000000000000000000000000000000
00000000000000000000000000000000000000000000000000
00000000000000000000000000000000000000000000000000
00000000000000000000000000000000000000000000000000
00000000000000000000000000000000000000000000000000
00000000000000000000000000000000000000000000000000
