P1
50 70
00000000000000000000000000000000000000000000000000
00000000000000000000000000000000000000000000000000
00000000000000000000000000000000000000000000000000
00000000000000000000000000000000000000000000000000
00000000000000000000000000000000000000000000000000
00000000000000000000000000000000000000000000000000
00000000000000000000000000000000000000000000000000
00000000000000000000000000000000000000000000000000
00000000000000000000000000000000000000000000000000
00000000000000000000000000000000000000000000000000
00000000000000000000000000000000000000000000000000
00000000000000000000000000000000000000000000000000
00000000000000000000000000000000000000000000000000
00000000000000000000000000000000000000000000000000
00000000000000000000000000000000000000000000000000
00000000000000000000000000001111000000000000000000
00000000000000000000000000011111100000000000000000
00000000000000000000000001111111100000000000000000
00000000000000000000000011111111110000000000000000
00000000000000000000000011111111111000000000000000
00000000000000000000000111111111111000000000000000
00000000000000000000001111111111111000000000000000
00000000000000000000001111111111111000000000000000
00000000000000000000011111111111111000000000000000
00000000000000000000111111101111111100000000000000
00000000000000000000111111000111111100000000000000
00000000000000000000111110000011111100000000000000
00000000000000000000111110000011111100000000000000
00000000000000000001111100000011111100000000000000
00000000000000000001111100000011111100000000000000
00000000000000000001111100000011111100000000000000
00000000000000000001111100000011111100000000000000
00000000000000000011111100000011111100000000000000
00000000000000000011111100000011111100000000000000
00000000000000000011111100000011111100000000000000
00000000000000000011111100000011111100000000000000
00000000000000000011111100000011111100000000000000
00000000000000000111111100000011111100000000000000
00000000000000000111111100000011111100000000000000
00000000000000000111111100000011111100000000000000
00000000000000000111111100000011111100000000000000
00000000000000000111111100000011111100000000000000
00000000000000000111111100000011111100000000000000
00000000000000000011111100000011111100000000000000
00000000000000000111111100000111111000000000000000
00000000000000000111111100000111111000000000000000
00000000000000000111111100000111111000000000000000
00000000000000000111111100000111111000000000000000
00000000000000000111111100001111110000000000000000
00000000000000000111111100001111110000000000000000
00000000000000000111111100011111110000000000000000
00000000000000000111111110111111100000000000000000
00000000000000000111111111111111100000000000000000
00000000000000000111111111111111000000000000000000
00000000000000000011111111111110000000000000000000
00000000000000000011111111111110000000000000000000
00000000000000000011111111111100000000000000000000
00000000000000000011111111111000000000000000000000
00000000000000000001111111110000000000000000000000
00000000000000000000111111000000000000000000000000
00000000000000000000001100000000000000000000000000
00000000000000000000000000000000000000000000000000
00000000000000000000000000000000000000000000000000
00000000000000000000000000000000000000000000000000
00000000000000000000000000000000000000000000000000
00000000000000000000000000000000000000000000000000
00000000000000000000000000000000000000000000000000
00000000000000000000000000000000000000000000000000
00000000000000000000000000000000000000000000000000
00000000000000000000000000000000000000000000000000
