P1
50 70
00000000000000000000000000000000000000000000000000
00000000000000000000000000000000000000000000000000
00000000000000000000000000000000000000000000000000
00000000000000000000000000000000000000000000000000
00000000000000000000000000000000000000000000000000
00000000000000000000000000000000000000000000000000
00000000000000000000000000000000000000000000000000
00000000000000000000000000000000000000000000000000
00000000000000000000000000000000000000000000000000
00000000000000000000000000000000000000000000000000
00000000000000000000000000000000000000000000000000
00000000000000000000000000000000000000000000000000
00000000000000000000000000000000000000000000000000
00000000000000000000000000000000000000000000000000
00000000000000000000000000000000000000000000000000
00000000000000000000000000000000000000000000000000
00000000000000000000000000000000000000000000000000
00000000000000000000000000000000000000000000000000
00000000000000000000000000000000000000000000000000
00000000000000000000000000000001000000000000000000
00000000000000000000000000001111111100000000000000
00000000000000000000000000111111111110000000000000
00000000000000000000000011111111111111000000000000
00000000000000000000001111111000011111100000000000
00000000000000000000011111111000011111100000000000
00000000000000000000111111110000111111100000000000
00000000000000000001111111100000111111110000000000
00000000000000000011111111000000111111110000000000
00000000000000000111111111000000111111100000000000
00000000000000000111111111000001111111100000000000
00000000000000001111111110000001111111100000000000
00000000000000011111111110000001111111100000000000
00000000000000011111111100000011111111100000000000
00000000000000111111111100000111111111100000000000
00000000000001111111111000000111111111100000000000
00000000000001111111111000000111111111000000000000
00000000000001111111111000001111111111000000000000
00000000000001111111110000001111111111000000000000
00000000000011111111100000001111111110000000000000
00000000000011111111100000011111111110000000000000
00000000000011111111100000111111111100000000000000
00000000000011111111100000111111111100000000000000
00000000000111111111000000111111111000000000000000
00000000000111111111000001111111111000000000000000
00000000000111111110000001111111110000000000000000
00000000000011111110000011111111110000000000000000
00000000000111111100000011111111100000000000000000
00000000000111111100000111111111100000000000000000
00000000000011111100000111111111000000000000000000
00000000000011111100001111111110000000000000000000
00000000000011111000001111111100000000000000000000
00000000000011111000011111111000000000000000000000
00000000000001111000111111110000000000000000000000
00000000000001111101111111100000000000000000000000
00000000000000111111111111000000000000000000000000
00000000000000011111111110000000000000000000000000
00000000000000001111111000000000000000000000000000
00000000000000000000000000000000000000000000000000
00000000000000000000000000000000000000000000000000
00000000000000000000000000000000000000000000000000
00000000000000000000000000000000000000000000000000
00000000000000000000000000000000000000000000000000
00000000000000000000000000000000000000000000000000
00000000000000000000000000000000000000000000000000
00000000000000000000000000000000000000000000000000
00000000000000000000000000000000000000000000000000
00000000000000000000000000000000000000000000000000
00000000000000000000000000000000000000000000000000
00000000000000000000000000000000000000000000000000
00000000000000000000000000000000000000000000000000
