P1
50 70
00000000000000000000000000000000000000000000000000
00000000000000000000000000000000000000000000000000
00000000000000000000000000000000000000000000000000
00000000000000000000000000000000000000000000000000
00000000000000000000000000000000000000000000000000
00000000000000000000000000000000000000000000000000
00000000000000000000000000000000000000000000000000
00000000000000000000000000000000000000000000000000
00000000000000000000000000000000000000000000000000
00000000000000000000000000000000000000000000000000
00000000000000000000000000000000000000000000000000
00000000000000000000000000000000000000000000000000
00000000000000000000000000000000000000000000000000
00000000000000000000000000000000000000000000000000
00000000000000000000000000000000000000000000000000
00000000000000000000000000000000000000000000000000
00000000000000000000000001111111000000000000000000
00000000000000000000000111111111000000000000000000
00000000000000000000001111111111100000000000000000
00000000000000000000111111111111110000000000000000
00000000000000000001111111111111110000000000000000
00000000000000000111111111111111110000000000000000
00000000000000000111100011111111110000000000000000
00000000000000001111000011111111111000000000000000
00000000000000011111000001111111111000000000000000
00000000000000111111000001111111110000000000000000
00000000000000111110000001111111110000000000000000
00000000000001111110000001111111110000000000000000
00000000000001111110000001111111110000000000000000
00000000000001111110000001111111111000000000000000
00000000000001111110000000111111110000000000000000
00000000000011111110000000111111110000000000000000
00000000000011111110000000111111110000000000000000
00000000000111111110000000111111110000000000000000
00000000000111111110000000011111110000000000000000
00000000000111111110000000111111110000000000000000
00000000000111111110000000111111110000000000000000
00000000000111111110000000111111110000000000000000
00000000000011111110000000111111100000000000000000
00000000000011111110000000111111100000000000000000
00000000000011111110000000111111100000000000000000
00000000000011111111000000111111100000000000000000
00000000000011111111000000111111000000000000000000
00000000000011111111000000111111000000000000000000
00000000000001111111100000111110000000000000000000
00000000000001111111100000111110000000000000000000
00000000000001111111100000111100000000000000000000
00000000000001111111110000111100000000000000000000
00000000000001111111100001111000000000000000000000
00000000000000111111110011111000000000000000000000
00000000000000111111111111110000000000000000000000
00000000000000011111111111100000000000000000000000
00000000000000011111111111000000000000000000000000
00000000000000001111111110000000000000000000000000
00000000000000000111111000000000000000000000000000
00000000000000000001000000000000000000000000000000
00000000000000000000000000000000000000000000000000
00000000000000000000000000000000000000000000000000
00000000000000000000000000000000000000000000000000
00000000000000000000000000000000000000000000000000
00000000000000000000000000000000000000000000000000
00000000000000000000000000000000000000000000000000
00000000000000000000000000000000000000000000000000
00000000000000000000000000000000000000000000000000
00000000000000000000000000000000000000000000000000
00000000000000000000000000000000000000000000000000
00000000000000000000000000000000000000000000000000
00000000000000000000000000000000000000000000000000
00000000000000000000000000000000000000000000000000
00000000000000000000000000000000000000000000000000
