P1
50 70
00000000000000000000000000000000000000000000000000
00000000000000000000000000000000000000000000000000
00000000000000000000000000000000000000000000000000
00000000000000000000000000000000000000000000000000
00000000000000000000000000000000000000000000000000
00000000000000000000000000000000000000000000000000
00000000000000000000000000000000000000000000000000
00000000000000000000000000000000000000000000000000
00000000000000000000000000000000000000000000000000
00000000000000000000000000000000000000000000000000
00000000000000000000000000000000000000000000000000
00000000000000000000000000000000000000000000000000
00000000000000000000000001110000000000000000000000
00000000000000000000111111111110000000000000000000
00000000000000001111111111111111000000000000000000
00000000000000011111111111111111110000000000000000
00000000000000111111111111111111111000000000000000
00000000000001111111111111111111111100000000000000
00000000000011111111111111111111111100000000000000
00000000000011111111111111111111111100000000000000
00000000000111111111111111111111111110000000000000
00000000001111111111111011111111111111000000000000
00000000001111111111100000111111111111000000000000
00000000001111111111000000011111111111000000000000
00000000011111111110000000001111111111000000000000
00000000011111111100000000001111111111000000000000
00000000011111111100000000001111111111100000000000
00000000111111111100000000000111111111100000000000
00000000111111111100000000000111111111100000000000
00000000111111111100000000000111111111100000000000
00000000111111111100000000000011111111100000000000
00000000111111111100000000000011111111100000000000
00000000111111111100000000000011111111110000000000
00000000111111111100000001100011111111110000000000
00000000111111111100111111110011111111110000000000
00000000111111111100111111110011111111110000000000
00000000111111111100111111110011111111110000000000
00000000111111111100111111110011111111110000000000
00000000111111111000011111110001111111110000000000
00000000111111111000011111110001111111110000000000
00000000011111111100011111110001111111110000000000
00000000011111111100011111110001111111110000000000
00000000011111111100111111110011111111110000000000
00000000011111111100011110000011111111110000000000
00000000011111111110000000000011111111110000000000
00000000011111111110000000000011111111110000000000
00000000011111111110000000000011111111100000000000
00000000011111111110000000000011111111100000000000
00000000011111111110000000000011111111100000000000
00000000001111111110000000000011111111100000000000
00000000001111111111000000000011111111100000000000
00000000000111111111000000000011111111100000000000
00000000000111111111100000000111111111000000000000
00000000000111111111110000000111111111000000000000
00000000000111111111110000001111111111000000000000
00000000000011111111111110111111111110000000000000
00000000000011111111111111111111111110000000000000
00000000000001111111111111111111111100000000000000
00000000000001111111111111111111111100000000000000
00000000000000111111111111111111111000000000000000
00000000000000011111111111111111110000000000000000
00000000000000011111111111111111100000000000000000
00000000000000000111111111111111000000000000000000
00000000000000000011111111111100000000000000000000
00000000000000000000111110000000000000000000000000
00000000000000000000000000000000000000000000000000
00000000000000000000000000000000000000000000000000
00000000000000000000000000000000000000000000000000
00000000000000000000000000000000000000000000000000
00000000000000000000000000000000000000000000000000
