P1
50 70
00000000000000000000000000000000000000000000000000
00000000000000000000000000000000000000000000000000
00000000000000000000000000000000000000000000000000
00000000000000000000000000000000000000000000000000
00000000000000000000000000000000000000000000000000
00000000000000000000000000000000000000000000000000
00000000000000000000000000000000000000000000000000
00000000000000000000000000000000000000000000000000
00000000000000000000000000000000000000000000000000
00000000000000000000000000000000000000000000000000
00000000000000000000000000000000000000000000000000
00000000000000000000000000000000000000000000000000
00000000000000000000000000000000000000000000000000
00000000000000000000000000100000000000000000000000
00000000000000000000001111111110000000000000000000
00000000000000000000111111111111000000000000000000
00000000000000000001111111111111100000000000000000
00000000000000000001111111111111110000000000000000
00000000000000000011111111111111111000000000000000
00000000000000000111111111111111111100000000000000
00000000000000000111111100011111111100000000000000
00000000000000001111111000000111111100000000000000
00000000000000001111110000000011111100000000000000
00000000000000001111100000000001111100000000000000
00000000000000011111100000000001111110000000000000
00000000000000011111100000000001111110000000000000
00000000000000111111000000000001111110000000000000
00000000000000111111000000000001111111000000000000
00000000000000111111000000000000111111000000000000
00000000000001111111000000000000111111000000000000
00000000000001111111000000000000111111000000000000
00000000000001111110000000000000111111000000000000
00000000000001111110000000000001111111000000000000
00000000000001111110000000000000111111000000000000
00000000000011111110000111100000111110000000000000
00000000000011111100000111110000111110000000000000
00000000000011111100001111111000111110000000000000
00000000000001111100001111111000111110000000000000
00000000000011111100001111111000111111000000000000
00000000000011111100011111111000111111000000000000
00000000000011111100011111111001111110000000000000
00000000000011111100001111110001111110000000000000
00000000000011111100001111100001111110000000000000
00000000000011111100000000000001111110000000000000
00000000000111111100000000000001111110000000000000
00000000000111111100000000000011111110000000000000
00000000000111111000000000000011111100000000000000
00000000000111111000000000000011111100000000000000
00000000000111111000000000000011111100000000000000
00000000000111111000000000000111111000000000000000
00000000000111111000000000000111111000000000000000
00000000000011111000000000000111111000000000000000
00000000000011111000000000000111111000000000000000
00000000000111111100000000001111111000000000000000
00000000000011111100000000001111110000000000000000
00000000000011111100000000011111110000000000000000
00000000000011111110000000011111100000000000000000
00000000000011111110000000111111100000000000000000
00000000000011111111000001111111100000000000000000
00000000000011111111110111111111000000000000000000
00000000000001111111111111111110000000000000000000
00000000000001111111111111111100000000000000000000
00000000000000111111111111111000000000000000000000
00000000000000111111111111100000000000000000000000
00000000000000011111111111000000000000000000000000
00000000000000001111111100000000000000000000000000
00000000000000000000000000000000000000000000000000
00000000000000000000000000000000000000000000000000
00000000000000000000000000000000000000000000000000
00000000000000000000000000000000000000000000000000
