P1
50 70
00000000000000000000000000000000000000000000000000
00000000000000000000000000000000000000000000000000
00000000000000000000000000000000000000000000000000
00000000000000000000000000000000000000000000000000
00000000000000000000000000000000000000000000000000
00000000000000000000000000000000000000000000000000
00000000000000000000000000000000000000000000000000
00000000000000000000000000000000000000000000000000
00000000000000000000000000000000000000000000000000
00000000000000000000000000000000000000000000000000
00000000000000000000000000000000000000000000000000
00000000000000000000000000000000000000000000000000
00000000000000000000000000000000000000000000000000
00000000000000000000001111100000000000000000000000
00000000000000000001111111111110000000000000000000
00000000000000000011111111111111100000000000000000
00000000000000000111111111111111110000000000000000
00000000000000000111111111111111110000000000000000
00000000000000001111111111111111111000000000000000
00000000000000001111111111111111111100000000000000
00000000000000011111111100001111111100000000000000
00000000000000111111111000001111111100000000000000
00000000000000111111111000000111111110000000000000
00000000000000111111110000000111111110000000000000
00000000000000111111110000000011111110000000000000
00000000000001111111110000000011111110000000000000
00000000000001111111100000000111111110000000000000
00000000000001111111100000000111111110000000000000
00000000000001111111000111100011111110000000000000
00000000000011111111001111110011111110000000000000
00000000000011111111001111110011111111000000000000
00000000000011111110001111110011111111000000000000
00000000000011111110011111110011111111000000000000
00000000000111111110011111110111111111000000000000
00000000000011111111000111110111111110000000000000
00000000000011111110000011110111111110000000000000
00000000000011111111000000000111111110000000000000
00000000000011111111000000000111111110000000000000
00000000000011111111000000000111111110000000000000
00000000000011111111000000001111111110000000000000
00000000000011111111000000001111111110000000000000
00000000000001111111100000011111111110000000000000
00000000000001111111100000011111111110000000000000
00000000000000111111110000011111111110000000000000
00000000000000111111111000111111111110000000000000
00000000000000111111111111111111111100000000000000
00000000000000011111111111111111111100000000000000
00000000000000000111111111111111111100000000000000
00000000000000000011111111111111111100000000000000
00000000000000000011111111111111111000000000000000
00000000000000000000111111111111111000000000000000
00000000000000000000011111111111110000000000000000
00000000000000000000000111111111110000000000000000
00000000000000000000000001111111000000000000000000
00000000000000000000000000011110000000000000000000
00000000000000000000000000000000000000000000000000
00000000000000000000000000000000000000000000000000
00000000000000000000000000000000000000000000000000
00000000000000000000000000000000000000000000000000
00000000000000000000000000000000000000000000000000
00000000000000000000000000000000000000000000000000
00000000000000000000000000000000000000000000000000
00000000000000000000000000000000000000000000000000
00000000000000000000000000000000000000000000000000
00000000000000000000000000000000000000000000000000
00000000000000000000000000000000000000000000000000
00000000000000000000000000000000000000000000000000
00000000000000000000000000000000000000000000000000
00000000000000000000000000000000000000000000000000
00000000000000000000000000000000000000000000000000
