P1
50 70
00000000000000000000000000000000000000000000000000
00000000000000000000000000000000000000000000000000
00000000000000000000000000000000000000000000000000
00000000000000000000000000000000000000000000000000
00000000000000000000000000000000000000000000000000
00000000000000000000000000000000000000000000000000
00000000000000000000000000000000000000000000000000
00000000000000000000000000000000000000000000000000
00000000000000000000000000000000000000000000000000
00000000000000000000000000000000000000000000000000
00000000000000000000000000000000000000000000000000
00000000000000000000000000000000000000000000000000
00000000000000000000000000000000000000000000000000
00000000000000000000000000000000000000000000000000
00000000000000000000000011000000000000000000000000
00000000000000000000011111111110000000000000000000
00000000000000000000111111111111000000000000000000
00000000000000000000111111111111100000000000000000
00000000000000000001111111111111110000000000000000
00000000000000000011111111011111110000000000000000
00000000000000000111111000001111111000000000000000
00000000000000001111110000000111111000000000000000
00000000000000001111110000000011111100000000000000
00000000000000011111100000000011111100000000000000
00000000000000011111000000000011111100000000000000
00000000000000111111000000000111111110000000000000
00000000000000111110000000000111111110000000000000
00000000000001111110000000001111111111000000000000
00000000000001111100000000011111111111000000000000
00000000000001111100000000111111111111000000000000
00000000000001111100000001111111111111000000000000
00000000000011111000000001111110111111000000000000
00000000000011111000000011111100011111000000000000
00000000000011111000000011111000011111000000000000
00000000000011111000000111110000011111000000000000
00000000000011111000001111100000011111000000000000
00000000000011111000011111100000011111000000000000
00000000000011111100111111000000011111000000000000
00000000000011111101111110000000011111000000000000
00000000000011111111111100000000111111000000000000
00000000000011111111111100000000111111000000000000
00000000000011111111111000000000111111000000000000
00000000000011111111110000000000111110000000000000
00000000000011111111100000000000111110000000000000
00000000000011111111000000000001111100000000000000
00000000000001111111000000000011111100000000000000
00000000000001111111000000000011111100000000000000
00000000000000111111000000000111111000000000000000
00000000000000111111110000001111110000000000000000
00000000000000111111111000111111100000000000000000
00000000000000011111111111111111000000000000000000
00000000000000001111111111111110000000000000000000
00000000000000000111111111111110000000000000000000
00000000000000000001111111111100000000000000000000
00000000000000000000111110000000000000000000000000
00000000000000000000000000000000000000000000000000
00000000000000000000000000000000000000000000000000
00000000000000000000000000000000000000000000000000
00000000000000000000000000000000000000000000000000
00000000000000000000000000000000000000000000000000
00000000000000000000000000000000000000000000000000
00000000000000000000000000000000000000000000000000
00000000000000000000000000000000000000000000000000
00000000000000000000000000000000000000000000000000
00000000000000000000000000000000000000000000000000
00000000000000000000000000000000000000000000000000
00000000000000000000000000000000000000000000000000
00000000000000000000000000000000000000000000000000
00000000000000000000000000000000000000000000000000
00000000000000000000000000000000000000000000000000
