P1
50 70
00000000000000000000000000000000000000000000000000
00000000000000000000000000000000000000000000000000
00000000000000000000000000000000000000000000000000
00000000000000000000000000000000000000000000000000
00000000000000000000000000000000000000000000000000
00000000000000000000000000000000000000000000000000
00000000000000000000000000000000000000000000000000
00000000000000000000000000000000000000000000000000
00000000000000000000000000000000000000000000000000
00000000000000000000000000000000000000000000000000
00000000000000000000000000000000000000000000000000
00000000000000000000000000000000000000000000000000
00000000000000000000000000000000000000000000000000
00000000000000000000000000000000000000000000000000
00000000000000000000000000000000000000000000000000
00000000000000000000000000000000000000000000000000
00000000000000000000000000000000000000000000000000
00000000000000000000000000000000000000000000000000
00000000000000000001111110000000000000000000000000
00000000000000000111111111000000000000000000000000
00000000000000000111111111110000000000000000000000
00000000000000000111111111111100000000000000000000
00000000000000000111111111111111000000000000000000
00000000000000001111111111111111100000000000000000
00000000000000000111111111111111110000000000000000
00000000000000001111111111111111111000000000000000
00000000000000001111111111111111111100000000000000
00000000000000001111111111111111111100000000000000
00000000000000001111111110001111111110000000000000
00000000000000001111111100000011111111000000000000
00000000000000001111111100000011111111000000000000
00000000000000001111111100000001111111000000000000
00000000000000001111111100000001111111100000000000
00000000000000001111111100000000111111100000000000
00000000000000001111111100000000111111100000000000
00000000000000001111111100000000111111100000000000
00000000000000000111111100000000111111100000000000
00000000000000000111111000000000111111100000000000
00000000000000001111111000000000111111100000000000
00000000000000001111111100000000111111100000000000
00000000000000001111111100000000111111100000000000
00000000000000000111111100000000111111100000000000
00000000000000000111111100000000111111100000000000
00000000000000000111111100000000111111100000000000
00000000000000000111111100000000111111100000000000
00000000000000000111111100000000111111100000000000
00000000000000000111111100000000111111100000000000
00000000000000000111111100000001111111100000000000
00000000000000000011111100000001111111100000000000
00000000000000000011111100000001111111000000000000
00000000000000000011111100000001111111000000000000
00000000000000000011111110000001111111000000000000
00000000000000000011111110000011111110000000000000
00000000000000000001111111000011111110000000000000
00000000000000000001111111100111111110000000000000
00000000000000000001111111111111111100000000000000
00000000000000000000111111111111111100000000000000
00000000000000000000111111111111111100000000000000
00000000000000000000011111111111111000000000000000
00000000000000000000001111111111110000000000000000
00000000000000000000000111111111100000000000000000
00000000000000000000000001111110000000000000000000
00000000000000000000000000000000000000000000000000
00000000000000000000000000000000000000000000000000
00000000000000000000000000000000000000000000000000
00000000000000000000000000000000000000000000000000
00000000000000000000000000000000000000000000000000
00000000000000000000000000000000000000000000000000
00000000000000000000000000000000000000000000000000
00000000000000000000000000000000000000000000000000
