P1
50 70
00000000000000000000000000000000000000000000000000
00000000000000000000000000000000000000000000000000
00000000000000000000000000000000000000000000000000
00000000000000000000000000000000000000000000000000
00000000000000000000000000000000000000000000000000
00000000000000000000000000000000000000000000000000
00000000000000000000000000000000000000000000000000
00000000000000000000000000000000000000000000000000
00000000000000000000000000000000000000000000000000
00000000000000000000000000000000000000000000000000
00000000000000000000000000000000000000000000000000
00000000000000000000000000000000000000000000000000
00000000000000000000000000000000000000000000000000
00000000000000000000000000000000000000000000000000
00000000000000000000000000000000000000000000000000
00000000000000000000000000000000000000000000000000
00000000000000000000000000000000000000000000000000
00000000000000000000000000000000000000000000000000
00000000000000000000000000000000000000000000000000
00000000000000000000111111000000000000000000000000
00000000000000000001111111110000000000000000000000
00000000000000000011111111111000000000000000000000
00000000000000000111111111111100000000000000000000
00000000000000000111111101111110000000000000000000
00000000000000001111111000111111000000000000000000
00000000000000001111111000111111000000000000000000
00000000000000011111110000111111000000000000000000
00000000000000011111110000011111100000000000000000
00000000000000111111110000011111100000000000000000
00000000000000111111110000011111110000000000000000
00000000000000111111110000011111110000000000000000
00000000000000111111110000011111110000000000000000
00000000000001111111110000011111110000000000000000
00000000000001111111100000011111110000000000000000
00000000000001111111100000011111110000000000000000
00000000000001111111100000011111111000000000000000
00000000000001111111100000011111111000000000000000
00000000000001111111100000001111111000000000000000
00000000000001111111100000001111111100000000000000
00000000000011111111000000001111111000000000000000
00000000000111111111000000011111111000000000000000
00000000000111111111000000011111111000000000000000
00000000000111111111000000011111111000000000000000
00000000000111111111000000011111111000000000000000
00000000000111111111000000011111111100000000000000
00000000000111111111000000011111111100000000000000
00000000000011111111000000011111111100000000000000
00000000000011111111000000011111111000000000000000
00000000000011111111000000011111111000000000000000
00000000000011111111000000011111111000000000000000
00000000000011111111000000111111111100000000000000
00000000000011111111000000111111111100000000000000
00000000000011111111000000111111111000000000000000
00000000000001111111000000111111111000000000000000
00000000000000111111100001111111110000000000000000
00000000000000111111100001111111110000000000000000
00000000000000011111110011111111110000000000000000
00000000000000001111111111111111100000000000000000
00000000000000000111111111111111000000000000000000
00000000000000000011111111111110000000000000000000
00000000000000000000000011111000000000000000000000
00000000000000000000000001000000000000000000000000
00000000000000000000000000000000000000000000000000
00000000000000000000000000000000000000000000000000
00000000000000000000000000000000000000000000000000
00000000000000000000000000000000000000000000000000
00000000000000000000000000000000000000000000000000
00000000000000000000000000000000000000000000000000
00000000000000000000000000000000000000000000000000
00000000000000000000000000000000000000000000000000
