P1
50 70
00000000000000000000000000000000000000000000000000
00000000000000000000000000000000000000000000000000
00000000000000000000000000000000000000000000000000
00000000000000000000000000000000000000000000000000
00000000000000000000000000000000000000000000000000
00000000000000000000000000000000000000000000000000
00000000000000000000000000000000000000000000000000
00000000000000000000000000000000000000000000000000
00000000000000000000000000000000000000000000000000
00000000000000000000000000000000000000000000000000
00000000000000000000000000000000000000000000000000
00000000000000000000000000000000000000000000000000
00000000000000000000000000000000000000000000000000
00000000000000000000000000000000000000000000000000
00000000000000000000000000000000000000000000000000
00000000000000000000000000000000000000000000000000
00000000000000000000000000000000000000000000000000
00000000000000000000000000000000000000000000000000
00000000000000000000000000000000000000000000000000
00000000000000000111110000000000000000000000000000
00000000000000001111110000000000000000000000000000
00000000000000011111111000000000000000000000000000
00000000000000111111111000000000000000000000000000
00000000000001111111111000000000000000000000000000
00000000000011111111111000000000000000000000000000
00000000000011111101111100000000000000000000000000
00000000000111111000111100000000000000000000000000
00000000000111110000111100000000000000000000000000
00000000001111100000111100000000000000000000000000
00000000001111100000111100000000000000000000000000
00000000000111100000011110000000000000000000000000
00000000000011000000011110000000000000000000000000
00000000000000000000011110000000000000000000000000
00000000000000000000011110000000000000000000000000
00000000000000000000001110000000000000000000000000
00000000000000000000001110000000000000000000000000
00000000000000000000001110000000000000000000000000
00000000000000000000001111000000000000000000000000
00000000000000000000000111000000000000000000000000
00000000000000000000000111000000000000000000000000
00000000000000000000000111000000000000000000000000
00000000000000000000000011100000000000000000000000
00000000000000000000000011100000000000000000000000
00000000000000000000000011100000000000000000000000
00000000000000000000000011100000000000000000000000
00000000000000000000000001110000000000000000000000
00000000000000000000000001110000000000000000000000
00000000000000000000000001110000000000000000000000
00000000000000000000000001110000000000000000000000
00000000000000000000000000111000000000000000000000
00000000000000000000000000111000000000000000000000
00000000000000000000000000111000000111000000000000
00000000000000000000000000111100011111000000000000
00000000000000000000000000011111111111000000000000
00000000000000000000000000011111111100000000000000
00000000000000000000000000111111111000000000000000
00000000000000000000000011111111000000000000000000
00000000000000000000001111111110000000000000000000
00000000000000000000111111110000000000000000000000
00000000000000000001111111100000000000000000000000
00000000000000000001111100000000000000000000000000
00000000000000000000111000000000000000000000000000
00000000000000000000000000000000000000000000000000
00000000000000000000000000000000000000000000000000
00000000000000000000000000000000000000000000000000
00000000000000000000000000000000000000000000000000
00000000000000000000000000000000000000000000000000
00000000000000000000000000000000000000000000000000
00000000000000000000000000000000000000000000000000
00000000000000000000000000000000000000000000000000
