P1
50 70
00000000000000000000000000000000000000000000000000
00000000000000000000000000000000000000000000000000
00000000000000000000000000000000000000000000000000
00000000000000000000000000000000000000000000000000
00000000000000000000000000000000000000000000000000
00000000000000000000000000000000000000000000000000
00000000000000000000000000000000000000000000000000
00000000000000000000000000000000000000000000000000
00000000000000000000000000000000000000000000000000
00000000000000000000000000000000000000000000000000
00000000000000000000000000000000000000000000000000
00000000000000000011000000000000000000000000000000
00000000000000000111000000000000000000000000000000
00000000000000001111100000000000000000000000000000
00000000000000011111110000000000000000000000000000
00000000000000111111110000000000000000000000000000
00000000000001111111110000000000000000000000000000
00000000000001111011110000000000000000000000000000
00000000000011111001111000000000000000000000000000
00000000000111110001111000000000000000000000000000
00000000001111100001111000000000000000000000000000
00000000001111000001111000000000000000000000000000
00000000001110000000111100000000000000000000000000
00000000000110000000111100000000000000000000000000
00000000000000000000111100000000000000000000000000
00000000000000000000111100000000000000000000000000
00000000000000000000111100000000000000000000000000
00000000000000000000011110000000000000000000000000
00000000000000000000011110000000000000000000000000
00000000000000000000011110000000000000000000000000
00000000000000000000011110000000000000000000000000
00000000000000000000001110000000000000000000000000
00000000000000000000001111000000000000000000000000
00000000000000000000001111000000000000000000000000
00000000000000000000001111000000000000000000000000
00000000000000000000001111000000000000000000000000
00000000000000000000000111000000000000000000000000
00000000000000000000000111100000000000000000000000
00000000000000000000000111100000000000000000000000
00000000000000000000000111100000000000000000000000
00000000000000000000000111110000000000000000000000
00000000000000000000000011111000000000000000000000
00000000000000000000000011111000000000000000000000
00000000000000000000000001111000000000000000000000
00000000000000000000000001111000000000000000000000
00000000000000000000000001111000000000000000000000
00000000000000000000000000111100000000000000000000
00000000000000000000000000111100000000000000000000
00000000000000000000000000111100000000000000000000
00000000000000000000000000111100000000000000000000
00000000000000000000000000011100000000000000000000
00000000000000000000000000011110000000000000000000
00000000000000000000000000011110000000000000000000
00000000000000000000000000011110000000000000000000
00000000000000000000000000011110000000000000000000
00000000000000000000000000001111000000000000000000
00000000000000000000000000001111000000000000000000
00000000000000000000000000001111100000000011000000
00000000000000000000000000001111100001111111100000
00000000000000000000000000001111111111111111100000
00000000000000000000000000011111111111111111000000
00000000000000000000000111111111111111100000000000
00000000000000000011111111111111110000000000000000
00000000000000000111111111111100000000000000000000
00000000000000000111111110000000000000000000000000
00000000000000000011000000000000000000000000000000
00000000000000000000000000000000000000000000000000
00000000000000000000000000000000000000000000000000
00000000000000000000000000000000000000000000000000
00000000000000000000000000000000000000000000000000
