P1
50 70
00000000000000000000000000000000000000000000000000
00000000000000000000000000000000000000000000000000
00000000000000000000000000000000000000000000000000
00000000000000000000000000000000000000000000000000
00000000000000000000000000000000000000000000000000
00000000000000000000000000000000000000000000000000
00000000000000000000000000000000000000000000000000
00000000000000000000000000000000000000000000000000
00000000000000000000000000000000000000000000000000
00000000000000000000000000000000000000000000000000
00000000000000000000000000000000000000000000000000
00000000000000000000000000000000000000000000000000
00000000000000000000000000000000000000000000000000
00000000000000000000000000000000000000000000000000
00000000000000000000000000000000000000000000000000
00000000000000000000000000000000000000000000000000
00000000000000000000000000000000000000000000000000
00000000000000000000000000001110000000000000000000
00000000000000000000000000011110000000000000000000
00000000000000000000000000111110000000000000000000
00000000000000000000000001111110000000000000000000
00000000000000000000000011111110000000000000000000
00000000000000000000000111111110000000000000000000
00000000000000000000001111111110000000000000000000
00000000000000000000011111111110000000000000000000
00000000000000000000011111111110000000000000000000
00000000000000000000111111111110000000000000000000
00000000000000000001111011111110000000000000000000
00000000000000000011110011111100000000000000000000
00000000000000000111100011111100000000000000000000
00000000000000000111000011111100000000000000000000
00000000000000000110000001111100000000000000000000
00000000000000000000000001111100000000000000000000
00000000000000000000000011111100000000000000000000
00000000000000000000000011111100000000000000000000
00000000000000000000000011111100000000000000000000
00000000000000000000000011111100000000000000000000
00000000000000000000000011111100000000000000000000
00000000000000000000000011111000000000000000000000
00000000000000000000000011111000000000000000000000
00000000000000000000000011111000000000000000000000
00000000000000000000000011111000000000000000000000
00000000000000000000000111111000000000000000000000
00000000000000000000000111111000000000000000000000
00000000000000000000000111111000000000000000000000
00000000000000000000000111111000000000000000000000
00000000000000000000000111111000000000000000000000
00000000000000000000000111111000000000000000000000
00000000000000000000000111110000000000000000000000
00000000000000000000000111110000000000000000000000
00000000000000000000000111110000000000000000000000
00000000000000000000001111110000000000000000000000
00000000000000000000001111110000000000000000000000
00000000000000000000001111110000000000000000000000
00000000000000000000001111110000100000000000000000
00000000000000000000001111110011110000000000000000
00000000000000000000001111111111110000000000000000
00000000000000000000001111111111100000000000000000
00000000000000000000011111111110000000000000000000
00000000000000000001111111110000000000000000000000
00000000000000000111111111000000000000000000000000
00000000000000011111111000000000000000000000000000
00000000000000011111100000000000000000000000000000
00000000000000011100000000000000000000000000000000
00000000000000000000000000000000000000000000000000
00000000000000000000000000000000000000000000000000
00000000000000000000000000000000000000000000000000
00000000000000000000000000000000000000000000000000
00000000000000000000000000000000000000000000000000
00000000000000000000000000000000000000000000000000
