P1
50 70
00000000000000000000000000000000000000000000000000
00000000000000000000000000000000000000000000000000
00000000000000000000000000000000000000000000000000
00000000000000000000000000000000000000000000000000
00000000000000000000000000000000000000000000000000
00000000000000000000000000000000000000000000000000
00000000000000000000000000000000000000000000000000
00000000000000000000000000000000000000000000000000
00000000000000000000000000000000000000000000000000
00000000000000000000000000000000000000000000000000
00000000000000000000000000000000000000000000000000
00000000000000000000000000000000000000000000000000
00000000000000000000000000000000000000000000000000
00000000000000000000000000000000000000000000000000
00000000000000000000000000000000000000000000000000
00000000000000000000000000000000000000000000000000
00000000000000000000000000000000000000000000000000
00000000000000000000000000000000000000000000000000
00001111111111111000000000000000000000000000000000
00001111111111111111110000000000000000000000000000
00001111111111111111111110000000000000000000000000
00000111111111111111111111000000000000000000000000
00000111111111111111111111000000000000000000000000
00000111111111111111111111000000000000000000000000
00000111111111111111111111000000000000000000000000
00000001110011101111111111100000000000000000000000
00000000000000000111111111100000000000000000000000
00000000000000000111111111100000000000000000000000
00000000000000000111111111100000000000000000000000
00000000000000000111111111110000000000000000000000
00000000000000000011111111100000000000000000000000
00000000000000000011111111100000000000000000000000
00000000000000000011111111100000000000000000000000
00000000000000000011111111110000000000000000000000
00000000000000000011111111110000000000000000000000
00000000000000000011111111110000000000000000000000
00000000000000000011111111110000000000000000000000
00000000000000000011111111111000000000000000000000
00000000000000000001111111111000000000000000000000
00000000000000000001111111111000000000000000000000
00000000000000000001111111111000000000000000000000
00000000000000000001111111111100000000000000000000
00000000000000000000111111111100000000000000000000
00000000000000000000111111111100000000000000000000
00000000000000000000111111111100000000000000000000
00000000000000000000111111111100000000000000000000
00000000000011110000111111111100000000000000000000
00000000000011111111111111111100000000000000000000
00000000000011111111111111111110000000000000000000
00000000000011111111111111111111110000000000000000
00000000000011111111111111111111111111000000000000
00000000000001111111111111111111111111110000000000
00000000000001111111111111111111111111110000000000
00000000000000001111111111111111111111111000000000
00000000000000000000000011111111111111110000000000
00000000000000000000000000001111111111110000000000
00000000000000000000000000000000011111110000000000
00000000000000000000000000000000000000100000000000
00000000000000000000000000000000000000000000000000
00000000000000000000000000000000000000000000000000
00000000000000000000000000000000000000000000000000
00000000000000000000000000000000000000000000000000
00000000000000000000000000000000000000000000000000
00000000000000000000000000000000000000000000000000
00000000000000000000000000000000000000000000000000
00000000000000000000000000000000000000000000000000
00000000000000000000000000000000000000000000000000
00000000000000000000000000000000000000000000000000
00000000000000000000000000000000000000000000000000
00000000000000000000000000000000000000000000000000
