P1
50 70
00000000000000000000000000000000000000000000000000
00000000000000000000000000000000000000000000000000
00000000000000000000000000000000000000000000000000
00000000000000000000000000000000000000000000000000
00000000000000000000000000000000000000000000000000
00000000000000000000000000000000000000000000000000
00000000000000000000000000000000000000000000000000
00000000000000000000000000000000000000000000000000
00000000000000000000000000000000000000000000000000
00000000000000000000000000000000000000000000000000
00000000000000000000000000000000000000000000000000
00000000000000000000000000000000000000000000000000
00000000000000000000000000000000000000000000000000
00000000000000000000000000000000000000000000000000
00000000000000000000000000000001111111000000000000
00000000000000000000000000000111111111000000000000
00000000000000000000000001111111111111000000000000
00000000000000000000001111111111111110000000000000
00000000000000000000011111111111111110000000000000
00000000000000000011111111111111111110000000000000
00000000000000000111111111111111111110000000000000
00000000000000000111111111111111111110000000000000
00000000000000000111111111111111111110000000000000
00000000000000001111111111111111111110000000000000
00000000000000001111111111111111111110000000000000
00000000000000000111111101111111111100000000000000
00000000000000000111110000111111111100000000000000
00000000000000000111000001111111111100000000000000
00000000000000000000000001111111111100000000000000
00000000000000000000000001111111111100000000000000
00000000000000000000000001111111111100000000000000
00000000000000000000000001111111111100000000000000
00000000000000000000000011111111111100000000000000
00000000000000000000000001111111111000000000000000
00000000000000000000000001111111111000000000000000
00000000000000000000000011111111111000000000000000
00000000000000000000000011111111111000000000000000
00000000000000000000000011111111111000000000000000
00000000000000000000000011111111110000000000000000
00000000000000000000000011111111110000000000000000
00000000000000000000000111111111111000000000000000
00000000000000000000000111111111111000000000000000
00000000000000000000000011111111110000000000000000
00000000000000000000000111111111110000000000000000
00000000000000000000000111111111110000000000000000
00000000000000000000000111111111110000000000000000
00000000000000000000000111111111110000000000000000
00000000000000000000000111111111100000011000000000
00000000000000000000001111111111110111111100000000
00000000000000000000001111111111111111111100000000
00000000000000000000011111111111111111111100000000
00000000000000100111111111111111111111111100000000
00000000000000111111111111111111111111111100000000
00000000000001111111111111111111111111111100000000
00000000000001111111111111111111111111111100000000
00000000000001111111111111111111111111111000000000
00000000000001111111111111111111111111100000000000
00000000000001111111111111111110000000000000000000
00000000000001111111111000000000000000000000000000
00000000000001100100000000000000000000000000000000
00000000000000000000000000000000000000000000000000
00000000000000000000000000000000000000000000000000
00000000000000000000000000000000000000000000000000
00000000000000000000000000000000000000000000000000
00000000000000000000000000000000000000000000000000
00000000000000000000000000000000000000000000000000
00000000000000000000000000000000000000000000000000
00000000000000000000000000000000000000000000000000
00000000000000000000000000000000000000000000000000
00000000000000000000000000000000000000000000000000
