P1
50 70
00000000000000000000000000000000000000000000000000
00000000000000000000000000000000000000000000000000
00000000000000000000000000000000000000000000000000
00000000000000000000000000000000000000000000000000
00000000000000000000000000000000000000000000000000
00000000000000000000000000000000000000000000000000
00000000000000000000000000000000000000000000000000
00000000000000000000000000000000000000000000000000
00000000000000000000000000000000000000000000000000
00000000000000000000000000000000000000000000000000
00000000000000000000000000000000000000000000000000
00000000000000000000000000000000000000000000000000
00000000000000000000000000000110000000000000000000
00000000000000000000000000111110000000000000000000
00000000000000000000000011111110000000000000000000
00000000000000000000001111111110000000000000000000
00000000000000000000001111111110000000000000000000
00000000000000000000111111111110000000000000000000
00000000000000000001111111111110000000000000000000
00000000000000000011111111111111000000000000000000
00000000000000001111111111111111000000000000000000
00000000000000011111111111111111000000000000000000
00000000000000011111111011111111000000000000000000
00000000000000011111100001111110000000000000000000
00000000000000001111000001111111000000000000000000
00000000000000001110000001111111000000000000000000
00000000000000000000000001111111000000000000000000
00000000000000000000000001111111000000000000000000
00000000000000000000000000111111000000000000000000
00000000000000000000000000111111000000000000000000
00000000000000000000000000111111000000000000000000
00000000000000000000000000111111000000000000000000
00000000000000000000000000111111100000000000000000
00000000000000000000000000111111100000000000000000
00000000000000000000000000111111100000000000000000
00000000000000000000000000111111100000000000000000
00000000000000000000000000111111100000000000000000
00000000000000000000000000111111100000000000000000
00000000000000000000000000011111100000000000000000
00000000000000000000000000011111100000000000000000
00000000000000000000000000011111100000000000000000
00000000000000000000000000011111100000000000000000
00000000000000000000000000011111110000000000000000
00000000000000000000000000011111110000000000000000
00000000000000000000000000001111110000000000000000
00000000000000000000000000001111110000000000000000
00000000000000000000000000001111110000000000000000
00000000000000000000000000011111110000000000000000
00000000000000000000000000011111110000000000000000
00000000000000000000000000001111110000001000000000
00000000000000000000000000001111110000011100000000
00000000000000000000000000001111111011111100000000
00000000000000000000000000001111111111111100000000
00000000000000000000000000001111111111111100000000
00000000000000000000000000001111111111111100000000
00000000000000000000000000011111111111110000000000
00000000000000000000000000111111111111100000000000
00000000000000000000000011111111111100000000000000
00000000000000000000011111111111110000000000000000
00000000000000000000011111111111000000000000000000
00000000000000000000011111111110000000000000000000
00000000000000000000011111110000000000000000000000
00000000000000000000011111000000000000000000000000
00000000000000000000001100000000000000000000000000
00000000000000000000000000000000000000000000000000
00000000000000000000000000000000000000000000000000
00000000000000000000000000000000000000000000000000
00000000000000000000000000000000000000000000000000
00000000000000000000000000000000000000000000000000
00000000000000000000000000000000000000000000000000
