P1
50 70
00000000000000000000000000000000000000000000000000
00000000000000000000000000000000000000000000000000
00000000000000000000000000000000000000000000000000
00000000000000000000000000000000000000000000000000
00000000000000000000000000000000000000000000000000
00000000000000000000000000000000000000000000000000
00000000000000000000000000000000000000000000000000
00000000000000000000000000000000000000000000000000
00000000000000000000000000000000000000000000000000
00000000000000000000000000000000000000000000000000
00000000000000000000000000000000000000000000000000
00000000000000000000000000000000000000000000000000
00000000000000000000000000000000000000000000000000
00000000000000000000000000000000000000000000000000
00000000000000000000000000000000000000000000000000
00000000000000000000000000000000000000000000000000
00000000000000000000000000000000000000000000000000
00000000000000000000000111111110000000000000000000
00000000000000000000011111111110000000000000000000
00000000000000000000111111111110000000000000000000
00000000000000000011111111111100000000000000000000
00000000000000001111111111111100000000000000000000
00000000000000111111111111111100000000000000000000
00000000000001111111111111111100000000000000000000
00000000000011111111111111111100000000000000000000
00000000000011111001111111111100000000000000000000
00000000000011110001111111111100000000000000000000
00000000000011000001111111111100000000000000000000
00000000000000000011111111111100000000000000000000
00000000000000000011111111111000000000000000000000
00000000000000000011111111111000000000000000000000
00000000000000000011111111111000000000000000000000
00000000000000000111111111111000000000000000000000
00000000000000000111111111110000000000000000000000
00000000000000000111111111111000000000000000000000
00000000000000000111111111111000000000000000000000
00000000000000001111111111111000000000000000000000
00000000000000001111111111110000000000000000000000
00000000000000001111111111110000000000000000000000
00000000000000001111111111110000000000000000000000
00000000000000001111111111110000000000000000000000
00000000000000001111111111100000000000000000000000
00000000000000001111111111100000000000000000000000
00000000000000001111111111100000000000000000000000
00000000000000001111111111110000000000000000000000
00000000000000011111111111110000000000000000000000
00000000000000011111111111100000000000000000000000
00000000000000011111111111100000000000000000000000
00000000000000011111111111100000000000000000000000
00000000000000111111111111100000000000000000000000
00000000000000111111111111100000000000000000000000
00000000000000111111111111100000000000000000000000
00000000000000111111111111100000000000000000000000
00000000000001111111111111100000000000000000000000
00011000000001111111111111000000000000000000000000
00011111000001111111111111000000000000000000000000
00111111100001111111111111000000000000000000000000
00011111111111111111111111000000000000000000000000
00000111111111111111111111000000000000000000000000
00000001111111111111111111000000000000000000000000
00000000011111111111111111100000000000000000000000
00000000000001111111111111111000000000000000000000
00000000000000000011111111111100000000000000000000
00000000000000000000111111111111110000000000000000
00000000000000000000001111111111111000000000000000
00000000000000000000000000111111111000000000000000
00000000000000000000000000000011111000000000000000
00000000000000000000000000000000111000000000000000
00000000000000000000000000000000000000000000000000
00000000000000000000000000000000000000000000000000
