P1
50 70
00000000000000000000000000000000000000000000000000
00000000000000000000000000000000000000000000000000
00000000000000000000000000000000000000000000000000
00000000000000000000000000000000000000000000000000
00000000000000000000000000000000000000000000000000
00000000000000000000000000000000000000000000000000
00000000000000000000000000000000000000000000000000
00000000000000000000000000000000000000000000000000
00000000000000000000000000000000000000000000000000
00000000000000000000000000000000000000000000000000
00000000000000000000000000000000000000000000000000
00000000000000000000000000000000000000000000000000
00000000000000000000000000000000000000000000000000
00000000000000000000000000000000000000000000000000
00000000000000000000000000000000000000000000000000
00000000000000000000000000000000000000000000000000
00000000000000000000000000000000000000000000000000
00000000000000000000000000111111111100000000000000
00000000000000000000000001111111111100000000000000
00000000000000000000000011111111111100000000000000
00000000000000000000001111111111111100000000000000
00000000000000000000111111111111111100000000000000
00000000000000001111111111111111111100000000000000
00000000000011111111111111111111111100000000000000
00000000000011111111111111111111111100000000000000
00000000000011111111111111111111111000000000000000
00000000000001111111111111111111111000000000000000
00000000000011111111111101111111111000000000000000
00000000000011111111100001111111111000000000000000
00000000000001111110000001111111111000000000000000
00000000000000000000000001111111111000000000000000
00000000000000000000000001111111111000000000000000
00000000000000000000000001111111111000000000000000
00000000000000000000000000111111111000000000000000
00000000000000000000000000111111111000000000000000
00000000000000000000000000111111111000000000000000
00000000000000000000000000111111111000000000000000
00000000000000000000000000111111111000000000000000
00000000000000000000000000111111111000000000000000
00000000000000000000000000111111111000000000000000
00000000000000000000000000111111110000000000000000
00000000000000000000000000111111111000000000000000
00000000000000000000000000111111111000000000000000
00000000000000000000000000111111111000000000000000
00000000000000000000000000111111111000000000000000
00000000000000000000000000111111111000000000000000
00000000000000000000000000011111111000000000000000
00000000000000001111110100111111111000000000000000
00000000000000001111111111111111111100000000000000
00000000000000001111111111111111111111111110000000
00000000000000000111111111111111111111111110000000
00000000000000000111111111111111111111111110000000
00000000000000000111111111111111111111111110000000
00000000000000000011111111111111111111111110000000
00000000000000000000000001111111111111111111000000
00000000000000000000000000000001001111111110000000
00000000000000000000000000000000000000000000000000
00000000000000000000000000000000000000000000000000
00000000000000000000000000000000000000000000000000
00000000000000000000000000000000000000000000000000
00000000000000000000000000000000000000000000000000
00000000000000000000000000000000000000000000000000
00000000000000000000000000000000000000000000000000
00000000000000000000000000000000000000000000000000
00000000000000000000000000000000000000000000000000
00000000000000000000000000000000000000000000000000
00000000000000000000000000000000000000000000000000
00000000000000000000000000000000000000000000000000
00000000000000000000000000000000000000000000000000
00000000000000000000000000000000000000000000000000
