P1
50 70
00000000000000000000000000000000000000000000000000
00000000000000000000000000000000000000000000000000
00000000000000000000000000000000000000000000000000
00000000000000000000000000000000000000000000000000
00000000000000000000000000000000000000000000000000
00000000000000000000000000000000000000000000000000
00000000000000000000000000000000000000000000000000
00000000000000000000000000000000000000000000000000
00000000000000000000000000000000000000000000000000
00000000000000000000000000000000000000000000000000
00000000111011111111100000000000000000000000000000
00000000111111111111111100000000000000000000000000
00000000111111111111111111111100000000000000000000
00000000111111111111111111111111110000000000000000
00000000111111111111111111111111110000000000000000
00000000111111111111111111111111110000000000000000
00000000111111111111111111111111110000000000000000
00000000111111111111111111111111110000000000000000
00000000111111111111111111111111100000000000000000
00000000011111111111111111111111100000000000000000
00000000011111100011111111111111110000000000000000
00000000000000000000111111111111110000000000000000
00000000000000000000111111111111110000000000000000
00000000000000000000111111111111110000000000000000
00000000000000000000111111111111110000000000000000
00000000000000000000111111111111110000000000000000
00000000000000000000011111111111110000000000000000
00000000000000000000011111111111110000000000000000
00000000000000000000011111111111110000000000000000
00000000000000000000011111111111110000000000000000
00000000000000000000011111111111110000000000000000
00000000000000000000011111111111110000000000000000
00000000000000000000011111111111110000000000000000
00000000000000000000011111111111110000000000000000
00000000000000000000011111111111110000000000000000
00000000000000000000011111111111100000000000000000
00000000000000000000011111111111100000000000000000
00000000000000000000011111111111100000000000000000
00000000000000000000011111111111100000000000000000
00000000000000000000011111111111100000000000000000
00000000000000000000011111111111100000000000000000
00000000000000000000011111111111100000000000000000
00000000000000000000011111111111100000000000000000
00000000000000000000011111111111100000000000000000
00000000000000000000011111111111100000110011000000
00000000000000000000011111111111111111111110000000
00000000000000000000011111111111111111111110000000
00000000000000000000111111111111111111111110000000
00000000000000000111111111111111111111111110000000
00000000000000111111111111111111111111111110000000
00000000000111111111111111111111111111111110000000
00000000000111111111111111111111111111111000000000
00000000000111111111111111111111111110000000000000
00000000000111111111111111111111100000000000000000
00000000000111111111111111111100000000000000000000
00000000000111111111111100000000000000000000000000
00000000000111111111100000000000000000000000000000
00000000000111111100000000000000000000000000000000
00000000000111110000000000000000000000000000000000
00000000000011000000000000000000000000000000000000
00000000000000000000000000000000000000000000000000
00000000000000000000000000000000000000000000000000
00000000000000000000000000000000000000000000000000
00000000000000000000000000000000000000000000000000
00000000000000000000000000000000000000000000000000
00000000000000000000000000000000000000000000000000
00000000000000000000000000000000000000000000000000
00000000000000000000000000000000000000000000000000
00000000000000000000000000000000000000000000000000
00000000000000000000000000000000000000000000000000
