P1
50 70
00000000000000000000000000000000000000000000000000
00000000000000000000000000000000000000000000000000
00000000000000000000000000000000000000000000000000
00000000000000000000000000000000000000000000000000
00000000000000000000000000000000000000000000000000
00000000000000000000000000000000000000000000000000
00000000000000000000000000000000000000000000000000
00000000000000000000000000000000000000000000000000
00000000000000000000000000000000000000000000000000
00000000000000000000000000000000000000000000000000
00000000000000000100010000000000000000000000000000
00000000000000011111111111110000000000000000000000
00000000000000011111111111111110000000000000000000
00000000000000111111111111111111100000000000000000
00000000000000111111111111111111111000000000000000
00000000000000111111111111111111111100000000000000
00000000000000111111111111111111111110000000000000
00000000000000111111111111111111111110000000000000
00000000000000111111111111111111111111000000000000
00000000000000111111001100111111111111100000000000
00000000000001100000000000001111111111100000000000
00000000000000000000000000000111111111100000000000
00000000000000000000000000000011111111100000000000
00000000000000000000000000000011111111100000000000
00000000000000000000000000000011111111100000000000
00000000000000000000000000000011111111100000000000
00000000000000000000000000000011111111100000000000
00000000000000000000000000000111111111000000000000
00000000000000000000000000000111111111000000000000
00000000000000000000000000000111111111000000000000
00000000000000000000000000001111111111000000000000
00000000000000000000000000001111111110000000000000
00000000000000000000000000011111111100000000000000
00000000000000000000000000111111111100000000000000
00000000000000000000000001111111111000000000000000
00000000000000000000000011111111110000000000000000
00000000000000000000000111111111100000000000000000
00000000000000000000001111111111000000000000000000
00000000000000000000011111111110000000000000000000
00000000000000000000111111111100000000000000000000
00000000000000000001111111111000000000000000000000
00000000000000000011111111110000000000000000000000
00000000000000000111111111100000000000000000000000
00000000000000001111111111000000000000000000000000
00000000000000001111111110000000000000000000000000
00000000000000011111111110000000000000000000000000
00000000000000111111111000000000000000000000000000
00000000000001111111110000000000000000000000000000
00000000000001111111100000000000000000000000000000
00000000000011111111100000000000000000000000000000
00000000000111111111000000000000000000000000000000
00000000001111111110000000000000000000000000000000
00000000011111111110000001111111100000000000000000
00000000011111111111111111111111100000000000000000
00000000011111111111111111111111100000000000000000
00000000111111111111111111111111100000000000000000
00000000111111111111111111111111100000000000000000
00000000111111111111111111111111000000000000000000
00000000111111111111111111111111000000000000000000
00000000111111111111111111111111000000000000000000
00000000111111111111111110000000000000000000000000
00000000111111111100000000000000000000000000000000
00000000111000000000000000000000000000000000000000
00000000000000000000000000000000000000000000000000
00000000000000000000000000000000000000000000000000
00000000000000000000000000000000000000000000000000
00000000000000000000000000000000000000000000000000
00000000000000000000000000000000000000000000000000
00000000000000000000000000000000000000000000000000
00000000000000000000000000000000000000000000000000
