P1
50 70
00000000000000000000000000000000000000000000000000
00000000000000000000000000000000000000000000000000
00000000000000000000000000000000000000000000000000
00000000000000000000000000000000000000000000000000
00000000000000000000000000000000000000000000000000
00000000000000000000000000000000000000000000000000
00000000000000000000000000000000000000000000000000
00000000000000000000000000000000000000000000000000
00000000000000000000000000000000000000000000000000
00000000000000000000000000000000000000000000000000
00000000000000000000000000000000000000000000000000
00000000000000000000000000000000000000000000000000
00000000000000000000000000000000000000000000000000
00000000000000000000001111000000000000000000000000
00000000000000000001111111111110000000000000000000
00000000000000000011111111111111100000000000000000
00000000000000001111111111111111110000000000000000
00000000000000011111111111111111111000000000000000
00000000000000111111111111111111111100000000000000
00000000000000111111111111111111111110000000000000
00000000000001111111111110111111111110000000000000
00000000000001111111111000001111111111000000000000
00000000000011111111100000000111111111000000000000
00000000000011111111100000000111111111000000000000
00000000000001111111100000000011111111000000000000
00000000000000000100000000000011111111000000000000
00000000000000000000000000000111111111000000000000
00000000000000000000000000001111111111000000000000
00000000000000000000000000001111111111000000000000
00000000000000000000000000011111111111000000000000
00000000000000000000000000111111111110000000000000
00000000000000000000000001111111111100000000000000
00000000000000000000000011111111111100000000000000
00000000000000000000000111111111111000000000000000
00000000000000000000001111111111111000000000000000
00000000000000000000111111111111100000000000000000
00000000000000000001111111111111000000000000000000
00000000000000000011111111111110000000000000000000
00000000000000000111111111111100000000000000000000
00000000000000001111111111111000000000000000000000
00000000000000011111111111100000000000000000000000
00000000000000111111111111100000000000000000000000
00000000000001111111111110000000000000000000000000
00000000000011111111111000000000000000000000000000
00000000000111111111110000000000000000000000000000
00000000001111111111100000000000000000000000000000
00000000001111111111100000000000000000000000000000
00000000011111111111111001110011000000000000000000
00000000111111111111111111111111111100000000000000
00000000111111111111111111111111111110000000000000
00000000111111111111111111111111111100000000000000
00000000111111111111111111111111111100000000000000
00000000111111111111111111111111111100000000000000
00000001111111111111111111111111111100000000000000
00000000011001110011000110001100110000000000000000
00000000000000000000000000000000000000000000000000
00000000000000000000000000000000000000000000000000
00000000000000000000000000000000000000000000000000
00000000000000000000000000000000000000000000000000
00000000000000000000000000000000000000000000000000
00000000000000000000000000000000000000000000000000
00000000000000000000000000000000000000000000000000
00000000000000000000000000000000000000000000000000
00000000000000000000000000000000000000000000000000
00000000000000000000000000000000000000000000000000
00000000000000000000000000000000000000000000000000
00000000000000000000000000000000000000000000000000
00000000000000000000000000000000000000000000000000
00000000000000000000000000000000000000000000000000
00000000000000000000000000000000000000000000000000
