P1
50 70
00000000000000000000000000000000000000000000000000
00000000000000000000000000000000000000000000000000
00000000000000000000000000000000000000000000000000
00000000000000000000000000000000000000000000000000
00000000000000000000000000000000000000000000000000
00000000000000000000000000000000000000000000000000
00000000000000000000000000000000000000000000000000
00000000000000000000000000000000000000000000000000
00000000000000000000000000000000000000000000000000
00000000000000000000000000000000000000000000000000
00000000000000000000000000000000000000000000000000
00000000000000000000000000000000000000000000000000
00000000000000000000000000000000000000000000000000
00000000000000000000000000000000000000000000000000
00000000000000000000000000000000000000000000000000
00000000000000000000000000001111100000000000000000
00000000000000000000011111111111111100000000000000
00000000000000000011111111111111111111000000000000
00000000000000001111111111111111111111000000000000
00000000000001111111111111011111111111100000000000
00000000000111111111100000000011111111110000000000
00000000001111111100000000000001111111110000000000
00000000001111111000000000000001111111110000000000
00000000001111110000000000000000111111110000000000
00000000001111100000000000000000111111110000000000
00000000001111000000000000000000111111110000000000
00000000001111000000000000000000111111100000000000
00000000001111000000000000000000111111100000000000
00000000000110000000000000000001111111000000000000
00000000000000000000000000000001111111000000000000
00000000000000000000000000000001111110000000000000
00000000000000000000000000000011111100000000000000
00000000000000000000000000000011111100000000000000
00000000000000000000000000000111111000000000000000
00000000000000000000000000000111110000000000000000
00000000000000000000000000001111100000000000000000
00000000000000000000000000011111000000000000000000
00000000000000000000000000111111000000000000000000
00000000000000000000000001111110000000000000000000
00000000000000000000000011111100000000000000000000
00000000000000000000000111111000000000000000000000
00000000000000000000001111111000000000000000000000
00000000000000000000011111100000000000000000000000
00000000000000000000111111000000000000000000000000
00000000000000000001111110000000000011000000000000
00000000000000000011111100000000000111100000000000
00000000000000000011111000000000000111100000000000
00000000000000000111110000000000000111100000000000
00000000000000001111100000000000000111100000000000
00000000000000011111000000000000001111100000000000
00000000000000111110000000000000111111100000000000
00000000000011111110000000001111111111100000000000
00000000000111111101111111111111111111000000000000
00000000000111111111111111111111111111000000000000
00000000001111111111111111111111111110000000000000
00000000001111111111111111111111100000000000000000
00000000001111111111111110111000000000000000000000
00000000001111111111000000000000000000000000000000
00000000001111100000000000000000000000000000000000
00000000000000000000000000000000000000000000000000
00000000000000000000000000000000000000000000000000
00000000000000000000000000000000000000000000000000
00000000000000000000000000000000000000000000000000
00000000000000000000000000000000000000000000000000
00000000000000000000000000000000000000000000000000
00000000000000000000000000000000000000000000000000
00000000000000000000000000000000000000000000000000
00000000000000000000000000000000000000000000000000
00000000000000000000000000000000000000000000000000
00000000000000000000000000000000000000000000000000
