P1
50 70
00000000000000000000000000000000000000000000000000
00000000000000000000000000000000000000000000000000
00000000000000000000000000000000000000000000000000
00000000000000000000000000000000000000000000000000
00000000000000000000000000000000000000000000000000
00000000000000000000000000000000000000000000000000
00000000000000000000000000000000000000000000000000
00000000000000000000000000000000000000000000000000
00000000000000000000000000000000000000000000000000
00000000000000000000000000000000000000000000000000
00000000000000000000000000000000000000000000000000
00000000000000000000000000000000000000000000000000
00000000000000000000000000000000000000000000000000
00000000000000000000000000000000000000000000000000
00000000000000000000000000000000000000000000000000
00000000000000000000000000000000000000000000000000
00000000000000000000000001111100000000000000000000
00000000000000000000011111111111100000000000000000
00000000000000000001111111111111110000000000000000
00000000000000001111111111111111111100000000000000
00000000000000111111111111111111111100000000000000
00000000000011111111111111111111111110000000000000
00000000000111111111000011111111111110000000000000
00000000001111111100000001111111111111000000000000
00000000000111111000000000111111111111000000000000
00000000000111111000000000011111111111000000000000
00000000000111110000000000011111111111000000000000
00000000000111110000000000001111111111100000000000
00000000000111110000000000001111111111100000000000
00000000000011110000000000001111111111100000000000
00000000000011100000000000001111111111100000000000
00000000000000000000000000001111111111100000000000
00000000000000000000000000000111111111100000000000
00000000000000000000000000000111111111100000000000
00000000000000000000000000000111111111000000000000
00000000000000000000000000001111111111000000000000
00000000000000000000000000001111111110000000000000
00000000000000000000000000001111111100000000000000
00000000000000000000000000001111111100000000000000
00000000000000000000000000011111111000000000000000
00000000000000000000000000111111111000000000000000
00000000000000000000000000111111110000000000000000
00000000000000000000000001111111100000000000000000
00000000000000000000000011111111000000000000000000
00000000000000000000000111111110000000001111000000
00000000000000000000000111111000000000001111000000
00000000000000000000011111110000000000001111100000
00000000000000000000111111110000000000001111100000
00000000000000000001111111100000000110011111100000
00000000000000000011111111111111111111111111100000
00000000000000000111111111111111111111111111110000
00000000000000000111111111111111111111111111110000
00000000000000000111111111111111111111111111110000
00000000000000000111111111111111111111111111111000
00000000000000000111111111111111111111111111111000
00000000000000000011111111111111111111111111111000
00000000000000000001111111111111111111111111110000
00000000000000000000000100000000000000000000000000
00000000000000000000000000000000000000000000000000
00000000000000000000000000000000000000000000000000
00000000000000000000000000000000000000000000000000
00000000000000000000000000000000000000000000000000
00000000000000000000000000000000000000000000000000
00000000000000000000000000000000000000000000000000
00000000000000000000000000000000000000000000000000
00000000000000000000000000000000000000000000000000
00000000000000000000000000000000000000000000000000
00000000000000000000000000000000000000000000000000
00000000000000000000000000000000000000000000000000
00000000000000000000000000000000000000000000000000
