P1
50 70
00000000000000000000000000000000000000000000000000
00000000000000000000000000000000000000000000000000
00000000000000000000000000000000000000000000000000
00000000000000000000000000000000000000000000000000
00000000000000000000000000000000000000000000000000
00000000000000000000000000000000000000000000000000
00000000000000000000000000000000000000000000000000
00000000000000000000000000000000000000000000000000
00000000000000000000000000000000000000000000000000
00000000000000000000000000000000000000000000000000
00000000000000000000000000000000000000000000000000
00000000000000000000000000000000000000000000000000
00000000000000000000000000000000000000000000000000
00000000000000000000000000000000000000000000000000
00000000000000000000000000000000000000000000000000
00000000000000000000000000000000000000000000000000
00000000000000000000000000000000000000000000000000
00000000000000000000000000000000000000000000000000
00000000000000001100110011000000000000000000000000
00000111111111111111111111110000000000000000000000
11111111111111111111111111111111100000000000000000
11111111111111111111111111111111111000000000000000
01111111111111111111111111111111111100000000000000
01111111111111111111111111111111111111000000000000
01111111111111111111111111111111111111000000000000
00111111111111111111111111111111111111100000000000
00111111111111111111111111111111111111100000000000
00111111111111100000001111111111111111110000000000
00111111111000000000000001111111111111110000000000
00011111100000000000000000111111111111110000000000
00011111000000000000000000111111111111100000000000
00011100000000000000000000111111111111100000000000
00010000000000000000000000011111111111100000000000
00000000000000000000000000111111111111100000000000
00000000000000000000000000111111111111100000000000
00000000000000000000000000111111111111000000000000
00000000000000000000000000111111111111000000000000
00000000000000000000000001111111111110000000000000
00000000000000000000000011111111111100000000000000
00000000000000000000000011111111111100000000000000
00000000000000000000000111111111111000000000000000
00000000000000000000000111111111110000000000000000
00000000000000000000001111111111100000000000000000
00000000000000000000011111111111000000000000000000
00000000000000000000111111111111000000000000000000
00000000000000000000111111111110000000000000000000
00000000000000000001111111111100000000000000000000
00000000000000000011111111111000000000000000000000
00000000000000000111111111111000000000000000000000
00000000000000000111111111110000000000011000000000
00000000000000001111111111100000000011111100000000
00000000000000001111111111100000111111111100000000
00000000000000011111111111000001111111111100000000
00000000000000011111111111101111111111111100000000
00000000000000111111111111111111111111111100000000
00000000000001111111111111111111111111111100000000
00000000000001111111111111111111111111111100000000
00000000000001111111111111111111111111111000000000
00000000000001111111111111111111111111110000000000
00000000000011111111111111111111111110000000000000
00000000000011111111111111111111111100000000000000
00000000000011111111111111111111100000000000000000
00000000000011111111111111111111000000000000000000
00000000000011111111111111111000000000000000000000
00000000000011111111111111110000000000000000000000
00000000000001111111111110000000000000000000000000
00000000000001111111111100000000000000000000000000
00000000000001111111110000000000000000000000000000
00000000000001111111100000000000000000000000000000
00000000000000111110000000000000000000000000000000
