P1
50 70
00000000000000000000000000000000000000000000000000
00000000000000000000000000000000000000000000000000
00000000000000000000000000000000000000000000000000
00000000000000000000000000000000000000000000000000
00000000000000000000000000000000000000000000000000
00000000000000000000000000000000000000000000000000
00000000000000000000000000000000000000000000000000
00000000000000000000000000000000000000000000000000
00000000000000000000000000000000000000000000000000
00000000000000000100000000000000000000000000000000
00000000000111111111111100000000000000000000000000
00000000001111111111111111111100000000000000000000
00000000001111111111111111111110000000000000000000
00000000001111111111111111111111000000000000000000
00000000001111111111111111111111111000000000000000
00000000001111111111111111111111111000000000000000
00000000001111111111111111111111111100000000000000
00000000001111111111111111111111111100000000000000
00000000001111111111111111111111111110000000000000
00000000011111100000000111111111111110000000000000
00000000011111000000000001111111111111000000000000
00000000011100000000000000111111111111000000000000
00000000000000000000000000011111111111000000000000
00000000000000000000000000011111111111100000000000
00000000000000000000000000011111111111100000000000
00000000000000000000000000011111111111100000000000
00000000000000000000000000011111111111000000000000
00000000000000000000000000011111111111000000000000
00000000000000000000000000111111111111000000000000
00000000000000000000000000111111111111000000000000
00000000000000000000000001111111111110000000000000
00000000000000000000000011111111111110000000000000
00000000000000000000000111111111111100000000000000
00000000000000000000001111111111111000000000000000
00000000000000000000011111111111110000000000000000
00000000000000000000111111111111100000000000000000
00000000000000000001111111111111000000000000000000
00000000000000000111111111111110000000000000000000
00000000000000001111111111111000000000000000000000
00000000000000011111111111110000000000000000000000
00000000000000111111111111100000000000000000000000
00000000000001111111111111000000000000000000000000
00000000000011111111111110000000000000000000000000
00000000000111111111111100000000000000000000000000
00000000001111111111111000000000000000000000000000
00000000011111111111110000011001111111000000000000
00000000111111111111111111111111111111000000000000
00000001111111111111111111111111111111100000000000
00000011111111111111111111111111111111100000000000
00000011111111111111111111111111111111000000000000
00000011111111111111111111111111111111000000000000
00000011111111111111111111111111111111000000000000
00000011111111111111111111111111111111000000000000
00000111111111111111111111111111110110000000000000
00000111111111111111111111100100000000000000000000
00000111111111111111100000000000000000000000000000
00000111111111110000000000000000000000000000000000
00000111111000000000000000000000000000000000000000
00000010000000000000000000000000000000000000000000
00000000000000000000000000000000000000000000000000
00000000000000000000000000000000000000000000000000
00000000000000000000000000000000000000000000000000
00000000000000000000000000000000000000000000000000
00000000000000000000000000000000000000000000000000
00000000000000000000000000000000000000000000000000
00000000000000000000000000000000000000000000000000
00000000000000000000000000000000000000000000000000
00000000000000000000000000000000000000000000000000
00000000000000000000000000000000000000000000000000
00000000000000000000000000000000000000000000000000
