P1
50 70
00000000000000000000000000000000000000000000000000
00000000000000000000000000000000000000000000000000
00000000000000000000000000000000000000000000000000
00000000000000000000000000000000000000000000000000
00000000000000000000000000000000000000000000000000
00000000000000000000000000000000000000000000000000
00000000000000000000000000000000000000000000000000
00000000000000000000000000000000000000000000000000
00000000000000000000000000000000000000000000000000
00000000000000000000000000000000000000000000000000
00000000000000000000000000000000000000000000000000
00000000000000000000000000000000000000000000000000
00000000000000000000000000000000000000000000000000
00000000000000000000000000000000000000000000000000
00000000000000000000000000000000000000000000000000
00000000000000000000000000000000000000000000000000
00000000000001111111110000000000000000000000000000
00000000000011111111111100000000000000000000000000
00000000000011111111111111100000000000000000000000
00000000000011111111111111111100000000000000000000
00000000000011111110001111111110000000000000000000
00000000000011111000000001111111000000000000000000
00000000000011110000000000011111100000000000000000
00000000000011110000000000001111110000000000000000
00000000000000000000000000000111111000000000000000
00000000000000000000000000000011111100000000000000
00000000000000000000000000000001111100000000000000
00000000000000000000000000000001111110000000000000
00000000000000000000000000000001111110000000000000
00000000000000000000000000000001111110000000000000
00000000000000000000000000000001111111000000000000
00000000000000000000000000000001111111000000000000
00000000000000000000000000000001111110000000000000
00000000000000000000000000000011111110000000000000
00000000000000000000000000000011111110000000000000
00000000000000000000000000000011111110000000000000
00000000000000000000000000000111111110000000000000
00000000000000000000000000000111111100000000000000
00000000000000000000000000001111111000000000000000
00000000000000000000000000011111111000000000000000
00000000000000000000000001111111110000000000000000
00000000000000000000000011111111000000000000000000
00000000000000000000000111111110000000000000000000
00000000000000000000011111111000000000000000000000
00000000000000000001111111110000000000000000000000
00000000000000000011111111000000000000000000000000
00000000000000001111111100000000000000000000000000
00000000000000011111111000000000000000000000000000
00000000000001111111100000000000000000000000000000
00000000000011111111000000000000000000000000000000
00000000000111111100000000000000000000000000000000
00000000011111110000000000000000000000000000000000
00000000011111111000000000000000000000000000000000
00000000011111111110000000000001100000000000000000
00000000011111111111110000000001110000000000000000
00000000001111111111111100000001110000000000000000
00000000000011111111111111100001110000000000000000
00000000000000011111111111111111110000000000000000
00000000000000000001111111111111110000000000000000
00000000000000000000001111111111100000000000000000
00000000000000000000000011111111100000000000000000
00000000000000000000000000011111100000000000000000
00000000000000000000000000000011100000000000000000
00000000000000000000000000000000000000000000000000
00000000000000000000000000000000000000000000000000
00000000000000000000000000000000000000000000000000
00000000000000000000000000000000000000000000000000
00000000000000000000000000000000000000000000000000
00000000000000000000000000000000000000000000000000
00000000000000000000000000000000000000000000000000
