P1
50 70
00000000000000000000000000000000000000000000000000
00000000000000000000000000000000000000000000000000
00000000000000000000000000000000000000000000000000
00000000000000000000000000000000000000000000000000
00000000000000000000000000000000000000000000000000
00000000000000000000000000000000000000000000000000
00000000000000000000000000000000000000000000000000
00000000000000000000000000000000000000000000000000
00000000000000000000000000000000000000000000000000
00000000000000000000000000000000000000000000000000
00000000000000000000000000000000000000000000000000
00000000000000000000000000000000000000000000000000
00000000000000000000000000000000000000000000000000
00000000000000000000000000000000000000000000000000
00000000000000000000000000100011111111111111000000
00000000000000000000011011111111111111111111111100
00000000000000000001111111111111111111111111111110
00000000000000000111111111111111111111111111111111
00000000000000000111111111111111111111111111111111
00000000000000001111111111111111111111111111111111
00000000000000001111111111111111111111111111111111
00000000000000011111111111111111111111111111111111
00000000000000011111111111000000011111111111111110
00000000000000011111000000000000001111111111111110
00000000000000011000000000000000001111111111111110
00000000000000000000000000000000001111111111111100
00000000000000000000000000000000001111111111111000
00000000000000000000000000000000111111111111110000
00000000000000000000000000000011111111111111100000
00000000000000000000000000001111111111111111000000
00000000000000000000100111111111111111111100000000
00000000000000000111111111111111111111100000000000
00000000000000001111111111111111111110000000000000
00000000000000001111111111111111111111100000000000
00000000000000001111111111111111111111100000000000
00000000000000011111111111111111111111110000000000
00000000000000111111111111111111111111110000000000
00000000000000111111111111111111111111110000000000
00000000000000001110111111111111111111110000000000
00000000000000000000000001111111111111100000000000
00000000000000000000000000111111111111100000000000
00000000000000000000000000111111111111000000000000
00000000000000000000000000111111111111000000000000
00000000000000000000000001111111111110000000000000
00000000000000000000000011111111111100000000000000
00000000000000000000000111111111111000000000000000
00000000000000000000011111111111111000000000000000
00011100000000000111111111111111110000000000000000
00111111101111111111111111111111100000000000000000
00111111111111111111111111111110000000000000000000
01111111111111111111111111111100000000000000000000
11111111111111111111111111110000000000000000000000
11111111111111111111111111100000000000000000000000
11111111111111111111111100000000000000000000000000
11111111111111111111110000000000000000000000000000
01111111111111111100000000000000000000000000000000
00000111011000000000000000000000000000000000000000
00000000000000000000000000000000000000000000000000
00000000000000000000000000000000000000000000000000
00000000000000000000000000000000000000000000000000
00000000000000000000000000000000000000000000000000
00000000000000000000000000000000000000000000000000
00000000000000000000000000000000000000000000000000
00000000000000000000000000000000000000000000000000
00000000000000000000000000000000000000000000000000
00000000000000000000000000000000000000000000000000
00000000000000000000000000000000000000000000000000
00000000000000000000000000000000000000000000000000
00000000000000000000000000000000000000000000000000
00000000000000000000000000000000000000000000000000
