P1
50 70
00000000000000000000000000000000000000000000000000
00000000000000000000000000000000000000000000000000
00000000000000000000000000000000000000000000000000
00000000000000000000000000000000000000000000000000
00000000000000000000000000000000000000000000000000
00000000000000000000000000000000000000000000000000
00000000000000000000000000000000000000000000000000
00000000000000000000000000000000000000000000000000
00000000000000000000000000000000000000000000000000
00000000000000000000000000000000000000000000000000
00000000000000000000000000000000000000000000000000
00000000000000000000000000000000000000000000000000
00000000000000000000000000000000000000000000000000
00000000000000000000000000000000000000000000000000
00000000000000000000000000000000000000000000000000
00000000000000000000000000000000000000000000000000
00000000000000000000000000000000000000000000000000
00000000000000000000000000000000000000000000000000
00000000000000000000000011111110000000000000000000
00000000000000000000000111111111000000000000000000
00000000000000000000001111111111100000000000000000
00000000000000000000011111111111110000000000000000
00000000000000000000111111111111111000000000000000
00000000000000000000111111111111111000000000000000
00000000000000000000111111111111111000000000000000
00000000000000000000111111001111111000000000000000
00000000000000000000111110000111111000000000000000
00000000000000000000011100000111111100000000000000
00000000000000000000000000000111111100000000000000
00000000000000000000000000000111111000000000000000
00000000000000000000000000000111111000000000000000
00000000000000000000000000000111111000000000000000
00000000000000000000000000001111111000000000000000
00000000000000000000000000011111111000000000000000
00000000000000000000000111111111110000000000000000
00000000000000000000000111111111100000000000000000
00000000000000000000001111111111000000000000000000
00000000000000000000001111111110000000000000000000
00000000000000000000011111111100000000000000000000
00000000000000000000011111111100000000000000000000
00000000000000000000000011111100000000000000000000
00000000000000000000000001111110000000000000000000
00000000000000000000000000111110000000000000000000
00000000000000111110000000111110000000000000000000
00000000000001111110000000111111000000000000000000
00000000000001111110000000111110000000000000000000
00000000000001111110000001111110000000000000000000
00000000000001111110000001111110000000000000000000
00000000000001111111000011111110000000000000000000
00000000000001111111000111111110000000000000000000
00000000000001111111111111111100000000000000000000
00000000000001111111111111111100000000000000000000
00000000000000111111111111111000000000000000000000
00000000000000011111111111110000000000000000000000
00000000000000001111111111110000000000000000000000
00000000000000000111111111100000000000000000000000
00000000000000000011111110000000000000000000000000
00000000000000000000000000000000000000000000000000
00000000000000000000000000000000000000000000000000
00000000000000000000000000000000000000000000000000
00000000000000000000000000000000000000000000000000
00000000000000000000000000000000000000000000000000
00000000000000000000000000000000000000000000000000
00000000000000000000000000000000000000000000000000
00000000000000000000000000000000000000000000000000
00000000000000000000000000000000000000000000000000
00000000000000000000000000000000000000000000000000
00000000000000000000000000000000000000000000000000
00000000000000000000000000000000000000000000000000
00000000000000000000000000000000000000000000000000
