P1
50 70
00000000000000000000000000000000000000000000000000
00000000000000000000000000000000000000000000000000
00000000000000000000000000000000000000000000000000
00000000000000000000000000000000000000000000000000
00000000000000000000000000000000000000000000000000
00000000000000000000000000000000000000000000000000
00000000000000000000000000000000000000000000000000
00000000000000000000000000000000000000000000000000
00000000000000000000000000000000000000000000000000
00000000000000000000000000000000001111111100000000
00000000000000000000000000000111111111111111000000
00000000000000000000011111111111111111111111100000
00000000000000000011111111111111111111111111111000
00000000000000000111111111111111111111111111111000
00000000000000001111111111111111111111111111111000
00000000000000011111111111111111111111111111111000
00000000000000011111111111111111111111111111111000
00000000000000011111111111111111111111111111111000
00000000000000011111111111001111111111111111110000
00000000000000111111111000000000111111111111110000
00000000000000111110000000000000011111111111100000
00000000000000111100000000000000111111111111100000
00000000000000000000000000000000111111111111000000
00000000000000000000000000000001111111111110000000
00000000000000000000000000000011111111111100000000
00000000000000000000000000000111111111111000000000
00000000000000000000000000001111111111110000000000
00000000000000000000000000111111111111000000000000
00000000000000000000001111111111111100000000000000
00000000000000000111111111111111111100000000000000
00000000000000000111111111111111111100000000000000
00000000000000001111111111111111111110000000000000
00000000000000001111111111111111111111000000000000
00000000000000001111111111111111111111000000000000
00000000000000001111111111111111111111000000000000
00000000000000011111111111111111111111000000000000
00000000000000011111111111111111111111000000000000
00000000000000011111100011111111111111000000000000
00000000000000001000000000111111111111000000000000
00000000000000000000000000111111111110000000000000
00000000000000000000000000111111111110000000000000
00000000000000000000000000111111111100000000000000
00000000000000000000000001111111111100000000000000
00000000000000000000000001111111111100000000000000
00000000000000000000000011111111111000000000000000
00000000000000000000000111111111111000000000000000
00000000000000000000001111111111110000000000000000
00000000000000000000111111111111100000000000000000
00000000000000000011111111111111000000000000000000
00000011000000011111111111111110000000000000000000
00000111111111111111111111111100000000000000000000
00000111111111111111111111110000000000000000000000
00001111111111111111111111100000000000000000000000
00001111111111111111111110000000000000000000000000
00001111111111111111111100000000000000000000000000
00001111111111111111110000000000000000000000000000
00011111111111111111100000000000000000000000000000
00011111111111111100000000000000000000000000000000
00011111111111100000000000000000000000000000000000
00001111110000000000000000000000000000000000000000
00000000000000000000000000000000000000000000000000
00000000000000000000000000000000000000000000000000
00000000000000000000000000000000000000000000000000
00000000000000000000000000000000000000000000000000
00000000000000000000000000000000000000000000000000
00000000000000000000000000000000000000000000000000
00000000000000000000000000000000000000000000000000
00000000000000000000000000000000000000000000000000
00000000000000000000000000000000000000000000000000
00000000000000000000000000000000000000000000000000
