P1
50 70
00000000000000000000000000000000000000000000000000
00000000000000000000000000000000000000000000000000
00000000000000000000000000000000000000000000000000
00000000000000000000000000000000000000000000000000
00000000000000000000000000000000000000000000000000
00000000000000000000000000000000000000000000000000
00000000000000000000000000000000000000000000000000
00000000000000000000000000000000000000000000000000
00000000000000000000000000000000000000000000000000
00000000000000000000000000000000000000000000000000
00000000000000000000000000000000000000000000000000
00000000000000000000000000000000000000000000000000
00000000000000000000000000000000000000000000000000
00000000000000001111111100110000000000000000000000
00000000000000001111111111111100000000000000000000
00000000000000001111111111111111000000000000000000
00000000000000011111111111111111100000000000000000
00000000000000011111111111111111110000000000000000
00000000000000011111111111111111111000000000000000
00000000000000011111111111111111111100000000000000
00000000000000011111111111111111111100000000000000
00000000000000011111111111111111111110000000000000
00000000000000011111111111111111111110000000000000
00000000000000001110111111111111111110000000000000
00000000000000000000000000111111111111000000000000
00000000000000000000000000001111111111000000000000
00000000000000000000000000000111111111000000000000
00000000000000000000000000000011111111000000000000
00000000000000000000000000000011111111000000000000
00000000000000000000000000000011111111000000000000
00000000000000000000000000000011111111000000000000
00000000000000000000000000000011111111000000000000
00000000000000000000000000000011111111000000000000
00000000000000000000000000000111111111000000000000
00000000000000000000111111111111111110000000000000
00000000000000000000111111111111111110000000000000
00000000000000000001111111111111111110000000000000
00000000000000000001111111111111111100000000000000
00000000000000000000111111111111111100000000000000
00000000000000000000111111111111111000000000000000
00000000000000000001111111111111100000000000000000
00000000000000000001111111111111000000000000000000
00000000000000000000111111111111100000000000000000
00000000000000000000111111111111110000000000000000
00000000000000000000011111111111111000000000000000
00000000000000000000000011111111111000000000000000
00000000000000000000000000111111111100000000000000
00000000000000000000000000011111111100000000000000
00000000000000000000000000001111111100000000000000
00000000000000000000000000000111111100000000000000
00000000000000000000000000000111111110000000000000
00000000000000000000000000000111111110000000000000
00000000000000000000000000000111111110000000000000
00000000000000000000000000000111111110000000000000
00000000000000000000000000000111111110000000000000
00000000000011100000000000000111111110000000000000
00000000000011111100000000000111111110000000000000
00000000000011111111100000001111111100000000000000
00000000000011111111111001111111111100000000000000
00000000000011111111111111111111111110000000000000
00000000000011111111111111111111111100000000000000
00000000000011111111111111111111111100000000000000
00000000000011111111111111111111111100000000000000
00000000000011111111111111111111111100000000000000
00000000000011111111111111111111111000000000000000
00000000000000111111111111111111110000000000000000
00000000000000011111111111111111110000000000000000
00000000000000000111111111111111100000000000000000
00000000000000000001111111111111000000000000000000
00000000000000000000000111111100000000000000000000
