P1
50 70
00000000000000000000000000000000000000000000000000
00000000000000000000000000000000000000000000000000
00000000000000000000000000000000000000000000000000
00000000000000000000000000000000000000000000000000
00000000000000000000000000000000000000000000000000
00000000000000000000000000000000000000000000000000
00000000000000000000000000000000000000000000000000
00000000000000000000000000000000000000000000000000
00000000000000000000000000000000000000000000000000
00000000000000000000000000000000000000000000000000
00000000000000000000000000000000000000000000000000
00000000000000000000000000000000000000000000000000
00000000000000000000000000000000000000000000000000
00000000000000000000000000000000000000000000000000
00000000000000000000000000000000000000000000000000
00000000000000000000000000000000000000000000000000
00000000000000000000000000000000000000000000000000
00000000000000000000000000000000000000000000000000
00000000000000000000000000000000000000000000000000
00000000000000000000000000000000000000000000000000
00000000000000000000000000000000000000000000000000
00000000000000000000000000000000000000000000000000
00000000000000000000000000000000000000000000000000
00000000000000000000000000000000000000000000000000
00000000000000000000000000000000000011100000000000
00000000000000000000000000000000011111110000000000
00000000000000000000000000000000111111111100000000
00000000000000000000000000000111111111111110000000
00000000000000000000000000111111111001111110000000
00000000000000000000000011111111100000111100000000
00000000000000000000000111111111000001111000000000
00000000000000000000111111111000000011111000000000
00000000000000000001111111100000000011110000000000
00000000000000000011111110000000000111100000000000
00000000000000001111111100000000000111100000000000
00000000000000111111100000000000001111000000000000
00000000000000111111000000000000011110000000000000
00000000000001111100000000000000011110000000000000
00000000000001111100000000000000111100000000000000
00000000000000111111100000000000111100000000000000
00000000000000111111110000000001111000000000000000
00000000000000000111111100000011111000000000000000
00000000000000000011111110000011110000000000000000
00000000000000000000011111110111100000000000000000
00000000000000000000001111111111100000000000000000
00000000000000000000000011111111000000000000000000
00000000000000000000000000111111100000000000000000
00000000000000000000000000111111110000000000000000
00000000000000000000000000111111110000000000000000
00000000000000000000000000111100000000000000000000
00000000000000000000000001111000000000000000000000
00000000000000000011000001110000000000000000000000
00000000000000000011111111110000000000000000000000
00000000000000000011111111110000000000000000000000
00000000000000000000111111110000000000000000000000
00000000000000000000011111111000000000000000000000
00000000000000000000000011111000000000000000000000
00000000000000000000000000111000000000000000000000
00000000000000000000000000000000000000000000000000
00000000000000000000000000000000000000000000000000
00000000000000000000000000000000000000000000000000
00000000000000000000000000000000000000000000000000
00000000000000000000000000000000000000000000000000
00000000000000000000000000000000000000000000000000
00000000000000000000000000000000000000000000000000
00000000000000000000000000000000000000000000000000
00000000000000000000000000000000000000000000000000
00000000000000000000000000000000000000000000000000
00000000000000000000000000000000000000000000000000
00000000000000000000000000000000000000000000000000
