P1
50 70
00000000000000000000000000000000000000000000000000
00000000000000000000000000000000000000000000000000
00000000000000000000000000000000000000000000000000
00000000000000000000000000000000000000000000000000
00000000000000000000000000000000000000000000000000
00000000000000000000000000000000000000000000000000
00000000000000000000000000000000000000000000000000
00000000000000000000000000000000000000110000000000
00000000000000000000000000000000001111110000000000
00000000000000000000000000000001111111111000000000
00000000000000000000000000000011111111110000000000
00000000000000000000000000000011111111110000000000
00000000000000000000000000000111111111110000000000
00000000000000000000000000000111111111111000000000
00000000000000000000000000000111111111110000000000
00000000000000000000000000001111111111110000000000
00000000000000000000000000001111111111110000000000
00000000000000000000000000001111111111110000000000
00000000000000000000000000011111111111110000000000
00000000000000000000000000111111111111110000000000
00000000000000000000000000111111111111110000000000
00000000000000000000000001111111111111110000000000
00000000000000000000000001111111111111110000000000
00000000000000000000000011111111111111110000000000
00000000000000000000000011111111111111110000000000
00000000000000000000000111111101111111110000000000
00000000000000000000000111111001111111110000000000
00000000000000000000001111111001111111100000000000
00000000000000000000001111111001111111100000000000
00000000000000000000011111110001111111100000000000
00000000000000000000111111110001111111100000000000
00000000000000000000111111100001111111100000000000
00000000000000000001111111100001111111100000000000
00000000000000000001111111000011111111100000000000
00000000000000000011111110000011111111100000000000
00000000000000000011111110000011111111100000000000
00000000000000000111111100000011111111100000000000
00000000000000000111111100000011111111000000000000
00000000000000001111111000000011111111101110000000
00000000000000001111111000000011111111111110000000
00000000000000011111110000000111111111111110000000
00000000000000011111110000011111111111111110000000
00000000000000111111110111111111111111111110000000
00000000000001111111111111111111111111111110000000
00000000000001111111111111111111111111111110000000
00000000000001111111111111111111111111111110000000
00000000000011111111111111111111111111111100000000
00000000000011111111111111111111111111110000000000
00000000000011111111111111111111111111000000000000
00000000000011111111111111111111111110000000000000
00000000000011111111111000001111111110000000000000
00000000000111111110000000001111111110000000000000
00000000000111000000000000001111111110000000000000
00000000000000000000000000001111111110000000000000
00000000000000000000000000001111111110000000000000
00000000000000000000000000001111111110000000000000
00000000000000000000000000001111111100000000000000
00000000000000000000000000001111111100000000000000
00000000000000000000000000011111100000000000000000
00000000000000000000000000000000000000000000000000
00000000000000000000000000000000000000000000000000
00000000000000000000000000000000000000000000000000
00000000000000000000000000000000000000000000000000
00000000000000000000000000000000000000000000000000
00000000000000000000000000000000000000000000000000
00000000000000000000000000000000000000000000000000
00000000000000000000000000000000000000000000000000
00000000000000000000000000000000000000000000000000
00000000000000000000000000000000000000000000000000
00000000000000000000000000000000000000000000000000
