P1
50 70
00000000000000000000000000000000000000000000000000
00000000000000000000000000000000000000000000000000
00000000000000000000000000000000000000000000000000
00000000000000000000000000000000000000000000000000
00000000000000000000000000000000000000000000000000
00000000000000000000000000000000000000000000000000
00000000000000000000000000000000000000000000000000
00000000000000000000000000000000000000000000000000
00000000000000000000000000000000000000000000000000
00000000000000000000000000000000000000000000000000
00000000000000000000000000000000000000000000000000
00000000000000000000000000000000000000000000000000
00000000000000000000000000000000000000000000000000
00000000000000000000000000000000000000000000000000
00000000000000000000000000000000000000000000000000
00000000000000000000000000000000000000000000000000
00000000000000000000000000000000000000001111000000
00000000000000000000000000000000000000111111000000
00000000000000000000000000000001111111111111000000
00000000000000000000000000000001111111111110000000
00000000000000000000000000000011111111111110000000
00000000000000000000000000000111111111111110000000
00000000000000000000000000001111111111111100000000
00000000000000000000000000011111111111111100000000
00000000000000000000000000011111111111111100000000
00000000000000000000000000111111111111111000000000
00000000000000000000000001111111111111111000000000
00000000000000000000000011111111111111111000000000
00000000000000000000000111111111111111110000000000
00000000000000000000001111111111111111110000000000
00000000000000000000001111111111111111110000000000
00000000000000000000011111111011111111110000000000
00000000000000000001111111110011111111110000000000
00000000000000000001111111100011111111100000000000
00000000000000000011111111000011111111100000000000
00000000000000000011111110000011111111100000000000
00000000000000000111111110000011111111000000000000
00000000000000001111111100000011111111000000000000
00000000000000011111111000000111111111000000000000
00000000000000011111111000000111111110000000000000
00000000000000111111111100000111111110000000000000
00000000000000111111111111111111111110000000000000
00000000000000111111111111111111111110000000000000
00000000000000011111111111111111111111100000000000
00000000000000011111111111111111111111110000000000
00000000000000000111111111111111111111110000000000
00000000000000000000000011111111111111110000000000
00000000000000000000000000111111111111110000000000
00000000000000000000000000001111111111100000000000
00000000000000000000000000011111111111100000000000
00000000000000000000000000011111110000000000000000
00000000000000000000000000011111110000000000000000
00000000000000000000000000111111110000000000000000
00000000000000000000000000111111110000000000000000
00000000000000000000000000011111110000000000000000
00000000000000000000000000001111100000000000000000
00000000000000000000000000000000000000000000000000
00000000000000000000000000000000000000000000000000
00000000000000000000000000000000000000000000000000
00000000000000000000000000000000000000000000000000
00000000000000000000000000000000000000000000000000
00000000000000000000000000000000000000000000000000
00000000000000000000000000000000000000000000000000
00000000000000000000000000000000000000000000000000
00000000000000000000000000000000000000000000000000
00000000000000000000000000000000000000000000000000
00000000000000000000000000000000000000000000000000
00000000000000000000000000000000000000000000000000
00000000000000000000000000000000000000000000000000
00000000000000000000000000000000000000000000000000
