P1
50 70
00000000000000000000000000000000000000000000000000
00000000000000000000000000000000000000000000000000
00000000000000000000000000000000000000000000000000
00000000000000000000000000000000000000000000000000
00000000000000000000000000000000000000000000000000
00000000000000000000000000000000000000000000000000
00000000000000000000000000000000000000000000000000
00000000000000000000000000000000000000000000000000
00000000000000000000000000000000000000000000000000
00000000000000000000000000000000000000000000000000
00000000000000000000000000000000000000000000000000
00000000000000000000000000000000000000000000000000
00000000000000000000000000000000000000000000000000
00000000000000000000000000000000000000000000000000
00000000000000000000000000000000000000000000000000
00000000000000000000000000000000000000000000000000
00000000000000000000000000000000000000000000000000
00000000000000000000000000000000000000000000000000
00000000000000000000000000000000000000000000000000
00000000000000000000000000000000000000000000000000
00000000000000000000000000000000000000000000000000
00000000000000000000000000000000000000000000000000
00000000000000000000000000000111111110000000000000
00000000000000000000000000001111111111100000000000
00000000000000000000000000011111111111100000000000
00000000000000000000000000111111111111000000000000
00000000000000000000000001111111111111000000000000
00000000000000000000000001111111111111000000000000
00000000000000000000000111111111111111000000000000
00000000000000000000001111111111111111000000000000
00000000000000000000011111111111111110000000000000
00000000000000000000111111111111111110000000000000
00000000000000000001111111110111111110000000000000
00000000000000000011111111000111111110000000000000
00000000000000000111111111000111111100000000000000
00000000000000000111111110000111111000000000000000
00000000000000001111111100000111111000000000000000
00000000000000011111111100001111111000000000000000
00000000000000011111111000001111111000000000000000
00000000000000111111111000001111111000000000000000
00000000000001111111111111111111111110000000000000
00000000000001111111111111111111111111000000000000
00000000000011111111111111111111111111000000000000
00000000000011111111111111111111111110000000000000
00000000000011111111111111111111111100000000000000
00000000000011111111111111111111111000000000000000
00000000000011111111111110111111111000000000000000
00000000000011111110000000111111111100000000000000
00000000000011100000000111111111111110000000000000
00000000000000000000001111111111111110000000000000
00000000000000000000011111111111111100000000000000
00000000000000000000111111111111111000000000000000
00000000000000000000111111111111110000000000000000
00000000000000000000011111100000000000000000000000
00000000000000000000001110000000000000000000000000
00000000000000000000000000000000000000000000000000
00000000000000000000000000000000000000000000000000
00000000000000000000000000000000000000000000000000
00000000000000000000000000000000000000000000000000
00000000000000000000000000000000000000000000000000
00000000000000000000000000000000000000000000000000
00000000000000000000000000000000000000000000000000
00000000000000000000000000000000000000000000000000
00000000000000000000000000000000000000000000000000
00000000000000000000000000000000000000000000000000
00000000000000000000000000000000000000000000000000
00000000000000000000000000000000000000000000000000
00000000000000000000000000000000000000000000000000
00000000000000000000000000000000000000000000000000
00000000000000000000000000000000000000000000000000
