P1
50 70
00000000000000000000000000000000000000000000000000
00000000000000000000000000000000000000000000000000
00000000000000000000000000000000000000000000000000
00000000000000000000000000000000000000000000000000
00000000000000000000000000000000000000000000000000
00000000000000000000000000000000000000000000000000
00000000000000000000000000000000000000000000000000
00000000000000000000000000000000000000000000000000
00000000000000000000000000000000000000000000000000
00000000000000000000000000000000000000000000000000
00000000000000000000000000000000000000000000000000
00000000000000000000000000000000000000000000000000
00000000000000000000000000000000000000000000000000
00000000000000000000000000000000000000000000000000
00000000000000000000000000011100000000000000000000
00000000000000000000000000111100000000000000000000
00000000000000000000000001111110000000000000000000
00000000000000000000000001111110000000000000000000
00000000000000000000000001111110000000000000000000
00000000000000000000000001111110000000000000000000
00000000000000000000000001111110000000000000000000
00000000000000000000000011111110000000000000000000
00000000000000000000000011111111000000000000000000
00000000000000000000000011111111000000000000000000
00000000000000000000000011111111000000000000000000
00000000000000000000000111111111000000000000000000
00000000000000000000000111111111000000000000000000
00000000000000000000000111111111000000000000000000
00000000000000000000000111111111100000000000000000
00000000000000000000001111011111100000000000000000
00000000000000000000001111001111100000000000000000
00000000000000000000001111001111110000000000000000
00000000000000000000011110001111110000000000000000
00000000000000000000011110001111110000000000000000
00000000000000000000011110001111110000000000000000
00000000000000000000111100001111110000000000000000
00000000000000000000111100000111111000000000000000
00000000000000000000111100000111111000000000000000
00000000000000000000111100000111111000000000000000
00000000000000000001111100000111111000000000000000
00000000000000000001111000000111111100000000000000
00000000000000000011111000000111111100000000000000
00000000000000000011110000000011111100000000000000
00000000000000000011110000000011111100001110000000
00000000000000000111110000000011111111111111000000
00000000000000000111100000000011111111111111000000
00000000000000001111000000000111111111111111000000
00000000000000001111000011111111111111111110000000
00000000000000001111001111111111111111111000000000
00000000000000011111111111111111111111000000000000
00000000000000011111111111111111111110000000000000
00000000000000111111111111111001111110000000000000
00000000000000111111111110000001111111000000000000
00000000000000111110000000000001111111000000000000
00000000000000000000000000000000111111100000000000
00000000000000000000000000000000111111100000000000
00000000000000000000000000000000111111110111110000
00000000000000000000000000000000111111111111111000
00000000000000000000000000000111111111111111111000
00000000000000000000000000001111111111111111111000
00000000000000000000000001111111111111111110000000
00000000000000000000000001111111111110000000000000
00000000000000000000000001111110000000000000000000
00000000000000000000000000000000000000000000000000
00000000000000000000000000000000000000000000000000
00000000000000000000000000000000000000000000000000
00000000000000000000000000000000000000000000000000
00000000000000000000000000000000000000000000000000
00000000000000000000000000000000000000000000000000
00000000000000000000000000000000000000000000000000
