P1
50 70
00000000000000000000000000000000000000000000000000
00000000000000000000000000000000000000000000000000
00000000000000000000000000000000000000000000000000
00000000000000000000000000000000000000000000000000
00000000000000000000000000000000000000000000000000
00000000000000000000000000000000000000000000000000
00000000000000000000000000000000000000000000000000
00000000000000000000000000000000000000000000000000
00000000000000000000000000000000000000000000000000
00000000000000000000000000000000000000000000000000
00000000000000000000000000000000000000000000000000
00000000000000000000000000000000000000000000000000
00000000000000000000000000000000000000000000000000
00000000000000000000000000000000000000000000000000
00000000000000000000000000000000000000000000000000
00000000000000000000000000000000000000000000000000
00000000000000000000000000000000000000000000000000
00000000000000000000000000000000000000000000000000
00000000000000000000000000000000000000000000000000
00000000000000000000000000111100000000000000000000
00000000000000000000000011111100000000000000000000
00000000000000000000000111111100000000000000000000
00000000000000000000001111111110000000000000000000
00000000000000000000001111111110000000000000000000
00000000000000000000001111111110000000000000000000
00000000000000000000001111111110000000000000000000
00000000000000000000001111111110000000000000000000
00000000000000000000011111111110000000000000000000
00000000000000000000011111111110000000000000000000
00000000000000000000111111111110000000000000000000
00000000000000000000111111111110000000000000000000
00000000000000000001111101111110000000000000000000
00000000000000000001111001111110000000000000000000
00000000000000000011111001111110000000000000000000
00000000000000000111110001111111000000000000000000
00000000000000000111110001111111000000000000000000
00000000000000001111100000111111000000000000000000
00000000000000001111000000111111100000000000000000
00000000000000001111000000111111100000000000000000
00000000000000011110000000111111100000000000000000
00000000000000011110000000111111100000000000000000
00000000000000111110000000111111100000000000000000
00000000000000111110000000111111100000000000000000
00000000000001111100000000111111100000000000000000
00000000000011111100000000111111100000000000000000
00000000000011111000000000111111110000111000000000
00000000000111110000000000111111111111111100000000
00000000000111110000000001111111111111111100000000
00000000001111111111111111111111111111111100000000
00000000011111111111111111111111111111111000000000
00000000011111111111111111111111111000000000000000
00000000011111111111111100011111110000000000000000
00000000001111111110000000001111110000000000000000
00000000000000000000000000001111110000000000000000
00000000000000000000000000001111111000000000000000
00000000000000000000000000001111111000000000000000
00000000000000000000000000001111111000000000000000
00000000000000000000000000001111111100000000000000
00000000000000000000000111111111111111111100000000
00000000000000000000001111111111111111111100000000
00000000000000000000001111111111111111111100000000
00000000000000000000000110001111111110001100000000
00000000000000000000000000000000000000000000000000
00000000000000000000000000000000000000000000000000
00000000000000000000000000000000000000000000000000
00000000000000000000000000000000000000000000000000
00000000000000000000000000000000000000000000000000
00000000000000000000000000000000000000000000000000
00000000000000000000000000000000000000000000000000
00000000000000000000000000000000000000000000000000
