P1
50 70
00000000000000000000000000000000000000000000000000
00000000000000000000000000000000000000000000000000
00000000000000000000000000000000000000000000000000
00000000000000000000000000000000000000000000000000
00000000000000000000000000000000000000000000000000
00000000000000000000000000000000000000000000000000
00000000000000000000000000000000000000000000000000
00000000000000000000000000000000000000000000000000
00000000000000000000000000000000000000000000000000
00000000000000000000000000000000000000000000000000
00000000000000000000000000000000000000000000000000
00000000000000000000000000000000000000000000000000
00000000000000000000000000000000000000000000000000
00000000000000000000000000000000000000000000000000
00000000000000000000000000000000000000000000000000
00000000000000000000000000000000000000000000000000
00000000000000000000000000000000000000000000000000
00000000000000000000000000000000000000000000000000
00000000000000000000000000000000000000000000000000
00000000000000000000000000000000000000000000000000
00000000000000000000000000000000000000000000000000
00000000000000000000000000000011011000000000000000
00000000000000000000000000000011111100000000000000
00000000000000000000000000000111111000000000000000
00000000000000000000000000001111111000000000000000
00000000000000000000000000001111111000000000000000
00000000000000000000000000011111111000000000000000
00000000000000000000000000111111110000000000000000
00000000000000000000000001111111111000000000000000
00000000000000000000000011111111111000000000000000
00000000000000000000000111111111111000000000000000
00000000000000000000001111110111110000000000000000
00000000000000000000001111100111110000000000000000
00000000000000000000011111000111110000000000000000
00000000000000000000111110000111110000000000000000
00000000000000000001111110001111100000000000000000
00000000000000000011111100001111100000000000000000
00000000000000000111111000001111110000000000000000
00000000000000011111110000001111110000000000000000
00000000000000111111100000011111110000000000000000
00000000000001111111100000011111100000000000000000
00000000000011111110000000011111100000000000000000
00000000000111111100000000001111100000000000000000
00000000001111111000000000001111100000000000000000
00000000011111110000000000011111100000000000000000
00000000111111110000000000011111100000000000000000
00000001111111111111100000011111100000000000000000
00000001111111111111111110111111100000000000000000
00000001111111111111111111111111100000000000000000
00000000111111111111111111111111111100000000000000
00000000000011111111111111111111111110000000000000
00000000000000001110011111111111111110000000000000
00000000000000000000000001111111111110000000000000
00000000000000000000000000111111111110000000000000
00000000000000000000000000111111100000000000000000
00000000000000000000000000111111000000000000000000
00000000000000000000000001111111000000000000000000
00000000000000000000000001111111000000000000000000
00000000000000000000000001111111000000000000000000
00000000000000000000000001111111000000000000000000
00000000000000000000000001111110000000000000000000
00000000000000000000000001111110000000000000000000
00000000000000000000000001111111000000000000000000
00000000000000000000000000000111000000000000000000
00000000000000000000000000000000000000000000000000
00000000000000000000000000000000000000000000000000
00000000000000000000000000000000000000000000000000
00000000000000000000000000000000000000000000000000
00000000000000000000000000000000000000000000000000
00000000000000000000000000000000000000000000000000
