P1
50 70
00000000000000000000000000000000000000000000000000
00000000000000000000000000000000000000000000000000
00000000000000000000000000000000000000000000000000
00000000000000000000000000000000000000000000000000
00000000000000000000000000000000000000000000000000
00000000000000000000000000000000000000000000000000
00000000000000000000000000000000000000000000000000
00000000000000000000000000000000000000000000000000
00000000000000000000000000000000000000000000000000
00000000000000000000000000000000000000000000000000
00000000000000000000000000000000000000000000000000
00000000000000000000000000000000000000000000000000
00000000000000000000000000000000000000000000000000
00000000000000000000000000111100000000000000000000
00000000000000000000000001111100000000000000000000
00000000000000000000000001111100000000000000000000
00000000000000000000000011111110000000000000000000
00000000000000000000000011111110000000000000000000
00000000000000000000000011111110000000000000000000
00000000000000000000000011111110000000000000000000
00000000000000000000000011111111000000000000000000
00000000000000000000000111111111000000000000000000
00000000000000000000000111111111000000000000000000
00000000000000000000000111111111000000000000000000
00000000000000000000001111111111000000000000000000
00000000000000000000001111111111100000000000000000
00000000000000000000001111111111100000000000000000
00000000000000000000001111111111100000000000000000
00000000000000000000001111011111100000000000000000
00000000000000000000001110011111110000000000000000
00000000000000000000011110001111110000000000000000
00000000000000000000011110001111110000000000000000
00000000000000000000011110001111110000000000000000
00000000000000000000111110001111111000000000000000
00000000000000000000111110000111111000000000000000
00000000000000000000111100000111111000000000000000
00000000000000000001111100000111111000000000000000
00000000000000000001111100000111111100000000000000
00000000000000000001111000000011111100000000000000
00000000000000000011110000000011111100000000000000
00000000000000000011110000000011111100000000000000
00000000000000000011110000000011111100000000000000
00000000000000000011110000000011111110000000000000
00000000000000000111100000000011111110000000000000
00000000000000001111100000000001111110000000000000
00000000000000001111100000000011111111100111100000
00000000000000001111000000000011111111111111110000
00000000000000011111000000001111111111111111110000
00000000000000011111000111111111111111111111111000
00000000000000111111111111111111111111111111110000
00000000000000111111111111111111111111100000000000
00000000000000111111111111111111111111100000000000
00000000000000111111111111000000111111100000000000
00000000000000011111110000000000111111100000000000
00000000000000000000000000000000111111110000000000
00000000000000000000000000000000011111110000000000
00000000000000000000000000000000011111110000000000
00000000000000000000000000000000011111110000000000
00000000000000000000000000000000011111111000000000
00000000000000000000000000000000011111111111111100
00000000000000000000000000000111111111111111111110
00000000000000000000000000111111111111111111111110
00000000000000000000000000111111111111111111111110
00000000000000000000000000111111111111111111110000
00000000000000000000000000010000100000000000000000
00000000000000000000000000000000000000000000000000
00000000000000000000000000000000000000000000000000
00000000000000000000000000000000000000000000000000
00000000000000000000000000000000000000000000000000
00000000000000000000000000000000000000000000000000
