P1
50 70
00000000000000000000000000000000000000000000000000
00000000000000000000000000000000000000000000000000
00000000000000000000000000000000000000000000000000
00000000000000000000000000000000000000000000000000
00000000000000000000000000000000000000000000000000
00000000000000000000000000000000000000000000000000
00000000000000000000000000000000000000000000000000
00000000000000000000000000000000000000000000000000
00000000000000000000000000000000000000000000000000
00000000000000000000000000000000000000000000000000
00000000000000000000000000000000000000000000000000
00000000000000000000000000000000000000000000000000
00000000000000000000000000000000000000000000000000
00000000000000000000000000000000100000000000000000
00000000000000000000000001111111110000000000000000
00000000000000000000000011111111111000000000000000
00000000000000000000000111111111110000000000000000
00000000000000000000000111111111110000000000000000
00000000000000000000000111111111110000000000000000
00000000000000000000001111111111111000000000000000
00000000000000000000001111111111111000000000000000
00000000000000000000011111111111111000000000000000
00000000000000000000011111111111111000000000000000
00000000000000000000111111111111111000000000000000
00000000000000000000111111111111111000000000000000
00000000000000000000111111111111111100000000000000
00000000000000000001111111111111111100000000000000
00000000000000000001111111111111111100000000000000
00000000000000000001111111111111111100000000000000
00000000000000000011111101111111111100000000000000
00000000000000000011111000111111111100000000000000
00000000000000000011110000111111111100000000000000
00000000000000000111110001111111111100000000000000
00000000000000000111110001111111111100000000000000
00000000000000001111110001111111111100000000000000
00000000000000001111110000111111111100000000000000
00000000000000011111100000111111111110000000000000
00000000000000011111100000111111111110000000000000
00000000000000111111000000111111111110000000000000
00000000000000111111000000111111111110000000000000
00000000000000111110000000111111111110000000000000
00000000000001111110000000011111111111000000000000
00000000000001111110000000011111111111000000000000
00000000000011111100000000111111111111000000000000
00000000000011111000000000111111111111000000000000
00000000000111111111110000111111111111111100000000
00000000000111111111111111111111111111111111000000
00000000000111111111111111111111111111111111000000
00000000000111111111111111111111111111111111100000
00000000000111111111111111111111111111111111100000
00000000000011110011111110111111111111111111100000
00000000000000000000000000011111111111100000000000
00000000000000000000000000001111111111100000000000
00000000000000000000000000001111111111100000000000
00000000000000000000000000001111111111100000000000
00000000000000000000000000011111111111100000000000
00000000000000000000000000001111111111100000000000
00000000000000000000000011011111111111100000000000
00000000000000000000000111111111111111110011000000
00000000000000000000000111111111111111111111100000
00000000000000000000001111111111111111111111100000
00000000000000000000000111111111111111111111100000
00000000000000000000000111000111111111111111100000
00000000000000000000000000000000000000001111000000
00000000000000000000000000000000000000000000000000
00000000000000000000000000000000000000000000000000
00000000000000000000000000000000000000000000000000
00000000000000000000000000000000000000000000000000
00000000000000000000000000000000000000000000000000
00000000000000000000000000000000000000000000000000
