P1
50 70
00000000000000000000000000000000000000000000000000
00000000000000000000000000000000000000000000000000
00000000000000000000000000000000000000000000000000
00000000000000000000000000000000000000000000000000
00000000000000000000000000000000000000000000000000
00000000000000000000000000000000000000000000000000
00000000000000000000000000000000000000000000000000
00000000000000000000000000000000000000000000000000
00000000000000000000000000000000000000000000000000
00000000000000000000000000000000000000000000000000
00000000000000000000000000000000000000000000000000
00000000000000000000000000000000000000000000000000
00000000000000000000000000000000000000000000000000
00000000000000000000000000000000000000000000000000
00000000000000000000000011110000000000000000000000
00000000000000000000001111111000000000000000000000
00000000000000000000011111111100000000000000000000
00000000000000000000011111111100000000000000000000
00000000000000000000011111111100000000000000000000
00000000000000000000011111111110000000000000000000
00000000000000000000011111111110000000000000000000
00000000000000000000111111111110000000000000000000
00000000000000000000111111111110000000000000000000
00000000000000000000111110111111000000000000000000
00000000000000000000111110111111100000000000000000
00000000000000000000111100111111100000000000000000
00000000000000000001111100011111100000000000000000
00000000000000000001111100001111110000000000000000
00000000000000000001111100001111110000000000000000
00000000000000000001111100001111110000000000000000
00000000000000000011111100001111110000000000000000
00000000000000000011111000000111111000000000000000
00000000000000000011111000000111111100000000000000
00000000000000000011111000000011111100000000000000
00000000000000000111111000000011111100000000000000
00000000000000000111111000000011111100000000000000
00000000000000000111110000000001111110000000000000
00000000000000001111110000000001111110000000000000
00000000000000001111110000000001111110000000000000
00000000000000001111110000000001111111001100000000
00000000000000001111100000000001111111111110000000
00000000000000001111110100011111111111111111000000
00000000000000001111111111111111111111111111000000
00000000000000001111111111111111111111111111000000
00000000000000001111111111111111111111111111000000
00000000000000001111111111111111011111110000000000
00000000000000000111111111100000001111110000000000
00000000000000000110000000000000000111110000000000
00000000000000000000000000000000000011111000000000
00000000000000000000000000000000000011111100000000
00000000000000000000000000000000000011111100000000
00000000000000000000000000000000000011111100000000
00000000000000000000000000000000000011111100000000
00000000000000000000000000000000000001111110000000
00000000000000000000000000000000000001111110000000
00000000000000000000000000000000000001111110000000
00000000000000000000000000000000000000000000000000
00000000000000000000000000000000000000000000000000
00000000000000000000000000000000000000000000000000
00000000000000000000000000000000000000000000000000
00000000000000000000000000000000000000000000000000
00000000000000000000000000000000000000000000000000
00000000000000000000000000000000000000000000000000
00000000000000000000000000000000000000000000000000
00000000000000000000000000000000000000000000000000
00000000000000000000000000000000000000000000000000
00000000000000000000000000000000000000000000000000
00000000000000000000000000000000000000000000000000
00000000000000000000000000000000000000000000000000
00000000000000000000000000000000000000000000000000
