P1
50 70
00000000000000000000000000000000000000000000000000
00000000000000000000000000000000000000000000000000
00000000000000000000000000000000000000000000000000
00000000000000000000000000000000000000000000000000
00000000000000000000000000000000000000000000000000
00000000000000000000000000000000000000000000000000
00000000000000000000000000000000000000000000000000
00000000000000000000000000000000000000000000000000
00000000000000000000000000000000000000000000000000
00000000000000000000000000000000000000000000000000
00000000000000000000000000000000000000000000000000
00000000000000000000000000000000000000000000000000
00000000000000000000000000000000000000000000000000
00000000000000000000000000000000000000000000000000
00000000000000000000000000000000000000000000000000
00000000000000000000000000000000000000000000000000
00000000000000000000000000000000000000000000000000
00000000000000000000000000000000000000000000000000
00000000000000000000000000000000000000000000000000
00000000000000000000000000000000000000000000000000
00000000000000000000000000000011110000000000000000
00000000000000000000000000011111110000000000000000
00000000000000000000000000011111110000000000000000
00000000000000000000000000111111110000000000000000
00000000000000000000000001111111111000000000000000
00000000000000000000000001111111111000000000000000
00000000000000000000000011111111110000000000000000
00000000000000000000000111111111110000000000000000
00000000000000000000001111111111110000000000000000
00000000000000000000001111101111110000000000000000
00000000000000000000011111001111110000000000000000
00000000000000000000111110011111100000000000000000
00000000000000000001111100011111110000000000000000
00000000000000000001111100011111110000000000000000
00000000000000000011111000011111110000000000000000
00000000000000000111110000011111110000000000000000
00000000000000001111100000011111100000000000000000
00000000000000001111100000011111100000000000000000
00000000000000011111000000011111110000000000000000
00000000000000111110000000011111110000000000000000
00000000000001111100000000011111110000000000000000
00000000000001111100000000011111100000000000000000
00000000000011111000000000011111100000000000000000
00000000000111110000000000011111100000000000000000
00000000001111100000000000011111100000000000000000
00000000001111100000000000011111111111111100000000
00000000011111000000000000111111111111111100000000
00000000111110000000001111111111111111111000000000
00000001111110000111111111111111111111110000000000
00000011111111111111111111111111110000000000000000
00000011111111111111111111111111100000000000000000
00000011111111111110010000011111100000000000000000
00000011111111000000000000111111100000000000000000
00000011000000000000000000111111100000000000000000
00000000000000000000000000111111100000000000000000
00000000000000000000000000111111100000110000000000
00000000000000000000000000111111111111111000000000
00000000000000000000000000111111111111111000000000
00000000000000000000111111111111111111110000000000
00000000000000000011111111111111111111000000000000
00000000000000000011111111111010000000000000000000
00000000000000000011111001000000000000000000000000
00000000000000000000000000000000000000000000000000
00000000000000000000000000000000000000000000000000
00000000000000000000000000000000000000000000000000
00000000000000000000000000000000000000000000000000
00000000000000000000000000000000000000000000000000
00000000000000000000000000000000000000000000000000
00000000000000000000000000000000000000000000000000
00000000000000000000000000000000000000000000000000
