P1
50 70
00000000000000000000000000000000000000000000000000
00000000000000000000000000000000000000000000000000
00000000000000000000000000000000000000000000000000
00000000000000000000000000000000000000000000000000
00000000000000000000000000000000000000000000000000
00000000000000000000000000000000000000000000000000
00000000000000000000000000000000000000000000000000
00000000000000000000000000000000000000000000000000
00000000000000000000000000000000000000000000000000
00000000000000000000000000000000000000000000000000
00000000000000000000000000000000000000000000000000
00000000000000000000000000000000000001111000000000
00000000000000000000000000000000000111111000000000
00000000000000000000000000000000111111111000000000
00000000000000000000000000000001111111111000000000
00000000000000000000000000000011111111111000000000
00000000000000000000000000000111111111110000000000
00000000000000000000000000000111111111100000000000
00000000000000000000000000001111111111100000000000
00000000000000000000000000001111111111100000000000
00000000000000000000000000011111111111100000000000
00000000000000000000000000011111111111100000000000
00000000000000000000000000111111111111100000000000
00000000000000000000000001111111111111000000000000
00000000000000000000000001111111111111000000000000
00000000000000000000000011111111111111000000000000
00000000000000000000000011111111111111000000000000
00000000000000000000000111111111111110000000000000
00000000000000000000000111111111111110000000000000
00000000000000000000001111111011111110000000000000
00000000000000000000001111110011111110000000000000
00000000000000000000011111110111111110000000000000
00000000000000000000111111101111111100000000000000
00000000000000000000111111001111111100000000000000
00000000000000000001111111001111111100000000000000
00000000000000000001111110001111111100000000000000
00000000000000000011111110001111111000000000000000
00000000000000000011111100001111111000000000000000
00000000000000000111111000011111111001100000000000
00000000000000000111111000011111111111100000000000
00000000000000001111110000011111111111100000000000
00000000000000011111110000011111111111100000000000
00000000000000011111100000111111111111100000000000
00000000000000111111100000111111111111000000000000
00000000000000111111000001111111111110000000000000
00000000000001111110001111111111111110000000000000
00000000000001111100111111111111111100000000000000
00000000000011111111111111111111100000000000000000
00000000000111111111111111111111100000000000000000
00000000000111111111111111111111000000000000000000
00000000001111111111111111111111000000000000000000
00000000001111111111111111111111000000000000000000
00000000011111111111111111111110000000000000000000
00000000111111111111000111111110000000000000000000
00000000011111111100000011111110000000000000000000
00000000011111110000000111111110000000000000000000
00000000011111000000001111111100000000000000000000
00000000111000000000001111111000000000000000000000
00000000000000000000001111000000000000000000000000
00000000000000000000000110000000000000000000000000
00000000000000000000000000000000000000000000000000
00000000000000000000000000000000000000000000000000
00000000000000000000000000000000000000000000000000
00000000000000000000000000000000000000000000000000
00000000000000000000000000000000000000000000000000
00000000000000000000000000000000000000000000000000
00000000000000000000000000000000000000000000000000
00000000000000000000000000000000000000000000000000
00000000000000000000000000000000000000000000000000
00000000000000000000000000000000000000000000000000
