P1
50 70
00000000000000000000000000000000000000000000000000
00000000000000000000000000000000000000000000000000
00000000000000000000000000000000000000000000000000
00000000000000000000000000000000000000000000000000
00000000000000000000000000000000000000000000000000
00000000000000000000000000000000000000000000000000
00000000000000000000000000000000000000000000000000
00000000000000000000000000000000000000000000000000
00000000000000000000000000000000000000000000000000
00000000000000000000000000000000001111000000000000
00000000000000000000000000000000011111000000000000
00000000000000000000000000000000111111000000000000
00000000000000000000000000000001111111000000000000
00000000000000000000000000000001111111000000000000
00000000000000000000000000000011111111000000000000
00000000000000000000000000000011111111000000000000
00000000000000000000000000000111111111000000000000
00000000000000000000000000000111111110000000000000
00000000000000000000000000001111111110000000000000
00000000000000000000000000001111111110000000000000
00000000000000000000000000011111111110000000000000
00000000000000000000000000111111111100000000000000
00000000000000000000000000111111111100000000000000
00000000000000000000000001111011111100000000000000
00000000000000000000000011111001111100000000000000
00000000000000000000000011110001111100000000000000
00000000000000000000000111100001111100000000000000
00000000000000000000000111100011111100000000000000
00000000000000000000001111000011111000000000000000
00000000000000000000011111000011111000000000000000
00000000000000000000111110000011111000000000000000
00000000000000000000111100000011111000000000000000
00000000000000000001111100000111111000000000000000
00000000000000000011111000000111110000000000000000
00000000000000000011110000000111110000000000000000
00000000000000000011100000000111110000000000000000
00000000000000000111100000000111110000000000000000
00000000000000001111000000001111110000000000000000
00000000000000011111000000001111110000000000000000
00000000000000111110000000011111111000000000000000
00000000000000111111111111111111111111100000000000
00000000000000111111111111111111111111100000000000
00000000000000111111111111111111111111100000000000
00000000000000111111111111111111111111100000000000
00000000000000001000000000011111100000000000000000
00000000000000000000000000011111000000000000000000
00000000000000000000000000011111000000000000000000
00000000000000000000000000111111000000000000000000
00000000000000000000000000111111000000000000000000
00000000000000000000000000111111000000000000000000
00000000000000000000001001111111100000000000000000
00000000000000000000011111111111111100000000000000
00000000000000000000011111111111111110000000000000
00000000000000000000011111111111111100000000000000
00000000000000000000000100111011111100000000000000
00000000000000000000000000000000000000000000000000
00000000000000000000000000000000000000000000000000
00000000000000000000000000000000000000000000000000
00000000000000000000000000000000000000000000000000
00000000000000000000000000000000000000000000000000
00000000000000000000000000000000000000000000000000
00000000000000000000000000000000000000000000000000
00000000000000000000000000000000000000000000000000
00000000000000000000000000000000000000000000000000
00000000000000000000000000000000000000000000000000
00000000000000000000000000000000000000000000000000
00000000000000000000000000000000000000000000000000
00000000000000000000000000000000000000000000000000
00000000000000000000000000000000000000000000000000
00000000000000000000000000000000000000000000000000
