P1
50 70
00000000000000000000000000000000000000000000000000
00000000000000000000000000000000000000000000000000
00000000000000000000000000000000000000000000000000
00000000000000000000000000000000000000000000000000
00000000000000000000000000000000000000000000000000
00000000000000000000000000000000000000000000000000
00000000000000000000000000000000000000000000000000
00000000000000000000000000000000000000000000000000
00000000000000000000000000000000000000000000000000
00000000000000000000000000000000000000000000000000
00000000000000000000000000000000000000000000000000
00000000000000000000000000000000000000000000000000
00000000000000000000000000000000000000000000000000
00000000000000000000000000000000000000000000000000
00000000000000000000000000000000000000000000000000
00000000000000000000000000000000000000000000000000
00000000000000000000000000000000000000000000000000
00000000000000000000000000000000000000000000000000
00000000000000000000000000000000000000000000000000
00000000000000000000000000000001100000000000000000
00000000000000000000000000000011111100000000000000
00000000000000000000000000000111111111100000000000
00000000000000000000000000001111111111110000000000
00000000000000000000000000011111111111110000000000
00000000000000000000000000011111111111110000000000
00000000000000000000000000111111111111110000000000
00000000000000000000000001111111111111110000000000
00000000000000000000000001111111111111110000000000
00000000000000000000000011111111111111110000000000
00000000000000000000000111111111111111110000000000
00000000000000000000000111111110011111110000000000
00000000000000000000001111111100011111110000000000
00000000000000000000001111111100011111110000000000
00000000000000000000011111111000001111110000000000
00000000000000000000011111110000001111110000000000
00000000000000000000111111100000001111100000000000
00000000000000000000111111100000001111100000000000
00000000000000000001111111000000001111100000000000
00000000000000000001111111000000011111110000000000
00000000000000000011111110000000011111110000000000
00000000000000000011111110000000011111110000000000
00000000000000000111111100000000011111110000000000
00000000000000000111111100000000011111110000000000
00000000000000001111111000000000011111110000000000
00000000000000001111111000000000011111110000000000
00000000000000001111111000000000001111110000000000
00000000000000001111111000000000001111110000000000
00000000000000001111111100000000001111110000000000
00000000000000001111111111111110011111110000000000
00000000000000000111111111111111111111110000000000
00000000000000000111111111111111111111111000000000
00000000000000000111111111111111111111111111000000
00000000000000000000111111111111111111111111000000
00000000000000000000000000011111111111111111000000
00000000000000000000000000000001111111111111000000
00000000000000000000000000000000011111110000000000
00000000000000000000000000000000011111100000000000
00000000000000000000000000000000011111100000000000
00000000000000000000000000000000011111100000000000
00000000000000000000000000000000011111100000000000
00000000000000000000000000000000001111100000000000
00000000000000000000000000000000001111100000000000
00000000000000000000000000000000001111100000000000
00000000000000000000000000000000001111100000000000
00000000000000000000000000000000001111100000000000
00000000000000000000000000000000000000000000000000
00000000000000000000000000000000000000000000000000
00000000000000000000000000000000000000000000000000
00000000000000000000000000000000000000000000000000
00000000000000000000000000000000000000000000000000
