P1
50 70
00000000000000000000000000000000000000000000000000
00000000000000000000000000000000000000000000000000
00000000000000000000000000000000000000000000000000
00000000000000000000000000000000000000000000000000
00000000000000000000000000000000000000000000000000
00000000000000000000000000000000000000000000000000
00000000000000000000000000000000000000000000000000
00000000000000000000000000000000000000000000000000
00000000000000000000000000000000000000000000000000
00000000000000000000000000000000000000000000000000
00000000000000000000000000000000000000000000000000
00000000000000000000000000000000000000000000000000
00000000000000000000000000000000000000000000000000
00000000000000000000000000000111100000000000000000
00000000000000000000000000001111111110000000000000
00000000000000000000000000011111111110000000000000
00000000000000000000000000111111111110000000000000
00000000000000000000000000111111111110000000000000
00000000000000000000000001111111111110000000000000
00000000000000000000000001111111111111000000000000
00000000000000000000000011111111111110000000000000
00000000000000000000000011111111111110000000000000
00000000000000000000000111111111111110000000000000
00000000000000000000001111111111111110000000000000
00000000000000000000011111111111111100000000000000
00000000000000000000011111011111111110000000000000
00000000000000000000111110011111111110000000000000
00000000000000000000111110011111111110000000000000
00000000000000000001111100011111111110000000000000
00000000000000000011111000011111111100000000000000
00000000000000000111110000111111111100000000000000
00000000000000000111110000111111111100000000000000
00000000000000001111100000111111111100000000000000
00000000000000011111000000111111111100000000000000
00000000000000011111000000111111111100000000000000
00000000000000011111000000111111111100000000000000
00000000000000111110000000111111111100000000000000
00000000000001111100000000111111111100000000000000
00000000000001111000000000111111111100000000000000
00000000000011110000000000111111111100000000000000
00000000000111110000000001111111111111111000000000
00000000000111111111111111111111111111111100000000
00000000001111111111111111111111111111111100000000
00000000011111111111111111111111111111111000000000
00000000011111111111111111111111111100000000000000
00000000111111111111100011111111111000000000000000
00000000111100000000000011111111111000000000000000
00000000000000000000000011111111111000000000000000
00000000000000000000000011111111111000000000000000
00000000000000000000000011111111111000100000000000
00000000000000000000000011111111111111110000000000
00000000000000000000000111111111111111110000000000
00000000000000000000001111111111111111110000000000
00000000000000000111111111111111111111110000000000
00000000000000000111111111111111100000000000000000
00000000000000000111111111100000000000000000000000
00000000000000000111100000000000000000000000000000
00000000000000000000000000000000000000000000000000
00000000000000000000000000000000000000000000000000
00000000000000000000000000000000000000000000000000
00000000000000000000000000000000000000000000000000
00000000000000000000000000000000000000000000000000
00000000000000000000000000000000000000000000000000
00000000000000000000000000000000000000000000000000
00000000000000000000000000000000000000000000000000
00000000000000000000000000000000000000000000000000
00000000000000000000000000000000000000000000000000
00000000000000000000000000000000000000000000000000
00000000000000000000000000000000000000000000000000
00000000000000000000000000000000000000000000000000
