P1
50 70
00000000000000000000000000000000000000000000000000
00000000000000000000000000000000000000000000000000
00000000000000000000000000000000000000000000000000
00000000000000000000000000000000000000000000000000
00000000000000000000000000000000000000000000000000
00000000000000000000000000000000000000000000000000
00000000000000000000000000000000000000000000000000
00000000000000000000000000000000000000000000000000
00000000000000000000000000000000000000000000000000
00000000000000000000000000000000000000000000000000
00000000000000000000000000000000000000000000000000
00000000000000000000000000000000000000000000000000
00000000000000000000000000000000000000000000000000
00000000000000000000000000000000000000000000000000
00000000000000000000000000000000000000000000000000
00000000000000000000000000001111110000000000000000
00000000000000000000000000001111111000000000000000
00000000000000000000000000001111111000000000000000
00000000000000000000000000011111111000000000000000
00000000000000000000000000111111111000000000000000
00000000000000000000000000111111111000000000000000
00000000000000000000000000111111111000000000000000
00000000000000000000000001111111111000000000000000
00000000000000000000000001111111111000000000000000
00000000000000000000000011111011111000000000000000
00000000000000000000000111111011111000000000000000
00000000000000000000000111110011111000000000000000
00000000000000000000000111110011111000000000000000
00000000000000000000001111100011111000000000000000
00000000000000000000011111000011111000000000000000
00000000000000000000011111000001111000000000000000
00000000000000000000111110000001111000000000000000
00000000000000000000111110000001111000000000000000
00000000000000000001111100000001111000000000000000
00000000000000000011111100000001111000000000000000
00000000000000000011111000000011111000000000000000
00000000000000000111110000000011111000000000000000
00000000000000000111110000000011111000000000000000
00000000000000001111100000000011111000000000000000
00000000000000011111100000000011111000000000000000
00000000000000111111000000000011111000000000000000
00000000000001111110000000000011111000000000000000
00000000000001111110000000000011111100000000000000
00000000000001111111110000000111111111110000000000
00000000000001111111111111111111111111111000000000
00000000000001111111111111111111111111111000000000
00000000000011111111111111111111111111111100000000
00000000000011111111111111111111111111111100000000
00000000000001111111000000111111111111111000000000
00000000000000000000000000000111111110000000000000
00000000000000000000000000000011111110000000000000
00000000000000000000000000000011111110000000000000
00000000000000000000000000000011111110000000000000
00000000000000000000000000000011111110000000000000
00000000000000000000000000000011111110000000000000
00000000000000000000000000000011111110000000000000
00000000000000000000000000000011111110000000000000
00000000000000000000000000000011111110000000000000
00000000000000000000000000000011111110000000000000
00000000000000000000000000000011111110000000000000
00000000000000000000000000000000000000000000000000
00000000000000000000000000000000000000000000000000
00000000000000000000000000000000000000000000000000
00000000000000000000000000000000000000000000000000
00000000000000000000000000000000000000000000000000
00000000000000000000000000000000000000000000000000
00000000000000000000000000000000000000000000000000
00000000000000000000000000000000000000000000000000
00000000000000000000000000000000000000000000000000
00000000000000000000000000000000000000000000000000
