P1
50 70
00000000000000000000000000000000000000000000000000
00000000000000000000000000000000000000000000000000
00000000000000000000000000000000000000000000000000
00000000000000000000000000000000000000000000000000
00000000000000000000000000000000000000000000000000
00000000000000000000000000000000000000000000000000
00000000000000000000000000000000000000000000000000
00000000000000000000000000000000000000000000000000
00000000000000000000000000000000000000000000000000
00000000000000000000000000000000000000000000000000
00000000000000000000000000000000000000000000000000
00000000000000000000000000000000000000000000000000
00000000000000000000000000000000111111000000000000
00000000000000000000000000000001111111110000000000
00000000000000000000000000000011111111100000000000
00000000000000000000000000000011111111100000000000
00000000000000000000000000000111111111100000000000
00000000000000000000000000001111111111100000000000
00000000000000000000000000011111111111100000000000
00000000000000000000000000011111111111000000000000
00000000000000000000000000111111111111000000000000
00000000000000000000000001111100111111000000000000
00000000000000000000000011111100111111000000000000
00000000000000000000000011111000111110000000000000
00000000000000000000000111110001111110000000000000
00000000000000000000001111110001111110000000000000
00000000000000000000011111100001111110000000000000
00000000000000000000111111000001111100000000000000
00000000000000000000111110000001111100000000000000
00000000000000000001111100000011111100000000000000
00000000000000000011111100000011111100000000000000
00000000000000000111111000000011111000000000000000
00000000000000000111110000000011111000000000000000
00000000000000001111100000000111110000000000000000
00000000000000011111000000000111110000000000000000
00000000000000111111000000000111110000000000000000
00000000000000111110000000000111110000000000000000
00000000000001111100000000001111100000000000000000
00000000000011111000000000001111110000000000000000
00000000000111111000000000011111111111000000000000
00000000000111110000000011111111111111000000000000
00000000001111111111111111111111111111000000000000
00000000001111111111111111111111111111000000000000
00000000011111111111111111111111111110000000000000
00000000011111111111111111111111100000000000000000
00000000011111111111111111111111000000000000000000
00000000111111111111000001111110000000000000000000
00000000111111110000000001111110000000000000000000
00000000111110000000000001111110000000000000000000
00000000010000000000000001111110000000000000000000
00000000000000000000000011111100000000000000000000
00000000000000000000000011111100000000000000000000
00000000000000000000000011111100000000000000000000
00000000000000000000000011111100000000000000000000
00000000000000000000000011111000000000000000000000
00000000000000000000000111000000000000000000000000
00000000000000000000000000000000000000000000000000
00000000000000000000000000000000000000000000000000
00000000000000000000000000000000000000000000000000
00000000000000000000000000000000000000000000000000
00000000000000000000000000000000000000000000000000
00000000000000000000000000000000000000000000000000
00000000000000000000000000000000000000000000000000
00000000000000000000000000000000000000000000000000
00000000000000000000000000000000000000000000000000
00000000000000000000000000000000000000000000000000
00000000000000000000000000000000000000000000000000
00000000000000000000000000000000000000000000000000
00000000000000000000000000000000000000000000000000
00000000000000000000000000000000000000000000000000
