P1
50 70
00000000000000000000000000000000000000000000000000
00000000000000000000000000000000000000000000000000
00000000000000000000000000000000000000000000000000
00000000000000000000000000000000000000000000000000
00000000000000000000000000000000000000000000000000
00000000000000000000000000000000000000000000000000
00000000000000000000000000000000000000000000000000
00000000000000000000000000000000000000000000000000
00000000000000000000000000000000000000000000000000
00000000000000000000000000000000000000000000000000
00000000000000000000000000000000000000000000000000
00000000000000000000000000000000000000000000000000
00000000000000000000000000000000010000000000000000
00000000000000000000000000000111111000000000000000
00000000000000000000000000000111111000000000000000
00000000000000000000000001111111111000000000000000
00000000000000000000001111111111111000000000000000
00000000000000000000011111111111111100000000000000
00000000000000000000011111111111111100000000000000
00000000000000000000011111111111111100000000000000
00000000000000000000011111111111111100000000000000
00000000000000000000111111111111111110000000000000
00000000000000000000111111111111111110000000000000
00000000000000000001111111111111111110000000000000
00000000000000000001111111111111111111000000000000
00000000000000000001111111111111111111000000000000
00000000000000000001111111111111111111000000000000
00000000000000000001111111111111111111000000000000
00000000000000000011111111111111111111000000000000
00000000000000000011111111111111111111100000000000
00000000000000000011111111011111111111100000000000
00000000000000000011111111011111111111100000000000
00000000000000000111111111011111111111100000000000
00000000000000000111111110001111111111100000000000
00000000000000000111111110001111111111110000000000
00000000000000000111111100001111111111110000000000
00000000000000001111111100001111111111111001110000
00000000000000001111111100000111111111111111111000
00000000000000001111111100000111111111111111111000
00000000000000001111111100000111111111111111111000
00000000000000011111111000000111111111111111111000
00000000000000011111111000000011111111111111111100
00000000000000011111111000000011111111111111111000
00000000000000011111111000000111111111111111111000
00000000000000011111110000011111111111111111100000
00000000000000111111110001111111111111111111000000
00000000000000111111111011111111111111111110000000
00000000000000111111111111111111111111111110000000
00000000000000111111111111111111111111111110000000
00000000000000111111111111111111111111111110000000
00000000000000111111111111111111111111111111000000
00000000000000111111111111111111111111111111000000
00000000000000111111111111111100111111111111000000
00000000000000111111111111111000011111111111000000
00000000000000111111111111100000011111111100000000
00000000000000011111111110000000011111111000000000
00000000000000011111111100000000001111100000000000
00000000000000011111110000000000000111000000000000
00000000000000011111100000000000000000000000000000
00000000000000001110000000000000000000000000000000
00000000000000001000000000000000000000000000000000
00000000000000000000000000000000000000000000000000
00000000000000000000000000000000000000000000000000
00000000000000000000000000000000000000000000000000
00000000000000000000000000000000000000000000000000
00000000000000000000000000000000000000000000000000
00000000000000000000000000000000000000000000000000
00000000000000000000000000000000000000000000000000
00000000000000000000000000000000000000000000000000
00000000000000000000000000000000000000000000000000
