P1
50 70
00000000000000000000000000000000000000000000000000
00000000000000000000000000000000000000000000000000
00000000000000000000000000000000000000000000000000
00000000000000000000000000000000000000000000000000
00000000000000000000000000000000000000000000000000
00000000000000000000000000000000000000000000000000
00000000000000000000000000000000000000000000000000
00000000000000000000000000000000000000000000000000
00000000000000000000000000000000000000000000000000
00000000000000000000000000000000000000000000000000
00000000000000000000000000000000000000000000000000
00000000000000000000000000000000000000000000000000
00000000000000000000000000000000000100000000000000
00000000000000000000000000000000001110000000000000
00000000000000000000000000000111111110000000000000
00000000000000000000000000111111111110000000000000
00000000000000000000000111111111111110000000000000
00000000000000000000000111111111111110000000000000
00000000000000000000001111111111111110000000000000
00000000000000000000001111111111111110000000000000
00000000000000000000011111111111111110000000000000
00000000000000000000011111111111111110000000000000
00000000000000000000011111111111111110000000000000
00000000000000000000111111111111111110000000000000
00000000000000000000111111111111111111000000000000
00000000000000000000111111111111111111000000000000
00000000000000000000111111111111111111000000000000
00000000000000000001111111111111111110000000000000
00000000000000000001111101111111111110000000000000
00000000000000000011111001111111111110000000000000
00000000000000000111111001111111111110000000000000
00000000000000000111111000111111111110000000000000
00000000000000000111110000111111111111000000000000
00000000000000000111110000111111111111000000000000
00000000000000001111110000111111111111000000000000
00000000000000001111100000111111111111000000000000
00000000000000001111100000111111111111000000000000
00000000000000011111000000111111111111000000000000
00000000000000011111100000011111111111000001100000
00000000000000011111000000011111111111100111110000
00000000000000011111000000011111111111111111110000
00000000000000111111000000011111111111111111100000
00000000000000111110000000011111111111111110000000
00000000000000111110000000011111111111111100000000
00000000000001111110000000011111111111100000000000
00000000000001111100000111111111111111000000000000
00000000000001111100011111111111111111100000000000
00000000000001111101111111111111111111100000000000
00000000000001111111111111111111111111100000000000
00000000000011111111111111001111111111100000000000
00000000000011111111110000001111111111110001100000
00000000000011111111000000001111111111111111100000
00000000000011111100000000001111111111111111000000
00000000000000000000000000000111111111111111000000
00000000000000000000000000000111111111111110000000
00000000000000000000000000001111111111111000000000
00000000000000000000000000011111111110000000000000
00000000000000000000000011111111111000000000000000
00000000000000000000000111111111100000000000000000
00000000000000000000000111111000000000000000000000
00000000000000000000000011110000000000000000000000
00000000000000000000000001000000000000000000000000
00000000000000000000000000000000000000000000000000
00000000000000000000000000000000000000000000000000
00000000000000000000000000000000000000000000000000
00000000000000000000000000000000000000000000000000
00000000000000000000000000000000000000000000000000
00000000000000000000000000000000000000000000000000
00000000000000000000000000000000000000000000000000
00000000000000000000000000000000000000000000000000
