P1
50 70
00000000000000000000000000000000000000000000000000
00000000000000000000000000000000000000000000000000
00000000000000000000000000000000000000000000000000
00000000000000000000000000000000000000000000000000
00000000000000000000000000000000000000000000000000
00000000000000000000000000000000000000000000000000
00000000000000000000000000000000000000000000000000
00000000000000000000000000000000000000000000000000
00000000000000000000000000000000000000000000000000
00000000000000000000000000000000000000000000000000
00000000000000000000000000000000000000000000000000
00000000000000000000000000000000000000000000000000
00000000000000000000000000000000000000000000000000
00000000000000000000000000000000000000000000000000
00000000000000000000000000000000000000000000000000
00000000000000000000000000000000000011000000000000
00000000000000000000000000000000111111000000000000
00000000000000000000000000000011111111000000000000
00000000000000000000000000000111111111000000000000
00000000000000000000000000001111111111000000000000
00000000000000000000000000001111111111000000000000
00000000000000000000000000011111111111000000000000
00000000000000000000000000011111111111000000000000
00000000000000000000000000111111111111000000000000
00000000000000000000000001111111111111000000000000
00000000000000000000000001111111111111000000000000
00000000000000000000000011111111111111000000000000
00000000000000000000000111111111111110000000000000
00000000000000000000000111111111111110000000000000
00000000000000000000001111111111111110000000000000
00000000000000000000011111110111111110000000000000
00000000000000000000011111100111111110000000000000
00000000000000000000111111100111111110000000000000
00000000000000000000111111000111111100000000000000
00000000000000000001111110000111111100000000000000
00000000000000000011111100001111111100000000000000
00000000000000000011111100000111111100000000000000
00000000000000000111111000000111111110010000000000
00000000000000000111111000000111111111110000000000
00000000000000001111110000001111111111111000000000
00000000000000011111100000001111111111111000000000
00000000000000111111100000011111111111110000000000
00000000000000111111000001111111111111110000000000
00000000000001111111111111111111111111100000000000
00000000000011111111111111111111111110000000000000
00000000000011111111111111111111111000000000000000
00000000000111111111111111111111111000000000000000
00000000001111111111111111111111111000000000000000
00000000001111111111111110011111111000000000000000
00000000001111111111111000011111111000000000000000
00000000001111111111000000111111110000000000000000
00000000011111111000000000111111110000000000000000
00000000001110000000000000111111110000000000000000
00000000000000000000000000011111110000000000000000
00000000000000000000000000011100000000000000000000
00000000000000000000000000100000000000000000000000
00000000000000000000000000000000000000000000000000
00000000000000000000000000000000000000000000000000
00000000000000000000000000000000000000000000000000
00000000000000000000000000000000000000000000000000
00000000000000000000000000000000000000000000000000
00000000000000000000000000000000000000000000000000
00000000000000000000000000000000000000000000000000
00000000000000000000000000000000000000000000000000
00000000000000000000000000000000000000000000000000
00000000000000000000000000000000000000000000000000
00000000000000000000000000000000000000000000000000
00000000000000000000000000000000000000000000000000
00000000000000000000000000000000000000000000000000
00000000000000000000000000000000000000000000000000
