P1
50 70
00000000000000000000000000000000000000000000000000
00000000000000000000000000000000000000000000000000
00000000000000000000000000000000000000000000000000
00000000000000000000000000000000000000000000000000
00000000000000000000000000000000000000000000000000
00000000000000000000000000000000000000000000000000
00000000000000000000000000000000000000000000000000
00000000000000000000000000000000000000000000000000
00000000000000000000000000000000000000000000000000
00000000000000000000000000000000000000000000000000
00000000000000000000000000000000000000000000000000
00000000000000000000000000000000000000000000000000
00000000000000000000000000000000000000000000000000
00000000000000000000000000000000000000000000000000
00000000000000000000000000000000000000000000000000
00000000000000000000000000000000000000000000000000
00000000000000000000000000000000000000000000000000
00000000000000000001100011000000000000000000000000
00000000000000000001111111111111100000000000000000
00000000000000000001111111111111111100000000000000
00000000000000000001111111111111111110000000000000
00000000000000000011111111111111111110000000000000
00000000000000000011111111111111111110000000000000
00000000000000000011111111111111111110000000000000
00000000000000000011111111111111111110000000000000
00000000000000000011111110000001110000000000000000
00000000000000000011111100000000000000000000000000
00000000000000000011111100000000000000000000000000
00000000000000000011111100000000000000000000000000
00000000000000000011111100000000000000000000000000
00000000000000000011111110000000000000000000000000
00000000000000000011111110000000000000000000000000
00000000000000000111111100011110000000000000000000
00000000000000000111111111111111100000000000000000
00000000000000000111111111111111110000000000000000
00000000000000000111111111111111111000000000000000
00000000000000000111111111111111111110000000000000
00000000000000000111111111111111111110000000000000
00000000000000000111111111111111111110000000000000
00000000000000000111111111111111111111000000000000
00000000000000001111111111101111111111000000000000
00000000000000001111111110000011111111100000000000
00000000000000000111111000000001111111100000000000
00000000000000000000000000000001111111100000000000
00000000000000000000000000000001111111110000000000
00000000000000000000000000000000111111110000000000
00000000000000000000000000000000111111110000000000
00000000000000000000000000000000111111110000000000
00000000000000000000000000000000111111110000000000
00000000000000000110000000000000111111110000000000
00000000000000011111110000000000111111110000000000
00000000000000111111111000000000111111110000000000
00000000000000011111111000000001111111110000000000
00000000000000011111111100000011111111110000000000
00000000000000011111111110011111111111110000000000
00000000000000011111111111111111111111100000000000
00000000000000011111111111111111111111100000000000
00000000000000001111111111111111111111000000000000
00000000000000001111111111111111111110000000000000
00000000000000000111111111111111111100000000000000
00000000000000000011111111111111111000000000000000
00000000000000000001111111111111110000000000000000
00000000000000000000011111111100000000000000000000
00000000000000000000000000000000000000000000000000
00000000000000000000000000000000000000000000000000
00000000000000000000000000000000000000000000000000
00000000000000000000000000000000000000000000000000
00000000000000000000000000000000000000000000000000
00000000000000000000000000000000000000000000000000
00000000000000000000000000000000000000000000000000
