P1
50 70
00000000000000000000000000000000000000000000000000
00000000000000000000000000000000000000000000000000
00000000000000000000000000000000000000000000000000
00000000000000000000000000000000000000000000000000
00000000000000000000000000000000000000000000000000
00000000000000000000000000000000000000000000000000
00000000000000000000000000000000000000000000000000
00000000000000000000000000000000000000000000000000
00000000000000000000000000000000000000000000000000
00000000000000000000000000000000000000000000000000
00000000000000000000000000000000000000000000000000
00000000000000000000000000000000000000000000000000
00000000000000000000000000000000000000000000000000
00000000000000000000000000000000000111110000000000
00000000000000000000000000000000001111110000000000
00000000000000000000000000000000111111110000000000
00000000000000000000000000000011111111110000000000
00000000000000000000000000001111111111100000000000
00000000000000000000000000111111111111100000000000
00000000000000000000000011111111111111100000000000
00000000000000000000000111111111111111100000000000
00000000000000000000011111111111111111000000000000
00000000000000000011111111111111111100000000000000
00000000000000000111111111111111110000000000000000
00000000000000011111111111111111000000000000000000
00000000000000111111111111111100000000000000000000
00000000000001111111111111110000000000000000000000
00000000000001111111111111100000000000000000000000
00000000000001111111111100000000000000000000000000
00000000000001111111111000000000000000000000000000
00000000000001111111110000000000000000000000000000
00000000000001111111100000000000000000000000000000
00000000000001111111100000000011100000000000000000
00000000000001111111100000111111111000000000000000
00000000000001111111100001111111111100000000000000
00000000000001111111111111111111111110000000000000
00000000000000111111111111111111111111000000000000
00000000000001111111111111111111111111100000000000
00000000000001111111111111111111111111100000000000
00000000000001111111111111111111111111100000000000
00000000000001111111111111111111111111110000000000
00000000000001111111111111111111111111110000000000
00000000000001111111111111111111111111110000000000
00000000000001111111111100001111111111100000000000
00000000000001111111100000000011111111100000000000
00000000000001111111000000000011111111100000000000
00000000000001111110000000000011111111100000000000
00000000000001111000000000000011111111100000000000
00000000000001110000000000000011111111100000000000
00000000000001100000000000000011111111000000000000
00000000000000000000000000000011111111000000000000
00000000000000000000000000000111111111000000000000
00000000000000000000000000001111111110000000000000
00000000000000000000000000011111111110000000000000
00000000000000000000000000111111111110000000000000
00000000000000000000000001111111111100000000000000
00000000000000000000000011111111111000000000000000
00000000000000000000011111111111111000000000000000
00000000000000000001111111111111110000000000000000
00000000000000101111111111111111100000000000000000
00000000000011111111111111111111000000000000000000
00000000000011111111111111111110000000000000000000
00000000000011111111111111111000000000000000000000
00000000000011111111111111110000000000000000000000
00000000000011111111111111000000000000000000000000
00000000000011111111111000000000000000000000000000
00000000000011111111100000000000000000000000000000
00000000000011111100000000000000000000000000000000
00000000000000000000000000000000000000000000000000
00000000000000000000000000000000000000000000000000
