P1
50 70
00000000000000000000000000000000000000000000000000
00000000000000000000000000000000000000000000000000
00000000000000000000000000000000000000000000000000
00000000000000000000000000000000000000000000000000
00000000000000000000000000000000000000000000000000
00000000000000000000000000000000000000000000000000
00000000000000000000000000000000000000000000000000
00000000000000000000000000000000000000000000000000
00000000000000000000000000000000000000000000000000
00000000000000000000000000000000000000000000000000
00000000000000000000000000000000000000000000000000
00000000000000000000000000000000000000000000000000
00000000000000000000000000000000000000000000000000
00000000000000000000000000000000000000000000000000
00000000000000000000000000000000000001111000000000
00000000000000000000000000000000001111111000000000
00000000000000000000000000000001111111111000000000
00000000000000000000000000011111111111111000000000
00000000000000000000000011111111111111111000000000
00000000000000000000111111111111111111111000000000
00000000000000000111111111111111111111111000000000
00000000000001111111111111111111111111100000000000
00000000000111111111111111111111111100000000000000
00000000001111111111111111111111000000000000000000
00000000001111111111111111111000000000000000000000
00000000001111111111111111000000000000000000000000
00000000001111111111110000000000000000000000000000
00000000000111111110000000000000000000000000000000
00000000000111110000000000000000000000000000000000
00000000000111100000000000000000000000000000000000
00000000000111100000000000000111111111100000000000
00000000000111100000000000111111111111110000000000
00000000000111100000001111111111111111111000000000
00000000000011100000111111111111111111111100000000
00000000000011100011111111111111111111111110000000
00000000000011111111111110011111111111111110000000
00000000000011111111110000000111111111111111000000
00000000000011111110000000000011111111111111000000
00000000000011111100000000000001111111111111000000
00000000000011111000000000000001111111111111000000
00000000000001110000000000000001111111111111000000
00000000000001100000000000000001111111111111000000
00000000000000000000000000000001111111111111000000
00000000000000000000000000000000111111111111000000
00000000000000000000000000000001111111111111000000
00000000000000000000000000000001111111111111000000
00000000000000000000000000000001111111111110000000
00000000000000000000000000000001111111111110000000
00000000000000000000000000000001111111111100000000
00000000000000000000000000000011111111111000000000
00000000000000100000000000000011111111111000000000
00000000000011110000000000000011111111110000000000
00000000000011111000000000000111111111100000000000
00000000000011111000000000001111111111100000000000
00000000000011111100000000011111111110000000000000
00000000000011111110000001111111111100000000000000
00000000000011111111111111111111110000000000000000
00000000000011111111111111111111000000000000000000
00000000000011111111111111111000000000000000000000
00000000000011111111111100000000000000000000000000
00000000000000000000000000000000000000000000000000
00000000000000000000000000000000000000000000000000
00000000000000000000000000000000000000000000000000
00000000000000000000000000000000000000000000000000
00000000000000000000000000000000000000000000000000
00000000000000000000000000000000000000000000000000
00000000000000000000000000000000000000000000000000
00000000000000000000000000000000000000000000000000
00000000000000000000000000000000000000000000000000
00000000000000000000000000000000000000000000000000
