P1
50 70
00000000000000000000000000000000000000000000000000
00000000000000000000000000000000000000000000000000
00000000000000000000000000000000000000000000000000
00000000000000000000000000000000000000000000000000
00000000000000000000000000000000000000000000000000
00000000000000000000000000000000000000000000000000
00000000000000000000000000000000000000000000000000
00000000000000000000000000000000000000000000000000
00000000000000000000000000000000000000000000000000
00000000000000000000000000000000000000000000000000
00000000000000000000000000000000010001100000000000
00000000000000000000000000000000111111111110000000
00000000000000000000000000000001111111111111111000
00000000000000000000000000000001111111111111111111
00000000000000000000000000000011111111111111111111
00000000000000000000000000000011111111111111111111
00000000000000000000000000000111111111111111111111
00000000000000000000000000001111111000111111111111
00000000000000000000000000001111110000000001111111
00000000000000000000000000011111110000000000000000
00000000000000000000000000111111100000000000000000
00000000000000000000000000111111100000000000000000
00000000000000000000000001111111000000000000000000
00000000000000000000000011111110000000000000000000
00000000000000000000000111111100000000000000000000
00000000000000000000000111111100000000000000000000
00000000000000000000000111111100000000000000000000
00000000000000000000011111111111000000000000000000
00000000000000000000111111111111111100000000000000
00000000000000000000111111111111111110000000000000
00000000000000000000111111111111111111000000000000
00000000000000000001111111111111111111100000000000
00000000000000000001111011111111111111100000000000
00000000000000000000000000000011111111110000000000
00000000000000000000000000000000111111110000000000
00000000000000000000000000000000011111110000000000
00000000000000000000000000000000011111110000000000
00000000000000000000000000000000011111110000000000
00000000000000000000000000000000011111110000000000
00000000000000000000000000000000011111110000000000
00000000000000000000000000000000011111110000000000
00000000000000000000000000000000111111100000000000
00000000000000000000000000000000111111100000000000
00000000000000000000000000000000111111000000000000
00000000000000000000000000000000111111000000000000
00000000000000000000000000000001111110000000000000
00000011100000000000000000000011111110000000000000
00000111110000000000000000001111111110000000000000
00001111111000000000000000001111111000000000000000
00001111111100000000000000111111110000000000000000
00001111111111000000000011111111110000000000000000
00001111111111111110001111111111100000000000000000
00000111111111111111111111111111000000000000000000
00000001111111111111111111111110000000000000000000
00000000011111111111111111111000000000000000000000
00000000011111111111111111110000000000000000000000
00000000000001111111111111000000000000000000000000
00000000000000011111011100000000000000000000000000
00000000000000000000000000000000000000000000000000
00000000000000000000000000000000000000000000000000
00000000000000000000000000000000000000000000000000
00000000000000000000000000000000000000000000000000
00000000000000000000000000000000000000000000000000
00000000000000000000000000000000000000000000000000
00000000000000000000000000000000000000000000000000
00000000000000000000000000000000000000000000000000
00000000000000000000000000000000000000000000000000
00000000000000000000000000000000000000000000000000
00000000000000000000000000000000000000000000000000
00000000000000000000000000000000000000000000000000
