P1
50 70
00000000000000000000000000000000000000000000000000
00000000000000000000000000000000000000000000000000
00000000000000000000000000000000000000000000000000
00000000000000000000000000000000000000000000000000
00000000000000000000000000000000000000000000000000
00000000000000000000000000000000000000000000000000
00000000000000000000000000000000000000000000000000
00000000000000000000000000000000000000000000000000
00000000000000000000000000000000000000000000000000
00000000000000000000000000000000000000000000000000
00000000000000000000000000000000000000000000000000
00000000000000000000000000000000000000000000000000
00000000000000000000000000000000000000000000000000
00000000000000000000000000000000000000000000000000
00000000000000000000000000000000000000000000000000
00000000000000000000000000000000000000000000000000
00000000000000000000000000000000000000000000000000
00000000000000000000000000000000000000000000000000
00000000000000000000000000000000000000000000011100
00000000000000000000000000000000000000000111111100
00000000000000000000000000000000000011111111111000
00000000000000000000000000000111111111111111111000
00000000000000000000000111111111111111111111110000
00000000000000000000011111111111111111111111110000
00000000000000000000111111111111111111111111000000
00000000000000000000111111111111111111111000000000
00000000000000000000111111111111111000000000000000
00000000000000000001111111100000000000000000000000
00000000000000000001111110000000000000000000000000
00000000000000000011111110000000000000000000000000
00000000000000000111111100000000000000000000000000
00000000000000001111111000000000000000000000000000
00000000000000001111111000000000000000000000000000
00000000000000001111110000000000000000000000000000
00000000000000011111110000000000000000000000000000
00000000000000111111111111111100000000000000000000
00000000000000111111111111111111000000000000000000
00000000000000111111111111111111100000000000000000
00000000000001111111111111111111110000000000000000
00000000000001111111111111111111110000000000000000
00000000000001111100000111111111110000000000000000
00000000000000000000000001111111110000000000000000
00000000000000000000000000111111110000000000000000
00000000000000000000000000011111111000000000000000
00000000000000000000000000011111111000000000000000
00000000000000000000000000011111110000000000000000
00000000000000000000000000011111100000000000000000
00000000000000000000000000111111100000000000000000
00000000000000000000000000111111100000000000000000
00000000000000000000000001111111100000000000000000
00000000000000000000000001111111000000000000000000
00000100000000000000000011111110000000000000000000
00001110000000000000000111111110000000000000000000
00011111100000000000001111111100000000000000000000
00011111111100000000011111111000000000000000000000
00011111111111111111111111110000000000000000000000
00011111111111111111111111100000000000000000000000
00000111111111111111111111000000000000000000000000
00000000111111111111111110000000000000000000000000
00000000011111111111111000000000000000000000000000
00000000000001111111000000000000000000000000000000
00000000000000000000000000000000000000000000000000
00000000000000000000000000000000000000000000000000
00000000000000000000000000000000000000000000000000
00000000000000000000000000000000000000000000000000
00000000000000000000000000000000000000000000000000
00000000000000000000000000000000000000000000000000
00000000000000000000000000000000000000000000000000
00000000000000000000000000000000000000000000000000
00000000000000000000000000000000000000000000000000
