P1
50 70
00000000000000000000000000000000000000000000000000
00000000000000000000000000000000000000000000000000
00000000000000000000000000000000000000000000000000
00000000000000000000000000000000000000000000000000
00000000000000000000000000000000000000000000000000
00000000000000000000000000000000000000000000000000
00000000000000000000000000000000000000000000000000
00000000000000000000000000000000000000000000000000
00000000000000000000000000000000000000000000000000
00000000000000000000000000000000000000000000000000
00000000000000000000000000000000000000000000000000
00000000000000000000000000000000000000000000000000
00000000000000111111111000111111000000000000000000
00000000000000111111111111111111111111000000000000
00000000000000111111111111111111111111100000000000
00000000000000111111111111111111111111100000000000
00000000000000111111111111111111111111100000000000
00000000000000111111111111111111111111100000000000
00000000000001111111111111111111111111100000000000
00000000000001111111111111111111111111100000000000
00000000000000111111111100111111111100000000000000
00000000000000111100000000000000000000000000000000
00000000000000111100000000000000000000000000000000
00000000000000111100000000000000000000000000000000
00000000000000111100000000000000000000000000000000
00000000000000111100000000000000000000000000000000
00000000000001111000000000011100000000000000000000
00000000000001111100001111111111100000000000000000
00000000000001111100111111111111111000000000000000
00000000000001111111111111111111111110000000000000
00000000000001111111111111111111111111000000000000
00000000000001111111111111111111111111100000000000
00000000000001111111111100111111111111100000000000
00000000000001111111000000011111111111110000000000
00000000000001111110000000001111111111111000000000
00000000000001111000000000001111111111111000000000
00000000000001110000000000000111111111111000000000
00000000000000000000000000000111111111111000000000
00000000000000000000000000000011111111111000000000
00000000000000000000000000000011111111111100000000
00000000000000000000000000000011111111111100000000
00000000000000000000000000000011111111111100000000
00000000000000000000000000000111111111111100000000
00000000000000000000000000000111111111111100000000
00000000000000000000000000000111111111111100000000
00000000000000000000000000000111111111111100000000
00000000000000000000000000000111111111111000000000
00000000000000000000000000000111111111111000000000
00000000000000000000000000000111111111110000000000
00000000000000000000000000000111111111110000000000
00000000000111100000000000000111111111100000000000
00000000001111100000000000001111111111100000000000
00000000001111100000000000001111111111000000000000
00000000001111100000000000011111111110000000000000
00000000001111100000000000111111111100000000000000
00000000001111110000000001111111111000000000000000
00000000001111111000000111111111110000000000000000
00000000011111111111111111111111000000000000000000
00000000011111111111111111111110000000000000000000
00000000011111111111111111111100000000000000000000
00000000001111111111111111000000000000000000000000
00000000001111111111111110000000000000000000000000
00000000001111111111100000000000000000000000000000
00000000001111001100000000000000000000000000000000
00000000000000000000000000000000000000000000000000
00000000000000000000000000000000000000000000000000
00000000000000000000000000000000000000000000000000
00000000000000000000000000000000000000000000000000
00000000000000000000000000000000000000000000000000
00000000000000000000000000000000000000000000000000
