P1
50 70
00000000000000000000000000000000000000000000000000
00000000000000000000000000000000000000000000000000
00000000000000000000000000000000000000000000000000
00000000000000000000000000000000000000000000000000
00000000000000000000000000000000000000000000000000
00000000000000000000000000000000000000000000000000
00000000000000000000000000000000000000000000000000
00000000000000000000000000000000000000000000000000
00000000000000000000000000000000000000000000000000
00000000000000000000000000000000000000000000000000
00000000000000000000000011100000000000000000000000
00000000000000000000000011111111001110000000000000
00000000000000000000000011111111111111110000000000
00000000000000000000000111111111111111110000000000
00000000000000000000000111111111111111110000000000
00000000000000000000001111111111111111100000000000
00000000000000000000001111111111111111100000000000
00000000000000000000001111111111111111100000000000
00000000000000000000011111111111111111100000000000
00000000000000000000011111111111111111100000000000
00000000000000000000111111101111111111100000000000
00000000000000000000111111000000011100000000000000
00000000000000000001111111000000000000000000000000
00000000000000000001111110000000000000000000000000
00000000000000000001111110000000000000000000000000
00000000000000000011111110000000000000000000000000
00000000000000000011111100011110000000000000000000
00000000000000000111111111111111100000000000000000
00000000000000000111111111111111100000000000000000
00000000000000001111111111111111110000000000000000
00000000000000001111111111111111111000000000000000
00000000000000001111111111111111111000000000000000
00000000000000011111111111111111111100000000000000
00000000000000011111111111111111111100000000000000
00000000000000111111111111111111111110000000000000
00000000000000111111110000011111111110000000000000
00000000000000111111100000001111111110000000000000
00000000000000001110000000001111111110000000000000
00000000000000000000000000000111111110000000000000
00000000000000000000000000000111111110000000000000
00000000000000000000000000000111111110000000000000
00000000000000000000000000000111111111000000000000
00000000000000000000000000000111111111000000000000
00000000000000000000000000000111111111000000000000
00000000000000000000000000000111111111000000000000
00000000011110000000000000000111111111000000000000
00000000111111110000000000001111111110000000000000
00000001111111111000000000001111111110000000000000
00000001111111111000000000001111111110000000000000
00000001111111111000000000011111111110000000000000
00000001111111111100000000011111111110000000000000
00000011111111111110000001111111111100000000000000
00000011111111111111110011111111111100000000000000
00000001111111111111111111111111111100000000000000
00000001111111111111111111111111111000000000000000
00000001111111111111111111111111110000000000000000
00000000111111111111111111111111110000000000000000
00000000011111111111111111111111100000000000000000
00000000001111111111111111111111000000000000000000
00000000000111111111111111111100000000000000000000
00000000000001111111111111111000000000000000000000
00000000000000000001111111100000000000000000000000
00000000000000000000000000000000000000000000000000
00000000000000000000000000000000000000000000000000
00000000000000000000000000000000000000000000000000
00000000000000000000000000000000000000000000000000
00000000000000000000000000000000000000000000000000
00000000000000000000000000000000000000000000000000
00000000000000000000000000000000000000000000000000
00000000000000000000000000000000000000000000000000
