P1
50 70
00000000000000000000000000000000000000000000000000
00000000000000000000000000000000000000000000000000
00000000000000000000000000000000000000000000000000
00000000000000000000000000000000000000000000000000
00000000000000000000000000000000000000000000000000
00000000000000000000000000000000000000000000000000
00000000000000000000000000000000000000000000000000
00000000000000000000000000000000000000000000000000
00000000000000000000000000000000000000000000000000
00000000000000000000000000000000000000000000000000
00000000000000000000000000000000000000000000000000
00000000000000000000000000000000000000000000000000
00000000000000000000000000000000000000000000000000
00000000000000000000000000000000000000000000000000
00000000000000000000000000000000000000000000000000
00000000000000000000000000000000000000111000000000
00000000000000000000000000000000001111111000000000
00000000000000000000000000000000111111110000000000
00000000000000000000000000000001111111000000000000
00000000000000000000000000000011111100000000000000
00000000000000000000000000001111110000000000000000
00000000000000000000000000011111000000000000000000
00000000000000000000000001111110000000000000000000
00000000000000000000000001111000000000000000000000
00000000000000000000000011110000000000000000000000
00000000000000000000000111100000000000000000000000
00000000000000000000001111000000000000000000000000
00000000000000000000011110000000000000000000000000
00000000000000000000111110000000000000000000000000
00000000000000000000111100000000000000000000000000
00000000000000000001111000000000000000000000000000
00000000000000000001111000000000000000000000000000
00000000000000000001111000000000000000000000000000
00000000000000000001110000000111111000000000000000
00000000000000000001110000011111111110000000000000
00000000000000000011100001111111111110000000000000
00000000000000000011100011111101111111000000000000
00000000000000000111100111110000011111000000000000
00000000000000000011101111000000001111100000000000
00000000000000000011111111000000000111100000000000
00000000000000000011111110000000000111100000000000
00000000000000000011111100000000000011100000000000
00000000000000000011111000000000000011000000000000
00000000000000000011110000000000000011000000000000
00000000000000000011110000000000000111000000000000
00000000000000000001110000000000000111000000000000
00000000000000000000111000000000000111000000000000
00000000000000000000111000000000001110000000000000
00000000000000000000111100000000001110000000000000
00000000000000000000111100000000011110000000000000
00000000000000000000011110000000111100000000000000
00000000000000000000011111000001111000000000000000
00000000000000000000001111111111110000000000000000
00000000000000000000000111111111110000000000000000
00000000000000000000000011111111000000000000000000
00000000000000000000000000011100000000000000000000
00000000000000000000000000000000000000000000000000
00000000000000000000000000000000000000000000000000
00000000000000000000000000000000000000000000000000
00000000000000000000000000000000000000000000000000
00000000000000000000000000000000000000000000000000
00000000000000000000000000000000000000000000000000
00000000000000000000000000000000000000000000000000
00000000000000000000000000000000000000000000000000
00000000000000000000000000000000000000000000000000
00000000000000000000000000000000000000000000000000
00000000000000000000000000000000000000000000000000
00000000000000000000000000000000000000000000000000
00000000000000000000000000000000000000000000000000
00000000000000000000000000000000000000000000000000
