P1
50 70
00000000000000000000000000000000000000000000000000
00000000000000000000000000000000000000000000000000
00000000000000000000000000000000000000000000000000
00000000000000000000000000000000000000000000000000
00000000000000000000000000000000000000000000000000
00000000000000000000000000000000000000000000000000
00000000000000000000000000000000000000000000000000
00000000000000000000000000000000000000000000000000
00000000000000000000000000000000000000000000000000
00000000000000000000000000000000000000000000000000
00000000000000000000000000000000000000000000000000
00000000000000000000000000000000000000000000000000
00000000000000000000001111111111111000000000000000
00000000000000000000011111111111111111000000000000
00000000000000000001111111111111111111110000000000
00000000000000000111111111111111111111111110000000
00000000000000000111111111111111111111111111000000
00000000000000001111111111111111111111111111110000
00000000000000011111111111111111111111111111111100
00000000000000111111111111111111111111111111111110
00000000000001111111111111111111111111111111111110
00000000000001111111111111111110011111111111111111
00000000000001111111111111100000000001111111111111
00000000000011111111111111000000000000111111111111
00000000000111111111111110000000000000001111111100
00000000000111111111111100000000000000000011111100
00000000000111111111111100000000000000000001111000
00000000000111111111111100000000000000000000110000
00000000001111111111111111110000000000000000000000
00000000001111111111111111111111000000000000000000
00000000011111111111111111111111100000000000000000
00000000011111111111111111111111111000000000000000
00000000011111111111111111111111111100000000000000
00000000011111111111111111111111111100000000000000
00000000011111111111111111111111111110000000000000
00000000011111111111111111111111111111000000000000
00000000011111111111111000111111111111000000000000
00000000111111111111100000011111111111000000000000
00000000111111111111000000011111111111000000000000
00000000111111111110000000011111111111000000000000
00000000111111111110000000011111111111000000000000
00000000111111111100000000011111111111000000000000
00000000111111111000000000011111111111000000000000
00000000111111111000000000111111111111000000000000
00000000111111111000000000111111111110000000000000
00000000111111111000000001111111111110000000000000
00000000111111111000000001111111111100000000000000
00000000111111111000000011111111111100000000000000
00000000111111111000000011111111111000000000000000
00000000011111111100000111111111111000000000000000
00000000011111111110111111111111110000000000000000
00000000011111111111111111111111100000000000000000
00000000011111111111111111111111100000000000000000
00000000001111111111111111111111000000000000000000
00000000000111111111111111111110000000000000000000
00000000000111111111111111111100000000000000000000
00000000000011111111111111111000000000000000000000
00000000000001111111111111100000000000000000000000
00000000000000111111111111000000000000000000000000
00000000000000000111111100000000000000000000000000
00000000000000000000000000000000000000000000000000
00000000000000000000000000000000000000000000000000
00000000000000000000000000000000000000000000000000
00000000000000000000000000000000000000000000000000
00000000000000000000000000000000000000000000000000
00000000000000000000000000000000000000000000000000
00000000000000000000000000000000000000000000000000
00000000000000000000000000000000000000000000000000
00000000000000000000000000000000000000000000000000
00000000000000000000000000000000000000000000000000
