P1
50 70
00000000000000000000000000000000000000000000000000
00000000000000000000000000000000000000000000000000
00000000000000000000000000000000000000000000000000
00000000000000000000000000000000000000000000000000
00000000000000000000000000000000000000000000000000
00000000000000000000000000000000000000000000000000
00000000000000000000000000000000000000000000000000
00000000000000000000000000000000000000000000000000
00000000000000000000000000000000000000000000000000
00000000000000000000000000000000000000000000000000
00000000000000000000000000000000000000000000000000
00000000000000000000000000000000000000000000000000
00000000000000000000000000000000000000000000000000
00000000000000000000000000000000000000000000000000
00000000000000000000000000000000000000000000000000
00000000000000000000011110000000000000000000000000
00000000000000000011111111100000000000000000000000
00000000000000000111111111110000000000000000000000
00000000000000001111111111111110000000000000000000
00000000000000011111111111111111000000000000000000
00000000000000111111111110011111110000000000000000
00000000000000011111111100000111111000000000000000
00000000000000111111111000000011111000000000000000
00000000000000111111111000000001111000000000000000
00000000000001111111110000000001111000000000000000
00000000000001111111110000000001111000000000000000
00000000000001111111110000000001111000000000000000
00000000000001111111100000000000111000000000000000
00000000000001111111110000000000111000000000000000
00000000000011111111111100000000010000000000000000
00000000000011111111111110000000000000000000000000
00000000000001111111111111100000000000000000000000
00000000000001111111111111111000000000000000000000
00000000000001111111111111111100000000000000000000
00000000000001111111100001111110000000000000000000
00000000000001111111100000111111000000000000000000
00000000000001111111100000011111100000000000000000
00000000000001111111100000011111110000000000000000
00000000000000111111100000001111110000000000000000
00000000000000111111100000001111111000000000000000
00000000000000111111100000001111111000000000000000
00000000000000111111100000001111111100000000000000
00000000000000011111100000001111111100000000000000
00000000000000011111110000001111111110000000000000
00000000000000001111110000001111111110000000000000
00000000000000000111110000001111111110000000000000
00000000000000000011110000001111111110000000000000
00000000000000000011111000001111111110000000000000
00000000000000000001111000001111111100000000000000
00000000000000000001111110011111111100000000000000
00000000000000000000111111111111111110000000000000
00000000000000000000001111111111111110000000000000
00000000000000000000000011111111111100000000000000
00000000000000000000000001111111111000000000000000
00000000000000000000000000111111110000000000000000
00000000000000000000000000000011110000000000000000
00000000000000000000000000000000000000000000000000
00000000000000000000000000000000000000000000000000
00000000000000000000000000000000000000000000000000
00000000000000000000000000000000000000000000000000
00000000000000000000000000000000000000000000000000
00000000000000000000000000000000000000000000000000
00000000000000000000000000000000000000000000000000
00000000000000000000000000000000000000000000000000
00000000000000000000000000000000000000000000000000
00000000000000000000000000000000000000000000000000
00000000000000000000000000000000000000000000000000
00000000000000000000000000000000000000000000000000
00000000000000000000000000000000000000000000000000
00000000000000000000000000000000000000000000000000
