P1
50 70
00000000000000000000000000000000000000000000000000
00000000000000000000000000000000000000000000000000
00000000000000000000000000000000000000000000000000
00000000000000000000000000000000000000000000000000
00000000000000000000000000000000000000000000000000
00000000000000000000000000000000000000000000000000
00000000000000000000000000000000000000000000000000
00000000000000000000000000000000000000000000000000
00000000000000000000000000000000000000000000000000
00000000000000000000000000000000000000000000000000
00000000000000000000000000000000000111001111111010
00000000000000000000000000000011111111111111111111
00000000000000000000000000000111111111111111111111
00000000000000000000000000111111111111111111111111
00000000000000000000000011111111111111111111111111
00000000000000000000000111111111111111111111111111
00000000000000000000011111111111111111111111111111
00000000000000000001111111111111111111111111111111
00000000000000000011111111111111111111111111111111
00000000000000000111111111111111111111011111111111
00000000000000000111111111111111100000000011111111
00000000000000001111111111111110000000000000000111
00000000000000011111111111111100000000000000000000
00000000000000111111111111110000000000000000000000
00000000000001111111111111100000000000000000000000
00000000000011111111111111000000000000000000000000
00000000000011111111111111000000000000000000000000
00000000000111111111111110000000000000000000000000
00000000001111111111111110001111111110000000000000
00000000001111111111111111111111111111100000000000
00000000011111111111111111111111111111111000000000
00000000011111111111111111111111111111111100000000
00000000011111111111111111111111111111111110000000
00000000111111111111111111111111111111111111000000
00000000111111111111111111111111111111111111100000
00000001111111111111111111111111111111111111100000
00000001111111111111111111111111111111111111110000
00000011111111111111111110001111111111111111110000
00000011111111111111111100000001111111111111110000
00000011111111111111111000000000111111111111110000
00000011111111111111110000000000111111111111110000
00000011111111111111100000000000111111111111110000
00000011111111111111100000000000111111111111110000
00000011111111111111000000000000111111111111110000
00000111111111111110000000000000111111111111110000
00000111111111111110000000000001111111111111110000
00000011111111111110000000000001111111111111110000
00000011111111111110000000000001111111111111100000
00000011111111111110000000000011111111111111100000
00000011111111111110000000000111111111111111100000
00000011111111111111000000000111111111111111000000
00000001111111111111100000011111111111111111000000
00000001111111111111111111111111111111111110000000
00000000111111111111111111111111111111111110000000
00000000011111111111111111111111111111111100000000
00000000001111111111111111111111111111111000000000
00000000000111111111111111111111111111111000000000
00000000000011111111111111111111111111110000000000
00000000000000111111111111111111111111000000000000
00000000000000000111111111111111111100000000000000
00000000000000000011111111111111110000000000000000
00000000000000000000000011111111000000000000000000
00000000000000000000000000000000000000000000000000
00000000000000000000000000000000000000000000000000
00000000000000000000000000000000000000000000000000
00000000000000000000000000000000000000000000000000
00000000000000000000000000000000000000000000000000
00000000000000000000000000000000000000000000000000
00000000000000000000000000000000000000000000000000
00000000000000000000000000000000000000000000000000
