P1
50 70
00000000000000000000000000000000000000000000000000
00000000000000000000000000000000000000000000000000
00000000000000000000000000000000000000000000000000
00000000000000000000000000000000000000000000000000
00000000000000000000000000000000000000000000000000
00000000000000000000000000000000000000000000000000
00000000000000000000000000000000000000000000000000
00000000000000000000000000000000000000000000000000
00000000000000000000000000000000000000000000000000
00000000000000000000000000000000000000000000000000
00000000000000000000000000000000000000000000000000
00000000000000000000000000000000000000000000000000
00000000000000000000000000000000000000000000000000
00000000000000000000000000000000000000000000000000
00000000000000000000000000000000000000000000000000
00000000000000000000000000000000000000000000000000
00000000000000000000000000000000000000000000000000
00000000000000000000000000000000000000000000000000
00000000000000000000000000000000000000000000000000
00000000000000000000000000000000000000000000000000
00000000001111111111111011101100000000000000000000
00000000011111111111111111111110000000000000000000
00000000001111111111111111111111000000000000000000
00000000000111010000001101111111000000000000000000
00000000000111000000000000000111100000000000000000
00000000000111000000000000000111100000000000000000
00000000000000000000000000000111100000000000000000
00000000000000000000000000000111100000000000000000
00000000000000000000000000000011100000000000000000
00000000000000000000000000000011100000000000000000
00000000000000000000000000000111100000000000000000
00000000000000000000000000000111100000000000000000
00000000000000000000000000000011100000000000000000
00000000000000000000000000000011100000000000000000
00000000000000000000000000000011100000000000000000
00000000000000000000000000000011100000000000000000
00000000000000000000000000000011110000000000000000
00000000000000000000000000000011110000000000000000
00000000000000000000000000000011110000000000000000
00000000000000000000000000000011100000000000000000
00000000000000000000000000000011110000000000000000
00000000000000000000000000000011110000000000000000
00000000000000000000000000000011110000000000000000
00000000000000000000000000000011110000000000000000
00000000000000000000000000000011110000000000000000
00000000000000000000000000000011110000000000000000
00000000000000000000000000000011110000000000000000
00000000000000000000000000000001110000000000000000
00000000000000000000000000000001110000000000000000
00000000000000000000000000000001110000000000000000
00000000000000000000000000000001110000000000000000
00000000000000000000000000000000110000000000000000
00000000000000000000000000000000000000000000000000
00000000000000000000000000000000000000000000000000
00000000000000000000000000000000000000000000000000
00000000000000000000000000000000000000000000000000
00000000000000000000000000000000000000000000000000
00000000000000000000000000000000000000000000000000
00000000000000000000000000000000000000000000000000
00000000000000000000000000000000000000000000000000
00000000000000000000000000000000000000000000000000
00000000000000000000000000000000000000000000000000
00000000000000000000000000000000000000000000000000
00000000000000000000000000000000000000000000000000
00000000000000000000000000000000000000000000000000
00000000000000000000000000000000000000000000000000
00000000000000000000000000000000000000000000000000
00000000000000000000000000000000000000000000000000
00000000000000000000000000000000000000000000000000
00000000000000000000000000000000000000000000000000
