P1
50 70
00000000000000000000000000000000000000000000000000
00000000000000000000000000000000000000000000000000
00000000000000000000000000000000000000000000000000
00000000000000000000000000000000000000000000000000
00000000000000000000000000000000000000000000000000
00000000000000000000000000000000000000000000000000
00000000000000000000000000000000000000000000000000
00000000000000000000000000000000000000000000000000
00000000000000000000000000000000000000000000000000
00000000000000000000000000000000000000000000000000
00000000000000000000000000000000000000000000000000
00000000000000000000000000000000000000000000000000
00000000000000000000000000000000000000000000000000
00000000000000000000000000000000000000000000000000
00000000000000000000000000000000000000000000000000
00000000000000000000000000000000000000000000000000
00000000000000000000001100000000000000000000000000
00000000000000000000011111000000000000000000000000
00000000000000000011111111100000000000000000000000
00000000000000001111111111111000000000000000000000
00000000000000011111111111111100000000000000000000
00000000000000111111111111111100000000000000000000
00000000000000111111111111111110000000000000000000
00000000000000111111110111111110000000000000000000
00000000000001111111000011111110000000000000000000
00000000000001111111000001111111000000000000000000
00000000000001111110000000111111100000000000000000
00000000000001111110000000111111100000000000000000
00000000000001111110000000111111100000000000000000
00000000000001111110000000111111100000000000000000
00000000000001111111000000111111100000000000000000
00000000000000111111000000111111100000000000000000
00000000000000111111100001111111100000000000000000
00000000000000111111111111111111000000000000000000
00000000000000011111111111111110000000000000000000
00000000000000001111111111111110000000000000000000
00000000000000000111111111111110000000000000000000
00000000000000000111111111111111000000000000000000
00000000000000001111111111111111110000000000000000
00000000000000011111111111111111111000000000000000
00000000000000111111110000111111111100000000000000
00000000000001111111100000011111111100000000000000
00000000000011111111000000001111111110000000000000
00000000000011111111000000000111111110000000000000
00000000000011111111000000000111111110000000000000
00000000000011111111000000000111111110000000000000
00000000000011111111000000000111111110000000000000
00000000000011111111100000000111111111000000000000
00000000000011111111100000001111111111000000000000
00000000000001111111111000011111111111000000000000
00000000000001111111111111111111111111000000000000
00000000000000111111111111111111111111000000000000
00000000000000011111111111111111111110000000000000
00000000000000001111111111111111111100000000000000
00000000000000000111111111111111111000000000000000
00000000000000000000111111111111110000000000000000
00000000000000000000000010011110000000000000000000
00000000000000000000000000000000000000000000000000
00000000000000000000000000000000000000000000000000
00000000000000000000000000000000000000000000000000
00000000000000000000000000000000000000000000000000
00000000000000000000000000000000000000000000000000
00000000000000000000000000000000000000000000000000
00000000000000000000000000000000000000000000000000
00000000000000000000000000000000000000000000000000
00000000000000000000000000000000000000000000000000
00000000000000000000000000000000000000000000000000
00000000000000000000000000000000000000000000000000
00000000000000000000000000000000000000000000000000
00000000000000000000000000000000000000000000000000
