P1
50 70
00000000000000000000000000000000000000000000000000
00000000000000000000000000000000000000000000000000
00000000000000000000000000000000000000000000000000
00000000000000000000000000000000000000000000000000
00000000000000000000000000000000000000000000000000
00000000000000000000000000000000000000000000000000
00000000000000000000000000000000000000000000000000
00000000000000000000000000000000000000000000000000
00000000000000000000000000000000000000000000000000
00000000000000000000000000000000000000000000000000
00000000000000000000000000000000000000000000000000
00000000000000000000000000000000000000000000000000
00000000000000000000000000000000000000000000000000
00000000000000000000000000000000000000000000000000
00000000000000000000000000000000000000000000000000
00000000000000000000000000000000000000000000000000
00000000000000000000000000000000000000000000000000
00000000000000000000000000000000000000000000000000
00000000000000000000000000000000000000000000000000
00000000000000000000000000000000000011000000000000
00000000000000000000000000110011111111111111000000
00000000000000000000000001111111111111111111110000
00000000000000000000111111111111111111111111111000
00000000000000000111111111111111111111111111111100
00000000000000001111111111111110111111111111111100
00000000000000011111111111111000001111111111111110
00000000000000111111111111110000000111111111111110
00000000000001111111111111110000000111111111111110
00000000000011111111111111100000000111111111111110
00000000000011111111111111100000000111111111111110
00000000000111111111111111100000000111111111111110
00000000000111111111111111000000000111111111111110
00000000000111111111111111000000001111111111111100
00000000000111111111111111000000001111111111111100
00000000000111111111111111000000001111111111111100
00000000000111111111111110000000011111111111111100
00000000000111111111111110000000011111111111111000
00000000000011111111111110000000111111111111110000
00000000000001111111111110000000111111111111100000
00000000000000111111111111000011111111111111000000
00000000000000011111111111111111111111111110000000
00000000000000111111111111111111111111111100000000
00000000000111111111111111111111111111110000000000
00000000011111111111111111111111111111110000000000
00000001111111111111111111011111111111111000000000
00000011111111111111110000000011111111111110000000
00000111111111111111100000000001111111111110000000
00000111111111111111100000000001111111111111000000
00001111111111111111000000000001111111111111100000
00011111111111111111000000000001111111111111100000
00011111111111111110000000000001111111111111110000
00011111111111111110000000000001111111111111110000
00011111111111111110000000000001111111111111110000
00011111111111111110000000000001111111111111110000
00011111111111111110000000000001111111111111110000
00001111111111111110000000000001111111111111110000
00000111111111111110000000000011111111111111110000
00000111111111111100000000000011111111111111110000
00000011111111111100000000000111111111111111110000
00000000111111111110000000000111111111111111110000
00000000111111111111000000001111111111111111100000
00000000001111111111100000001111111111111111100000
00000000000111111111111100111111111111111111100000
00000000000001111111111111111111111111111111000000
00000000000000001111111111111111111111111111000000
00000000000000000000111111111111111111111110000000
00000000000000000000011111111111111111111000000000
00000000000000000000000001111111111111110000000000
00000000000000000000000000000011111000000000000000
00000000000000000000000000000000000000000000000000
