P1
50 70
00000000000000000000000000000000000000000000000000
00000000000000000000000000000000000000000000000000
00000000000000000000000000000000000000000000000000
00000000000000000000000000000000000000000000000000
00000000000000000000000000000000000000000000000000
00000000000000000000000000000000000000000000000000
00000000000000000000000000000000000000000000000000
00000000000000000000000000000000000000000000000000
00000000000000000000000000000000000000000000000000
00000000000000000000000000000000000000000000000000
00000000000000000000000000000000000000000000000000
00000000000000000000000000000000000000000000000000
00000000000000000000000000000010000000000000000000
00000000000000000000000011111111100000000000000000
00000000000000000000011111111111110000000000000000
00000000000000000001111111111111111000000000000000
00000000000000000011111111111111111100000000000000
00000000000000000111111100001111111100000000000000
00000000000000001111111000000111111100000000000000
00000000000000011111110000000011111100000000000000
00000000000000011111110000000111111100000000000000
00000000000000111111100000000111111100000000000000
00000000000000111111100000000111111100000000000000
00000000000000111111100000000111111100000000000000
00000000000000111111110000000111111000000000000000
00000000000000111111110000000111111000000000000000
00000000000000111111111000001111110000000000000000
00000000000000111111111000001111110000000000000000
00000000000000111111111100011111100000000000000000
00000000000000011111111110011110000000000000000000
00000000000000011111111111111100000000000000000000
00000000000000011111111111111000000000000000000000
00000000000000001111111111111000000000000000000000
00000000000000000111111111111100000000000000000000
00000000000000000011111111111100000000000000000000
00000000000000000001111111111110000000000000000000
00000000000000000001111111111110000000000000000000
00000000000000000011111111111111000000000000000000
00000000000000000111111111111111000000000000000000
00000000000000001111100111111111000000000000000000
00000000000000011111100011111111000000000000000000
00000000000000011111000001111111100000000000000000
00000000000000111110000000111111100000000000000000
00000000000000111110000000111111100000000000000000
00000000000001111110000000111111100000000000000000
00000000000001111110000000011111100000000000000000
00000000000001111110000000011111000000000000000000
00000000000001111110000000011111000000000000000000
00000000000001111110000000011111000000000000000000
00000000000000111110000000011111000000000000000000
00000000000000111110000000011111000000000000000000
00000000000000111111000000011111000000000000000000
00000000000000111111000000111110000000000000000000
00000000000000011111100000111110000000000000000000
00000000000000001111110001111100000000000000000000
00000000000000000111111111111000000000000000000000
00000000000000000111111111110000000000000000000000
00000000000000000001111111100000000000000000000000
00000000000000000000011000000000000000000000000000
00000000000000000000000000000000000000000000000000
00000000000000000000000000000000000000000000000000
00000000000000000000000000000000000000000000000000
00000000000000000000000000000000000000000000000000
00000000000000000000000000000000000000000000000000
00000000000000000000000000000000000000000000000000
00000000000000000000000000000000000000000000000000
00000000000000000000000000000000000000000000000000
00000000000000000000000000000000000000000000000000
00000000000000000000000000000000000000000000000000
00000000000000000000000000000000000000000000000000
