P1
50 70
00000000000000000000000000000000000000000000000000
00000000000000000000000000000000000000000000000000
00000000000000000000000000000000000000000000000000
00000000000000000000000000000000000000000000000000
00000000000000000000000000000000000000000000000000
00000000000000000000000000000000000000000000000000
00000000000000000000000000000000000000000000000000
00000000000000000000000000000000000000000000000000
00000000000000000000000000000000000000000000000000
00000000000000000000000000000000000000000000000000
00000000000000000000000000000000000000000000000000
00000000000000000000000000000000000000000000000000
00000000000000000000000000000000000000000000000000
00000000000000000000000000000000000000000000000000
00000000000000000000000000000000000000000000000000
00000000000000000000000000000000000000000000000000
00000000000000000000000000000000000000000000000000
00000000000000000000000000000000000000000000000000
00000000000000000000000000000000000000000000000000
00000000000000000111111110000000000000000000000000
00000000000000001111111111100000000000000000000000
00000000000000011111111111111000000000000000000000
00000000000000011111000011111100000000000000000000
00000000000000011110000000111110000000000000000000
00000000000000111100000000011110000000000000000000
00000000000000111100000000001111000000000000000000
00000000000000111100000000000111100000000000000000
00000000000000111000000000000111100000000000000000
00000000000000111000000000000111100000000000000000
00000000000000111100000000000011100000000000000000
00000000000000111100000000000011100000000000000000
00000000000000011100000000000111100000000000000000
00000000000000001110000000000111100000000000000000
00000000000000001111000000000111000000000000000000
00000000000000000111100000001110000000000000000000
00000000000000000011111000011110000000000000000000
00000000000000000001111111111100000000000000000000
00000000000000000000111111111110000000000000000000
00000000000000000000111111111111100000000000000000
00000000000000000001111100000111110000000000000000
00000000000000000011111000000001110000000000000000
00000000000000000011110000000001111000000000000000
00000000000000000011100000000000111000000000000000
00000000000000000111100000000000111000000000000000
00000000000000000111100000000000011100000000000000
00000000000000000111100000000000011100000000000000
00000000000000000011100000000000011100000000000000
00000000000000000011100000000000011100000000000000
00000000000000000011100000000000111100000000000000
00000000000000000011100000000000111000000000000000
00000000000000000011110000000001111000000000000000
00000000000000000001111000000011110000000000000000
00000000000000000000111110000111110000000000000000
00000000000000000000111111111111100000000000000000
00000000000000000000001111111110000000000000000000
00000000000000000000000111111000000000000000000000
00000000000000000000000000000000000000000000000000
00000000000000000000000000000000000000000000000000
00000000000000000000000000000000000000000000000000
00000000000000000000000000000000000000000000000000
00000000000000000000000000000000000000000000000000
00000000000000000000000000000000000000000000000000
00000000000000000000000000000000000000000000000000
00000000000000000000000000000000000000000000000000
00000000000000000000000000000000000000000000000000
00000000000000000000000000000000000000000000000000
00000000000000000000000000000000000000000000000000
00000000000000000000000000000000000000000000000000
00000000000000000000000000000000000000000000000000
00000000000000000000000000000000000000000000000000
