P1
50 70
00000000000000000000000000000000000000000000000000
00000000000000000000000000000000000000000000000000
00000000000000000000000000000000000000000000000000
00000000000000000000000000000000000000000000000000
00000000000000000000000000000000000000000000000000
00000000000000000000000000000000000000000000000000
00000000000000000000000000000000000000000000000000
00000000000000000000000000000000000000000000000000
00000000000000000000000000000000000000000000000000
00000000000000000000000000000000000000000000000000
00000000000000000000000000000000000000000000000000
00000000000000000000000000000000000000000000000000
00000000000000000000000000000000000000000000000000
00000000000000000000000000000000000000000000000000
00000000000000000000000000000000000000000000000000
00000000000000000000000000011111100000000000000000
00000000000000000000000001111111100000000000000000
00000000000000000000000011111111110000000000000000
00000000000000000000000111111111110000000000000000
00000000000000000000001111111111111000000000000000
00000000000000000000001111110111111000000000000000
00000000000000000000001111100011111000000000000000
00000000000000000000011111000011111000000000000000
00000000000000000000011111000001111000000000000000
00000000000000000000011111000001111000000000000000
00000000000000000000011111000011111000000000000000
00000000000000000000011110000011111000000000000000
00000000000000000000011111000011111000000000000000
00000000000000000000011111000011111000000000000000
00000000000000000000011111000111110000000000000000
00000000000000000000011111101111110000000000000000
00000000000000000000011111111111100000000000000000
00000000000000000000011111111111100000000000000000
00000000000000000000001111111111100000000000000000
00000000000000000000001111111111100000000000000000
00000000000000000000011111111111110000000000000000
00000000000000000000111111111111111000000000000000
00000000000000000001111110001111111000000000000000
00000000000000000011111100000111111000000000000000
00000000000000000011111000000111111000000000000000
00000000000000000111111000000111111100000000000000
00000000000000001111110000000111111100000000000000
00000000000000001111110000000111111100000000000000
00000000000000011111110000000111111100000000000000
00000000000000011111110000000111111000000000000000
00000000000000011111110000001111111000000000000000
00000000000000011111110000001111111000000000000000
00000000000000011111110000011111110000000000000000
00000000000000111111111111111111110000000000000000
00000000000000111111111111111111100000000000000000
00000000000000111111111111111111000000000000000000
00000000000000111111111111111110000000000000000000
00000000000000111111111111111000000000000000000000
00000000000000111111111111110000000000000000000000
00000000000000001111111110000000000000000000000000
00000000000000000000010000000000000000000000000000
00000000000000000000000000000000000000000000000000
00000000000000000000000000000000000000000000000000
00000000000000000000000000000000000000000000000000
00000000000000000000000000000000000000000000000000
00000000000000000000000000000000000000000000000000
00000000000000000000000000000000000000000000000000
00000000000000000000000000000000000000000000000000
00000000000000000000000000000000000000000000000000
00000000000000000000000000000000000000000000000000
00000000000000000000000000000000000000000000000000
00000000000000000000000000000000000000000000000000
00000000000000000000000000000000000000000000000000
00000000000000000000000000000000000000000000000000
00000000000000000000000000000000000000000000000000
