P1
50 70
00000000000000000000000000000000000000000000000000
00000000000000000000000000000000000000000000000000
00000000000000000000000000000000000000000000000000
00000000000000000000000000000000000000000000000000
00000000000000000000000000000000000000000000000000
00000000000000000000000000000000000000000000000000
00000000000000000000000000000000000000000000000000
00000000000000000000000000000000000000000000000000
00000000000000000000000000000000000000000000000000
00000000000000000000000000000000000000000000000000
00000000000000000000000000000000000000000000000000
00000000000000000000000000000000000000000000000000
00000000000000000000000110000000000000000000000000
00000000000000000000011111111111100000000000000000
00000000000000000001111111111111111000000000000000
00000000000000000011111111111111111100000000000000
00000000000000000111111111111111111110000000000000
00000000000000001111111111111111111111000000000000
00000000000000011111111111111111111111100000000000
00000000000000011111111111111111111111110000000000
00000000000000111111111111111111111111110000000000
00000000000000111111111111111111111111110000000000
00000000000000111111111111100111111111111000000000
00000000000001111111111100000001111111111000000000
00000000000001111111111000000001111111111000000000
00000000000001111111111000000001111111111000000000
00000000000001111111110000000001111111111000000000
00000000000001111111111000000001111111111000000000
00000000000001111111111000000001111111111000000000
00000000000001111111111100000001111111111000000000
00000000000001111111111110000011111111111000000000
00000000000000111111111111111111111111110000000000
00000000000000111111111111111111111111100000000000
00000000000000011111111111111111111111000000000000
00000000000000001111111111111111111111000000000000
00000000000000001111111111111111111100000000000000
00000000000000111111111111111111111100000000000000
00000000000000111111111111111111111110000000000000
00000000000011111111111111111111111111000000000000
00000000000111111111111111111111111111000000000000
00000000001111111111111111111111111111100000000000
00000000001111111111111100001111111111110000000000
00000000011111111111110000000011111111111000000000
00000000111111111111000000000011111111111000000000
00000000111111111111000000000001111111111100000000
00000000111111111110000000000001111111111100000000
00000000111111111110000000000001111111111100000000
00000001111111111100000000000000111111111100000000
00000001111111111100000000000001111111111100000000
00000001111111111110000000000001111111111100000000
00000001111111111110000000000011111111111100000000
00000001111111111111000000000011111111111100000000
00000011111111111111100000000111111111111100000000
00000011111111111111111000011111111111111100000000
00000001111111111111111111111111111111111100000000
00000001111111111111111111111111111111111000000000
00000001111111111111111111111111111111111000000000
00000000111111111111111111111111111111111000000000
00000000011111111111111111111111111111110000000000
00000000011111111111111111111111111111100000000000
00000000001111111111111111111111111111000000000000
00000000000011111111111111111111111100000000000000
00000000000001001111111111111110000000000000000000
00000000000000000001100000111000000000000000000000
00000000000000000000000000000000000000000000000000
00000000000000000000000000000000000000000000000000
00000000000000000000000000000000000000000000000000
00000000000000000000000000000000000000000000000000
00000000000000000000000000000000000000000000000000
00000000000000000000000000000000000000000000000000
