P1
50 70
00000000000000000000000000000000000000000000000000
00000000000000000000000000000000000000000000000000
00000000000000000000000000000000000000000000000000
00000000000000000000000000000000000000000000000000
00000000000000000000000000000000000000000000000000
00000000000000000000000000000000000000000000000000
00000000000000000000000000000000000000000000000000
00000000000000000000000000000000000000000000000000
00000000000000000000000000000000000000000000000000
00000000000000000000000000000000000000000000000000
00000000000000000000000000000000000000000000000000
00000000000000000000000000000000000000000000000000
00000000000000000000000000000000000000000000000000
00000000000000000000000000000000000000000000000000
00000000000000000000000000000000000000000000000000
00000000000000000000000000000000000000000000000000
00000000000000000000000000000000000000000000000000
00000000000000000000000000000000000000000000000000
00000000000000000000000000000000000000000000000000
00000000000000000000000000000111100000000000000000
00000000000000000000000000001111111000000000000000
00000000000000000000000011111111111110000000000000
00000000000000000000011111100011111110000000000000
00000000000000000000111110000000111111000000000000
00000000000000000000111100000000011111000000000000
00000000000000000001111100000000011111000000000000
00000000000000000001111000000000001111100000000000
00000000000000000011111000000000001111100000000000
00000000000000000011111000000000001111100000000000
00000000000000000011111100000000001111000000000000
00000000000000000011111110000000011111000000000000
00000000000000000011111110000000111110000000000000
00000000000000000001111111000000111110000000000000
00000000000000000001111111100001111100000000000000
00000000000000000000111111111011110000000000000000
00000000000000000000011111111111100000000000000000
00000000000000000000001111111111000000000000000000
00000000000000000000000111111111100000000000000000
00000000000000000000000011111111110000000000000000
00000000000000000000000111111111111000000000000000
00000000000000000000001110001111111100000000000000
00000000000000000000111100001111111110000000000000
00000000000000000001111100000111111111000000000000
00000000000000000011111000000011111111000000000000
00000000000000000011111000000000111111100000000000
00000000000000000111110000000000011111100000000000
00000000000000000111110000000000011111100000000000
00000000000000000111100000000000001111100000000000
00000000000000001111110000000000001111100000000000
00000000000000000111110000000000001111100000000000
00000000000000000111110000000000001111100000000000
00000000000000000011110000000000001111100000000000
00000000000000000011110000000000000111100000000000
00000000000000000011111000000000001111100000000000
00000000000000000001111100000000011111000000000000
00000000000000000000111110000000011111000000000000
00000000000000000000011111000001111110000000000000
00000000000000000000000111111111111100000000000000
00000000000000000000000001111111110000000000000000
00000000000000000000000000000011000000000000000000
00000000000000000000000000000000000000000000000000
00000000000000000000000000000000000000000000000000
00000000000000000000000000000000000000000000000000
00000000000000000000000000000000000000000000000000
00000000000000000000000000000000000000000000000000
00000000000000000000000000000000000000000000000000
00000000000000000000000000000000000000000000000000
00000000000000000000000000000000000000000000000000
00000000000000000000000000000000000000000000000000
00000000000000000000000000000000000000000000000000
