P1
50 70
00000000000000000000000000000000000000000000000000
00000000000000000000000000000000000000000000000000
00000000000000000000000000000000000000000000000000
00000000000000000000000000000000000000000000000000
00000000000000000000000000000000000000000000000000
00000000000000000000000000000000000000000000000000
00000000000000000000000000000000000000000000000000
00000000000000000000000000000000000000000000000000
00000000000000000000000000000000000000000000000000
00000000000000000000000000000000000000000000000000
00000000000000000000000000000000000000000000000000
00000000000000000000000000000000000000000000000000
00000000000000000000000000000000000000000000000000
00000000000000000000000000000000000000000000000000
00000000000000000000111111110000000000000000000000
00000000000000000001111111111000000000000000000000
00000000000000000111111111111000000000000000000000
00000000000000000111110011111100000000000000000000
00000000000000001111100000111110000000000000000000
00000000000000001111000000011111000000000000000000
00000000000000011111000000011111000000000000000000
00000000000000011111000000011111100000000000000000
00000000000000011110000000001111100000000000000000
00000000000000011110000000000111110000000000000000
00000000000000011110000000000111110000000000000000
00000000000000111110000000000111111000000000000000
00000000000000111110000000000111111000000000000000
00000000000000111110000000000011111100000000000000
00000000000000111110000000000011111100000000000000
00000000000000011111000000000011111110000000000000
00000000000000011111000000000011111110000000000000
00000000000000011111000000000011111110000000000000
00000000000000011111000000000001111111000000000000
00000000000000011111100000000001111111000000000000
00000000000000011111100000000001111111000000000000
00000000000000001111110000000011111111000000000000
00000000000000001111110000000011111111100000000000
00000000000000000111111000000111111111110000000000
00000000000000000011111110011111111111110000000000
00000000000000000011111111111111101111110000000000
00000000000000000001111111111111000111110000000000
00000000000000000000011111111110000111111000000000
00000000000000000000000000001000000111111000000000
00000000000000000000000000000000000111111000000000
00000000000000000000000000000000000111111000000000
00000000000000000000000000000000000111111000000000
00000000000000000000000000000000000111111000000000
00000000000000000000000000000000000111111000000000
00000000000000000001100000000000000111111000000000
00000000000000000011110000000000000111111000000000
00000000000000000011110000000000001111110000000000
00000000000000000011111000000000001111110000000000
00000000000000000011111100000000011111110000000000
00000000000000000011111111110011111111100000000000
00000000000000000011111111111111111111000000000000
00000000000000000011111111111111111110000000000000
00000000000000000000011111111111111100000000000000
00000000000000000000000000110011000000000000000000
00000000000000000000000000000000000000000000000000
00000000000000000000000000000000000000000000000000
00000000000000000000000000000000000000000000000000
00000000000000000000000000000000000000000000000000
00000000000000000000000000000000000000000000000000
00000000000000000000000000000000000000000000000000
00000000000000000000000000000000000000000000000000
00000000000000000000000000000000000000000000000000
00000000000000000000000000000000000000000000000000
00000000000000000000000000000000000000000000000000
00000000000000000000000000000000000000000000000000
00000000000000000000000000000000000000000000000000
