P1
50 70
00000000000000000000000000000000000000000000000000
00000000000000000000000000000000000000000000000000
00000000000000000000000000000000000000000000000000
00000000000000000000000000000000000000000000000000
00000000000000000000000000000000000000000000000000
00000000000000000000000000000000000000000000000000
00000000000000000000000000000000000000000000000000
00000000000000000000000000000000000000000000000000
00000000000000000000000000000000000000000000000000
00000000000000000000000000000000000000000000000000
00000000000000000000000000000000000000000000000000
00000000000000000000000000000000000000000000000000
00000000000000000000000000000000000000000000000000
00000000000000000000000000000000000000000000000000
00000000000000000000000000000000000000000000000000
00000000000000000000000000000000000000000000000000
00000000000000000000000000000000000000000000000000
00000000000000000000000000000000000000000000000000
00000000000000000000000111101111111000000000000000
00000000000000000000001111111111111110000000000000
00000000000000000011111111111111111111000000000000
00000000000000001111111111111111111111100000000000
00000000000000111111111111111111111111110000000000
00000000000011111111111110000111111111111000000000
00000000000111111111111000000000111111111100000000
00000000000111111111000000000000011111111100000000
00000000000111111110000000000000001111111100000000
00000000001111111100000000000000001111111100000000
00000000001111111100000000000000000111111100000000
00000000001111111100000000000000001111111100000000
00000000001111111000000000000000001111111100000000
00000000001111111000000000000000001111111100000000
00000000001111111000000000000000001111111100000000
00000000001111111000000000000000001111111100000000
00000000001111111000000000000000011111111100000000
00000000001111111100000000000000011111111000000000
00000000001111111100000000000000111111111000000000
00000000000111111100000000000000111111111000000000
00000000000011111110000000000000111111111000000000
00000000000011111111000000000001111111111000000000
00000000000001111111110000000111111111110000000000
00000000000000111111111111111111111111110000000000
00000000000000011111111111111111111111100000000000
00000000000000000111111111111111111111100000000000
00000000000000000001111111111111111111100000000000
00000000000000000000111111111111111111100000000000
00000000000000000000000000110001111111000000000000
00000000000000000000000000000011111111000000000000
00000000001100000000000000000011111111000000000000
00000000001110000000000000000111111110000000000000
00000000011111000000000000000111111110000000000000
00000000011111110000000000011111111100000000000000
00000000001111111100000000111111111000000000000000
00000000000111111111111111111111111000000000000000
00000000000001111111111111111111110000000000000000
00000000000000111111111111111111100000000000000000
00000000000000001111111111111111000000000000000000
00000000000000000001111111111000000000000000000000
00000000000000000000011111100000000000000000000000
00000000000000000000000000000000000000000000000000
00000000000000000000000000000000000000000000000000
00000000000000000000000000000000000000000000000000
00000000000000000000000000000000000000000000000000
00000000000000000000000000000000000000000000000000
00000000000000000000000000000000000000000000000000
00000000000000000000000000000000000000000000000000
00000000000000000000000000000000000000000000000000
00000000000000000000000000000000000000000000000000
00000000000000000000000000000000000000000000000000
00000000000000000000000000000000000000000000000000
