P1
50 70
00000000000000000000000000000000000000000000000000
00000000000000000000000000000000000000000000000000
00000000000000000000000000000000000000000000000000
00000000000000000000000000000000000000000000000000
00000000000000000000000000000000000000000000000000
00000000000000000000000000000000000000000000000000
00000000000000000000000000000000000000000000000000
00000000000000000000000000000000000000000000000000
00000000000000000000000000000000000000000000000000
00000000000000000000000000000000000000000000000000
00000000000000000000000000000000000000000000000000
00000000000000000000000000000000000000000000000000
00000000000000001111111111111100000000000000000000
00000000000000011111111111111111000000000000000000
00000000000000111111111111111111100000000000000000
00000000000001111111111111111111110000000000000000
00000000000011111111111111111111111000000000000000
00000000000111111111111111111111111100000000000000
00000000001111111111111111111111111100000000000000
00000000001111111111111111111111111110000000000000
00000000011111111111111101111111111110000000000000
00000000011111111111100000011111111111000000000000
00000000011111111111000000001111111111000000000000
00000000011111111110000000001111111111100000000000
00000000011111111110000000000111111111100000000000
00000000011111111111000000000111111111100000000000
00000000011111111110000000000111111111110000000000
00000000011111111110000000000011111111110000000000
00000000011111111110000000000011111111111000000000
00000000011111111110000000000011111111111000000000
00000000011111111111000000000011111111111000000000
00000000011111111111000000000011111111111000000000
00000000011111111111000000000011111111111000000000
00000000001111111111100000000111111111111000000000
00000000001111111111110000001111111111111000000000
00000000000111111111111111111111111111110000000000
00000000000111111111111111111111111111110000000000
00000000000011111111111111111111111111110000000000
00000000000011111111111111111111111111110000000000
00000000000001111111111111111111111111110000000000
00000000000000111111111111111111111111110000000000
00000000000000001111111111111011111111110000000000
00000000000000000111111111110011111111111000000000
00000000000000000000000000000011111111111000000000
00000000000000000000000000000011111111111000000000
00000000000000000000000000000011111111110000000000
00000000000011111100000000000011111111110000000000
00000000011111111110000000000111111111110000000000
00000000011111111111000000000111111111100000000000
00000000011111111111000000001111111111100000000000
00000000001111111111110000011111111111000000000000
00000000001111111111111111111111111111000000000000
00000000001111111111111111111111111111000000000000
00000000000111111111111111111111111111000000000000
00000000000111111111111111111111111110000000000000
00000000000011111111111111111111111100000000000000
00000000000001111111111111111111111000000000000000
00000000000000111111111111111111110000000000000000
00000000000000011111111111111111000000000000000000
00000000000000000111111111111110000000000000000000
00000000000000000000000000000000000000000000000000
00000000000000000000000000000000000000000000000000
00000000000000000000000000000000000000000000000000
00000000000000000000000000000000000000000000000000
00000000000000000000000000000000000000000000000000
00000000000000000000000000000000000000000000000000
00000000000000000000000000000000000000000000000000
00000000000000000000000000000000000000000000000000
00000000000000000000000000000000000000000000000000
00000000000000000000000000000000000000000000000000
