P1
50 70
00000000000000000000000000000000000000000000000000
00000000000000000000000000000000000000000000000000
00000000000000000000000000000000000000000000000000
00000000000000000000000000000000000000000000000000
00000000000000000000000000000000000000000000000000
00000000000000000000000000000000000000000000000000
00000000000000000000000000000000000000000000000000
00000000000000000000000000000000000000000000000000
00000000000000000000000000000000000000000000000000
00000000000000000000000000000000000000000000000000
00000000000000000000000000000000000000000000000000
00000000000000000000000000000000000000000000000000
00000000000000000000000000000000000000000000000000
00000000000000000000000000000000000000000000000000
00000000000000000000000000000000000000000000000000
00000000000000000000000000000000000000000000000000
00000000000000000000000000000000000000000000000000
00000000000000000000000011100000000000000000000000
00000000000000000000001111111110000000000000000000
00000000000000000000011111111111000000000000000000
00000000000000000000111111111111110000000000000000
00000000000000000000111111111111111000000000000000
00000000000000000001111111111111111100000000000000
00000000000000000011111111110001111110000000000000
00000000000000000011111111110000111110000000000000
00000000000000000011111111100000111111000000000000
00000000000000000111111111000000111111000000000000
00000000000000000111111111000001111111000000000000
00000000000000000111111110000001111111000000000000
00000000000000000111111110000001111111000000000000
00000000000000000111111110000001111111100000000000
00000000000000000111111110000001111111100000000000
00000000000000000111111110000001111111000000000000
00000000000000000111111100000011111111000000000000
00000000000000000011111110000011111111000000000000
00000000000000000011111110000011111111000000000000
00000000000000000001111110000011111111000000000000
00000000000000000000111111000111111111000000000000
00000000000000000000011111111111111111000000000000
00000000000000000000001111111111111111000000000000
00000000000000000000000001111111111111000000000000
00000000000001110000000000111111111110000000000000
00000000000011110000000000011111111100000000000000
00000000000011110000000000111111111100000000000000
00000000000011110000000000111111111100000000000000
00000000000111100000000000111111111100000000000000
00000000000111110000000001111111111000000000000000
00000000000111110000000001111111111000000000000000
00000000000111111000000011111111111000000000000000
00000000000011111100000111111111110000000000000000
00000000000001111111011111111111100000000000000000
00000000000000111111111111111111000000000000000000
00000000000000011111111111111111000000000000000000
00000000000000000011111111111110000000000000000000
00000000000000000000111111110000000000000000000000
00000000000000000000000010000000000000000000000000
00000000000000000000000000000000000000000000000000
00000000000000000000000000000000000000000000000000
00000000000000000000000000000000000000000000000000
00000000000000000000000000000000000000000000000000
00000000000000000000000000000000000000000000000000
00000000000000000000000000000000000000000000000000
00000000000000000000000000000000000000000000000000
00000000000000000000000000000000000000000000000000
00000000000000000000000000000000000000000000000000
00000000000000000000000000000000000000000000000000
00000000000000000000000000000000000000000000000000
00000000000000000000000000000000000000000000000000
00000000000000000000000000000000000000000000000000
00000000000000000000000000000000000000000000000000
